<?xml version="1.0" encoding="utf-8" standalone="no"?>
<!DOCTYPE svg PUBLIC "-//W3C//DTD SVG 1.1//EN"
  "http://www.w3.org/Graphics/SVG/1.1/DTD/svg11.dtd">
<svg height="576pt" version="1.1" viewBox="0 0 1440 576" width="1440pt" xmlns="http://www.w3.org/2000/svg" xmlns:xlink="http://www.w3.org/1999/xlink">
 <metadata>
  <rdf:RDF xmlns:cc="http://creativecommons.org/ns#" xmlns:dc="http://purl.org/dc/elements/1.1/" xmlns:rdf="http://www.w3.org/1999/02/22-rdf-syntax-ns#">
   <cc:Work>
    <dc:type rdf:resource="http://purl.org/dc/dcmitype/StillImage"/>
    <dc:date>2021-07-31T20:56:02.415851</dc:date>
    <dc:format>image/svg+xml</dc:format>
    <dc:creator>
     <cc:Agent>
      <dc:title>Matplotlib v3.4.2, https://matplotlib.org/</dc:title>
     </cc:Agent>
    </dc:creator>
   </cc:Work>
  </rdf:RDF>
 </metadata>
 <defs>
  <style type="text/css">*{stroke-linecap:butt;stroke-linejoin:round;}</style>
 </defs>
 <g id="figure_1">
  <g id="patch_1">
   <path d="M 0 576 
L 1440 576 
L 1440 0 
L 0 0 
z
" style="fill:none;"/>
  </g>
  <g id="axes_1">
   <g id="patch_2">
    <path d="M 83.195 507.745 
L 1398.66 507.745 
L 1398.66 10.8 
L 83.195 10.8 
z
" style="fill:#ffffff;"/>
   </g>
   <g id="matplotlib.axis_1">
    <g id="xtick_1">
     <g id="line2d_1">
      <defs>
       <path d="M 0 0 
L 0 3.5 
" id="md841f74e56" style="stroke:#000000;stroke-width:0.8;"/>
      </defs>
      <g>
       <use style="stroke:#000000;stroke-width:0.8;" x="83.195" xlink:href="#md841f74e56" y="507.745"/>
      </g>
     </g>
     <g id="text_1">
      <!-- 0 -->
      <g transform="translate(75.56 532.98125)scale(0.24 -0.24)">
       <defs>
        <path d="M 2034 4250 
Q 1547 4250 1301 3770 
Q 1056 3291 1056 2328 
Q 1056 1369 1301 889 
Q 1547 409 2034 409 
Q 2525 409 2770 889 
Q 3016 1369 3016 2328 
Q 3016 3291 2770 3770 
Q 2525 4250 2034 4250 
z
M 2034 4750 
Q 2819 4750 3233 4129 
Q 3647 3509 3647 2328 
Q 3647 1150 3233 529 
Q 2819 -91 2034 -91 
Q 1250 -91 836 529 
Q 422 1150 422 2328 
Q 422 3509 836 4129 
Q 1250 4750 2034 4750 
z
" id="DejaVuSans-30" transform="scale(0.015625)"/>
       </defs>
       <use xlink:href="#DejaVuSans-30"/>
      </g>
     </g>
    </g>
    <g id="xtick_2">
     <g id="line2d_2">
      <g>
       <use style="stroke:#000000;stroke-width:0.8;" x="247.628125" xlink:href="#md841f74e56" y="507.745"/>
      </g>
     </g>
     <g id="text_2">
      <!-- 250 -->
      <g transform="translate(224.723125 532.98125)scale(0.24 -0.24)">
       <defs>
        <path d="M 1228 531 
L 3431 531 
L 3431 0 
L 469 0 
L 469 531 
Q 828 903 1448 1529 
Q 2069 2156 2228 2338 
Q 2531 2678 2651 2914 
Q 2772 3150 2772 3378 
Q 2772 3750 2511 3984 
Q 2250 4219 1831 4219 
Q 1534 4219 1204 4116 
Q 875 4013 500 3803 
L 500 4441 
Q 881 4594 1212 4672 
Q 1544 4750 1819 4750 
Q 2544 4750 2975 4387 
Q 3406 4025 3406 3419 
Q 3406 3131 3298 2873 
Q 3191 2616 2906 2266 
Q 2828 2175 2409 1742 
Q 1991 1309 1228 531 
z
" id="DejaVuSans-32" transform="scale(0.015625)"/>
        <path d="M 691 4666 
L 3169 4666 
L 3169 4134 
L 1269 4134 
L 1269 2991 
Q 1406 3038 1543 3061 
Q 1681 3084 1819 3084 
Q 2600 3084 3056 2656 
Q 3513 2228 3513 1497 
Q 3513 744 3044 326 
Q 2575 -91 1722 -91 
Q 1428 -91 1123 -41 
Q 819 9 494 109 
L 494 744 
Q 775 591 1075 516 
Q 1375 441 1709 441 
Q 2250 441 2565 725 
Q 2881 1009 2881 1497 
Q 2881 1984 2565 2268 
Q 2250 2553 1709 2553 
Q 1456 2553 1204 2497 
Q 953 2441 691 2322 
L 691 4666 
z
" id="DejaVuSans-35" transform="scale(0.015625)"/>
       </defs>
       <use xlink:href="#DejaVuSans-32"/>
       <use x="63.623047" xlink:href="#DejaVuSans-35"/>
       <use x="127.246094" xlink:href="#DejaVuSans-30"/>
      </g>
     </g>
    </g>
    <g id="xtick_3">
     <g id="line2d_3">
      <g>
       <use style="stroke:#000000;stroke-width:0.8;" x="412.06125" xlink:href="#md841f74e56" y="507.745"/>
      </g>
     </g>
     <g id="text_3">
      <!-- 500 -->
      <g transform="translate(389.15625 532.98125)scale(0.24 -0.24)">
       <use xlink:href="#DejaVuSans-35"/>
       <use x="63.623047" xlink:href="#DejaVuSans-30"/>
       <use x="127.246094" xlink:href="#DejaVuSans-30"/>
      </g>
     </g>
    </g>
    <g id="xtick_4">
     <g id="line2d_4">
      <g>
       <use style="stroke:#000000;stroke-width:0.8;" x="576.494375" xlink:href="#md841f74e56" y="507.745"/>
      </g>
     </g>
     <g id="text_4">
      <!-- 750 -->
      <g transform="translate(553.589375 532.98125)scale(0.24 -0.24)">
       <defs>
        <path d="M 525 4666 
L 3525 4666 
L 3525 4397 
L 1831 0 
L 1172 0 
L 2766 4134 
L 525 4134 
L 525 4666 
z
" id="DejaVuSans-37" transform="scale(0.015625)"/>
       </defs>
       <use xlink:href="#DejaVuSans-37"/>
       <use x="63.623047" xlink:href="#DejaVuSans-35"/>
       <use x="127.246094" xlink:href="#DejaVuSans-30"/>
      </g>
     </g>
    </g>
    <g id="xtick_5">
     <g id="line2d_5">
      <g>
       <use style="stroke:#000000;stroke-width:0.8;" x="740.9275" xlink:href="#md841f74e56" y="507.745"/>
      </g>
     </g>
     <g id="text_5">
      <!-- 1000 -->
      <g transform="translate(710.3875 532.98125)scale(0.24 -0.24)">
       <defs>
        <path d="M 794 531 
L 1825 531 
L 1825 4091 
L 703 3866 
L 703 4441 
L 1819 4666 
L 2450 4666 
L 2450 531 
L 3481 531 
L 3481 0 
L 794 0 
L 794 531 
z
" id="DejaVuSans-31" transform="scale(0.015625)"/>
       </defs>
       <use xlink:href="#DejaVuSans-31"/>
       <use x="63.623047" xlink:href="#DejaVuSans-30"/>
       <use x="127.246094" xlink:href="#DejaVuSans-30"/>
       <use x="190.869141" xlink:href="#DejaVuSans-30"/>
      </g>
     </g>
    </g>
    <g id="xtick_6">
     <g id="line2d_6">
      <g>
       <use style="stroke:#000000;stroke-width:0.8;" x="905.360625" xlink:href="#md841f74e56" y="507.745"/>
      </g>
     </g>
     <g id="text_6">
      <!-- 1250 -->
      <g transform="translate(874.820625 532.98125)scale(0.24 -0.24)">
       <use xlink:href="#DejaVuSans-31"/>
       <use x="63.623047" xlink:href="#DejaVuSans-32"/>
       <use x="127.246094" xlink:href="#DejaVuSans-35"/>
       <use x="190.869141" xlink:href="#DejaVuSans-30"/>
      </g>
     </g>
    </g>
    <g id="xtick_7">
     <g id="line2d_7">
      <g>
       <use style="stroke:#000000;stroke-width:0.8;" x="1069.79375" xlink:href="#md841f74e56" y="507.745"/>
      </g>
     </g>
     <g id="text_7">
      <!-- 1500 -->
      <g transform="translate(1039.25375 532.98125)scale(0.24 -0.24)">
       <use xlink:href="#DejaVuSans-31"/>
       <use x="63.623047" xlink:href="#DejaVuSans-35"/>
       <use x="127.246094" xlink:href="#DejaVuSans-30"/>
       <use x="190.869141" xlink:href="#DejaVuSans-30"/>
      </g>
     </g>
    </g>
    <g id="xtick_8">
     <g id="line2d_8">
      <g>
       <use style="stroke:#000000;stroke-width:0.8;" x="1234.226875" xlink:href="#md841f74e56" y="507.745"/>
      </g>
     </g>
     <g id="text_8">
      <!-- 1750 -->
      <g transform="translate(1203.686875 532.98125)scale(0.24 -0.24)">
       <use xlink:href="#DejaVuSans-31"/>
       <use x="63.623047" xlink:href="#DejaVuSans-37"/>
       <use x="127.246094" xlink:href="#DejaVuSans-35"/>
       <use x="190.869141" xlink:href="#DejaVuSans-30"/>
      </g>
     </g>
    </g>
    <g id="xtick_9">
     <g id="line2d_9">
      <g>
       <use style="stroke:#000000;stroke-width:0.8;" x="1398.66" xlink:href="#md841f74e56" y="507.745"/>
      </g>
     </g>
     <g id="text_9">
      <!-- 2000 -->
      <g transform="translate(1368.12 532.98125)scale(0.24 -0.24)">
       <use xlink:href="#DejaVuSans-32"/>
       <use x="63.623047" xlink:href="#DejaVuSans-30"/>
       <use x="127.246094" xlink:href="#DejaVuSans-30"/>
       <use x="190.869141" xlink:href="#DejaVuSans-30"/>
      </g>
     </g>
    </g>
    <g id="text_10">
     <!-- iterations -->
     <g transform="translate(683.981875 560.20875)scale(0.24 -0.24)">
      <defs>
       <path d="M 603 3500 
L 1178 3500 
L 1178 0 
L 603 0 
L 603 3500 
z
M 603 4863 
L 1178 4863 
L 1178 4134 
L 603 4134 
L 603 4863 
z
" id="DejaVuSans-69" transform="scale(0.015625)"/>
       <path d="M 1172 4494 
L 1172 3500 
L 2356 3500 
L 2356 3053 
L 1172 3053 
L 1172 1153 
Q 1172 725 1289 603 
Q 1406 481 1766 481 
L 2356 481 
L 2356 0 
L 1766 0 
Q 1100 0 847 248 
Q 594 497 594 1153 
L 594 3053 
L 172 3053 
L 172 3500 
L 594 3500 
L 594 4494 
L 1172 4494 
z
" id="DejaVuSans-74" transform="scale(0.015625)"/>
       <path d="M 3597 1894 
L 3597 1613 
L 953 1613 
Q 991 1019 1311 708 
Q 1631 397 2203 397 
Q 2534 397 2845 478 
Q 3156 559 3463 722 
L 3463 178 
Q 3153 47 2828 -22 
Q 2503 -91 2169 -91 
Q 1331 -91 842 396 
Q 353 884 353 1716 
Q 353 2575 817 3079 
Q 1281 3584 2069 3584 
Q 2775 3584 3186 3129 
Q 3597 2675 3597 1894 
z
M 3022 2063 
Q 3016 2534 2758 2815 
Q 2500 3097 2075 3097 
Q 1594 3097 1305 2825 
Q 1016 2553 972 2059 
L 3022 2063 
z
" id="DejaVuSans-65" transform="scale(0.015625)"/>
       <path d="M 2631 2963 
Q 2534 3019 2420 3045 
Q 2306 3072 2169 3072 
Q 1681 3072 1420 2755 
Q 1159 2438 1159 1844 
L 1159 0 
L 581 0 
L 581 3500 
L 1159 3500 
L 1159 2956 
Q 1341 3275 1631 3429 
Q 1922 3584 2338 3584 
Q 2397 3584 2469 3576 
Q 2541 3569 2628 3553 
L 2631 2963 
z
" id="DejaVuSans-72" transform="scale(0.015625)"/>
       <path d="M 2194 1759 
Q 1497 1759 1228 1600 
Q 959 1441 959 1056 
Q 959 750 1161 570 
Q 1363 391 1709 391 
Q 2188 391 2477 730 
Q 2766 1069 2766 1631 
L 2766 1759 
L 2194 1759 
z
M 3341 1997 
L 3341 0 
L 2766 0 
L 2766 531 
Q 2569 213 2275 61 
Q 1981 -91 1556 -91 
Q 1019 -91 701 211 
Q 384 513 384 1019 
Q 384 1609 779 1909 
Q 1175 2209 1959 2209 
L 2766 2209 
L 2766 2266 
Q 2766 2663 2505 2880 
Q 2244 3097 1772 3097 
Q 1472 3097 1187 3025 
Q 903 2953 641 2809 
L 641 3341 
Q 956 3463 1253 3523 
Q 1550 3584 1831 3584 
Q 2591 3584 2966 3190 
Q 3341 2797 3341 1997 
z
" id="DejaVuSans-61" transform="scale(0.015625)"/>
       <path d="M 1959 3097 
Q 1497 3097 1228 2736 
Q 959 2375 959 1747 
Q 959 1119 1226 758 
Q 1494 397 1959 397 
Q 2419 397 2687 759 
Q 2956 1122 2956 1747 
Q 2956 2369 2687 2733 
Q 2419 3097 1959 3097 
z
M 1959 3584 
Q 2709 3584 3137 3096 
Q 3566 2609 3566 1747 
Q 3566 888 3137 398 
Q 2709 -91 1959 -91 
Q 1206 -91 779 398 
Q 353 888 353 1747 
Q 353 2609 779 3096 
Q 1206 3584 1959 3584 
z
" id="DejaVuSans-6f" transform="scale(0.015625)"/>
       <path d="M 3513 2113 
L 3513 0 
L 2938 0 
L 2938 2094 
Q 2938 2591 2744 2837 
Q 2550 3084 2163 3084 
Q 1697 3084 1428 2787 
Q 1159 2491 1159 1978 
L 1159 0 
L 581 0 
L 581 3500 
L 1159 3500 
L 1159 2956 
Q 1366 3272 1645 3428 
Q 1925 3584 2291 3584 
Q 2894 3584 3203 3211 
Q 3513 2838 3513 2113 
z
" id="DejaVuSans-6e" transform="scale(0.015625)"/>
       <path d="M 2834 3397 
L 2834 2853 
Q 2591 2978 2328 3040 
Q 2066 3103 1784 3103 
Q 1356 3103 1142 2972 
Q 928 2841 928 2578 
Q 928 2378 1081 2264 
Q 1234 2150 1697 2047 
L 1894 2003 
Q 2506 1872 2764 1633 
Q 3022 1394 3022 966 
Q 3022 478 2636 193 
Q 2250 -91 1575 -91 
Q 1294 -91 989 -36 
Q 684 19 347 128 
L 347 722 
Q 666 556 975 473 
Q 1284 391 1588 391 
Q 1994 391 2212 530 
Q 2431 669 2431 922 
Q 2431 1156 2273 1281 
Q 2116 1406 1581 1522 
L 1381 1569 
Q 847 1681 609 1914 
Q 372 2147 372 2553 
Q 372 3047 722 3315 
Q 1072 3584 1716 3584 
Q 2034 3584 2315 3537 
Q 2597 3491 2834 3397 
z
" id="DejaVuSans-73" transform="scale(0.015625)"/>
      </defs>
      <use xlink:href="#DejaVuSans-69"/>
      <use x="27.783203" xlink:href="#DejaVuSans-74"/>
      <use x="66.992188" xlink:href="#DejaVuSans-65"/>
      <use x="128.515625" xlink:href="#DejaVuSans-72"/>
      <use x="169.628906" xlink:href="#DejaVuSans-61"/>
      <use x="230.908203" xlink:href="#DejaVuSans-74"/>
      <use x="270.117188" xlink:href="#DejaVuSans-69"/>
      <use x="297.900391" xlink:href="#DejaVuSans-6f"/>
      <use x="359.082031" xlink:href="#DejaVuSans-6e"/>
      <use x="422.460938" xlink:href="#DejaVuSans-73"/>
     </g>
    </g>
   </g>
   <g id="matplotlib.axis_2">
    <g id="ytick_1">
     <g id="line2d_10">
      <defs>
       <path d="M 0 0 
L -3.5 0 
" id="m30f80863fc" style="stroke:#000000;stroke-width:0.8;"/>
      </defs>
      <g>
       <use style="stroke:#000000;stroke-width:0.8;" x="83.195" xlink:href="#m30f80863fc" y="502.892426"/>
      </g>
     </g>
     <g id="text_11">
      <!-- 3.0 -->
      <g transform="translate(38.0275 512.010551)scale(0.24 -0.24)">
       <defs>
        <path d="M 2597 2516 
Q 3050 2419 3304 2112 
Q 3559 1806 3559 1356 
Q 3559 666 3084 287 
Q 2609 -91 1734 -91 
Q 1441 -91 1130 -33 
Q 819 25 488 141 
L 488 750 
Q 750 597 1062 519 
Q 1375 441 1716 441 
Q 2309 441 2620 675 
Q 2931 909 2931 1356 
Q 2931 1769 2642 2001 
Q 2353 2234 1838 2234 
L 1294 2234 
L 1294 2753 
L 1863 2753 
Q 2328 2753 2575 2939 
Q 2822 3125 2822 3475 
Q 2822 3834 2567 4026 
Q 2313 4219 1838 4219 
Q 1578 4219 1281 4162 
Q 984 4106 628 3988 
L 628 4550 
Q 988 4650 1302 4700 
Q 1616 4750 1894 4750 
Q 2613 4750 3031 4423 
Q 3450 4097 3450 3541 
Q 3450 3153 3228 2886 
Q 3006 2619 2597 2516 
z
" id="DejaVuSans-33" transform="scale(0.015625)"/>
        <path d="M 684 794 
L 1344 794 
L 1344 0 
L 684 0 
L 684 794 
z
" id="DejaVuSans-2e" transform="scale(0.015625)"/>
       </defs>
       <use xlink:href="#DejaVuSans-33"/>
       <use x="63.623047" xlink:href="#DejaVuSans-2e"/>
       <use x="95.410156" xlink:href="#DejaVuSans-30"/>
      </g>
     </g>
    </g>
    <g id="ytick_2">
     <g id="line2d_11">
      <g>
       <use style="stroke:#000000;stroke-width:0.8;" x="83.195" xlink:href="#m30f80863fc" y="443.365151"/>
      </g>
     </g>
     <g id="text_12">
      <!-- 3.5 -->
      <g transform="translate(38.0275 452.483276)scale(0.24 -0.24)">
       <use xlink:href="#DejaVuSans-33"/>
       <use x="63.623047" xlink:href="#DejaVuSans-2e"/>
       <use x="95.410156" xlink:href="#DejaVuSans-35"/>
      </g>
     </g>
    </g>
    <g id="ytick_3">
     <g id="line2d_12">
      <g>
       <use style="stroke:#000000;stroke-width:0.8;" x="83.195" xlink:href="#m30f80863fc" y="383.837876"/>
      </g>
     </g>
     <g id="text_13">
      <!-- 4.0 -->
      <g transform="translate(38.0275 392.956001)scale(0.24 -0.24)">
       <defs>
        <path d="M 2419 4116 
L 825 1625 
L 2419 1625 
L 2419 4116 
z
M 2253 4666 
L 3047 4666 
L 3047 1625 
L 3713 1625 
L 3713 1100 
L 3047 1100 
L 3047 0 
L 2419 0 
L 2419 1100 
L 313 1100 
L 313 1709 
L 2253 4666 
z
" id="DejaVuSans-34" transform="scale(0.015625)"/>
       </defs>
       <use xlink:href="#DejaVuSans-34"/>
       <use x="63.623047" xlink:href="#DejaVuSans-2e"/>
       <use x="95.410156" xlink:href="#DejaVuSans-30"/>
      </g>
     </g>
    </g>
    <g id="ytick_4">
     <g id="line2d_13">
      <g>
       <use style="stroke:#000000;stroke-width:0.8;" x="83.195" xlink:href="#m30f80863fc" y="324.310601"/>
      </g>
     </g>
     <g id="text_14">
      <!-- 4.5 -->
      <g transform="translate(38.0275 333.428726)scale(0.24 -0.24)">
       <use xlink:href="#DejaVuSans-34"/>
       <use x="63.623047" xlink:href="#DejaVuSans-2e"/>
       <use x="95.410156" xlink:href="#DejaVuSans-35"/>
      </g>
     </g>
    </g>
    <g id="ytick_5">
     <g id="line2d_14">
      <g>
       <use style="stroke:#000000;stroke-width:0.8;" x="83.195" xlink:href="#m30f80863fc" y="264.783326"/>
      </g>
     </g>
     <g id="text_15">
      <!-- 5.0 -->
      <g transform="translate(38.0275 273.901451)scale(0.24 -0.24)">
       <use xlink:href="#DejaVuSans-35"/>
       <use x="63.623047" xlink:href="#DejaVuSans-2e"/>
       <use x="95.410156" xlink:href="#DejaVuSans-30"/>
      </g>
     </g>
    </g>
    <g id="ytick_6">
     <g id="line2d_15">
      <g>
       <use style="stroke:#000000;stroke-width:0.8;" x="83.195" xlink:href="#m30f80863fc" y="205.256051"/>
      </g>
     </g>
     <g id="text_16">
      <!-- 5.5 -->
      <g transform="translate(38.0275 214.374176)scale(0.24 -0.24)">
       <use xlink:href="#DejaVuSans-35"/>
       <use x="63.623047" xlink:href="#DejaVuSans-2e"/>
       <use x="95.410156" xlink:href="#DejaVuSans-35"/>
      </g>
     </g>
    </g>
    <g id="ytick_7">
     <g id="line2d_16">
      <g>
       <use style="stroke:#000000;stroke-width:0.8;" x="83.195" xlink:href="#m30f80863fc" y="145.728776"/>
      </g>
     </g>
     <g id="text_17">
      <!-- 6.0 -->
      <g transform="translate(38.0275 154.846901)scale(0.24 -0.24)">
       <defs>
        <path d="M 2113 2584 
Q 1688 2584 1439 2293 
Q 1191 2003 1191 1497 
Q 1191 994 1439 701 
Q 1688 409 2113 409 
Q 2538 409 2786 701 
Q 3034 994 3034 1497 
Q 3034 2003 2786 2293 
Q 2538 2584 2113 2584 
z
M 3366 4563 
L 3366 3988 
Q 3128 4100 2886 4159 
Q 2644 4219 2406 4219 
Q 1781 4219 1451 3797 
Q 1122 3375 1075 2522 
Q 1259 2794 1537 2939 
Q 1816 3084 2150 3084 
Q 2853 3084 3261 2657 
Q 3669 2231 3669 1497 
Q 3669 778 3244 343 
Q 2819 -91 2113 -91 
Q 1303 -91 875 529 
Q 447 1150 447 2328 
Q 447 3434 972 4092 
Q 1497 4750 2381 4750 
Q 2619 4750 2861 4703 
Q 3103 4656 3366 4563 
z
" id="DejaVuSans-36" transform="scale(0.015625)"/>
       </defs>
       <use xlink:href="#DejaVuSans-36"/>
       <use x="63.623047" xlink:href="#DejaVuSans-2e"/>
       <use x="95.410156" xlink:href="#DejaVuSans-30"/>
      </g>
     </g>
    </g>
    <g id="ytick_8">
     <g id="line2d_17">
      <g>
       <use style="stroke:#000000;stroke-width:0.8;" x="83.195" xlink:href="#m30f80863fc" y="86.201501"/>
      </g>
     </g>
     <g id="text_18">
      <!-- 6.5 -->
      <g transform="translate(38.0275 95.319626)scale(0.24 -0.24)">
       <use xlink:href="#DejaVuSans-36"/>
       <use x="63.623047" xlink:href="#DejaVuSans-2e"/>
       <use x="95.410156" xlink:href="#DejaVuSans-35"/>
      </g>
     </g>
    </g>
    <g id="ytick_9">
     <g id="line2d_18">
      <g>
       <use style="stroke:#000000;stroke-width:0.8;" x="83.195" xlink:href="#m30f80863fc" y="26.674227"/>
      </g>
     </g>
     <g id="text_19">
      <!-- 7.0 -->
      <g transform="translate(38.0275 35.792352)scale(0.24 -0.24)">
       <use xlink:href="#DejaVuSans-37"/>
       <use x="63.623047" xlink:href="#DejaVuSans-2e"/>
       <use x="95.410156" xlink:href="#DejaVuSans-30"/>
      </g>
     </g>
    </g>
    <g id="text_20">
     <!-- VQE energy -->
     <g transform="translate(29.03625 330.14)rotate(-90)scale(0.24 -0.24)">
      <defs>
       <path d="M 1831 0 
L 50 4666 
L 709 4666 
L 2188 738 
L 3669 4666 
L 4325 4666 
L 2547 0 
L 1831 0 
z
" id="DejaVuSans-56" transform="scale(0.015625)"/>
       <path d="M 2522 4238 
Q 1834 4238 1429 3725 
Q 1025 3213 1025 2328 
Q 1025 1447 1429 934 
Q 1834 422 2522 422 
Q 3209 422 3611 934 
Q 4013 1447 4013 2328 
Q 4013 3213 3611 3725 
Q 3209 4238 2522 4238 
z
M 3406 84 
L 4238 -825 
L 3475 -825 
L 2784 -78 
Q 2681 -84 2626 -87 
Q 2572 -91 2522 -91 
Q 1538 -91 948 567 
Q 359 1225 359 2328 
Q 359 3434 948 4092 
Q 1538 4750 2522 4750 
Q 3503 4750 4090 4092 
Q 4678 3434 4678 2328 
Q 4678 1516 4351 937 
Q 4025 359 3406 84 
z
" id="DejaVuSans-51" transform="scale(0.015625)"/>
       <path d="M 628 4666 
L 3578 4666 
L 3578 4134 
L 1259 4134 
L 1259 2753 
L 3481 2753 
L 3481 2222 
L 1259 2222 
L 1259 531 
L 3634 531 
L 3634 0 
L 628 0 
L 628 4666 
z
" id="DejaVuSans-45" transform="scale(0.015625)"/>
       <path id="DejaVuSans-20" transform="scale(0.015625)"/>
       <path d="M 2906 1791 
Q 2906 2416 2648 2759 
Q 2391 3103 1925 3103 
Q 1463 3103 1205 2759 
Q 947 2416 947 1791 
Q 947 1169 1205 825 
Q 1463 481 1925 481 
Q 2391 481 2648 825 
Q 2906 1169 2906 1791 
z
M 3481 434 
Q 3481 -459 3084 -895 
Q 2688 -1331 1869 -1331 
Q 1566 -1331 1297 -1286 
Q 1028 -1241 775 -1147 
L 775 -588 
Q 1028 -725 1275 -790 
Q 1522 -856 1778 -856 
Q 2344 -856 2625 -561 
Q 2906 -266 2906 331 
L 2906 616 
Q 2728 306 2450 153 
Q 2172 0 1784 0 
Q 1141 0 747 490 
Q 353 981 353 1791 
Q 353 2603 747 3093 
Q 1141 3584 1784 3584 
Q 2172 3584 2450 3431 
Q 2728 3278 2906 2969 
L 2906 3500 
L 3481 3500 
L 3481 434 
z
" id="DejaVuSans-67" transform="scale(0.015625)"/>
       <path d="M 2059 -325 
Q 1816 -950 1584 -1140 
Q 1353 -1331 966 -1331 
L 506 -1331 
L 506 -850 
L 844 -850 
Q 1081 -850 1212 -737 
Q 1344 -625 1503 -206 
L 1606 56 
L 191 3500 
L 800 3500 
L 1894 763 
L 2988 3500 
L 3597 3500 
L 2059 -325 
z
" id="DejaVuSans-79" transform="scale(0.015625)"/>
      </defs>
      <use xlink:href="#DejaVuSans-56"/>
      <use x="68.408203" xlink:href="#DejaVuSans-51"/>
      <use x="147.119141" xlink:href="#DejaVuSans-45"/>
      <use x="210.302734" xlink:href="#DejaVuSans-20"/>
      <use x="242.089844" xlink:href="#DejaVuSans-65"/>
      <use x="303.613281" xlink:href="#DejaVuSans-6e"/>
      <use x="366.992188" xlink:href="#DejaVuSans-65"/>
      <use x="428.515625" xlink:href="#DejaVuSans-72"/>
      <use x="467.878906" xlink:href="#DejaVuSans-67"/>
      <use x="531.355469" xlink:href="#DejaVuSans-79"/>
     </g>
    </g>
   </g>
   <g id="line2d_19">
    <path clip-path="url(#paa3bed3f70)" d="M 83.852733 143.901455 
L 84.510465 165.104949 
L 85.168198 125.911281 
L 85.82593 134.215882 
L 86.483663 178.510055 
L 87.141395 183.156367 
L 87.799128 209.562286 
L 88.45686 206.702534 
L 89.114593 217.94425 
L 89.772325 203.004659 
L 90.430058 215.369593 
L 91.08779 172.171724 
L 91.745523 202.239827 
L 92.403255 209.753929 
L 93.060988 196.418526 
L 93.71872 218.245034 
L 94.376453 179.740694 
L 95.034185 187.823494 
L 95.691918 199.920571 
L 96.34965 203.190226 
L 97.007383 221.236208 
L 97.665115 214.338251 
L 98.322848 232.649449 
L 98.98058 275.804784 
L 99.638313 260.334525 
L 100.296045 286.837099 
L 100.953778 277.420824 
L 101.61151 269.731398 
L 102.269243 272.522131 
L 102.926975 313.956771 
L 103.584708 266.753361 
L 104.24244 335.121765 
L 104.900173 322.762924 
L 105.557905 314.561852 
L 106.215638 341.059675 
L 106.87337 303.994089 
L 107.531103 318.785484 
L 108.188835 300.474905 
L 108.846568 346.844073 
L 109.5043 319.71555 
L 110.162033 325.458032 
L 110.819765 321.148311 
L 111.477498 330.884209 
L 112.13523 299.863464 
L 114.108428 335.946329 
L 114.76616 340.531335 
L 115.423893 339.999877 
L 116.081625 382.625428 
L 116.739358 351.306841 
L 117.39709 386.804585 
L 118.054823 358.418212 
L 118.712555 340.57753 
L 119.370288 379.606003 
L 120.02802 357.674719 
L 120.685753 415.532224 
L 121.343485 378.239358 
L 122.001218 402.482558 
L 122.65895 354.166958 
L 123.316683 402.351618 
L 123.974415 382.149188 
L 124.632148 399.85985 
L 125.28988 399.029398 
L 125.947613 417.822444 
L 126.605345 420.609583 
L 127.263078 413.154602 
L 127.92081 417.763333 
L 128.578543 416.973408 
L 129.236275 406.697567 
L 129.894008 403.410517 
L 130.55174 408.151762 
L 131.209473 428.835177 
L 131.867205 429.515942 
L 132.524938 428.396118 
L 133.18267 430.03192 
L 133.840403 419.285618 
L 134.498135 426.47517 
L 135.155867 432.238874 
L 135.8136 420.02736 
L 136.471333 417.208204 
L 137.129065 426.113341 
L 137.786798 424.467018 
L 138.44453 427.396053 
L 139.102262 415.35011 
L 139.759995 415.299159 
L 141.07546 438.662231 
L 141.733193 434.661083 
L 142.390925 441.011307 
L 143.048658 425.533633 
L 143.70639 434.603094 
L 144.364123 424.071755 
L 145.021855 437.420618 
L 145.679588 441.331761 
L 146.33732 429.746987 
L 146.995053 425.697421 
L 147.652785 443.022092 
L 148.310518 433.281856 
L 148.96825 444.636823 
L 149.625983 426.180006 
L 150.283715 443.99975 
L 150.941448 424.157361 
L 151.59918 444.414804 
L 152.256912 443.752318 
L 152.914645 443.435587 
L 153.572378 443.950709 
L 154.23011 439.525547 
L 154.887843 444.830157 
L 155.545575 435.379366 
L 156.203307 450.593418 
L 156.86104 443.13647 
L 157.518773 446.333721 
L 158.176505 450.511373 
L 158.834238 448.837237 
L 159.49197 451.505138 
L 160.149703 450.727679 
L 160.807435 450.249224 
L 162.1229 447.400517 
L 162.780633 453.649759 
L 163.438365 461.33996 
L 164.096098 463.725018 
L 164.75383 463.432219 
L 165.411563 462.307326 
L 166.069295 459.467326 
L 166.727028 467.226824 
L 167.38476 465.242841 
L 168.042493 467.016235 
L 168.700225 464.42887 
L 169.357957 466.572713 
L 170.01569 462.098999 
L 170.673423 468.927718 
L 171.988888 466.303317 
L 172.64662 466.305976 
L 173.304353 471.800501 
L 173.962085 471.401797 
L 174.619818 471.70046 
L 175.27755 470.793904 
L 175.935283 470.566942 
L 176.593015 467.543279 
L 177.250748 474.063385 
L 177.90848 473.90118 
L 178.566213 472.830425 
L 179.223945 473.091411 
L 179.881678 459.435593 
L 180.53941 472.152597 
L 181.197143 474.045042 
L 181.854875 472.669351 
L 182.512608 473.606336 
L 183.17034 471.590815 
L 183.828073 476.693356 
L 184.485805 476.626853 
L 185.143538 470.977294 
L 185.80127 474.017015 
L 186.459002 469.369844 
L 187.774468 479.558746 
L 188.4322 479.139015 
L 189.089933 475.888491 
L 189.747665 477.642895 
L 190.405398 478.112918 
L 191.06313 479.08642 
L 191.720863 475.304697 
L 192.378595 475.494129 
L 193.036328 477.339558 
L 193.69406 479.679595 
L 194.351793 478.972147 
L 195.009525 479.26558 
L 195.667258 479.862695 
L 196.32499 480.126676 
L 196.982723 477.236256 
L 197.640455 479.783358 
L 198.298188 478.194549 
L 198.95592 479.578269 
L 199.613653 479.163571 
L 200.929118 479.550151 
L 201.58685 479.532818 
L 202.244583 480.384586 
L 202.902315 479.977036 
L 203.560047 478.853592 
L 204.875513 480.92077 
L 205.533245 480.44694 
L 206.190978 481.393207 
L 206.84871 481.656689 
L 208.164175 481.081288 
L 208.821908 481.420331 
L 209.47964 481.605873 
L 210.137373 482.416398 
L 210.795105 481.887588 
L 211.452838 481.107435 
L 212.11057 481.911775 
L 212.768303 480.820877 
L 213.426035 481.572585 
L 214.083768 482.668057 
L 214.7415 482.897173 
L 215.399233 482.331421 
L 216.714697 482.495085 
L 217.37243 481.899045 
L 219.345628 482.678769 
L 220.00336 482.616658 
L 220.661092 482.271325 
L 221.318825 483.026979 
L 221.976558 481.421073 
L 222.63429 482.857218 
L 223.292023 481.300928 
L 223.949755 482.789698 
L 224.607487 483.456976 
L 225.26522 483.262107 
L 225.922953 483.272037 
L 226.580685 482.976885 
L 227.238418 483.67393 
L 227.89615 483.868429 
L 228.553883 483.70849 
L 229.211615 484.21569 
L 230.52708 484.273013 
L 231.184813 484.261017 
L 231.842545 483.680371 
L 232.500278 484.228112 
L 233.15801 484.10118 
L 237.104405 484.537225 
L 238.41987 484.398103 
L 239.077603 484.643554 
L 239.735335 484.217103 
L 241.0508 484.561014 
L 242.366265 484.645853 
L 243.023998 484.586499 
L 243.68173 484.227889 
L 244.339463 484.546001 
L 245.654928 484.714499 
L 246.31266 484.397811 
L 246.970393 484.61503 
L 247.628125 484.337947 
L 248.285858 484.669739 
L 248.94359 484.640377 
L 250.259055 484.72335 
L 251.57452 484.744731 
L 252.232253 484.642149 
L 252.889985 484.750411 
L 254.20545 484.698012 
L 254.863182 484.813373 
L 258.809578 484.815638 
L 260.125043 484.906991 
L 264.72917 484.940917 
L 265.386903 484.827286 
L 266.044635 484.942943 
L 267.3601 484.950226 
L 275.25289 484.962421 
L 328.529223 485.082014 
L 337.737478 485.083684 
L 392.987008 485.097129 
L 1399.317733 485.109224 
L 1399.317733 485.109224 
" style="fill:none;stroke:#1f77b4;stroke-linecap:square;stroke-width:3;"/>
   </g>
   <g id="line2d_20">
    <path clip-path="url(#paa3bed3f70)" d="M 83.852733 108.582542 
L 99.638313 108.582542 
L 100.296045 154.608688 
L 116.081625 154.608688 
L 116.739358 33.38841 
L 132.524938 33.38841 
L 133.18267 160.813453 
L 148.96825 160.813453 
L 149.625983 210.9899 
L 165.411563 210.9899 
L 166.069295 257.324713 
L 181.854875 257.324713 
L 182.512608 387.483658 
L 198.298188 387.483657 
L 198.95592 407.21986 
L 214.7415 407.21986 
L 215.399233 427.261227 
L 231.184813 427.261227 
L 231.842545 457.550635 
L 247.628125 457.550635 
L 248.285858 433.436293 
L 264.071438 433.436293 
L 264.72917 477.521083 
L 280.51475 477.521083 
L 281.172483 481.511445 
L 296.958063 481.511445 
L 297.615795 483.721742 
L 313.401375 483.721742 
L 314.059108 484.631353 
L 329.844688 484.631353 
L 330.50242 484.920194 
L 346.288 484.920194 
L 346.945733 485.037379 
L 1399.317733 485.118805 
L 1399.317733 485.118805 
" style="fill:none;stroke:#ff7f0e;stroke-linecap:square;stroke-width:3;"/>
   </g>
   <g id="line2d_21">
    <path clip-path="url(#paa3bed3f70)" d="M 83.852733 179.953729 
L 99.638313 179.953729 
L 100.296045 263.58105 
L 116.081625 263.58105 
L 116.739358 76.159332 
L 117.39709 337.999024 
L 133.18267 337.999024 
L 133.840403 374.085641 
L 149.625983 374.085641 
L 150.283715 389.838348 
L 166.069295 389.838348 
L 166.727028 207.382246 
L 167.38476 435.44304 
L 183.17034 435.44304 
L 183.828073 455.576559 
L 199.613653 455.576559 
L 200.271385 467.587652 
L 216.056965 467.587652 
L 216.714697 483.126206 
L 232.500278 483.126206 
L 233.15801 481.853181 
L 233.815742 484.58313 
L 249.601323 484.58313 
L 250.259055 484.838264 
L 266.044635 484.838264 
L 266.702368 485.062126 
L 348.91893 485.105983 
L 348.91893 485.105983 
" style="fill:none;stroke:#2ca02c;stroke-linecap:square;stroke-width:3;"/>
   </g>
   <g id="line2d_22">
    <path clip-path="url(#paa3bed3f70)" d="M 83.852733 130.86525 
L 84.510465 129.741081 
L 85.168198 127.874753 
L 85.82593 127.843403 
L 86.483663 130.325164 
L 87.141395 122.661185 
L 87.799128 123.503433 
L 88.45686 131.090007 
L 89.114593 130.087038 
L 89.772325 128.755238 
L 90.430058 133.838975 
L 91.08779 140.836289 
L 91.745523 125.798485 
L 92.403255 132.544432 
L 93.060988 131.585966 
L 93.71872 129.086911 
L 94.376453 135.568862 
L 95.034185 131.642455 
L 95.691918 120.781838 
L 96.34965 131.411816 
L 97.007383 129.355328 
L 97.665115 128.751709 
L 98.322848 127.496176 
L 98.98058 129.417116 
L 99.638313 127.215423 
L 100.296045 139.033186 
L 100.953778 139.111822 
L 101.61151 137.846202 
L 102.269243 136.951661 
L 102.926975 138.20611 
L 103.584708 138.086623 
L 104.24244 138.627489 
L 105.557905 139.191225 
L 106.215638 140.17308 
L 106.87337 140.068977 
L 107.531103 141.143433 
L 108.188835 146.468144 
L 108.846568 143.047178 
L 109.5043 143.46025 
L 110.162033 144.079297 
L 110.819765 145.33574 
L 112.13523 146.838201 
L 112.792963 154.274883 
L 113.450695 148.654698 
L 114.108428 148.885487 
L 114.76616 150.345118 
L 116.081625 152.443062 
L 116.739358 152.097836 
L 117.39709 149.722882 
L 118.054823 150.038112 
L 118.712555 152.032088 
L 119.370288 152.978045 
L 120.685753 154.509329 
L 121.343485 160.752469 
L 122.001218 156.874807 
L 123.316683 159.646012 
L 123.974415 160.273801 
L 124.632148 161.494238 
L 125.28988 170.336026 
L 125.947613 162.728543 
L 126.605345 163.174833 
L 127.263078 165.217066 
L 129.236275 167.324002 
L 129.894008 168.475714 
L 130.55174 168.28667 
L 131.209473 167.407555 
L 131.867205 168.19965 
L 132.524938 167.850849 
L 133.18267 172.901602 
L 133.840403 183.382553 
L 134.498135 173.64608 
L 135.155867 174.930553 
L 135.8136 171.326419 
L 136.471333 177.920439 
L 137.129065 181.128796 
L 137.786798 181.625711 
L 138.44453 182.851563 
L 139.102262 180.339662 
L 139.759995 183.589301 
L 140.417728 195.324749 
L 141.07546 183.530132 
L 141.733193 184.025532 
L 142.390925 184.353862 
L 143.048658 187.776766 
L 144.364123 188.100664 
L 145.021855 188.452494 
L 146.33732 191.303415 
L 146.995053 192.269274 
L 147.652785 194.545408 
L 148.310518 194.724451 
L 148.96825 196.580087 
L 149.625983 203.441289 
L 150.283715 196.857933 
L 151.59918 205.490314 
L 152.256912 220.211558 
L 152.914645 204.153193 
L 153.572378 205.210306 
L 154.23011 206.755353 
L 154.887843 206.669878 
L 155.545575 205.841877 
L 156.203307 208.252507 
L 156.86104 208.41116 
L 157.518773 207.000322 
L 158.176505 212.545893 
L 158.834238 213.542239 
L 159.49197 210.82603 
L 160.149703 211.332553 
L 160.807435 215.342679 
L 161.465168 217.93046 
L 162.1229 219.331892 
L 162.780633 221.407064 
L 163.438365 230.752837 
L 164.096098 223.307229 
L 164.75383 222.652917 
L 165.411563 217.025246 
L 166.069295 224.655746 
L 166.727028 220.963031 
L 167.38476 232.492632 
L 168.042493 247.804806 
L 168.700225 225.493515 
L 169.357957 232.115907 
L 170.01569 230.059515 
L 170.673423 230.678625 
L 171.331155 235.288732 
L 171.988888 227.869176 
L 172.64662 233.002723 
L 173.304353 230.742503 
L 173.962085 236.69591 
L 174.619818 238.729283 
L 175.27755 236.315987 
L 175.935283 243.474292 
L 176.593015 236.409668 
L 177.250748 237.481055 
L 177.90848 241.350819 
L 178.566213 248.194752 
L 179.223945 260.44507 
L 179.881678 245.558371 
L 180.53941 246.458129 
L 181.197143 219.69835 
L 181.854875 232.931813 
L 182.512608 251.555378 
L 183.17034 246.841553 
L 183.828073 249.956418 
L 185.143538 252.12504 
L 185.80127 256.721416 
L 186.459002 253.483756 
L 187.116735 252.587513 
L 187.774468 258.916618 
L 188.4322 261.332043 
L 189.089933 271.037128 
L 189.747665 246.557149 
L 190.405398 248.658293 
L 191.06313 263.973901 
L 191.720863 254.930346 
L 192.378595 258.993614 
L 193.036328 267.697341 
L 193.69406 268.531505 
L 195.009525 271.829197 
L 195.667258 279.571185 
L 196.982723 270.391347 
L 197.640455 276.36303 
L 198.298188 276.578723 
L 198.95592 271.847654 
L 199.613653 282.292159 
L 200.271385 296.489483 
L 200.929118 266.780417 
L 202.244583 286.45534 
L 202.902315 284.518577 
L 203.560047 280.768361 
L 204.875513 295.50462 
L 205.533245 299.10583 
L 206.190978 315.934128 
L 206.84871 299.439891 
L 207.506443 291.216809 
L 208.164175 286.131441 
L 208.821908 304.396792 
L 209.47964 271.786567 
L 210.137373 301.030426 
L 210.795105 299.605518 
L 211.452838 298.631268 
L 212.11057 309.559386 
L 212.768303 306.825449 
L 213.426035 310.325231 
L 214.083768 311.41064 
L 214.7415 283.598941 
L 216.056965 315.037971 
L 216.714697 317.250449 
L 217.37243 324.461635 
L 218.030163 306.408969 
L 218.687895 317.307383 
L 219.345628 323.608931 
L 220.00336 321.553162 
L 220.661092 285.027089 
L 221.318825 325.30132 
L 221.976558 324.804125 
L 222.63429 289.272964 
L 223.292023 325.101938 
L 223.949755 328.448153 
L 224.607487 322.68102 
L 225.26522 334.820951 
L 225.922953 342.998569 
L 226.580685 295.674347 
L 227.238418 334.413549 
L 227.89615 329.289647 
L 228.553883 295.858767 
L 229.211615 314.033845 
L 230.52708 338.736528 
L 231.842545 305.222803 
L 232.500278 333.101429 
L 233.15801 346.604505 
L 233.815742 355.898585 
L 234.473475 323.563533 
L 235.131208 311.9029 
L 235.78894 328.53454 
L 236.446673 337.055583 
L 237.104405 343.706231 
L 237.762137 345.899853 
L 238.41987 347.407719 
L 239.077603 309.852232 
L 239.735335 330.728827 
L 240.393068 335.086498 
L 241.0508 348.825457 
L 241.708533 344.463116 
L 242.366265 351.773591 
L 243.023998 340.175971 
L 243.68173 358.093771 
L 244.339463 362.65639 
L 244.997195 346.802884 
L 245.654928 346.647414 
L 246.31266 356.54566 
L 246.970393 334.510994 
L 247.628125 336.272735 
L 248.285858 352.000482 
L 248.94359 340.855328 
L 249.601323 353.677157 
L 250.259055 355.427067 
L 250.916787 341.022041 
L 251.57452 350.858362 
L 252.232253 348.575482 
L 252.889985 355.134196 
L 253.547718 351.352488 
L 254.20545 358.206048 
L 254.863182 371.729642 
L 255.520915 377.22948 
L 256.178648 342.507081 
L 256.83638 343.180184 
L 257.494113 353.252438 
L 258.151845 356.754144 
L 258.809578 338.816846 
L 259.46731 356.988072 
L 260.125043 355.633802 
L 260.782775 342.008425 
L 262.09824 372.769344 
L 262.755973 375.561941 
L 263.413705 370.171345 
L 264.071438 374.994559 
L 264.72917 334.860483 
L 265.386903 362.790077 
L 266.044635 370.022976 
L 266.702368 363.566236 
L 267.3601 382.21293 
L 268.017832 389.645527 
L 268.675565 368.619483 
L 269.333298 361.685413 
L 269.99103 382.592197 
L 271.306495 365.156809 
L 271.964228 377.744572 
L 272.62196 366.476928 
L 273.279693 378.978525 
L 273.937425 366.641923 
L 274.595158 390.828676 
L 275.25289 395.816278 
L 275.910623 391.170262 
L 276.568355 393.282958 
L 277.226088 381.262311 
L 277.88382 400.170458 
L 278.541553 405.997952 
L 279.199285 382.978928 
L 279.857018 376.24999 
L 280.51475 393.241111 
L 281.172483 395.812668 
L 281.830215 379.327496 
L 282.487948 397.057793 
L 283.14568 393.218875 
L 283.803413 390.409535 
L 284.461145 381.328644 
L 285.118877 406.39452 
L 285.77661 401.68501 
L 286.434343 413.980238 
L 287.092075 421.442338 
L 287.749808 420.174808 
L 288.40754 395.485211 
L 289.723005 413.947963 
L 290.380738 397.639514 
L 291.03847 408.428568 
L 291.696203 411.01339 
L 292.353935 402.984031 
L 293.011668 410.375395 
L 293.6694 412.898885 
L 294.327133 403.982412 
L 294.984865 424.117147 
L 295.642598 414.202957 
L 296.30033 417.503704 
L 296.958063 423.378542 
L 297.615795 391.041023 
L 298.273528 409.7395 
L 298.93126 410.961709 
L 299.588993 414.600455 
L 300.246725 417.492603 
L 300.904458 422.044852 
L 301.56219 403.552637 
L 302.877655 433.053687 
L 303.535388 425.481433 
L 304.19312 427.328587 
L 305.508585 393.230939 
L 306.166318 420.649116 
L 306.82405 405.866139 
L 307.481783 412.363408 
L 308.139515 420.866253 
L 308.797248 405.146861 
L 309.45498 420.951481 
L 310.112713 419.58461 
L 310.770445 424.200088 
L 311.428178 430.977042 
L 312.08591 407.519248 
L 313.401375 437.612636 
L 314.059108 435.897856 
L 314.71684 419.33671 
L 315.374572 422.121699 
L 316.032305 423.954514 
L 316.690038 423.79677 
L 317.34777 437.566701 
L 318.005503 421.954809 
L 318.663235 430.315118 
L 319.320968 425.097127 
L 319.9787 426.203119 
L 320.636433 416.778802 
L 321.294165 430.149742 
L 321.951898 428.84849 
L 322.60963 425.497872 
L 323.267363 425.929224 
L 323.925095 431.471704 
L 324.582828 431.127303 
L 325.24056 433.68565 
L 325.898293 431.544421 
L 326.556025 426.093415 
L 327.213758 434.13918 
L 327.87149 407.109545 
L 328.529223 435.36448 
L 329.186955 429.771621 
L 329.844688 444.73502 
L 330.50242 442.135157 
L 331.160153 424.219022 
L 331.817885 436.905122 
L 332.475618 438.151545 
L 333.13335 442.529806 
L 333.791083 431.294377 
L 334.448815 430.153024 
L 335.106548 424.150592 
L 335.76428 437.504802 
L 336.422013 439.197826 
L 337.079745 429.787229 
L 337.737478 439.339284 
L 338.39521 442.035522 
L 339.052943 428.404795 
L 339.710675 439.112496 
L 340.368407 425.482583 
L 341.02614 439.700344 
L 341.683873 431.97762 
L 342.341605 449.778425 
L 342.999338 449.957818 
L 343.65707 431.503402 
L 344.314803 436.735876 
L 344.972535 447.384742 
L 346.288 435.993088 
L 346.945733 441.049019 
L 347.603465 430.136938 
L 348.261198 442.203821 
L 348.91893 433.00485 
L 349.576662 438.043395 
L 350.234395 432.355968 
L 350.892128 443.010239 
L 351.54986 447.462859 
L 352.207593 444.730654 
L 352.865325 429.625519 
L 353.523057 444.895605 
L 354.18079 454.935571 
L 354.838523 457.6409 
L 355.496255 440.728974 
L 356.153988 439.508521 
L 356.81172 444.390333 
L 357.469452 454.001144 
L 358.127185 446.576328 
L 358.784918 449.504128 
L 359.44265 437.067962 
L 360.100383 447.555429 
L 360.758115 443.563433 
L 361.415848 453.278598 
L 362.07358 443.537935 
L 362.731313 449.334949 
L 363.389045 450.052346 
L 364.046778 453.650761 
L 364.70451 450.091068 
L 365.362243 441.531703 
L 366.019975 450.47856 
L 366.677707 452.974475 
L 367.33544 450.762479 
L 367.993173 460.738391 
L 368.650905 459.055336 
L 369.308638 454.627923 
L 369.96637 455.427706 
L 371.281835 445.75652 
L 371.939568 454.049049 
L 372.5973 448.424011 
L 373.255033 460.188934 
L 373.912765 463.307292 
L 374.570498 460.527635 
L 375.22823 450.450053 
L 375.885963 457.383287 
L 376.543695 459.110939 
L 377.201428 453.43908 
L 377.85916 462.15988 
L 378.516893 449.427093 
L 379.174625 457.166807 
L 379.832358 448.174246 
L 380.49009 458.031643 
L 381.147823 460.98362 
L 381.805555 457.931727 
L 382.463288 460.101853 
L 383.12102 458.73124 
L 383.778752 456.845386 
L 384.436485 464.914613 
L 385.094218 456.765109 
L 385.75195 457.513883 
L 386.409683 456.225738 
L 387.067415 461.48774 
L 387.725147 464.09402 
L 388.38288 455.660019 
L 389.698345 464.509843 
L 390.356078 461.837597 
L 391.01381 461.991084 
L 391.671543 462.626889 
L 392.329275 457.728712 
L 392.987008 458.477067 
L 393.64474 460.264764 
L 394.302473 457.859573 
L 394.960205 461.700941 
L 395.617938 456.779904 
L 396.27567 464.151284 
L 396.933402 463.563131 
L 397.591135 456.01776 
L 398.248868 464.772865 
L 398.9066 458.58385 
L 399.564333 460.653326 
L 400.222065 467.555849 
L 400.879797 458.639475 
L 401.53753 457.067292 
L 402.195263 465.374046 
L 403.510728 456.979553 
L 404.16846 465.322687 
L 404.826193 464.893521 
L 405.483925 462.800205 
L 406.141658 466.736742 
L 406.79939 455.025024 
L 407.457123 466.545708 
L 408.114855 461.205729 
L 408.772588 458.096462 
L 409.43032 466.466032 
L 410.088053 466.777591 
L 410.745785 461.714753 
L 411.403518 464.171505 
L 412.06125 460.797489 
L 412.718983 466.576753 
L 413.376715 460.573849 
L 414.034447 466.762003 
L 414.69218 462.071529 
L 415.349913 461.153405 
L 416.007645 466.804141 
L 416.665378 460.647396 
L 417.32311 466.945481 
L 417.980842 461.597282 
L 418.638575 466.729554 
L 419.296308 461.58045 
L 419.95404 466.791753 
L 420.611773 468.635327 
L 421.269505 462.736305 
L 421.927238 464.461054 
L 422.58497 463.708275 
L 423.242703 468.797892 
L 423.900435 462.858809 
L 424.558168 463.3493 
L 425.2159 467.666052 
L 425.873633 463.608871 
L 426.531365 467.716523 
L 427.189098 464.517639 
L 427.84683 467.883574 
L 428.504563 463.993517 
L 429.162295 467.965288 
L 429.820028 466.318642 
L 430.47776 466.575421 
L 431.135492 464.495677 
L 431.793225 468.176658 
L 432.450958 468.860885 
L 433.10869 462.993385 
L 433.766423 463.020451 
L 434.424155 468.553278 
L 435.081887 466.884714 
L 436.397353 467.505511 
L 437.055085 466.152776 
L 437.712818 468.913441 
L 438.37055 469.81292 
L 439.028283 466.655215 
L 439.686015 467.05241 
L 440.343748 464.696158 
L 441.00148 469.266472 
L 441.659213 469.288551 
L 442.316945 468.148297 
L 442.974678 463.907085 
L 443.63241 469.540504 
L 444.290143 468.825305 
L 444.947875 467.859209 
L 445.605608 468.465035 
L 446.26334 469.604841 
L 446.921073 468.042286 
L 447.578805 471.046409 
L 448.236537 468.636515 
L 448.89427 469.259269 
L 449.552003 467.682837 
L 450.209735 467.329341 
L 450.867468 469.876339 
L 451.5252 467.701705 
L 452.182933 471.651871 
L 452.840665 470.388149 
L 453.498398 467.910276 
L 454.15613 467.434977 
L 454.813863 470.100924 
L 455.471595 469.349947 
L 456.129328 466.398719 
L 456.78706 470.350913 
L 457.444793 467.017882 
L 458.102525 470.287208 
L 458.760258 468.427958 
L 459.41799 469.875394 
L 460.075723 470.238053 
L 460.733455 468.474942 
L 461.391188 469.907803 
L 462.04892 467.20919 
L 462.706653 470.614414 
L 463.364385 466.347245 
L 464.022118 470.751854 
L 464.67985 469.070332 
L 465.337582 470.465673 
L 465.995315 465.426853 
L 466.653048 470.918759 
L 467.31078 468.891588 
L 467.968513 471.533074 
L 468.626245 471.102746 
L 469.283978 468.882786 
L 469.94171 470.769949 
L 470.599443 471.000325 
L 471.257175 469.713739 
L 471.914908 469.168283 
L 472.57264 470.96981 
L 473.230373 471.020407 
L 473.888105 470.683531 
L 474.545838 469.798243 
L 475.20357 472.206421 
L 475.861303 470.916369 
L 476.519035 471.116133 
L 477.176768 469.283282 
L 477.8345 471.344846 
L 478.492233 469.72111 
L 479.149965 471.340322 
L 479.807698 471.731613 
L 480.46543 469.218911 
L 481.123163 471.48408 
L 481.780895 472.960465 
L 482.438628 472.818355 
L 483.09636 469.540277 
L 483.754093 471.540552 
L 484.411825 471.203731 
L 485.069558 471.239558 
L 485.72729 471.88187 
L 486.385023 471.84588 
L 487.042755 471.273472 
L 487.700488 471.817115 
L 488.35822 471.086009 
L 489.015953 472.502698 
L 489.673685 473.068745 
L 490.331418 472.573476 
L 490.98915 471.729042 
L 491.646883 472.874053 
L 492.304615 472.188901 
L 492.962348 472.04737 
L 493.62008 472.177221 
L 494.277813 471.653135 
L 494.935545 470.769602 
L 495.593277 472.386014 
L 496.25101 471.611364 
L 496.908743 471.301386 
L 497.566475 472.227115 
L 498.224208 472.116194 
L 498.88194 470.794704 
L 499.539673 472.524034 
L 500.197405 473.4188 
L 500.855138 472.887528 
L 501.51287 473.023462 
L 502.170603 473.401475 
L 502.828335 472.390656 
L 503.486068 473.763817 
L 504.1438 473.316052 
L 504.801533 472.200287 
L 505.459265 473.598269 
L 506.116998 472.082945 
L 506.77473 472.044358 
L 507.432463 472.752548 
L 508.747928 473.25308 
L 509.40566 473.233956 
L 510.063393 471.999759 
L 510.721125 473.1654 
L 511.378858 472.290351 
L 512.03659 472.35481 
L 512.694323 473.102436 
L 514.009788 473.084925 
L 514.66752 472.357741 
L 515.325253 474.367185 
L 515.982985 474.13921 
L 516.640718 473.619243 
L 517.29845 472.718427 
L 517.956183 472.320151 
L 518.613915 473.463389 
L 519.271648 472.228611 
L 519.92938 473.502308 
L 520.587113 474.380528 
L 521.244845 473.879715 
L 521.902578 473.153271 
L 522.56031 473.623589 
L 523.218043 474.469538 
L 523.875775 473.763244 
L 524.533508 472.550852 
L 525.19124 473.7418 
L 525.848973 472.545005 
L 526.506705 473.765376 
L 527.164438 474.249091 
L 528.479903 473.827515 
L 529.137635 474.399327 
L 529.795368 474.351741 
L 530.4531 473.612876 
L 531.110833 473.184069 
L 531.768565 473.817903 
L 532.426298 473.346926 
L 533.08403 474.962559 
L 533.741763 474.817926 
L 534.399495 472.905112 
L 535.057228 474.153508 
L 535.71496 473.220299 
L 536.372693 474.149434 
L 537.030425 473.381707 
L 537.688158 473.610208 
L 538.34589 473.092994 
L 539.003623 474.221651 
L 540.319088 474.77152 
L 540.97682 475.236956 
L 541.634553 475.379903 
L 542.292285 474.882493 
L 542.950018 474.697538 
L 543.60775 474.312441 
L 544.265483 473.749427 
L 544.923215 474.103107 
L 545.580948 473.82222 
L 546.23868 475.157216 
L 546.896413 473.640669 
L 547.554145 474.611422 
L 548.211878 474.894674 
L 548.86961 475.81998 
L 549.527343 476.316078 
L 550.185075 474.760492 
L 550.842808 474.103743 
L 551.50054 474.975101 
L 552.158273 475.043514 
L 552.816005 474.379903 
L 553.473738 473.958103 
L 554.13147 474.941946 
L 554.789203 475.623433 
L 555.446935 475.750107 
L 556.104668 475.757367 
L 556.7624 475.511523 
L 557.420133 474.979964 
L 558.077865 475.465768 
L 558.735598 476.095235 
L 559.39333 475.127035 
L 560.051063 475.816407 
L 560.708795 475.657084 
L 561.366528 475.619175 
L 562.02426 476.270037 
L 562.681993 476.099242 
L 565.312923 476.139343 
L 565.970655 475.335333 
L 566.628388 477.013787 
L 567.28612 477.483385 
L 567.943853 476.454785 
L 568.601585 476.968142 
L 569.259318 476.364627 
L 569.91705 475.947754 
L 571.232515 476.769439 
L 571.890248 475.975159 
L 572.54798 477.105965 
L 573.205713 476.515256 
L 573.863445 477.045302 
L 574.521178 476.451126 
L 575.17891 476.943001 
L 576.494375 477.340792 
L 577.152108 477.559578 
L 577.80984 477.256625 
L 578.467573 477.189397 
L 579.125305 476.024659 
L 579.783038 476.772138 
L 580.44077 475.777387 
L 581.098503 476.905811 
L 581.756235 477.623207 
L 582.413968 477.396899 
L 583.0717 476.639668 
L 583.729433 477.508617 
L 584.387165 478.051687 
L 585.044898 478.303822 
L 585.70263 477.493706 
L 586.360363 478.284939 
L 587.018095 477.163796 
L 587.675828 477.593306 
L 588.33356 477.332198 
L 588.991293 477.71784 
L 589.649025 477.655065 
L 590.306758 478.489635 
L 590.96449 478.445621 
L 591.622223 478.07075 
L 592.279955 477.238833 
L 592.937688 478.063514 
L 593.59542 477.836524 
L 594.253153 478.391002 
L 594.910885 478.066508 
L 596.22635 478.490172 
L 596.884083 477.822533 
L 598.199548 478.430104 
L 598.85728 477.826127 
L 599.515013 478.313196 
L 600.172745 477.644957 
L 600.830478 478.318412 
L 601.48821 478.77264 
L 602.145943 478.135509 
L 602.803675 479.056334 
L 604.11914 478.671391 
L 604.776873 479.004596 
L 606.092338 478.935644 
L 606.75007 479.37447 
L 607.407803 479.196736 
L 608.065535 478.017136 
L 608.723268 479.141358 
L 609.381 478.967116 
L 610.038733 478.199852 
L 610.696465 478.640731 
L 611.354198 477.810225 
L 612.01193 478.828156 
L 612.669663 479.21442 
L 613.327395 478.461655 
L 613.985128 478.732565 
L 614.64286 479.524967 
L 615.300593 479.168803 
L 615.958325 478.518502 
L 616.616058 479.128934 
L 617.27379 479.331471 
L 617.931523 478.929371 
L 618.589255 478.787135 
L 619.246988 479.250564 
L 619.90472 479.92627 
L 620.562453 479.942328 
L 621.220185 479.582664 
L 621.877918 478.624328 
L 622.53565 479.705565 
L 623.193383 479.663863 
L 623.851115 478.921306 
L 624.508848 478.498709 
L 625.16658 479.394534 
L 625.824313 479.116721 
L 626.482045 479.745221 
L 627.139778 478.989172 
L 627.79751 480.296755 
L 628.455243 480.448821 
L 629.112975 479.014951 
L 629.770708 480.064265 
L 630.42844 478.699596 
L 631.086173 479.664847 
L 631.743905 479.426671 
L 632.401638 478.992294 
L 633.05937 480.146404 
L 633.717103 480.181188 
L 635.032568 478.953718 
L 635.6903 479.748234 
L 636.348033 479.991293 
L 637.005765 479.167375 
L 637.663498 480.13488 
L 638.32123 479.665768 
L 638.978963 480.486695 
L 639.636695 480.177732 
L 640.294428 480.117602 
L 640.95216 479.263746 
L 641.609893 480.198369 
L 642.267625 480.340743 
L 642.925358 479.283066 
L 643.58309 480.044229 
L 644.240823 480.134304 
L 644.898555 480.895832 
L 645.556288 481.000617 
L 646.21402 480.884212 
L 646.871753 480.228048 
L 647.529485 480.420537 
L 648.187218 480.493495 
L 648.84495 480.311571 
L 649.502683 480.452331 
L 650.160415 481.045183 
L 650.818148 480.815299 
L 651.47588 480.07513 
L 652.133613 480.839695 
L 652.791345 480.919847 
L 653.449078 481.559817 
L 654.10681 481.895715 
L 654.764543 480.867314 
L 656.080008 481.02486 
L 656.73774 481.4048 
L 657.395473 480.40299 
L 658.053205 480.825661 
L 658.710938 481.444725 
L 659.36867 481.339699 
L 660.026403 480.929104 
L 660.684135 481.639561 
L 661.341868 481.63873 
L 661.9996 481.240802 
L 663.315065 481.134336 
L 663.972798 480.866124 
L 665.288263 481.451333 
L 665.945995 481.691539 
L 666.603728 481.36787 
L 667.26146 481.781087 
L 667.919193 481.416201 
L 668.576925 481.533757 
L 669.234658 480.708779 
L 669.89239 481.551077 
L 671.207855 481.91183 
L 671.865588 481.167754 
L 672.52332 481.475973 
L 673.181053 481.921256 
L 673.838785 481.076229 
L 674.496518 481.797287 
L 675.15425 481.844589 
L 675.811983 482.410731 
L 676.469715 482.291878 
L 677.78518 481.687603 
L 678.442913 481.740199 
L 679.100645 481.558264 
L 679.758378 481.636165 
L 680.41611 482.05571 
L 681.073843 481.960296 
L 681.731575 482.339124 
L 684.362505 481.655508 
L 685.67797 482.299222 
L 686.335703 481.682451 
L 686.993435 481.680889 
L 687.651168 481.960758 
L 688.3089 482.446529 
L 688.966633 481.7872 
L 690.282098 481.677369 
L 690.93983 482.229232 
L 691.597563 481.780858 
L 692.255295 481.910381 
L 692.913028 482.417468 
L 694.228493 481.868753 
L 694.886225 482.121488 
L 695.543958 481.88943 
L 696.20169 482.524366 
L 696.859423 481.79697 
L 697.517155 482.354263 
L 698.174888 482.323643 
L 698.83262 481.880157 
L 699.490353 482.391003 
L 700.148085 482.000247 
L 700.805818 482.468843 
L 701.46355 481.737597 
L 702.121283 482.437984 
L 702.779015 482.57864 
L 703.436748 481.846573 
L 704.09448 482.139222 
L 704.752213 481.873963 
L 705.409945 482.463826 
L 706.067678 482.464924 
L 706.72541 482.041254 
L 707.383143 482.291899 
L 708.040875 482.700525 
L 708.698608 482.075215 
L 709.35634 482.252108 
L 710.014073 482.568389 
L 710.671805 482.040806 
L 711.329538 482.550906 
L 712.645003 482.410355 
L 713.960468 481.946741 
L 714.6182 482.623987 
L 715.275933 482.14615 
L 715.933665 482.600231 
L 716.591398 482.306472 
L 717.24913 482.706213 
L 717.906863 482.023524 
L 718.564595 482.315764 
L 719.222328 482.127977 
L 719.88006 482.673141 
L 720.537793 482.639683 
L 721.195525 482.213836 
L 721.853258 482.679924 
L 722.51099 482.219421 
L 723.168723 482.681748 
L 723.826455 482.633743 
L 724.484188 482.868542 
L 725.14192 482.49622 
L 725.799653 482.42608 
L 726.457385 482.784419 
L 727.115118 482.38672 
L 727.77285 482.738104 
L 728.430583 482.840494 
L 729.746048 482.499812 
L 730.40378 482.923965 
L 731.061513 482.552265 
L 732.376978 482.944405 
L 733.03471 482.52565 
L 733.692443 482.586192 
L 734.350175 482.780266 
L 735.007908 482.644668 
L 735.66564 482.372931 
L 736.323373 482.857451 
L 736.981105 482.634869 
L 737.638838 482.978627 
L 738.29657 482.605457 
L 738.954303 482.618507 
L 739.612035 482.827309 
L 740.269768 482.449649 
L 740.9275 482.896616 
L 741.585233 482.899278 
L 742.242965 482.67256 
L 742.900698 483.051408 
L 743.55843 482.773329 
L 744.216163 482.839393 
L 744.873895 482.631189 
L 745.531628 482.92295 
L 746.18936 482.436788 
L 746.847093 482.946535 
L 747.504825 482.617497 
L 748.162558 482.928353 
L 748.82029 482.718412 
L 749.478023 483.091442 
L 750.135755 482.863043 
L 750.793488 483.225099 
L 752.108953 483.181063 
L 752.766685 482.756387 
L 753.424418 482.744654 
L 754.08215 482.930902 
L 755.397615 482.836918 
L 756.055348 483.200658 
L 756.71308 482.741285 
L 757.370813 483.028385 
L 758.028545 482.792425 
L 758.686278 482.789656 
L 759.34401 483.020879 
L 760.001743 482.789693 
L 760.659475 483.048008 
L 761.317208 482.744253 
L 761.97494 483.053907 
L 762.632673 482.77297 
L 763.290405 483.063553 
L 763.948138 482.83953 
L 765.921335 482.970201 
L 766.579068 483.260429 
L 767.2368 483.18974 
L 767.894533 482.912143 
L 768.552265 483.083042 
L 769.209998 482.878559 
L 769.86773 483.096433 
L 770.525463 482.854512 
L 771.840928 483.255828 
L 772.49866 483.004193 
L 773.156393 482.9469 
L 773.814125 483.285414 
L 774.471858 483.189314 
L 775.787323 483.325678 
L 776.445055 483.230881 
L 777.102788 482.863587 
L 777.76052 483.165155 
L 778.418253 483.108564 
L 779.075985 483.29318 
L 779.733718 483.069649 
L 781.706915 483.061672 
L 782.364648 482.995905 
L 783.680113 483.331488 
L 784.337845 483.187886 
L 784.995578 483.360919 
L 786.311043 483.174525 
L 786.968775 483.318116 
L 787.626508 483.081538 
L 788.28424 483.445655 
L 788.941973 483.434887 
L 789.599705 483.182645 
L 790.257438 483.092395 
L 790.91517 483.134796 
L 791.572903 483.371023 
L 792.230635 483.121375 
L 794.203833 483.46221 
L 796.17703 483.180806 
L 796.834763 483.2005 
L 797.492495 483.437877 
L 798.150228 483.267409 
L 799.465693 483.219173 
L 800.123425 483.450657 
L 800.781158 483.212258 
L 801.43889 483.243746 
L 802.096623 483.445156 
L 802.754355 483.20551 
L 804.06982 483.46174 
L 804.727553 483.255892 
L 805.385285 483.480884 
L 806.043018 483.311048 
L 808.016215 483.309038 
L 808.673948 483.502902 
L 809.989413 483.305864 
L 810.647145 483.482356 
L 811.96261 483.410038 
L 812.620343 483.254075 
L 813.935808 483.602044 
L 814.59354 483.576575 
L 815.909005 483.279234 
L 816.566738 483.461127 
L 817.22447 483.502138 
L 818.539935 483.343897 
L 819.197668 483.547011 
L 819.8554 483.502076 
L 820.513133 483.633761 
L 821.170865 483.570501 
L 821.828598 483.350378 
L 823.144063 483.575713 
L 823.801795 483.492737 
L 824.459528 483.640142 
L 825.774993 483.436907 
L 827.090458 483.579729 
L 827.74819 483.425206 
L 828.405923 483.553941 
L 829.063655 483.414267 
L 829.721388 483.558959 
L 831.036853 483.536795 
L 831.694585 483.666636 
L 833.667783 483.547841 
L 834.325515 483.676016 
L 835.64098 483.644398 
L 840.90284 483.567503 
L 841.560573 483.667873 
L 842.218305 483.535974 
L 842.876038 483.721696 
L 844.191503 483.519339 
L 844.849235 483.655812 
L 849.453363 483.769089 
L 850.111095 483.580901 
L 852.084293 483.700756 
L 852.742025 483.57716 
L 854.05749 483.791317 
L 856.68842 483.623095 
L 857.346153 483.680104 
L 858.003885 483.606943 
L 858.661618 483.720388 
L 859.977083 483.61695 
L 860.634815 483.721377 
L 863.923478 483.733609 
L 865.238943 483.763252 
L 865.896675 483.643735 
L 867.869873 483.838692 
L 868.527605 483.841728 
L 869.84307 483.721168 
L 870.500803 483.677834 
L 871.158535 483.828832 
L 871.816268 483.690209 
L 872.474 483.816031 
L 873.789465 483.699621 
L 875.10493 483.806405 
L 877.73586 483.790573 
L 879.051325 483.858357 
L 890.232778 483.849584 
L 894.179173 483.977464 
L 894.836905 483.886377 
L 896.15237 483.976238 
L 897.467835 483.877929 
L 898.125568 483.954642 
L 898.7833 483.873742 
L 899.441033 483.961624 
L 901.41423 483.901489 
L 902.729695 484.014043 
L 913.253415 484.030783 
L 914.56888 484.174859 
L 915.226613 484.01095 
L 919.173008 484.0045 
L 920.488473 484.097046 
L 924.434868 484.249086 
L 925.750333 484.145739 
L 927.72353 484.103 
L 929.696728 484.149344 
L 930.35446 484.197559 
L 931.669925 484.159238 
L 932.98539 484.223588 
L 933.643123 484.164505 
L 934.300855 484.273315 
L 940.87818 484.269473 
L 948.113238 484.281412 
L 948.77097 484.227277 
L 949.428703 484.372587 
L 958.636958 484.294969 
L 961.92562 484.356057 
L 962.583353 484.268952 
L 964.55655 484.39921 
L 965.214283 484.338141 
L 966.529748 484.372079 
L 967.18748 484.295891 
L 967.845213 484.425579 
L 969.81841 484.310126 
L 971.133875 484.372705 
L 971.791608 484.31144 
L 972.44934 484.385877 
L 973.107073 484.303832 
L 973.764805 484.386573 
L 975.08027 484.306783 
L 976.395735 484.389422 
L 978.368933 484.418891 
L 979.026665 484.339998 
L 980.34213 484.457307 
L 983.630793 484.352852 
L 984.946258 484.438804 
L 986.919455 484.426453 
L 1003.362768 484.451494 
L 1004.0205 484.401088 
L 1005.335965 484.51351 
L 1007.309163 484.434226 
L 1008.624628 484.530645 
L 1011.91329 484.422876 
L 1013.228755 484.465998 
L 1019.148348 484.558652 
L 1020.463813 484.483665 
L 1021.121545 484.548349 
L 1021.779278 484.487459 
L 1023.752475 484.557199 
L 1024.410208 484.497025 
L 1025.725672 484.555745 
L 1029.014335 484.498583 
L 1031.645265 484.580646 
L 1032.302998 484.50877 
L 1032.96073 484.573101 
L 1033.618463 484.497273 
L 1034.933927 484.567543 
L 1035.59166 484.481979 
L 1036.907125 484.543002 
L 1040.195788 484.627333 
L 1040.85352 484.522237 
L 1042.826718 484.573255 
L 1051.37724 484.540741 
L 1054.00817 484.633658 
L 1063.874158 484.623347 
L 1065.847355 484.644097 
L 1067.16282 484.623425 
L 1083.606133 484.691505 
L 1084.921597 484.695954 
L 1094.129852 484.696942 
L 1095.445318 484.713524 
L 1097.418515 484.729386 
L 1100.707178 484.745956 
L 1111.88863 484.71543 
L 1113.861828 484.757194 
L 1117.808223 484.746282 
L 1153.98351 484.783321 
L 1161.8763 484.788047 
L 1166.480428 484.832815 
L 1177.66188 484.816411 
L 1180.29281 484.835474 
L 1187.527867 484.84604 
L 1196.07839 484.850374 
L 1228.965015 484.887342 
L 1239.488735 484.903646 
L 1242.119665 484.883645 
L 1246.723792 484.910094 
L 1253.95885 484.902844 
L 1263.167105 484.923505 
L 1275.00629 484.938928 
L 1277.63722 484.934774 
L 1283.556812 484.930228 
L 1349.987795 484.979255 
L 1355.907388 484.990636 
L 1379.585757 484.991566 
L 1399.317733 485.008438 
L 1399.317733 485.008438 
" style="fill:none;stroke:#d62728;stroke-linecap:square;stroke-width:3;"/>
   </g>
   <g id="line2d_23">
    <path clip-path="url(#paa3bed3f70)" d="M 83.195 485.262828 
L 1398.66 485.262828 
" style="fill:none;stroke:#000000;stroke-dasharray:7.4,3.2;stroke-dashoffset:0;stroke-width:2;"/>
   </g>
   <g id="patch_3">
    <path d="M 83.195 507.745 
L 83.195 10.8 
" style="fill:none;stroke:#000000;stroke-linecap:square;stroke-linejoin:miter;stroke-width:0.8;"/>
   </g>
   <g id="patch_4">
    <path d="M 1398.66 507.745 
L 1398.66 10.8 
" style="fill:none;stroke:#000000;stroke-linecap:square;stroke-linejoin:miter;stroke-width:0.8;"/>
   </g>
   <g id="patch_5">
    <path d="M 83.195 507.745 
L 1398.66 507.745 
" style="fill:none;stroke:#000000;stroke-linecap:square;stroke-linejoin:miter;stroke-width:0.8;"/>
   </g>
   <g id="patch_6">
    <path d="M 83.195 10.8 
L 1398.66 10.8 
" style="fill:none;stroke:#000000;stroke-linecap:square;stroke-linejoin:miter;stroke-width:0.8;"/>
   </g>
   <g id="patch_7">
    <path clip-path="url(#paa3bed3f70)" d="M 83.195 502.892426 
L 740.9275 502.892426 
L 740.9275 383.837876 
L 83.195 383.837876 
z
" style="fill:none;opacity:0.5;stroke:#000000;stroke-linejoin:miter;"/>
   </g>
   <g id="patch_8">
    <path d="M 477.8345 60.4945 
Q 280.51475 222.166188 83.195 383.837876 
" style="fill:none;opacity:0.5;stroke:#000000;stroke-linecap:round;"/>
   </g>
   <g id="patch_9">
    <path d="M 872.474 308.967 
Q 806.70075 405.929713 740.9275 502.892426 
" style="fill:none;opacity:0.5;stroke:#000000;stroke-linecap:round;"/>
   </g>
   <g id="axes_2">
    <g id="patch_10">
     <path d="M 477.8345 308.967 
L 872.474 308.967 
L 872.474 60.4945 
L 477.8345 60.4945 
z
" style="fill:#ffffff;"/>
    </g>
    <g id="matplotlib.axis_3">
     <g id="xtick_10">
      <g id="line2d_24">
       <g>
        <use style="stroke:#000000;stroke-width:0.8;" x="477.8345" xlink:href="#md841f74e56" y="308.967"/>
       </g>
      </g>
     </g>
     <g id="xtick_11">
      <g id="line2d_25">
       <g>
        <use style="stroke:#000000;stroke-width:0.8;" x="556.7624" xlink:href="#md841f74e56" y="308.967"/>
       </g>
      </g>
     </g>
     <g id="xtick_12">
      <g id="line2d_26">
       <g>
        <use style="stroke:#000000;stroke-width:0.8;" x="635.6903" xlink:href="#md841f74e56" y="308.967"/>
       </g>
      </g>
     </g>
     <g id="xtick_13">
      <g id="line2d_27">
       <g>
        <use style="stroke:#000000;stroke-width:0.8;" x="714.6182" xlink:href="#md841f74e56" y="308.967"/>
       </g>
      </g>
     </g>
     <g id="xtick_14">
      <g id="line2d_28">
       <g>
        <use style="stroke:#000000;stroke-width:0.8;" x="793.5461" xlink:href="#md841f74e56" y="308.967"/>
       </g>
      </g>
     </g>
     <g id="xtick_15">
      <g id="line2d_29">
       <g>
        <use style="stroke:#000000;stroke-width:0.8;" x="872.474" xlink:href="#md841f74e56" y="308.967"/>
       </g>
      </g>
     </g>
    </g>
    <g id="matplotlib.axis_4">
     <g id="ytick_10">
      <g id="line2d_30">
       <g>
        <use style="stroke:#000000;stroke-width:0.8;" x="477.8345" xlink:href="#m30f80863fc" y="308.967"/>
       </g>
      </g>
     </g>
     <g id="ytick_11">
      <g id="line2d_31">
       <g>
        <use style="stroke:#000000;stroke-width:0.8;" x="477.8345" xlink:href="#m30f80863fc" y="259.2725"/>
       </g>
      </g>
     </g>
     <g id="ytick_12">
      <g id="line2d_32">
       <g>
        <use style="stroke:#000000;stroke-width:0.8;" x="477.8345" xlink:href="#m30f80863fc" y="209.578"/>
       </g>
      </g>
     </g>
     <g id="ytick_13">
      <g id="line2d_33">
       <g>
        <use style="stroke:#000000;stroke-width:0.8;" x="477.8345" xlink:href="#m30f80863fc" y="159.8835"/>
       </g>
      </g>
     </g>
     <g id="ytick_14">
      <g id="line2d_34">
       <g>
        <use style="stroke:#000000;stroke-width:0.8;" x="477.8345" xlink:href="#m30f80863fc" y="110.189"/>
       </g>
      </g>
     </g>
     <g id="ytick_15">
      <g id="line2d_35">
       <g>
        <use style="stroke:#000000;stroke-width:0.8;" x="477.8345" xlink:href="#m30f80863fc" y="60.4945"/>
       </g>
      </g>
     </g>
    </g>
    <g id="line2d_36">
     <path clip-path="url(#p2b512b53ed)" d="M 497.304906 -1 
L 497.566475 57.964063 
L 497.922478 -1 
M 497.995202 -1 
L 498.355754 66.686162 
L 498.839873 -1 
M 499.284527 -1 
L 499.539673 51.66238 
L 499.934312 5.890748 
L 500.328952 126.642109 
L 500.723591 48.810126 
L 501.118231 99.406837 
L 501.511187 -1 
M 501.514558 -1 
L 501.90751 99.133559 
L 502.302149 56.970127 
L 502.696789 93.933122 
L 503.091428 92.199928 
L 503.486068 131.421908 
L 503.880707 137.2388 
L 504.275347 121.679899 
L 504.669986 131.29854 
L 505.064626 129.64993 
L 505.459265 108.20376 
L 505.853905 101.343531 
L 506.248544 111.238735 
L 506.643184 154.406005 
L 507.037823 155.826794 
L 507.432463 153.489668 
L 507.827102 156.903665 
L 508.221742 134.475621 
L 509.011021 161.509681 
L 509.40566 136.023671 
L 509.8003 130.13996 
L 510.194939 148.725404 
L 510.589579 145.289449 
L 510.984218 151.402483 
L 511.378858 126.26203 
L 511.773497 126.155692 
L 512.562776 174.915533 
L 512.957416 166.564947 
L 513.352055 179.818167 
L 513.746695 147.515525 
L 514.141334 166.443922 
L 514.535974 144.464517 
L 514.930613 172.324228 
L 515.325253 180.486968 
L 515.719892 156.308996 
L 516.114531 147.857358 
L 516.509171 184.01477 
L 516.903811 163.686435 
L 517.29845 187.384791 
L 517.69309 148.864537 
L 518.087729 186.055187 
L 518.482369 144.64318 
L 518.877008 186.921426 
L 519.271648 185.538785 
L 519.666287 184.877753 
L 520.060927 185.952838 
L 520.455566 176.717313 
L 520.850206 187.788288 
L 521.244845 168.064038 
L 521.639485 199.816487 
L 522.034124 184.253483 
L 522.428764 190.926296 
L 522.823403 199.645256 
L 523.218043 196.151254 
L 523.612682 201.71929 
L 524.007322 200.096695 
L 524.401961 199.098138 
L 525.19124 193.152751 
L 525.980519 222.245031 
L 526.375158 227.222759 
L 526.769798 226.611675 
L 527.164438 224.263969 
L 527.559077 218.336754 
L 527.953717 234.531196 
L 528.348356 230.390528 
L 528.742996 234.091687 
L 529.137635 228.691733 
L 529.532275 233.166034 
L 529.926914 223.829181 
L 530.321554 238.081041 
L 531.110833 232.603791 
L 531.505472 232.609342 
L 531.900112 244.076676 
L 532.294751 243.244562 
L 532.689391 243.867886 
L 533.08403 241.97586 
L 533.47867 241.50218 
L 533.873309 235.191652 
L 534.267949 248.799423 
L 534.662588 248.460892 
L 535.057228 246.226176 
L 535.451867 246.770867 
L 535.846507 218.270526 
L 536.241146 244.811517 
L 536.635786 248.761141 
L 537.030425 245.890008 
L 537.425065 247.845539 
L 537.819704 243.63905 
L 538.214344 254.288297 
L 538.608983 254.149503 
L 539.003623 242.358603 
L 539.398262 248.702645 
L 539.792902 239.003779 
L 540.582181 260.268503 
L 540.97682 259.392504 
L 541.37146 252.608505 
L 541.766099 256.270031 
L 542.160739 257.250991 
L 542.555378 259.282735 
L 542.950018 251.390099 
L 543.344657 251.785454 
L 544.133936 260.520719 
L 544.528576 259.044242 
L 544.923215 259.65665 
L 545.317855 260.902857 
L 545.712494 261.453798 
L 546.107134 255.421355 
L 546.501773 260.737278 
L 546.896412 257.421358 
L 547.291052 260.309248 
L 547.685692 259.443753 
L 548.474971 260.250563 
L 548.86961 260.214388 
L 549.26425 261.992069 
L 549.658889 261.141493 
L 550.053529 258.796813 
L 550.842808 263.111111 
L 551.237447 262.122206 
L 551.632087 264.097109 
L 552.026726 264.64701 
L 552.816005 263.44612 
L 553.210645 264.153718 
L 553.605284 264.540953 
L 553.999924 266.232557 
L 554.394563 265.128906 
L 554.789203 263.500689 
L 555.183842 265.179385 
L 555.578482 262.902629 
L 555.973121 264.47148 
L 556.367761 266.757782 
L 556.7624 267.235957 
L 557.15704 266.055206 
L 557.551679 266.156494 
L 557.946319 266.396781 
L 558.340958 265.152818 
L 559.524877 266.780138 
L 559.919516 266.65051 
L 560.314156 265.929784 
L 560.708795 267.506869 
L 561.103435 264.155266 
L 561.498074 267.15257 
L 561.892714 263.904518 
L 562.287353 267.011652 
L 562.681993 268.404293 
L 563.076632 267.997591 
L 563.471272 268.018317 
L 563.865911 267.402319 
L 564.260551 268.857086 
L 564.65519 269.263016 
L 565.04983 268.929215 
L 565.444469 269.987765 
L 565.839109 270.142326 
L 566.628388 270.082365 
L 567.023027 268.870529 
L 567.417666 270.01369 
L 567.812306 269.748777 
L 568.601585 270.008879 
L 568.996225 270.004817 
L 569.390864 270.472145 
L 569.785504 270.383012 
L 570.180143 270.658824 
L 570.574783 270.440559 
L 570.969422 270.368469 
L 571.364062 270.880737 
L 571.758701 269.990715 
L 572.54798 270.708474 
L 572.94262 270.886532 
L 573.337259 270.885536 
L 573.731899 270.761661 
L 574.126538 270.013224 
L 574.521178 270.67714 
L 575.310457 271.028804 
L 575.705096 270.36786 
L 576.099736 270.821207 
L 576.494375 270.242922 
L 576.889015 270.935387 
L 577.283654 270.874107 
L 577.678294 271.057334 
L 578.862212 271.0919 
L 579.256852 270.877806 
L 579.651491 271.103754 
L 580.046131 270.980853 
L 580.44077 270.994395 
L 580.83541 271.235158 
L 581.624689 271.142514 
L 582.019328 271.355578 
L 583.203247 271.239886 
L 583.597886 271.447416 
L 585.571084 271.464737 
L 586.755002 271.501348 
L 587.149642 271.264195 
L 587.544281 271.505577 
L 587.93892 271.397143 
L 588.33356 271.520776 
L 590.701397 271.522801 
L 595.831711 271.504876 
L 596.22635 271.621533 
L 597.410269 271.673591 
L 600.172745 271.686669 
L 601.751303 271.68593 
L 603.329861 271.744334 
L 604.11914 271.715544 
L 605.697698 271.743124 
L 606.486977 271.714196 
L 608.065535 271.742689 
L 609.644093 271.717858 
L 611.222651 271.738386 
L 612.01193 271.736968 
L 723.300269 271.840315 
L 872.86864 271.85047 
L 872.86864 271.85047 
" style="fill:none;stroke:#1f77b4;stroke-linecap:square;stroke-width:3;"/>
    </g>
    <g id="line2d_37">
     <path clip-path="url(#p2b512b53ed)" d="M 537.324674 -1 
L 537.425065 68.103419 
L 546.896412 68.103418 
L 547.291052 109.293811 
L 556.7624 109.29381 
L 557.15704 151.121095 
L 566.628388 151.121095 
L 567.023027 214.336528 
L 576.494375 214.336528 
L 576.889015 164.008752 
L 586.360363 164.008752 
L 586.755002 256.015802 
L 596.22635 256.015802 
L 596.62099 264.343877 
L 606.092338 264.343877 
L 606.486977 268.956872 
L 615.958325 268.956872 
L 616.352965 270.855274 
L 625.824313 270.855274 
L 626.218952 271.458099 
L 635.6903 271.458099 
L 636.08494 271.702669 
L 783.680113 271.793063 
L 784.074752 271.518327 
L 793.5461 271.518327 
L 793.94074 271.793668 
L 872.86864 271.815986 
L 872.86864 271.815986 
" style="fill:none;stroke:#ff7f0e;stroke-linecap:square;stroke-width:3;"/>
    </g>
    <g id="line2d_38">
     <path clip-path="url(#p2b512b53ed)" d="M 508.006167 -1 
L 508.221742 40.141123 
L 517.69309 40.141123 
L 518.087729 73.017771 
L 527.559077 73.017771 
L 527.635786 -1 
M 528.208071 -1 
L 528.348356 168.196929 
L 537.819704 168.196929 
L 538.214344 210.216539 
L 547.685692 210.216539 
L 548.080331 235.284261 
L 557.551679 235.284261 
L 557.946319 267.71396 
L 567.417666 267.71396 
L 567.812306 265.057097 
L 568.206946 270.754629 
L 577.678294 270.754629 
L 578.072933 271.287108 
L 587.544281 271.287108 
L 587.93892 271.754318 
L 597.410269 271.754318 
L 597.804908 271.607337 
L 598.199548 271.821862 
L 637.268858 271.845849 
L 637.268858 271.845849 
" style="fill:none;stroke:#2ca02c;stroke-linecap:square;stroke-width:3;"/>
    </g>
    <g id="line2d_39">
     <path clip-path="url(#p2b512b53ed)" d="M 568.142169 -1 
L 568.206946 2.183873 
L 568.225564 -1 
M 574.044589 -1 
L 574.126538 6.765331 
L 574.521178 16.287733 
L 574.727374 -1 
M 575.618475 -1 
L 575.705096 3.53435 
L 575.744007 -1 
M 577.83523 -1 
L 578.072933 1.199793 
L 578.101809 -1 
M 579.605692 -1 
L 579.651491 0.588557 
L 579.730921 -1 
M 580.220059 -1 
L 580.44077 6.999657 
L 580.83541 35.22404 
L 581.230049 46.702464 
L 581.489825 -1 
M 582.540259 -1 
L 582.808607 3.969465 
L 582.860994 -1 
M 583.541093 -1 
L 583.597886 4.457684 
L 583.992526 1.631258 
L 584.029041 -1 
M 584.719384 -1 
L 585.176444 37.393948 
L 585.571084 43.222231 
L 585.965723 31.9718 
L 586.360363 42.038077 
L 586.563134 -1 
M 587.030711 -1 
L 587.149642 16.566744 
L 587.544281 31.662147 
L 587.93892 18.186625 
L 588.33356 57.10316 
L 588.7282 72.615343 
L 589.122839 28.732992 
L 589.517479 14.261257 
L 589.912118 57.894708 
L 590.701397 21.506226 
L 591.096037 47.777485 
L 591.490676 24.261377 
L 591.885316 50.352803 
L 592.279955 24.605729 
L 592.674595 75.084632 
L 593.069234 85.493994 
L 593.463874 75.797539 
L 593.858513 80.206834 
L 594.253153 55.119174 
L 594.647792 94.581374 
L 595.042432 106.743631 
L 595.437071 58.701834 
L 595.831711 44.658222 
L 596.22635 80.119498 
L 596.62099 85.486459 
L 597.015629 51.081123 
L 597.410269 88.085094 
L 598.199548 74.209864 
L 598.594187 55.257613 
L 598.988827 107.571286 
L 599.383466 97.742316 
L 599.778106 123.403042 
L 600.172745 138.976797 
L 600.567385 136.331402 
L 600.962024 84.803042 
L 601.751303 123.335682 
L 602.145943 89.299174 
L 602.540582 111.816443 
L 602.935222 117.211087 
L 603.329861 100.453434 
L 603.724501 115.879563 
L 604.11914 121.146205 
L 604.51378 102.537104 
L 604.908419 144.559251 
L 605.303059 123.867867 
L 605.697698 130.756682 
L 606.092338 143.017747 
L 606.486977 75.52781 
L 606.881617 114.552419 
L 607.276256 117.103228 
L 608.460174 140.234273 
L 608.854814 101.640142 
L 609.644093 163.210234 
L 610.038733 147.406582 
L 610.433372 151.261679 
L 611.222651 80.098268 
L 611.617291 137.321306 
L 612.01193 106.468531 
L 612.40657 120.02864 
L 612.801209 137.774481 
L 613.195849 104.967364 
L 613.590488 137.952356 
L 613.985128 135.099633 
L 614.379767 144.732354 
L 614.774407 158.876178 
L 615.169046 109.918647 
L 615.958325 172.724979 
L 616.352965 169.146151 
L 616.747604 134.582253 
L 617.142244 140.394656 
L 617.536883 144.219829 
L 617.931523 143.890609 
L 618.326162 172.62911 
L 618.720802 140.04635 
L 619.115441 157.494711 
L 619.510081 146.604516 
L 619.90472 148.912774 
L 620.29936 129.243777 
L 620.693999 157.149565 
L 621.088639 154.433789 
L 621.483278 147.44089 
L 621.877918 148.341142 
L 622.272557 159.908561 
L 622.667197 159.18978 
L 623.061836 164.529171 
L 623.456476 160.060325 
L 623.851115 148.683817 
L 624.245755 165.475711 
L 624.640394 109.063578 
L 625.035034 168.03297 
L 625.429673 156.360407 
L 625.824313 187.589732 
L 626.218952 182.163694 
L 626.613592 144.77187 
L 627.008231 171.248362 
L 627.402871 173.849706 
L 627.79751 182.987345 
L 628.19215 159.538472 
L 628.586789 157.156414 
L 628.981428 144.629053 
L 629.376068 172.499924 
L 629.770708 176.033345 
L 630.165347 156.392981 
L 630.559987 176.328574 
L 630.954626 181.955751 
L 631.349266 153.507776 
L 631.743905 175.855257 
L 632.138545 147.408981 
L 632.533184 177.082123 
L 632.927824 160.964431 
L 633.322463 198.115559 
L 633.717103 198.489959 
L 634.111742 159.974716 
L 634.506382 170.895138 
L 634.901021 193.119828 
L 635.6903 169.344904 
L 636.08494 179.896873 
L 636.479579 157.122842 
L 636.874219 182.306999 
L 637.268858 163.108309 
L 637.663498 173.623992 
L 638.058137 161.754063 
L 638.452777 183.990032 
L 638.847416 193.282862 
L 639.242056 187.580621 
L 639.636695 156.055486 
L 640.031335 187.92488 
L 640.425974 208.878765 
L 640.820614 214.524916 
L 641.215253 179.228924 
L 641.609893 176.68178 
L 642.004532 186.870354 
L 642.399172 206.928572 
L 642.793811 191.432628 
L 643.188451 197.543087 
L 643.58309 171.588217 
L 643.97773 193.476059 
L 644.372369 185.144574 
L 644.767009 205.420584 
L 645.161648 185.091358 
L 645.556288 197.190002 
L 645.950927 198.687243 
L 646.345567 206.197306 
L 646.740206 198.768058 
L 647.134846 180.904258 
L 647.529485 199.576773 
L 647.924125 204.785866 
L 648.318764 200.169324 
L 648.713404 220.989527 
L 649.108043 217.476911 
L 649.502682 208.23669 
L 649.897322 209.905875 
L 650.686601 189.721651 
L 651.081241 207.028552 
L 651.47588 195.288832 
L 651.87052 219.842785 
L 652.265159 226.350946 
L 652.659799 220.549669 
L 653.054438 199.517276 
L 653.449078 213.987265 
L 653.843717 217.592957 
L 654.238357 205.755518 
L 654.632996 223.956242 
L 655.027636 197.382311 
L 655.422275 213.535462 
L 655.816915 194.76756 
L 656.211554 215.340416 
L 656.606194 221.501332 
L 657.000833 215.131887 
L 657.395473 219.661042 
L 657.790112 216.800508 
L 658.184752 212.864641 
L 658.579391 229.705501 
L 658.974031 212.697099 
L 659.36867 214.259827 
L 659.76331 211.571406 
L 660.157949 222.553453 
L 660.552589 227.992884 
L 660.947228 210.390724 
L 661.736507 228.860726 
L 662.131147 223.283623 
L 662.525786 223.603956 
L 662.920426 224.930911 
L 663.315065 214.708184 
L 663.709705 216.270036 
L 664.104344 220.001045 
L 664.498984 214.981298 
L 664.893623 222.998414 
L 665.288263 212.727977 
L 665.682902 228.112397 
L 666.077542 226.884894 
L 666.472181 211.137346 
L 666.866821 229.409665 
L 667.26146 216.492897 
L 667.6561 220.811993 
L 668.050739 235.217885 
L 668.445379 216.60899 
L 668.840018 213.327768 
L 669.234658 230.66436 
L 670.023937 213.144653 
L 670.418576 230.557171 
L 670.813216 229.661481 
L 671.207855 225.292632 
L 671.602495 233.508371 
L 671.997134 209.065458 
L 672.391773 233.109673 
L 672.786413 221.964885 
L 673.181053 215.475696 
L 673.575692 232.943386 
L 673.970332 233.593625 
L 674.364971 223.027241 
L 674.759611 228.154599 
L 675.15425 221.112867 
L 675.54889 233.174465 
L 675.943529 220.64612 
L 676.338169 233.561092 
L 676.732808 223.77185 
L 677.127448 221.855681 
L 677.522087 233.649035 
L 677.916727 220.799617 
L 678.311366 233.94402 
L 678.706006 222.782073 
L 679.100645 233.493368 
L 679.495285 222.746944 
L 679.889924 233.623181 
L 680.284564 237.470808 
L 680.679203 225.159269 
L 681.073843 228.758902 
L 681.468482 227.187815 
L 681.863122 237.810089 
L 682.257761 225.41494 
L 682.652401 226.438618 
L 683.04704 235.447885 
L 683.44168 226.980355 
L 683.836319 235.553219 
L 684.230959 228.876997 
L 684.625598 235.901863 
L 685.020238 227.783129 
L 685.414877 236.072405 
L 685.809517 232.635776 
L 686.204156 233.171687 
L 686.598796 228.831161 
L 686.993435 236.513543 
L 687.388075 237.941558 
L 687.782714 225.695806 
L 688.177354 225.752295 
L 688.571993 237.299568 
L 688.966633 233.817196 
L 689.755912 235.112828 
L 690.150551 232.289606 
L 690.545191 238.051244 
L 690.93983 239.9285 
L 691.33447 233.338219 
L 691.729109 234.167185 
L 692.123749 229.249574 
L 692.518388 238.788037 
L 692.913027 238.834117 
L 693.307667 236.454354 
L 693.702307 227.602742 
L 694.096946 239.359954 
L 694.491586 237.8673 
L 694.886225 235.851013 
L 695.280865 237.115401 
L 695.675504 239.494229 
L 696.070144 236.233102 
L 696.464783 242.502851 
L 696.859423 237.473286 
L 697.254062 238.773005 
L 697.648702 235.482915 
L 698.043341 234.745152 
L 698.437981 240.060858 
L 698.83262 235.522294 
L 699.22726 243.766479 
L 699.621899 241.129031 
L 700.016539 235.957593 
L 700.411178 234.965621 
L 700.805818 240.529579 
L 701.200457 238.962254 
L 701.595097 232.802901 
L 701.989736 241.051318 
L 702.384376 234.095124 
L 702.779015 240.918361 
L 703.173655 237.038019 
L 703.568294 240.058886 
L 703.962934 240.815772 
L 704.357573 237.136076 
L 704.752213 240.126525 
L 705.146852 234.494392 
L 705.541492 241.601255 
L 705.936131 232.695473 
L 706.330771 241.8881 
L 706.72541 238.378684 
L 707.12005 241.290826 
L 707.514689 230.774571 
L 707.909329 242.236438 
L 708.303968 238.005636 
L 708.698608 243.518543 
L 709.093247 242.620429 
L 709.487887 237.987266 
L 709.882526 241.925865 
L 710.277166 242.406671 
L 710.671805 239.721505 
L 711.066445 238.583113 
L 711.461084 242.342984 
L 711.855724 242.448582 
L 712.250363 241.745507 
L 712.645003 239.897869 
L 713.039642 244.923849 
L 713.434281 242.231452 
L 713.828921 242.648367 
L 714.223561 238.82312 
L 714.6182 243.125702 
L 715.01284 239.736888 
L 715.407479 243.116262 
L 715.802119 243.932904 
L 716.196758 238.688776 
L 716.591398 243.416289 
L 716.986037 246.497575 
L 717.380677 246.200985 
L 717.775316 239.359481 
L 718.169956 243.53415 
L 718.564595 242.831189 
L 718.959235 242.90596 
L 719.353874 244.246497 
L 719.748514 244.171383 
L 720.143153 242.976741 
L 720.537793 244.111351 
L 720.932432 242.585497 
L 721.327072 245.542194 
L 721.721711 246.723561 
L 722.116351 245.689911 
L 722.51099 243.927538 
L 722.90563 246.317231 
L 723.300269 244.887286 
L 723.694909 244.591904 
L 724.089548 244.862908 
L 724.484188 243.769117 
L 724.878827 241.925142 
L 725.273467 245.29867 
L 725.668106 243.681938 
L 726.062746 243.034998 
L 726.457385 244.967039 
L 726.852025 244.735542 
L 727.246664 241.977529 
L 727.641304 245.586723 
L 728.035943 247.454143 
L 728.430583 246.345353 
L 728.825222 246.629054 
L 729.219862 247.417985 
L 729.614501 245.308357 
L 730.009141 248.174209 
L 730.40378 247.239702 
L 730.79842 244.911049 
L 731.193059 247.828704 
L 731.587699 244.666151 
L 731.982338 244.585618 
L 732.376978 246.063643 
L 733.166257 247.108276 
L 733.560896 247.068366 
L 733.955535 244.492537 
L 734.350175 246.925285 
L 734.744815 245.099016 
L 735.139454 245.233545 
L 735.534094 246.793877 
L 736.323373 246.75733 
L 736.718012 245.239662 
L 737.112652 249.433467 
L 737.507291 248.957673 
L 737.901931 247.872476 
L 738.29657 245.99243 
L 738.69121 245.161211 
L 739.085849 247.547203 
L 739.480489 244.970162 
L 739.875128 247.628428 
L 740.269768 249.461315 
L 740.664407 248.416095 
L 741.059047 246.89997 
L 741.453686 247.881547 
L 741.848326 249.647084 
L 742.242965 248.173013 
L 742.637605 245.642694 
L 743.032244 248.12826 
L 743.426884 245.630491 
L 743.821523 248.177464 
L 744.216163 249.187001 
L 744.610802 248.650112 
L 745.005442 248.307151 
L 745.400081 249.50055 
L 745.794721 249.401235 
L 746.18936 247.859188 
L 746.584 246.964249 
L 746.978639 248.287091 
L 747.373279 247.304139 
L 747.767918 250.676041 
L 748.162558 250.374186 
L 748.557197 246.382052 
L 748.951837 248.987514 
L 749.346476 247.039863 
L 749.741116 248.979011 
L 750.135755 247.376728 
L 750.530395 247.85362 
L 750.925034 246.77417 
L 751.319674 249.129731 
L 751.714313 249.600801 
L 752.108952 250.277333 
L 752.503592 251.248721 
L 752.898232 251.547058 
L 753.292871 250.50894 
L 753.687511 250.122931 
L 754.08215 249.319215 
L 754.476789 248.144178 
L 754.871429 248.882325 
L 755.266069 248.296099 
L 755.660708 251.082299 
L 756.055348 247.917193 
L 756.449987 249.943201 
L 756.844627 250.534362 
L 757.239266 252.465519 
L 757.633906 253.500899 
L 758.028545 250.254318 
L 758.423185 248.883652 
L 758.817824 250.702217 
L 759.212464 250.844998 
L 759.607103 249.460011 
L 760.001743 248.579695 
L 760.396382 250.63302 
L 760.791022 252.055317 
L 761.185661 252.319692 
L 761.580301 252.334844 
L 761.97494 251.821754 
L 762.36958 250.712367 
L 763.158859 253.03999 
L 763.553498 251.019311 
L 763.948138 252.458062 
L 764.342777 252.125548 
L 764.737417 252.046429 
L 765.132056 253.404811 
L 765.526696 253.048353 
L 766.710614 253.169713 
L 767.105254 253.132046 
L 767.499893 251.454039 
L 767.894533 254.957052 
L 768.289172 255.937124 
L 768.683812 253.790388 
L 769.078451 254.861788 
L 769.473091 253.602224 
L 769.86773 252.732191 
L 770.657009 254.447086 
L 771.051649 252.789387 
L 771.446288 255.149432 
L 771.840928 253.916594 
L 772.235567 255.022825 
L 772.630207 253.782751 
L 773.024846 254.809318 
L 773.419486 255.120145 
L 774.208765 256.096143 
L 774.603404 255.463865 
L 774.998043 255.323558 
L 775.392683 252.892695 
L 775.787323 254.45272 
L 776.181962 252.376627 
L 776.576602 254.731701 
L 776.971241 256.22894 
L 777.365881 255.756624 
L 777.76052 254.176246 
L 778.15516 255.989785 
L 778.549799 257.123198 
L 778.944439 257.649416 
L 779.339078 255.958665 
L 779.733718 257.610006 
L 780.128357 255.270127 
L 780.522997 256.166534 
L 780.917636 255.621591 
L 781.312276 256.426444 
L 781.706915 256.295429 
L 782.101555 258.037217 
L 782.496194 257.945356 
L 782.890834 257.162983 
L 783.285473 255.426733 
L 783.680113 257.147882 
L 784.074752 256.674143 
L 784.469392 257.831364 
L 784.864031 257.154131 
L 785.65331 258.038337 
L 786.04795 256.644942 
L 786.837229 257.912973 
L 787.231868 256.652444 
L 787.626508 257.66898 
L 788.021147 256.274333 
L 788.415787 257.679867 
L 788.810426 258.627862 
L 789.205066 257.298138 
L 789.599705 259.219943 
L 790.388984 258.41655 
L 790.783624 259.111965 
L 791.572903 258.968059 
L 791.967542 259.883909 
L 792.362182 259.51297 
L 792.756821 257.051089 
L 793.151461 259.397393 
L 793.5461 259.033742 
L 793.94074 257.432426 
L 794.335379 258.352561 
L 794.730019 256.619255 
L 795.124658 258.743726 
L 795.519297 259.549877 
L 795.913937 257.97882 
L 796.308577 258.544223 
L 796.703216 260.198004 
L 797.097856 259.454673 
L 797.492495 258.097464 
L 797.887135 259.371463 
L 798.281774 259.794169 
L 798.676414 258.954966 
L 799.071053 258.658113 
L 799.465693 259.625312 
L 799.860332 261.035543 
L 800.254972 261.069056 
L 800.649611 260.318419 
L 801.044251 258.318328 
L 801.43889 260.574921 
L 801.83353 260.487886 
L 802.228169 258.938135 
L 802.622809 258.056155 
L 803.017448 259.925783 
L 803.412088 259.345974 
L 803.806727 260.657685 
L 804.201367 259.079773 
L 804.596006 261.808762 
L 804.990646 262.126131 
L 805.385285 259.133575 
L 805.779925 261.323545 
L 806.174564 258.475415 
L 806.569204 260.48994 
L 806.963843 259.992856 
L 807.358483 259.08629 
L 807.753122 261.494973 
L 808.147762 261.567568 
L 808.937041 259.00578 
L 809.33168 260.663972 
L 809.72632 261.171249 
L 810.120959 259.451692 
L 810.515599 261.470921 
L 810.910238 260.491862 
L 811.304878 262.205175 
L 811.699517 261.560355 
L 812.094157 261.43486 
L 812.488796 259.652823 
L 812.883436 261.603426 
L 813.278075 261.900566 
L 813.672715 259.693144 
L 814.067354 261.281728 
L 814.461994 261.469719 
L 814.856633 263.059064 
L 815.251273 263.277755 
L 815.645912 263.034811 
L 816.040551 261.665367 
L 816.435191 262.067101 
L 816.829831 262.219367 
L 817.22447 261.839683 
L 817.61911 262.133456 
L 818.013749 263.370767 
L 818.408389 262.890987 
L 818.803028 261.346219 
L 819.197668 262.941903 
L 819.592307 263.109185 
L 819.986947 264.444832 
L 820.381586 265.145867 
L 820.776226 262.999545 
L 821.565505 263.328351 
L 821.960144 264.121303 
L 822.354784 262.030479 
L 822.749423 262.912613 
L 823.144063 264.204629 
L 823.538702 263.985434 
L 823.933342 263.128504 
L 824.327981 264.611261 
L 824.722621 264.609527 
L 825.11726 263.779032 
L 825.906539 263.556832 
L 826.301179 262.997061 
L 826.695818 263.730401 
L 827.485097 264.719741 
L 827.879737 264.044229 
L 828.274376 264.906634 
L 828.669016 264.145098 
L 829.063655 264.390444 
L 829.458295 262.668676 
L 829.852934 264.426591 
L 830.247574 264.904118 
L 830.642213 265.179499 
L 831.036853 263.626579 
L 831.431492 264.269846 
L 831.826132 265.199172 
L 832.220771 263.435561 
L 832.615411 264.940444 
L 833.01005 265.039164 
L 833.40469 266.220731 
L 833.799329 265.972677 
L 834.588608 264.711528 
L 834.983248 264.821299 
L 835.377887 264.44159 
L 835.772527 264.604175 
L 836.167166 265.479784 
L 836.561806 265.280652 
L 836.956445 266.071283 
L 837.745724 265.397004 
L 838.140364 265.294304 
L 838.535003 264.644545 
L 839.324282 265.988006 
L 839.718922 264.700776 
L 840.113561 264.697514 
L 840.508201 265.281615 
L 840.90284 266.295442 
L 841.29748 264.919391 
L 842.086759 264.690168 
L 842.481398 265.841932 
L 842.876038 264.906155 
L 843.270677 265.176475 
L 843.665317 266.23479 
L 844.454596 265.089596 
L 844.849235 265.617067 
L 845.243875 265.13275 
L 845.638514 266.457892 
L 846.033154 264.939783 
L 846.427793 266.102878 
L 846.822433 266.038973 
L 847.217072 265.113396 
L 847.611712 266.179556 
L 848.006351 265.364031 
L 848.400991 266.342013 
L 848.79563 264.815867 
L 849.19027 266.277609 
L 849.584909 266.571165 
L 849.979549 265.043305 
L 850.374188 265.654078 
L 850.768828 265.10047 
L 851.163467 266.331541 
L 851.558107 266.333834 
L 851.952746 265.449613 
L 852.347386 265.972723 
L 852.742025 266.825544 
L 853.136665 265.520493 
L 853.531304 265.889676 
L 853.925944 266.549771 
L 854.320583 265.448679 
L 854.715223 266.513282 
L 855.109862 266.446135 
L 855.504502 266.219945 
L 856.293781 265.25236 
L 856.68842 266.665805 
L 857.08306 265.668538 
L 857.477699 266.616225 
L 857.872339 266.003136 
L 858.266978 266.837414 
L 858.661618 265.412611 
L 859.056257 266.022529 
L 859.450896 265.630609 
L 859.845536 266.768392 
L 860.240176 266.698563 
L 860.634815 265.8098 
L 861.029455 266.782549 
L 861.424094 265.821457 
L 861.818734 266.786355 
L 862.213373 266.686166 
L 862.608013 267.176203 
L 863.002652 266.399149 
L 863.397292 266.252765 
L 863.791931 267.000634 
L 864.186571 266.170618 
L 864.58121 266.903974 
L 864.97585 267.117665 
L 865.370489 266.856516 
L 865.765129 266.406645 
L 866.159768 267.291874 
L 866.554408 266.516118 
L 866.949047 266.814536 
L 867.343687 267.334534 
L 867.738326 266.460572 
L 868.132966 266.586926 
L 868.527605 266.991967 
L 868.922245 266.708968 
L 869.316884 266.14184 
L 869.711524 267.153055 
L 870.106163 266.688516 
L 870.500803 267.405957 
L 870.895442 266.627133 
L 871.290082 266.654368 
L 871.684721 267.090147 
L 872.079361 266.301953 
L 872.474 267.234796 
L 872.86864 267.24035 
L 872.86864 267.24035 
" style="fill:none;stroke:#d62728;stroke-linecap:square;stroke-width:3;"/>
    </g>
    <g id="line2d_40">
     <path clip-path="url(#p2b512b53ed)" d="M 477.8345 272.173192 
L 872.474 272.173192 
" style="fill:none;stroke:#000000;stroke-dasharray:7.4,3.2;stroke-dashoffset:0;stroke-width:2;"/>
    </g>
    <g id="patch_11">
     <path d="M 477.8345 308.967 
L 477.8345 60.4945 
" style="fill:none;stroke:#000000;stroke-linecap:square;stroke-linejoin:miter;stroke-width:0.8;"/>
    </g>
    <g id="patch_12">
     <path d="M 872.474 308.967 
L 872.474 60.4945 
" style="fill:none;stroke:#000000;stroke-linecap:square;stroke-linejoin:miter;stroke-width:0.8;"/>
    </g>
    <g id="patch_13">
     <path d="M 477.8345 308.967 
L 872.474 308.967 
" style="fill:none;stroke:#000000;stroke-linecap:square;stroke-linejoin:miter;stroke-width:0.8;"/>
    </g>
    <g id="patch_14">
     <path d="M 477.8345 60.4945 
L 872.474 60.4945 
" style="fill:none;stroke:#000000;stroke-linecap:square;stroke-linejoin:miter;stroke-width:0.8;"/>
    </g>
   </g>
   <g id="legend_1">
    <g id="patch_15">
     <path d="M 1129.7775 206.1375 
L 1381.86 206.1375 
Q 1386.66 206.1375 1386.66 201.3375 
L 1386.66 27.6 
Q 1386.66 22.8 1381.86 22.8 
L 1129.7775 22.8 
Q 1124.9775 22.8 1124.9775 27.6 
L 1124.9775 201.3375 
Q 1124.9775 206.1375 1129.7775 206.1375 
z
" style="fill:#ffffff;opacity:0.8;stroke:#cccccc;stroke-linejoin:miter;"/>
    </g>
    <g id="line2d_41">
     <path d="M 1134.5775 42.23625 
L 1182.5775 42.23625 
" style="fill:none;stroke:#1f77b4;stroke-linecap:square;stroke-width:3;"/>
    </g>
    <g id="line2d_42"/>
    <g id="text_21">
     <!-- COBYLA -->
     <g transform="translate(1201.7775 50.63625)scale(0.24 -0.24)">
      <defs>
       <path d="M 4122 4306 
L 4122 3641 
Q 3803 3938 3442 4084 
Q 3081 4231 2675 4231 
Q 1875 4231 1450 3742 
Q 1025 3253 1025 2328 
Q 1025 1406 1450 917 
Q 1875 428 2675 428 
Q 3081 428 3442 575 
Q 3803 722 4122 1019 
L 4122 359 
Q 3791 134 3420 21 
Q 3050 -91 2638 -91 
Q 1578 -91 968 557 
Q 359 1206 359 2328 
Q 359 3453 968 4101 
Q 1578 4750 2638 4750 
Q 3056 4750 3426 4639 
Q 3797 4528 4122 4306 
z
" id="DejaVuSans-43" transform="scale(0.015625)"/>
       <path d="M 2522 4238 
Q 1834 4238 1429 3725 
Q 1025 3213 1025 2328 
Q 1025 1447 1429 934 
Q 1834 422 2522 422 
Q 3209 422 3611 934 
Q 4013 1447 4013 2328 
Q 4013 3213 3611 3725 
Q 3209 4238 2522 4238 
z
M 2522 4750 
Q 3503 4750 4090 4092 
Q 4678 3434 4678 2328 
Q 4678 1225 4090 567 
Q 3503 -91 2522 -91 
Q 1538 -91 948 565 
Q 359 1222 359 2328 
Q 359 3434 948 4092 
Q 1538 4750 2522 4750 
z
" id="DejaVuSans-4f" transform="scale(0.015625)"/>
       <path d="M 1259 2228 
L 1259 519 
L 2272 519 
Q 2781 519 3026 730 
Q 3272 941 3272 1375 
Q 3272 1813 3026 2020 
Q 2781 2228 2272 2228 
L 1259 2228 
z
M 1259 4147 
L 1259 2741 
L 2194 2741 
Q 2656 2741 2882 2914 
Q 3109 3088 3109 3444 
Q 3109 3797 2882 3972 
Q 2656 4147 2194 4147 
L 1259 4147 
z
M 628 4666 
L 2241 4666 
Q 2963 4666 3353 4366 
Q 3744 4066 3744 3513 
Q 3744 3084 3544 2831 
Q 3344 2578 2956 2516 
Q 3422 2416 3680 2098 
Q 3938 1781 3938 1306 
Q 3938 681 3513 340 
Q 3088 0 2303 0 
L 628 0 
L 628 4666 
z
" id="DejaVuSans-42" transform="scale(0.015625)"/>
       <path d="M -13 4666 
L 666 4666 
L 1959 2747 
L 3244 4666 
L 3922 4666 
L 2272 2222 
L 2272 0 
L 1638 0 
L 1638 2222 
L -13 4666 
z
" id="DejaVuSans-59" transform="scale(0.015625)"/>
       <path d="M 628 4666 
L 1259 4666 
L 1259 531 
L 3531 531 
L 3531 0 
L 628 0 
L 628 4666 
z
" id="DejaVuSans-4c" transform="scale(0.015625)"/>
       <path d="M 2188 4044 
L 1331 1722 
L 3047 1722 
L 2188 4044 
z
M 1831 4666 
L 2547 4666 
L 4325 0 
L 3669 0 
L 3244 1197 
L 1141 1197 
L 716 0 
L 50 0 
L 1831 4666 
z
" id="DejaVuSans-41" transform="scale(0.015625)"/>
      </defs>
      <use xlink:href="#DejaVuSans-43"/>
      <use x="69.824219" xlink:href="#DejaVuSans-4f"/>
      <use x="148.535156" xlink:href="#DejaVuSans-42"/>
      <use x="211.638672" xlink:href="#DejaVuSans-59"/>
      <use x="272.722656" xlink:href="#DejaVuSans-4c"/>
      <use x="330.685547" xlink:href="#DejaVuSans-41"/>
     </g>
    </g>
    <g id="line2d_43">
     <path d="M 1134.5775 77.46375 
L 1182.5775 77.46375 
" style="fill:none;stroke:#ff7f0e;stroke-linecap:square;stroke-width:3;"/>
    </g>
    <g id="line2d_44"/>
    <g id="text_22">
     <!-- L-BFGS-B -->
     <g transform="translate(1201.7775 85.86375)scale(0.24 -0.24)">
      <defs>
       <path d="M 313 2009 
L 1997 2009 
L 1997 1497 
L 313 1497 
L 313 2009 
z
" id="DejaVuSans-2d" transform="scale(0.015625)"/>
       <path d="M 628 4666 
L 3309 4666 
L 3309 4134 
L 1259 4134 
L 1259 2759 
L 3109 2759 
L 3109 2228 
L 1259 2228 
L 1259 0 
L 628 0 
L 628 4666 
z
" id="DejaVuSans-46" transform="scale(0.015625)"/>
       <path d="M 3809 666 
L 3809 1919 
L 2778 1919 
L 2778 2438 
L 4434 2438 
L 4434 434 
Q 4069 175 3628 42 
Q 3188 -91 2688 -91 
Q 1594 -91 976 548 
Q 359 1188 359 2328 
Q 359 3472 976 4111 
Q 1594 4750 2688 4750 
Q 3144 4750 3555 4637 
Q 3966 4525 4313 4306 
L 4313 3634 
Q 3963 3931 3569 4081 
Q 3175 4231 2741 4231 
Q 1884 4231 1454 3753 
Q 1025 3275 1025 2328 
Q 1025 1384 1454 906 
Q 1884 428 2741 428 
Q 3075 428 3337 486 
Q 3600 544 3809 666 
z
" id="DejaVuSans-47" transform="scale(0.015625)"/>
       <path d="M 3425 4513 
L 3425 3897 
Q 3066 4069 2747 4153 
Q 2428 4238 2131 4238 
Q 1616 4238 1336 4038 
Q 1056 3838 1056 3469 
Q 1056 3159 1242 3001 
Q 1428 2844 1947 2747 
L 2328 2669 
Q 3034 2534 3370 2195 
Q 3706 1856 3706 1288 
Q 3706 609 3251 259 
Q 2797 -91 1919 -91 
Q 1588 -91 1214 -16 
Q 841 59 441 206 
L 441 856 
Q 825 641 1194 531 
Q 1563 422 1919 422 
Q 2459 422 2753 634 
Q 3047 847 3047 1241 
Q 3047 1584 2836 1778 
Q 2625 1972 2144 2069 
L 1759 2144 
Q 1053 2284 737 2584 
Q 422 2884 422 3419 
Q 422 4038 858 4394 
Q 1294 4750 2059 4750 
Q 2388 4750 2728 4690 
Q 3069 4631 3425 4513 
z
" id="DejaVuSans-53" transform="scale(0.015625)"/>
      </defs>
      <use xlink:href="#DejaVuSans-4c"/>
      <use x="53.962891" xlink:href="#DejaVuSans-2d"/>
      <use x="86.421875" xlink:href="#DejaVuSans-42"/>
      <use x="155.025391" xlink:href="#DejaVuSans-46"/>
      <use x="212.544922" xlink:href="#DejaVuSans-47"/>
      <use x="290.035156" xlink:href="#DejaVuSans-53"/>
      <use x="353.511719" xlink:href="#DejaVuSans-2d"/>
      <use x="385.970703" xlink:href="#DejaVuSans-42"/>
     </g>
    </g>
    <g id="line2d_45">
     <path d="M 1134.5775 112.69125 
L 1182.5775 112.69125 
" style="fill:none;stroke:#2ca02c;stroke-linecap:square;stroke-width:3;"/>
    </g>
    <g id="line2d_46"/>
    <g id="text_23">
     <!-- SLSQP -->
     <g transform="translate(1201.7775 121.09125)scale(0.24 -0.24)">
      <defs>
       <path d="M 1259 4147 
L 1259 2394 
L 2053 2394 
Q 2494 2394 2734 2622 
Q 2975 2850 2975 3272 
Q 2975 3691 2734 3919 
Q 2494 4147 2053 4147 
L 1259 4147 
z
M 628 4666 
L 2053 4666 
Q 2838 4666 3239 4311 
Q 3641 3956 3641 3272 
Q 3641 2581 3239 2228 
Q 2838 1875 2053 1875 
L 1259 1875 
L 1259 0 
L 628 0 
L 628 4666 
z
" id="DejaVuSans-50" transform="scale(0.015625)"/>
      </defs>
      <use xlink:href="#DejaVuSans-53"/>
      <use x="63.476562" xlink:href="#DejaVuSans-4c"/>
      <use x="119.189453" xlink:href="#DejaVuSans-53"/>
      <use x="182.666016" xlink:href="#DejaVuSans-51"/>
      <use x="261.376953" xlink:href="#DejaVuSans-50"/>
     </g>
    </g>
    <g id="line2d_47">
     <path d="M 1134.5775 147.91875 
L 1182.5775 147.91875 
" style="fill:none;stroke:#d62728;stroke-linecap:square;stroke-width:3;"/>
    </g>
    <g id="line2d_48"/>
    <g id="text_24">
     <!-- NELDER-MEAD -->
     <g transform="translate(1201.7775 156.31875)scale(0.24 -0.24)">
      <defs>
       <path d="M 628 4666 
L 1478 4666 
L 3547 763 
L 3547 4666 
L 4159 4666 
L 4159 0 
L 3309 0 
L 1241 3903 
L 1241 0 
L 628 0 
L 628 4666 
z
" id="DejaVuSans-4e" transform="scale(0.015625)"/>
       <path d="M 1259 4147 
L 1259 519 
L 2022 519 
Q 2988 519 3436 956 
Q 3884 1394 3884 2338 
Q 3884 3275 3436 3711 
Q 2988 4147 2022 4147 
L 1259 4147 
z
M 628 4666 
L 1925 4666 
Q 3281 4666 3915 4102 
Q 4550 3538 4550 2338 
Q 4550 1131 3912 565 
Q 3275 0 1925 0 
L 628 0 
L 628 4666 
z
" id="DejaVuSans-44" transform="scale(0.015625)"/>
       <path d="M 2841 2188 
Q 3044 2119 3236 1894 
Q 3428 1669 3622 1275 
L 4263 0 
L 3584 0 
L 2988 1197 
Q 2756 1666 2539 1819 
Q 2322 1972 1947 1972 
L 1259 1972 
L 1259 0 
L 628 0 
L 628 4666 
L 2053 4666 
Q 2853 4666 3247 4331 
Q 3641 3997 3641 3322 
Q 3641 2881 3436 2590 
Q 3231 2300 2841 2188 
z
M 1259 4147 
L 1259 2491 
L 2053 2491 
Q 2509 2491 2742 2702 
Q 2975 2913 2975 3322 
Q 2975 3731 2742 3939 
Q 2509 4147 2053 4147 
L 1259 4147 
z
" id="DejaVuSans-52" transform="scale(0.015625)"/>
       <path d="M 628 4666 
L 1569 4666 
L 2759 1491 
L 3956 4666 
L 4897 4666 
L 4897 0 
L 4281 0 
L 4281 4097 
L 3078 897 
L 2444 897 
L 1241 4097 
L 1241 0 
L 628 0 
L 628 4666 
z
" id="DejaVuSans-4d" transform="scale(0.015625)"/>
      </defs>
      <use xlink:href="#DejaVuSans-4e"/>
      <use x="74.804688" xlink:href="#DejaVuSans-45"/>
      <use x="137.988281" xlink:href="#DejaVuSans-4c"/>
      <use x="193.701172" xlink:href="#DejaVuSans-44"/>
      <use x="270.703125" xlink:href="#DejaVuSans-45"/>
      <use x="333.886719" xlink:href="#DejaVuSans-52"/>
      <use x="399.369141" xlink:href="#DejaVuSans-2d"/>
      <use x="435.453125" xlink:href="#DejaVuSans-4d"/>
      <use x="521.732422" xlink:href="#DejaVuSans-45"/>
      <use x="584.916016" xlink:href="#DejaVuSans-41"/>
      <use x="653.324219" xlink:href="#DejaVuSans-44"/>
     </g>
    </g>
    <g id="line2d_49">
     <path d="M 1134.5775 183.14625 
L 1182.5775 183.14625 
" style="fill:none;stroke:#000000;stroke-dasharray:7.4,3.2;stroke-dashoffset:0;stroke-width:2;"/>
    </g>
    <g id="line2d_50"/>
    <g id="text_25">
     <!-- HT -->
     <g transform="translate(1201.7775 191.54625)scale(0.24 -0.24)">
      <defs>
       <path d="M 628 4666 
L 1259 4666 
L 1259 2753 
L 3553 2753 
L 3553 4666 
L 4184 4666 
L 4184 0 
L 3553 0 
L 3553 2222 
L 1259 2222 
L 1259 0 
L 628 0 
L 628 4666 
z
" id="DejaVuSans-48" transform="scale(0.015625)"/>
       <path d="M -19 4666 
L 3928 4666 
L 3928 4134 
L 2272 4134 
L 2272 0 
L 1638 0 
L 1638 4134 
L -19 4134 
L -19 4666 
z
" id="DejaVuSans-54" transform="scale(0.015625)"/>
      </defs>
      <use xlink:href="#DejaVuSans-48"/>
      <use x="75.195312" xlink:href="#DejaVuSans-54"/>
     </g>
    </g>
   </g>
  </g>
 </g>
 <defs>
  <clipPath id="paa3bed3f70">
   <rect height="496.945" width="1315.465" x="83.195" y="10.8"/>
  </clipPath>
  <clipPath id="p2b512b53ed">
   <rect height="248.4725" width="394.6395" x="477.8345" y="60.4945"/>
  </clipPath>
 </defs>
</svg>
