<?xml version="1.0" encoding="utf-8" standalone="no"?>
<!DOCTYPE svg PUBLIC "-//W3C//DTD SVG 1.1//EN"
  "http://www.w3.org/Graphics/SVG/1.1/DTD/svg11.dtd">
<svg height="576pt" version="1.1" viewBox="0 0 720 576" width="720pt" xmlns="http://www.w3.org/2000/svg" xmlns:xlink="http://www.w3.org/1999/xlink">
 <metadata>
  <rdf:RDF xmlns:cc="http://creativecommons.org/ns#" xmlns:dc="http://purl.org/dc/elements/1.1/" xmlns:rdf="http://www.w3.org/1999/02/22-rdf-syntax-ns#">
   <cc:Work>
    <dc:type rdf:resource="http://purl.org/dc/dcmitype/StillImage"/>
    <dc:date>2021-08-02T14:58:11.491137</dc:date>
    <dc:format>image/svg+xml</dc:format>
    <dc:creator>
     <cc:Agent>
      <dc:title>Matplotlib v3.4.2, https://matplotlib.org/</dc:title>
     </cc:Agent>
    </dc:creator>
   </cc:Work>
  </rdf:RDF>
 </metadata>
 <defs>
  <style type="text/css">*{stroke-linecap:butt;stroke-linejoin:round;}</style>
 </defs>
 <g id="figure_1">
  <g id="patch_1">
   <path d="M 0 576 
L 720 576 
L 720 0 
L 0 0 
z
" style="fill:#ffffff;"/>
  </g>
  <g id="axes_1">
   <g id="patch_2">
    <path d="M 75.5675 507.745 
L 678.66 507.745 
L 678.66 10.8 
L 75.5675 10.8 
z
" style="fill:#ffffff;"/>
   </g>
   <g id="matplotlib.axis_1">
    <g id="xtick_1">
     <g id="line2d_1">
      <defs>
       <path d="M 0 0 
L 0 3.5 
" id="m443ad850e1" style="stroke:#000000;stroke-width:0.8;"/>
      </defs>
      <g>
       <use style="stroke:#000000;stroke-width:0.8;" x="75.5675" xlink:href="#m443ad850e1" y="507.745"/>
      </g>
     </g>
     <g id="text_1">
      <!-- 0 -->
      <g transform="translate(67.9325 532.98125)scale(0.24 -0.24)">
       <defs>
        <path d="M 2034 4250 
Q 1547 4250 1301 3770 
Q 1056 3291 1056 2328 
Q 1056 1369 1301 889 
Q 1547 409 2034 409 
Q 2525 409 2770 889 
Q 3016 1369 3016 2328 
Q 3016 3291 2770 3770 
Q 2525 4250 2034 4250 
z
M 2034 4750 
Q 2819 4750 3233 4129 
Q 3647 3509 3647 2328 
Q 3647 1150 3233 529 
Q 2819 -91 2034 -91 
Q 1250 -91 836 529 
Q 422 1150 422 2328 
Q 422 3509 836 4129 
Q 1250 4750 2034 4750 
z
" id="DejaVuSans-30" transform="scale(0.015625)"/>
       </defs>
       <use xlink:href="#DejaVuSans-30"/>
      </g>
     </g>
    </g>
    <g id="xtick_2">
     <g id="line2d_2">
      <g>
       <use style="stroke:#000000;stroke-width:0.8;" x="150.954063" xlink:href="#m443ad850e1" y="507.745"/>
      </g>
     </g>
     <g id="text_2">
      <!-- 250 -->
      <g transform="translate(128.049063 532.98125)scale(0.24 -0.24)">
       <defs>
        <path d="M 1228 531 
L 3431 531 
L 3431 0 
L 469 0 
L 469 531 
Q 828 903 1448 1529 
Q 2069 2156 2228 2338 
Q 2531 2678 2651 2914 
Q 2772 3150 2772 3378 
Q 2772 3750 2511 3984 
Q 2250 4219 1831 4219 
Q 1534 4219 1204 4116 
Q 875 4013 500 3803 
L 500 4441 
Q 881 4594 1212 4672 
Q 1544 4750 1819 4750 
Q 2544 4750 2975 4387 
Q 3406 4025 3406 3419 
Q 3406 3131 3298 2873 
Q 3191 2616 2906 2266 
Q 2828 2175 2409 1742 
Q 1991 1309 1228 531 
z
" id="DejaVuSans-32" transform="scale(0.015625)"/>
        <path d="M 691 4666 
L 3169 4666 
L 3169 4134 
L 1269 4134 
L 1269 2991 
Q 1406 3038 1543 3061 
Q 1681 3084 1819 3084 
Q 2600 3084 3056 2656 
Q 3513 2228 3513 1497 
Q 3513 744 3044 326 
Q 2575 -91 1722 -91 
Q 1428 -91 1123 -41 
Q 819 9 494 109 
L 494 744 
Q 775 591 1075 516 
Q 1375 441 1709 441 
Q 2250 441 2565 725 
Q 2881 1009 2881 1497 
Q 2881 1984 2565 2268 
Q 2250 2553 1709 2553 
Q 1456 2553 1204 2497 
Q 953 2441 691 2322 
L 691 4666 
z
" id="DejaVuSans-35" transform="scale(0.015625)"/>
       </defs>
       <use xlink:href="#DejaVuSans-32"/>
       <use x="63.623047" xlink:href="#DejaVuSans-35"/>
       <use x="127.246094" xlink:href="#DejaVuSans-30"/>
      </g>
     </g>
    </g>
    <g id="xtick_3">
     <g id="line2d_3">
      <g>
       <use style="stroke:#000000;stroke-width:0.8;" x="226.340625" xlink:href="#m443ad850e1" y="507.745"/>
      </g>
     </g>
     <g id="text_3">
      <!-- 500 -->
      <g transform="translate(203.435625 532.98125)scale(0.24 -0.24)">
       <use xlink:href="#DejaVuSans-35"/>
       <use x="63.623047" xlink:href="#DejaVuSans-30"/>
       <use x="127.246094" xlink:href="#DejaVuSans-30"/>
      </g>
     </g>
    </g>
    <g id="xtick_4">
     <g id="line2d_4">
      <g>
       <use style="stroke:#000000;stroke-width:0.8;" x="301.727188" xlink:href="#m443ad850e1" y="507.745"/>
      </g>
     </g>
     <g id="text_4">
      <!-- 750 -->
      <g transform="translate(278.822188 532.98125)scale(0.24 -0.24)">
       <defs>
        <path d="M 525 4666 
L 3525 4666 
L 3525 4397 
L 1831 0 
L 1172 0 
L 2766 4134 
L 525 4134 
L 525 4666 
z
" id="DejaVuSans-37" transform="scale(0.015625)"/>
       </defs>
       <use xlink:href="#DejaVuSans-37"/>
       <use x="63.623047" xlink:href="#DejaVuSans-35"/>
       <use x="127.246094" xlink:href="#DejaVuSans-30"/>
      </g>
     </g>
    </g>
    <g id="xtick_5">
     <g id="line2d_5">
      <g>
       <use style="stroke:#000000;stroke-width:0.8;" x="377.11375" xlink:href="#m443ad850e1" y="507.745"/>
      </g>
     </g>
     <g id="text_5">
      <!-- 1000 -->
      <g transform="translate(346.57375 532.98125)scale(0.24 -0.24)">
       <defs>
        <path d="M 794 531 
L 1825 531 
L 1825 4091 
L 703 3866 
L 703 4441 
L 1819 4666 
L 2450 4666 
L 2450 531 
L 3481 531 
L 3481 0 
L 794 0 
L 794 531 
z
" id="DejaVuSans-31" transform="scale(0.015625)"/>
       </defs>
       <use xlink:href="#DejaVuSans-31"/>
       <use x="63.623047" xlink:href="#DejaVuSans-30"/>
       <use x="127.246094" xlink:href="#DejaVuSans-30"/>
       <use x="190.869141" xlink:href="#DejaVuSans-30"/>
      </g>
     </g>
    </g>
    <g id="xtick_6">
     <g id="line2d_6">
      <g>
       <use style="stroke:#000000;stroke-width:0.8;" x="452.500313" xlink:href="#m443ad850e1" y="507.745"/>
      </g>
     </g>
     <g id="text_6">
      <!-- 1250 -->
      <g transform="translate(421.960312 532.98125)scale(0.24 -0.24)">
       <use xlink:href="#DejaVuSans-31"/>
       <use x="63.623047" xlink:href="#DejaVuSans-32"/>
       <use x="127.246094" xlink:href="#DejaVuSans-35"/>
       <use x="190.869141" xlink:href="#DejaVuSans-30"/>
      </g>
     </g>
    </g>
    <g id="xtick_7">
     <g id="line2d_7">
      <g>
       <use style="stroke:#000000;stroke-width:0.8;" x="527.886875" xlink:href="#m443ad850e1" y="507.745"/>
      </g>
     </g>
     <g id="text_7">
      <!-- 1500 -->
      <g transform="translate(497.346875 532.98125)scale(0.24 -0.24)">
       <use xlink:href="#DejaVuSans-31"/>
       <use x="63.623047" xlink:href="#DejaVuSans-35"/>
       <use x="127.246094" xlink:href="#DejaVuSans-30"/>
       <use x="190.869141" xlink:href="#DejaVuSans-30"/>
      </g>
     </g>
    </g>
    <g id="xtick_8">
     <g id="line2d_8">
      <g>
       <use style="stroke:#000000;stroke-width:0.8;" x="603.273438" xlink:href="#m443ad850e1" y="507.745"/>
      </g>
     </g>
     <g id="text_8">
      <!-- 1750 -->
      <g transform="translate(572.733438 532.98125)scale(0.24 -0.24)">
       <use xlink:href="#DejaVuSans-31"/>
       <use x="63.623047" xlink:href="#DejaVuSans-37"/>
       <use x="127.246094" xlink:href="#DejaVuSans-35"/>
       <use x="190.869141" xlink:href="#DejaVuSans-30"/>
      </g>
     </g>
    </g>
    <g id="xtick_9">
     <g id="line2d_9">
      <g>
       <use style="stroke:#000000;stroke-width:0.8;" x="678.66" xlink:href="#m443ad850e1" y="507.745"/>
      </g>
     </g>
     <g id="text_9">
      <!-- 2000 -->
      <g transform="translate(648.12 532.98125)scale(0.24 -0.24)">
       <use xlink:href="#DejaVuSans-32"/>
       <use x="63.623047" xlink:href="#DejaVuSans-30"/>
       <use x="127.246094" xlink:href="#DejaVuSans-30"/>
       <use x="190.869141" xlink:href="#DejaVuSans-30"/>
      </g>
     </g>
    </g>
    <g id="text_10">
     <!-- iterations -->
     <g transform="translate(320.168125 560.20875)scale(0.24 -0.24)">
      <defs>
       <path d="M 603 3500 
L 1178 3500 
L 1178 0 
L 603 0 
L 603 3500 
z
M 603 4863 
L 1178 4863 
L 1178 4134 
L 603 4134 
L 603 4863 
z
" id="DejaVuSans-69" transform="scale(0.015625)"/>
       <path d="M 1172 4494 
L 1172 3500 
L 2356 3500 
L 2356 3053 
L 1172 3053 
L 1172 1153 
Q 1172 725 1289 603 
Q 1406 481 1766 481 
L 2356 481 
L 2356 0 
L 1766 0 
Q 1100 0 847 248 
Q 594 497 594 1153 
L 594 3053 
L 172 3053 
L 172 3500 
L 594 3500 
L 594 4494 
L 1172 4494 
z
" id="DejaVuSans-74" transform="scale(0.015625)"/>
       <path d="M 3597 1894 
L 3597 1613 
L 953 1613 
Q 991 1019 1311 708 
Q 1631 397 2203 397 
Q 2534 397 2845 478 
Q 3156 559 3463 722 
L 3463 178 
Q 3153 47 2828 -22 
Q 2503 -91 2169 -91 
Q 1331 -91 842 396 
Q 353 884 353 1716 
Q 353 2575 817 3079 
Q 1281 3584 2069 3584 
Q 2775 3584 3186 3129 
Q 3597 2675 3597 1894 
z
M 3022 2063 
Q 3016 2534 2758 2815 
Q 2500 3097 2075 3097 
Q 1594 3097 1305 2825 
Q 1016 2553 972 2059 
L 3022 2063 
z
" id="DejaVuSans-65" transform="scale(0.015625)"/>
       <path d="M 2631 2963 
Q 2534 3019 2420 3045 
Q 2306 3072 2169 3072 
Q 1681 3072 1420 2755 
Q 1159 2438 1159 1844 
L 1159 0 
L 581 0 
L 581 3500 
L 1159 3500 
L 1159 2956 
Q 1341 3275 1631 3429 
Q 1922 3584 2338 3584 
Q 2397 3584 2469 3576 
Q 2541 3569 2628 3553 
L 2631 2963 
z
" id="DejaVuSans-72" transform="scale(0.015625)"/>
       <path d="M 2194 1759 
Q 1497 1759 1228 1600 
Q 959 1441 959 1056 
Q 959 750 1161 570 
Q 1363 391 1709 391 
Q 2188 391 2477 730 
Q 2766 1069 2766 1631 
L 2766 1759 
L 2194 1759 
z
M 3341 1997 
L 3341 0 
L 2766 0 
L 2766 531 
Q 2569 213 2275 61 
Q 1981 -91 1556 -91 
Q 1019 -91 701 211 
Q 384 513 384 1019 
Q 384 1609 779 1909 
Q 1175 2209 1959 2209 
L 2766 2209 
L 2766 2266 
Q 2766 2663 2505 2880 
Q 2244 3097 1772 3097 
Q 1472 3097 1187 3025 
Q 903 2953 641 2809 
L 641 3341 
Q 956 3463 1253 3523 
Q 1550 3584 1831 3584 
Q 2591 3584 2966 3190 
Q 3341 2797 3341 1997 
z
" id="DejaVuSans-61" transform="scale(0.015625)"/>
       <path d="M 1959 3097 
Q 1497 3097 1228 2736 
Q 959 2375 959 1747 
Q 959 1119 1226 758 
Q 1494 397 1959 397 
Q 2419 397 2687 759 
Q 2956 1122 2956 1747 
Q 2956 2369 2687 2733 
Q 2419 3097 1959 3097 
z
M 1959 3584 
Q 2709 3584 3137 3096 
Q 3566 2609 3566 1747 
Q 3566 888 3137 398 
Q 2709 -91 1959 -91 
Q 1206 -91 779 398 
Q 353 888 353 1747 
Q 353 2609 779 3096 
Q 1206 3584 1959 3584 
z
" id="DejaVuSans-6f" transform="scale(0.015625)"/>
       <path d="M 3513 2113 
L 3513 0 
L 2938 0 
L 2938 2094 
Q 2938 2591 2744 2837 
Q 2550 3084 2163 3084 
Q 1697 3084 1428 2787 
Q 1159 2491 1159 1978 
L 1159 0 
L 581 0 
L 581 3500 
L 1159 3500 
L 1159 2956 
Q 1366 3272 1645 3428 
Q 1925 3584 2291 3584 
Q 2894 3584 3203 3211 
Q 3513 2838 3513 2113 
z
" id="DejaVuSans-6e" transform="scale(0.015625)"/>
       <path d="M 2834 3397 
L 2834 2853 
Q 2591 2978 2328 3040 
Q 2066 3103 1784 3103 
Q 1356 3103 1142 2972 
Q 928 2841 928 2578 
Q 928 2378 1081 2264 
Q 1234 2150 1697 2047 
L 1894 2003 
Q 2506 1872 2764 1633 
Q 3022 1394 3022 966 
Q 3022 478 2636 193 
Q 2250 -91 1575 -91 
Q 1294 -91 989 -36 
Q 684 19 347 128 
L 347 722 
Q 666 556 975 473 
Q 1284 391 1588 391 
Q 1994 391 2212 530 
Q 2431 669 2431 922 
Q 2431 1156 2273 1281 
Q 2116 1406 1581 1522 
L 1381 1569 
Q 847 1681 609 1914 
Q 372 2147 372 2553 
Q 372 3047 722 3315 
Q 1072 3584 1716 3584 
Q 2034 3584 2315 3537 
Q 2597 3491 2834 3397 
z
" id="DejaVuSans-73" transform="scale(0.015625)"/>
      </defs>
      <use xlink:href="#DejaVuSans-69"/>
      <use x="27.783203" xlink:href="#DejaVuSans-74"/>
      <use x="66.992188" xlink:href="#DejaVuSans-65"/>
      <use x="128.515625" xlink:href="#DejaVuSans-72"/>
      <use x="169.628906" xlink:href="#DejaVuSans-61"/>
      <use x="230.908203" xlink:href="#DejaVuSans-74"/>
      <use x="270.117188" xlink:href="#DejaVuSans-69"/>
      <use x="297.900391" xlink:href="#DejaVuSans-6f"/>
      <use x="359.082031" xlink:href="#DejaVuSans-6e"/>
      <use x="422.460938" xlink:href="#DejaVuSans-73"/>
     </g>
    </g>
   </g>
   <g id="matplotlib.axis_2">
    <g id="ytick_1">
     <g id="line2d_10">
      <defs>
       <path d="M 0 0 
L -3.5 0 
" id="m0e4d2d1bb9" style="stroke:#000000;stroke-width:0.8;"/>
      </defs>
      <g>
       <use style="stroke:#000000;stroke-width:0.8;" x="75.5675" xlink:href="#m0e4d2d1bb9" y="448.459012"/>
      </g>
     </g>
     <g id="text_11">
      <!-- 4 -->
      <g transform="translate(53.2975 457.577137)scale(0.24 -0.24)">
       <defs>
        <path d="M 2419 4116 
L 825 1625 
L 2419 1625 
L 2419 4116 
z
M 2253 4666 
L 3047 4666 
L 3047 1625 
L 3713 1625 
L 3713 1100 
L 3047 1100 
L 3047 0 
L 2419 0 
L 2419 1100 
L 313 1100 
L 313 1709 
L 2253 4666 
z
" id="DejaVuSans-34" transform="scale(0.015625)"/>
       </defs>
       <use xlink:href="#DejaVuSans-34"/>
      </g>
     </g>
    </g>
    <g id="ytick_2">
     <g id="line2d_11">
      <g>
       <use style="stroke:#000000;stroke-width:0.8;" x="75.5675" xlink:href="#m0e4d2d1bb9" y="363.406647"/>
      </g>
     </g>
     <g id="text_12">
      <!-- 6 -->
      <g transform="translate(53.2975 372.524772)scale(0.24 -0.24)">
       <defs>
        <path d="M 2113 2584 
Q 1688 2584 1439 2293 
Q 1191 2003 1191 1497 
Q 1191 994 1439 701 
Q 1688 409 2113 409 
Q 2538 409 2786 701 
Q 3034 994 3034 1497 
Q 3034 2003 2786 2293 
Q 2538 2584 2113 2584 
z
M 3366 4563 
L 3366 3988 
Q 3128 4100 2886 4159 
Q 2644 4219 2406 4219 
Q 1781 4219 1451 3797 
Q 1122 3375 1075 2522 
Q 1259 2794 1537 2939 
Q 1816 3084 2150 3084 
Q 2853 3084 3261 2657 
Q 3669 2231 3669 1497 
Q 3669 778 3244 343 
Q 2819 -91 2113 -91 
Q 1303 -91 875 529 
Q 447 1150 447 2328 
Q 447 3434 972 4092 
Q 1497 4750 2381 4750 
Q 2619 4750 2861 4703 
Q 3103 4656 3366 4563 
z
" id="DejaVuSans-36" transform="scale(0.015625)"/>
       </defs>
       <use xlink:href="#DejaVuSans-36"/>
      </g>
     </g>
    </g>
    <g id="ytick_3">
     <g id="line2d_12">
      <g>
       <use style="stroke:#000000;stroke-width:0.8;" x="75.5675" xlink:href="#m0e4d2d1bb9" y="278.354282"/>
      </g>
     </g>
     <g id="text_13">
      <!-- 8 -->
      <g transform="translate(53.2975 287.472407)scale(0.24 -0.24)">
       <defs>
        <path d="M 2034 2216 
Q 1584 2216 1326 1975 
Q 1069 1734 1069 1313 
Q 1069 891 1326 650 
Q 1584 409 2034 409 
Q 2484 409 2743 651 
Q 3003 894 3003 1313 
Q 3003 1734 2745 1975 
Q 2488 2216 2034 2216 
z
M 1403 2484 
Q 997 2584 770 2862 
Q 544 3141 544 3541 
Q 544 4100 942 4425 
Q 1341 4750 2034 4750 
Q 2731 4750 3128 4425 
Q 3525 4100 3525 3541 
Q 3525 3141 3298 2862 
Q 3072 2584 2669 2484 
Q 3125 2378 3379 2068 
Q 3634 1759 3634 1313 
Q 3634 634 3220 271 
Q 2806 -91 2034 -91 
Q 1263 -91 848 271 
Q 434 634 434 1313 
Q 434 1759 690 2068 
Q 947 2378 1403 2484 
z
M 1172 3481 
Q 1172 3119 1398 2916 
Q 1625 2713 2034 2713 
Q 2441 2713 2670 2916 
Q 2900 3119 2900 3481 
Q 2900 3844 2670 4047 
Q 2441 4250 2034 4250 
Q 1625 4250 1398 4047 
Q 1172 3844 1172 3481 
z
" id="DejaVuSans-38" transform="scale(0.015625)"/>
       </defs>
       <use xlink:href="#DejaVuSans-38"/>
      </g>
     </g>
    </g>
    <g id="ytick_4">
     <g id="line2d_13">
      <g>
       <use style="stroke:#000000;stroke-width:0.8;" x="75.5675" xlink:href="#m0e4d2d1bb9" y="193.301917"/>
      </g>
     </g>
     <g id="text_14">
      <!-- 10 -->
      <g transform="translate(38.0275 202.420042)scale(0.24 -0.24)">
       <use xlink:href="#DejaVuSans-31"/>
       <use x="63.623047" xlink:href="#DejaVuSans-30"/>
      </g>
     </g>
    </g>
    <g id="ytick_5">
     <g id="line2d_14">
      <g>
       <use style="stroke:#000000;stroke-width:0.8;" x="75.5675" xlink:href="#m0e4d2d1bb9" y="108.249553"/>
      </g>
     </g>
     <g id="text_15">
      <!-- 12 -->
      <g transform="translate(38.0275 117.367678)scale(0.24 -0.24)">
       <use xlink:href="#DejaVuSans-31"/>
       <use x="63.623047" xlink:href="#DejaVuSans-32"/>
      </g>
     </g>
    </g>
    <g id="ytick_6">
     <g id="line2d_15">
      <g>
       <use style="stroke:#000000;stroke-width:0.8;" x="75.5675" xlink:href="#m0e4d2d1bb9" y="23.197188"/>
      </g>
     </g>
     <g id="text_16">
      <!-- 14 -->
      <g transform="translate(38.0275 32.315313)scale(0.24 -0.24)">
       <use xlink:href="#DejaVuSans-31"/>
       <use x="63.623047" xlink:href="#DejaVuSans-34"/>
      </g>
     </g>
    </g>
    <g id="text_17">
     <!-- VQE energy -->
     <g transform="translate(29.03625 330.14)rotate(-90)scale(0.24 -0.24)">
      <defs>
       <path d="M 1831 0 
L 50 4666 
L 709 4666 
L 2188 738 
L 3669 4666 
L 4325 4666 
L 2547 0 
L 1831 0 
z
" id="DejaVuSans-56" transform="scale(0.015625)"/>
       <path d="M 2522 4238 
Q 1834 4238 1429 3725 
Q 1025 3213 1025 2328 
Q 1025 1447 1429 934 
Q 1834 422 2522 422 
Q 3209 422 3611 934 
Q 4013 1447 4013 2328 
Q 4013 3213 3611 3725 
Q 3209 4238 2522 4238 
z
M 3406 84 
L 4238 -825 
L 3475 -825 
L 2784 -78 
Q 2681 -84 2626 -87 
Q 2572 -91 2522 -91 
Q 1538 -91 948 567 
Q 359 1225 359 2328 
Q 359 3434 948 4092 
Q 1538 4750 2522 4750 
Q 3503 4750 4090 4092 
Q 4678 3434 4678 2328 
Q 4678 1516 4351 937 
Q 4025 359 3406 84 
z
" id="DejaVuSans-51" transform="scale(0.015625)"/>
       <path d="M 628 4666 
L 3578 4666 
L 3578 4134 
L 1259 4134 
L 1259 2753 
L 3481 2753 
L 3481 2222 
L 1259 2222 
L 1259 531 
L 3634 531 
L 3634 0 
L 628 0 
L 628 4666 
z
" id="DejaVuSans-45" transform="scale(0.015625)"/>
       <path id="DejaVuSans-20" transform="scale(0.015625)"/>
       <path d="M 2906 1791 
Q 2906 2416 2648 2759 
Q 2391 3103 1925 3103 
Q 1463 3103 1205 2759 
Q 947 2416 947 1791 
Q 947 1169 1205 825 
Q 1463 481 1925 481 
Q 2391 481 2648 825 
Q 2906 1169 2906 1791 
z
M 3481 434 
Q 3481 -459 3084 -895 
Q 2688 -1331 1869 -1331 
Q 1566 -1331 1297 -1286 
Q 1028 -1241 775 -1147 
L 775 -588 
Q 1028 -725 1275 -790 
Q 1522 -856 1778 -856 
Q 2344 -856 2625 -561 
Q 2906 -266 2906 331 
L 2906 616 
Q 2728 306 2450 153 
Q 2172 0 1784 0 
Q 1141 0 747 490 
Q 353 981 353 1791 
Q 353 2603 747 3093 
Q 1141 3584 1784 3584 
Q 2172 3584 2450 3431 
Q 2728 3278 2906 2969 
L 2906 3500 
L 3481 3500 
L 3481 434 
z
" id="DejaVuSans-67" transform="scale(0.015625)"/>
       <path d="M 2059 -325 
Q 1816 -950 1584 -1140 
Q 1353 -1331 966 -1331 
L 506 -1331 
L 506 -850 
L 844 -850 
Q 1081 -850 1212 -737 
Q 1344 -625 1503 -206 
L 1606 56 
L 191 3500 
L 800 3500 
L 1894 763 
L 2988 3500 
L 3597 3500 
L 2059 -325 
z
" id="DejaVuSans-79" transform="scale(0.015625)"/>
      </defs>
      <use xlink:href="#DejaVuSans-56"/>
      <use x="68.408203" xlink:href="#DejaVuSans-51"/>
      <use x="147.119141" xlink:href="#DejaVuSans-45"/>
      <use x="210.302734" xlink:href="#DejaVuSans-20"/>
      <use x="242.089844" xlink:href="#DejaVuSans-65"/>
      <use x="303.613281" xlink:href="#DejaVuSans-6e"/>
      <use x="366.992188" xlink:href="#DejaVuSans-65"/>
      <use x="428.515625" xlink:href="#DejaVuSans-72"/>
      <use x="467.878906" xlink:href="#DejaVuSans-67"/>
      <use x="531.355469" xlink:href="#DejaVuSans-79"/>
     </g>
    </g>
   </g>
   <g id="line2d_16">
    <path clip-path="url(#p8c8c05898d)" d="M 75.869046 128.327684 
L 76.170593 131.004895 
L 76.472139 110.444862 
L 76.773685 135.002818 
L 77.075231 134.255197 
L 77.376778 146.783259 
L 77.678324 134.555577 
L 77.97987 141.938387 
L 78.281416 133.849516 
L 78.582963 107.075511 
L 78.884509 160.120393 
L 79.186055 166.980187 
L 79.487601 170.734531 
L 79.789148 148.038207 
L 80.090694 141.361352 
L 80.39224 162.193226 
L 80.693786 156.653112 
L 80.995333 160.592541 
L 81.296879 130.96653 
L 81.598425 172.416201 
L 81.899971 151.282041 
L 82.201518 183.418885 
L 82.503064 164.257698 
L 82.80461 208.915588 
L 83.106156 185.207272 
L 83.407703 191.487579 
L 83.709249 192.151158 
L 84.312341 201.350617 
L 84.613888 191.869186 
L 84.915434 199.073813 
L 85.518526 185.785511 
L 85.820073 193.524128 
L 86.121619 197.144622 
L 86.724711 232.460157 
L 87.026258 231.860016 
L 87.327804 219.14233 
L 87.62935 233.365279 
L 88.232443 235.563395 
L 88.533989 241.146404 
L 89.137081 224.18527 
L 89.438628 227.23897 
L 89.740174 228.735868 
L 90.04172 247.970865 
L 90.343266 232.163055 
L 90.644813 251.183988 
L 90.946359 242.370396 
L 91.247905 250.600243 
L 91.549451 235.555849 
L 91.850998 250.136939 
L 92.152544 240.453383 
L 92.45409 254.727408 
L 93.057183 237.690569 
L 93.358729 244.143036 
L 93.660275 231.005237 
L 93.961821 256.894968 
L 94.263368 223.788755 
L 94.564914 257.255436 
L 94.86646 228.777076 
L 95.168006 262.125714 
L 95.469553 231.850736 
L 95.771099 237.378173 
L 96.072645 285.804808 
L 96.675738 262.282493 
L 96.977284 281.484389 
L 97.27883 274.092887 
L 97.580376 277.406851 
L 97.881923 300.988448 
L 98.183469 294.170013 
L 98.485015 280.300719 
L 98.786561 299.900381 
L 99.088108 279.046395 
L 99.389654 295.590613 
L 99.6912 290.85818 
L 99.992746 289.200906 
L 100.595839 303.220408 
L 100.897385 297.167537 
L 101.198931 299.195204 
L 101.500478 250.383948 
L 101.802024 296.102878 
L 102.10357 293.407931 
L 102.405116 303.220871 
L 102.706663 295.960991 
L 103.008209 301.312966 
L 103.309755 297.305732 
L 103.611301 307.639251 
L 103.912848 305.286923 
L 104.214394 297.669115 
L 104.51594 314.459781 
L 104.817486 316.52825 
L 105.119033 300.267623 
L 105.420579 313.664714 
L 105.722125 293.436908 
L 106.023671 307.972172 
L 106.325218 275.140482 
L 106.626764 308.225317 
L 106.92831 309.333185 
L 107.229856 311.784338 
L 107.531403 299.201545 
L 107.832949 313.785999 
L 108.134495 307.14826 
L 108.436041 311.796255 
L 108.737588 291.027958 
L 109.039134 312.0122 
L 109.34068 297.077929 
L 109.642226 310.436919 
L 109.943773 309.218248 
L 110.245319 310.208036 
L 110.546865 304.542542 
L 110.848411 305.009342 
L 111.451504 311.478828 
L 111.75305 310.693409 
L 112.054596 313.549877 
L 112.356143 292.116547 
L 112.657689 308.976144 
L 112.959235 316.952201 
L 113.260781 315.557999 
L 113.562328 317.520941 
L 113.863874 308.887139 
L 114.16542 315.977927 
L 114.466966 305.96309 
L 114.768513 319.409741 
L 115.070059 309.64507 
L 115.673151 318.27433 
L 116.276244 325.672755 
L 116.57779 323.90941 
L 116.879336 321.379678 
L 117.180883 327.748543 
L 117.482429 329.025118 
L 117.783975 323.128282 
L 118.085521 326.925749 
L 118.688614 329.829479 
L 118.99016 329.129247 
L 119.291706 326.059155 
L 119.593253 326.144039 
L 119.894799 326.740954 
L 120.196345 328.891442 
L 120.799438 325.049479 
L 121.100984 326.769817 
L 121.40253 324.93178 
L 121.704076 338.70102 
L 122.005623 341.384977 
L 122.307169 350.889858 
L 122.608715 346.123883 
L 122.910261 356.863255 
L 123.211808 357.041287 
L 123.513354 352.870171 
L 123.8149 360.93194 
L 124.116446 354.119709 
L 124.417993 359.415008 
L 124.719539 358.117059 
L 125.021085 360.605099 
L 125.322631 350.659969 
L 125.624178 358.959617 
L 125.925724 361.480594 
L 126.22727 360.865701 
L 126.528816 356.085845 
L 126.830363 358.942209 
L 127.131909 356.428767 
L 127.433455 361.409584 
L 127.735001 368.302625 
L 128.036548 364.890055 
L 128.338094 372.011872 
L 128.63964 369.72757 
L 128.941186 361.304791 
L 129.242733 369.951106 
L 129.544279 367.483129 
L 129.845825 370.35987 
L 130.147371 365.058411 
L 130.448918 368.216504 
L 130.750464 364.161042 
L 131.05201 372.554146 
L 131.353556 374.933315 
L 131.655102 373.378744 
L 131.956649 369.877689 
L 132.258195 373.952663 
L 132.559741 371.626014 
L 132.861288 374.270669 
L 133.46438 368.347846 
L 133.765926 380.505205 
L 134.067473 379.977784 
L 134.369019 386.239375 
L 134.670565 382.597695 
L 134.972111 382.276174 
L 135.273658 385.957382 
L 135.87675 384.696338 
L 136.178296 372.711905 
L 136.479843 385.708903 
L 136.781389 374.354234 
L 137.082935 386.650224 
L 137.384481 379.20981 
L 137.686028 384.582217 
L 137.987574 387.443348 
L 138.28912 384.910813 
L 138.590666 383.678373 
L 138.892213 384.971418 
L 139.193759 378.990602 
L 139.495305 385.619976 
L 139.796851 375.826697 
L 140.098398 385.962149 
L 140.399944 390.080135 
L 140.70149 388.533426 
L 141.003036 395.626574 
L 141.304583 388.677775 
L 141.606129 392.82421 
L 141.907675 393.406138 
L 142.209221 395.396839 
L 142.510768 392.990614 
L 143.11386 396.337841 
L 143.415406 397.423658 
L 143.716953 396.530907 
L 144.018499 397.213921 
L 144.621591 390.929737 
L 144.923137 395.847205 
L 145.224684 394.824542 
L 145.52623 395.742303 
L 145.827776 388.582559 
L 146.129323 395.987226 
L 146.430869 396.77922 
L 146.732415 394.090028 
L 147.033961 396.592295 
L 147.335508 396.349089 
L 147.637054 389.212575 
L 147.9386 396.340946 
L 148.240146 393.837822 
L 148.541693 396.784141 
L 148.843239 393.332235 
L 149.144785 395.713682 
L 149.446331 390.483656 
L 149.747878 391.452074 
L 150.049424 394.704075 
L 150.35097 388.801282 
L 150.652516 396.62731 
L 151.255609 393.887867 
L 151.557155 395.554155 
L 152.160248 392.608278 
L 152.461794 396.402341 
L 152.76334 395.900391 
L 153.064886 393.883033 
L 153.366433 397.783466 
L 153.667979 392.88837 
L 153.969525 394.905333 
L 154.271071 399.849974 
L 154.572618 398.140038 
L 154.874164 401.585748 
L 155.17571 400.397824 
L 155.477256 401.631222 
L 155.778803 402.172968 
L 156.080349 397.56185 
L 156.381895 401.618641 
L 156.683441 400.263508 
L 156.984988 396.92461 
L 157.286534 403.305217 
L 157.58808 399.947223 
L 157.889626 404.420764 
L 158.191172 404.332054 
L 158.492719 406.843407 
L 158.794265 405.516321 
L 159.095811 410.10989 
L 159.397357 406.560122 
L 159.698904 408.183766 
L 160.00045 407.365863 
L 160.301996 401.365486 
L 160.603543 408.240506 
L 160.905089 408.154406 
L 161.206635 409.114635 
L 161.508181 408.342426 
L 161.809728 409.610949 
L 162.111274 411.56322 
L 162.41282 412.097781 
L 162.714366 405.285173 
L 163.015913 408.207711 
L 163.317459 404.44584 
L 163.619005 410.636812 
L 163.920551 393.31962 
L 164.222098 416.240109 
L 164.523644 406.29485 
L 164.82519 411.734647 
L 165.126736 405.750027 
L 165.428283 415.001009 
L 165.729829 413.08632 
L 166.031375 416.930863 
L 166.332921 409.588614 
L 166.634468 414.616767 
L 166.936014 411.568724 
L 167.23756 414.986895 
L 167.539106 413.332333 
L 168.142199 418.523622 
L 168.443745 418.802776 
L 168.745291 414.395084 
L 169.046838 416.519898 
L 169.348384 409.648434 
L 169.951476 418.445317 
L 170.253023 409.986704 
L 170.554569 417.175049 
L 171.157661 420.392877 
L 171.459208 420.117795 
L 171.760754 413.54603 
L 172.0623 416.957166 
L 172.363846 415.715666 
L 172.665392 417.797261 
L 172.966939 421.045112 
L 173.268485 419.536794 
L 173.570031 421.890241 
L 173.871578 420.879187 
L 174.173124 412.856932 
L 174.776216 421.011461 
L 175.077763 425.498629 
L 175.379309 414.554415 
L 175.680855 423.876397 
L 175.982401 417.265646 
L 176.283948 425.335805 
L 176.585494 421.059749 
L 176.88704 425.235786 
L 177.188586 420.764028 
L 177.490133 423.313106 
L 177.791679 428.959561 
L 178.093225 424.357262 
L 178.394771 425.608454 
L 178.696318 428.444485 
L 178.997864 424.464067 
L 179.29941 423.685006 
L 179.600956 433.785604 
L 179.902503 427.164101 
L 180.204049 425.141507 
L 180.505595 428.276006 
L 180.807141 430.008034 
L 181.108688 429.324146 
L 181.410234 429.675451 
L 181.71178 432.577358 
L 182.013326 436.655923 
L 182.314873 431.802424 
L 182.917965 435.762845 
L 183.219511 428.826916 
L 183.521058 434.029441 
L 183.822604 435.072942 
L 184.12415 434.878338 
L 184.425696 431.761822 
L 184.727243 433.456174 
L 185.028789 424.670662 
L 185.330335 436.564188 
L 185.631881 434.948642 
L 185.933428 432.199286 
L 186.234974 437.121069 
L 186.53652 434.153753 
L 186.838066 432.344466 
L 187.139612 437.632859 
L 187.441159 427.473053 
L 187.742705 431.566199 
L 188.044251 437.384588 
L 188.345798 429.951866 
L 188.647344 437.841016 
L 188.94889 432.122177 
L 189.250436 436.365701 
L 189.551983 432.49932 
L 190.155075 436.81121 
L 190.456621 432.289148 
L 190.758168 436.037912 
L 191.059714 425.620071 
L 191.36126 433.47812 
L 191.662806 437.494253 
L 191.964353 438.003937 
L 192.265899 431.173609 
L 192.567445 435.490519 
L 192.868991 432.55361 
L 193.170538 437.348645 
L 193.472084 437.998218 
L 193.77363 435.686095 
L 194.075176 430.536365 
L 194.376723 436.776968 
L 194.678269 435.480267 
L 195.281361 435.121558 
L 195.582908 433.891773 
L 195.884454 440.593098 
L 196.186 440.446857 
L 196.487546 433.160067 
L 196.789093 437.11628 
L 197.090639 437.750379 
L 197.392185 436.689206 
L 197.693731 439.790266 
L 197.995278 439.22348 
L 198.296824 430.091213 
L 198.59837 436.635403 
L 198.899916 435.209183 
L 199.201463 434.627951 
L 199.503009 432.883115 
L 199.804555 435.929841 
L 200.106101 432.883561 
L 200.407647 439.741347 
L 200.709194 440.007909 
L 201.01074 439.900267 
L 201.312286 437.666114 
L 201.613833 440.940176 
L 201.915379 438.23451 
L 202.216925 441.0211 
L 202.820018 435.553047 
L 203.121564 441.18573 
L 203.42311 443.179917 
L 203.724656 442.976104 
L 204.026203 443.654348 
L 204.327749 442.788691 
L 204.629295 443.07848 
L 204.930841 442.038666 
L 205.232388 446.615062 
L 205.533934 448.282496 
L 205.83548 444.669961 
L 206.137026 450.289436 
L 206.438573 450.637408 
L 206.740119 449.403866 
L 207.041665 451.738025 
L 207.343211 448.640343 
L 207.644758 450.601491 
L 207.946304 451.079056 
L 208.549396 450.614668 
L 208.850943 452.786877 
L 209.454035 450.412775 
L 209.755581 453.215345 
L 210.057128 452.084218 
L 210.358674 453.167474 
L 210.66022 454.728097 
L 210.961766 452.964008 
L 211.263313 455.491832 
L 211.564859 454.19966 
L 211.866405 459.677667 
L 212.167951 460.280309 
L 212.469497 461.173962 
L 212.771044 464.336288 
L 213.07259 463.231392 
L 213.374136 460.668437 
L 213.675682 462.4415 
L 213.977229 466.781541 
L 214.278775 464.673294 
L 214.580321 466.023477 
L 214.881867 465.788374 
L 215.183414 466.178565 
L 215.786506 465.476708 
L 216.389599 467.355562 
L 216.691145 466.867879 
L 216.992691 465.306756 
L 217.294238 466.709546 
L 217.595784 466.482785 
L 218.198876 467.435045 
L 218.500423 467.578331 
L 218.801969 464.055127 
L 219.103515 466.52716 
L 219.405061 466.399013 
L 219.706608 466.829359 
L 220.008154 465.91053 
L 220.3097 467.213802 
L 220.611246 466.002627 
L 220.912793 465.779851 
L 221.214339 465.236624 
L 221.515885 466.204203 
L 221.817431 469.382528 
L 222.118978 469.543728 
L 222.420524 471.938009 
L 222.72207 471.743338 
L 223.023616 472.363085 
L 223.325163 472.659565 
L 223.626709 474.767444 
L 223.928255 473.336052 
L 224.229801 472.591705 
L 224.531348 474.416669 
L 224.832894 473.584191 
L 225.13444 474.128544 
L 225.435986 471.817947 
L 225.737533 473.602826 
L 226.039079 473.878742 
L 226.340625 474.75955 
L 226.642171 472.311729 
L 226.943717 473.895039 
L 227.245264 472.333295 
L 227.54681 474.167122 
L 227.848356 473.379315 
L 228.149902 474.915296 
L 228.451449 472.362423 
L 228.752995 474.138768 
L 229.054541 472.458612 
L 229.657634 476.451195 
L 229.95918 474.878287 
L 230.260726 475.994997 
L 230.562273 475.840148 
L 230.863819 474.822057 
L 231.165365 475.876158 
L 231.466911 474.13246 
L 231.768458 476.957361 
L 232.070004 475.002806 
L 232.37155 477.404195 
L 232.673096 475.885875 
L 232.974643 477.015476 
L 233.276189 475.792238 
L 233.577735 475.878904 
L 233.879281 475.090795 
L 234.180828 475.021889 
L 234.482374 478.405308 
L 234.78392 478.253363 
L 235.085466 476.796914 
L 235.387013 478.156402 
L 235.688559 476.514245 
L 235.990105 477.161492 
L 236.291651 475.516821 
L 236.593198 477.458547 
L 236.894744 478.278658 
L 237.19629 478.027967 
L 237.497836 475.649544 
L 237.799383 477.599308 
L 238.100929 477.186198 
L 238.402475 478.45809 
L 238.704021 478.296081 
L 239.005568 477.951213 
L 239.307114 476.731818 
L 239.60866 478.461379 
L 239.910206 476.52956 
L 240.211753 478.458285 
L 240.513299 475.636012 
L 240.814845 478.129582 
L 241.116391 477.376013 
L 241.417937 477.783891 
L 241.719484 477.391516 
L 242.02103 478.542003 
L 242.322576 478.309314 
L 242.624122 479.422292 
L 242.925669 479.524857 
L 243.227215 478.169571 
L 243.528761 479.070745 
L 243.830308 479.097487 
L 244.131854 479.3901 
L 244.4334 478.878592 
L 245.338039 479.14333 
L 245.639585 479.015944 
L 245.941131 479.587859 
L 246.242678 479.59919 
L 246.544224 479.082176 
L 246.84577 479.69616 
L 247.147316 479.00822 
L 247.448863 480.013994 
L 247.750409 480.345828 
L 248.051955 479.649846 
L 248.353501 480.052989 
L 248.655048 480.790868 
L 249.25814 480.462233 
L 249.559686 480.544306 
L 249.861233 480.831727 
L 250.464325 480.983218 
L 250.765871 480.786775 
L 251.067418 480.885085 
L 251.368964 481.203884 
L 251.67051 480.878735 
L 252.273603 481.01078 
L 252.575149 481.398202 
L 253.178241 481.380717 
L 253.479788 481.695705 
L 253.781334 481.603894 
L 254.08288 480.686493 
L 254.384426 481.464922 
L 254.685972 481.080675 
L 254.987519 481.557709 
L 255.289065 481.135559 
L 255.590611 481.818853 
L 255.892157 481.541622 
L 257.399889 481.728781 
L 257.701435 481.368426 
L 258.304528 481.965925 
L 258.606074 481.86629 
L 258.90762 481.595369 
L 259.209166 481.681755 
L 259.510713 481.276084 
L 260.113805 481.843457 
L 260.415351 481.891916 
L 261.018444 481.423816 
L 261.31999 481.006513 
L 261.621536 482.018585 
L 261.923083 481.413303 
L 262.224629 481.897608 
L 262.827721 481.706278 
L 263.129268 482.052107 
L 263.430814 481.864349 
L 263.73236 482.274121 
L 264.033906 482.13793 
L 264.335453 481.523269 
L 264.938545 482.394609 
L 265.240091 482.032376 
L 265.541638 482.612569 
L 265.843184 482.489763 
L 266.446276 482.056869 
L 266.747823 482.080119 
L 267.049369 482.457695 
L 267.350915 481.65649 
L 267.652461 482.348389 
L 267.954008 482.460831 
L 268.255554 482.370832 
L 268.5571 482.700577 
L 269.461739 482.524855 
L 269.763285 482.837465 
L 270.064831 482.665804 
L 270.366377 483.015899 
L 270.96947 482.826223 
L 271.271016 482.801251 
L 271.572563 482.548882 
L 271.874109 482.925177 
L 272.477201 483.026096 
L 272.778748 482.490156 
L 273.080294 482.857965 
L 273.38184 483.045216 
L 273.984933 482.93019 
L 274.286479 482.888066 
L 274.588025 482.513181 
L 275.191118 483.208101 
L 275.492664 482.893226 
L 275.79421 482.379364 
L 276.095756 483.064256 
L 276.397303 482.577648 
L 276.698849 482.838127 
L 277.301941 483.075678 
L 277.603488 482.335423 
L 277.905034 482.916755 
L 278.809673 482.950522 
L 280.015858 482.783752 
L 280.317404 483.149644 
L 280.61895 482.906831 
L 281.222043 483.316178 
L 281.523589 483.139027 
L 281.825135 482.544688 
L 282.126681 483.215032 
L 282.428228 482.866922 
L 282.729774 483.220364 
L 283.03132 482.942755 
L 283.332866 483.201208 
L 283.935959 482.992203 
L 284.539051 483.261832 
L 284.840598 483.177674 
L 285.142144 483.403048 
L 285.44369 482.904437 
L 285.745236 483.049403 
L 286.046783 483.375592 
L 286.649875 483.051753 
L 286.951421 483.303475 
L 287.252968 483.22782 
L 287.554514 483.325628 
L 287.85606 482.97487 
L 288.157606 483.392724 
L 288.760699 483.309619 
L 289.062245 483.504711 
L 289.363791 483.546372 
L 289.966884 483.350057 
L 290.871523 483.588546 
L 291.173069 483.430075 
L 291.776161 483.557448 
L 292.077708 483.515612 
L 292.379254 483.707423 
L 292.6808 483.630441 
L 293.283893 483.917964 
L 293.585439 483.776176 
L 293.886985 483.868783 
L 294.188531 483.691931 
L 294.490078 483.934057 
L 294.791624 483.795345 
L 295.09317 483.895365 
L 295.394716 483.779611 
L 295.696263 483.87929 
L 296.600901 483.827218 
L 297.50554 483.884713 
L 297.807086 484.11272 
L 298.108632 484.004718 
L 298.410179 484.122908 
L 298.711725 484.05085 
L 299.013271 484.320549 
L 299.314818 484.182889 
L 299.616364 484.474808 
L 299.91791 484.392117 
L 300.219456 484.449652 
L 300.521003 484.377051 
L 301.124095 484.542462 
L 301.425641 484.401947 
L 301.727188 484.549376 
L 302.33028 484.536298 
L 302.933373 484.540482 
L 303.234919 484.376596 
L 303.536465 484.527384 
L 303.838011 484.413325 
L 304.139558 484.536084 
L 304.441104 484.442074 
L 305.044196 484.494463 
L 306.250381 484.427348 
L 306.551928 484.578193 
L 306.853474 484.518127 
L 307.758113 484.636626 
L 308.662751 484.560787 
L 309.56739 484.675558 
L 309.868936 484.53077 
L 310.170483 484.685816 
L 311.075121 484.621108 
L 311.97976 484.74021 
L 312.281306 484.588721 
L 312.582853 484.711369 
L 312.884399 484.539867 
L 313.185945 484.696529 
L 313.487491 484.590683 
L 313.789038 484.69631 
L 314.090584 484.509602 
L 314.995223 484.730837 
L 315.296769 484.624108 
L 315.899861 484.736313 
L 316.502954 484.628091 
L 317.106046 484.733521 
L 320.121509 484.798484 
L 320.423055 484.74622 
L 321.026148 484.814766 
L 323.136971 484.834427 
L 323.740064 484.87743 
L 325.549341 484.915936 
L 326.152434 484.905711 
L 327.660165 484.954053 
L 328.564804 484.960586 
L 330.675628 484.967484 
L 334.595729 484.992358 
L 336.10346 484.964212 
L 337.611191 484.994446 
L 338.817376 484.975238 
L 340.023561 484.980238 
L 340.626654 484.970345 
L 341.832839 484.991572 
L 352.688504 485.035055 
L 353.291596 485.030927 
L 354.196235 485.028676 
L 360.528706 485.048188 
L 396.41271 485.127472 
L 402.142089 485.12345 
L 412.997754 485.136567 
L 433.804445 485.146962 
L 493.510603 485.155546 
L 678.961546 485.156572 
L 678.961546 485.156572 
" style="fill:none;stroke:#1f77b4;stroke-linecap:square;stroke-width:3;"/>
   </g>
   <g id="line2d_17">
    <path clip-path="url(#p8c8c05898d)" d="M 75.869046 43.945694 
L 90.343266 43.945694 
L 90.644813 130.236484 
L 105.119033 130.236484 
L 105.420579 196.753059 
L 119.894799 196.753059 
L 120.196345 271.632085 
L 134.670565 271.632085 
L 134.972111 222.435549 
L 135.273658 320.712393 
L 149.747878 320.712393 
L 150.049424 378.584376 
L 164.523644 378.584376 
L 164.82519 393.887543 
L 179.29941 393.887543 
L 179.600956 402.356927 
L 194.075176 402.356927 
L 194.376723 407.715223 
L 208.850943 407.715223 
L 209.152489 421.892927 
L 223.626709 421.892927 
L 223.928255 425.362055 
L 238.402475 425.362055 
L 238.704021 428.650167 
L 253.178241 428.650167 
L 253.479788 432.621045 
L 267.954008 432.621045 
L 268.255554 436.69156 
L 282.729774 436.69156 
L 283.03132 438.402627 
L 297.50554 438.402627 
L 297.807086 442.303015 
L 312.281306 442.303015 
L 312.582853 451.289822 
L 327.057073 451.289822 
L 327.358619 462.679229 
L 341.832839 462.679229 
L 342.134385 471.373511 
L 356.608605 471.373511 
L 356.910151 474.913918 
L 371.384371 474.913918 
L 371.685918 482.490091 
L 386.160138 482.490091 
L 386.461684 482.330623 
L 386.76323 484.303583 
L 401.23745 484.303583 
L 401.538996 484.843745 
L 416.013216 484.843745 
L 416.314763 485.038154 
L 678.961546 485.145198 
L 678.961546 485.145198 
" style="fill:none;stroke:#ff7f0e;stroke-linecap:square;stroke-width:3;"/>
   </g>
   <g id="line2d_18">
    <path clip-path="url(#p8c8c05898d)" d="M 75.869046 33.38841 
L 90.343266 33.38841 
L 90.644813 88.441216 
L 105.119033 88.441216 
L 105.420579 189.275914 
L 119.894799 189.275915 
L 120.196345 205.473664 
L 134.670565 205.473665 
L 134.972111 288.298248 
L 149.446331 288.298248 
L 149.747878 305.681125 
L 164.222098 305.681124 
L 164.523644 343.464469 
L 178.997864 343.464469 
L 179.29941 363.095596 
L 193.77363 363.095596 
L 194.075176 274.270897 
L 208.549396 274.270897 
L 208.850943 406.582723 
L 223.325163 406.582723 
L 223.626709 423.074716 
L 238.100929 423.074716 
L 238.402475 454.363756 
L 252.876695 454.363757 
L 253.178241 467.885573 
L 267.652461 467.885573 
L 267.954008 475.592198 
L 282.428228 475.592198 
L 282.729774 481.742012 
L 297.203994 481.742012 
L 297.50554 482.79015 
L 311.97976 482.79015 
L 312.281306 484.630831 
L 326.755526 484.630831 
L 327.057073 484.792703 
L 341.531293 484.792703 
L 341.832839 484.945836 
L 356.307059 484.945836 
L 356.608605 485.065683 
L 678.961546 485.149358 
L 678.961546 485.149358 
" style="fill:none;stroke:#2ca02c;stroke-linecap:square;stroke-width:3;"/>
   </g>
   <g id="line2d_19">
    <path clip-path="url(#p8c8c05898d)" d="M 75.869046 100.567292 
L 76.170593 100.168748 
L 76.472139 99.282102 
L 76.773685 101.198355 
L 77.075231 101.158491 
L 77.376778 100.142183 
L 77.97987 104.18064 
L 78.281416 97.285049 
L 78.582963 102.963887 
L 78.884509 98.473126 
L 79.186055 106.952149 
L 79.487601 100.363862 
L 79.789148 96.741177 
L 80.090694 100.400589 
L 80.39224 98.150963 
L 80.693786 97.261963 
L 80.995333 99.091054 
L 81.296879 97.599773 
L 81.598425 98.571512 
L 81.899971 99.095994 
L 82.201518 101.381615 
L 82.503064 100.161141 
L 82.80461 92.988449 
L 83.106156 99.929323 
L 83.407703 95.564881 
L 83.709249 106.181697 
L 84.010795 100.009214 
L 84.312341 101.230266 
L 84.915434 98.560571 
L 85.21698 95.759146 
L 85.518526 99.489119 
L 85.820073 98.508111 
L 86.121619 96.069857 
L 86.423165 101.018112 
L 86.724711 99.539208 
L 87.026258 100.770163 
L 87.327804 100.570239 
L 87.930896 97.348703 
L 88.232443 100.690218 
L 88.533989 99.390071 
L 89.137081 101.355343 
L 89.438628 100.740625 
L 89.740174 101.092219 
L 90.343266 99.526391 
L 90.644813 106.543367 
L 90.946359 105.575627 
L 91.247905 105.059145 
L 91.549451 104.866255 
L 91.850998 106.194579 
L 92.152544 104.840939 
L 92.45409 104.495015 
L 93.057183 105.321664 
L 93.358729 104.931154 
L 93.660275 105.931931 
L 93.961821 104.682897 
L 94.263368 105.495435 
L 94.564914 105.626174 
L 94.86646 105.560583 
L 95.168006 105.970881 
L 95.469553 105.753126 
L 95.771099 105.804567 
L 96.374191 106.350995 
L 96.675738 106.441534 
L 96.977284 103.244857 
L 97.580376 110.715494 
L 97.881923 106.620045 
L 98.183469 107.308771 
L 99.389654 108.250509 
L 99.6912 107.945398 
L 99.992746 108.921909 
L 100.897385 109.822821 
L 101.198931 110.585778 
L 101.500478 110.45637 
L 101.802024 112.253977 
L 102.10357 120.075853 
L 102.405116 111.382152 
L 102.706663 111.298882 
L 103.008209 112.361134 
L 103.309755 112.384786 
L 103.611301 112.813866 
L 103.912848 112.271524 
L 104.214394 113.735039 
L 104.51594 112.99849 
L 104.817486 112.872439 
L 105.119033 109.092484 
L 105.420579 111.998574 
L 105.722125 111.697603 
L 106.023671 111.79529 
L 106.325218 112.536284 
L 106.626764 112.430224 
L 106.92831 113.105218 
L 107.229856 113.057801 
L 107.531403 114.067738 
L 107.832949 114.116671 
L 108.134495 113.933617 
L 108.737588 114.177856 
L 109.039134 114.642764 
L 109.642226 114.704325 
L 109.943773 116.561065 
L 110.546865 115.745926 
L 111.149958 117.167343 
L 111.451504 116.972668 
L 112.054596 117.875794 
L 112.356143 118.08476 
L 112.657689 117.950613 
L 113.260781 118.958507 
L 113.863874 118.918349 
L 114.16542 119.992098 
L 114.466966 119.962608 
L 114.768513 119.773017 
L 115.070059 116.205596 
L 115.371605 120.396965 
L 115.673151 126.177799 
L 115.974698 120.73356 
L 116.276244 120.82901 
L 116.57779 120.613787 
L 116.879336 121.735766 
L 117.180883 121.191578 
L 117.482429 121.222345 
L 117.783975 121.047258 
L 118.085521 121.102634 
L 118.387068 120.983024 
L 118.688614 121.539513 
L 118.99016 120.985557 
L 119.291706 122.585267 
L 119.593253 122.954683 
L 119.894799 122.909985 
L 120.196345 123.572535 
L 120.497891 123.633414 
L 120.799438 124.102246 
L 121.40253 124.493636 
L 121.704076 125.032672 
L 122.005623 125.029419 
L 122.307169 125.228959 
L 122.608715 125.728779 
L 122.910261 125.974791 
L 123.211808 126.491786 
L 123.513354 132.430636 
L 123.8149 127.535759 
L 124.116446 127.227037 
L 124.417993 127.480724 
L 124.719539 128.162404 
L 125.021085 127.709552 
L 125.322631 128.1302 
L 125.624178 124.541538 
L 125.925724 127.869357 
L 126.22727 129.33474 
L 126.528816 128.940046 
L 126.830363 130.537445 
L 127.131909 129.374865 
L 127.433455 129.334948 
L 127.735001 128.172038 
L 128.036548 130.052929 
L 128.338094 130.442241 
L 128.63964 129.888166 
L 128.941186 130.915952 
L 129.242733 131.413939 
L 129.544279 131.126203 
L 129.845825 131.085499 
L 130.147371 131.5759 
L 130.448918 134.396454 
L 130.750464 144.720545 
L 131.05201 132.470627 
L 131.655102 133.282018 
L 131.956649 132.797879 
L 132.258195 132.955079 
L 132.559741 134.438597 
L 132.861288 134.41683 
L 133.162834 135.645096 
L 133.46438 135.617672 
L 133.765926 135.966915 
L 134.067473 137.081517 
L 134.369019 136.593685 
L 134.670565 136.352358 
L 134.972111 137.025825 
L 135.273658 136.960901 
L 135.575204 137.586657 
L 135.87675 137.536133 
L 136.479843 138.01485 
L 136.781389 134.733233 
L 137.082935 138.988758 
L 137.384481 139.514116 
L 137.686028 139.65597 
L 137.987574 139.606243 
L 138.28912 140.976029 
L 138.590666 141.256835 
L 138.892213 139.936564 
L 139.495305 140.092237 
L 139.796851 140.51124 
L 140.399944 141.942955 
L 140.70149 141.447244 
L 141.003036 142.08626 
L 141.304583 142.149971 
L 141.606129 143.607278 
L 141.907675 143.00389 
L 142.209221 143.690691 
L 142.510768 143.336941 
L 143.11386 144.333247 
L 143.415406 144.600207 
L 143.716953 145.282687 
L 144.018499 152.273298 
L 144.320045 145.697803 
L 144.621591 146.309038 
L 144.923137 146.518116 
L 145.224684 147.371608 
L 145.52623 147.885937 
L 145.827776 147.553802 
L 146.129323 146.685738 
L 146.430869 148.316874 
L 146.732415 147.580642 
L 147.033961 149.112741 
L 147.335508 148.337976 
L 147.637054 148.651958 
L 147.9386 145.669776 
L 148.240146 149.295404 
L 148.541693 149.396993 
L 148.843239 149.367619 
L 150.049424 150.916383 
L 150.35097 152.24352 
L 150.652516 151.879288 
L 150.954063 152.26889 
L 151.255609 152.425473 
L 151.557155 159.052537 
L 151.858701 152.868456 
L 152.160248 152.865434 
L 152.461794 153.009034 
L 152.76334 153.612233 
L 153.667979 154.343039 
L 153.969525 155.335435 
L 154.271071 155.328595 
L 154.572618 154.753987 
L 154.874164 154.762147 
L 155.17571 156.851286 
L 155.477256 156.848235 
L 155.778803 157.283806 
L 156.080349 154.866588 
L 156.381895 157.989837 
L 156.683441 157.373602 
L 156.984988 157.27824 
L 157.58808 158.805064 
L 157.889626 158.549492 
L 158.191172 159.394336 
L 158.492719 166.368986 
L 158.794265 161.431554 
L 159.095811 170.360092 
L 159.397357 190.419941 
L 159.698904 157.057327 
L 160.00045 161.45199 
L 160.603543 162.307962 
L 160.905089 161.838274 
L 161.206635 162.294234 
L 161.508181 163.242323 
L 161.809728 162.404495 
L 162.111274 162.924148 
L 162.41282 164.328279 
L 162.714366 164.063374 
L 163.015913 165.095739 
L 163.317459 165.568171 
L 163.619005 165.213065 
L 164.222098 167.39163 
L 164.523644 166.833104 
L 164.82519 167.647794 
L 165.126736 167.456012 
L 165.428283 168.156729 
L 165.729829 167.915504 
L 166.031375 168.60504 
L 166.332921 168.975138 
L 166.634468 169.715598 
L 166.936014 169.944746 
L 167.23756 169.642393 
L 167.539106 171.017586 
L 167.840653 170.544102 
L 168.745291 171.904126 
L 169.046838 173.066678 
L 169.348384 173.122033 
L 169.64993 173.762232 
L 169.951476 173.392779 
L 170.253023 174.514229 
L 170.554569 173.428062 
L 170.856115 176.12959 
L 171.157661 172.155241 
L 171.459208 175.803347 
L 171.760754 176.979354 
L 172.363846 177.208595 
L 172.665392 179.366633 
L 172.966939 178.571195 
L 173.268485 179.623168 
L 173.570031 179.210413 
L 173.871578 178.409152 
L 174.173124 179.067054 
L 174.47467 177.969313 
L 174.776216 180.026912 
L 175.379309 180.874481 
L 175.680855 180.413043 
L 175.982401 182.782477 
L 176.283948 182.680847 
L 176.585494 182.226465 
L 176.88704 183.271501 
L 177.188586 182.684448 
L 177.490133 184.176814 
L 177.791679 184.34144 
L 178.093225 184.008937 
L 178.394771 185.029274 
L 178.696318 184.932712 
L 178.997864 185.252347 
L 179.29941 186.45973 
L 179.600956 186.591256 
L 179.902503 187.551417 
L 180.204049 187.443187 
L 180.505595 188.931137 
L 180.807141 188.773526 
L 181.108688 188.250514 
L 181.410234 190.000588 
L 181.71178 190.060101 
L 182.013326 190.790437 
L 182.314873 200.702897 
L 182.616419 191.323419 
L 182.917965 192.490421 
L 183.219511 192.363294 
L 183.521058 192.717586 
L 183.822604 188.409613 
L 184.12415 192.119912 
L 184.425696 192.793316 
L 184.727243 194.613813 
L 185.028789 195.315154 
L 185.330335 192.834427 
L 185.631881 195.599537 
L 185.933428 195.317899 
L 186.234974 196.292062 
L 186.53652 196.232264 
L 186.838066 196.482024 
L 187.139612 197.321579 
L 187.441159 196.464718 
L 188.345798 198.763603 
L 188.647344 198.817866 
L 188.94889 199.102515 
L 189.551983 201.669594 
L 189.853529 212.225848 
L 190.155075 200.872667 
L 190.758168 203.999118 
L 191.059714 202.209829 
L 191.36126 203.619507 
L 191.662806 203.945719 
L 191.964353 203.692212 
L 192.265899 205.625922 
L 192.567445 205.170369 
L 192.868991 205.731743 
L 193.170538 207.139052 
L 193.472084 206.727278 
L 193.77363 207.530728 
L 194.075176 209.033257 
L 194.376723 208.462773 
L 194.678269 209.259902 
L 194.979815 209.259217 
L 195.281361 210.294855 
L 195.582908 209.364561 
L 195.884454 207.213505 
L 196.186 211.537516 
L 196.487546 212.424475 
L 196.789093 222.65094 
L 197.090639 212.446443 
L 197.392185 213.903087 
L 197.693731 213.200312 
L 197.995278 213.825064 
L 198.296824 213.359322 
L 198.59837 214.074717 
L 198.899916 213.872612 
L 199.503009 216.047108 
L 199.804555 215.974176 
L 200.106101 215.417231 
L 200.407647 215.376237 
L 200.709194 217.129802 
L 201.01074 218.214972 
L 201.312286 218.389599 
L 201.613833 220.478596 
L 201.915379 217.999404 
L 202.216925 219.43071 
L 202.518471 222.643224 
L 202.820018 220.80259 
L 203.42311 222.334981 
L 203.724656 222.186549 
L 204.026203 223.779051 
L 204.327749 232.263671 
L 204.629295 223.732357 
L 204.930841 222.181851 
L 205.533934 224.581657 
L 205.83548 226.347289 
L 206.137026 225.672556 
L 206.438573 226.461764 
L 206.740119 226.144563 
L 207.041665 227.372548 
L 207.343211 227.175798 
L 207.644758 228.188954 
L 207.946304 229.648839 
L 208.24785 228.486299 
L 208.549396 229.299683 
L 208.850943 224.033484 
L 209.152489 228.742543 
L 209.454035 230.69567 
L 209.755581 229.618977 
L 210.057128 229.88891 
L 210.358674 231.189074 
L 210.961766 232.87183 
L 211.263313 240.694231 
L 211.564859 232.506189 
L 212.167951 233.062821 
L 212.469497 226.155922 
L 212.771044 232.379258 
L 213.374136 235.620208 
L 213.675682 234.865202 
L 213.977229 236.315559 
L 214.278775 236.630634 
L 214.580321 237.751528 
L 214.881867 238.207831 
L 215.183414 233.175375 
L 215.48496 236.109429 
L 215.786506 237.863557 
L 216.088053 237.650496 
L 216.389599 235.68894 
L 216.691145 239.130271 
L 216.992691 240.16301 
L 217.294238 238.883678 
L 217.595784 240.078023 
L 217.89733 239.520109 
L 218.198876 241.02217 
L 218.500423 246.938332 
L 218.801969 240.748098 
L 219.103515 239.947392 
L 219.405061 238.052585 
L 219.706608 242.197044 
L 220.008154 241.840797 
L 220.3097 242.782544 
L 220.611246 240.725833 
L 220.912793 242.721179 
L 221.214339 243.128833 
L 221.515885 243.779026 
L 221.817431 237.29367 
L 222.118978 242.513962 
L 222.420524 242.123725 
L 222.72207 243.905117 
L 223.023616 244.902089 
L 223.325163 244.907201 
L 223.626709 243.303042 
L 223.928255 245.796852 
L 224.229801 245.464944 
L 224.531348 246.325109 
L 224.832894 243.759467 
L 225.435986 250.837145 
L 225.737533 246.014205 
L 226.039079 247.238961 
L 226.340625 245.510192 
L 226.642171 244.601784 
L 226.943717 247.929994 
L 227.54681 247.716274 
L 227.848356 248.419124 
L 228.149902 249.443041 
L 228.451449 249.191946 
L 228.752995 250.415671 
L 229.054541 248.545338 
L 229.356088 250.712404 
L 229.657634 251.639476 
L 229.95918 256.978591 
L 230.260726 250.663508 
L 230.562273 249.371767 
L 230.863819 237.144391 
L 231.466911 248.491905 
L 231.768458 247.969048 
L 232.070004 251.61034 
L 232.37155 253.050042 
L 232.673096 249.413629 
L 232.974643 253.702465 
L 233.577735 252.218814 
L 233.879281 253.600225 
L 234.180828 251.48122 
L 234.482374 250.878402 
L 234.78392 252.350056 
L 235.085466 246.51444 
L 235.387013 252.276255 
L 235.688559 251.225859 
L 235.990105 254.430936 
L 236.291651 252.779468 
L 236.593198 255.245417 
L 236.894744 253.030643 
L 237.19629 253.877592 
L 237.497836 250.045313 
L 237.799383 255.211366 
L 238.100929 255.101806 
L 238.402475 257.772901 
L 238.704021 264.039477 
L 239.005568 254.531198 
L 239.307114 256.331031 
L 239.60866 254.155947 
L 239.910206 256.512862 
L 240.513299 258.055491 
L 240.814845 257.702519 
L 241.116391 256.229368 
L 241.417937 259.023222 
L 241.719484 257.228639 
L 242.322576 251.182478 
L 242.624122 257.61946 
L 242.925669 259.331127 
L 243.227215 259.103651 
L 243.528761 257.573526 
L 243.830308 260.357456 
L 244.131854 259.91426 
L 244.4334 259.936247 
L 244.734946 260.171058 
L 245.036493 260.83677 
L 245.338039 260.79872 
L 245.639585 261.349786 
L 245.941131 254.353833 
L 246.242678 260.193576 
L 246.544224 260.191162 
L 246.84577 260.798582 
L 247.147316 258.875569 
L 247.448863 258.419967 
L 247.750409 262.479255 
L 248.051955 257.004224 
L 248.353501 262.174883 
L 248.655048 263.289258 
L 248.956594 261.85934 
L 249.559686 263.208071 
L 249.861233 263.704003 
L 250.162779 264.632134 
L 250.464325 268.469994 
L 250.765871 263.931993 
L 251.067418 265.18124 
L 251.368964 262.008784 
L 251.67051 262.65163 
L 251.972056 265.477254 
L 252.273603 266.611794 
L 252.575149 257.688465 
L 252.876695 262.765502 
L 253.178241 262.432459 
L 253.781334 267.285515 
L 254.08288 266.800924 
L 254.384426 267.895645 
L 254.685972 267.241798 
L 254.987519 267.529071 
L 255.289065 267.629726 
L 255.590611 268.783913 
L 255.892157 273.88999 
L 256.193704 261.132493 
L 256.49525 263.182565 
L 256.796796 268.433886 
L 257.098343 269.284252 
L 257.399889 268.693599 
L 257.701435 269.695033 
L 258.002981 261.585851 
L 258.304528 269.172535 
L 258.606074 270.310306 
L 258.90762 266.678159 
L 259.510713 270.923075 
L 259.812259 271.37164 
L 260.415351 270.921561 
L 260.716898 268.626669 
L 261.018444 272.317286 
L 261.31999 272.601187 
L 261.621536 270.09909 
L 261.923083 271.281127 
L 262.224629 273.51015 
L 262.526175 273.169705 
L 262.827721 273.895447 
L 263.129268 278.404622 
L 263.430814 268.253075 
L 263.73236 272.887942 
L 264.033906 265.997737 
L 264.335453 274.769137 
L 264.636999 274.058291 
L 264.938545 272.925519 
L 265.240091 269.576559 
L 265.541638 274.539473 
L 265.843184 275.894677 
L 266.14473 275.558284 
L 266.446276 273.605789 
L 266.747823 270.915176 
L 267.049369 276.937589 
L 267.350915 276.874818 
L 267.652461 278.831859 
L 267.954008 285.503709 
L 268.255554 278.938995 
L 268.5571 274.915889 
L 269.160192 278.706657 
L 269.461739 279.906287 
L 269.763285 270.940961 
L 270.064831 279.050297 
L 270.366377 275.378908 
L 270.96947 279.662802 
L 271.271016 279.784752 
L 271.572563 279.603683 
L 272.175655 281.632276 
L 272.477201 273.593499 
L 272.778748 280.318914 
L 273.080294 276.634007 
L 273.38184 280.843265 
L 273.683386 280.367859 
L 273.984933 280.407835 
L 274.588025 283.596476 
L 274.889571 278.21209 
L 275.191118 282.329672 
L 275.79421 284.516714 
L 276.095756 279.460729 
L 276.397303 284.455432 
L 276.698849 285.058893 
L 277.000395 276.922157 
L 277.603488 291.671807 
L 277.905034 285.923757 
L 278.20658 286.673107 
L 278.508126 286.768285 
L 278.809673 285.640493 
L 279.111219 286.624032 
L 279.412765 286.142279 
L 279.714311 287.405414 
L 280.015858 287.249138 
L 280.317404 282.753129 
L 280.61895 284.038889 
L 280.920496 288.035484 
L 281.222043 286.636419 
L 281.523589 289.003915 
L 281.825135 288.017934 
L 282.126681 287.932891 
L 282.428228 285.134005 
L 283.03132 290.255314 
L 283.332866 284.639769 
L 283.634412 289.795729 
L 283.935959 291.247256 
L 284.237505 282.567566 
L 284.539051 290.75653 
L 284.840598 291.258669 
L 285.142144 286.342133 
L 285.44369 291.302117 
L 285.745236 290.742556 
L 286.046783 292.29732 
L 286.348329 296.465756 
L 286.649875 293.158001 
L 286.951421 286.872525 
L 287.252968 292.839269 
L 287.554514 293.233081 
L 288.157606 295.175373 
L 288.459153 294.738405 
L 288.760699 295.448036 
L 289.062245 294.653957 
L 289.363791 296.053091 
L 289.665338 293.465931 
L 289.966884 296.553649 
L 290.26843 301.293228 
L 290.569976 296.814362 
L 290.871523 297.484888 
L 291.173069 288.447268 
L 291.474615 289.553738 
L 291.776161 296.926852 
L 292.077708 298.024525 
L 292.379254 293.52219 
L 292.6808 297.156188 
L 292.982346 298.393013 
L 293.283893 292.282496 
L 293.585439 298.90976 
L 293.886985 294.268177 
L 294.188531 295.946957 
L 294.490078 299.622759 
L 294.791624 297.904961 
L 295.394716 296.189505 
L 295.997809 300.145678 
L 296.600901 301.434584 
L 296.902447 305.27631 
L 297.203994 299.00911 
L 297.50554 303.096048 
L 297.807086 302.861605 
L 298.108632 297.485069 
L 298.410179 303.076824 
L 299.013271 303.889201 
L 299.314818 295.21964 
L 299.616364 303.526774 
L 299.91791 299.066081 
L 300.219456 302.978036 
L 300.822549 305.512971 
L 301.124095 310.157909 
L 301.425641 305.132763 
L 301.727188 304.810819 
L 302.33028 301.85548 
L 302.631826 305.619392 
L 302.933373 299.55882 
L 303.234919 305.572555 
L 303.838011 307.468508 
L 304.139558 306.845645 
L 304.441104 303.331586 
L 304.74265 306.761932 
L 305.044196 301.295372 
L 305.647289 306.859121 
L 305.948835 309.103099 
L 306.250381 300.045178 
L 306.551928 305.182743 
L 307.15502 308.791354 
L 307.456566 304.599579 
L 307.758113 308.508172 
L 308.059659 308.2908 
L 308.361205 312.083293 
L 308.662751 318.088568 
L 308.964298 310.188667 
L 309.265844 311.264952 
L 309.56739 308.362438 
L 310.170483 311.679898 
L 310.472029 312.427769 
L 310.773575 312.650099 
L 311.075121 313.237476 
L 311.376667 312.775179 
L 311.678214 304.160841 
L 311.97976 302.59671 
L 312.582853 311.591836 
L 312.884399 304.416042 
L 313.185945 310.240884 
L 313.487491 313.34431 
L 313.789038 314.57045 
L 314.090584 309.182307 
L 314.39213 313.283397 
L 314.693676 304.050035 
L 314.995223 313.361055 
L 315.296769 313.72415 
L 315.598315 312.564418 
L 315.899861 313.23024 
L 316.201408 310.057328 
L 316.502954 314.635157 
L 316.8045 314.827779 
L 317.106046 314.450792 
L 317.407593 312.378535 
L 317.709139 304.3958 
L 318.312231 315.849321 
L 318.613778 304.872344 
L 318.915324 307.677197 
L 319.518416 316.136823 
L 319.819963 317.826534 
L 320.121509 305.827059 
L 320.423055 315.196199 
L 321.026148 319.582487 
L 321.327694 324.662702 
L 321.62924 317.927279 
L 321.930786 317.901724 
L 322.232333 308.396801 
L 322.533879 319.445992 
L 322.835425 319.764352 
L 323.136971 316.318533 
L 323.438518 320.550073 
L 323.740064 318.097403 
L 324.04161 319.526366 
L 324.644703 309.719721 
L 324.946249 320.272882 
L 325.247795 320.893041 
L 325.549341 308.154869 
L 326.152434 321.206876 
L 326.45398 321.905087 
L 326.755526 323.152475 
L 327.057073 313.815602 
L 327.358619 311.628788 
L 327.961711 318.390191 
L 328.263258 315.311666 
L 328.86635 321.304273 
L 329.167896 312.561106 
L 329.469443 321.611476 
L 329.770989 323.152202 
L 330.072535 311.549838 
L 330.675628 320.846926 
L 330.977174 316.72233 
L 331.580266 324.087864 
L 331.881813 313.719294 
L 332.183359 322.901357 
L 332.484905 324.311557 
L 332.786451 324.685388 
L 333.087998 327.992369 
L 333.389544 324.855262 
L 333.992636 321.816665 
L 334.294183 326.027846 
L 334.595729 326.588128 
L 335.198821 316.161757 
L 335.500367 326.358552 
L 335.801914 319.558699 
L 336.10346 322.033753 
L 336.405006 327.870804 
L 336.706552 327.333189 
L 337.008099 327.506319 
L 337.309645 328.942253 
L 337.611191 333.541824 
L 338.214284 325.419334 
L 338.51583 325.898209 
L 338.817376 330.325699 
L 339.118922 326.07661 
L 339.420469 319.823813 
L 339.722015 329.222829 
L 340.023561 329.178972 
L 340.325108 325.544966 
L 340.626654 329.35583 
L 340.9282 330.916375 
L 341.229746 330.904692 
L 341.531293 332.136205 
L 342.134385 329.039101 
L 342.435931 327.987191 
L 342.737478 330.573155 
L 343.039024 334.190194 
L 343.34057 340.394557 
L 343.642116 334.382765 
L 343.943663 324.639376 
L 344.245209 335.427293 
L 344.546755 322.05732 
L 344.848301 333.324377 
L 345.149848 333.915516 
L 345.451394 329.432365 
L 345.75294 334.822589 
L 346.054486 332.593009 
L 346.356033 332.358067 
L 346.657579 333.55465 
L 346.959125 330.622431 
L 347.260671 338.107547 
L 347.562218 333.875152 
L 347.863764 338.327205 
L 348.16531 333.868011 
L 348.466856 326.46999 
L 348.768403 337.449674 
L 349.069949 336.7476 
L 349.371495 341.324712 
L 349.673041 348.991352 
L 349.974587 339.123752 
L 350.276134 340.900997 
L 350.57768 341.601573 
L 350.879226 333.075511 
L 351.180772 335.920922 
L 351.482319 340.868002 
L 351.783865 333.869233 
L 352.085411 333.492167 
L 352.386957 333.51584 
L 352.688504 341.976112 
L 352.99005 339.907099 
L 353.291596 342.180357 
L 353.593142 328.678399 
L 353.894689 343.502253 
L 354.196235 344.077961 
L 354.497781 342.109186 
L 354.799328 342.380121 
L 355.100874 340.443908 
L 355.40242 345.456967 
L 355.703966 330.044562 
L 356.005513 342.567732 
L 356.307059 345.120589 
L 356.608605 342.631491 
L 356.910151 342.54118 
L 357.211698 339.742156 
L 357.513244 344.33906 
L 357.81479 331.059203 
L 358.116336 345.394245 
L 358.417883 349.940469 
L 358.719429 338.950949 
L 359.020975 343.206914 
L 359.322521 343.96103 
L 359.925614 350.270732 
L 360.22716 356.362726 
L 360.528706 334.3061 
L 360.830253 349.238942 
L 361.131799 347.558243 
L 361.433345 348.007083 
L 361.734891 341.628987 
L 362.036438 350.128484 
L 362.337984 342.355014 
L 362.63953 343.144434 
L 362.941076 344.540967 
L 363.242623 352.774951 
L 363.845715 345.131547 
L 364.448807 354.663314 
L 364.750354 336.438516 
L 365.0519 354.01122 
L 365.353446 351.785028 
L 365.654992 355.205841 
L 365.956539 349.356353 
L 366.258085 337.579864 
L 366.559631 354.546553 
L 366.861177 355.048091 
L 367.162724 337.190563 
L 367.765816 354.637926 
L 368.067363 356.283369 
L 368.368909 355.291212 
L 368.670455 347.438648 
L 368.972001 353.620726 
L 369.273548 354.535262 
L 369.575094 352.900354 
L 370.479733 361.464263 
L 370.781279 358.131111 
L 371.082825 352.623865 
L 371.384371 356.104475 
L 371.685918 357.414356 
L 371.987464 359.639843 
L 372.28901 351.813391 
L 372.590556 361.095575 
L 372.892103 362.608317 
L 373.193649 367.598832 
L 373.495195 358.234138 
L 373.796741 358.75614 
L 374.098288 352.033715 
L 374.70138 363.045429 
L 375.002926 359.931414 
L 375.606019 365.954398 
L 375.907565 360.575314 
L 376.209111 357.901036 
L 376.510658 358.925053 
L 376.812204 355.307434 
L 377.11375 364.045129 
L 377.415296 364.562302 
L 377.716842 363.172341 
L 378.018389 360.532287 
L 378.319935 363.535342 
L 378.621481 365.059714 
L 378.923027 361.77123 
L 379.224574 367.036889 
L 379.52612 365.861926 
L 379.827666 362.782452 
L 380.129212 366.536326 
L 380.430759 359.391151 
L 380.732305 367.082893 
L 381.033851 366.382653 
L 381.335397 358.799829 
L 381.636944 358.188337 
L 381.93849 360.180266 
L 382.240036 359.497374 
L 382.541583 364.441065 
L 382.843129 363.735402 
L 383.144675 364.086083 
L 383.747768 368.26985 
L 384.049314 364.938845 
L 384.35086 371.220201 
L 384.652406 372.837908 
L 384.953953 367.121226 
L 385.255499 369.613575 
L 385.557045 370.016214 
L 385.858591 367.635815 
L 386.160138 356.210567 
L 386.461684 371.330093 
L 386.76323 372.883387 
L 387.064776 373.083406 
L 387.366323 356.623195 
L 387.667869 370.858609 
L 387.969415 365.673188 
L 388.270961 356.493787 
L 388.572508 364.531719 
L 388.874054 369.52761 
L 389.1756 365.196506 
L 389.477146 372.62348 
L 389.778693 371.704348 
L 390.080239 364.096248 
L 390.381785 370.576924 
L 390.984878 366.047472 
L 391.286424 375.860887 
L 391.58797 377.177457 
L 391.889516 361.632934 
L 392.191062 373.669166 
L 392.492609 372.822357 
L 392.794155 369.131168 
L 393.095701 372.692045 
L 393.397247 354.677633 
L 393.698794 368.606485 
L 394.00034 359.956234 
L 394.301886 368.392578 
L 394.603432 367.546949 
L 394.904979 377.480737 
L 395.206525 379.181779 
L 395.508071 362.837183 
L 395.809618 373.192868 
L 396.111164 373.37874 
L 396.41271 362.925728 
L 396.714256 369.984595 
L 397.015803 372.823466 
L 397.317349 378.753311 
L 397.618895 375.475355 
L 397.920441 376.045273 
L 398.221988 373.869212 
L 398.523534 375.420541 
L 398.82508 373.176797 
L 399.126626 372.193965 
L 399.428173 375.615681 
L 399.729719 377.163836 
L 400.031265 377.89349 
L 400.332811 376.462993 
L 400.634358 376.640253 
L 400.935904 372.048664 
L 401.23745 379.784793 
L 401.538996 377.67744 
L 401.840543 374.553621 
L 402.142089 373.360111 
L 402.443635 377.957524 
L 402.745181 375.387282 
L 403.046728 367.213894 
L 403.348274 377.308072 
L 403.951366 380.497815 
L 404.252913 376.263361 
L 404.554459 369.159547 
L 404.856005 379.609508 
L 405.157551 368.456438 
L 405.459097 378.827066 
L 405.760644 384.275094 
L 406.06219 386.325247 
L 406.966829 370.573933 
L 407.569921 378.451689 
L 407.871467 369.025455 
L 408.173014 376.712289 
L 408.47456 380.187248 
L 408.776106 385.059329 
L 409.077652 382.907364 
L 409.379199 386.066317 
L 409.680745 371.486468 
L 409.982291 381.961045 
L 410.283838 385.739858 
L 410.585384 384.669301 
L 410.88693 371.952202 
L 411.188476 384.267113 
L 411.490023 372.200673 
L 411.791569 378.418323 
L 412.093115 375.050773 
L 412.394661 373.154479 
L 412.696208 376.907651 
L 412.997754 378.753037 
L 413.2993 385.395528 
L 413.600846 385.239708 
L 413.902393 378.972856 
L 414.203939 387.072927 
L 414.505485 385.087879 
L 414.807031 374.841472 
L 415.108578 383.952955 
L 415.410124 385.351935 
L 415.71167 377.315588 
L 416.013216 382.369872 
L 416.314763 374.947758 
L 416.616309 384.56214 
L 416.917855 386.397626 
L 417.219401 377.023233 
L 417.520948 373.867382 
L 417.822494 381.939966 
L 418.12404 380.182992 
L 418.425586 379.103725 
L 419.028679 389.456754 
L 419.330225 388.844781 
L 419.631771 388.686319 
L 419.933317 384.887525 
L 420.234864 386.241537 
L 420.53641 386.111196 
L 420.837956 380.915601 
L 421.139502 383.547617 
L 421.441049 380.864589 
L 421.742595 380.453012 
L 422.044141 386.287455 
L 422.345687 381.077281 
L 422.647234 383.228277 
L 422.94878 379.537751 
L 423.250326 385.809626 
L 423.551873 387.077304 
L 423.853419 390.083777 
L 424.154965 386.740067 
L 424.456511 378.750967 
L 424.758058 384.875962 
L 425.059604 378.537139 
L 425.36115 385.182753 
L 425.662696 381.701763 
L 425.964243 389.807705 
L 426.265789 388.688797 
L 426.567335 383.418549 
L 426.868881 389.138459 
L 427.170428 381.767068 
L 427.471974 390.72429 
L 428.075066 380.939438 
L 428.376613 381.66218 
L 428.678159 388.317471 
L 428.979705 385.315125 
L 429.281251 388.183891 
L 429.582798 381.089612 
L 429.884344 395.435134 
L 430.18589 398.781685 
L 430.487436 384.257247 
L 430.788983 383.947807 
L 431.090529 381.228851 
L 431.392075 381.769567 
L 431.693621 381.897783 
L 431.995168 380.324098 
L 432.296714 387.616524 
L 432.59826 387.319816 
L 432.899806 383.973259 
L 433.201353 384.202195 
L 433.502899 383.443367 
L 433.804445 380.74819 
L 434.105991 387.945598 
L 434.407537 381.933656 
L 434.709084 387.965025 
L 435.312176 392.160776 
L 435.613722 386.512078 
L 435.915269 390.658448 
L 436.518361 384.537279 
L 436.819907 383.994489 
L 437.121454 387.985944 
L 437.423 384.878329 
L 437.724546 388.024751 
L 438.026093 383.330396 
L 438.327639 389.277497 
L 438.629185 384.490767 
L 438.930731 382.68043 
L 439.232278 389.180024 
L 439.533824 380.845591 
L 439.83537 389.619528 
L 440.136916 390.880934 
L 440.438463 384.783151 
L 440.740009 384.909954 
L 441.041555 387.799798 
L 441.343101 395.179829 
L 441.644648 384.859941 
L 441.946194 389.712935 
L 442.24774 390.213342 
L 442.549286 383.986527 
L 442.850833 389.938982 
L 443.152379 389.305654 
L 443.453925 385.253405 
L 443.755471 394.939152 
L 444.057018 395.076986 
L 444.358564 394.435237 
L 444.66011 386.212721 
L 444.961656 392.356491 
L 445.263203 384.783989 
L 445.564749 390.551376 
L 445.866295 393.195072 
L 446.167841 393.342825 
L 446.469388 395.460037 
L 446.770934 390.546992 
L 447.07248 391.602991 
L 447.374026 390.296074 
L 447.675572 387.731487 
L 447.977119 391.443515 
L 448.278665 392.855883 
L 448.580211 389.526171 
L 448.881757 396.2138 
L 449.183304 389.347719 
L 449.48485 389.719523 
L 449.786396 393.619755 
L 450.087942 388.792127 
L 450.389489 388.079567 
L 450.691035 395.988677 
L 450.992581 387.475841 
L 451.294128 392.598847 
L 451.595674 390.211816 
L 451.89722 396.319928 
L 452.198766 396.284942 
L 452.500313 390.436592 
L 452.801859 389.728202 
L 453.103405 387.307259 
L 453.404951 393.08254 
L 453.706498 391.960644 
L 454.008044 395.943943 
L 454.30959 397.537908 
L 454.611136 396.328556 
L 454.912683 389.135857 
L 455.214229 393.751032 
L 455.515775 392.520043 
L 455.817321 395.451442 
L 456.118868 395.19256 
L 456.420414 390.098123 
L 456.72196 392.102411 
L 457.023506 396.329517 
L 457.325053 388.262591 
L 457.626599 394.315674 
L 458.229691 397.920912 
L 458.832784 391.325258 
L 459.13433 398.801506 
L 459.435876 397.246327 
L 459.737423 394.919985 
L 460.038969 397.331146 
L 460.340515 398.075662 
L 460.642061 392.492234 
L 460.943608 394.203369 
L 461.245154 388.895624 
L 461.5467 395.409053 
L 461.848246 395.790263 
L 462.149792 394.558446 
L 462.451339 395.817485 
L 462.752885 399.416684 
L 463.054431 396.640405 
L 463.355977 400.076441 
L 463.95907 396.598708 
L 464.260616 399.644181 
L 464.562162 394.247035 
L 464.863709 397.185789 
L 465.165255 399.001321 
L 465.768348 395.395292 
L 466.069894 400.489012 
L 466.37144 397.749588 
L 466.672986 398.217737 
L 466.974533 394.5949 
L 467.276079 395.376253 
L 467.577625 402.418543 
L 467.879171 403.004301 
L 468.180718 397.63983 
L 468.482264 402.8791 
L 468.78381 396.946073 
L 469.085356 400.787559 
L 469.386903 399.093973 
L 469.688449 402.716308 
L 469.989995 395.949173 
L 470.291541 397.277638 
L 470.593088 395.454085 
L 470.894634 402.616212 
L 471.19618 402.595083 
L 471.497726 396.204017 
L 471.799273 396.042921 
L 472.100819 396.043707 
L 472.402365 402.879012 
L 472.703911 402.001446 
L 473.005458 402.283496 
L 473.307004 401.950964 
L 473.60855 397.189691 
L 473.910096 397.843415 
L 474.211643 401.958592 
L 474.513189 403.14378 
L 474.814735 401.060756 
L 475.116281 397.51652 
L 475.417828 404.715821 
L 475.719374 404.820981 
L 476.02092 399.21459 
L 476.322466 399.516358 
L 476.624012 397.172464 
L 477.227105 402.187418 
L 477.528651 397.520198 
L 477.830197 396.450541 
L 478.131744 402.835521 
L 478.43329 399.201278 
L 478.734836 404.80955 
L 479.036383 404.031506 
L 479.337929 405.062612 
L 479.639475 402.933935 
L 479.941021 404.162185 
L 480.242568 405.919293 
L 480.544114 404.412228 
L 480.84566 397.966631 
L 481.147206 402.84937 
L 481.448753 403.295095 
L 481.750299 402.239496 
L 482.051845 399.450117 
L 482.353391 400.996582 
L 482.654938 401.832547 
L 482.956484 402.230648 
L 483.25803 406.778554 
L 483.559576 405.100215 
L 483.861123 401.760773 
L 484.162669 400.439084 
L 484.464215 409.321595 
L 484.765761 411.547575 
L 485.067308 405.042623 
L 485.368854 402.459615 
L 485.6704 408.524223 
L 485.971946 401.069531 
L 486.273493 407.117848 
L 486.575039 406.696963 
L 486.876585 408.225203 
L 487.178131 408.305771 
L 487.479678 404.7855 
L 487.781224 405.594702 
L 488.08277 404.591642 
L 488.384316 406.081201 
L 488.685863 409.316539 
L 488.987409 402.245907 
L 489.288955 403.960891 
L 489.590501 409.02144 
L 489.892047 405.501085 
L 490.193594 408.564155 
L 490.49514 402.071223 
L 490.796686 409.23464 
L 491.098232 409.670913 
L 491.399779 404.983808 
L 491.701325 403.045294 
L 492.002871 404.795225 
L 492.304417 404.33318 
L 492.605964 405.134649 
L 492.90751 411.306977 
L 493.209056 409.374589 
L 493.510603 403.224586 
L 493.812149 409.642876 
L 494.113695 407.029433 
L 494.415241 408.802636 
L 494.716788 404.121636 
L 495.018334 412.921141 
L 495.31988 414.062114 
L 495.621426 408.147913 
L 495.922973 412.371123 
L 496.224519 414.038633 
L 496.827611 411.060901 
L 497.129158 411.806001 
L 497.73225 418.615151 
L 498.033796 414.642402 
L 498.335343 407.194315 
L 498.636889 406.513388 
L 498.938435 412.049472 
L 499.239981 407.020308 
L 499.541528 411.164027 
L 499.843074 407.47568 
L 500.14462 414.852761 
L 500.446166 407.422756 
L 500.747713 411.939623 
L 501.049259 411.216296 
L 501.350805 411.166535 
L 501.652351 412.71501 
L 501.953898 412.494874 
L 502.255444 418.380578 
L 502.858536 409.871281 
L 503.461629 417.619768 
L 503.763175 414.350522 
L 504.064721 412.662815 
L 504.667814 418.863612 
L 504.96936 419.2535 
L 505.270906 414.171888 
L 505.572452 411.219651 
L 505.873999 416.557554 
L 506.175545 418.541654 
L 506.477091 412.135546 
L 507.080184 418.454045 
L 507.38173 412.339284 
L 507.683276 412.926489 
L 507.984823 409.95071 
L 508.286369 416.228477 
L 508.889461 418.18558 
L 509.191008 422.06311 
L 509.492554 423.90076 
L 509.7941 421.026382 
L 510.095646 416.429937 
L 510.397193 421.55301 
L 510.698739 421.926343 
L 511.000285 420.865064 
L 511.301831 422.842305 
L 511.603378 419.804057 
L 511.904924 421.466937 
L 512.20647 417.549528 
L 512.508016 415.394504 
L 512.809563 422.596282 
L 513.111109 418.800981 
L 513.412655 420.751803 
L 513.714201 421.213679 
L 514.015748 418.189126 
L 514.317294 425.350672 
L 514.61884 424.965513 
L 514.920386 418.796018 
L 515.221933 420.915009 
L 515.523479 424.23464 
L 515.825025 425.641287 
L 516.126571 424.89017 
L 516.428118 417.496633 
L 516.729664 425.707032 
L 517.03121 424.045888 
L 517.332756 416.484818 
L 517.634303 428.264727 
L 517.935849 430.521737 
L 518.237395 424.147965 
L 518.538941 423.106529 
L 518.840487 424.268944 
L 519.142034 419.242664 
L 519.44358 424.02284 
L 520.046672 429.549032 
L 520.348219 423.875604 
L 520.649765 425.851624 
L 520.951311 422.220342 
L 521.252858 430.603132 
L 521.554404 429.937153 
L 521.85595 425.112066 
L 522.157496 427.271993 
L 522.459043 420.925728 
L 522.760589 425.232571 
L 523.062135 426.188837 
L 523.363681 427.681975 
L 523.665228 421.869693 
L 523.966774 428.540757 
L 524.26832 429.68874 
L 524.569866 424.417987 
L 524.871413 424.590301 
L 525.172959 429.739354 
L 525.474505 429.69734 
L 525.776051 423.015444 
L 526.077598 431.039017 
L 526.379144 426.727877 
L 526.68069 429.974317 
L 526.982236 430.096453 
L 527.283783 432.716135 
L 527.585329 430.248281 
L 527.886875 423.985313 
L 528.489968 429.598531 
L 528.791514 429.761697 
L 529.09306 432.528814 
L 529.394606 429.622118 
L 529.696153 432.500522 
L 530.299245 426.785051 
L 530.600791 432.35462 
L 530.902338 431.995066 
L 531.203884 433.47773 
L 531.50543 426.737338 
L 531.806976 432.605677 
L 532.108523 426.21452 
L 532.410069 434.245513 
L 532.711615 428.082602 
L 533.013161 432.17087 
L 533.314708 434.618073 
L 533.616254 429.277542 
L 533.9178 434.141948 
L 534.219346 428.761123 
L 534.822439 432.601668 
L 535.425531 428.844777 
L 535.727078 433.886345 
L 536.028624 435.139748 
L 536.33017 428.567937 
L 536.631716 435.090945 
L 536.933263 437.214083 
L 537.536355 429.45317 
L 538.139448 438.273721 
L 538.440994 435.962478 
L 538.74254 436.223375 
L 539.044086 440.713352 
L 539.345633 441.005413 
L 539.647179 435.253843 
L 539.948725 437.427358 
L 540.250271 433.993052 
L 540.551818 437.693534 
L 540.853364 431.93116 
L 541.15491 437.278197 
L 541.456456 437.106501 
L 541.758003 432.306172 
L 542.361095 436.613103 
L 542.662641 438.894178 
L 542.964188 431.107387 
L 543.265734 429.147065 
L 543.56728 435.678496 
L 543.868826 430.50479 
L 544.471919 440.902418 
L 544.773465 431.749507 
L 545.075011 438.987565 
L 545.376558 435.031015 
L 545.97965 443.303284 
L 546.281196 442.387692 
L 546.582742 434.356147 
L 546.884289 441.435773 
L 547.185835 441.991202 
L 547.487381 431.077641 
L 547.788927 434.769093 
L 548.090474 440.744257 
L 548.693566 436.981091 
L 548.995113 444.847719 
L 549.296659 443.767096 
L 549.598205 432.633462 
L 549.899751 435.947449 
L 550.201298 436.408895 
L 550.502844 431.61019 
L 550.80439 438.442144 
L 551.105936 441.408043 
L 551.407483 433.055404 
L 551.709029 435.1751 
L 552.010575 443.266902 
L 552.312121 444.381555 
L 552.613668 437.761835 
L 552.915214 438.944894 
L 553.21676 444.285525 
L 553.518306 431.115374 
L 553.819853 439.796277 
L 554.121399 441.171336 
L 554.422945 435.782081 
L 555.026038 443.018799 
L 555.327584 438.646428 
L 555.62913 440.23735 
L 555.930676 446.728487 
L 556.232223 445.304873 
L 556.533769 445.668855 
L 556.835315 440.505477 
L 557.136861 444.261772 
L 557.438408 438.314019 
L 557.739954 441.786812 
L 558.0415 441.571404 
L 558.343046 449.075255 
L 558.644593 449.855409 
L 558.946139 446.020603 
L 559.247685 437.358928 
L 559.549231 445.820456 
L 559.850778 448.9825 
L 560.152324 439.945459 
L 560.45387 441.763211 
L 560.755416 442.730318 
L 561.056963 440.572842 
L 561.358509 444.50458 
L 561.660055 444.430194 
L 562.263148 440.570915 
L 562.564694 447.341333 
L 562.86624 448.294385 
L 563.167786 438.580206 
L 563.469333 449.195271 
L 564.072425 444.219317 
L 564.373971 443.562789 
L 564.675518 441.111773 
L 564.977064 449.713359 
L 565.580156 439.045386 
L 565.881703 445.355364 
L 566.183249 448.361584 
L 566.484795 443.82442 
L 566.786341 447.225418 
L 567.087888 440.407993 
L 567.389434 444.320113 
L 567.69098 450.375068 
L 567.992526 444.399832 
L 568.294073 450.788549 
L 568.595619 444.500987 
L 568.897165 443.579978 
L 569.198711 446.359983 
L 569.500258 440.128938 
L 569.801804 446.88896 
L 570.10335 442.184344 
L 570.404896 442.944511 
L 570.706443 444.324666 
L 571.007989 449.943097 
L 571.309535 452.117718 
L 571.611081 448.162245 
L 571.912628 449.287412 
L 572.214174 443.092055 
L 572.51572 449.461074 
L 572.817266 449.902087 
L 573.118813 449.991875 
L 573.420359 444.882726 
L 573.721905 447.151377 
L 574.023451 446.794599 
L 574.324997 448.791837 
L 574.626544 441.575991 
L 574.92809 448.831451 
L 575.229636 450.696871 
L 575.531182 446.949453 
L 575.832729 446.505575 
L 576.134275 452.957946 
L 576.737368 444.295317 
L 577.038914 456.102673 
L 577.34046 456.626992 
L 577.642006 456.248543 
L 577.943553 447.309717 
L 578.245099 447.316738 
L 578.546645 448.844507 
L 578.848191 444.405637 
L 579.149738 453.410357 
L 579.451284 451.994515 
L 579.75283 447.023543 
L 580.355923 447.69986 
L 580.657469 453.335893 
L 580.959015 446.518346 
L 581.260561 451.718643 
L 581.562108 451.567331 
L 581.863654 452.675763 
L 582.1652 457.327627 
L 582.466746 455.221385 
L 582.768293 449.837815 
L 583.069839 451.462468 
L 583.371385 457.141806 
L 583.672931 453.00494 
L 583.974478 456.94757 
L 584.276024 453.238394 
L 584.57757 452.212687 
L 584.879116 449.30263 
L 585.482209 455.80853 
L 585.783755 448.572672 
L 586.085301 459.340569 
L 586.386848 457.960771 
L 586.688394 451.027702 
L 586.98994 450.23382 
L 587.291486 454.118342 
L 587.593033 455.029414 
L 587.894579 449.908722 
L 588.497671 456.411245 
L 588.799218 450.900109 
L 589.100764 450.184319 
L 589.40231 458.526576 
L 589.703856 455.732035 
L 590.005403 448.323393 
L 590.306949 454.847859 
L 590.608495 453.558343 
L 590.910041 460.346775 
L 591.211588 457.92606 
L 591.513134 452.732933 
L 591.81468 458.222438 
L 592.116226 459.765913 
L 592.719319 453.012705 
L 593.020865 454.975392 
L 593.322411 458.103661 
L 593.623958 453.839945 
L 593.925504 454.67705 
L 594.22705 457.209728 
L 594.528596 451.317064 
L 594.830143 460.304127 
L 595.131689 458.102907 
L 595.433235 451.580678 
L 595.734781 453.052846 
L 596.036327 458.921219 
L 596.63942 460.855974 
L 596.940966 454.188813 
L 597.242512 452.822125 
L 597.544059 453.903563 
L 597.845605 452.701558 
L 598.147151 457.586099 
L 598.448697 455.687337 
L 598.750244 451.231621 
L 599.05179 458.131133 
L 599.353336 455.408417 
L 599.654882 459.635283 
L 599.956429 460.671348 
L 600.257975 457.490598 
L 600.559521 458.976359 
L 600.861067 453.343095 
L 601.162614 454.686492 
L 601.46416 453.105386 
L 601.765706 463.462068 
L 602.368799 457.096415 
L 602.670345 455.124491 
L 602.971891 455.240265 
L 603.273438 453.610825 
L 604.178076 461.73605 
L 604.479623 452.822802 
L 604.781169 459.529332 
L 605.082715 463.157928 
L 605.685808 454.540071 
L 605.987354 458.063758 
L 606.2889 458.722851 
L 606.590446 453.883976 
L 606.891993 460.015706 
L 607.193539 458.89273 
L 607.495085 453.301792 
L 607.796631 460.574906 
L 608.098178 455.848142 
L 608.399724 456.135029 
L 608.70127 463.967172 
L 609.002816 459.350337 
L 609.304363 460.446353 
L 609.605909 460.12855 
L 610.209001 456.878497 
L 610.510548 458.296733 
L 610.812094 457.216503 
L 611.11364 462.639475 
L 611.415186 463.346771 
L 611.716733 456.174325 
L 612.018279 460.027575 
L 612.319825 457.239492 
L 612.621371 455.89584 
L 613.224464 465.430055 
L 613.52601 462.050086 
L 613.827556 456.199737 
L 614.129103 461.713479 
L 614.430649 461.268372 
L 615.033741 458.284459 
L 615.335288 464.38098 
L 615.636834 457.424943 
L 615.93838 464.3176 
L 616.239926 461.622516 
L 616.541473 457.470299 
L 616.843019 457.405019 
L 617.144565 465.137278 
L 617.446111 457.587415 
L 617.747658 457.6985 
L 618.049204 457.6228 
L 618.35075 459.552369 
L 618.652296 460.403067 
L 618.953843 457.036094 
L 619.255389 462.770593 
L 619.556935 458.163653 
L 619.858481 458.12419 
L 620.160028 457.806873 
L 620.461574 462.888414 
L 620.76312 460.658633 
L 621.064666 462.976052 
L 621.366213 457.482904 
L 621.667759 463.11239 
L 621.969305 465.1936 
L 622.270851 457.981765 
L 622.572398 463.082201 
L 622.873944 464.367239 
L 623.17549 457.950908 
L 623.477036 463.264399 
L 623.778582 458.04261 
L 624.080129 463.254191 
L 624.381675 461.332367 
L 624.683221 460.721464 
L 624.984767 463.353795 
L 625.286314 459.786391 
L 625.58786 458.806094 
L 625.889406 463.537115 
L 626.190952 463.378642 
L 626.492499 461.906863 
L 626.794045 466.018458 
L 627.095591 461.167023 
L 627.397137 467.176807 
L 627.698684 464.340408 
L 628.00023 459.31648 
L 628.301776 463.969553 
L 628.603322 459.43867 
L 628.904869 464.163673 
L 629.206415 461.710114 
L 629.507961 461.415064 
L 629.809507 463.968153 
L 630.111054 460.236705 
L 630.4126 467.770956 
L 630.714146 465.400044 
L 631.015693 461.853506 
L 631.317239 463.687632 
L 631.618785 459.903084 
L 631.920331 464.547975 
L 632.221878 460.291234 
L 632.523424 464.581633 
L 632.82497 465.777166 
L 633.126516 464.893164 
L 633.428063 461.561441 
L 633.729609 461.535985 
L 634.031155 467.576129 
L 634.332701 462.21465 
L 634.634248 464.767919 
L 634.935794 463.315944 
L 635.23734 465.8807 
L 635.840433 460.910713 
L 636.141979 465.428509 
L 636.443525 461.015849 
L 636.745071 465.429035 
L 637.046618 461.516801 
L 637.348164 465.447456 
L 637.64971 460.619736 
L 637.951256 465.526134 
L 638.252803 467.230375 
L 638.554349 462.515864 
L 638.855895 462.985569 
L 639.157441 468.508713 
L 639.760534 464.112146 
L 640.06208 463.211515 
L 640.363626 461.542317 
L 640.665173 465.866106 
L 640.966719 462.151434 
L 641.268265 465.870823 
L 641.569811 462.279208 
L 641.871358 466.004014 
L 642.172904 464.560061 
L 642.47445 467.828093 
L 642.775996 468.3341 
L 643.077543 463.799102 
L 643.379089 462.556668 
L 643.680635 466.378338 
L 643.982181 468.637251 
L 644.283728 466.533325 
L 644.585274 467.985135 
L 645.188366 463.514907 
L 645.489913 468.199849 
L 645.791459 468.150611 
L 646.093005 463.451003 
L 646.394551 465.597138 
L 646.696098 465.029175 
L 646.997644 464.192767 
L 647.29919 464.108637 
L 647.600736 467.549097 
L 647.902283 464.090464 
L 648.203829 469.714562 
L 648.505375 468.183968 
L 648.806921 463.658746 
L 649.108468 467.075648 
L 649.410014 464.536791 
L 649.71156 465.156811 
L 650.013106 467.909188 
L 650.314653 464.641569 
L 650.616199 468.441558 
L 650.917745 464.381828 
L 651.520837 464.79951 
L 651.822384 468.656953 
L 652.12393 464.051273 
L 652.425476 467.45967 
L 652.727022 467.566742 
L 653.028569 464.42961 
L 653.330115 467.32099 
L 653.631661 464.355219 
L 653.933207 467.619363 
L 654.234754 464.578811 
L 654.5363 464.641054 
L 654.837846 464.546355 
L 655.440939 469.819133 
L 656.044031 466.263733 
L 656.345577 465.083639 
L 656.647124 469.457934 
L 656.94867 464.920446 
L 657.250216 465.701022 
L 657.551762 465.336074 
L 657.853309 465.985808 
L 658.154855 467.132565 
L 658.456401 465.349983 
L 658.757948 465.761706 
L 659.059494 464.592189 
L 659.36104 468.15977 
L 659.662586 467.463927 
L 659.964133 465.286487 
L 660.265679 467.305631 
L 660.567225 465.0836 
L 660.868771 468.235742 
L 661.170318 464.518718 
L 661.471864 468.311894 
L 661.77341 464.96647 
L 662.074956 468.282784 
L 662.376503 469.679586 
L 662.678049 469.619331 
L 662.979595 469.222973 
L 663.281141 469.975515 
L 663.582688 466.816906 
L 663.884234 466.946943 
L 664.18578 469.417738 
L 664.487326 466.779409 
L 665.090419 465.711202 
L 665.391965 468.706055 
L 665.693511 467.534693 
L 665.995058 470.203643 
L 666.296604 467.050167 
L 666.59815 470.869449 
L 667.201243 466.981963 
L 667.502789 466.799941 
L 667.804335 471.012739 
L 668.105881 468.971455 
L 668.407428 470.696074 
L 668.708974 465.790422 
L 669.01052 469.132382 
L 669.312066 466.641959 
L 669.613613 471.048978 
L 670.216705 466.577943 
L 670.518251 469.356491 
L 670.819798 467.142581 
L 671.121344 466.938029 
L 671.42289 469.448303 
L 671.724436 466.874413 
L 672.025983 469.459987 
L 672.327529 466.718084 
L 672.930621 471.311981 
L 673.232168 470.065715 
L 673.533714 467.241863 
L 673.83526 467.090726 
L 674.136806 469.557864 
L 674.438353 469.315974 
L 674.739899 469.85265 
L 675.041445 467.205537 
L 675.342991 469.667597 
L 675.644538 467.415542 
L 675.946084 468.168454 
L 676.24763 467.449607 
L 676.549176 469.725967 
L 676.850723 470.985149 
L 677.152269 468.006658 
L 677.453815 466.561778 
L 677.755361 469.917577 
L 678.358454 467.633515 
L 678.961546 470.911832 
L 678.961546 470.911832 
" style="fill:none;stroke:#d62728;stroke-linecap:square;stroke-width:3;"/>
   </g>
   <g id="line2d_20">
    <path clip-path="url(#p8c8c05898d)" d="M 75.5675 485.284134 
L 678.66 485.284134 
" style="fill:none;stroke:#000000;stroke-dasharray:7.4,3.2;stroke-dashoffset:0;stroke-width:2;"/>
   </g>
   <g id="patch_3">
    <path d="M 75.5675 507.745 
L 75.5675 10.8 
" style="fill:none;stroke:#000000;stroke-linecap:square;stroke-linejoin:miter;stroke-width:0.8;"/>
   </g>
   <g id="patch_4">
    <path d="M 678.66 507.745 
L 678.66 10.8 
" style="fill:none;stroke:#000000;stroke-linecap:square;stroke-linejoin:miter;stroke-width:0.8;"/>
   </g>
   <g id="patch_5">
    <path d="M 75.5675 507.745 
L 678.66 507.745 
" style="fill:none;stroke:#000000;stroke-linecap:square;stroke-linejoin:miter;stroke-width:0.8;"/>
   </g>
   <g id="patch_6">
    <path d="M 75.5675 10.8 
L 678.66 10.8 
" style="fill:none;stroke:#000000;stroke-linecap:square;stroke-linejoin:miter;stroke-width:0.8;"/>
   </g>
   <g id="legend_1">
    <g id="patch_7">
     <path d="M 409.7775 206.1375 
L 661.86 206.1375 
Q 666.66 206.1375 666.66 201.3375 
L 666.66 27.6 
Q 666.66 22.8 661.86 22.8 
L 409.7775 22.8 
Q 404.9775 22.8 404.9775 27.6 
L 404.9775 201.3375 
Q 404.9775 206.1375 409.7775 206.1375 
z
" style="fill:#ffffff;opacity:0.8;stroke:#cccccc;stroke-linejoin:miter;"/>
    </g>
    <g id="line2d_21">
     <path d="M 414.5775 42.23625 
L 462.5775 42.23625 
" style="fill:none;stroke:#1f77b4;stroke-linecap:square;stroke-width:3;"/>
    </g>
    <g id="line2d_22"/>
    <g id="text_18">
     <!-- COBYLA -->
     <g transform="translate(481.7775 50.63625)scale(0.24 -0.24)">
      <defs>
       <path d="M 4122 4306 
L 4122 3641 
Q 3803 3938 3442 4084 
Q 3081 4231 2675 4231 
Q 1875 4231 1450 3742 
Q 1025 3253 1025 2328 
Q 1025 1406 1450 917 
Q 1875 428 2675 428 
Q 3081 428 3442 575 
Q 3803 722 4122 1019 
L 4122 359 
Q 3791 134 3420 21 
Q 3050 -91 2638 -91 
Q 1578 -91 968 557 
Q 359 1206 359 2328 
Q 359 3453 968 4101 
Q 1578 4750 2638 4750 
Q 3056 4750 3426 4639 
Q 3797 4528 4122 4306 
z
" id="DejaVuSans-43" transform="scale(0.015625)"/>
       <path d="M 2522 4238 
Q 1834 4238 1429 3725 
Q 1025 3213 1025 2328 
Q 1025 1447 1429 934 
Q 1834 422 2522 422 
Q 3209 422 3611 934 
Q 4013 1447 4013 2328 
Q 4013 3213 3611 3725 
Q 3209 4238 2522 4238 
z
M 2522 4750 
Q 3503 4750 4090 4092 
Q 4678 3434 4678 2328 
Q 4678 1225 4090 567 
Q 3503 -91 2522 -91 
Q 1538 -91 948 565 
Q 359 1222 359 2328 
Q 359 3434 948 4092 
Q 1538 4750 2522 4750 
z
" id="DejaVuSans-4f" transform="scale(0.015625)"/>
       <path d="M 1259 2228 
L 1259 519 
L 2272 519 
Q 2781 519 3026 730 
Q 3272 941 3272 1375 
Q 3272 1813 3026 2020 
Q 2781 2228 2272 2228 
L 1259 2228 
z
M 1259 4147 
L 1259 2741 
L 2194 2741 
Q 2656 2741 2882 2914 
Q 3109 3088 3109 3444 
Q 3109 3797 2882 3972 
Q 2656 4147 2194 4147 
L 1259 4147 
z
M 628 4666 
L 2241 4666 
Q 2963 4666 3353 4366 
Q 3744 4066 3744 3513 
Q 3744 3084 3544 2831 
Q 3344 2578 2956 2516 
Q 3422 2416 3680 2098 
Q 3938 1781 3938 1306 
Q 3938 681 3513 340 
Q 3088 0 2303 0 
L 628 0 
L 628 4666 
z
" id="DejaVuSans-42" transform="scale(0.015625)"/>
       <path d="M -13 4666 
L 666 4666 
L 1959 2747 
L 3244 4666 
L 3922 4666 
L 2272 2222 
L 2272 0 
L 1638 0 
L 1638 2222 
L -13 4666 
z
" id="DejaVuSans-59" transform="scale(0.015625)"/>
       <path d="M 628 4666 
L 1259 4666 
L 1259 531 
L 3531 531 
L 3531 0 
L 628 0 
L 628 4666 
z
" id="DejaVuSans-4c" transform="scale(0.015625)"/>
       <path d="M 2188 4044 
L 1331 1722 
L 3047 1722 
L 2188 4044 
z
M 1831 4666 
L 2547 4666 
L 4325 0 
L 3669 0 
L 3244 1197 
L 1141 1197 
L 716 0 
L 50 0 
L 1831 4666 
z
" id="DejaVuSans-41" transform="scale(0.015625)"/>
      </defs>
      <use xlink:href="#DejaVuSans-43"/>
      <use x="69.824219" xlink:href="#DejaVuSans-4f"/>
      <use x="148.535156" xlink:href="#DejaVuSans-42"/>
      <use x="211.638672" xlink:href="#DejaVuSans-59"/>
      <use x="272.722656" xlink:href="#DejaVuSans-4c"/>
      <use x="330.685547" xlink:href="#DejaVuSans-41"/>
     </g>
    </g>
    <g id="line2d_23">
     <path d="M 414.5775 77.46375 
L 462.5775 77.46375 
" style="fill:none;stroke:#ff7f0e;stroke-linecap:square;stroke-width:3;"/>
    </g>
    <g id="line2d_24"/>
    <g id="text_19">
     <!-- SLSQP -->
     <g transform="translate(481.7775 85.86375)scale(0.24 -0.24)">
      <defs>
       <path d="M 3425 4513 
L 3425 3897 
Q 3066 4069 2747 4153 
Q 2428 4238 2131 4238 
Q 1616 4238 1336 4038 
Q 1056 3838 1056 3469 
Q 1056 3159 1242 3001 
Q 1428 2844 1947 2747 
L 2328 2669 
Q 3034 2534 3370 2195 
Q 3706 1856 3706 1288 
Q 3706 609 3251 259 
Q 2797 -91 1919 -91 
Q 1588 -91 1214 -16 
Q 841 59 441 206 
L 441 856 
Q 825 641 1194 531 
Q 1563 422 1919 422 
Q 2459 422 2753 634 
Q 3047 847 3047 1241 
Q 3047 1584 2836 1778 
Q 2625 1972 2144 2069 
L 1759 2144 
Q 1053 2284 737 2584 
Q 422 2884 422 3419 
Q 422 4038 858 4394 
Q 1294 4750 2059 4750 
Q 2388 4750 2728 4690 
Q 3069 4631 3425 4513 
z
" id="DejaVuSans-53" transform="scale(0.015625)"/>
       <path d="M 1259 4147 
L 1259 2394 
L 2053 2394 
Q 2494 2394 2734 2622 
Q 2975 2850 2975 3272 
Q 2975 3691 2734 3919 
Q 2494 4147 2053 4147 
L 1259 4147 
z
M 628 4666 
L 2053 4666 
Q 2838 4666 3239 4311 
Q 3641 3956 3641 3272 
Q 3641 2581 3239 2228 
Q 2838 1875 2053 1875 
L 1259 1875 
L 1259 0 
L 628 0 
L 628 4666 
z
" id="DejaVuSans-50" transform="scale(0.015625)"/>
      </defs>
      <use xlink:href="#DejaVuSans-53"/>
      <use x="63.476562" xlink:href="#DejaVuSans-4c"/>
      <use x="119.189453" xlink:href="#DejaVuSans-53"/>
      <use x="182.666016" xlink:href="#DejaVuSans-51"/>
      <use x="261.376953" xlink:href="#DejaVuSans-50"/>
     </g>
    </g>
    <g id="line2d_25">
     <path d="M 414.5775 112.69125 
L 462.5775 112.69125 
" style="fill:none;stroke:#2ca02c;stroke-linecap:square;stroke-width:3;"/>
    </g>
    <g id="line2d_26"/>
    <g id="text_20">
     <!-- L-BFGS-B -->
     <g transform="translate(481.7775 121.09125)scale(0.24 -0.24)">
      <defs>
       <path d="M 313 2009 
L 1997 2009 
L 1997 1497 
L 313 1497 
L 313 2009 
z
" id="DejaVuSans-2d" transform="scale(0.015625)"/>
       <path d="M 628 4666 
L 3309 4666 
L 3309 4134 
L 1259 4134 
L 1259 2759 
L 3109 2759 
L 3109 2228 
L 1259 2228 
L 1259 0 
L 628 0 
L 628 4666 
z
" id="DejaVuSans-46" transform="scale(0.015625)"/>
       <path d="M 3809 666 
L 3809 1919 
L 2778 1919 
L 2778 2438 
L 4434 2438 
L 4434 434 
Q 4069 175 3628 42 
Q 3188 -91 2688 -91 
Q 1594 -91 976 548 
Q 359 1188 359 2328 
Q 359 3472 976 4111 
Q 1594 4750 2688 4750 
Q 3144 4750 3555 4637 
Q 3966 4525 4313 4306 
L 4313 3634 
Q 3963 3931 3569 4081 
Q 3175 4231 2741 4231 
Q 1884 4231 1454 3753 
Q 1025 3275 1025 2328 
Q 1025 1384 1454 906 
Q 1884 428 2741 428 
Q 3075 428 3337 486 
Q 3600 544 3809 666 
z
" id="DejaVuSans-47" transform="scale(0.015625)"/>
      </defs>
      <use xlink:href="#DejaVuSans-4c"/>
      <use x="53.962891" xlink:href="#DejaVuSans-2d"/>
      <use x="86.421875" xlink:href="#DejaVuSans-42"/>
      <use x="155.025391" xlink:href="#DejaVuSans-46"/>
      <use x="212.544922" xlink:href="#DejaVuSans-47"/>
      <use x="290.035156" xlink:href="#DejaVuSans-53"/>
      <use x="353.511719" xlink:href="#DejaVuSans-2d"/>
      <use x="385.970703" xlink:href="#DejaVuSans-42"/>
     </g>
    </g>
    <g id="line2d_27">
     <path d="M 414.5775 147.91875 
L 462.5775 147.91875 
" style="fill:none;stroke:#d62728;stroke-linecap:square;stroke-width:3;"/>
    </g>
    <g id="line2d_28"/>
    <g id="text_21">
     <!-- NELDER-MEAD -->
     <g transform="translate(481.7775 156.31875)scale(0.24 -0.24)">
      <defs>
       <path d="M 628 4666 
L 1478 4666 
L 3547 763 
L 3547 4666 
L 4159 4666 
L 4159 0 
L 3309 0 
L 1241 3903 
L 1241 0 
L 628 0 
L 628 4666 
z
" id="DejaVuSans-4e" transform="scale(0.015625)"/>
       <path d="M 1259 4147 
L 1259 519 
L 2022 519 
Q 2988 519 3436 956 
Q 3884 1394 3884 2338 
Q 3884 3275 3436 3711 
Q 2988 4147 2022 4147 
L 1259 4147 
z
M 628 4666 
L 1925 4666 
Q 3281 4666 3915 4102 
Q 4550 3538 4550 2338 
Q 4550 1131 3912 565 
Q 3275 0 1925 0 
L 628 0 
L 628 4666 
z
" id="DejaVuSans-44" transform="scale(0.015625)"/>
       <path d="M 2841 2188 
Q 3044 2119 3236 1894 
Q 3428 1669 3622 1275 
L 4263 0 
L 3584 0 
L 2988 1197 
Q 2756 1666 2539 1819 
Q 2322 1972 1947 1972 
L 1259 1972 
L 1259 0 
L 628 0 
L 628 4666 
L 2053 4666 
Q 2853 4666 3247 4331 
Q 3641 3997 3641 3322 
Q 3641 2881 3436 2590 
Q 3231 2300 2841 2188 
z
M 1259 4147 
L 1259 2491 
L 2053 2491 
Q 2509 2491 2742 2702 
Q 2975 2913 2975 3322 
Q 2975 3731 2742 3939 
Q 2509 4147 2053 4147 
L 1259 4147 
z
" id="DejaVuSans-52" transform="scale(0.015625)"/>
       <path d="M 628 4666 
L 1569 4666 
L 2759 1491 
L 3956 4666 
L 4897 4666 
L 4897 0 
L 4281 0 
L 4281 4097 
L 3078 897 
L 2444 897 
L 1241 4097 
L 1241 0 
L 628 0 
L 628 4666 
z
" id="DejaVuSans-4d" transform="scale(0.015625)"/>
      </defs>
      <use xlink:href="#DejaVuSans-4e"/>
      <use x="74.804688" xlink:href="#DejaVuSans-45"/>
      <use x="137.988281" xlink:href="#DejaVuSans-4c"/>
      <use x="193.701172" xlink:href="#DejaVuSans-44"/>
      <use x="270.703125" xlink:href="#DejaVuSans-45"/>
      <use x="333.886719" xlink:href="#DejaVuSans-52"/>
      <use x="399.369141" xlink:href="#DejaVuSans-2d"/>
      <use x="435.453125" xlink:href="#DejaVuSans-4d"/>
      <use x="521.732422" xlink:href="#DejaVuSans-45"/>
      <use x="584.916016" xlink:href="#DejaVuSans-41"/>
      <use x="653.324219" xlink:href="#DejaVuSans-44"/>
     </g>
    </g>
    <g id="line2d_29">
     <path d="M 414.5775 183.14625 
L 462.5775 183.14625 
" style="fill:none;stroke:#000000;stroke-dasharray:7.4,3.2;stroke-dashoffset:0;stroke-width:2;"/>
    </g>
    <g id="line2d_30"/>
    <g id="text_22">
     <!-- HT -->
     <g transform="translate(481.7775 191.54625)scale(0.24 -0.24)">
      <defs>
       <path d="M 628 4666 
L 1259 4666 
L 1259 2753 
L 3553 2753 
L 3553 4666 
L 4184 4666 
L 4184 0 
L 3553 0 
L 3553 2222 
L 1259 2222 
L 1259 0 
L 628 0 
L 628 4666 
z
" id="DejaVuSans-48" transform="scale(0.015625)"/>
       <path d="M -19 4666 
L 3928 4666 
L 3928 4134 
L 2272 4134 
L 2272 0 
L 1638 0 
L 1638 4134 
L -19 4134 
L -19 4666 
z
" id="DejaVuSans-54" transform="scale(0.015625)"/>
      </defs>
      <use xlink:href="#DejaVuSans-48"/>
      <use x="75.195312" xlink:href="#DejaVuSans-54"/>
     </g>
    </g>
   </g>
  </g>
 </g>
 <defs>
  <clipPath id="p8c8c05898d">
   <rect height="496.945" width="603.0925" x="75.5675" y="10.8"/>
  </clipPath>
 </defs>
</svg>
