<?xml version="1.0" encoding="utf-8" standalone="no"?>
<!DOCTYPE svg PUBLIC "-//W3C//DTD SVG 1.1//EN"
  "http://www.w3.org/Graphics/SVG/1.1/DTD/svg11.dtd">
<svg height="576pt" version="1.1" viewBox="0 0 1440 576" width="1440pt" xmlns="http://www.w3.org/2000/svg" xmlns:xlink="http://www.w3.org/1999/xlink">
 <metadata>
  <rdf:RDF xmlns:cc="http://creativecommons.org/ns#" xmlns:dc="http://purl.org/dc/elements/1.1/" xmlns:rdf="http://www.w3.org/1999/02/22-rdf-syntax-ns#">
   <cc:Work>
    <dc:type rdf:resource="http://purl.org/dc/dcmitype/StillImage"/>
    <dc:date>2021-07-27T16:01:19.809856</dc:date>
    <dc:format>image/svg+xml</dc:format>
    <dc:creator>
     <cc:Agent>
      <dc:title>Matplotlib v3.4.2, https://matplotlib.org/</dc:title>
     </cc:Agent>
    </dc:creator>
   </cc:Work>
  </rdf:RDF>
 </metadata>
 <defs>
  <style type="text/css">*{stroke-linecap:butt;stroke-linejoin:round;}</style>
 </defs>
 <g id="figure_1">
  <g id="patch_1">
   <path d="M 0 576 
L 1440 576 
L 1440 0 
L 0 0 
z
" style="fill:none;"/>
  </g>
  <g id="axes_1">
   <g id="patch_2">
    <path d="M 72.9625 515.4875 
L 1403.75 515.4875 
L 1403.75 10.8 
L 72.9625 10.8 
z
" style="fill:#ffffff;"/>
   </g>
   <g id="matplotlib.axis_1">
    <g id="xtick_1">
     <g id="line2d_1">
      <defs>
       <path d="M 0 0 
L 0 3.5 
" id="ma8850ef873" style="stroke:#000000;stroke-width:0.8;"/>
      </defs>
      <g>
       <use style="stroke:#000000;stroke-width:0.8;" x="72.9625" xlink:href="#ma8850ef873" y="515.4875"/>
      </g>
     </g>
     <g id="text_1">
      <!-- 0 -->
      <g transform="translate(66.6 537.684375)scale(0.2 -0.2)">
       <defs>
        <path d="M 2034 4250 
Q 1547 4250 1301 3770 
Q 1056 3291 1056 2328 
Q 1056 1369 1301 889 
Q 1547 409 2034 409 
Q 2525 409 2770 889 
Q 3016 1369 3016 2328 
Q 3016 3291 2770 3770 
Q 2525 4250 2034 4250 
z
M 2034 4750 
Q 2819 4750 3233 4129 
Q 3647 3509 3647 2328 
Q 3647 1150 3233 529 
Q 2819 -91 2034 -91 
Q 1250 -91 836 529 
Q 422 1150 422 2328 
Q 422 3509 836 4129 
Q 1250 4750 2034 4750 
z
" id="DejaVuSans-30" transform="scale(0.015625)"/>
       </defs>
       <use xlink:href="#DejaVuSans-30"/>
      </g>
     </g>
    </g>
    <g id="xtick_2">
     <g id="line2d_2">
      <g>
       <use style="stroke:#000000;stroke-width:0.8;" x="294.760417" xlink:href="#ma8850ef873" y="515.4875"/>
      </g>
     </g>
     <g id="text_2">
      <!-- 500 -->
      <g transform="translate(275.672917 537.684375)scale(0.2 -0.2)">
       <defs>
        <path d="M 691 4666 
L 3169 4666 
L 3169 4134 
L 1269 4134 
L 1269 2991 
Q 1406 3038 1543 3061 
Q 1681 3084 1819 3084 
Q 2600 3084 3056 2656 
Q 3513 2228 3513 1497 
Q 3513 744 3044 326 
Q 2575 -91 1722 -91 
Q 1428 -91 1123 -41 
Q 819 9 494 109 
L 494 744 
Q 775 591 1075 516 
Q 1375 441 1709 441 
Q 2250 441 2565 725 
Q 2881 1009 2881 1497 
Q 2881 1984 2565 2268 
Q 2250 2553 1709 2553 
Q 1456 2553 1204 2497 
Q 953 2441 691 2322 
L 691 4666 
z
" id="DejaVuSans-35" transform="scale(0.015625)"/>
       </defs>
       <use xlink:href="#DejaVuSans-35"/>
       <use x="63.623047" xlink:href="#DejaVuSans-30"/>
       <use x="127.246094" xlink:href="#DejaVuSans-30"/>
      </g>
     </g>
    </g>
    <g id="xtick_3">
     <g id="line2d_3">
      <g>
       <use style="stroke:#000000;stroke-width:0.8;" x="516.558333" xlink:href="#ma8850ef873" y="515.4875"/>
      </g>
     </g>
     <g id="text_3">
      <!-- 1000 -->
      <g transform="translate(491.108333 537.684375)scale(0.2 -0.2)">
       <defs>
        <path d="M 794 531 
L 1825 531 
L 1825 4091 
L 703 3866 
L 703 4441 
L 1819 4666 
L 2450 4666 
L 2450 531 
L 3481 531 
L 3481 0 
L 794 0 
L 794 531 
z
" id="DejaVuSans-31" transform="scale(0.015625)"/>
       </defs>
       <use xlink:href="#DejaVuSans-31"/>
       <use x="63.623047" xlink:href="#DejaVuSans-30"/>
       <use x="127.246094" xlink:href="#DejaVuSans-30"/>
       <use x="190.869141" xlink:href="#DejaVuSans-30"/>
      </g>
     </g>
    </g>
    <g id="xtick_4">
     <g id="line2d_4">
      <g>
       <use style="stroke:#000000;stroke-width:0.8;" x="738.35625" xlink:href="#ma8850ef873" y="515.4875"/>
      </g>
     </g>
     <g id="text_4">
      <!-- 1500 -->
      <g transform="translate(712.90625 537.684375)scale(0.2 -0.2)">
       <use xlink:href="#DejaVuSans-31"/>
       <use x="63.623047" xlink:href="#DejaVuSans-35"/>
       <use x="127.246094" xlink:href="#DejaVuSans-30"/>
       <use x="190.869141" xlink:href="#DejaVuSans-30"/>
      </g>
     </g>
    </g>
    <g id="xtick_5">
     <g id="line2d_5">
      <g>
       <use style="stroke:#000000;stroke-width:0.8;" x="960.154167" xlink:href="#ma8850ef873" y="515.4875"/>
      </g>
     </g>
     <g id="text_5">
      <!-- 2000 -->
      <g transform="translate(934.704167 537.684375)scale(0.2 -0.2)">
       <defs>
        <path d="M 1228 531 
L 3431 531 
L 3431 0 
L 469 0 
L 469 531 
Q 828 903 1448 1529 
Q 2069 2156 2228 2338 
Q 2531 2678 2651 2914 
Q 2772 3150 2772 3378 
Q 2772 3750 2511 3984 
Q 2250 4219 1831 4219 
Q 1534 4219 1204 4116 
Q 875 4013 500 3803 
L 500 4441 
Q 881 4594 1212 4672 
Q 1544 4750 1819 4750 
Q 2544 4750 2975 4387 
Q 3406 4025 3406 3419 
Q 3406 3131 3298 2873 
Q 3191 2616 2906 2266 
Q 2828 2175 2409 1742 
Q 1991 1309 1228 531 
z
" id="DejaVuSans-32" transform="scale(0.015625)"/>
       </defs>
       <use xlink:href="#DejaVuSans-32"/>
       <use x="63.623047" xlink:href="#DejaVuSans-30"/>
       <use x="127.246094" xlink:href="#DejaVuSans-30"/>
       <use x="190.869141" xlink:href="#DejaVuSans-30"/>
      </g>
     </g>
    </g>
    <g id="xtick_6">
     <g id="line2d_6">
      <g>
       <use style="stroke:#000000;stroke-width:0.8;" x="1181.952083" xlink:href="#ma8850ef873" y="515.4875"/>
      </g>
     </g>
     <g id="text_6">
      <!-- 2500 -->
      <g transform="translate(1156.502083 537.684375)scale(0.2 -0.2)">
       <use xlink:href="#DejaVuSans-32"/>
       <use x="63.623047" xlink:href="#DejaVuSans-35"/>
       <use x="127.246094" xlink:href="#DejaVuSans-30"/>
       <use x="190.869141" xlink:href="#DejaVuSans-30"/>
      </g>
     </g>
    </g>
    <g id="xtick_7">
     <g id="line2d_7">
      <g>
       <use style="stroke:#000000;stroke-width:0.8;" x="1403.75" xlink:href="#ma8850ef873" y="515.4875"/>
      </g>
     </g>
     <g id="text_7">
      <!-- 3000 -->
      <g transform="translate(1378.3 537.684375)scale(0.2 -0.2)">
       <defs>
        <path d="M 2597 2516 
Q 3050 2419 3304 2112 
Q 3559 1806 3559 1356 
Q 3559 666 3084 287 
Q 2609 -91 1734 -91 
Q 1441 -91 1130 -33 
Q 819 25 488 141 
L 488 750 
Q 750 597 1062 519 
Q 1375 441 1716 441 
Q 2309 441 2620 675 
Q 2931 909 2931 1356 
Q 2931 1769 2642 2001 
Q 2353 2234 1838 2234 
L 1294 2234 
L 1294 2753 
L 1863 2753 
Q 2328 2753 2575 2939 
Q 2822 3125 2822 3475 
Q 2822 3834 2567 4026 
Q 2313 4219 1838 4219 
Q 1578 4219 1281 4162 
Q 984 4106 628 3988 
L 628 4550 
Q 988 4650 1302 4700 
Q 1616 4750 1894 4750 
Q 2613 4750 3031 4423 
Q 3450 4097 3450 3541 
Q 3450 3153 3228 2886 
Q 3006 2619 2597 2516 
z
" id="DejaVuSans-33" transform="scale(0.015625)"/>
       </defs>
       <use xlink:href="#DejaVuSans-33"/>
       <use x="63.623047" xlink:href="#DejaVuSans-30"/>
       <use x="127.246094" xlink:href="#DejaVuSans-30"/>
       <use x="190.869141" xlink:href="#DejaVuSans-30"/>
      </g>
     </g>
    </g>
    <g id="text_8">
     <!-- iterations -->
     <g transform="translate(690.901562 561.040625)scale(0.2 -0.2)">
      <defs>
       <path d="M 603 3500 
L 1178 3500 
L 1178 0 
L 603 0 
L 603 3500 
z
M 603 4863 
L 1178 4863 
L 1178 4134 
L 603 4134 
L 603 4863 
z
" id="DejaVuSans-69" transform="scale(0.015625)"/>
       <path d="M 1172 4494 
L 1172 3500 
L 2356 3500 
L 2356 3053 
L 1172 3053 
L 1172 1153 
Q 1172 725 1289 603 
Q 1406 481 1766 481 
L 2356 481 
L 2356 0 
L 1766 0 
Q 1100 0 847 248 
Q 594 497 594 1153 
L 594 3053 
L 172 3053 
L 172 3500 
L 594 3500 
L 594 4494 
L 1172 4494 
z
" id="DejaVuSans-74" transform="scale(0.015625)"/>
       <path d="M 3597 1894 
L 3597 1613 
L 953 1613 
Q 991 1019 1311 708 
Q 1631 397 2203 397 
Q 2534 397 2845 478 
Q 3156 559 3463 722 
L 3463 178 
Q 3153 47 2828 -22 
Q 2503 -91 2169 -91 
Q 1331 -91 842 396 
Q 353 884 353 1716 
Q 353 2575 817 3079 
Q 1281 3584 2069 3584 
Q 2775 3584 3186 3129 
Q 3597 2675 3597 1894 
z
M 3022 2063 
Q 3016 2534 2758 2815 
Q 2500 3097 2075 3097 
Q 1594 3097 1305 2825 
Q 1016 2553 972 2059 
L 3022 2063 
z
" id="DejaVuSans-65" transform="scale(0.015625)"/>
       <path d="M 2631 2963 
Q 2534 3019 2420 3045 
Q 2306 3072 2169 3072 
Q 1681 3072 1420 2755 
Q 1159 2438 1159 1844 
L 1159 0 
L 581 0 
L 581 3500 
L 1159 3500 
L 1159 2956 
Q 1341 3275 1631 3429 
Q 1922 3584 2338 3584 
Q 2397 3584 2469 3576 
Q 2541 3569 2628 3553 
L 2631 2963 
z
" id="DejaVuSans-72" transform="scale(0.015625)"/>
       <path d="M 2194 1759 
Q 1497 1759 1228 1600 
Q 959 1441 959 1056 
Q 959 750 1161 570 
Q 1363 391 1709 391 
Q 2188 391 2477 730 
Q 2766 1069 2766 1631 
L 2766 1759 
L 2194 1759 
z
M 3341 1997 
L 3341 0 
L 2766 0 
L 2766 531 
Q 2569 213 2275 61 
Q 1981 -91 1556 -91 
Q 1019 -91 701 211 
Q 384 513 384 1019 
Q 384 1609 779 1909 
Q 1175 2209 1959 2209 
L 2766 2209 
L 2766 2266 
Q 2766 2663 2505 2880 
Q 2244 3097 1772 3097 
Q 1472 3097 1187 3025 
Q 903 2953 641 2809 
L 641 3341 
Q 956 3463 1253 3523 
Q 1550 3584 1831 3584 
Q 2591 3584 2966 3190 
Q 3341 2797 3341 1997 
z
" id="DejaVuSans-61" transform="scale(0.015625)"/>
       <path d="M 1959 3097 
Q 1497 3097 1228 2736 
Q 959 2375 959 1747 
Q 959 1119 1226 758 
Q 1494 397 1959 397 
Q 2419 397 2687 759 
Q 2956 1122 2956 1747 
Q 2956 2369 2687 2733 
Q 2419 3097 1959 3097 
z
M 1959 3584 
Q 2709 3584 3137 3096 
Q 3566 2609 3566 1747 
Q 3566 888 3137 398 
Q 2709 -91 1959 -91 
Q 1206 -91 779 398 
Q 353 888 353 1747 
Q 353 2609 779 3096 
Q 1206 3584 1959 3584 
z
" id="DejaVuSans-6f" transform="scale(0.015625)"/>
       <path d="M 3513 2113 
L 3513 0 
L 2938 0 
L 2938 2094 
Q 2938 2591 2744 2837 
Q 2550 3084 2163 3084 
Q 1697 3084 1428 2787 
Q 1159 2491 1159 1978 
L 1159 0 
L 581 0 
L 581 3500 
L 1159 3500 
L 1159 2956 
Q 1366 3272 1645 3428 
Q 1925 3584 2291 3584 
Q 2894 3584 3203 3211 
Q 3513 2838 3513 2113 
z
" id="DejaVuSans-6e" transform="scale(0.015625)"/>
       <path d="M 2834 3397 
L 2834 2853 
Q 2591 2978 2328 3040 
Q 2066 3103 1784 3103 
Q 1356 3103 1142 2972 
Q 928 2841 928 2578 
Q 928 2378 1081 2264 
Q 1234 2150 1697 2047 
L 1894 2003 
Q 2506 1872 2764 1633 
Q 3022 1394 3022 966 
Q 3022 478 2636 193 
Q 2250 -91 1575 -91 
Q 1294 -91 989 -36 
Q 684 19 347 128 
L 347 722 
Q 666 556 975 473 
Q 1284 391 1588 391 
Q 1994 391 2212 530 
Q 2431 669 2431 922 
Q 2431 1156 2273 1281 
Q 2116 1406 1581 1522 
L 1381 1569 
Q 847 1681 609 1914 
Q 372 2147 372 2553 
Q 372 3047 722 3315 
Q 1072 3584 1716 3584 
Q 2034 3584 2315 3537 
Q 2597 3491 2834 3397 
z
" id="DejaVuSans-73" transform="scale(0.015625)"/>
      </defs>
      <use xlink:href="#DejaVuSans-69"/>
      <use x="27.783203" xlink:href="#DejaVuSans-74"/>
      <use x="66.992188" xlink:href="#DejaVuSans-65"/>
      <use x="128.515625" xlink:href="#DejaVuSans-72"/>
      <use x="169.628906" xlink:href="#DejaVuSans-61"/>
      <use x="230.908203" xlink:href="#DejaVuSans-74"/>
      <use x="270.117188" xlink:href="#DejaVuSans-69"/>
      <use x="297.900391" xlink:href="#DejaVuSans-6f"/>
      <use x="359.082031" xlink:href="#DejaVuSans-6e"/>
      <use x="422.460938" xlink:href="#DejaVuSans-73"/>
     </g>
    </g>
   </g>
   <g id="matplotlib.axis_2">
    <g id="ytick_1">
     <g id="line2d_8">
      <defs>
       <path d="M 0 0 
L -3.5 0 
" id="m34813f9dc9" style="stroke:#000000;stroke-width:0.8;"/>
      </defs>
      <g>
       <use style="stroke:#000000;stroke-width:0.8;" x="72.9625" xlink:href="#m34813f9dc9" y="510.246479"/>
      </g>
     </g>
     <g id="text_9">
      <!-- 3.0 -->
      <g transform="translate(34.15625 517.844917)scale(0.2 -0.2)">
       <defs>
        <path d="M 684 794 
L 1344 794 
L 1344 0 
L 684 0 
L 684 794 
z
" id="DejaVuSans-2e" transform="scale(0.015625)"/>
       </defs>
       <use xlink:href="#DejaVuSans-33"/>
       <use x="63.623047" xlink:href="#DejaVuSans-2e"/>
       <use x="95.410156" xlink:href="#DejaVuSans-30"/>
      </g>
     </g>
    </g>
    <g id="ytick_2">
     <g id="line2d_9">
      <g>
       <use style="stroke:#000000;stroke-width:0.8;" x="72.9625" xlink:href="#m34813f9dc9" y="451.00289"/>
      </g>
     </g>
     <g id="text_10">
      <!-- 3.5 -->
      <g transform="translate(34.15625 458.601327)scale(0.2 -0.2)">
       <use xlink:href="#DejaVuSans-33"/>
       <use x="63.623047" xlink:href="#DejaVuSans-2e"/>
       <use x="95.410156" xlink:href="#DejaVuSans-35"/>
      </g>
     </g>
    </g>
    <g id="ytick_3">
     <g id="line2d_10">
      <g>
       <use style="stroke:#000000;stroke-width:0.8;" x="72.9625" xlink:href="#m34813f9dc9" y="391.759301"/>
      </g>
     </g>
     <g id="text_11">
      <!-- 4.0 -->
      <g transform="translate(34.15625 399.357738)scale(0.2 -0.2)">
       <defs>
        <path d="M 2419 4116 
L 825 1625 
L 2419 1625 
L 2419 4116 
z
M 2253 4666 
L 3047 4666 
L 3047 1625 
L 3713 1625 
L 3713 1100 
L 3047 1100 
L 3047 0 
L 2419 0 
L 2419 1100 
L 313 1100 
L 313 1709 
L 2253 4666 
z
" id="DejaVuSans-34" transform="scale(0.015625)"/>
       </defs>
       <use xlink:href="#DejaVuSans-34"/>
       <use x="63.623047" xlink:href="#DejaVuSans-2e"/>
       <use x="95.410156" xlink:href="#DejaVuSans-30"/>
      </g>
     </g>
    </g>
    <g id="ytick_4">
     <g id="line2d_11">
      <g>
       <use style="stroke:#000000;stroke-width:0.8;" x="72.9625" xlink:href="#m34813f9dc9" y="332.515712"/>
      </g>
     </g>
     <g id="text_12">
      <!-- 4.5 -->
      <g transform="translate(34.15625 340.114149)scale(0.2 -0.2)">
       <use xlink:href="#DejaVuSans-34"/>
       <use x="63.623047" xlink:href="#DejaVuSans-2e"/>
       <use x="95.410156" xlink:href="#DejaVuSans-35"/>
      </g>
     </g>
    </g>
    <g id="ytick_5">
     <g id="line2d_12">
      <g>
       <use style="stroke:#000000;stroke-width:0.8;" x="72.9625" xlink:href="#m34813f9dc9" y="273.272122"/>
      </g>
     </g>
     <g id="text_13">
      <!-- 5.0 -->
      <g transform="translate(34.15625 280.87056)scale(0.2 -0.2)">
       <use xlink:href="#DejaVuSans-35"/>
       <use x="63.623047" xlink:href="#DejaVuSans-2e"/>
       <use x="95.410156" xlink:href="#DejaVuSans-30"/>
      </g>
     </g>
    </g>
    <g id="ytick_6">
     <g id="line2d_13">
      <g>
       <use style="stroke:#000000;stroke-width:0.8;" x="72.9625" xlink:href="#m34813f9dc9" y="214.028533"/>
      </g>
     </g>
     <g id="text_14">
      <!-- 5.5 -->
      <g transform="translate(34.15625 221.626971)scale(0.2 -0.2)">
       <use xlink:href="#DejaVuSans-35"/>
       <use x="63.623047" xlink:href="#DejaVuSans-2e"/>
       <use x="95.410156" xlink:href="#DejaVuSans-35"/>
      </g>
     </g>
    </g>
    <g id="ytick_7">
     <g id="line2d_14">
      <g>
       <use style="stroke:#000000;stroke-width:0.8;" x="72.9625" xlink:href="#m34813f9dc9" y="154.784944"/>
      </g>
     </g>
     <g id="text_15">
      <!-- 6.0 -->
      <g transform="translate(34.15625 162.383382)scale(0.2 -0.2)">
       <defs>
        <path d="M 2113 2584 
Q 1688 2584 1439 2293 
Q 1191 2003 1191 1497 
Q 1191 994 1439 701 
Q 1688 409 2113 409 
Q 2538 409 2786 701 
Q 3034 994 3034 1497 
Q 3034 2003 2786 2293 
Q 2538 2584 2113 2584 
z
M 3366 4563 
L 3366 3988 
Q 3128 4100 2886 4159 
Q 2644 4219 2406 4219 
Q 1781 4219 1451 3797 
Q 1122 3375 1075 2522 
Q 1259 2794 1537 2939 
Q 1816 3084 2150 3084 
Q 2853 3084 3261 2657 
Q 3669 2231 3669 1497 
Q 3669 778 3244 343 
Q 2819 -91 2113 -91 
Q 1303 -91 875 529 
Q 447 1150 447 2328 
Q 447 3434 972 4092 
Q 1497 4750 2381 4750 
Q 2619 4750 2861 4703 
Q 3103 4656 3366 4563 
z
" id="DejaVuSans-36" transform="scale(0.015625)"/>
       </defs>
       <use xlink:href="#DejaVuSans-36"/>
       <use x="63.623047" xlink:href="#DejaVuSans-2e"/>
       <use x="95.410156" xlink:href="#DejaVuSans-30"/>
      </g>
     </g>
    </g>
    <g id="ytick_8">
     <g id="line2d_15">
      <g>
       <use style="stroke:#000000;stroke-width:0.8;" x="72.9625" xlink:href="#m34813f9dc9" y="95.541355"/>
      </g>
     </g>
     <g id="text_16">
      <!-- 6.5 -->
      <g transform="translate(34.15625 103.139793)scale(0.2 -0.2)">
       <use xlink:href="#DejaVuSans-36"/>
       <use x="63.623047" xlink:href="#DejaVuSans-2e"/>
       <use x="95.410156" xlink:href="#DejaVuSans-35"/>
      </g>
     </g>
    </g>
    <g id="ytick_9">
     <g id="line2d_16">
      <g>
       <use style="stroke:#000000;stroke-width:0.8;" x="72.9625" xlink:href="#m34813f9dc9" y="36.297766"/>
      </g>
     </g>
     <g id="text_17">
      <!-- 7.0 -->
      <g transform="translate(34.15625 43.896203)scale(0.2 -0.2)">
       <defs>
        <path d="M 525 4666 
L 3525 4666 
L 3525 4397 
L 1831 0 
L 1172 0 
L 2766 4134 
L 525 4134 
L 525 4666 
z
" id="DejaVuSans-37" transform="scale(0.015625)"/>
       </defs>
       <use xlink:href="#DejaVuSans-37"/>
       <use x="63.623047" xlink:href="#DejaVuSans-2e"/>
       <use x="95.410156" xlink:href="#DejaVuSans-30"/>
      </g>
     </g>
    </g>
    <g id="text_18">
     <!-- VQE energy -->
     <g transform="translate(25.996875 322.2)rotate(-90)scale(0.2 -0.2)">
      <defs>
       <path d="M 1831 0 
L 50 4666 
L 709 4666 
L 2188 738 
L 3669 4666 
L 4325 4666 
L 2547 0 
L 1831 0 
z
" id="DejaVuSans-56" transform="scale(0.015625)"/>
       <path d="M 2522 4238 
Q 1834 4238 1429 3725 
Q 1025 3213 1025 2328 
Q 1025 1447 1429 934 
Q 1834 422 2522 422 
Q 3209 422 3611 934 
Q 4013 1447 4013 2328 
Q 4013 3213 3611 3725 
Q 3209 4238 2522 4238 
z
M 3406 84 
L 4238 -825 
L 3475 -825 
L 2784 -78 
Q 2681 -84 2626 -87 
Q 2572 -91 2522 -91 
Q 1538 -91 948 567 
Q 359 1225 359 2328 
Q 359 3434 948 4092 
Q 1538 4750 2522 4750 
Q 3503 4750 4090 4092 
Q 4678 3434 4678 2328 
Q 4678 1516 4351 937 
Q 4025 359 3406 84 
z
" id="DejaVuSans-51" transform="scale(0.015625)"/>
       <path d="M 628 4666 
L 3578 4666 
L 3578 4134 
L 1259 4134 
L 1259 2753 
L 3481 2753 
L 3481 2222 
L 1259 2222 
L 1259 531 
L 3634 531 
L 3634 0 
L 628 0 
L 628 4666 
z
" id="DejaVuSans-45" transform="scale(0.015625)"/>
       <path id="DejaVuSans-20" transform="scale(0.015625)"/>
       <path d="M 2906 1791 
Q 2906 2416 2648 2759 
Q 2391 3103 1925 3103 
Q 1463 3103 1205 2759 
Q 947 2416 947 1791 
Q 947 1169 1205 825 
Q 1463 481 1925 481 
Q 2391 481 2648 825 
Q 2906 1169 2906 1791 
z
M 3481 434 
Q 3481 -459 3084 -895 
Q 2688 -1331 1869 -1331 
Q 1566 -1331 1297 -1286 
Q 1028 -1241 775 -1147 
L 775 -588 
Q 1028 -725 1275 -790 
Q 1522 -856 1778 -856 
Q 2344 -856 2625 -561 
Q 2906 -266 2906 331 
L 2906 616 
Q 2728 306 2450 153 
Q 2172 0 1784 0 
Q 1141 0 747 490 
Q 353 981 353 1791 
Q 353 2603 747 3093 
Q 1141 3584 1784 3584 
Q 2172 3584 2450 3431 
Q 2728 3278 2906 2969 
L 2906 3500 
L 3481 3500 
L 3481 434 
z
" id="DejaVuSans-67" transform="scale(0.015625)"/>
       <path d="M 2059 -325 
Q 1816 -950 1584 -1140 
Q 1353 -1331 966 -1331 
L 506 -1331 
L 506 -850 
L 844 -850 
Q 1081 -850 1212 -737 
Q 1344 -625 1503 -206 
L 1606 56 
L 191 3500 
L 800 3500 
L 1894 763 
L 2988 3500 
L 3597 3500 
L 2059 -325 
z
" id="DejaVuSans-79" transform="scale(0.015625)"/>
      </defs>
      <use xlink:href="#DejaVuSans-56"/>
      <use x="68.408203" xlink:href="#DejaVuSans-51"/>
      <use x="147.119141" xlink:href="#DejaVuSans-45"/>
      <use x="210.302734" xlink:href="#DejaVuSans-20"/>
      <use x="242.089844" xlink:href="#DejaVuSans-65"/>
      <use x="303.613281" xlink:href="#DejaVuSans-6e"/>
      <use x="366.992188" xlink:href="#DejaVuSans-65"/>
      <use x="428.515625" xlink:href="#DejaVuSans-72"/>
      <use x="467.878906" xlink:href="#DejaVuSans-67"/>
      <use x="531.355469" xlink:href="#DejaVuSans-79"/>
     </g>
    </g>
   </g>
   <g id="line2d_17">
    <path clip-path="url(#pc841fac07c)" d="M 73.406096 93.802295 
L 73.849692 66.814395 
L 74.293288 81.461271 
L 74.736883 101.049253 
L 75.180479 131.155397 
L 75.624075 147.730969 
L 76.067671 113.002132 
L 76.511267 121.171796 
L 76.954863 131.586949 
L 77.398458 168.590215 
L 77.842054 216.24449 
L 78.28565 221.813385 
L 78.729246 240.799855 
L 79.172842 226.618736 
L 79.616438 230.374516 
L 80.060033 213.857226 
L 80.503629 221.778201 
L 80.947225 172.146271 
L 81.390821 204.923191 
L 81.834417 206.857862 
L 82.278013 244.900506 
L 82.721608 269.749629 
L 83.165204 264.257476 
L 83.6088 223.909704 
L 84.052396 242.636175 
L 84.495992 292.974473 
L 84.939588 265.656201 
L 85.383183 269.722006 
L 85.826779 277.393439 
L 86.270375 275.681213 
L 86.713971 293.903777 
L 87.157567 294.141704 
L 87.601163 267.757389 
L 88.488354 313.463535 
L 88.93195 293.855373 
L 89.375546 347.62322 
L 89.819142 339.504672 
L 90.262738 343.151759 
L 90.706333 312.035562 
L 91.149929 322.509062 
L 91.593525 307.315826 
L 92.037121 347.706924 
L 92.480717 356.401425 
L 92.924313 375.708204 
L 93.367908 383.873733 
L 93.811504 367.775671 
L 94.698696 377.705558 
L 95.142292 345.009053 
L 95.585888 374.762442 
L 96.029483 331.07445 
L 96.473079 396.116156 
L 97.360271 372.964288 
L 97.803867 366.09003 
L 98.247463 385.763411 
L 98.691058 370.384298 
L 99.134654 383.050893 
L 99.57825 358.065285 
L 100.021846 394.122832 
L 100.465442 357.018748 
L 100.909038 382.972511 
L 101.352633 340.041592 
L 101.796229 407.749253 
L 102.239825 378.765124 
L 102.683421 400.395615 
L 103.127017 382.337444 
L 103.570613 380.183267 
L 104.014208 401.132957 
L 104.457804 401.374194 
L 104.9014 397.682241 
L 105.344996 395.789636 
L 106.232188 406.661128 
L 106.675783 399.940696 
L 107.119379 401.526273 
L 107.562975 406.6306 
L 108.006571 396.638245 
L 108.450167 398.761118 
L 108.893763 414.252395 
L 109.337358 411.201129 
L 109.780954 435.216684 
L 110.22455 444.204667 
L 110.668146 441.806499 
L 111.111742 438.261367 
L 111.555338 437.09875 
L 111.998933 442.824931 
L 112.442529 441.240897 
L 112.886125 436.102213 
L 113.329721 437.929979 
L 113.773317 458.310412 
L 114.216913 456.290641 
L 114.660508 438.596328 
L 115.104104 456.91625 
L 115.5477 464.006036 
L 115.991296 462.980259 
L 116.434892 469.785552 
L 116.878488 458.951808 
L 117.322083 462.052587 
L 117.765679 473.030053 
L 118.209275 448.832082 
L 118.652871 473.894198 
L 119.096467 467.727356 
L 119.540063 468.777715 
L 119.983658 476.065138 
L 120.427254 474.870571 
L 120.87085 468.158439 
L 121.314446 469.772137 
L 121.758042 459.216272 
L 122.201638 465.03871 
L 122.645233 483.402073 
L 123.088829 474.883768 
L 123.532425 469.45493 
L 123.976021 480.895394 
L 124.419617 470.206331 
L 124.863213 477.544405 
L 125.306808 468.897147 
L 125.750404 481.803673 
L 126.194 473.506772 
L 126.637596 480.235808 
L 127.081192 481.78871 
L 127.524788 485.507198 
L 127.968383 477.173974 
L 128.411979 479.369495 
L 128.855575 463.449608 
L 129.299171 481.3676 
L 129.742767 481.002006 
L 130.186363 481.348411 
L 130.629958 484.056636 
L 131.073554 483.701168 
L 131.51715 485.260114 
L 131.960746 484.480527 
L 132.404342 487.693452 
L 132.847938 483.040918 
L 133.291533 486.577072 
L 133.735129 479.26982 
L 134.178725 486.328144 
L 134.622321 486.577862 
L 135.065917 487.872828 
L 135.509513 488.781263 
L 135.953108 487.568247 
L 136.396704 482.34489 
L 136.8403 486.608154 
L 137.283896 486.105341 
L 137.727492 487.917605 
L 138.171087 484.667411 
L 138.614683 487.740338 
L 139.058279 486.696389 
L 139.945471 488.768442 
L 140.389067 487.707543 
L 140.832663 489.092472 
L 141.276258 487.751897 
L 141.719854 488.902546 
L 142.16345 488.619691 
L 142.607046 488.938399 
L 143.050642 489.684262 
L 143.494237 490.178084 
L 144.381429 489.797426 
L 144.825025 489.889375 
L 145.268621 489.494319 
L 145.712217 490.050177 
L 146.155813 490.423904 
L 146.599408 489.265167 
L 147.043004 489.797499 
L 147.4866 489.999726 
L 147.930196 489.733307 
L 148.373792 491.070406 
L 148.817387 490.749457 
L 149.260983 489.80099 
L 149.704579 490.962125 
L 150.148175 489.418784 
L 150.591771 490.888527 
L 151.035367 490.288676 
L 151.478963 490.705517 
L 152.366154 491.095023 
L 152.80975 491.031778 
L 153.253346 490.800468 
L 154.140537 491.540733 
L 155.027729 491.15886 
L 155.471325 491.63936 
L 155.914921 491.701688 
L 156.802113 491.411555 
L 157.245708 491.719223 
L 157.689304 491.433919 
L 158.1329 491.71565 
L 158.576496 491.805752 
L 159.463688 491.644014 
L 159.907283 491.894278 
L 160.350879 491.949301 
L 160.794475 491.865514 
L 161.238071 492.024741 
L 161.681667 491.889832 
L 162.125263 492.125407 
L 162.568858 492.167955 
L 163.012454 491.864798 
L 163.45605 492.024128 
L 163.899646 492.064398 
L 164.343242 492.217573 
L 164.786838 492.11576 
L 165.230433 492.146214 
L 165.674029 491.786679 
L 166.117625 492.105953 
L 167.892008 492.251259 
L 168.335604 492.107537 
L 168.7792 492.278432 
L 170.553583 492.280173 
L 170.997179 491.944768 
L 171.440775 492.295201 
L 171.884371 492.173345 
L 172.327967 492.379441 
L 173.658754 492.144142 
L 174.10235 492.322561 
L 174.545946 492.162574 
L 174.989542 492.362684 
L 179.4255 492.400467 
L 179.869096 492.453361 
L 180.312692 492.373289 
L 181.199883 492.399398 
L 182.974267 492.460922 
L 184.305054 492.44551 
L 185.192246 492.454528 
L 185.635842 492.349077 
L 186.523033 492.459776 
L 188.297417 492.455675 
L 190.0718 492.475721 
L 205.597654 492.528635 
L 562.248704 492.542603 
L 1404.193596 492.545382 
L 1404.193596 492.545382 
" style="fill:none;stroke:#1f77b4;stroke-linecap:square;stroke-width:3;"/>
   </g>
   <g id="line2d_18">
    <path clip-path="url(#pc841fac07c)" d="M 73.406096 170.542579 
L 84.052396 170.542578 
L 84.495992 356.587231 
L 95.142292 356.58723 
L 95.585888 414.966898 
L 106.232188 414.966898 
L 106.675783 460.814896 
L 117.322083 460.814896 
L 117.765679 480.538279 
L 128.411979 480.538279 
L 128.855575 490.363164 
L 139.501875 490.363164 
L 139.945471 491.677519 
L 150.591771 491.677519 
L 151.035367 492.11392 
L 161.681667 492.11392 
L 162.125263 492.305344 
L 172.771563 492.305344 
L 173.215158 492.425777 
L 272.580625 492.473402 
L 272.580625 492.473402 
" style="fill:none;stroke:#ff7f0e;stroke-linecap:square;stroke-width:3;"/>
   </g>
   <g id="line2d_19">
    <path clip-path="url(#pc841fac07c)" d="M 73.406096 101.139855 
L 84.052396 101.139855 
L 84.495992 355.195494 
L 95.142292 355.195494 
L 95.585888 451.270994 
L 106.232188 451.270994 
L 106.675783 471.04671 
L 117.322083 471.04671 
L 117.765679 488.072368 
L 128.411979 488.072367 
L 128.855575 491.571824 
L 139.501875 491.571824 
L 139.945471 492.265283 
L 150.591771 492.265283 
L 151.478963 492.378428 
L 261.934325 492.473388 
L 261.934325 492.473388 
" style="fill:none;stroke:#2ca02c;stroke-linecap:square;stroke-width:3;"/>
   </g>
   <g id="line2d_20">
    <path clip-path="url(#pc841fac07c)" d="M 73.406096 37.087087 
L 73.849692 36.077487 
L 74.293288 37.142018 
L 74.736883 36.539894 
L 75.180479 36.263567 
L 75.624075 36.86523 
L 76.067671 36.05321 
L 76.511267 36.363984 
L 77.398458 35.635198 
L 77.842054 37.957039 
L 78.729246 33.740341 
L 79.172842 34.894382 
L 79.616438 36.763037 
L 80.503629 36.896595 
L 80.947225 36.574262 
L 81.390821 36.77317 
L 81.834417 36.693095 
L 82.278013 36.17744 
L 83.165204 35.909642 
L 83.6088 36.64338 
L 84.052396 35.886781 
L 84.939588 42.271914 
L 85.383183 38.498149 
L 85.826779 38.028238 
L 87.157567 38.268761 
L 89.819142 39.344152 
L 90.706333 39.412172 
L 91.149929 39.659207 
L 92.037121 39.995443 
L 93.367908 40.695289 
L 94.2551 41.348922 
L 94.698696 41.492281 
L 95.142292 41.83712 
L 95.585888 41.365805 
L 96.473079 41.753936 
L 96.916675 42.193066 
L 97.360271 42.227537 
L 97.803867 42.412013 
L 98.247463 44.561162 
L 98.691058 42.844033 
L 99.134654 43.125455 
L 100.021846 43.451954 
L 100.465442 43.69407 
L 100.909038 43.745332 
L 101.352633 44.281094 
L 102.239825 44.734697 
L 102.683421 47.502653 
L 103.127017 45.172616 
L 104.9014 45.998979 
L 105.344996 46.032717 
L 106.675783 46.865413 
L 107.119379 47.248624 
L 107.562975 47.47035 
L 108.006571 47.98592 
L 108.450167 51.412045 
L 108.893763 48.375681 
L 109.780954 49.197394 
L 110.22455 49.178943 
L 110.668146 49.397757 
L 111.111742 49.879494 
L 111.555338 50.060335 
L 112.442529 51.018759 
L 113.329721 51.380934 
L 113.773317 51.990715 
L 114.216913 56.140274 
L 114.660508 52.107557 
L 116.434892 53.620513 
L 116.878488 54.30722 
L 117.322083 54.567239 
L 117.765679 55.136561 
L 118.652871 55.771749 
L 119.096467 56.23559 
L 119.540063 60.948394 
L 119.983658 57.51207 
L 120.427254 57.316642 
L 120.87085 57.417694 
L 121.314446 57.801683 
L 121.758042 59.120558 
L 122.201638 59.186775 
L 122.645233 59.402678 
L 123.532425 60.422562 
L 123.976021 60.656594 
L 124.419617 61.248224 
L 124.863213 66.629192 
L 125.306808 62.31474 
L 125.750404 63.189162 
L 126.194 63.424056 
L 127.524788 65.147864 
L 127.968383 65.756762 
L 128.411979 65.961442 
L 128.855575 66.977278 
L 129.299171 74.080186 
L 129.742767 67.600457 
L 130.186363 68.607165 
L 130.629958 69.196298 
L 131.073554 70.330933 
L 131.51715 69.7724 
L 132.847938 72.698121 
L 133.291533 72.08611 
L 134.178725 74.473872 
L 134.622321 82.671635 
L 135.065917 75.588514 
L 135.953108 77.637079 
L 136.396704 78.945581 
L 136.8403 78.780961 
L 139.058279 82.851925 
L 139.501875 92.515608 
L 139.945471 84.437641 
L 140.832663 87.184942 
L 141.276258 87.400056 
L 141.719854 87.774548 
L 142.607046 90.002709 
L 143.050642 91.482944 
L 143.937833 92.764749 
L 144.381429 104.075677 
L 144.825025 96.218336 
L 145.268621 96.753966 
L 145.712217 98.334853 
L 146.599408 99.750129 
L 147.4866 101.793705 
L 147.930196 102.421377 
L 148.373792 104.314694 
L 148.817387 118.158589 
L 149.260983 106.533698 
L 151.035367 113.18414 
L 151.478963 113.473838 
L 152.366154 115.135852 
L 153.253346 119.875691 
L 153.696942 137.539454 
L 154.140537 122.587157 
L 155.027729 125.716267 
L 155.914921 130.148151 
L 156.358517 128.371829 
L 156.802113 131.100637 
L 157.245708 131.953577 
L 157.689304 135.155431 
L 158.1329 136.507578 
L 158.576496 138.425816 
L 159.020092 158.177796 
L 159.463688 142.203331 
L 160.350879 147.056875 
L 161.238071 149.384669 
L 162.125263 153.19153 
L 162.568858 154.01924 
L 163.45605 160.501028 
L 163.899646 184.689023 
L 164.343242 165.658289 
L 164.786838 167.347548 
L 165.230433 170.037582 
L 165.674029 169.649631 
L 166.561221 173.880274 
L 167.004817 175.412002 
L 167.448413 180.151744 
L 167.892008 181.780133 
L 168.335604 185.11189 
L 168.7792 212.44619 
L 169.222796 191.438054 
L 169.666392 191.439621 
L 170.553583 198.703826 
L 170.997179 199.338902 
L 171.440775 201.044585 
L 173.215158 212.660884 
L 173.658754 241.360961 
L 174.10235 218.18318 
L 174.545946 223.731166 
L 174.989542 225.002773 
L 175.433138 229.781425 
L 175.876733 227.022014 
L 176.763925 233.276219 
L 177.207521 238.386859 
L 177.651117 240.874248 
L 178.094713 246.031214 
L 178.538308 279.024344 
L 178.981904 252.968093 
L 179.4255 252.375881 
L 179.869096 257.197306 
L 180.312692 259.876664 
L 180.756288 258.696278 
L 181.199883 265.497776 
L 181.643479 266.406129 
L 182.087075 269.189033 
L 182.974267 277.131638 
L 183.417863 278.54489 
L 183.861458 284.274447 
L 184.305054 313.689024 
L 184.74865 288.561191 
L 185.635842 293.458938 
L 186.079438 291.901806 
L 186.966629 301.41923 
L 187.410225 302.39527 
L 187.853821 308.603855 
L 188.297417 310.516341 
L 188.741013 310.726845 
L 189.184608 315.791555 
L 189.628204 337.790846 
L 190.0718 322.087253 
L 190.515396 319.722704 
L 190.958992 320.379321 
L 191.402588 323.510146 
L 191.846183 327.510594 
L 192.289779 329.403658 
L 192.733375 327.669173 
L 193.176971 332.058785 
L 193.620567 332.474658 
L 194.064163 334.985881 
L 194.507758 335.957235 
L 194.951354 340.671463 
L 195.39495 347.306978 
L 195.838546 332.49643 
L 196.282142 339.293 
L 196.725738 341.62125 
L 197.169333 345.042277 
L 197.612929 340.85441 
L 198.056525 343.731318 
L 198.500121 339.49319 
L 198.943717 343.80097 
L 199.387313 340.209354 
L 199.830908 340.936489 
L 200.274504 342.177936 
L 200.7181 335.971817 
L 201.161696 336.439323 
L 201.605292 340.841082 
L 202.048888 332.410546 
L 202.492483 332.725933 
L 202.936079 328.649244 
L 203.379675 334.855282 
L 203.823271 332.082248 
L 204.266867 330.598098 
L 204.710463 339.505494 
L 205.154058 332.180467 
L 205.597654 321.575558 
L 206.04125 341.010739 
L 206.484846 332.931804 
L 206.928442 336.239223 
L 207.372038 338.191981 
L 207.815633 349.505772 
L 208.259229 351.47002 
L 208.702825 336.961108 
L 209.146421 336.984372 
L 209.590017 333.173201 
L 210.033613 341.928723 
L 210.477208 337.084618 
L 210.920804 336.287198 
L 211.3644 347.939514 
L 211.807996 328.569713 
L 212.251592 343.441158 
L 212.695188 336.196848 
L 213.582379 348.196566 
L 214.025975 329.639851 
L 214.469571 343.851526 
L 214.913167 337.654784 
L 215.356763 334.824411 
L 215.800358 343.324701 
L 216.243954 337.668911 
L 216.68755 343.19958 
L 217.131146 330.963049 
L 217.574742 343.984088 
L 218.018338 340.083801 
L 218.905529 351.38334 
L 219.349125 348.052151 
L 219.792721 340.385774 
L 220.236317 351.91672 
L 220.679913 356.713673 
L 221.123508 340.928111 
L 221.567104 345.237762 
L 222.0107 353.245676 
L 222.454296 343.232086 
L 222.897892 352.537197 
L 223.341488 349.202478 
L 224.672275 353.189229 
L 225.115871 350.357259 
L 225.559467 351.209804 
L 226.003062 342.771897 
L 226.446658 348.556841 
L 226.890254 350.300813 
L 227.33385 356.239728 
L 227.777446 358.09919 
L 228.221042 363.770064 
L 228.664638 358.217352 
L 229.551829 360.531385 
L 229.995425 361.064936 
L 230.439021 356.821203 
L 230.882617 356.314088 
L 231.326212 360.320357 
L 231.769808 361.947163 
L 232.213404 362.041538 
L 232.657 362.52496 
L 233.100596 362.732476 
L 233.544192 357.937914 
L 233.987788 358.975924 
L 234.431383 361.149408 
L 234.874979 361.170931 
L 235.318575 361.742807 
L 235.762171 366.900373 
L 236.205767 370.286959 
L 236.649362 358.560537 
L 237.092958 368.169656 
L 237.536554 369.20768 
L 237.98015 368.938204 
L 238.423746 371.839644 
L 238.867342 377.194777 
L 239.754533 364.034803 
L 240.198129 370.806709 
L 240.641725 368.221815 
L 241.085321 362.222924 
L 241.528917 368.78798 
L 241.972512 354.054954 
L 242.416108 365.394744 
L 242.859704 370.524164 
L 243.3033 373.630199 
L 243.746896 368.409957 
L 244.190492 373.447175 
L 244.634088 374.67368 
L 245.077683 372.986622 
L 245.521279 366.131253 
L 245.964875 374.273188 
L 246.408471 376.568568 
L 246.852067 376.540956 
L 247.295662 368.47236 
L 247.739258 376.335442 
L 248.182854 377.101518 
L 248.62645 376.804939 
L 249.070046 372.529594 
L 249.513642 373.866554 
L 249.957238 367.632246 
L 250.400833 372.938173 
L 250.844429 375.953143 
L 251.288025 375.625731 
L 251.731621 371.132171 
L 252.175217 372.214246 
L 252.618812 372.708545 
L 253.506004 375.765085 
L 254.393196 385.703278 
L 254.836792 378.418911 
L 255.723983 374.949503 
L 256.167579 377.515318 
L 256.611175 370.759935 
L 257.054771 376.460472 
L 257.498367 375.342179 
L 257.941962 373.891095 
L 258.385558 376.144497 
L 258.829154 376.752623 
L 259.27275 380.634773 
L 259.716346 378.725437 
L 260.159942 381.436 
L 260.603538 376.193002 
L 261.047133 377.588763 
L 261.490729 376.689263 
L 261.934325 379.86402 
L 262.377921 378.608787 
L 262.821517 378.243072 
L 263.265112 378.642762 
L 263.708708 379.476917 
L 264.152304 380.662458 
L 264.5959 379.487243 
L 265.039496 377.050273 
L 265.926688 381.44254 
L 266.813879 380.611702 
L 267.257475 376.43872 
L 267.701071 379.92057 
L 268.144667 381.87119 
L 268.588262 382.897228 
L 269.031858 378.832805 
L 269.475454 378.75406 
L 269.91905 378.821582 
L 270.362646 379.230594 
L 270.806242 385.864941 
L 271.249838 389.478664 
L 271.693433 383.542753 
L 272.137029 382.376846 
L 272.580625 386.030085 
L 273.024221 383.089089 
L 273.467817 382.28098 
L 273.911412 387.177195 
L 274.355008 380.414656 
L 274.798604 379.255109 
L 275.2422 383.402972 
L 275.685796 380.308425 
L 276.129392 379.229937 
L 276.572988 382.751138 
L 277.016583 384.936894 
L 277.460179 385.01479 
L 277.903775 382.47992 
L 278.347371 387.849629 
L 278.790967 387.25889 
L 279.234562 380.813016 
L 279.678158 380.431532 
L 280.121754 383.938439 
L 280.56535 386.086943 
L 281.008946 389.303278 
L 281.452542 386.679872 
L 281.896138 381.53869 
L 282.339733 386.401773 
L 282.783329 387.888679 
L 283.226925 389.970686 
L 283.670521 391.422941 
L 284.114117 383.556772 
L 284.557712 389.964757 
L 285.001308 384.623696 
L 285.444904 385.543288 
L 285.8885 380.522575 
L 286.332096 386.509076 
L 286.775692 385.418254 
L 287.219288 391.302356 
L 287.662883 384.68356 
L 288.106479 391.710416 
L 288.550075 393.847769 
L 288.993671 392.65635 
L 289.437267 384.155823 
L 289.880862 392.38448 
L 290.324458 384.663486 
L 290.768054 388.91842 
L 291.21165 384.804827 
L 291.655246 384.166483 
L 292.098842 388.334915 
L 292.542438 384.582161 
L 293.429629 392.774148 
L 293.873225 391.998641 
L 294.316821 385.287323 
L 294.760417 388.938766 
L 295.204012 387.771767 
L 295.647608 393.921923 
L 296.091204 396.396289 
L 296.5348 393.623136 
L 296.978396 394.166657 
L 297.421992 391.296219 
L 297.865588 394.71041 
L 298.309183 391.939941 
L 298.752779 396.312077 
L 299.196375 394.719086 
L 299.639971 392.467604 
L 300.083567 396.644498 
L 300.527163 398.499793 
L 300.970758 394.624563 
L 301.414354 393.408014 
L 301.85795 396.161154 
L 302.301546 396.877154 
L 302.745142 395.166052 
L 303.188738 398.287828 
L 303.632333 398.124065 
L 304.075929 397.722064 
L 304.519525 394.761524 
L 304.963121 398.650743 
L 305.406717 398.995172 
L 305.850313 397.716067 
L 306.293908 397.373577 
L 306.737504 400.096828 
L 307.1811 401.130676 
L 307.624696 400.654011 
L 308.068292 396.823755 
L 308.511888 400.428051 
L 308.955483 401.306665 
L 309.399079 401.702362 
L 309.842675 400.472906 
L 310.286271 401.491549 
L 311.173463 405.077116 
L 311.617058 400.53313 
L 312.060654 400.416852 
L 312.50425 400.499662 
L 312.947846 401.697897 
L 313.391442 397.542346 
L 313.835037 401.403364 
L 314.278633 402.689583 
L 314.722229 403.071982 
L 315.165825 403.001364 
L 315.609421 400.27874 
L 316.053017 401.175916 
L 316.496613 401.046796 
L 316.940208 398.724129 
L 317.383804 403.356769 
L 317.8274 401.87485 
L 318.270996 405.600175 
L 318.714592 405.831176 
L 319.158187 401.65715 
L 319.601783 402.724457 
L 320.045379 398.758402 
L 320.488975 402.387153 
L 320.932571 403.548583 
L 321.376167 400.91399 
L 321.819763 403.863356 
L 322.263358 403.676006 
L 322.706954 397.118558 
L 323.15055 403.59902 
L 323.594146 405.092867 
L 324.037742 402.794102 
L 324.481337 401.688142 
L 324.924933 399.995211 
L 325.368529 403.639399 
L 325.812125 402.646912 
L 326.255721 402.042986 
L 326.699317 404.343645 
L 327.142913 403.494965 
L 327.586508 403.251659 
L 328.030104 405.560203 
L 328.4737 403.676591 
L 328.917296 405.614987 
L 329.360892 402.45798 
L 329.804487 404.356336 
L 330.248083 404.008097 
L 330.691679 403.958271 
L 331.135275 401.903619 
L 331.578871 404.784829 
L 332.022467 403.83801 
L 332.466063 406.988679 
L 332.909658 406.928723 
L 333.353254 405.661019 
L 333.79685 401.518115 
L 334.240446 405.185033 
L 334.684042 407.530065 
L 335.127637 408.029275 
L 335.571233 407.981138 
L 336.014829 404.484889 
L 336.458425 406.695104 
L 336.902021 404.051279 
L 337.345617 407.50717 
L 337.789213 406.851181 
L 338.232808 405.665237 
L 338.676404 406.832572 
L 339.563596 403.145839 
L 340.007192 406.272155 
L 340.450787 407.579637 
L 340.894383 406.382959 
L 341.337979 406.583543 
L 341.781575 405.058516 
L 342.225171 408.494932 
L 342.668767 407.338483 
L 343.112363 406.784642 
L 343.555958 404.344568 
L 344.44315 409.892711 
L 344.886746 411.127383 
L 345.330342 406.217584 
L 345.773937 405.61137 
L 346.217533 408.903 
L 346.661129 410.108226 
L 347.104725 410.650993 
L 347.548321 407.926804 
L 347.991917 406.198493 
L 348.435513 408.264879 
L 348.879108 409.623809 
L 349.322704 407.155232 
L 349.7663 409.418913 
L 350.209896 406.631805 
L 350.653492 407.600037 
L 351.097087 410.817539 
L 351.540683 409.81534 
L 351.984279 409.278729 
L 352.427875 407.166929 
L 352.871471 411.021678 
L 353.758663 407.754664 
L 354.202258 412.402098 
L 354.645854 413.515119 
L 355.08945 411.979453 
L 355.533046 413.402216 
L 355.976642 408.210778 
L 356.420237 409.496342 
L 356.863833 410.027394 
L 357.307429 412.765075 
L 357.751025 411.801877 
L 358.194621 408.673888 
L 359.081813 414.167183 
L 359.525408 414.983209 
L 359.969004 413.394378 
L 360.4126 409.329765 
L 360.856196 411.435698 
L 361.299792 414.319526 
L 361.743388 410.782463 
L 362.186983 411.099412 
L 362.630579 412.569129 
L 363.517771 410.827295 
L 363.961367 415.881479 
L 364.404963 417.26882 
L 364.848558 410.917907 
L 365.292154 415.656211 
L 365.73575 415.207203 
L 366.179346 410.569971 
L 366.622942 416.975741 
L 367.066538 410.71229 
L 367.510133 417.090186 
L 367.953729 411.093688 
L 368.840921 413.263345 
L 369.284517 411.978881 
L 369.728113 411.725073 
L 370.171708 416.829606 
L 370.615304 413.594393 
L 371.946092 421.503263 
L 372.833283 415.573733 
L 373.276879 415.529886 
L 373.720475 416.279056 
L 374.164071 420.354288 
L 374.607667 412.728251 
L 375.051263 417.510749 
L 375.494858 415.592684 
L 375.938454 418.588 
L 376.38205 413.545216 
L 376.825646 418.961181 
L 377.269242 412.743342 
L 377.712838 416.816803 
L 378.156433 417.561755 
L 378.600029 421.909945 
L 379.043625 423.822863 
L 379.487221 421.522406 
L 379.930817 414.694583 
L 380.374413 422.272417 
L 380.818008 421.416981 
L 381.261604 413.941436 
L 382.148796 422.606626 
L 382.592392 423.115504 
L 383.035988 418.459777 
L 383.479583 421.543967 
L 383.923179 418.772332 
L 384.366775 424.577171 
L 384.810371 426.152863 
L 385.253967 421.571141 
L 385.697563 420.490781 
L 386.141158 423.463753 
L 386.584754 424.379182 
L 387.02835 424.153204 
L 387.471946 425.233415 
L 387.915542 421.261867 
L 388.359138 423.215397 
L 388.802733 426.823024 
L 389.689925 427.823553 
L 390.133521 428.398733 
L 390.577117 425.367896 
L 391.020713 428.232885 
L 391.464308 425.02829 
L 391.907904 423.848582 
L 392.3515 427.809127 
L 392.795096 427.638876 
L 393.238692 428.422244 
L 393.682288 426.640244 
L 394.125883 424.302634 
L 394.569479 429.764185 
L 395.013075 429.770697 
L 395.456671 430.131504 
L 395.900267 429.08385 
L 396.343863 431.990425 
L 396.787458 433.712857 
L 397.231054 427.676735 
L 397.67465 429.978346 
L 398.118246 430.075355 
L 398.561842 427.97013 
L 399.005438 429.774825 
L 399.449033 432.158795 
L 399.892629 433.709915 
L 400.336225 432.718547 
L 400.779821 429.485594 
L 401.223417 433.869126 
L 401.667012 431.594655 
L 402.110608 427.48991 
L 402.554204 433.63007 
L 402.9978 432.939635 
L 403.441396 435.161532 
L 403.884992 432.681208 
L 404.328588 426.484211 
L 404.772183 435.380376 
L 405.215779 432.816209 
L 405.659375 426.221949 
L 406.102971 431.625233 
L 406.546567 411.588486 
L 406.990162 432.38065 
L 407.433758 428.946018 
L 407.877354 434.983258 
L 408.32095 429.662464 
L 408.764546 436.937756 
L 409.208142 437.345836 
L 409.651738 431.778975 
L 410.095333 435.10583 
L 410.538929 436.763613 
L 410.982525 429.902171 
L 411.426121 432.094694 
L 411.869717 437.749351 
L 412.313312 436.918133 
L 412.756908 432.593293 
L 413.200504 436.230149 
L 413.6441 436.022324 
L 414.087696 431.482424 
L 414.531292 435.52267 
L 414.974888 436.706274 
L 415.418483 438.803304 
L 415.862079 436.007308 
L 416.305675 429.691873 
L 416.749271 435.615146 
L 417.192867 438.95654 
L 417.636462 437.14143 
L 418.080058 432.516693 
L 418.523654 434.468056 
L 418.96725 437.324587 
L 419.410846 434.369938 
L 419.854442 432.473407 
L 420.298038 436.519825 
L 420.741633 434.222689 
L 421.185229 438.586252 
L 421.628825 439.450531 
L 422.072421 436.891125 
L 422.516017 438.415493 
L 422.959612 439.41154 
L 423.403208 438.805189 
L 423.846804 442.526892 
L 424.2904 444.330507 
L 424.733996 437.451516 
L 425.177592 436.722952 
L 425.621188 437.055435 
L 426.064783 440.65867 
L 426.508379 440.208625 
L 426.951975 440.127311 
L 427.395571 441.572355 
L 427.839167 441.179232 
L 428.282762 441.176852 
L 428.726358 440.916258 
L 429.169954 438.237992 
L 429.61355 441.617622 
L 430.057146 442.780656 
L 430.500742 437.204112 
L 431.387933 439.669344 
L 431.831529 437.697287 
L 432.275125 440.320786 
L 432.718721 443.673709 
L 433.162317 438.680377 
L 433.605912 438.933988 
L 434.049508 438.932739 
L 434.493104 440.977156 
L 434.9367 440.28859 
L 435.380296 444.085519 
L 435.823892 439.078048 
L 436.267488 437.837313 
L 437.154679 445.813827 
L 437.598275 447.112986 
L 438.041871 439.450389 
L 438.485467 437.966204 
L 438.929062 442.352961 
L 439.372658 440.341827 
L 439.816254 444.488104 
L 440.25985 441.371618 
L 440.703446 442.821851 
L 441.147042 440.466371 
L 441.590638 444.600139 
L 442.034233 444.03974 
L 442.477829 443.01345 
L 442.921425 444.333455 
L 443.365021 442.110604 
L 443.808617 442.211481 
L 444.252212 440.322102 
L 444.695808 443.436582 
L 445.139404 442.959845 
L 445.583 444.454217 
L 446.026596 444.182333 
L 446.470192 443.523154 
L 446.913788 444.325664 
L 447.357383 445.598374 
L 447.800979 439.75867 
L 448.688171 448.548975 
L 449.131767 450.496026 
L 449.575362 445.63219 
L 450.018958 447.902654 
L 450.462554 444.547847 
L 450.90615 442.184135 
L 451.349746 445.303559 
L 451.793342 447.526164 
L 452.680533 444.690386 
L 453.124129 445.878327 
L 453.567725 444.117313 
L 454.011321 447.034274 
L 454.454917 445.914132 
L 454.898512 447.053471 
L 455.342108 441.299508 
L 455.785704 446.90463 
L 456.2293 449.082451 
L 456.672896 444.26576 
L 457.116492 446.296622 
L 457.560088 444.877598 
L 458.003683 444.950881 
L 458.447279 448.851246 
L 458.890875 450.051725 
L 459.334471 447.421278 
L 459.778067 449.828789 
L 460.221662 448.156846 
L 460.665258 449.741764 
L 461.108854 447.092031 
L 461.55245 450.269356 
L 461.996046 445.956135 
L 462.439642 447.119384 
L 462.883238 450.073538 
L 463.326833 449.027813 
L 463.770429 451.683526 
L 464.214025 451.842985 
L 464.657621 447.235802 
L 465.101217 450.547007 
L 465.544812 447.428993 
L 465.988408 450.419186 
L 466.432004 450.940005 
L 466.8756 450.75108 
L 467.319196 451.772331 
L 467.762792 451.21552 
L 468.206388 449.866897 
L 468.649983 452.269745 
L 469.093579 450.240366 
L 469.537175 450.175619 
L 469.980771 448.20548 
L 470.424367 449.755716 
L 470.867963 450.234796 
L 471.311558 453.512762 
L 471.755154 452.776213 
L 472.19875 453.584615 
L 472.642346 452.614332 
L 473.085942 452.200137 
L 473.529538 449.118028 
L 473.973133 454.510362 
L 474.416729 455.052477 
L 474.860325 450.525178 
L 475.303921 454.392742 
L 475.747517 449.664147 
L 476.191113 452.256851 
L 476.634708 452.42551 
L 477.078304 449.019057 
L 477.965496 454.757463 
L 478.409092 451.74795 
L 478.852688 454.672922 
L 479.296283 454.584601 
L 480.183475 450.190752 
L 481.070667 455.351868 
L 481.514263 454.59175 
L 481.957858 451.864962 
L 482.401454 454.910909 
L 482.84505 452.819248 
L 483.288646 456.95312 
L 483.732242 457.987635 
L 484.175838 455.967021 
L 484.619433 456.172607 
L 485.063029 453.402864 
L 485.506625 453.690204 
L 485.950221 454.495316 
L 486.393817 454.364181 
L 486.837413 453.408027 
L 487.724604 457.534656 
L 488.611796 458.939209 
L 489.055392 457.182705 
L 489.498987 457.226023 
L 490.386179 455.19966 
L 490.829775 458.043545 
L 491.273371 457.174912 
L 491.716967 455.82977 
L 492.160563 459.600412 
L 492.604158 459.885037 
L 493.047754 459.843726 
L 493.49135 457.439837 
L 493.934946 458.335423 
L 494.378542 459.49163 
L 494.822137 458.602412 
L 495.265733 459.604437 
L 495.709329 461.589752 
L 496.152925 462.495127 
L 496.596521 461.099898 
L 497.483713 460.373348 
L 497.927308 457.713483 
L 498.370904 460.607357 
L 498.8145 459.206266 
L 499.258096 458.641134 
L 499.701692 459.899524 
L 500.145287 462.528216 
L 500.588883 461.286539 
L 501.032479 459.323674 
L 501.476075 460.906483 
L 501.919671 461.02612 
L 502.806863 462.657135 
L 503.250458 460.779571 
L 503.694054 463.826683 
L 504.13765 463.287726 
L 504.581246 460.502382 
L 505.024842 461.726068 
L 505.468437 461.355808 
L 505.912033 458.693503 
L 506.355629 462.705467 
L 507.242821 458.522227 
L 507.686417 461.700329 
L 508.130013 462.855711 
L 508.573608 461.883475 
L 509.017204 460.320387 
L 509.4608 460.508879 
L 509.904396 464.404397 
L 510.347992 463.398933 
L 510.791587 463.389403 
L 511.235183 462.824163 
L 511.678779 462.747814 
L 512.565971 459.888252 
L 513.009567 462.880895 
L 513.453162 460.811731 
L 513.896758 461.166291 
L 514.340354 463.022262 
L 515.227546 461.075837 
L 515.671142 462.042888 
L 516.114737 465.236991 
L 516.558333 464.584409 
L 517.001929 461.842554 
L 517.445525 460.797886 
L 517.889121 463.36565 
L 518.332717 464.77783 
L 518.776313 461.760658 
L 519.219908 462.6757 
L 519.663504 462.141699 
L 520.1071 464.207904 
L 520.550696 463.985661 
L 520.994292 460.876845 
L 521.437887 463.932172 
L 521.881483 464.222916 
L 522.325079 462.789116 
L 522.768675 463.812295 
L 523.655867 462.290615 
L 524.099462 462.016927 
L 524.543058 464.122941 
L 524.986654 462.107408 
L 525.43025 464.214464 
L 525.873846 462.783519 
L 526.317442 464.720142 
L 526.761037 463.496372 
L 527.204633 463.617785 
L 527.648229 464.431897 
L 528.091825 463.602009 
L 528.535421 462.289015 
L 528.979017 464.546679 
L 529.422613 462.553337 
L 529.866208 464.567926 
L 530.309804 463.594925 
L 530.7534 464.635409 
L 531.196996 464.698464 
L 532.084187 461.949649 
L 532.527783 464.819203 
L 532.971379 463.088314 
L 533.414975 464.807568 
L 533.858571 464.071016 
L 534.302167 466.015435 
L 534.745762 465.413816 
L 535.189358 462.595001 
L 535.632954 465.023905 
L 536.07655 463.632665 
L 536.520146 463.561139 
L 536.963742 464.913055 
L 537.407337 464.125322 
L 537.850933 463.943434 
L 538.294529 463.525748 
L 538.738125 465.050742 
L 539.181721 466.143791 
L 539.625317 465.884304 
L 540.068913 465.427159 
L 540.512508 464.126901 
L 540.956104 464.484366 
L 541.3997 463.499008 
L 541.843296 465.276808 
L 542.286892 465.473419 
L 542.730487 464.504651 
L 543.174083 464.35371 
L 543.617679 463.945339 
L 544.061275 465.331602 
L 544.504871 465.836066 
L 544.948467 464.816572 
L 545.392062 464.157983 
L 545.835658 465.422272 
L 546.279254 465.536867 
L 546.72285 464.977347 
L 547.166446 464.72905 
L 547.610042 464.887314 
L 548.053637 466.098325 
L 548.497233 465.510855 
L 548.940829 464.421997 
L 549.384425 465.645548 
L 549.828021 465.145445 
L 550.271617 465.614583 
L 550.715213 465.07185 
L 551.158808 465.740426 
L 551.602404 466.053269 
L 552.046 464.786334 
L 552.489596 465.784997 
L 552.933192 466.185894 
L 553.376787 464.890355 
L 553.820383 465.210893 
L 554.263979 465.841503 
L 554.707575 464.365682 
L 555.151171 465.953918 
L 555.594767 466.493344 
L 556.038362 465.832396 
L 556.481958 466.657198 
L 556.925554 466.149466 
L 557.36915 465.404987 
L 558.256342 465.171363 
L 558.699937 466.074155 
L 559.143533 465.179841 
L 559.587129 466.087718 
L 560.030725 466.642012 
L 560.474321 466.954879 
L 560.917917 466.867748 
L 561.361513 465.539926 
L 561.805108 465.373377 
L 562.248704 466.224572 
L 562.6923 466.600405 
L 563.135896 466.451381 
L 563.579492 466.170747 
L 564.023087 466.300737 
L 564.466683 465.841643 
L 564.910279 465.573335 
L 565.353875 466.376773 
L 565.797471 465.840775 
L 566.241067 467.069267 
L 567.128258 466.496758 
L 567.571854 466.847071 
L 568.01545 466.752157 
L 568.459046 465.717571 
L 568.902642 466.592055 
L 569.789833 465.695998 
L 570.233429 466.607373 
L 570.677025 466.153002 
L 571.120621 466.947617 
L 571.564217 466.353195 
L 572.007812 467.133849 
L 572.451408 466.731232 
L 572.895004 467.396689 
L 573.3386 467.398077 
L 573.782196 467.084694 
L 574.225792 466.976448 
L 574.669387 466.713327 
L 575.112983 466.110137 
L 575.556579 466.873799 
L 576.000175 466.293071 
L 576.887367 467.652427 
L 577.330962 467.664536 
L 577.774558 466.548086 
L 578.218154 466.350154 
L 578.66175 467.014318 
L 579.105346 466.387315 
L 579.548942 467.746407 
L 579.992537 467.819139 
L 580.436133 466.458242 
L 580.879729 466.773418 
L 581.323325 466.508645 
L 581.766921 467.71868 
L 582.210517 467.012127 
L 582.654112 466.848881 
L 583.097708 466.297321 
L 583.541304 467.221783 
L 583.9849 467.602324 
L 584.428496 467.451809 
L 584.872092 467.883155 
L 585.315687 467.701949 
L 585.759283 467.743708 
L 586.202879 468.132294 
L 586.646475 468.195286 
L 587.090071 466.882305 
L 587.533667 467.310788 
L 587.977262 467.353002 
L 588.420858 468.044535 
L 588.864454 467.33282 
L 589.30805 468.12975 
L 589.751646 467.010814 
L 590.195242 467.897372 
L 591.082433 468.373918 
L 591.526029 468.187436 
L 592.413221 467.293062 
L 592.856817 467.616329 
L 593.300412 468.783539 
L 593.744008 469.071048 
L 594.187604 469.047775 
L 594.6312 468.607011 
L 595.074796 468.794152 
L 595.518392 468.81186 
L 595.961987 468.011175 
L 596.405583 468.346452 
L 597.292775 468.732053 
L 597.736371 469.036595 
L 598.179967 468.735706 
L 598.623562 468.84617 
L 599.067158 468.308628 
L 599.510754 468.636321 
L 599.95435 468.620675 
L 600.397946 469.443405 
L 601.285137 469.17472 
L 601.728733 468.183032 
L 602.172329 469.486534 
L 602.615925 469.183328 
L 603.059521 469.147217 
L 603.503117 468.26261 
L 603.946712 469.733022 
L 605.2775 469.674377 
L 605.721096 469.284557 
L 606.164692 468.533823 
L 606.608287 469.79534 
L 607.051883 469.474481 
L 607.495479 468.62433 
L 607.939075 469.046931 
L 608.382671 469.627141 
L 608.826267 469.569736 
L 609.713458 468.760429 
L 610.157054 470.229627 
L 610.60065 470.457901 
L 611.044246 469.106467 
L 611.487842 468.82937 
L 611.931437 469.18708 
L 612.375033 469.172652 
L 612.818629 470.127229 
L 613.262225 469.070521 
L 613.705821 470.175604 
L 614.149417 470.127864 
L 614.593012 469.212233 
L 615.036608 469.961447 
L 615.480204 469.695785 
L 615.9238 468.752971 
L 616.367396 469.795801 
L 616.810992 470.069525 
L 617.254587 469.383264 
L 617.698183 470.402366 
L 618.141779 469.49204 
L 618.585375 470.550002 
L 619.028971 470.32465 
L 619.472567 469.8826 
L 619.916162 470.754342 
L 620.359758 470.715567 
L 621.690546 469.214573 
L 622.134142 470.062247 
L 622.577737 470.249186 
L 623.021333 469.237471 
L 623.908525 470.818816 
L 624.795717 470.646019 
L 625.239312 469.606646 
L 625.682908 470.318995 
L 626.126504 469.598991 
L 626.5701 470.285053 
L 627.013696 470.537813 
L 627.457292 469.764708 
L 627.900887 470.13768 
L 628.344483 470.833891 
L 628.788079 470.48871 
L 629.231675 470.653795 
L 629.675271 469.696132 
L 630.118867 470.438395 
L 630.562462 470.798168 
L 631.006058 470.902367 
L 631.449654 470.350338 
L 631.89325 470.358661 
L 632.336846 471.014678 
L 632.780442 470.68401 
L 633.224037 470.895481 
L 634.111229 471.047031 
L 634.554825 470.618582 
L 634.998421 471.136134 
L 635.885612 470.401781 
L 636.329208 471.149424 
L 636.772804 470.670884 
L 637.2164 471.37997 
L 637.659996 471.262889 
L 638.103592 470.831295 
L 638.547187 470.894102 
L 638.990783 471.473272 
L 639.434379 471.360631 
L 640.321571 470.667068 
L 640.765167 470.865707 
L 641.208762 470.731134 
L 641.652358 471.519774 
L 642.095954 471.291276 
L 642.53955 471.354219 
L 643.426742 471.243146 
L 643.870337 471.244857 
L 644.313933 471.487491 
L 644.757529 470.671783 
L 645.201125 471.222808 
L 645.644721 470.97086 
L 646.088317 471.520413 
L 646.531912 471.021808 
L 647.419104 471.76376 
L 647.8627 471.649676 
L 648.306296 471.079059 
L 648.749892 471.729483 
L 649.193487 471.106899 
L 649.637083 471.323569 
L 650.080679 471.815453 
L 650.524275 471.538357 
L 650.967871 471.973801 
L 651.411467 471.907188 
L 651.855062 471.412698 
L 652.298658 471.149918 
L 652.742254 471.672309 
L 653.18585 471.956561 
L 653.629446 471.466152 
L 654.516637 471.265936 
L 654.960233 471.837774 
L 655.403829 472.157843 
L 655.847425 472.145342 
L 656.291021 471.460785 
L 656.734617 472.049373 
L 657.178212 471.828582 
L 658.065404 471.997198 
L 658.509 471.37955 
L 658.952596 471.379536 
L 659.396192 471.544232 
L 659.839787 472.038233 
L 660.283383 471.262243 
L 660.726979 471.872688 
L 661.170575 471.457071 
L 661.614171 472.344038 
L 662.057767 472.288834 
L 662.501362 472.023099 
L 662.944958 472.011927 
L 663.388554 471.661075 
L 663.83215 471.730917 
L 664.275746 471.481946 
L 664.719342 472.051739 
L 665.162937 471.501656 
L 665.606533 472.203621 
L 666.050129 471.65804 
L 666.493725 472.463817 
L 666.937321 472.284979 
L 667.380917 472.299926 
L 667.824512 471.778415 
L 668.268108 471.611584 
L 668.711704 472.119618 
L 669.1553 471.627877 
L 669.598896 472.116367 
L 670.042492 472.073198 
L 670.486087 472.329095 
L 670.929683 471.788826 
L 671.373279 472.698738 
L 671.816875 472.878627 
L 672.260471 471.629511 
L 672.704067 472.235249 
L 673.147662 471.817331 
L 673.591258 472.407156 
L 674.034854 471.824237 
L 674.47845 472.246093 
L 675.365642 472.283142 
L 675.809237 472.833109 
L 676.252833 472.499011 
L 676.696429 472.779677 
L 677.140025 472.723992 
L 678.027217 472.158486 
L 679.8016 472.715885 
L 680.245196 472.625116 
L 680.688792 473.085665 
L 681.132387 473.307255 
L 681.575983 473.116956 
L 682.019579 473.256941 
L 682.463175 472.513032 
L 682.906771 472.72178 
L 683.350367 473.101073 
L 683.793962 473.275342 
L 684.237558 472.886312 
L 684.681154 472.66601 
L 685.12475 473.031418 
L 685.568346 472.887944 
L 686.899133 473.544186 
L 687.342729 473.332534 
L 687.786325 473.439836 
L 688.229921 473.187117 
L 688.673517 473.622951 
L 689.117112 473.591464 
L 689.560708 473.423757 
L 690.004304 473.010736 
L 690.891496 473.742766 
L 691.335092 473.729928 
L 691.778687 473.299715 
L 692.222283 473.70639 
L 692.665879 473.348156 
L 693.109475 474.081691 
L 693.553071 474.405748 
L 693.996667 474.06211 
L 694.440262 474.278809 
L 694.883858 473.886266 
L 695.327454 474.035542 
L 696.214646 473.260448 
L 696.658242 473.888954 
L 697.101837 474.038615 
L 697.989029 475.065228 
L 698.432625 474.137437 
L 698.876221 473.830984 
L 699.319817 474.650724 
L 699.763412 473.667511 
L 700.207008 474.780874 
L 700.650604 474.175247 
L 701.0942 474.730504 
L 701.981392 474.226406 
L 702.424987 474.315187 
L 702.868583 474.800039 
L 703.312179 474.566204 
L 703.755775 474.948242 
L 704.199371 475.034613 
L 705.086562 474.437564 
L 705.530158 475.287226 
L 705.973754 475.4689 
L 706.41735 475.064643 
L 707.304542 475.048699 
L 707.748137 475.405832 
L 708.635329 475.45838 
L 709.078925 475.465521 
L 709.522521 475.605053 
L 710.853308 475.476231 
L 711.296904 475.49465 
L 711.7405 475.872146 
L 712.184096 475.8758 
L 712.627692 475.498153 
L 713.071287 475.91664 
L 713.514883 475.712268 
L 713.958479 475.384038 
L 714.402075 476.194675 
L 714.845671 476.360591 
L 715.289267 475.416143 
L 715.732862 476.518231 
L 716.176458 477.053196 
L 716.620054 476.286049 
L 717.06365 476.281045 
L 717.507246 476.74647 
L 717.950842 476.454361 
L 718.394437 476.33184 
L 718.838033 476.34504 
L 719.281629 476.905541 
L 719.725225 476.892981 
L 720.612417 477.221122 
L 721.499608 476.502104 
L 721.943204 477.08675 
L 722.3868 476.726321 
L 722.830396 477.273079 
L 723.273992 477.159852 
L 723.717587 477.323753 
L 724.161183 477.11164 
L 725.048375 477.405974 
L 725.491971 476.910769 
L 725.935567 476.994663 
L 726.379162 477.191803 
L 726.822758 477.691369 
L 727.266354 477.246414 
L 727.70995 478.072222 
L 728.153546 478.136992 
L 728.597142 477.729966 
L 729.040737 477.683108 
L 730.371525 478.325693 
L 731.258717 478.796961 
L 732.145908 477.888107 
L 732.589504 478.646349 
L 733.0331 478.473055 
L 733.476696 477.884968 
L 733.920292 478.68055 
L 734.363887 478.849092 
L 735.251079 478.376308 
L 736.581867 478.825705 
L 737.025462 479.252843 
L 737.469058 479.029347 
L 738.35625 478.940424 
L 738.799846 479.301141 
L 739.243442 478.6339 
L 739.687037 479.289712 
L 740.130633 477.840958 
L 740.574229 479.441064 
L 741.017825 478.615702 
L 741.461421 479.440626 
L 741.905017 479.346914 
L 742.348612 478.634952 
L 742.792208 478.389078 
L 743.235804 479.251536 
L 743.6794 478.96273 
L 744.122996 479.581076 
L 744.566592 478.455667 
L 745.010187 480.151803 
L 745.453783 480.223972 
L 745.897379 479.584237 
L 746.340975 479.703209 
L 746.784571 479.572461 
L 747.228167 478.585691 
L 747.671762 479.691576 
L 748.115358 479.670767 
L 748.558954 478.674448 
L 749.00255 478.788103 
L 749.446146 479.46206 
L 749.889742 478.744027 
L 750.333337 480.25471 
L 750.776933 479.818952 
L 751.220529 478.790005 
L 751.664125 478.880524 
L 752.107721 478.477043 
L 752.551317 479.653814 
L 752.994912 479.249325 
L 753.438508 479.630527 
L 753.882104 480.462236 
L 754.3257 480.23258 
L 754.769296 480.527307 
L 755.212892 480.215876 
L 755.656487 479.469573 
L 756.100083 479.907738 
L 756.543679 480.184682 
L 756.987275 480.125947 
L 757.430871 479.628218 
L 757.874467 479.632524 
L 758.318062 480.776396 
L 758.761658 480.651459 
L 759.205254 480.270779 
L 759.64885 480.620304 
L 760.092446 480.465477 
L 760.536042 480.818713 
L 760.979637 480.369592 
L 761.423233 480.411444 
L 761.866829 480.775868 
L 762.310425 480.254305 
L 762.754021 481.161363 
L 763.197617 480.984231 
L 763.641212 480.421207 
L 764.084808 480.966468 
L 764.528404 480.574273 
L 764.972 481.084544 
L 765.415596 480.061492 
L 765.859192 481.287674 
L 766.302787 480.607653 
L 766.746383 481.548397 
L 767.189979 481.233798 
L 767.633575 481.374094 
L 768.077171 481.060689 
L 768.520767 481.21272 
L 768.964362 480.238478 
L 769.407958 481.344024 
L 769.851554 480.875531 
L 770.29515 479.024712 
L 770.738746 481.187001 
L 771.182342 480.359818 
L 772.069533 481.83332 
L 772.513129 481.572043 
L 772.956725 481.55907 
L 773.400321 480.500951 
L 773.843917 481.140041 
L 774.287512 480.92391 
L 774.731108 481.871364 
L 775.174704 481.421325 
L 775.6183 481.937162 
L 776.061896 481.476756 
L 776.505492 480.483707 
L 776.949087 481.358057 
L 777.392683 481.851315 
L 777.836279 481.398658 
L 778.279875 481.730026 
L 778.723471 481.867627 
L 779.167067 482.141596 
L 779.610662 481.663433 
L 780.054258 482.102693 
L 780.497854 481.445672 
L 780.94145 481.368083 
L 781.385046 481.908898 
L 781.828642 481.13111 
L 782.272237 481.905889 
L 783.159429 481.119141 
L 783.603025 481.823823 
L 784.046621 481.758688 
L 784.490217 482.441148 
L 784.933812 482.171798 
L 785.377408 482.651536 
L 785.821004 482.670752 
L 786.2646 482.128896 
L 786.708196 482.063752 
L 787.151792 481.774537 
L 787.595387 482.42934 
L 788.038983 481.776502 
L 788.482579 482.199836 
L 788.926175 481.449453 
L 789.369771 481.866794 
L 789.813367 481.376203 
L 790.256962 482.192545 
L 790.700558 482.124347 
L 791.58775 482.838673 
L 792.031346 482.572286 
L 792.474942 482.774765 
L 792.918537 481.932293 
L 793.362133 482.167654 
L 793.805729 481.85356 
L 794.249325 482.655324 
L 794.692921 482.989538 
L 795.580112 482.691726 
L 796.023708 481.948277 
L 796.467304 481.917954 
L 796.9109 482.637138 
L 797.354496 482.760173 
L 797.798092 482.577043 
L 798.241687 482.872635 
L 798.685283 482.293392 
L 799.572475 482.657622 
L 800.016071 482.094951 
L 800.459667 482.548747 
L 800.903262 481.910519 
L 801.346858 482.740353 
L 801.790454 482.713745 
L 802.23405 482.505988 
L 802.677646 482.708745 
L 803.121242 483.338313 
L 804.008433 482.727766 
L 804.452029 483.087433 
L 804.895625 482.725192 
L 805.339221 482.533196 
L 805.782817 483.084217 
L 806.226412 482.92948 
L 806.670008 483.333408 
L 807.113604 482.66262 
L 807.5572 482.812815 
L 808.000796 482.561211 
L 808.444392 482.904761 
L 808.887987 482.441813 
L 809.331583 483.095264 
L 809.775179 482.345617 
L 810.218775 483.111009 
L 810.662371 482.600913 
L 811.105967 483.101933 
L 811.549562 483.346638 
L 811.993158 482.871906 
L 812.436754 482.719583 
L 812.88035 482.344374 
L 813.323946 483.176147 
L 813.767542 482.830092 
L 814.211137 483.068887 
L 814.654733 482.990341 
L 815.098329 483.117953 
L 815.541925 482.595047 
L 815.985521 483.194115 
L 816.429117 482.934547 
L 816.872712 482.474444 
L 817.316308 483.213912 
L 817.759904 483.338456 
L 818.2035 482.886662 
L 818.647096 483.436608 
L 819.090692 482.945365 
L 819.534287 482.983508 
L 819.977883 482.886461 
L 820.421479 483.455509 
L 820.865075 482.947321 
L 821.308671 483.142186 
L 821.752267 482.978593 
L 822.195862 482.656353 
L 822.639458 483.331658 
L 823.083054 483.063902 
L 823.970246 483.077301 
L 824.413842 482.844543 
L 824.857437 483.353793 
L 825.301033 483.087177 
L 825.744629 483.58013 
L 826.188225 483.307714 
L 826.631821 482.862297 
L 827.075417 483.374747 
L 827.519012 482.988909 
L 827.962608 483.385753 
L 828.406204 482.940946 
L 828.8498 483.39413 
L 829.293396 482.906048 
L 829.736992 483.398547 
L 830.180587 483.072486 
L 830.624183 483.382708 
L 831.067779 483.115695 
L 831.511375 483.025199 
L 831.954971 483.390994 
L 832.398567 483.117837 
L 832.842162 483.453318 
L 833.285758 483.558339 
L 833.729354 483.457528 
L 834.17295 483.133305 
L 834.616546 483.182941 
L 835.060142 483.112118 
L 835.503737 483.430118 
L 835.947333 483.074137 
L 836.390929 483.442092 
L 836.834525 483.099017 
L 837.278121 483.442164 
L 837.721717 483.584942 
L 838.165312 483.298475 
L 838.608908 483.196599 
L 839.052504 483.504059 
L 839.4961 483.216948 
L 839.939696 483.572483 
L 840.383292 483.257074 
L 840.826887 483.505694 
L 842.157675 483.605039 
L 842.601271 483.349409 
L 843.044867 483.352268 
L 843.488462 483.531563 
L 843.932058 483.324446 
L 844.375654 483.551569 
L 845.262846 483.521964 
L 845.706442 483.698069 
L 846.150037 483.578939 
L 847.924421 483.562451 
L 848.811612 483.537847 
L 849.698804 483.685964 
L 851.029592 483.616672 
L 851.473187 483.288351 
L 851.916783 483.682598 
L 852.360379 483.595208 
L 853.247571 483.720134 
L 853.691167 483.485396 
L 854.578358 483.783736 
L 855.46555 483.488605 
L 855.909146 483.697851 
L 856.352742 483.538717 
L 856.796337 483.695267 
L 858.127125 483.664865 
L 859.901508 483.69958 
L 861.675892 483.580384 
L 862.563083 483.814724 
L 863.006679 483.628261 
L 863.450275 483.779 
L 863.893871 483.603643 
L 864.337467 483.768731 
L 864.781062 483.621457 
L 865.224658 483.772813 
L 865.668254 483.660844 
L 866.11185 483.779989 
L 866.555446 483.690556 
L 866.999042 483.852233 
L 867.886233 483.764668 
L 868.329829 483.697457 
L 868.773425 483.846729 
L 870.547808 483.745468 
L 870.991404 483.927136 
L 871.435 483.918772 
L 871.878596 483.700279 
L 872.322192 483.899042 
L 872.765787 483.918635 
L 873.652979 483.711547 
L 874.540171 483.75103 
L 874.983767 483.667772 
L 875.427362 483.843654 
L 875.870958 483.860816 
L 876.314554 483.709158 
L 876.75815 483.846777 
L 877.645342 483.697312 
L 878.088937 483.851028 
L 879.419725 483.69642 
L 879.863321 483.858262 
L 880.750512 483.674371 
L 881.637704 483.984289 
L 882.0813 484.008938 
L 882.524896 483.819358 
L 882.968492 483.987062 
L 883.412087 483.984968 
L 883.855683 483.826283 
L 884.742875 483.79483 
L 885.186471 483.779656 
L 886.073662 483.992382 
L 887.40445 483.809798 
L 887.848046 483.918784 
L 890.066025 483.846334 
L 890.509621 483.980182 
L 890.953217 483.84129 
L 891.840408 483.944461 
L 892.284004 484.027774 
L 893.171196 484.054795 
L 895.389175 484.108862 
L 895.832771 484.146219 
L 896.276367 483.986689 
L 896.719962 483.962167 
L 897.163558 484.119156 
L 897.607154 484.114616 
L 898.05075 483.950228 
L 898.494346 484.075183 
L 898.937942 484.022493 
L 900.268729 484.241782 
L 900.712325 484.10305 
L 902.043112 484.230581 
L 902.486708 484.090107 
L 902.930304 484.074881 
L 903.3739 484.200846 
L 903.817496 484.1078 
L 904.704687 484.227227 
L 905.148283 484.168204 
L 905.591879 484.260891 
L 906.922667 484.195717 
L 908.253454 484.267323 
L 908.69705 484.216154 
L 909.140646 484.321853 
L 909.584242 484.288481 
L 910.471433 484.465368 
L 910.915029 484.388229 
L 911.358625 484.189859 
L 911.802221 484.340513 
L 912.245817 484.270859 
L 913.133008 484.389753 
L 913.576604 484.339289 
L 914.0202 484.45983 
L 916.238179 484.362438 
L 916.681775 484.508402 
L 917.125371 484.53389 
L 917.568967 484.337174 
L 918.012562 484.483379 
L 918.899754 484.482752 
L 919.786946 484.58358 
L 922.004925 484.589552 
L 923.779308 484.668892 
L 924.6665 484.649242 
L 925.553692 484.840005 
L 925.997287 484.593139 
L 926.440883 484.624766 
L 926.884479 484.774774 
L 928.215267 484.742512 
L 929.102458 485.064067 
L 929.546054 484.86454 
L 929.98965 484.816006 
L 930.876842 484.950494 
L 932.207629 484.935976 
L 932.651225 485.060179 
L 933.094821 484.879527 
L 933.538417 485.05018 
L 934.425608 484.952273 
L 935.3128 485.280494 
L 935.756396 485.155528 
L 937.087183 485.306774 
L 937.530779 485.427955 
L 937.974375 485.26063 
L 938.417971 485.235282 
L 938.861567 485.347464 
L 941.079546 485.262802 
L 941.523142 485.495227 
L 941.966737 485.596515 
L 942.410333 485.440588 
L 943.297525 485.543963 
L 943.741121 485.40103 
L 944.184717 485.638696 
L 945.9591 485.885645 
L 946.402696 485.591039 
L 946.846292 485.796648 
L 949.064271 485.906738 
L 949.507867 485.867763 
L 949.951462 485.635906 
L 950.395058 486.032597 
L 950.838654 486.146896 
L 951.28225 485.847209 
L 951.725846 486.016988 
L 952.169442 486.026973 
L 953.056633 486.46361 
L 953.500229 486.322884 
L 953.943825 486.406039 
L 954.387421 486.295914 
L 954.831017 486.376385 
L 955.718208 486.18388 
L 957.048996 486.608015 
L 957.492592 486.751736 
L 957.936187 486.537909 
L 958.823379 486.777397 
L 959.266975 486.952664 
L 959.710571 486.603711 
L 960.597762 486.729419 
L 961.484954 487.152858 
L 961.92855 486.778127 
L 962.372146 487.004835 
L 962.815742 486.677189 
L 963.259337 487.019918 
L 963.702933 486.685115 
L 964.146529 487.132039 
L 965.033721 487.214334 
L 965.477317 487.156771 
L 965.920912 487.212927 
L 966.364508 487.011011 
L 966.808104 487.361292 
L 967.2517 487.425562 
L 967.695296 487.147484 
L 968.138892 487.467005 
L 968.582487 487.523997 
L 969.026083 487.250709 
L 970.800467 487.157024 
L 971.244062 487.347882 
L 971.687658 487.211988 
L 972.131254 487.82466 
L 972.57485 488.050195 
L 973.018446 487.039073 
L 973.462042 486.982028 
L 973.905637 487.63872 
L 974.349233 487.181495 
L 974.792829 487.686107 
L 975.236425 487.736315 
L 975.680021 487.101612 
L 976.123617 487.652436 
L 976.567212 487.595672 
L 977.010808 487.688045 
L 977.898 487.081984 
L 978.341596 487.509094 
L 978.785192 487.637845 
L 979.228787 487.908756 
L 979.672383 487.656443 
L 980.115979 487.002248 
L 980.559575 487.59248 
L 981.003171 487.764796 
L 981.446767 487.409688 
L 981.890362 487.887937 
L 982.333958 487.942869 
L 982.777554 487.462815 
L 983.22115 487.600862 
L 983.664746 488.123409 
L 984.551937 488.075596 
L 984.995533 488.126196 
L 985.439129 487.910228 
L 985.882725 488.024242 
L 986.326321 487.273381 
L 986.769917 487.825805 
L 987.213512 487.530338 
L 987.657108 487.926762 
L 988.100704 487.801075 
L 988.5443 487.863925 
L 989.431492 487.638182 
L 990.318683 488.175725 
L 990.762279 487.957957 
L 991.649471 488.122468 
L 992.093067 487.70498 
L 992.536662 488.305956 
L 992.980258 488.207299 
L 994.311046 488.350842 
L 994.754642 488.157055 
L 995.198237 488.431298 
L 995.641833 488.314569 
L 996.085429 487.880517 
L 996.529025 488.423288 
L 996.972621 488.326487 
L 997.416217 487.986079 
L 997.859812 488.030648 
L 998.303408 488.330868 
L 998.747004 488.23874 
L 999.1906 488.021285 
L 1000.077792 488.230247 
L 1000.521387 488.709804 
L 1000.964983 488.858477 
L 1001.408579 488.233495 
L 1001.852175 488.343771 
L 1002.295771 488.110156 
L 1002.739367 488.115318 
L 1003.626558 488.448819 
L 1004.070154 488.294031 
L 1004.51375 488.707916 
L 1004.957346 488.525308 
L 1005.400942 488.049052 
L 1005.844537 488.441658 
L 1006.288133 488.296465 
L 1006.731729 488.687715 
L 1007.618921 488.829423 
L 1008.506112 488.485316 
L 1008.949708 488.491841 
L 1009.393304 488.333749 
L 1009.8369 488.397826 
L 1010.280496 488.747312 
L 1010.724092 488.429264 
L 1011.167687 488.777838 
L 1011.611283 488.422823 
L 1012.054879 488.68765 
L 1012.498475 488.817594 
L 1012.942071 488.487563 
L 1013.385667 488.705236 
L 1013.829262 488.564683 
L 1015.16005 489.084693 
L 1015.603646 488.498712 
L 1016.047242 488.398401 
L 1016.490837 488.753484 
L 1016.934433 488.928547 
L 1017.378029 488.746276 
L 1017.821625 489.111463 
L 1018.265221 489.048559 
L 1018.708817 489.115323 
L 1019.152412 488.986299 
L 1019.596008 489.020134 
L 1020.4832 488.787929 
L 1020.926796 488.90651 
L 1021.370392 488.643847 
L 1021.813987 489.089398 
L 1022.257583 488.947029 
L 1022.701179 489.007692 
L 1023.144775 488.634976 
L 1023.588371 488.969231 
L 1024.031967 488.940931 
L 1024.475563 489.188515 
L 1024.919158 488.973462 
L 1025.362754 488.933242 
L 1025.80635 489.015139 
L 1026.249946 488.97856 
L 1027.137137 489.308254 
L 1028.024329 489.040799 
L 1028.467925 489.288937 
L 1029.355117 488.938785 
L 1029.798712 489.227272 
L 1030.242308 489.201347 
L 1030.685904 489.335026 
L 1031.1295 489.08161 
L 1031.573096 489.127015 
L 1032.016692 488.764599 
L 1032.460288 489.204487 
L 1032.903883 489.270399 
L 1033.791075 488.989393 
L 1034.234671 489.265667 
L 1034.678267 489.044008 
L 1035.121862 489.420935 
L 1036.009054 489.101797 
L 1036.896246 489.107419 
L 1037.339842 489.291421 
L 1037.783437 489.304464 
L 1038.227033 489.140737 
L 1039.114225 489.079977 
L 1039.557821 489.033946 
L 1040.001417 489.311328 
L 1040.445013 489.063475 
L 1040.888608 489.310677 
L 1041.7758 489.101161 
L 1042.219396 489.328022 
L 1042.662992 489.105553 
L 1043.993779 489.097322 
L 1044.437375 489.325811 
L 1044.880971 489.108047 
L 1045.324567 489.048607 
L 1045.768163 489.331931 
L 1046.211758 489.124282 
L 1046.655354 489.431665 
L 1047.09895 489.193783 
L 1047.542546 489.373911 
L 1047.986142 489.188425 
L 1048.873333 489.088524 
L 1049.316929 489.359698 
L 1049.760525 489.135583 
L 1050.204121 489.357909 
L 1050.647717 489.115978 
L 1051.091312 489.362419 
L 1051.534908 489.171072 
L 1051.978504 489.311493 
L 1052.4221 489.171205 
L 1052.865696 489.36535 
L 1053.309292 489.101015 
L 1053.752888 489.379314 
L 1054.196483 489.508554 
L 1055.083675 489.291809 
L 1055.527271 489.497811 
L 1056.414462 489.42202 
L 1056.858058 489.125162 
L 1057.301654 489.439637 
L 1058.188846 489.313256 
L 1058.632442 489.205558 
L 1059.076037 489.439953 
L 1059.519633 489.342698 
L 1059.963229 489.441606 
L 1060.406825 489.40776 
L 1060.850421 489.535791 
L 1061.737613 489.256141 
L 1062.181208 489.455858 
L 1062.624804 489.369666 
L 1063.0684 489.466438 
L 1063.511996 489.418097 
L 1063.955592 489.511947 
L 1064.842783 489.321459 
L 1065.286379 489.475925 
L 1066.173571 489.539766 
L 1066.617167 489.400781 
L 1067.060763 489.545756 
L 1067.504358 489.40146 
L 1067.947954 489.48063 
L 1068.835146 489.458439 
L 1069.278742 489.5249 
L 1069.722337 489.431413 
L 1071.496721 489.419345 
L 1076.819871 489.525505 
L 1077.263467 489.442157 
L 1077.707062 489.536411 
L 1078.594254 489.453534 
L 1079.03785 489.552085 
L 1079.481446 489.467213 
L 1079.925042 489.515273 
L 1080.368637 489.376908 
L 1080.812233 489.563053 
L 1081.255829 489.447757 
L 1081.699425 489.554506 
L 1083.030213 489.55867 
L 1086.578979 489.510432 
L 1087.022575 489.616605 
L 1087.909767 489.517164 
L 1088.353363 489.587032 
L 1088.796958 489.51394 
L 1089.240554 489.584359 
L 1089.68415 489.508844 
L 1090.571342 489.595604 
L 1091.014937 489.478984 
L 1091.458533 489.593474 
L 1094.120108 489.513543 
L 1095.0073 489.596863 
L 1096.781683 489.599016 
L 1098.112471 489.576225 
L 1099.886854 489.607245 
L 1100.774046 489.564688 
L 1106.540792 489.575326 
L 1107.427983 489.629871 
L 1108.758771 489.578442 
L 1110.533154 489.6622 
L 1113.194729 489.650248 
L 1239.175946 490.269337 
L 1239.619542 490.186878 
L 1240.950329 490.273388 
L 1245.829883 490.27814 
L 1267.566079 490.351547 
L 1268.453271 490.455203 
L 1270.227654 490.362496 
L 1290.633063 490.459511 
L 1292.407446 490.483431 
L 1295.069021 490.529679 
L 1298.617788 490.522615 
L 1307.9333 490.502603 
L 1308.376896 490.560572 
L 1309.264087 490.499911 
L 1310.151279 490.513697 
L 1311.482067 490.526815 
L 1312.812854 490.54512 
L 1315.918025 490.547867 
L 1325.233538 490.552917 
L 1333.218263 490.563702 
L 1336.323433 490.608922 
L 1337.210625 490.589929 
L 1342.977371 490.568272 
L 1345.19535 490.625629 
L 1350.962096 490.585722 
L 1353.180075 490.610828 
L 1356.285246 490.59218 
L 1358.946821 490.632455 
L 1362.051992 490.617899 
L 1364.269971 490.625609 
L 1366.044354 490.631187 
L 1369.593121 490.623898 
L 1374.472675 490.630476 
L 1404.193596 490.674856 
L 1404.193596 490.674856 
" style="fill:none;stroke:#d62728;stroke-linecap:square;stroke-width:3;"/>
   </g>
   <g id="line2d_21">
    <path clip-path="url(#pc841fac07c)" d="M 72.9625 492.70115 
L 1403.75 492.70115 
" style="fill:none;stroke:#000000;stroke-dasharray:7.4,3.2;stroke-dashoffset:0;stroke-width:2;"/>
   </g>
   <g id="patch_3">
    <path d="M 72.9625 515.4875 
L 72.9625 10.8 
" style="fill:none;stroke:#000000;stroke-linecap:square;stroke-linejoin:miter;stroke-width:0.8;"/>
   </g>
   <g id="patch_4">
    <path d="M 1403.75 515.4875 
L 1403.75 10.8 
" style="fill:none;stroke:#000000;stroke-linecap:square;stroke-linejoin:miter;stroke-width:0.8;"/>
   </g>
   <g id="patch_5">
    <path d="M 72.9625 515.4875 
L 1403.75 515.4875 
" style="fill:none;stroke:#000000;stroke-linecap:square;stroke-linejoin:miter;stroke-width:0.8;"/>
   </g>
   <g id="patch_6">
    <path d="M 72.9625 10.8 
L 1403.75 10.8 
" style="fill:none;stroke:#000000;stroke-linecap:square;stroke-linejoin:miter;stroke-width:0.8;"/>
   </g>
   <g id="patch_7">
    <path clip-path="url(#pc841fac07c)" d="M 72.9625 493.658274 
L 206.04125 493.658274 
L 206.04125 391.759301 
L 72.9625 391.759301 
z
" style="fill:none;opacity:0.5;stroke:#000000;stroke-linejoin:miter;"/>
   </g>
   <g id="patch_8">
    <path d="M 472.19875 61.26875 
Q 272.580625 226.514025 72.9625 391.759301 
" style="fill:none;opacity:0.5;stroke:#000000;stroke-linecap:round;"/>
   </g>
   <g id="patch_9">
    <path d="M 871.435 313.6125 
Q 538.738125 403.635387 206.04125 493.658274 
" style="fill:none;opacity:0.5;stroke:#000000;stroke-linecap:round;"/>
   </g>
   <g id="axes_2">
    <g id="patch_10">
     <path d="M 472.19875 313.6125 
L 871.435 313.6125 
L 871.435 61.26875 
L 472.19875 61.26875 
z
" style="fill:#ffffff;"/>
    </g>
    <g id="matplotlib.axis_3">
     <g id="xtick_8">
      <g id="line2d_22">
       <g>
        <use style="stroke:#000000;stroke-width:0.8;" x="472.19875" xlink:href="#ma8850ef873" y="313.6125"/>
       </g>
      </g>
     </g>
     <g id="xtick_9">
      <g id="line2d_23">
       <g>
        <use style="stroke:#000000;stroke-width:0.8;" x="538.738125" xlink:href="#ma8850ef873" y="313.6125"/>
       </g>
      </g>
     </g>
     <g id="xtick_10">
      <g id="line2d_24">
       <g>
        <use style="stroke:#000000;stroke-width:0.8;" x="605.2775" xlink:href="#ma8850ef873" y="313.6125"/>
       </g>
      </g>
     </g>
     <g id="xtick_11">
      <g id="line2d_25">
       <g>
        <use style="stroke:#000000;stroke-width:0.8;" x="671.816875" xlink:href="#ma8850ef873" y="313.6125"/>
       </g>
      </g>
     </g>
     <g id="xtick_12">
      <g id="line2d_26">
       <g>
        <use style="stroke:#000000;stroke-width:0.8;" x="738.35625" xlink:href="#ma8850ef873" y="313.6125"/>
       </g>
      </g>
     </g>
     <g id="xtick_13">
      <g id="line2d_27">
       <g>
        <use style="stroke:#000000;stroke-width:0.8;" x="804.895625" xlink:href="#ma8850ef873" y="313.6125"/>
       </g>
      </g>
     </g>
     <g id="xtick_14">
      <g id="line2d_28">
       <g>
        <use style="stroke:#000000;stroke-width:0.8;" x="871.435" xlink:href="#ma8850ef873" y="313.6125"/>
       </g>
      </g>
     </g>
    </g>
    <g id="matplotlib.axis_4">
     <g id="ytick_10">
      <g id="line2d_29">
       <g>
        <use style="stroke:#000000;stroke-width:0.8;" x="472.19875" xlink:href="#m34813f9dc9" y="296.007122"/>
       </g>
      </g>
     </g>
     <g id="ytick_11">
      <g id="line2d_30">
       <g>
        <use style="stroke:#000000;stroke-width:0.8;" x="472.19875" xlink:href="#m34813f9dc9" y="237.322529"/>
       </g>
      </g>
     </g>
     <g id="ytick_12">
      <g id="line2d_31">
       <g>
        <use style="stroke:#000000;stroke-width:0.8;" x="472.19875" xlink:href="#m34813f9dc9" y="178.637936"/>
       </g>
      </g>
     </g>
     <g id="ytick_13">
      <g id="line2d_32">
       <g>
        <use style="stroke:#000000;stroke-width:0.8;" x="472.19875" xlink:href="#m34813f9dc9" y="119.953343"/>
       </g>
      </g>
     </g>
     <g id="ytick_14">
      <g id="line2d_33">
       <g>
        <use style="stroke:#000000;stroke-width:0.8;" x="472.19875" xlink:href="#m34813f9dc9" y="61.26875"/>
       </g>
      </g>
     </g>
    </g>
    <g id="line2d_34">
     <path clip-path="url(#pc37e93eb45)" d="M 531.457375 -1 
L 532.084187 21.519636 
L 533.414975 41.740843 
L 534.745762 1.875422 
L 537.407337 26.465906 
L 537.858755 -1 
M 539.704479 -1 
L 540.068913 19.17754 
L 540.317107 -1 
M 542.126869 -1 
L 542.730487 72.058115 
L 545.392062 14.724572 
L 546.621309 -1 
M 546.75833 -1 
L 548.053637 46.420461 
L 549.384425 8.335456 
L 550.715213 39.703153 
L 551.590648 -1 
M 552.36153 -1 
L 553.376787 67.121825 
L 554.363409 -1 
M 555.199603 -1 
L 556.038362 39.509045 
L 556.545432 -1 
M 557.891439 -1 
L 558.699937 100.866445 
L 560.030725 29.089825 
L 561.361513 82.655814 
L 562.6923 37.936359 
L 564.023087 32.601731 
L 565.353875 84.481776 
L 566.684662 85.079178 
L 568.01545 75.936385 
L 569.346237 71.249517 
L 570.677025 86.134717 
L 572.007812 98.171802 
L 573.3386 81.529248 
L 574.669387 85.455789 
L 576.000175 98.096199 
L 577.330962 73.351022 
L 578.66175 78.608129 
L 579.992538 116.970898 
L 581.323325 109.41471 
L 582.654112 168.887097 
L 583.9849 191.145038 
L 585.315687 185.206188 
L 586.646475 176.426983 
L 587.977262 173.547865 
L 589.30805 187.728244 
L 590.638837 183.805525 
L 591.969625 171.08003 
L 593.300412 175.606331 
L 594.6312 226.076661 
L 595.961987 221.074878 
L 597.292775 177.256485 
L 598.623562 222.624143 
L 599.95435 240.181367 
L 601.285138 237.641122 
L 602.615925 254.493827 
L 603.946712 227.665022 
L 605.2775 235.343825 
L 606.608287 262.528544 
L 607.939075 202.604419 
L 609.269862 264.668522 
L 610.60065 249.396887 
L 611.931437 251.998007 
L 613.262225 270.044662 
L 614.593012 267.086423 
L 615.9238 250.464426 
L 617.254587 254.460604 
L 618.585375 228.319942 
L 619.916162 242.738693 
L 621.24695 288.21393 
L 622.577738 267.119105 
L 623.908525 253.675069 
L 625.239312 282.006361 
L 626.5701 255.535847 
L 627.900887 273.707934 
L 629.231675 252.29377 
L 630.562462 284.255634 
L 631.89325 263.709095 
L 633.224037 280.372956 
L 634.554825 284.218578 
L 635.885612 293.427083 
L 637.2164 272.790595 
L 638.547187 278.227609 
L 639.877975 238.803424 
L 641.208762 283.175737 
L 642.53955 282.270376 
L 643.870338 283.128217 
L 645.201125 289.834897 
L 646.531912 288.954612 
L 647.8627 292.815203 
L 649.193487 290.884624 
L 650.524275 298.841147 
L 651.855063 287.31956 
L 653.18585 296.076532 
L 654.516638 277.980772 
L 655.847425 295.460085 
L 657.178212 296.078488 
L 658.509 299.285357 
L 659.839787 301.535015 
L 661.170575 298.531089 
L 662.501362 285.595909 
L 663.83215 296.153504 
L 665.162937 294.908331 
L 666.493725 299.396244 
L 667.824512 291.347426 
L 669.1553 298.957256 
L 670.486087 296.372011 
L 671.816875 299.078788 
L 673.147663 301.503265 
L 674.47845 298.876043 
L 675.809237 302.305698 
L 677.140025 298.985883 
L 678.470812 301.835361 
L 679.8016 301.134897 
L 681.132387 301.924148 
L 682.463175 303.771211 
L 683.793962 304.994118 
L 685.12475 304.614205 
L 686.455537 304.051453 
L 687.786325 304.279157 
L 689.117112 303.300836 
L 690.4479 304.677369 
L 691.778687 305.602871 
L 693.109475 302.733362 
L 694.440263 304.051633 
L 695.77105 304.55243 
L 697.101837 303.892667 
L 698.432625 307.203874 
L 699.763412 306.409073 
L 701.0942 304.060279 
L 702.424987 306.935725 
L 703.755775 303.113779 
L 705.086562 306.753469 
L 706.41735 305.267989 
L 707.748137 306.300259 
L 709.078925 306.712281 
L 710.409712 307.264836 
L 711.7405 307.108215 
L 713.071287 306.535396 
L 714.402075 307.34172 
L 715.732863 308.368597 
L 718.394437 307.422923 
L 719.725225 308.612838 
L 721.056012 308.767189 
L 722.3868 308.310424 
L 723.717587 308.048699 
L 725.048375 308.810612 
L 726.379162 308.104083 
L 727.70995 308.801765 
L 729.040737 309.024895 
L 730.371525 308.908441 
L 731.702312 308.624365 
L 733.0331 309.244121 
L 734.363887 309.380379 
L 735.694675 309.17289 
L 737.025463 309.567201 
L 738.35625 309.23311 
L 739.687037 309.816491 
L 741.017825 309.921857 
L 742.348612 309.171116 
L 743.6794 309.565683 
L 745.010188 309.665408 
L 746.340975 310.04473 
L 747.671762 309.792601 
L 749.00255 309.868018 
L 750.333337 308.977662 
L 751.664125 309.768316 
L 755.656487 310.266337 
L 756.987275 310.128152 
L 758.318062 309.772236 
L 759.64885 310.195445 
L 760.979637 310.168888 
L 762.310425 310.006083 
L 763.641212 310.368541 
L 764.972 310.199754 
L 766.302788 309.369155 
L 767.633575 310.23697 
L 768.964362 309.935205 
L 770.29515 310.445583 
L 771.625937 310.330045 
L 772.956725 310.394479 
L 774.287513 309.862886 
L 775.6183 310.304725 
L 776.949087 309.908531 
L 778.279875 310.404087 
L 779.610662 310.396477 
L 780.94145 310.229499 
L 782.272237 310.328689 
L 783.603025 310.311038 
L 784.933812 310.419023 
L 786.2646 310.306482 
L 792.918537 310.62864 
L 794.249325 310.430349 
L 795.580113 310.593349 
L 796.9109 310.495004 
L 798.241687 310.579032 
L 799.572475 310.455838 
L 800.903262 310.608847 
L 802.23405 310.647363 
L 803.564837 310.559093 
L 807.5572 310.63552 
L 808.887988 310.631529 
L 810.218775 310.370389 
L 811.549562 310.637582 
L 858.127125 310.784031 
L 860.7887 310.7935 
L 872.765787 310.808619 
L 872.765787 310.808619 
" style="fill:none;stroke:#1f77b4;stroke-linecap:square;stroke-width:3;"/>
    </g>
    <g id="line2d_35">
     <path clip-path="url(#pc37e93eb45)" d="M 538.966702 -1 
L 540.068913 118.740301 
L 572.007812 118.740301 
L 573.3386 232.278794 
L 605.2775 232.278794 
L 606.608287 281.121999 
L 638.547187 281.121999 
L 639.877975 305.452453 
L 671.816875 305.452453 
L 673.147663 308.707336 
L 705.086562 308.707336 
L 706.41735 309.788045 
L 738.35625 309.788045 
L 739.687037 310.262089 
L 771.625937 310.262089 
L 772.956725 310.56033 
L 838.165313 310.599558 
L 840.826887 310.675884 
L 1071.053125 310.67827 
L 1071.053125 310.67827 
" style="fill:none;stroke:#ff7f0e;stroke-linecap:square;stroke-width:3;"/>
    </g>
    <g id="line2d_36">
     <path clip-path="url(#pc37e93eb45)" d="M 538.896296 -1 
L 540.068913 208.644168 
L 572.007812 208.644169 
L 573.3386 257.616971 
L 605.2775 257.616972 
L 606.608287 299.779499 
L 638.547187 299.779498 
L 639.877975 308.445593 
L 671.816875 308.445593 
L 673.147663 310.162881 
L 705.086562 310.162881 
L 706.41735 310.443074 
L 771.625937 310.551697 
L 774.287513 310.611053 
L 1039.114225 310.678235 
L 1039.114225 310.678235 
" style="fill:none;stroke:#2ca02c;stroke-linecap:square;stroke-width:3;"/>
    </g>
    <g id="line2d_37">
     <path clip-path="url(#pc37e93eb45)" d="M 0 0 
" style="fill:none;stroke:#d62728;stroke-linecap:square;stroke-width:3;"/>
    </g>
    <g id="line2d_38">
     <path clip-path="url(#pc37e93eb45)" d="M 472.19875 311.242267 
L 871.435 311.242267 
" style="fill:none;stroke:#000000;stroke-dasharray:7.4,3.2;stroke-dashoffset:0;stroke-width:2;"/>
    </g>
    <g id="patch_11">
     <path d="M 472.19875 313.6125 
L 472.19875 61.26875 
" style="fill:none;stroke:#000000;stroke-linecap:square;stroke-linejoin:miter;stroke-width:0.8;"/>
    </g>
    <g id="patch_12">
     <path d="M 871.435 313.6125 
L 871.435 61.26875 
" style="fill:none;stroke:#000000;stroke-linecap:square;stroke-linejoin:miter;stroke-width:0.8;"/>
    </g>
    <g id="patch_13">
     <path d="M 472.19875 313.6125 
L 871.435 313.6125 
" style="fill:none;stroke:#000000;stroke-linecap:square;stroke-linejoin:miter;stroke-width:0.8;"/>
    </g>
    <g id="patch_14">
     <path d="M 472.19875 61.26875 
L 871.435 61.26875 
" style="fill:none;stroke:#000000;stroke-linecap:square;stroke-linejoin:miter;stroke-width:0.8;"/>
    </g>
   </g>
   <g id="legend_1">
    <g id="patch_15">
     <path d="M 1134.8675 206.1375 
L 1386.95 206.1375 
Q 1391.75 206.1375 1391.75 201.3375 
L 1391.75 27.6 
Q 1391.75 22.8 1386.95 22.8 
L 1134.8675 22.8 
Q 1130.0675 22.8 1130.0675 27.6 
L 1130.0675 201.3375 
Q 1130.0675 206.1375 1134.8675 206.1375 
z
" style="fill:#ffffff;opacity:0.8;stroke:#cccccc;stroke-linejoin:miter;"/>
    </g>
    <g id="line2d_39">
     <path d="M 1139.6675 42.23625 
L 1187.6675 42.23625 
" style="fill:none;stroke:#1f77b4;stroke-linecap:square;stroke-width:3;"/>
    </g>
    <g id="line2d_40"/>
    <g id="text_19">
     <!-- COBYLA -->
     <g transform="translate(1206.8675 50.63625)scale(0.24 -0.24)">
      <defs>
       <path d="M 4122 4306 
L 4122 3641 
Q 3803 3938 3442 4084 
Q 3081 4231 2675 4231 
Q 1875 4231 1450 3742 
Q 1025 3253 1025 2328 
Q 1025 1406 1450 917 
Q 1875 428 2675 428 
Q 3081 428 3442 575 
Q 3803 722 4122 1019 
L 4122 359 
Q 3791 134 3420 21 
Q 3050 -91 2638 -91 
Q 1578 -91 968 557 
Q 359 1206 359 2328 
Q 359 3453 968 4101 
Q 1578 4750 2638 4750 
Q 3056 4750 3426 4639 
Q 3797 4528 4122 4306 
z
" id="DejaVuSans-43" transform="scale(0.015625)"/>
       <path d="M 2522 4238 
Q 1834 4238 1429 3725 
Q 1025 3213 1025 2328 
Q 1025 1447 1429 934 
Q 1834 422 2522 422 
Q 3209 422 3611 934 
Q 4013 1447 4013 2328 
Q 4013 3213 3611 3725 
Q 3209 4238 2522 4238 
z
M 2522 4750 
Q 3503 4750 4090 4092 
Q 4678 3434 4678 2328 
Q 4678 1225 4090 567 
Q 3503 -91 2522 -91 
Q 1538 -91 948 565 
Q 359 1222 359 2328 
Q 359 3434 948 4092 
Q 1538 4750 2522 4750 
z
" id="DejaVuSans-4f" transform="scale(0.015625)"/>
       <path d="M 1259 2228 
L 1259 519 
L 2272 519 
Q 2781 519 3026 730 
Q 3272 941 3272 1375 
Q 3272 1813 3026 2020 
Q 2781 2228 2272 2228 
L 1259 2228 
z
M 1259 4147 
L 1259 2741 
L 2194 2741 
Q 2656 2741 2882 2914 
Q 3109 3088 3109 3444 
Q 3109 3797 2882 3972 
Q 2656 4147 2194 4147 
L 1259 4147 
z
M 628 4666 
L 2241 4666 
Q 2963 4666 3353 4366 
Q 3744 4066 3744 3513 
Q 3744 3084 3544 2831 
Q 3344 2578 2956 2516 
Q 3422 2416 3680 2098 
Q 3938 1781 3938 1306 
Q 3938 681 3513 340 
Q 3088 0 2303 0 
L 628 0 
L 628 4666 
z
" id="DejaVuSans-42" transform="scale(0.015625)"/>
       <path d="M -13 4666 
L 666 4666 
L 1959 2747 
L 3244 4666 
L 3922 4666 
L 2272 2222 
L 2272 0 
L 1638 0 
L 1638 2222 
L -13 4666 
z
" id="DejaVuSans-59" transform="scale(0.015625)"/>
       <path d="M 628 4666 
L 1259 4666 
L 1259 531 
L 3531 531 
L 3531 0 
L 628 0 
L 628 4666 
z
" id="DejaVuSans-4c" transform="scale(0.015625)"/>
       <path d="M 2188 4044 
L 1331 1722 
L 3047 1722 
L 2188 4044 
z
M 1831 4666 
L 2547 4666 
L 4325 0 
L 3669 0 
L 3244 1197 
L 1141 1197 
L 716 0 
L 50 0 
L 1831 4666 
z
" id="DejaVuSans-41" transform="scale(0.015625)"/>
      </defs>
      <use xlink:href="#DejaVuSans-43"/>
      <use x="69.824219" xlink:href="#DejaVuSans-4f"/>
      <use x="148.535156" xlink:href="#DejaVuSans-42"/>
      <use x="211.638672" xlink:href="#DejaVuSans-59"/>
      <use x="272.722656" xlink:href="#DejaVuSans-4c"/>
      <use x="330.685547" xlink:href="#DejaVuSans-41"/>
     </g>
    </g>
    <g id="line2d_41">
     <path d="M 1139.6675 77.46375 
L 1187.6675 77.46375 
" style="fill:none;stroke:#ff7f0e;stroke-linecap:square;stroke-width:3;"/>
    </g>
    <g id="line2d_42"/>
    <g id="text_20">
     <!-- L-BFGS-B -->
     <g transform="translate(1206.8675 85.86375)scale(0.24 -0.24)">
      <defs>
       <path d="M 313 2009 
L 1997 2009 
L 1997 1497 
L 313 1497 
L 313 2009 
z
" id="DejaVuSans-2d" transform="scale(0.015625)"/>
       <path d="M 628 4666 
L 3309 4666 
L 3309 4134 
L 1259 4134 
L 1259 2759 
L 3109 2759 
L 3109 2228 
L 1259 2228 
L 1259 0 
L 628 0 
L 628 4666 
z
" id="DejaVuSans-46" transform="scale(0.015625)"/>
       <path d="M 3809 666 
L 3809 1919 
L 2778 1919 
L 2778 2438 
L 4434 2438 
L 4434 434 
Q 4069 175 3628 42 
Q 3188 -91 2688 -91 
Q 1594 -91 976 548 
Q 359 1188 359 2328 
Q 359 3472 976 4111 
Q 1594 4750 2688 4750 
Q 3144 4750 3555 4637 
Q 3966 4525 4313 4306 
L 4313 3634 
Q 3963 3931 3569 4081 
Q 3175 4231 2741 4231 
Q 1884 4231 1454 3753 
Q 1025 3275 1025 2328 
Q 1025 1384 1454 906 
Q 1884 428 2741 428 
Q 3075 428 3337 486 
Q 3600 544 3809 666 
z
" id="DejaVuSans-47" transform="scale(0.015625)"/>
       <path d="M 3425 4513 
L 3425 3897 
Q 3066 4069 2747 4153 
Q 2428 4238 2131 4238 
Q 1616 4238 1336 4038 
Q 1056 3838 1056 3469 
Q 1056 3159 1242 3001 
Q 1428 2844 1947 2747 
L 2328 2669 
Q 3034 2534 3370 2195 
Q 3706 1856 3706 1288 
Q 3706 609 3251 259 
Q 2797 -91 1919 -91 
Q 1588 -91 1214 -16 
Q 841 59 441 206 
L 441 856 
Q 825 641 1194 531 
Q 1563 422 1919 422 
Q 2459 422 2753 634 
Q 3047 847 3047 1241 
Q 3047 1584 2836 1778 
Q 2625 1972 2144 2069 
L 1759 2144 
Q 1053 2284 737 2584 
Q 422 2884 422 3419 
Q 422 4038 858 4394 
Q 1294 4750 2059 4750 
Q 2388 4750 2728 4690 
Q 3069 4631 3425 4513 
z
" id="DejaVuSans-53" transform="scale(0.015625)"/>
      </defs>
      <use xlink:href="#DejaVuSans-4c"/>
      <use x="53.962891" xlink:href="#DejaVuSans-2d"/>
      <use x="86.421875" xlink:href="#DejaVuSans-42"/>
      <use x="155.025391" xlink:href="#DejaVuSans-46"/>
      <use x="212.544922" xlink:href="#DejaVuSans-47"/>
      <use x="290.035156" xlink:href="#DejaVuSans-53"/>
      <use x="353.511719" xlink:href="#DejaVuSans-2d"/>
      <use x="385.970703" xlink:href="#DejaVuSans-42"/>
     </g>
    </g>
    <g id="line2d_43">
     <path d="M 1139.6675 112.69125 
L 1187.6675 112.69125 
" style="fill:none;stroke:#2ca02c;stroke-linecap:square;stroke-width:3;"/>
    </g>
    <g id="line2d_44"/>
    <g id="text_21">
     <!-- SLSQP -->
     <g transform="translate(1206.8675 121.09125)scale(0.24 -0.24)">
      <defs>
       <path d="M 1259 4147 
L 1259 2394 
L 2053 2394 
Q 2494 2394 2734 2622 
Q 2975 2850 2975 3272 
Q 2975 3691 2734 3919 
Q 2494 4147 2053 4147 
L 1259 4147 
z
M 628 4666 
L 2053 4666 
Q 2838 4666 3239 4311 
Q 3641 3956 3641 3272 
Q 3641 2581 3239 2228 
Q 2838 1875 2053 1875 
L 1259 1875 
L 1259 0 
L 628 0 
L 628 4666 
z
" id="DejaVuSans-50" transform="scale(0.015625)"/>
      </defs>
      <use xlink:href="#DejaVuSans-53"/>
      <use x="63.476562" xlink:href="#DejaVuSans-4c"/>
      <use x="119.189453" xlink:href="#DejaVuSans-53"/>
      <use x="182.666016" xlink:href="#DejaVuSans-51"/>
      <use x="261.376953" xlink:href="#DejaVuSans-50"/>
     </g>
    </g>
    <g id="line2d_45">
     <path d="M 1139.6675 147.91875 
L 1187.6675 147.91875 
" style="fill:none;stroke:#d62728;stroke-linecap:square;stroke-width:3;"/>
    </g>
    <g id="line2d_46"/>
    <g id="text_22">
     <!-- NELDER-MEAD -->
     <g transform="translate(1206.8675 156.31875)scale(0.24 -0.24)">
      <defs>
       <path d="M 628 4666 
L 1478 4666 
L 3547 763 
L 3547 4666 
L 4159 4666 
L 4159 0 
L 3309 0 
L 1241 3903 
L 1241 0 
L 628 0 
L 628 4666 
z
" id="DejaVuSans-4e" transform="scale(0.015625)"/>
       <path d="M 1259 4147 
L 1259 519 
L 2022 519 
Q 2988 519 3436 956 
Q 3884 1394 3884 2338 
Q 3884 3275 3436 3711 
Q 2988 4147 2022 4147 
L 1259 4147 
z
M 628 4666 
L 1925 4666 
Q 3281 4666 3915 4102 
Q 4550 3538 4550 2338 
Q 4550 1131 3912 565 
Q 3275 0 1925 0 
L 628 0 
L 628 4666 
z
" id="DejaVuSans-44" transform="scale(0.015625)"/>
       <path d="M 2841 2188 
Q 3044 2119 3236 1894 
Q 3428 1669 3622 1275 
L 4263 0 
L 3584 0 
L 2988 1197 
Q 2756 1666 2539 1819 
Q 2322 1972 1947 1972 
L 1259 1972 
L 1259 0 
L 628 0 
L 628 4666 
L 2053 4666 
Q 2853 4666 3247 4331 
Q 3641 3997 3641 3322 
Q 3641 2881 3436 2590 
Q 3231 2300 2841 2188 
z
M 1259 4147 
L 1259 2491 
L 2053 2491 
Q 2509 2491 2742 2702 
Q 2975 2913 2975 3322 
Q 2975 3731 2742 3939 
Q 2509 4147 2053 4147 
L 1259 4147 
z
" id="DejaVuSans-52" transform="scale(0.015625)"/>
       <path d="M 628 4666 
L 1569 4666 
L 2759 1491 
L 3956 4666 
L 4897 4666 
L 4897 0 
L 4281 0 
L 4281 4097 
L 3078 897 
L 2444 897 
L 1241 4097 
L 1241 0 
L 628 0 
L 628 4666 
z
" id="DejaVuSans-4d" transform="scale(0.015625)"/>
      </defs>
      <use xlink:href="#DejaVuSans-4e"/>
      <use x="74.804688" xlink:href="#DejaVuSans-45"/>
      <use x="137.988281" xlink:href="#DejaVuSans-4c"/>
      <use x="193.701172" xlink:href="#DejaVuSans-44"/>
      <use x="270.703125" xlink:href="#DejaVuSans-45"/>
      <use x="333.886719" xlink:href="#DejaVuSans-52"/>
      <use x="399.369141" xlink:href="#DejaVuSans-2d"/>
      <use x="435.453125" xlink:href="#DejaVuSans-4d"/>
      <use x="521.732422" xlink:href="#DejaVuSans-45"/>
      <use x="584.916016" xlink:href="#DejaVuSans-41"/>
      <use x="653.324219" xlink:href="#DejaVuSans-44"/>
     </g>
    </g>
    <g id="line2d_47">
     <path d="M 1139.6675 183.14625 
L 1187.6675 183.14625 
" style="fill:none;stroke:#000000;stroke-dasharray:7.4,3.2;stroke-dashoffset:0;stroke-width:2;"/>
    </g>
    <g id="line2d_48"/>
    <g id="text_23">
     <!-- HT -->
     <g transform="translate(1206.8675 191.54625)scale(0.24 -0.24)">
      <defs>
       <path d="M 628 4666 
L 1259 4666 
L 1259 2753 
L 3553 2753 
L 3553 4666 
L 4184 4666 
L 4184 0 
L 3553 0 
L 3553 2222 
L 1259 2222 
L 1259 0 
L 628 0 
L 628 4666 
z
" id="DejaVuSans-48" transform="scale(0.015625)"/>
       <path d="M -19 4666 
L 3928 4666 
L 3928 4134 
L 2272 4134 
L 2272 0 
L 1638 0 
L 1638 4134 
L -19 4134 
L -19 4666 
z
" id="DejaVuSans-54" transform="scale(0.015625)"/>
      </defs>
      <use xlink:href="#DejaVuSans-48"/>
      <use x="75.195312" xlink:href="#DejaVuSans-54"/>
     </g>
    </g>
   </g>
  </g>
 </g>
 <defs>
  <clipPath id="pc841fac07c">
   <rect height="504.6875" width="1330.7875" x="72.9625" y="10.8"/>
  </clipPath>
  <clipPath id="pc37e93eb45">
   <rect height="252.34375" width="399.23625" x="472.19875" y="61.26875"/>
  </clipPath>
 </defs>
</svg>
