<?xml version="1.0" encoding="utf-8" standalone="no"?>
<!DOCTYPE svg PUBLIC "-//W3C//DTD SVG 1.1//EN"
  "http://www.w3.org/Graphics/SVG/1.1/DTD/svg11.dtd">
<svg height="576pt" version="1.1" viewBox="0 0 1440 576" width="1440pt" xmlns="http://www.w3.org/2000/svg" xmlns:xlink="http://www.w3.org/1999/xlink">
 <metadata>
  <rdf:RDF xmlns:cc="http://creativecommons.org/ns#" xmlns:dc="http://purl.org/dc/elements/1.1/" xmlns:rdf="http://www.w3.org/1999/02/22-rdf-syntax-ns#">
   <cc:Work>
    <dc:type rdf:resource="http://purl.org/dc/dcmitype/StillImage"/>
    <dc:date>2021-07-27T16:21:31.068107</dc:date>
    <dc:format>image/svg+xml</dc:format>
    <dc:creator>
     <cc:Agent>
      <dc:title>Matplotlib v3.4.2, https://matplotlib.org/</dc:title>
     </cc:Agent>
    </dc:creator>
   </cc:Work>
  </rdf:RDF>
 </metadata>
 <defs>
  <style type="text/css">*{stroke-linecap:butt;stroke-linejoin:round;}</style>
 </defs>
 <g id="figure_1">
  <g id="patch_1">
   <path d="M 0 576 
L 1440 576 
L 1440 0 
L 0 0 
z
" style="fill:none;"/>
  </g>
  <g id="axes_1">
   <g id="patch_2">
    <path d="M 83.195 507.745 
L 1398.66 507.745 
L 1398.66 10.8 
L 83.195 10.8 
z
" style="fill:#ffffff;"/>
   </g>
   <g id="matplotlib.axis_1">
    <g id="xtick_1">
     <g id="line2d_1">
      <defs>
       <path d="M 0 0 
L 0 3.5 
" id="m6b20bf1d1d" style="stroke:#000000;stroke-width:0.8;"/>
      </defs>
      <g>
       <use style="stroke:#000000;stroke-width:0.8;" x="83.195" xlink:href="#m6b20bf1d1d" y="507.745"/>
      </g>
     </g>
     <g id="text_1">
      <!-- 0 -->
      <g transform="translate(75.56 532.98125)scale(0.24 -0.24)">
       <defs>
        <path d="M 2034 4250 
Q 1547 4250 1301 3770 
Q 1056 3291 1056 2328 
Q 1056 1369 1301 889 
Q 1547 409 2034 409 
Q 2525 409 2770 889 
Q 3016 1369 3016 2328 
Q 3016 3291 2770 3770 
Q 2525 4250 2034 4250 
z
M 2034 4750 
Q 2819 4750 3233 4129 
Q 3647 3509 3647 2328 
Q 3647 1150 3233 529 
Q 2819 -91 2034 -91 
Q 1250 -91 836 529 
Q 422 1150 422 2328 
Q 422 3509 836 4129 
Q 1250 4750 2034 4750 
z
" id="DejaVuSans-30" transform="scale(0.015625)"/>
       </defs>
       <use xlink:href="#DejaVuSans-30"/>
      </g>
     </g>
    </g>
    <g id="xtick_2">
     <g id="line2d_2">
      <g>
       <use style="stroke:#000000;stroke-width:0.8;" x="302.439167" xlink:href="#m6b20bf1d1d" y="507.745"/>
      </g>
     </g>
     <g id="text_2">
      <!-- 500 -->
      <g transform="translate(279.534167 532.98125)scale(0.24 -0.24)">
       <defs>
        <path d="M 691 4666 
L 3169 4666 
L 3169 4134 
L 1269 4134 
L 1269 2991 
Q 1406 3038 1543 3061 
Q 1681 3084 1819 3084 
Q 2600 3084 3056 2656 
Q 3513 2228 3513 1497 
Q 3513 744 3044 326 
Q 2575 -91 1722 -91 
Q 1428 -91 1123 -41 
Q 819 9 494 109 
L 494 744 
Q 775 591 1075 516 
Q 1375 441 1709 441 
Q 2250 441 2565 725 
Q 2881 1009 2881 1497 
Q 2881 1984 2565 2268 
Q 2250 2553 1709 2553 
Q 1456 2553 1204 2497 
Q 953 2441 691 2322 
L 691 4666 
z
" id="DejaVuSans-35" transform="scale(0.015625)"/>
       </defs>
       <use xlink:href="#DejaVuSans-35"/>
       <use x="63.623047" xlink:href="#DejaVuSans-30"/>
       <use x="127.246094" xlink:href="#DejaVuSans-30"/>
      </g>
     </g>
    </g>
    <g id="xtick_3">
     <g id="line2d_3">
      <g>
       <use style="stroke:#000000;stroke-width:0.8;" x="521.683333" xlink:href="#m6b20bf1d1d" y="507.745"/>
      </g>
     </g>
     <g id="text_3">
      <!-- 1000 -->
      <g transform="translate(491.143333 532.98125)scale(0.24 -0.24)">
       <defs>
        <path d="M 794 531 
L 1825 531 
L 1825 4091 
L 703 3866 
L 703 4441 
L 1819 4666 
L 2450 4666 
L 2450 531 
L 3481 531 
L 3481 0 
L 794 0 
L 794 531 
z
" id="DejaVuSans-31" transform="scale(0.015625)"/>
       </defs>
       <use xlink:href="#DejaVuSans-31"/>
       <use x="63.623047" xlink:href="#DejaVuSans-30"/>
       <use x="127.246094" xlink:href="#DejaVuSans-30"/>
       <use x="190.869141" xlink:href="#DejaVuSans-30"/>
      </g>
     </g>
    </g>
    <g id="xtick_4">
     <g id="line2d_4">
      <g>
       <use style="stroke:#000000;stroke-width:0.8;" x="740.9275" xlink:href="#m6b20bf1d1d" y="507.745"/>
      </g>
     </g>
     <g id="text_4">
      <!-- 1500 -->
      <g transform="translate(710.3875 532.98125)scale(0.24 -0.24)">
       <use xlink:href="#DejaVuSans-31"/>
       <use x="63.623047" xlink:href="#DejaVuSans-35"/>
       <use x="127.246094" xlink:href="#DejaVuSans-30"/>
       <use x="190.869141" xlink:href="#DejaVuSans-30"/>
      </g>
     </g>
    </g>
    <g id="xtick_5">
     <g id="line2d_5">
      <g>
       <use style="stroke:#000000;stroke-width:0.8;" x="960.171667" xlink:href="#m6b20bf1d1d" y="507.745"/>
      </g>
     </g>
     <g id="text_5">
      <!-- 2000 -->
      <g transform="translate(929.631667 532.98125)scale(0.24 -0.24)">
       <defs>
        <path d="M 1228 531 
L 3431 531 
L 3431 0 
L 469 0 
L 469 531 
Q 828 903 1448 1529 
Q 2069 2156 2228 2338 
Q 2531 2678 2651 2914 
Q 2772 3150 2772 3378 
Q 2772 3750 2511 3984 
Q 2250 4219 1831 4219 
Q 1534 4219 1204 4116 
Q 875 4013 500 3803 
L 500 4441 
Q 881 4594 1212 4672 
Q 1544 4750 1819 4750 
Q 2544 4750 2975 4387 
Q 3406 4025 3406 3419 
Q 3406 3131 3298 2873 
Q 3191 2616 2906 2266 
Q 2828 2175 2409 1742 
Q 1991 1309 1228 531 
z
" id="DejaVuSans-32" transform="scale(0.015625)"/>
       </defs>
       <use xlink:href="#DejaVuSans-32"/>
       <use x="63.623047" xlink:href="#DejaVuSans-30"/>
       <use x="127.246094" xlink:href="#DejaVuSans-30"/>
       <use x="190.869141" xlink:href="#DejaVuSans-30"/>
      </g>
     </g>
    </g>
    <g id="xtick_6">
     <g id="line2d_6">
      <g>
       <use style="stroke:#000000;stroke-width:0.8;" x="1179.415833" xlink:href="#m6b20bf1d1d" y="507.745"/>
      </g>
     </g>
     <g id="text_6">
      <!-- 2500 -->
      <g transform="translate(1148.875833 532.98125)scale(0.24 -0.24)">
       <use xlink:href="#DejaVuSans-32"/>
       <use x="63.623047" xlink:href="#DejaVuSans-35"/>
       <use x="127.246094" xlink:href="#DejaVuSans-30"/>
       <use x="190.869141" xlink:href="#DejaVuSans-30"/>
      </g>
     </g>
    </g>
    <g id="xtick_7">
     <g id="line2d_7">
      <g>
       <use style="stroke:#000000;stroke-width:0.8;" x="1398.66" xlink:href="#m6b20bf1d1d" y="507.745"/>
      </g>
     </g>
     <g id="text_7">
      <!-- 3000 -->
      <g transform="translate(1368.12 532.98125)scale(0.24 -0.24)">
       <defs>
        <path d="M 2597 2516 
Q 3050 2419 3304 2112 
Q 3559 1806 3559 1356 
Q 3559 666 3084 287 
Q 2609 -91 1734 -91 
Q 1441 -91 1130 -33 
Q 819 25 488 141 
L 488 750 
Q 750 597 1062 519 
Q 1375 441 1716 441 
Q 2309 441 2620 675 
Q 2931 909 2931 1356 
Q 2931 1769 2642 2001 
Q 2353 2234 1838 2234 
L 1294 2234 
L 1294 2753 
L 1863 2753 
Q 2328 2753 2575 2939 
Q 2822 3125 2822 3475 
Q 2822 3834 2567 4026 
Q 2313 4219 1838 4219 
Q 1578 4219 1281 4162 
Q 984 4106 628 3988 
L 628 4550 
Q 988 4650 1302 4700 
Q 1616 4750 1894 4750 
Q 2613 4750 3031 4423 
Q 3450 4097 3450 3541 
Q 3450 3153 3228 2886 
Q 3006 2619 2597 2516 
z
" id="DejaVuSans-33" transform="scale(0.015625)"/>
       </defs>
       <use xlink:href="#DejaVuSans-33"/>
       <use x="63.623047" xlink:href="#DejaVuSans-30"/>
       <use x="127.246094" xlink:href="#DejaVuSans-30"/>
       <use x="190.869141" xlink:href="#DejaVuSans-30"/>
      </g>
     </g>
    </g>
    <g id="text_8">
     <!-- iterations -->
     <g transform="translate(683.981875 560.20875)scale(0.24 -0.24)">
      <defs>
       <path d="M 603 3500 
L 1178 3500 
L 1178 0 
L 603 0 
L 603 3500 
z
M 603 4863 
L 1178 4863 
L 1178 4134 
L 603 4134 
L 603 4863 
z
" id="DejaVuSans-69" transform="scale(0.015625)"/>
       <path d="M 1172 4494 
L 1172 3500 
L 2356 3500 
L 2356 3053 
L 1172 3053 
L 1172 1153 
Q 1172 725 1289 603 
Q 1406 481 1766 481 
L 2356 481 
L 2356 0 
L 1766 0 
Q 1100 0 847 248 
Q 594 497 594 1153 
L 594 3053 
L 172 3053 
L 172 3500 
L 594 3500 
L 594 4494 
L 1172 4494 
z
" id="DejaVuSans-74" transform="scale(0.015625)"/>
       <path d="M 3597 1894 
L 3597 1613 
L 953 1613 
Q 991 1019 1311 708 
Q 1631 397 2203 397 
Q 2534 397 2845 478 
Q 3156 559 3463 722 
L 3463 178 
Q 3153 47 2828 -22 
Q 2503 -91 2169 -91 
Q 1331 -91 842 396 
Q 353 884 353 1716 
Q 353 2575 817 3079 
Q 1281 3584 2069 3584 
Q 2775 3584 3186 3129 
Q 3597 2675 3597 1894 
z
M 3022 2063 
Q 3016 2534 2758 2815 
Q 2500 3097 2075 3097 
Q 1594 3097 1305 2825 
Q 1016 2553 972 2059 
L 3022 2063 
z
" id="DejaVuSans-65" transform="scale(0.015625)"/>
       <path d="M 2631 2963 
Q 2534 3019 2420 3045 
Q 2306 3072 2169 3072 
Q 1681 3072 1420 2755 
Q 1159 2438 1159 1844 
L 1159 0 
L 581 0 
L 581 3500 
L 1159 3500 
L 1159 2956 
Q 1341 3275 1631 3429 
Q 1922 3584 2338 3584 
Q 2397 3584 2469 3576 
Q 2541 3569 2628 3553 
L 2631 2963 
z
" id="DejaVuSans-72" transform="scale(0.015625)"/>
       <path d="M 2194 1759 
Q 1497 1759 1228 1600 
Q 959 1441 959 1056 
Q 959 750 1161 570 
Q 1363 391 1709 391 
Q 2188 391 2477 730 
Q 2766 1069 2766 1631 
L 2766 1759 
L 2194 1759 
z
M 3341 1997 
L 3341 0 
L 2766 0 
L 2766 531 
Q 2569 213 2275 61 
Q 1981 -91 1556 -91 
Q 1019 -91 701 211 
Q 384 513 384 1019 
Q 384 1609 779 1909 
Q 1175 2209 1959 2209 
L 2766 2209 
L 2766 2266 
Q 2766 2663 2505 2880 
Q 2244 3097 1772 3097 
Q 1472 3097 1187 3025 
Q 903 2953 641 2809 
L 641 3341 
Q 956 3463 1253 3523 
Q 1550 3584 1831 3584 
Q 2591 3584 2966 3190 
Q 3341 2797 3341 1997 
z
" id="DejaVuSans-61" transform="scale(0.015625)"/>
       <path d="M 1959 3097 
Q 1497 3097 1228 2736 
Q 959 2375 959 1747 
Q 959 1119 1226 758 
Q 1494 397 1959 397 
Q 2419 397 2687 759 
Q 2956 1122 2956 1747 
Q 2956 2369 2687 2733 
Q 2419 3097 1959 3097 
z
M 1959 3584 
Q 2709 3584 3137 3096 
Q 3566 2609 3566 1747 
Q 3566 888 3137 398 
Q 2709 -91 1959 -91 
Q 1206 -91 779 398 
Q 353 888 353 1747 
Q 353 2609 779 3096 
Q 1206 3584 1959 3584 
z
" id="DejaVuSans-6f" transform="scale(0.015625)"/>
       <path d="M 3513 2113 
L 3513 0 
L 2938 0 
L 2938 2094 
Q 2938 2591 2744 2837 
Q 2550 3084 2163 3084 
Q 1697 3084 1428 2787 
Q 1159 2491 1159 1978 
L 1159 0 
L 581 0 
L 581 3500 
L 1159 3500 
L 1159 2956 
Q 1366 3272 1645 3428 
Q 1925 3584 2291 3584 
Q 2894 3584 3203 3211 
Q 3513 2838 3513 2113 
z
" id="DejaVuSans-6e" transform="scale(0.015625)"/>
       <path d="M 2834 3397 
L 2834 2853 
Q 2591 2978 2328 3040 
Q 2066 3103 1784 3103 
Q 1356 3103 1142 2972 
Q 928 2841 928 2578 
Q 928 2378 1081 2264 
Q 1234 2150 1697 2047 
L 1894 2003 
Q 2506 1872 2764 1633 
Q 3022 1394 3022 966 
Q 3022 478 2636 193 
Q 2250 -91 1575 -91 
Q 1294 -91 989 -36 
Q 684 19 347 128 
L 347 722 
Q 666 556 975 473 
Q 1284 391 1588 391 
Q 1994 391 2212 530 
Q 2431 669 2431 922 
Q 2431 1156 2273 1281 
Q 2116 1406 1581 1522 
L 1381 1569 
Q 847 1681 609 1914 
Q 372 2147 372 2553 
Q 372 3047 722 3315 
Q 1072 3584 1716 3584 
Q 2034 3584 2315 3537 
Q 2597 3491 2834 3397 
z
" id="DejaVuSans-73" transform="scale(0.015625)"/>
      </defs>
      <use xlink:href="#DejaVuSans-69"/>
      <use x="27.783203" xlink:href="#DejaVuSans-74"/>
      <use x="66.992188" xlink:href="#DejaVuSans-65"/>
      <use x="128.515625" xlink:href="#DejaVuSans-72"/>
      <use x="169.628906" xlink:href="#DejaVuSans-61"/>
      <use x="230.908203" xlink:href="#DejaVuSans-74"/>
      <use x="270.117188" xlink:href="#DejaVuSans-69"/>
      <use x="297.900391" xlink:href="#DejaVuSans-6f"/>
      <use x="359.082031" xlink:href="#DejaVuSans-6e"/>
      <use x="422.460938" xlink:href="#DejaVuSans-73"/>
     </g>
    </g>
   </g>
   <g id="matplotlib.axis_2">
    <g id="ytick_1">
     <g id="line2d_8">
      <defs>
       <path d="M 0 0 
L -3.5 0 
" id="m13ba94d09f" style="stroke:#000000;stroke-width:0.8;"/>
      </defs>
      <g>
       <use style="stroke:#000000;stroke-width:0.8;" x="83.195" xlink:href="#m13ba94d09f" y="502.584383"/>
      </g>
     </g>
     <g id="text_9">
      <!-- 3.0 -->
      <g transform="translate(38.0275 511.702508)scale(0.24 -0.24)">
       <defs>
        <path d="M 684 794 
L 1344 794 
L 1344 0 
L 684 0 
L 684 794 
z
" id="DejaVuSans-2e" transform="scale(0.015625)"/>
       </defs>
       <use xlink:href="#DejaVuSans-33"/>
       <use x="63.623047" xlink:href="#DejaVuSans-2e"/>
       <use x="95.410156" xlink:href="#DejaVuSans-30"/>
      </g>
     </g>
    </g>
    <g id="ytick_2">
     <g id="line2d_9">
      <g>
       <use style="stroke:#000000;stroke-width:0.8;" x="83.195" xlink:href="#m13ba94d09f" y="444.24966"/>
      </g>
     </g>
     <g id="text_10">
      <!-- 3.5 -->
      <g transform="translate(38.0275 453.367785)scale(0.24 -0.24)">
       <use xlink:href="#DejaVuSans-33"/>
       <use x="63.623047" xlink:href="#DejaVuSans-2e"/>
       <use x="95.410156" xlink:href="#DejaVuSans-35"/>
      </g>
     </g>
    </g>
    <g id="ytick_3">
     <g id="line2d_10">
      <g>
       <use style="stroke:#000000;stroke-width:0.8;" x="83.195" xlink:href="#m13ba94d09f" y="385.914937"/>
      </g>
     </g>
     <g id="text_11">
      <!-- 4.0 -->
      <g transform="translate(38.0275 395.033062)scale(0.24 -0.24)">
       <defs>
        <path d="M 2419 4116 
L 825 1625 
L 2419 1625 
L 2419 4116 
z
M 2253 4666 
L 3047 4666 
L 3047 1625 
L 3713 1625 
L 3713 1100 
L 3047 1100 
L 3047 0 
L 2419 0 
L 2419 1100 
L 313 1100 
L 313 1709 
L 2253 4666 
z
" id="DejaVuSans-34" transform="scale(0.015625)"/>
       </defs>
       <use xlink:href="#DejaVuSans-34"/>
       <use x="63.623047" xlink:href="#DejaVuSans-2e"/>
       <use x="95.410156" xlink:href="#DejaVuSans-30"/>
      </g>
     </g>
    </g>
    <g id="ytick_4">
     <g id="line2d_11">
      <g>
       <use style="stroke:#000000;stroke-width:0.8;" x="83.195" xlink:href="#m13ba94d09f" y="327.580214"/>
      </g>
     </g>
     <g id="text_12">
      <!-- 4.5 -->
      <g transform="translate(38.0275 336.698339)scale(0.24 -0.24)">
       <use xlink:href="#DejaVuSans-34"/>
       <use x="63.623047" xlink:href="#DejaVuSans-2e"/>
       <use x="95.410156" xlink:href="#DejaVuSans-35"/>
      </g>
     </g>
    </g>
    <g id="ytick_5">
     <g id="line2d_12">
      <g>
       <use style="stroke:#000000;stroke-width:0.8;" x="83.195" xlink:href="#m13ba94d09f" y="269.245491"/>
      </g>
     </g>
     <g id="text_13">
      <!-- 5.0 -->
      <g transform="translate(38.0275 278.363616)scale(0.24 -0.24)">
       <use xlink:href="#DejaVuSans-35"/>
       <use x="63.623047" xlink:href="#DejaVuSans-2e"/>
       <use x="95.410156" xlink:href="#DejaVuSans-30"/>
      </g>
     </g>
    </g>
    <g id="ytick_6">
     <g id="line2d_13">
      <g>
       <use style="stroke:#000000;stroke-width:0.8;" x="83.195" xlink:href="#m13ba94d09f" y="210.910769"/>
      </g>
     </g>
     <g id="text_14">
      <!-- 5.5 -->
      <g transform="translate(38.0275 220.028894)scale(0.24 -0.24)">
       <use xlink:href="#DejaVuSans-35"/>
       <use x="63.623047" xlink:href="#DejaVuSans-2e"/>
       <use x="95.410156" xlink:href="#DejaVuSans-35"/>
      </g>
     </g>
    </g>
    <g id="ytick_7">
     <g id="line2d_14">
      <g>
       <use style="stroke:#000000;stroke-width:0.8;" x="83.195" xlink:href="#m13ba94d09f" y="152.576046"/>
      </g>
     </g>
     <g id="text_15">
      <!-- 6.0 -->
      <g transform="translate(38.0275 161.694171)scale(0.24 -0.24)">
       <defs>
        <path d="M 2113 2584 
Q 1688 2584 1439 2293 
Q 1191 2003 1191 1497 
Q 1191 994 1439 701 
Q 1688 409 2113 409 
Q 2538 409 2786 701 
Q 3034 994 3034 1497 
Q 3034 2003 2786 2293 
Q 2538 2584 2113 2584 
z
M 3366 4563 
L 3366 3988 
Q 3128 4100 2886 4159 
Q 2644 4219 2406 4219 
Q 1781 4219 1451 3797 
Q 1122 3375 1075 2522 
Q 1259 2794 1537 2939 
Q 1816 3084 2150 3084 
Q 2853 3084 3261 2657 
Q 3669 2231 3669 1497 
Q 3669 778 3244 343 
Q 2819 -91 2113 -91 
Q 1303 -91 875 529 
Q 447 1150 447 2328 
Q 447 3434 972 4092 
Q 1497 4750 2381 4750 
Q 2619 4750 2861 4703 
Q 3103 4656 3366 4563 
z
" id="DejaVuSans-36" transform="scale(0.015625)"/>
       </defs>
       <use xlink:href="#DejaVuSans-36"/>
       <use x="63.623047" xlink:href="#DejaVuSans-2e"/>
       <use x="95.410156" xlink:href="#DejaVuSans-30"/>
      </g>
     </g>
    </g>
    <g id="ytick_8">
     <g id="line2d_15">
      <g>
       <use style="stroke:#000000;stroke-width:0.8;" x="83.195" xlink:href="#m13ba94d09f" y="94.241323"/>
      </g>
     </g>
     <g id="text_16">
      <!-- 6.5 -->
      <g transform="translate(38.0275 103.359448)scale(0.24 -0.24)">
       <use xlink:href="#DejaVuSans-36"/>
       <use x="63.623047" xlink:href="#DejaVuSans-2e"/>
       <use x="95.410156" xlink:href="#DejaVuSans-35"/>
      </g>
     </g>
    </g>
    <g id="ytick_9">
     <g id="line2d_16">
      <g>
       <use style="stroke:#000000;stroke-width:0.8;" x="83.195" xlink:href="#m13ba94d09f" y="35.9066"/>
      </g>
     </g>
     <g id="text_17">
      <!-- 7.0 -->
      <g transform="translate(38.0275 45.024725)scale(0.24 -0.24)">
       <defs>
        <path d="M 525 4666 
L 3525 4666 
L 3525 4397 
L 1831 0 
L 1172 0 
L 2766 4134 
L 525 4134 
L 525 4666 
z
" id="DejaVuSans-37" transform="scale(0.015625)"/>
       </defs>
       <use xlink:href="#DejaVuSans-37"/>
       <use x="63.623047" xlink:href="#DejaVuSans-2e"/>
       <use x="95.410156" xlink:href="#DejaVuSans-30"/>
      </g>
     </g>
    </g>
    <g id="text_18">
     <!-- VQE energy -->
     <g transform="translate(29.03625 330.14)rotate(-90)scale(0.24 -0.24)">
      <defs>
       <path d="M 1831 0 
L 50 4666 
L 709 4666 
L 2188 738 
L 3669 4666 
L 4325 4666 
L 2547 0 
L 1831 0 
z
" id="DejaVuSans-56" transform="scale(0.015625)"/>
       <path d="M 2522 4238 
Q 1834 4238 1429 3725 
Q 1025 3213 1025 2328 
Q 1025 1447 1429 934 
Q 1834 422 2522 422 
Q 3209 422 3611 934 
Q 4013 1447 4013 2328 
Q 4013 3213 3611 3725 
Q 3209 4238 2522 4238 
z
M 3406 84 
L 4238 -825 
L 3475 -825 
L 2784 -78 
Q 2681 -84 2626 -87 
Q 2572 -91 2522 -91 
Q 1538 -91 948 567 
Q 359 1225 359 2328 
Q 359 3434 948 4092 
Q 1538 4750 2522 4750 
Q 3503 4750 4090 4092 
Q 4678 3434 4678 2328 
Q 4678 1516 4351 937 
Q 4025 359 3406 84 
z
" id="DejaVuSans-51" transform="scale(0.015625)"/>
       <path d="M 628 4666 
L 3578 4666 
L 3578 4134 
L 1259 4134 
L 1259 2753 
L 3481 2753 
L 3481 2222 
L 1259 2222 
L 1259 531 
L 3634 531 
L 3634 0 
L 628 0 
L 628 4666 
z
" id="DejaVuSans-45" transform="scale(0.015625)"/>
       <path id="DejaVuSans-20" transform="scale(0.015625)"/>
       <path d="M 2906 1791 
Q 2906 2416 2648 2759 
Q 2391 3103 1925 3103 
Q 1463 3103 1205 2759 
Q 947 2416 947 1791 
Q 947 1169 1205 825 
Q 1463 481 1925 481 
Q 2391 481 2648 825 
Q 2906 1169 2906 1791 
z
M 3481 434 
Q 3481 -459 3084 -895 
Q 2688 -1331 1869 -1331 
Q 1566 -1331 1297 -1286 
Q 1028 -1241 775 -1147 
L 775 -588 
Q 1028 -725 1275 -790 
Q 1522 -856 1778 -856 
Q 2344 -856 2625 -561 
Q 2906 -266 2906 331 
L 2906 616 
Q 2728 306 2450 153 
Q 2172 0 1784 0 
Q 1141 0 747 490 
Q 353 981 353 1791 
Q 353 2603 747 3093 
Q 1141 3584 1784 3584 
Q 2172 3584 2450 3431 
Q 2728 3278 2906 2969 
L 2906 3500 
L 3481 3500 
L 3481 434 
z
" id="DejaVuSans-67" transform="scale(0.015625)"/>
       <path d="M 2059 -325 
Q 1816 -950 1584 -1140 
Q 1353 -1331 966 -1331 
L 506 -1331 
L 506 -850 
L 844 -850 
Q 1081 -850 1212 -737 
Q 1344 -625 1503 -206 
L 1606 56 
L 191 3500 
L 800 3500 
L 1894 763 
L 2988 3500 
L 3597 3500 
L 2059 -325 
z
" id="DejaVuSans-79" transform="scale(0.015625)"/>
      </defs>
      <use xlink:href="#DejaVuSans-56"/>
      <use x="68.408203" xlink:href="#DejaVuSans-51"/>
      <use x="147.119141" xlink:href="#DejaVuSans-45"/>
      <use x="210.302734" xlink:href="#DejaVuSans-20"/>
      <use x="242.089844" xlink:href="#DejaVuSans-65"/>
      <use x="303.613281" xlink:href="#DejaVuSans-6e"/>
      <use x="366.992188" xlink:href="#DejaVuSans-65"/>
      <use x="428.515625" xlink:href="#DejaVuSans-72"/>
      <use x="467.878906" xlink:href="#DejaVuSans-67"/>
      <use x="531.355469" xlink:href="#DejaVuSans-79"/>
     </g>
    </g>
   </g>
   <g id="line2d_17">
    <path clip-path="url(#p75e48fb046)" d="M 83.633488 92.528942 
L 84.071977 65.955068 
L 84.510465 80.377244 
L 84.948953 99.664723 
L 85.387442 129.309003 
L 85.82593 145.630287 
L 86.264418 111.434231 
L 86.702907 119.478563 
L 87.141395 129.733935 
L 87.579883 166.169527 
L 88.018372 213.092729 
L 88.45686 218.576192 
L 88.895348 237.271387 
L 89.333837 223.307823 
L 89.772325 227.005984 
L 90.210813 210.74209 
L 90.649302 218.541547 
L 91.08779 169.671029 
L 91.526278 201.945113 
L 91.964767 203.850104 
L 92.403255 241.309129 
L 92.841743 265.777037 
L 93.280232 260.36914 
L 93.71872 220.64035 
L 94.157208 239.079536 
L 94.595697 288.645585 
L 95.034185 261.746407 
L 95.472673 265.749838 
L 95.911162 273.303582 
L 96.34965 271.617623 
L 96.788138 289.560632 
L 97.226627 289.794909 
L 97.665115 263.81536 
L 98.542092 308.820321 
L 98.98058 289.512971 
L 99.419068 342.455956 
L 99.857557 334.461956 
L 100.296045 338.053092 
L 100.734533 307.414254 
L 101.173022 317.727078 
L 101.61151 302.766925 
L 102.049998 342.538376 
L 102.488487 351.099492 
L 102.926975 370.110083 
L 103.365463 378.150343 
L 103.803952 362.299244 
L 104.680928 372.076795 
L 105.119417 339.881893 
L 105.557905 369.17883 
L 105.996393 326.161063 
L 106.434882 390.204953 
L 107.311858 367.408262 
L 107.750347 360.639463 
L 108.188835 380.011031 
L 108.627323 364.867852 
L 109.065812 377.340127 
L 109.5043 352.737827 
L 109.942788 388.242209 
L 110.381277 351.707346 
L 110.819765 377.262947 
L 111.258253 334.990639 
L 111.696742 401.659584 
L 112.13523 373.120106 
L 112.573718 394.41876 
L 113.012207 376.637623 
L 113.450695 374.516493 
L 113.889183 395.14479 
L 114.327672 395.382326 
L 114.76616 391.747012 
L 115.204648 389.883442 
L 116.081625 400.588153 
L 116.520113 393.97082 
L 116.958602 395.532072 
L 117.39709 400.558092 
L 117.835578 390.719033 
L 118.274067 392.809338 
L 118.712555 408.062961 
L 119.151043 405.058505 
L 119.589532 428.705633 
L 120.02802 437.55573 
L 120.466508 435.194352 
L 120.904997 431.703607 
L 121.343485 430.558825 
L 121.781973 436.19716 
L 122.220462 434.637427 
L 122.65895 429.577576 
L 123.097438 431.377303 
L 123.535927 451.445076 
L 123.974415 449.456291 
L 124.412903 432.033429 
L 124.851392 450.072302 
L 125.28988 457.053322 
L 125.728368 456.043282 
L 126.166857 462.744174 
L 126.605345 452.076632 
L 127.043833 455.129842 
L 127.482322 465.9389 
L 127.92081 442.112154 
L 128.359298 466.789788 
L 128.797787 460.717553 
L 129.236275 461.751798 
L 129.674763 468.927423 
L 130.113252 467.751183 
L 130.55174 461.142023 
L 130.990228 462.730964 
L 131.428717 452.337039 
L 131.867205 458.070154 
L 132.305693 476.151801 
L 132.744182 467.764177 
L 133.18267 462.418623 
L 133.621158 473.683577 
L 134.059647 463.158497 
L 134.498135 470.383996 
L 134.936623 461.869398 
L 135.375112 474.577922 
L 135.8136 466.408305 
L 136.252088 473.034111 
L 136.690577 474.563189 
L 137.129065 478.224631 
L 137.567553 470.019248 
L 138.006042 472.181088 
L 138.44453 456.505431 
L 138.883018 474.148539 
L 139.321507 473.788554 
L 139.759995 474.129644 
L 140.198483 476.796323 
L 140.636972 476.446308 
L 141.07546 477.981338 
L 141.513948 477.21371 
L 141.952437 480.377345 
L 142.390925 475.796186 
L 142.829413 479.278092 
L 143.267902 472.082942 
L 143.70639 479.032983 
L 144.144878 479.278869 
L 144.583367 480.55397 
L 145.021855 481.448468 
L 145.460343 480.254061 
L 145.898832 475.110836 
L 146.33732 479.308697 
L 146.775808 478.813597 
L 147.214297 480.59806 
L 147.652785 477.397727 
L 148.091273 480.423512 
L 148.529762 479.395579 
L 149.406738 481.435844 
L 149.845227 480.39122 
L 150.283715 481.754903 
L 150.722203 480.434894 
L 151.160692 481.56789 
L 151.59918 481.289375 
L 152.037668 481.603193 
L 152.476157 482.337614 
L 152.914645 482.82386 
L 153.791622 482.449042 
L 154.23011 482.539581 
L 154.668598 482.150585 
L 155.107087 482.697916 
L 155.545575 483.065909 
L 155.984063 481.924949 
L 156.422552 482.449114 
L 156.86104 482.648238 
L 157.299528 482.385906 
L 157.738017 483.702493 
L 158.176505 483.386468 
L 158.614993 482.452551 
L 159.053482 483.595873 
L 159.49197 482.076208 
L 159.930458 483.523405 
L 160.368947 482.932755 
L 160.807435 483.343202 
L 161.684412 483.726732 
L 162.1229 483.664457 
L 162.561388 483.436696 
L 163.438365 484.165604 
L 164.315342 483.78959 
L 164.75383 484.262718 
L 165.192318 484.324091 
L 166.069295 484.038408 
L 166.507783 484.341356 
L 166.946272 484.06043 
L 167.38476 484.337839 
L 167.823248 484.426558 
L 168.700225 484.267302 
L 169.138713 484.513726 
L 169.577202 484.567904 
L 170.01569 484.485403 
L 170.454178 484.642188 
L 170.892667 484.509348 
L 171.331155 484.741309 
L 171.769643 484.783204 
L 172.208132 484.484698 
L 173.085108 484.681236 
L 173.523597 484.832061 
L 173.962085 484.73181 
L 174.400573 484.761797 
L 174.839062 484.407778 
L 175.27755 484.722154 
L 177.031503 484.86523 
L 177.469992 484.723713 
L 177.90848 484.891987 
L 179.662433 484.8937 
L 180.100922 484.563441 
L 180.53941 484.908498 
L 180.977898 484.788512 
L 181.416387 484.991446 
L 182.731852 484.759756 
L 183.17034 484.935438 
L 183.608828 484.777905 
L 184.047317 484.974946 
L 188.4322 485.01215 
L 188.870688 485.064232 
L 189.309177 484.985389 
L 190.186153 485.011096 
L 191.940107 485.071677 
L 193.255572 485.056501 
L 194.132548 485.06538 
L 194.571037 484.961547 
L 195.448013 485.070548 
L 197.201967 485.06651 
L 198.95592 485.086249 
L 214.303012 485.138351 
L 572.986468 485.152138 
L 1399.098488 485.154841 
L 1399.098488 485.154841 
" style="fill:none;stroke:#1f77b4;stroke-linecap:square;stroke-width:3;"/>
   </g>
   <g id="line2d_18">
    <path clip-path="url(#p75e48fb046)" d="M 83.633488 168.09194 
L 94.157208 168.091939 
L 94.595697 351.282448 
L 105.119417 351.282447 
L 105.557905 408.766502 
L 116.081625 408.766502 
L 116.520113 453.911138 
L 127.043833 453.911138 
L 127.482322 473.331941 
L 138.006042 473.331942 
L 138.44453 483.006101 
L 148.96825 483.006101 
L 149.406738 484.300292 
L 159.930458 484.300292 
L 160.368947 484.729999 
L 170.892667 484.729999 
L 171.331155 484.918486 
L 181.854875 484.918486 
L 182.293363 485.037071 
L 280.51475 485.083966 
L 280.51475 485.083966 
" style="fill:none;stroke:#ff7f0e;stroke-linecap:square;stroke-width:3;"/>
   </g>
   <g id="line2d_19">
    <path clip-path="url(#p75e48fb046)" d="M 83.633488 99.753936 
L 94.157208 99.753935 
L 94.595697 349.912062 
L 105.119417 349.912062 
L 105.557905 444.513651 
L 116.081625 444.513651 
L 116.520113 463.985984 
L 127.043833 463.985984 
L 127.482322 480.750448 
L 138.006042 480.750448 
L 138.44453 484.196219 
L 148.96825 484.196219 
L 149.406738 484.879039 
L 159.930458 484.879039 
L 160.807435 484.990448 
L 269.99103 485.083952 
L 269.99103 485.083952 
" style="fill:none;stroke:#2ca02c;stroke-linecap:square;stroke-width:3;"/>
   </g>
   <g id="line2d_20">
    <path clip-path="url(#p75e48fb046)" d="M 83.633488 36.683813 
L 84.071977 35.689701 
L 84.510465 36.737901 
L 84.948953 36.145014 
L 85.387442 35.872926 
L 85.82593 36.465359 
L 86.264418 35.665796 
L 86.702907 35.971803 
L 87.579883 35.254197 
L 88.018372 37.540418 
L 88.895348 33.388409 
L 89.333837 34.524746 
L 89.772325 36.364733 
L 90.649302 36.496243 
L 91.08779 36.178855 
L 91.526278 36.374711 
L 91.964767 36.295864 
L 92.403255 35.78812 
L 93.280232 35.52443 
L 93.71872 36.246912 
L 94.157208 35.50192 
L 95.034185 41.789097 
L 95.472673 38.073227 
L 95.911162 37.610524 
L 97.226627 37.847358 
L 99.857557 38.906251 
L 100.734533 38.973228 
L 101.173022 39.216472 
L 102.049998 39.54755 
L 103.365463 40.23666 
L 104.24244 40.880266 
L 104.680928 41.021425 
L 105.119417 41.360974 
L 105.557905 40.89689 
L 106.434882 41.279066 
L 106.87337 41.71146 
L 107.311858 41.745402 
L 107.750347 41.927048 
L 108.188835 44.043226 
L 108.627323 42.35244 
L 109.065812 42.629545 
L 109.942788 42.951034 
L 110.381277 43.189436 
L 110.819765 43.239912 
L 111.258253 43.767454 
L 112.13523 44.214099 
L 112.573718 46.939591 
L 113.012207 44.6453 
L 114.76616 45.458985 
L 115.204648 45.492206 
L 116.520113 46.312127 
L 116.958602 46.689459 
L 117.39709 46.907784 
L 117.835578 47.415444 
L 118.274067 50.789008 
L 118.712555 47.799226 
L 119.589532 48.608333 
L 120.02802 48.590165 
L 120.466508 48.805622 
L 120.904997 49.279969 
L 121.343485 49.458036 
L 122.220462 50.401756 
L 123.097438 50.758375 
L 123.535927 51.358801 
L 123.974415 55.444701 
L 124.412903 51.47385 
L 126.166857 52.963596 
L 126.605345 53.639768 
L 127.043833 53.895798 
L 127.482322 54.456386 
L 128.359298 55.081829 
L 128.797787 55.538555 
L 129.236275 60.179058 
L 129.674763 56.795452 
L 130.113252 56.603022 
L 130.55174 56.702524 
L 130.990228 57.080622 
L 131.428717 58.379264 
L 131.867205 58.444465 
L 132.305693 58.657056 
L 133.18267 59.661293 
L 133.621158 59.891735 
L 134.059647 60.474288 
L 134.498135 65.772707 
L 134.936623 61.524443 
L 135.375112 62.38545 
L 135.8136 62.616741 
L 137.129065 64.314104 
L 137.567553 64.91366 
L 138.006042 65.1152 
L 138.44453 66.115452 
L 138.883018 73.109394 
L 139.321507 66.729071 
L 139.759995 67.720335 
L 140.198483 68.30043 
L 140.636972 69.417659 
L 141.07546 68.867694 
L 142.390925 71.748531 
L 142.829413 71.145909 
L 143.70639 73.49704 
L 144.144878 81.569039 
L 144.583367 74.594582 
L 145.460343 76.611719 
L 145.898832 77.900148 
L 146.33732 77.738053 
L 148.529762 81.746563 
L 148.96825 91.261994 
L 149.406738 83.307953 
L 150.283715 86.013107 
L 150.722203 86.224921 
L 151.160692 86.593668 
L 152.037668 88.787646 
L 152.476157 90.245173 
L 153.353133 91.507313 
L 153.791622 102.644718 
L 154.23011 94.907918 
L 154.668598 95.435331 
L 155.107087 96.991965 
L 155.984063 98.385529 
L 156.86104 100.397755 
L 157.299528 101.015797 
L 157.738017 102.880069 
L 158.176505 116.511582 
L 158.614993 105.06503 
L 160.368947 111.613447 
L 160.807435 111.8987 
L 161.684412 113.535217 
L 162.561388 118.202342 
L 162.999877 135.595121 
L 163.438365 120.87221 
L 164.315342 123.953317 
L 165.192318 128.31721 
L 165.630807 126.568139 
L 166.069295 129.255084 
L 166.507783 130.094938 
L 166.946272 133.247672 
L 167.38476 134.579075 
L 167.823248 136.467885 
L 168.261737 155.916847 
L 168.700225 140.187449 
L 169.577202 144.966534 
L 170.454178 147.258618 
L 171.331155 151.007076 
L 171.769643 151.822088 
L 172.64662 158.204438 
L 173.085108 182.021361 
L 173.523597 163.282581 
L 173.962085 164.945924 
L 174.400573 167.59469 
L 174.839062 167.212691 
L 175.716038 171.378431 
L 176.154527 172.886661 
L 176.593015 177.553689 
L 177.031503 179.157096 
L 177.469992 182.43774 
L 177.90848 209.352701 
L 178.346968 188.666854 
L 178.785457 188.668397 
L 179.662433 195.82116 
L 180.100922 196.446493 
L 180.53941 198.12601 
L 182.293363 209.5641 
L 182.731852 237.823884 
L 183.17034 215.001678 
L 183.608828 220.464551 
L 184.047317 221.71665 
L 184.485805 226.421993 
L 184.924293 223.704914 
L 185.80127 229.863172 
L 186.239758 234.895409 
L 186.678247 237.344639 
L 187.116735 242.42249 
L 187.555223 274.909467 
L 187.993712 249.252949 
L 188.4322 248.669822 
L 188.870688 253.417281 
L 189.309177 256.055535 
L 189.747665 254.893257 
L 190.186153 261.590412 
L 190.624642 262.48483 
L 191.06313 265.225041 
L 191.940107 273.045797 
L 192.378595 274.437368 
L 192.817083 280.079027 
L 193.255572 309.04235 
L 193.69406 284.300008 
L 194.571037 289.122618 
L 195.009525 287.589374 
L 195.886502 296.960789 
L 196.32499 297.921855 
L 196.763478 304.035193 
L 197.201967 305.918339 
L 197.640455 306.125614 
L 198.078943 311.112626 
L 198.517432 332.774422 
L 198.95592 317.31174 
L 199.394408 314.983466 
L 199.832897 315.63001 
L 200.271385 318.712804 
L 200.709873 322.651881 
L 201.148362 324.515903 
L 201.58685 322.808027 
L 202.025338 327.130297 
L 202.463827 327.539791 
L 202.902315 330.012489 
L 203.340803 330.96894 
L 203.779292 335.610846 
L 204.21778 342.144565 
L 204.656268 327.561229 
L 205.094757 334.253531 
L 205.533245 336.546063 
L 205.971733 339.914607 
L 206.410222 335.790987 
L 206.84871 338.623759 
L 207.287198 334.45065 
L 207.725687 338.692343 
L 208.164175 335.155827 
L 208.602663 335.871807 
L 209.041152 337.094209 
L 209.47964 330.983299 
L 209.918128 331.443633 
L 210.356617 335.777864 
L 210.795105 327.476662 
L 211.233593 327.78721 
L 211.672082 323.773062 
L 212.11057 329.883893 
L 212.549058 327.153401 
L 212.987547 325.692019 
L 213.426035 334.462765 
L 213.864523 327.250113 
L 214.303012 316.807895 
L 214.7415 335.944918 
L 215.179988 327.989924 
L 215.618477 331.246603 
L 216.056965 333.169403 
L 216.495453 344.309627 
L 216.933942 346.243741 
L 217.37243 331.957413 
L 217.810918 331.98032 
L 218.249407 328.227616 
L 218.687895 336.848819 
L 219.126383 332.079028 
L 219.564872 331.293841 
L 220.00336 342.767398 
L 220.441848 323.694751 
L 220.880337 338.338051 
L 221.318825 331.204877 
L 222.195802 343.020506 
L 222.63429 324.748473 
L 223.072778 338.742124 
L 223.511267 332.640447 
L 223.949755 329.853495 
L 224.388243 338.223381 
L 224.826732 332.654357 
L 225.26522 338.100179 
L 225.703708 326.051372 
L 226.142197 338.872652 
L 226.580685 335.0322 
L 227.457662 346.15839 
L 227.89615 342.878306 
L 228.334638 335.32954 
L 228.773127 346.683588 
L 229.211615 351.40695 
L 229.650103 335.863558 
L 230.088592 340.107093 
L 230.52708 347.992156 
L 230.965568 338.132187 
L 231.404057 347.294547 
L 231.842545 344.010986 
L 233.15801 347.936575 
L 233.596498 345.148051 
L 234.034987 345.987518 
L 234.473475 337.679058 
L 234.911963 343.375254 
L 235.350452 345.092471 
L 235.78894 350.940276 
L 236.227428 352.771211 
L 236.665917 358.355088 
L 237.104405 352.887561 
L 237.981382 355.166094 
L 238.41987 355.69146 
L 238.858358 351.51283 
L 239.296847 351.013496 
L 239.735335 354.958303 
L 240.173823 356.560152 
L 240.612312 356.653079 
L 241.0508 357.129086 
L 241.489288 357.333418 
L 241.927777 352.61241 
L 242.366265 353.634495 
L 242.804753 355.774636 
L 243.243242 355.795829 
L 243.68173 356.358932 
L 244.120218 361.437374 
L 244.558707 364.772006 
L 244.997195 353.225481 
L 245.435683 362.687185 
L 245.874172 363.709284 
L 246.31266 363.443942 
L 246.751148 366.300871 
L 247.189637 371.57385 
L 248.066613 358.615765 
L 248.505102 365.283782 
L 248.94359 362.738544 
L 249.382078 356.831683 
L 249.820567 363.296023 
L 250.259055 348.789019 
L 250.697543 359.954843 
L 251.136032 365.005572 
L 251.57452 368.063957 
L 252.013008 362.9238 
L 252.451497 367.883741 
L 252.889985 369.09143 
L 253.328473 367.430253 
L 253.766962 360.680054 
L 254.20545 368.697081 
L 254.643938 370.957248 
L 255.082427 370.930059 
L 255.520915 362.985245 
L 255.959403 370.727699 
L 256.397892 371.482022 
L 256.83638 371.189992 
L 257.274868 366.980237 
L 257.713357 368.296686 
L 258.151845 362.15802 
L 258.590333 367.382547 
L 259.028822 370.351264 
L 259.46731 370.028875 
L 259.905798 365.604252 
L 260.344287 366.669726 
L 260.782775 367.156442 
L 261.659752 370.166091 
L 262.536728 379.95182 
L 262.975217 372.779204 
L 263.852193 369.363021 
L 264.290682 371.889474 
L 264.72917 365.237726 
L 265.167658 370.850811 
L 265.606147 369.749673 
L 266.044635 368.32085 
L 266.483123 370.539683 
L 266.921612 371.138479 
L 267.3601 374.961072 
L 267.798588 373.081028 
L 268.237077 375.750008 
L 268.675565 370.587444 
L 269.114053 371.961791 
L 269.552542 371.076091 
L 269.99103 374.202144 
L 270.429518 372.966167 
L 270.868007 372.606063 
L 271.306495 372.999621 
L 271.744983 373.82098 
L 272.183472 374.988333 
L 272.62196 373.831147 
L 273.060448 371.431563 
L 273.937425 375.756447 
L 274.814402 374.938355 
L 275.25289 370.829391 
L 275.691378 374.257826 
L 276.129867 376.178521 
L 276.568355 377.188819 
L 277.006843 373.186749 
L 277.445332 373.109212 
L 277.88382 373.175698 
L 278.322308 373.578435 
L 278.760797 380.111003 
L 279.199285 383.669288 
L 279.637773 377.824441 
L 280.076262 376.67642 
L 280.51475 380.273614 
L 280.953238 377.377737 
L 281.391727 376.582025 
L 281.830215 381.403126 
L 282.268703 374.744332 
L 282.707192 373.602575 
L 283.14568 377.686804 
L 283.584168 374.639731 
L 284.022657 373.577788 
L 284.461145 377.044969 
L 284.899633 379.197194 
L 285.338122 379.273894 
L 285.77661 376.777912 
L 286.215098 382.065244 
L 286.653587 381.483568 
L 287.092075 375.136581 
L 287.530563 374.760949 
L 287.969052 378.214057 
L 288.40754 380.3296 
L 288.846028 383.496593 
L 289.284517 380.913432 
L 289.723005 375.851123 
L 290.161493 380.6396 
L 290.599982 382.103695 
L 291.03847 384.153761 
L 291.476958 385.583738 
L 291.915447 377.838245 
L 292.353935 384.147923 
L 292.792423 378.8888 
L 293.230912 379.794285 
L 293.6694 374.850595 
L 294.107888 380.745257 
L 294.546377 379.671169 
L 294.984865 385.465002 
L 295.423353 378.947746 
L 295.861842 385.866802 
L 296.30033 387.971365 
L 296.738818 386.798224 
L 297.177307 378.428106 
L 297.615795 386.530525 
L 298.054283 378.92798 
L 298.492772 383.117639 
L 298.93126 379.067153 
L 299.369748 378.438602 
L 299.808237 382.543085 
L 300.246725 378.847903 
L 301.123702 386.914215 
L 301.56219 386.150605 
L 302.000678 379.542247 
L 302.439167 383.137673 
L 302.877655 381.988577 
L 303.316143 388.044382 
L 303.754632 390.480789 
L 304.19312 387.750179 
L 304.631608 388.285361 
L 305.070097 385.458959 
L 305.508585 388.820773 
L 305.947073 386.092806 
L 306.385562 390.397868 
L 306.82405 388.829315 
L 307.262538 386.612374 
L 307.701027 390.725189 
L 308.139515 392.552022 
L 308.578003 388.736242 
L 309.016492 387.538357 
L 309.45498 390.24926 
L 309.893468 390.954276 
L 310.331957 389.269425 
L 310.770445 392.343309 
L 311.208933 392.182058 
L 311.647422 391.786224 
L 312.08591 388.871102 
L 312.524398 392.700656 
L 312.962887 393.039801 
L 313.401375 391.780319 
L 313.839863 391.443084 
L 314.278352 394.124556 
L 314.71684 395.142544 
L 315.155328 394.673191 
L 315.593817 390.901696 
L 316.032305 394.450698 
L 316.470793 395.315834 
L 316.909282 395.70546 
L 317.34777 394.494865 
L 317.786258 395.497881 
L 318.663235 399.028441 
L 319.101723 394.554166 
L 319.540212 394.439671 
L 319.9787 394.52121 
L 320.417188 395.701063 
L 320.855677 391.609264 
L 321.294165 395.411049 
L 321.732653 396.677536 
L 322.171142 397.054068 
L 322.60963 396.984534 
L 323.048118 394.303678 
L 323.486607 395.18709 
L 323.925095 395.059951 
L 324.363583 392.772916 
L 324.802072 397.334486 
L 325.24056 395.875302 
L 325.679048 399.543476 
L 326.117537 399.770933 
L 326.556025 395.660941 
L 326.994513 396.711875 
L 327.433002 392.806663 
L 327.87149 396.379745 
L 328.309978 397.523358 
L 328.748467 394.929183 
L 329.186955 397.833302 
L 329.625443 397.648826 
L 330.063932 391.191977 
L 330.50242 397.57302 
L 330.940908 399.043951 
L 331.379397 396.780451 
L 331.817885 395.691458 
L 332.256373 394.024499 
L 332.694862 397.61278 
L 333.13335 396.63552 
L 333.571838 396.040859 
L 334.010327 398.306223 
L 334.448815 397.470563 
L 334.887303 397.230989 
L 335.325792 399.504117 
L 335.76428 397.649402 
L 336.202768 399.558061 
L 336.641257 396.449486 
L 337.079745 398.318719 
L 337.518233 397.975822 
L 337.956722 397.926761 
L 338.39521 395.903629 
L 338.833698 398.740639 
L 339.272187 397.808345 
L 339.710675 400.910678 
L 340.149163 400.851642 
L 340.587652 399.603387 
L 341.02614 395.524039 
L 341.464628 399.134703 
L 341.903117 401.443759 
L 342.341605 401.93531 
L 342.780093 401.887912 
L 343.218582 398.4453 
L 343.65707 400.621608 
L 344.095558 398.018341 
L 344.534047 401.421215 
L 344.972535 400.77529 
L 345.411023 399.60754 
L 345.849512 400.756966 
L 346.726488 397.126792 
L 347.164977 400.205146 
L 347.603465 401.492571 
L 348.041953 400.314251 
L 348.480442 400.511758 
L 348.91893 399.010126 
L 349.357418 402.393824 
L 349.795907 401.255116 
L 350.234395 400.709772 
L 350.672883 398.307131 
L 351.54986 403.77016 
L 351.988348 404.98589 
L 352.426837 400.151413 
L 352.865325 399.554499 
L 353.303813 402.795631 
L 353.742302 403.982368 
L 354.18079 404.516808 
L 354.619278 401.834412 
L 355.057767 400.132615 
L 355.496255 402.1673 
L 355.934743 403.505383 
L 356.373232 401.074677 
L 356.81172 403.30363 
L 357.250208 400.55928 
L 357.688697 401.512658 
L 358.127185 404.6808 
L 358.565673 403.693975 
L 359.004162 403.165597 
L 359.44265 401.086194 
L 359.881138 404.881807 
L 360.758115 401.664913 
L 361.196603 406.241049 
L 361.635092 407.336996 
L 362.07358 405.824888 
L 362.512068 407.225825 
L 362.950557 402.114029 
L 363.389045 403.379871 
L 363.827533 403.902776 
L 364.266022 406.598458 
L 364.70451 405.650036 
L 365.142998 402.570034 
L 366.019975 407.979055 
L 366.458463 408.782563 
L 366.896952 407.218107 
L 367.33544 403.21585 
L 367.773928 405.289475 
L 368.212417 408.129062 
L 368.650905 404.646262 
L 369.089393 404.958348 
L 369.527882 406.405518 
L 370.404858 404.690405 
L 370.843347 409.667052 
L 371.281835 411.03311 
L 371.720323 404.779628 
L 372.158812 409.44524 
L 372.5973 409.00312 
L 373.035788 404.43703 
L 373.474277 410.744527 
L 373.912765 404.577165 
L 374.351253 410.857216 
L 374.789742 404.952712 
L 375.666718 407.089084 
L 376.105207 405.824325 
L 376.543695 405.574411 
L 376.982183 410.600634 
L 377.420672 407.415053 
L 378.736137 415.202592 
L 379.613113 409.364027 
L 380.051602 409.320853 
L 380.49009 410.05853 
L 380.928578 414.071244 
L 381.367067 406.562199 
L 381.805555 411.271328 
L 382.244043 409.382688 
L 382.682532 412.332053 
L 383.12102 407.36663 
L 383.559508 412.699508 
L 383.997997 406.577059 
L 384.436485 410.588027 
L 384.874973 411.321551 
L 385.313462 415.603035 
L 385.75195 417.486606 
L 386.190438 415.221441 
L 386.628927 408.498365 
L 387.067415 415.959946 
L 387.505903 415.117633 
L 387.944392 407.756772 
L 388.821368 416.289028 
L 389.259857 416.790099 
L 389.698345 412.205796 
L 390.136833 415.242671 
L 390.575322 412.513557 
L 391.01381 418.229343 
L 391.452298 419.780861 
L 391.890787 415.269429 
L 392.329275 414.205643 
L 392.767763 417.133005 
L 393.206252 418.034391 
L 393.64474 417.811879 
L 394.083228 418.875519 
L 394.521717 414.964899 
L 394.960205 416.88846 
L 395.398693 420.440741 
L 396.27567 421.425921 
L 396.714158 421.992277 
L 397.152647 419.007937 
L 397.591135 421.828974 
L 398.029623 418.673541 
L 398.468112 417.511931 
L 398.9066 421.411716 
L 399.345088 421.244077 
L 399.783577 422.015428 
L 400.222065 420.260765 
L 400.660553 417.959017 
L 401.099042 423.336782 
L 401.53753 423.343193 
L 401.976018 423.698465 
L 402.414507 422.666884 
L 402.852995 425.528868 
L 403.291483 427.224876 
L 403.729972 421.281355 
L 404.16846 423.547657 
L 404.606948 423.643178 
L 405.045437 421.570249 
L 405.483925 423.347258 
L 405.922413 425.694656 
L 406.360902 427.22198 
L 406.79939 426.24582 
L 407.237878 423.062465 
L 407.676367 427.378748 
L 408.114855 425.13917 
L 408.553343 421.097397 
L 408.991832 427.14336 
L 409.43032 426.463516 
L 409.868808 428.651327 
L 410.307297 426.209054 
L 410.745785 420.107127 
L 411.184273 428.866814 
L 411.622762 426.341984 
L 412.06125 419.848888 
L 412.499738 425.169278 
L 412.938227 405.439919 
L 413.376715 425.913107 
L 413.815203 422.531167 
L 414.253692 428.475787 
L 414.69218 423.236621 
L 415.130668 430.400302 
L 415.569157 430.802121 
L 416.007645 425.320662 
L 416.446133 428.596479 
L 416.884622 430.22883 
L 417.32311 423.472651 
L 417.761598 425.631537 
L 418.200087 431.199446 
L 418.638575 430.380979 
L 419.077063 426.122488 
L 419.515552 429.70355 
L 419.95404 429.498913 
L 420.392528 425.02866 
L 420.831017 429.006925 
L 421.269505 430.17237 
L 421.707993 432.23723 
L 422.146482 429.484128 
L 422.58497 423.265579 
L 423.023458 429.097981 
L 423.461947 432.388115 
L 423.900435 430.600851 
L 424.338923 426.047063 
L 424.777412 427.968489 
L 425.2159 430.781198 
L 425.654388 427.871877 
L 426.092877 426.004441 
L 426.531365 429.988782 
L 426.969853 427.726886 
L 427.408342 432.023507 
L 427.84683 432.874527 
L 428.285318 430.354385 
L 428.723807 431.855368 
L 429.162295 432.836135 
L 429.600783 432.239085 
L 430.039272 435.903694 
L 430.47776 437.679639 
L 430.916248 430.90618 
L 431.354737 430.188792 
L 431.793225 430.516175 
L 432.231713 434.064132 
L 432.670202 433.620991 
L 433.10869 433.540925 
L 433.547178 434.9638 
L 433.985667 434.576708 
L 434.424155 434.574365 
L 434.862643 434.317769 
L 435.301132 431.68059 
L 435.73962 435.008373 
L 436.178108 436.153564 
L 436.616597 430.662572 
L 437.493573 433.089983 
L 437.932062 431.14818 
L 438.37055 433.731432 
L 438.809038 437.032917 
L 439.247527 432.116189 
L 439.686015 432.365909 
L 440.124503 432.364679 
L 440.562992 434.377733 
L 441.00148 433.69973 
L 441.439968 437.438409 
L 441.878457 432.507759 
L 442.316945 431.286058 
L 443.193922 439.140203 
L 443.63241 440.419431 
L 444.070898 432.874388 
L 444.509387 431.412972 
L 444.947875 435.732431 
L 445.386363 433.75215 
L 445.824852 437.834818 
L 446.26334 434.766143 
L 446.701828 436.194127 
L 447.140317 433.874784 
L 447.578805 437.945135 
L 448.017293 437.393333 
L 448.455782 436.382787 
L 448.89427 437.682542 
L 449.332758 435.493792 
L 449.771247 435.593122 
L 450.209735 433.732728 
L 450.648223 436.799427 
L 451.086712 436.330005 
L 451.5252 437.801451 
L 451.963688 437.533738 
L 452.402177 436.884672 
L 452.840665 437.674871 
L 453.279153 438.928056 
L 453.717642 433.177939 
L 454.594618 441.83339 
L 455.033107 443.750571 
L 455.471595 438.961353 
L 455.910083 441.196985 
L 456.348572 437.893645 
L 456.78706 435.566195 
L 457.225548 438.637764 
L 457.664037 440.826271 
L 458.541013 438.033997 
L 458.979502 439.203714 
L 459.41799 437.469716 
L 459.856478 440.341927 
L 460.294967 439.238969 
L 460.733455 440.36083 
L 461.171943 434.695139 
L 461.610432 440.214271 
L 462.04892 442.358682 
L 462.487408 437.615885 
L 462.925897 439.615592 
L 463.364385 438.218337 
L 463.802873 438.290496 
L 464.241362 442.131025 
L 464.67985 443.313087 
L 465.118338 440.722993 
L 465.556827 443.093571 
L 465.995315 441.447278 
L 466.433803 443.007881 
L 466.872292 440.398798 
L 467.31078 443.527379 
L 467.749268 439.280328 
L 468.187757 440.425731 
L 468.626245 443.334565 
L 469.064733 442.304883 
L 469.503222 444.919854 
L 469.94171 445.076867 
L 470.380198 440.540363 
L 470.818687 443.80077 
L 471.257175 440.73059 
L 471.695663 443.67491 
L 472.134152 444.187739 
L 472.57264 444.001713 
L 473.011128 445.007297 
L 473.449617 444.459028 
L 473.888105 443.131095 
L 474.326593 445.49708 
L 474.765082 443.498834 
L 475.20357 443.43508 
L 475.642058 441.495166 
L 476.080547 443.021619 
L 476.519035 443.493349 
L 476.957523 446.721028 
L 477.396012 445.995778 
L 477.8345 446.791778 
L 478.272988 445.83638 
L 478.711477 445.42854 
L 479.149965 442.393714 
L 479.588453 447.703323 
L 480.026942 448.237121 
L 480.46543 443.779276 
L 480.903918 447.587507 
L 481.342407 442.931455 
L 481.780895 445.484384 
L 482.219383 445.650456 
L 482.657872 442.296261 
L 483.534848 447.946633 
L 483.973337 444.98329 
L 484.411825 447.863389 
L 484.850313 447.776423 
L 485.72729 443.449981 
L 486.604267 448.53192 
L 487.042755 447.783462 
L 487.481243 445.098506 
L 487.919732 448.097725 
L 488.35822 446.038152 
L 488.796708 450.108606 
L 489.235197 451.127251 
L 489.673685 449.137635 
L 490.112173 449.340067 
L 490.550662 446.612815 
L 490.98915 446.895747 
L 491.427638 447.688508 
L 491.866127 447.559385 
L 492.304615 446.617899 
L 493.181592 450.681221 
L 494.058568 452.064226 
L 494.497057 450.334669 
L 494.935545 450.377323 
L 495.812522 448.382047 
L 496.25101 451.182303 
L 496.689498 450.326996 
L 497.127987 449.00249 
L 497.566475 452.715285 
L 498.004963 452.995544 
L 498.443452 452.954867 
L 498.88194 450.587856 
L 499.320428 451.469703 
L 499.758917 452.608173 
L 500.197405 451.732596 
L 500.635893 452.719249 
L 501.074382 454.674107 
L 501.51287 455.565592 
L 501.951358 454.191768 
L 502.828335 453.476364 
L 503.266823 450.857305 
L 503.705312 453.706783 
L 504.1438 452.327186 
L 504.582288 451.770724 
L 505.020777 453.009809 
L 505.459265 455.598174 
L 505.897753 454.375546 
L 506.336242 452.442793 
L 506.77473 454.00132 
L 507.213218 454.119122 
L 508.090195 455.725115 
L 508.528683 453.876355 
L 508.967172 456.876721 
L 509.40566 456.346032 
L 509.844148 453.603419 
L 510.282637 454.808332 
L 510.721125 454.443752 
L 511.159613 451.82229 
L 511.598102 455.772706 
L 512.475078 451.653641 
L 512.913567 454.782988 
L 513.352055 455.920644 
L 513.790543 454.963324 
L 514.229032 453.424215 
L 514.66752 453.609816 
L 515.106008 457.445572 
L 515.544497 456.455533 
L 515.982985 456.446149 
L 516.421473 455.88958 
L 516.859962 455.814403 
L 517.736938 452.99871 
L 518.175427 455.945443 
L 518.613915 453.908022 
L 519.052403 454.257143 
L 519.490892 456.08464 
L 520.367868 454.168076 
L 520.806357 455.120291 
L 521.244845 458.265393 
L 521.683333 457.622823 
L 522.121822 454.923031 
L 522.56031 453.894389 
L 522.998798 456.422761 
L 523.437287 457.813276 
L 523.875775 454.842391 
L 524.314263 455.743395 
L 524.752752 455.217587 
L 525.19124 457.252093 
L 525.629728 457.03326 
L 526.068217 453.972137 
L 526.506705 456.980592 
L 526.945193 457.266875 
L 527.383682 455.855071 
L 527.82217 456.862553 
L 528.699147 455.364218 
L 529.137635 455.094729 
L 529.576123 457.168433 
L 530.014612 455.183821 
L 530.4531 457.258553 
L 530.891588 455.84956 
L 531.330077 457.756473 
L 531.768565 456.551477 
L 532.207053 456.671027 
L 532.645542 457.47265 
L 533.08403 456.655493 
L 533.522518 455.362643 
L 533.961007 457.585671 
L 534.399495 455.62291 
L 534.837983 457.606593 
L 535.276472 456.648518 
L 535.71496 457.67304 
L 536.153448 457.735128 
L 537.030425 455.028482 
L 537.468913 457.854014 
L 537.907402 456.149679 
L 538.34589 457.842558 
L 538.784378 457.117305 
L 539.222867 459.031895 
L 539.661355 458.439505 
L 540.099843 455.663934 
L 540.538332 458.055576 
L 540.97682 456.685679 
L 541.415308 456.615251 
L 541.853797 457.946427 
L 542.292285 457.170778 
L 542.730773 456.99168 
L 543.169262 456.580402 
L 543.60775 458.082001 
L 544.046238 459.158282 
L 544.484727 458.902776 
L 544.923215 458.452643 
L 545.361703 457.172333 
L 545.800192 457.524314 
L 546.23868 456.554073 
L 546.677168 458.304599 
L 547.115657 458.498194 
L 547.554145 457.544288 
L 547.992633 457.395663 
L 548.431122 456.993557 
L 548.86961 458.358553 
L 549.308098 458.855278 
L 549.746587 457.851423 
L 550.185075 457.202938 
L 550.623563 458.447831 
L 551.062052 458.560668 
L 551.50054 458.009732 
L 551.939028 457.765244 
L 552.377517 457.92108 
L 552.816005 459.113513 
L 553.254493 458.535055 
L 553.692982 457.462902 
L 554.13147 458.667682 
L 554.569958 458.175251 
L 555.008447 458.637193 
L 555.446935 458.102785 
L 555.885423 458.761105 
L 556.323912 459.069148 
L 556.7624 457.821649 
L 557.200888 458.804992 
L 557.639377 459.199739 
L 558.077865 457.924074 
L 558.516353 458.239695 
L 558.954842 458.860631 
L 559.39333 457.407451 
L 559.831818 458.971321 
L 560.270307 459.502472 
L 560.708795 458.851664 
L 561.147283 459.663812 
L 561.585772 459.163869 
L 562.02426 458.430812 
L 562.901237 458.200772 
L 563.339725 459.089714 
L 563.778213 458.209119 
L 564.216702 459.103068 
L 564.65519 459.648859 
L 565.093678 459.956927 
L 565.532167 459.871132 
L 565.970655 458.563681 
L 566.409143 458.399686 
L 566.847632 459.237823 
L 567.28612 459.607891 
L 567.724608 459.461152 
L 568.163097 459.184824 
L 568.601585 459.31282 
L 569.040073 458.860768 
L 569.478562 458.596577 
L 569.91705 459.387689 
L 570.355538 458.859914 
L 570.794027 460.069559 
L 571.671003 459.505834 
L 572.109492 459.850772 
L 572.54798 459.757314 
L 572.986468 458.7386 
L 573.424957 459.599669 
L 574.301933 458.717359 
L 574.740422 459.614752 
L 575.17891 459.167351 
L 575.617398 459.949776 
L 576.055887 459.364473 
L 576.494375 460.13315 
L 576.932863 459.73671 
L 577.371352 460.391959 
L 577.80984 460.393325 
L 578.248328 460.08475 
L 578.686817 459.978165 
L 579.125305 459.719081 
L 579.563793 459.125144 
L 580.002282 459.87709 
L 580.44077 459.305271 
L 581.317747 460.643774 
L 581.756235 460.655697 
L 582.194723 459.556374 
L 582.633212 459.361478 
L 583.0717 460.015453 
L 583.510188 459.39807 
L 583.948677 460.736312 
L 584.387165 460.807928 
L 584.825653 459.467909 
L 585.264142 459.77825 
L 585.70263 459.517539 
L 586.141118 460.70901 
L 586.579607 460.013296 
L 587.018095 459.852555 
L 587.456583 459.309456 
L 587.895072 460.219736 
L 588.33356 460.594439 
L 588.772048 460.446233 
L 589.210537 460.870961 
L 589.649025 460.692536 
L 590.087513 460.733654 
L 590.526002 461.116279 
L 590.96449 461.178305 
L 591.402978 459.885466 
L 591.841467 460.307375 
L 592.279955 460.348942 
L 592.718443 461.029866 
L 593.156932 460.32907 
L 593.59542 461.113773 
L 594.033908 460.012003 
L 594.472397 460.884961 
L 595.349373 461.354195 
L 595.787862 461.170575 
L 596.664838 460.289922 
L 597.103327 460.608229 
L 597.541815 461.757533 
L 597.980303 462.040631 
L 598.418792 462.017715 
L 598.85728 461.583713 
L 599.295768 461.767983 
L 599.734257 461.785419 
L 600.172745 460.997017 
L 600.611233 461.327151 
L 601.48821 461.706837 
L 601.926698 462.006707 
L 602.365187 461.710434 
L 602.803675 461.819203 
L 603.242163 461.289907 
L 603.680652 461.612573 
L 604.11914 461.597167 
L 604.557628 462.407276 
L 605.434605 462.142712 
L 605.873093 461.166238 
L 606.311582 462.449743 
L 606.75007 462.151189 
L 607.188558 462.115632 
L 607.627047 461.244596 
L 608.065535 462.692449 
L 609.381 462.634704 
L 609.819488 462.250864 
L 610.257977 461.511648 
L 610.696465 462.753811 
L 611.134953 462.437875 
L 611.573442 461.600766 
L 612.01193 462.016884 
L 612.450418 462.588193 
L 612.888907 462.531669 
L 613.765883 461.734777 
L 614.204372 463.181436 
L 614.64286 463.406208 
L 615.081348 462.075507 
L 615.519837 461.802661 
L 615.958325 462.154882 
L 616.396813 462.140676 
L 616.835302 463.080608 
L 617.27379 462.040112 
L 617.712278 463.128242 
L 618.150767 463.081234 
L 618.589255 462.17965 
L 619.027743 462.91737 
L 619.466232 462.655783 
L 619.90472 461.727434 
L 620.343208 462.754265 
L 620.781697 463.02379 
L 621.220185 462.348057 
L 621.658673 463.351525 
L 622.097162 462.455164 
L 622.53565 463.496897 
L 622.974138 463.275001 
L 623.412627 462.839733 
L 623.851115 463.698101 
L 624.289603 463.659921 
L 625.605068 462.181954 
L 626.043557 463.016624 
L 626.482045 463.200695 
L 626.920533 462.204501 
L 627.79751 463.761587 
L 628.674487 463.59144 
L 629.112975 462.568012 
L 629.551463 463.269433 
L 629.989952 462.560475 
L 630.42844 463.236012 
L 630.866928 463.484894 
L 631.305417 462.72365 
L 631.743905 463.0909 
L 632.182393 463.77643 
L 632.620882 463.436544 
L 633.05937 463.599097 
L 633.497858 462.656125 
L 633.936347 463.387001 
L 634.374835 463.741255 
L 634.813323 463.843855 
L 635.251812 463.300295 
L 635.6903 463.308491 
L 636.128788 463.954444 
L 636.567277 463.628848 
L 637.005765 463.837075 
L 637.882742 463.9863 
L 638.32123 463.564424 
L 638.759718 464.074036 
L 639.636695 463.350949 
L 640.075183 464.087122 
L 640.513672 463.615924 
L 640.95216 464.314131 
L 641.390648 464.198846 
L 641.829137 463.773873 
L 642.267625 463.835718 
L 642.706113 464.406002 
L 643.144602 464.295089 
L 644.021578 463.612166 
L 644.460067 463.807757 
L 644.898555 463.675249 
L 645.337043 464.45179 
L 645.775532 464.226798 
L 646.21402 464.288776 
L 647.090997 464.179406 
L 647.529485 464.181091 
L 647.967973 464.420003 
L 648.406462 463.616808 
L 648.84495 464.159381 
L 649.283438 463.911298 
L 649.721927 464.45242 
L 650.160415 463.961464 
L 651.037392 464.692034 
L 651.47588 464.579699 
L 651.914368 464.017837 
L 652.352857 464.658283 
L 652.791345 464.045249 
L 653.229833 464.258596 
L 653.668322 464.742933 
L 654.10681 464.470088 
L 654.545298 464.898853 
L 654.983787 464.833261 
L 655.422275 464.346357 
L 655.860763 464.087609 
L 656.299252 464.601986 
L 656.73774 464.881877 
L 657.176228 464.398992 
L 658.053205 464.201846 
L 658.491693 464.764913 
L 658.930182 465.080071 
L 659.36867 465.067762 
L 659.807158 464.393707 
L 660.245647 464.973265 
L 660.684135 464.755861 
L 661.561112 464.921891 
L 661.9996 464.313718 
L 662.438088 464.313704 
L 662.876577 464.475873 
L 663.315065 464.962296 
L 663.753553 464.19821 
L 664.192042 464.799291 
L 664.63053 464.390049 
L 665.069018 465.26341 
L 665.507507 465.209053 
L 665.945995 464.947394 
L 666.384483 464.936394 
L 666.822972 464.590924 
L 667.26146 464.659695 
L 667.699948 464.414543 
L 668.138437 464.975594 
L 668.576925 464.433951 
L 669.015413 465.125147 
L 669.453902 464.587935 
L 669.89239 465.38135 
L 670.330878 465.205256 
L 670.769367 465.219974 
L 671.207855 464.706464 
L 671.646343 464.542192 
L 672.084832 465.042433 
L 672.52332 464.558235 
L 672.961808 465.039231 
L 673.400297 464.996724 
L 673.838785 465.248695 
L 674.277273 464.716715 
L 674.715762 465.612668 
L 675.15425 465.789797 
L 675.592738 464.559844 
L 676.031227 465.156289 
L 676.469715 464.744783 
L 676.908203 465.325559 
L 677.346692 464.751583 
L 677.78518 465.166967 
L 678.662157 465.203448 
L 679.100645 465.744977 
L 679.539133 465.416005 
L 679.977622 465.692365 
L 680.41611 465.637535 
L 681.293087 465.080704 
L 683.04704 465.629552 
L 683.485528 465.540175 
L 683.924017 465.993659 
L 684.362505 466.21185 
L 684.800993 466.02447 
L 685.239482 466.162308 
L 685.67797 465.429811 
L 686.116458 465.635356 
L 686.554947 466.00883 
L 686.993435 466.180426 
L 687.431923 465.797364 
L 687.870412 465.580442 
L 688.3089 465.940244 
L 688.747388 465.798971 
L 690.062853 466.445146 
L 690.501342 466.236741 
L 690.93983 466.342396 
L 691.378318 466.093555 
L 691.816807 466.522703 
L 692.255295 466.491699 
L 692.693783 466.326564 
L 693.132272 465.91988 
L 694.009248 466.640679 
L 694.447737 466.628039 
L 694.886225 466.204425 
L 695.324713 466.604862 
L 695.763202 466.252123 
L 696.20169 466.974405 
L 696.640178 467.293491 
L 697.078667 466.955124 
L 697.517155 467.168498 
L 697.955643 466.781978 
L 698.394132 466.928964 
L 699.271108 466.16576 
L 699.709597 466.784625 
L 700.148085 466.93199 
L 701.025062 467.942853 
L 701.46355 467.029296 
L 701.902038 466.727544 
L 702.340527 467.534709 
L 702.779015 466.566578 
L 703.217503 467.662861 
L 703.655992 467.066525 
L 704.09448 467.613264 
L 704.971457 467.1169 
L 705.409945 467.204318 
L 705.848433 467.681732 
L 706.286922 467.451485 
L 706.72541 467.827662 
L 707.163898 467.912708 
L 708.040875 467.324819 
L 708.479363 468.161446 
L 708.917852 468.340332 
L 709.35634 467.942277 
L 710.233317 467.926577 
L 710.671805 468.278232 
L 711.548782 468.329974 
L 711.98727 468.337005 
L 712.425758 468.474397 
L 713.741223 468.347551 
L 714.179712 468.365687 
L 714.6182 468.737392 
L 715.056688 468.74099 
L 715.495177 468.369136 
L 715.933665 468.781203 
L 716.810642 468.256773 
L 717.24913 469.054974 
L 717.687618 469.218344 
L 718.126107 468.288385 
L 718.564595 469.373565 
L 719.003083 469.900323 
L 719.441572 469.144945 
L 719.88006 469.140018 
L 720.318548 469.598303 
L 720.757037 469.310675 
L 721.195525 469.190034 
L 721.634013 469.203032 
L 722.072502 469.754933 
L 722.51099 469.742566 
L 723.387967 470.065673 
L 724.264943 469.357686 
L 724.703432 469.933362 
L 725.14192 469.578463 
L 725.580408 470.116833 
L 726.018897 470.005344 
L 726.457385 470.16673 
L 726.895873 469.957871 
L 727.77285 470.24769 
L 728.211338 469.760082 
L 729.088315 470.036804 
L 729.526803 470.528706 
L 729.965292 470.090577 
L 730.40378 470.903716 
L 730.842268 470.967493 
L 731.280757 470.566711 
L 731.719245 470.520572 
L 733.03471 471.153299 
L 733.911687 471.617337 
L 734.788663 470.722426 
L 735.227152 471.469036 
L 735.66564 471.2984 
L 736.104128 470.719335 
L 736.542617 471.502712 
L 736.981105 471.668668 
L 737.858082 471.203137 
L 739.173547 471.645641 
L 739.612035 472.066225 
L 740.050523 471.846158 
L 740.9275 471.7586 
L 741.365988 472.113782 
L 741.804477 471.456777 
L 742.242965 472.102529 
L 742.681453 470.676 
L 743.119942 472.251558 
L 743.55843 471.438859 
L 743.996918 472.251128 
L 744.435407 472.158853 
L 744.873895 471.457813 
L 745.312383 471.215712 
L 745.750872 472.064939 
L 746.18936 471.780563 
L 746.627848 472.389423 
L 747.066337 471.281278 
L 747.504825 472.951394 
L 747.943313 473.022456 
L 748.381802 472.392536 
L 748.82029 472.509682 
L 749.258778 472.38094 
L 749.697267 471.409308 
L 750.135755 472.498228 
L 750.574243 472.477738 
L 751.012732 471.496703 
L 751.45122 471.608614 
L 751.889708 472.272232 
L 752.328197 471.565215 
L 752.766685 473.052722 
L 753.205173 472.62365 
L 753.643662 471.610488 
L 754.08215 471.699618 
L 754.520638 471.302327 
L 754.959127 472.461045 
L 755.397615 472.062761 
L 755.836103 472.438115 
L 756.274592 473.257064 
L 756.71308 473.030932 
L 757.151568 473.321137 
L 757.590057 473.014485 
L 758.028545 472.279631 
L 758.467033 472.711074 
L 758.905522 472.983769 
L 759.34401 472.925935 
L 759.782498 472.435842 
L 760.220987 472.440082 
L 760.659475 473.566405 
L 761.097963 473.443384 
L 761.536452 473.068545 
L 761.97494 473.412708 
L 762.413428 473.260256 
L 762.851917 473.608073 
L 763.290405 473.165842 
L 763.728893 473.207052 
L 764.167382 473.565885 
L 764.60587 473.052323 
L 765.044358 473.945466 
L 765.482847 473.771051 
L 765.921335 473.216665 
L 766.359823 473.753562 
L 766.798312 473.367383 
L 767.2368 473.869826 
L 767.675288 472.862468 
L 768.113777 474.069839 
L 768.552265 473.400251 
L 768.990753 474.326563 
L 769.429242 474.01679 
L 769.86773 474.154934 
L 770.306218 473.846337 
L 770.744707 473.996036 
L 771.183195 473.036739 
L 771.621683 474.125325 
L 772.060172 473.664019 
L 772.49866 471.841594 
L 772.937148 473.970711 
L 773.375637 473.156218 
L 774.252613 474.607115 
L 774.691102 474.349846 
L 775.12959 474.337072 
L 775.568078 473.295186 
L 776.006567 473.924471 
L 776.445055 473.711656 
L 776.883543 474.644575 
L 777.322032 474.201441 
L 777.76052 474.709363 
L 778.199008 474.256021 
L 778.637497 473.278206 
L 779.075985 474.139143 
L 779.514473 474.624834 
L 779.952962 474.179121 
L 780.39145 474.505405 
L 780.829938 474.640895 
L 781.268427 474.910661 
L 781.706915 474.439834 
L 782.145403 474.872355 
L 782.583892 474.225414 
L 783.02238 474.149015 
L 783.460868 474.681533 
L 783.899357 473.915677 
L 784.337845 474.67857 
L 785.214822 473.903892 
L 785.65331 474.597764 
L 786.091798 474.533627 
L 786.530287 475.205618 
L 786.968775 474.9404 
L 787.407263 475.412779 
L 787.845752 475.431699 
L 788.28424 474.898157 
L 788.722728 474.834012 
L 789.161217 474.549234 
L 789.599705 475.193991 
L 790.038193 474.551168 
L 790.476682 474.968008 
L 790.91517 474.229137 
L 791.353658 474.640075 
L 791.792147 474.15701 
L 792.230635 474.960829 
L 792.669123 474.893677 
L 793.5461 475.597044 
L 793.984588 475.334744 
L 794.423077 475.534116 
L 794.861565 474.704569 
L 795.300053 474.93632 
L 795.738542 474.627045 
L 796.17703 475.416509 
L 796.615518 475.745595 
L 797.492495 475.452352 
L 797.930983 474.720308 
L 798.369472 474.69045 
L 798.80796 475.398601 
L 799.246448 475.519748 
L 799.684937 475.339428 
L 800.123425 475.630486 
L 800.561913 475.060129 
L 801.43889 475.41877 
L 801.877378 474.864732 
L 802.315867 475.311566 
L 802.754355 474.68313 
L 803.192843 475.500233 
L 803.631332 475.474033 
L 804.06982 475.269463 
L 804.508308 475.46911 
L 804.946797 476.089019 
L 805.823773 475.487839 
L 806.262262 475.841988 
L 806.70075 475.485305 
L 807.139238 475.296253 
L 807.577727 475.838821 
L 808.016215 475.686459 
L 808.454703 476.08419 
L 808.893192 475.423692 
L 809.33168 475.571583 
L 809.770168 475.323839 
L 810.208657 475.662118 
L 810.647145 475.206272 
L 811.085633 475.849699 
L 811.524122 475.111552 
L 811.96261 475.865203 
L 812.401098 475.362932 
L 812.839587 475.856266 
L 813.278075 476.097217 
L 813.716563 475.629768 
L 814.155052 475.479782 
L 814.59354 475.110329 
L 815.032028 475.929342 
L 815.470517 475.588596 
L 815.909005 475.823726 
L 816.347493 475.746386 
L 816.785982 475.872039 
L 817.22447 475.357156 
L 817.662958 475.947033 
L 818.101447 475.691447 
L 818.539935 475.238403 
L 818.978423 475.966527 
L 819.416912 476.08916 
L 819.8554 475.644297 
L 820.293888 476.185807 
L 820.732377 475.7021 
L 821.170865 475.739658 
L 821.609353 475.644099 
L 822.047842 476.204417 
L 822.48633 475.704026 
L 822.924818 475.895901 
L 823.363307 475.734818 
L 823.801795 475.417522 
L 824.240283 476.082467 
L 824.678772 475.818818 
L 825.555748 475.832011 
L 825.994237 475.602824 
L 826.432725 476.104262 
L 826.871213 475.841736 
L 827.309702 476.327126 
L 827.74819 476.05889 
L 828.186678 475.620306 
L 828.625167 476.124895 
L 829.063655 475.744976 
L 829.502143 476.135732 
L 829.940632 475.697748 
L 830.37912 476.14398 
L 830.817608 475.663386 
L 831.256097 476.148329 
L 831.694585 475.827271 
L 832.133073 476.132733 
L 832.571562 475.869817 
L 833.01005 475.780709 
L 833.448538 476.140892 
L 833.887027 475.871926 
L 834.325515 476.20226 
L 834.764003 476.30567 
L 835.202492 476.206406 
L 835.64098 475.887156 
L 836.079468 475.936031 
L 836.517957 475.866294 
L 836.956445 476.179415 
L 837.394933 475.828896 
L 837.833422 476.191207 
L 838.27191 475.853395 
L 838.710398 476.191277 
L 839.148887 476.331864 
L 839.587375 476.049793 
L 840.025863 475.949479 
L 840.464352 476.252223 
L 840.90284 475.969517 
L 841.341328 476.319597 
L 841.779817 476.009027 
L 842.218305 476.253833 
L 843.53377 476.351653 
L 843.972258 476.099945 
L 844.410747 476.10276 
L 844.849235 476.279305 
L 845.287723 476.075365 
L 845.726212 476.299004 
L 846.603188 476.269853 
L 847.041677 476.443256 
L 847.480165 476.325953 
L 849.234118 476.309719 
L 850.111095 476.285492 
L 850.988072 476.431337 
L 852.303537 476.363108 
L 852.742025 476.039824 
L 853.180513 476.428023 
L 853.619002 476.341973 
L 854.495978 476.464983 
L 854.934467 476.233846 
L 855.811443 476.527609 
L 856.68842 476.237006 
L 857.126908 476.443042 
L 857.565397 476.286348 
L 858.003885 476.440497 
L 859.31935 476.410562 
L 861.073303 476.444744 
L 862.827257 476.327377 
L 863.704233 476.558122 
L 864.142722 476.374519 
L 864.58121 476.522946 
L 865.019698 476.350278 
L 865.458187 476.512834 
L 865.896675 476.367819 
L 866.335163 476.516854 
L 866.773652 476.406603 
L 867.21214 476.523919 
L 867.650628 476.435859 
L 868.089117 476.595055 
L 868.966093 476.508834 
L 869.404582 476.442653 
L 869.84307 476.589635 
L 871.597023 476.489928 
L 872.035512 476.668809 
L 872.474 476.660574 
L 872.912488 476.445433 
L 873.350977 476.641146 
L 873.789465 476.660439 
L 874.666442 476.456528 
L 875.543418 476.495405 
L 875.981907 476.413424 
L 876.420395 476.586608 
L 876.858883 476.603506 
L 877.297372 476.454175 
L 877.73586 476.589683 
L 878.612837 476.442511 
L 879.051325 476.593869 
L 880.36679 476.441632 
L 880.805278 476.600991 
L 881.682255 476.419922 
L 882.559232 476.725085 
L 882.99772 476.749356 
L 883.436208 476.562684 
L 883.874697 476.727816 
L 884.313185 476.725754 
L 884.751673 476.569504 
L 885.62865 476.538532 
L 886.067138 476.523592 
L 886.944115 476.733054 
L 888.25958 476.553271 
L 888.698068 476.660586 
L 890.89051 476.589247 
L 891.328998 476.721041 
L 891.767487 476.58428 
L 892.644463 476.685868 
L 893.082952 476.767903 
L 893.959928 476.79451 
L 896.15237 476.847747 
L 896.590858 476.884531 
L 897.029347 476.727449 
L 897.467835 476.703303 
L 897.906323 476.857883 
L 898.344812 476.853413 
L 898.7833 476.691547 
L 899.221788 476.814585 
L 899.660277 476.762703 
L 900.975742 476.978628 
L 901.41423 476.842024 
L 902.729695 476.967599 
L 903.168183 476.82928 
L 903.606672 476.814287 
L 904.04516 476.93832 
L 904.483648 476.846702 
L 905.360625 476.964297 
L 905.799113 476.906179 
L 906.237602 476.997444 
L 907.553067 476.93327 
L 908.868532 477.003778 
L 909.30702 476.953394 
L 909.745508 477.057471 
L 910.183997 477.024611 
L 911.060973 477.198784 
L 911.499462 477.122828 
L 911.93795 476.927502 
L 912.376438 477.075844 
L 912.814927 477.007259 
L 913.691903 477.124329 
L 914.130392 477.074639 
L 914.56888 477.193331 
L 916.761322 477.097433 
L 917.19981 477.241158 
L 917.638298 477.266255 
L 918.076787 477.072557 
L 918.515275 477.216519 
L 919.392252 477.215901 
L 920.269228 477.315183 
L 922.46167 477.321062 
L 924.215623 477.399185 
L 925.0926 477.379837 
L 925.969577 477.567674 
L 926.408065 477.324595 
L 926.846553 477.355736 
L 927.285042 477.503443 
L 928.600507 477.471677 
L 929.477483 477.788299 
L 929.915972 477.591832 
L 930.35446 477.544042 
L 931.231437 477.676468 
L 932.546902 477.662172 
L 932.98539 477.78447 
L 933.423878 477.606589 
L 933.862367 477.774624 
L 934.739343 477.67822 
L 935.61632 478.001405 
L 936.054808 477.878356 
L 937.370273 478.027282 
L 937.808762 478.146604 
L 938.24725 477.981846 
L 938.685738 477.956887 
L 939.124227 478.067347 
L 941.316668 477.983984 
L 941.755157 478.212844 
L 942.193645 478.312578 
L 942.632133 478.159042 
L 943.50911 478.260832 
L 943.947598 478.120092 
L 944.386087 478.354112 
L 946.14004 478.597273 
L 946.578528 478.307185 
L 947.017017 478.509641 
L 949.209458 478.618042 
L 949.647947 478.579665 
L 950.086435 478.351364 
L 950.524923 478.74197 
L 950.963412 478.854515 
L 951.4019 478.559426 
L 951.840388 478.726601 
L 952.278877 478.736432 
L 953.155853 479.166371 
L 953.594342 479.027804 
L 954.03283 479.109683 
L 954.471318 479.001247 
L 954.909807 479.080484 
L 955.786783 478.890932 
L 957.102248 479.30856 
L 957.540737 479.450076 
L 957.979225 479.23953 
L 958.856202 479.475344 
L 959.29469 479.647922 
L 959.733178 479.304322 
L 960.610155 479.428101 
L 961.487132 479.845045 
L 961.92562 479.476063 
L 962.364108 479.699292 
L 962.802597 479.376673 
L 963.241085 479.714144 
L 963.679573 479.384477 
L 964.118062 479.824545 
L 964.995038 479.905577 
L 966.310503 479.705374 
L 966.748992 480.050281 
L 967.18748 480.113566 
L 967.625968 479.839753 
L 968.064457 480.154373 
L 968.502945 480.21049 
L 968.941433 479.941394 
L 971.572363 479.903267 
L 972.010852 480.50654 
L 972.44934 480.728615 
L 972.887828 479.733005 
L 973.326317 479.676836 
L 973.764805 480.323453 
L 974.203293 479.873242 
L 974.641782 480.370113 
L 975.08027 480.419551 
L 975.518758 479.794585 
L 975.957247 480.336959 
L 976.395735 480.281066 
L 976.834223 480.372021 
L 977.7112 479.775258 
L 978.149688 480.195815 
L 978.588177 480.322592 
L 979.026665 480.589346 
L 979.465153 480.340905 
L 979.903642 479.696745 
L 980.34213 480.277922 
L 980.780618 480.447595 
L 981.219107 480.097935 
L 981.657595 480.568847 
L 982.096083 480.622936 
L 982.534572 480.150246 
L 982.97306 480.286176 
L 983.411548 480.800706 
L 984.288525 480.753627 
L 984.727013 480.80345 
L 985.165502 480.590796 
L 985.60399 480.703061 
L 986.042478 479.963719 
L 986.480967 480.507668 
L 986.919455 480.216734 
L 987.357943 480.607076 
L 987.796432 480.483318 
L 988.23492 480.545203 
L 989.111897 480.322924 
L 989.988873 480.852219 
L 990.427362 480.637793 
L 991.304338 480.79978 
L 991.742827 480.388696 
L 992.181315 480.980453 
L 992.619803 480.883309 
L 993.935268 481.02465 
L 994.373757 480.833836 
L 994.812245 481.103872 
L 995.250733 480.988934 
L 995.689222 480.56154 
L 996.12771 481.095985 
L 996.566198 481.000669 
L 997.004687 480.665484 
L 997.443175 480.709369 
L 997.881663 481.004983 
L 998.320152 480.914268 
L 998.75864 480.700149 
L 999.635617 480.905906 
L 1000.074105 481.378106 
L 1000.512593 481.524497 
L 1000.951082 480.909103 
L 1001.38957 481.017688 
L 1001.828058 480.787657 
L 1002.266547 480.792739 
L 1003.143523 481.121124 
L 1003.582012 480.96871 
L 1004.0205 481.376246 
L 1004.458988 481.19644 
L 1004.897477 480.72749 
L 1005.335965 481.114073 
L 1005.774453 480.971108 
L 1006.212942 481.356355 
L 1007.089918 481.495889 
L 1007.966895 481.157062 
L 1008.405383 481.163486 
L 1008.843872 481.007819 
L 1009.28236 481.070913 
L 1009.720848 481.415038 
L 1010.159337 481.101869 
L 1010.597825 481.445095 
L 1011.036313 481.095527 
L 1011.474802 481.356291 
L 1011.91329 481.484241 
L 1012.351778 481.159273 
L 1012.790267 481.373607 
L 1013.228755 481.235211 
L 1014.54422 481.747243 
L 1014.982708 481.170252 
L 1015.421197 481.071479 
L 1015.859685 481.421115 
L 1016.298173 481.593493 
L 1016.736662 481.414018 
L 1017.17515 481.773602 
L 1017.613638 481.711664 
L 1018.052127 481.777403 
L 1018.490615 481.650359 
L 1018.929103 481.683675 
L 1019.80608 481.455032 
L 1020.244568 481.571794 
L 1020.683057 481.31316 
L 1021.121545 481.751876 
L 1021.560033 481.611691 
L 1021.998522 481.671423 
L 1022.43701 481.304425 
L 1022.875498 481.633553 
L 1023.313987 481.605687 
L 1023.752475 481.849472 
L 1024.190963 481.637719 
L 1024.629452 481.598115 
L 1025.06794 481.678756 
L 1025.506428 481.642739 
L 1026.383405 481.967375 
L 1027.260382 481.704023 
L 1027.69887 481.948354 
L 1028.575847 481.603574 
L 1029.014335 481.887635 
L 1029.452823 481.862108 
L 1029.891312 481.993736 
L 1030.3298 481.744207 
L 1030.768288 481.788916 
L 1031.206777 481.43206 
L 1031.645265 481.865199 
L 1032.083753 481.9301 
L 1032.96073 481.653406 
L 1033.399218 481.925441 
L 1033.837707 481.707182 
L 1034.276195 482.078327 
L 1035.153172 481.764084 
L 1036.030148 481.76962 
L 1036.468637 481.950799 
L 1036.907125 481.963642 
L 1037.345613 481.802428 
L 1038.22259 481.742599 
L 1038.661078 481.697275 
L 1039.099567 481.970401 
L 1039.538055 481.726351 
L 1039.976543 481.969761 
L 1040.85352 481.763459 
L 1041.292008 481.986839 
L 1041.730497 481.767783 
L 1043.045962 481.759679 
L 1043.48445 481.984662 
L 1043.922938 481.770239 
L 1044.361427 481.711711 
L 1044.799915 481.990689 
L 1045.238403 481.786225 
L 1045.676892 482.088892 
L 1046.11538 481.854659 
L 1046.553868 482.032024 
L 1046.992357 481.849384 
L 1047.869333 481.751016 
L 1048.307822 482.018029 
L 1048.74631 481.797353 
L 1049.184798 482.016267 
L 1049.623287 481.778048 
L 1050.061775 482.020709 
L 1050.500263 481.832297 
L 1050.938752 481.970564 
L 1051.37724 481.832428 
L 1051.815728 482.023595 
L 1052.254217 481.763315 
L 1052.692705 482.037345 
L 1053.131193 482.164602 
L 1054.00817 481.951181 
L 1054.446658 482.154023 
L 1055.323635 482.079396 
L 1055.762123 481.787091 
L 1056.200612 482.096741 
L 1057.077588 481.9723 
L 1057.516077 481.866253 
L 1057.954565 482.097053 
L 1058.393053 482.00129 
L 1058.831542 482.098681 
L 1059.27003 482.065354 
L 1059.708518 482.19142 
L 1060.585495 481.916061 
L 1061.023983 482.112714 
L 1061.462472 482.027844 
L 1061.90096 482.123132 
L 1062.339448 482.075532 
L 1062.777937 482.167942 
L 1063.654913 481.980376 
L 1064.093402 482.132473 
L 1065.847355 482.201233 
L 1066.285843 482.059151 
L 1066.724332 482.137106 
L 1067.601308 482.115256 
L 1068.039797 482.180697 
L 1068.478285 482.088644 
L 1070.232238 482.076761 
L 1075.494098 482.181293 
L 1075.932587 482.099223 
L 1076.371075 482.192031 
L 1078.125028 482.123895 
L 1078.563517 482.171218 
L 1079.002005 482.034975 
L 1079.440493 482.218265 
L 1079.878982 482.104738 
L 1080.31747 482.209848 
L 1081.632935 482.213949 
L 1085.140842 482.166451 
L 1085.57933 482.270995 
L 1086.456307 482.17308 
L 1086.894795 482.241876 
L 1087.333283 482.169905 
L 1087.771772 482.239244 
L 1088.21026 482.164887 
L 1089.087237 482.250316 
L 1089.525725 482.135485 
L 1089.964213 482.248219 
L 1092.595143 482.169514 
L 1093.47212 482.251556 
L 1095.226073 482.253676 
L 1096.541538 482.231235 
L 1098.295492 482.261779 
L 1099.172468 482.219875 
L 1104.872817 482.230349 
L 1105.749793 482.284057 
L 1107.065258 482.233417 
L 1108.819212 482.31589 
L 1111.450142 482.304122 
L 1278.952685 483.06462 
L 1280.26815 483.101381 
L 1285.091522 483.115313 
L 1286.406987 483.080327 
L 1289.476405 483.123097 
L 1298.68466 483.130753 
L 1301.31559 483.17013 
L 1302.192567 483.202387 
L 1316.224193 483.199414 
L 1320.609077 483.235647 
L 1321.924542 483.196462 
L 1359.634538 483.264519 
L 1361.388492 483.270012 
L 1364.896398 483.262835 
L 1370.158258 483.271249 
L 1378.928025 483.306416 
L 1383.312908 483.300555 
L 1389.451745 483.314978 
L 1392.082675 483.309768 
L 1399.098488 483.313011 
L 1399.098488 483.313011 
" style="fill:none;stroke:#d62728;stroke-linecap:square;stroke-width:3;"/>
   </g>
   <g id="line2d_21">
    <path clip-path="url(#p75e48fb046)" d="M 83.195 485.30822 
L 1398.66 485.30822 
" style="fill:none;stroke:#000000;stroke-dasharray:7.4,3.2;stroke-dashoffset:0;stroke-width:2;"/>
   </g>
   <g id="patch_3">
    <path d="M 83.195 507.745 
L 83.195 10.8 
" style="fill:none;stroke:#000000;stroke-linecap:square;stroke-linejoin:miter;stroke-width:0.8;"/>
   </g>
   <g id="patch_4">
    <path d="M 1398.66 507.745 
L 1398.66 10.8 
" style="fill:none;stroke:#000000;stroke-linecap:square;stroke-linejoin:miter;stroke-width:0.8;"/>
   </g>
   <g id="patch_5">
    <path d="M 83.195 507.745 
L 1398.66 507.745 
" style="fill:none;stroke:#000000;stroke-linecap:square;stroke-linejoin:miter;stroke-width:0.8;"/>
   </g>
   <g id="patch_6">
    <path d="M 83.195 10.8 
L 1398.66 10.8 
" style="fill:none;stroke:#000000;stroke-linecap:square;stroke-linejoin:miter;stroke-width:0.8;"/>
   </g>
   <g id="patch_7">
    <path clip-path="url(#p75e48fb046)" d="M 83.195 486.25066 
L 214.7415 486.25066 
L 214.7415 385.914937 
L 83.195 385.914937 
z
" style="fill:none;opacity:0.5;stroke:#000000;stroke-linejoin:miter;"/>
   </g>
   <g id="patch_8">
    <path d="M 477.8345 60.4945 
Q 280.51475 223.204718 83.195 385.914937 
" style="fill:none;opacity:0.5;stroke:#000000;stroke-linecap:round;"/>
   </g>
   <g id="patch_9">
    <path d="M 872.474 308.967 
Q 543.60775 397.60883 214.7415 486.25066 
" style="fill:none;opacity:0.5;stroke:#000000;stroke-linecap:round;"/>
   </g>
   <g id="axes_2">
    <g id="patch_10">
     <path d="M 477.8345 308.967 
L 872.474 308.967 
L 872.474 60.4945 
L 477.8345 60.4945 
z
" style="fill:#ffffff;"/>
    </g>
    <g id="matplotlib.axis_3">
     <g id="xtick_8">
      <g id="line2d_22">
       <g>
        <use style="stroke:#000000;stroke-width:0.8;" x="477.8345" xlink:href="#m6b20bf1d1d" y="308.967"/>
       </g>
      </g>
     </g>
     <g id="xtick_9">
      <g id="line2d_23">
       <g>
        <use style="stroke:#000000;stroke-width:0.8;" x="609.381" xlink:href="#m6b20bf1d1d" y="308.967"/>
       </g>
      </g>
     </g>
     <g id="xtick_10">
      <g id="line2d_24">
       <g>
        <use style="stroke:#000000;stroke-width:0.8;" x="740.9275" xlink:href="#m6b20bf1d1d" y="308.967"/>
       </g>
      </g>
     </g>
     <g id="xtick_11">
      <g id="line2d_25">
       <g>
        <use style="stroke:#000000;stroke-width:0.8;" x="872.474" xlink:href="#m6b20bf1d1d" y="308.967"/>
       </g>
      </g>
     </g>
    </g>
    <g id="matplotlib.axis_4">
     <g id="ytick_10">
      <g id="line2d_26">
       <g>
        <use style="stroke:#000000;stroke-width:0.8;" x="477.8345" xlink:href="#m13ba94d09f" y="291.631709"/>
       </g>
      </g>
     </g>
     <g id="ytick_11">
      <g id="line2d_27">
       <g>
        <use style="stroke:#000000;stroke-width:0.8;" x="477.8345" xlink:href="#m13ba94d09f" y="233.847407"/>
       </g>
      </g>
     </g>
     <g id="ytick_12">
      <g id="line2d_28">
       <g>
        <use style="stroke:#000000;stroke-width:0.8;" x="477.8345" xlink:href="#m13ba94d09f" y="176.063105"/>
       </g>
      </g>
     </g>
     <g id="ytick_13">
      <g id="line2d_29">
       <g>
        <use style="stroke:#000000;stroke-width:0.8;" x="477.8345" xlink:href="#m13ba94d09f" y="118.278802"/>
       </g>
      </g>
     </g>
     <g id="ytick_14">
      <g id="line2d_30">
       <g>
        <use style="stroke:#000000;stroke-width:0.8;" x="477.8345" xlink:href="#m13ba94d09f" y="60.4945"/>
       </g>
      </g>
     </g>
    </g>
    <g id="line2d_31">
     <path clip-path="url(#pbdc72f3043)" d="M 536.405771 -1 
L 537.030425 21.355184 
L 538.34589 41.266174 
L 539.661355 2.012336 
L 542.292285 26.225573 
L 542.741492 -1 
M 544.559696 -1 
L 544.923215 19.049018 
L 545.170787 -1 
M 546.955975 -1 
L 547.554145 71.118344 
L 550.185075 14.664365 
L 551.414375 -1 
M 551.530648 -1 
L 552.816005 45.874001 
L 554.13147 8.373265 
L 555.446935 39.259744 
L 556.316199 -1 
M 557.071589 -1 
L 558.077865 66.257782 
L 559.055759 -1 
M 559.87593 -1 
L 560.708795 39.068615 
L 561.212301 -1 
M 562.539093 -1 
L 563.339725 99.48472 
L 564.65519 28.809238 
L 565.970655 81.553461 
L 567.28612 37.520056 
L 568.601585 32.267267 
L 569.91705 83.351411 
L 571.232515 83.939648 
L 572.54798 74.937116 
L 573.863445 70.322151 
L 575.17891 84.978994 
L 576.494375 96.831415 
L 577.80984 80.444178 
L 579.125305 84.310481 
L 580.44077 96.756973 
L 581.756235 72.391416 
L 583.0717 77.567872 
L 584.387165 115.342112 
L 585.70263 107.901845 
L 587.018095 166.461855 
L 588.33356 188.378333 
L 589.649025 182.530592 
L 590.96449 173.88607 
L 592.279955 171.051122 
L 593.59542 185.013956 
L 594.910885 181.151417 
L 596.22635 168.621145 
L 597.541815 173.078008 
L 598.85728 222.774064 
L 600.172745 217.849014 
L 601.48821 174.702846 
L 602.803675 219.374512 
L 604.11914 236.662387 
L 605.434605 234.161112 
L 606.75007 250.755277 
L 608.065535 224.338058 
L 609.381 231.899059 
L 610.696465 258.666732 
L 612.01193 199.661914 
L 613.327395 260.77388 
L 614.64286 245.73653 
L 615.958325 248.297746 
L 617.27379 266.067543 
L 618.589255 263.154688 
L 619.90472 246.787692 
L 621.220185 250.722564 
L 622.53565 224.982931 
L 623.851115 239.180481 
L 625.16658 283.958074 
L 626.482045 263.186869 
L 627.79751 249.949079 
L 629.112975 277.845736 
L 630.42844 251.781311 
L 631.743905 269.674617 
L 633.05937 248.588971 
L 634.374835 280.060503 
L 635.6903 259.829172 
L 637.005765 276.23739 
L 638.32123 280.024016 
L 639.636695 289.091251 
L 640.95216 268.771351 
L 642.267625 274.124955 
L 643.58309 235.305584 
L 644.898555 278.997173 
L 646.21402 278.105701 
L 647.529485 278.950382 
L 648.84495 285.554174 
L 650.160415 284.687393 
L 651.47588 288.488758 
L 652.791345 286.587796 
L 654.10681 294.422257 
L 655.422275 283.077425 
L 656.73774 291.700055 
L 658.053205 273.881905 
L 659.36867 291.093064 
L 660.684135 291.70198 
L 661.9996 294.859652 
L 663.315065 297.074798 
L 664.63053 294.116956 
L 665.945995 281.380217 
L 667.26146 291.775845 
L 668.576925 290.549775 
L 669.89239 294.968838 
L 671.207855 287.043499 
L 672.52332 294.536585 
L 673.838785 291.991 
L 675.15425 294.656252 
L 676.469715 297.043535 
L 677.78518 294.456618 
L 679.100645 297.833657 
L 680.41611 294.564772 
L 681.731575 297.370536 
L 683.04704 296.680818 
L 684.362505 297.457961 
L 685.67797 299.276688 
L 686.993435 300.480834 
L 688.3089 300.10675 
L 689.624365 299.552631 
L 690.93983 299.776841 
L 692.255295 298.813529 
L 693.57076 300.168944 
L 694.886225 301.080248 
L 696.20169 298.254761 
L 697.517155 299.552808 
L 698.83262 300.045922 
L 700.148085 299.39628 
L 701.46355 302.65669 
L 702.779015 301.874082 
L 704.09448 299.561321 
L 705.409945 302.392655 
L 706.72541 298.629341 
L 708.040875 302.213194 
L 709.35634 300.750503 
L 710.671805 301.766938 
L 711.98727 302.172639 
L 713.302735 302.716717 
L 714.6182 302.562498 
L 715.933665 301.998468 
L 717.24913 302.792421 
L 718.564595 303.803545 
L 721.195525 302.872378 
L 722.51099 304.044038 
L 723.826455 304.196022 
L 725.14192 303.746264 
L 726.457385 303.488554 
L 727.77285 304.238779 
L 729.088315 303.543089 
L 730.40378 304.230067 
L 731.719245 304.449774 
L 733.03471 304.335106 
L 734.350175 304.055389 
L 735.66564 304.665637 
L 736.981105 304.799805 
L 738.29657 304.595499 
L 739.612035 304.983761 
L 740.9275 304.654795 
L 742.242965 305.229226 
L 743.55843 305.332976 
L 744.873895 304.593752 
L 746.18936 304.982266 
L 747.504825 305.080461 
L 748.82029 305.453964 
L 750.135755 305.205703 
L 751.45122 305.279963 
L 752.766685 304.403266 
L 754.08215 305.18179 
L 758.028545 305.672171 
L 759.34401 305.536106 
L 760.659475 305.18565 
L 761.97494 305.602366 
L 763.290405 305.576217 
L 764.60587 305.415909 
L 765.921335 305.772807 
L 767.2368 305.606609 
L 768.552265 304.788753 
L 769.86773 305.643254 
L 771.183195 305.346119 
L 772.49866 305.848667 
L 773.814125 305.734902 
L 775.12959 305.798347 
L 776.445055 305.274909 
L 777.76052 305.70997 
L 779.075985 305.319854 
L 780.39145 305.807808 
L 781.706915 305.800314 
L 783.02238 305.635898 
L 784.337845 305.733566 
L 785.65331 305.716186 
L 786.968775 305.822515 
L 788.28424 305.711701 
L 794.861565 306.028916 
L 796.17703 305.833667 
L 797.492495 305.994166 
L 798.80796 305.89733 
L 800.123425 305.980069 
L 801.43889 305.858765 
L 802.754355 306.009427 
L 804.06982 306.047352 
L 805.385285 305.960436 
L 809.33168 306.03569 
L 810.647145 306.03176 
L 811.96261 305.774627 
L 813.278075 306.03772 
L 859.31935 306.181923 
L 861.95028 306.191247 
L 873.789465 306.206134 
L 873.789465 306.206134 
" style="fill:none;stroke:#1f77b4;stroke-linecap:square;stroke-width:3;"/>
    </g>
    <g id="line2d_32">
     <path clip-path="url(#pbdc72f3043)" d="M 543.832022 -1 
L 544.923215 117.08437 
L 576.494375 117.08437 
L 577.80984 228.881049 
L 609.381 228.881049 
L 610.696465 276.974941 
L 642.267625 276.974942 
L 643.58309 300.932138 
L 675.15425 300.932138 
L 676.469715 304.137087 
L 708.040875 304.137087 
L 709.35634 305.201217 
L 740.9275 305.201217 
L 742.242965 305.667988 
L 773.814125 305.667988 
L 775.12959 305.961654 
L 839.587375 306.00028 
L 842.218305 306.075435 
L 1069.79375 306.077785 
L 1069.79375 306.077785 
" style="fill:none;stroke:#ff7f0e;stroke-linecap:square;stroke-width:3;"/>
    </g>
    <g id="line2d_33">
     <path clip-path="url(#pbdc72f3043)" d="M 543.763083 -1 
L 544.923215 205.609006 
L 576.494375 205.609006 
L 577.80984 253.830509 
L 609.381 253.830509 
L 610.696465 295.346213 
L 642.267625 295.346213 
L 643.58309 303.879359 
L 675.15425 303.879359 
L 676.469715 305.570302 
L 708.040875 305.570302 
L 709.35634 305.846197 
L 773.814125 305.953154 
L 776.445055 306.011598 
L 1038.22259 306.07775 
L 1038.22259 306.07775 
" style="fill:none;stroke:#2ca02c;stroke-linecap:square;stroke-width:3;"/>
    </g>
    <g id="line2d_34">
     <path clip-path="url(#pbdc72f3043)" d="M 0 0 
" style="fill:none;stroke:#d62728;stroke-linecap:square;stroke-width:3;"/>
    </g>
    <g id="line2d_35">
     <path clip-path="url(#pbdc72f3043)" d="M 477.8345 306.63313 
L 872.474 306.63313 
" style="fill:none;stroke:#000000;stroke-dasharray:7.4,3.2;stroke-dashoffset:0;stroke-width:2;"/>
    </g>
    <g id="patch_11">
     <path d="M 477.8345 308.967 
L 477.8345 60.4945 
" style="fill:none;stroke:#000000;stroke-linecap:square;stroke-linejoin:miter;stroke-width:0.8;"/>
    </g>
    <g id="patch_12">
     <path d="M 872.474 308.967 
L 872.474 60.4945 
" style="fill:none;stroke:#000000;stroke-linecap:square;stroke-linejoin:miter;stroke-width:0.8;"/>
    </g>
    <g id="patch_13">
     <path d="M 477.8345 308.967 
L 872.474 308.967 
" style="fill:none;stroke:#000000;stroke-linecap:square;stroke-linejoin:miter;stroke-width:0.8;"/>
    </g>
    <g id="patch_14">
     <path d="M 477.8345 60.4945 
L 872.474 60.4945 
" style="fill:none;stroke:#000000;stroke-linecap:square;stroke-linejoin:miter;stroke-width:0.8;"/>
    </g>
   </g>
   <g id="legend_1">
    <g id="patch_15">
     <path d="M 1129.7775 206.1375 
L 1381.86 206.1375 
Q 1386.66 206.1375 1386.66 201.3375 
L 1386.66 27.6 
Q 1386.66 22.8 1381.86 22.8 
L 1129.7775 22.8 
Q 1124.9775 22.8 1124.9775 27.6 
L 1124.9775 201.3375 
Q 1124.9775 206.1375 1129.7775 206.1375 
z
" style="fill:#ffffff;opacity:0.8;stroke:#cccccc;stroke-linejoin:miter;"/>
    </g>
    <g id="line2d_36">
     <path d="M 1134.5775 42.23625 
L 1182.5775 42.23625 
" style="fill:none;stroke:#1f77b4;stroke-linecap:square;stroke-width:3;"/>
    </g>
    <g id="line2d_37"/>
    <g id="text_19">
     <!-- COBYLA -->
     <g transform="translate(1201.7775 50.63625)scale(0.24 -0.24)">
      <defs>
       <path d="M 4122 4306 
L 4122 3641 
Q 3803 3938 3442 4084 
Q 3081 4231 2675 4231 
Q 1875 4231 1450 3742 
Q 1025 3253 1025 2328 
Q 1025 1406 1450 917 
Q 1875 428 2675 428 
Q 3081 428 3442 575 
Q 3803 722 4122 1019 
L 4122 359 
Q 3791 134 3420 21 
Q 3050 -91 2638 -91 
Q 1578 -91 968 557 
Q 359 1206 359 2328 
Q 359 3453 968 4101 
Q 1578 4750 2638 4750 
Q 3056 4750 3426 4639 
Q 3797 4528 4122 4306 
z
" id="DejaVuSans-43" transform="scale(0.015625)"/>
       <path d="M 2522 4238 
Q 1834 4238 1429 3725 
Q 1025 3213 1025 2328 
Q 1025 1447 1429 934 
Q 1834 422 2522 422 
Q 3209 422 3611 934 
Q 4013 1447 4013 2328 
Q 4013 3213 3611 3725 
Q 3209 4238 2522 4238 
z
M 2522 4750 
Q 3503 4750 4090 4092 
Q 4678 3434 4678 2328 
Q 4678 1225 4090 567 
Q 3503 -91 2522 -91 
Q 1538 -91 948 565 
Q 359 1222 359 2328 
Q 359 3434 948 4092 
Q 1538 4750 2522 4750 
z
" id="DejaVuSans-4f" transform="scale(0.015625)"/>
       <path d="M 1259 2228 
L 1259 519 
L 2272 519 
Q 2781 519 3026 730 
Q 3272 941 3272 1375 
Q 3272 1813 3026 2020 
Q 2781 2228 2272 2228 
L 1259 2228 
z
M 1259 4147 
L 1259 2741 
L 2194 2741 
Q 2656 2741 2882 2914 
Q 3109 3088 3109 3444 
Q 3109 3797 2882 3972 
Q 2656 4147 2194 4147 
L 1259 4147 
z
M 628 4666 
L 2241 4666 
Q 2963 4666 3353 4366 
Q 3744 4066 3744 3513 
Q 3744 3084 3544 2831 
Q 3344 2578 2956 2516 
Q 3422 2416 3680 2098 
Q 3938 1781 3938 1306 
Q 3938 681 3513 340 
Q 3088 0 2303 0 
L 628 0 
L 628 4666 
z
" id="DejaVuSans-42" transform="scale(0.015625)"/>
       <path d="M -13 4666 
L 666 4666 
L 1959 2747 
L 3244 4666 
L 3922 4666 
L 2272 2222 
L 2272 0 
L 1638 0 
L 1638 2222 
L -13 4666 
z
" id="DejaVuSans-59" transform="scale(0.015625)"/>
       <path d="M 628 4666 
L 1259 4666 
L 1259 531 
L 3531 531 
L 3531 0 
L 628 0 
L 628 4666 
z
" id="DejaVuSans-4c" transform="scale(0.015625)"/>
       <path d="M 2188 4044 
L 1331 1722 
L 3047 1722 
L 2188 4044 
z
M 1831 4666 
L 2547 4666 
L 4325 0 
L 3669 0 
L 3244 1197 
L 1141 1197 
L 716 0 
L 50 0 
L 1831 4666 
z
" id="DejaVuSans-41" transform="scale(0.015625)"/>
      </defs>
      <use xlink:href="#DejaVuSans-43"/>
      <use x="69.824219" xlink:href="#DejaVuSans-4f"/>
      <use x="148.535156" xlink:href="#DejaVuSans-42"/>
      <use x="211.638672" xlink:href="#DejaVuSans-59"/>
      <use x="272.722656" xlink:href="#DejaVuSans-4c"/>
      <use x="330.685547" xlink:href="#DejaVuSans-41"/>
     </g>
    </g>
    <g id="line2d_38">
     <path d="M 1134.5775 77.46375 
L 1182.5775 77.46375 
" style="fill:none;stroke:#ff7f0e;stroke-linecap:square;stroke-width:3;"/>
    </g>
    <g id="line2d_39"/>
    <g id="text_20">
     <!-- L-BFGS-B -->
     <g transform="translate(1201.7775 85.86375)scale(0.24 -0.24)">
      <defs>
       <path d="M 313 2009 
L 1997 2009 
L 1997 1497 
L 313 1497 
L 313 2009 
z
" id="DejaVuSans-2d" transform="scale(0.015625)"/>
       <path d="M 628 4666 
L 3309 4666 
L 3309 4134 
L 1259 4134 
L 1259 2759 
L 3109 2759 
L 3109 2228 
L 1259 2228 
L 1259 0 
L 628 0 
L 628 4666 
z
" id="DejaVuSans-46" transform="scale(0.015625)"/>
       <path d="M 3809 666 
L 3809 1919 
L 2778 1919 
L 2778 2438 
L 4434 2438 
L 4434 434 
Q 4069 175 3628 42 
Q 3188 -91 2688 -91 
Q 1594 -91 976 548 
Q 359 1188 359 2328 
Q 359 3472 976 4111 
Q 1594 4750 2688 4750 
Q 3144 4750 3555 4637 
Q 3966 4525 4313 4306 
L 4313 3634 
Q 3963 3931 3569 4081 
Q 3175 4231 2741 4231 
Q 1884 4231 1454 3753 
Q 1025 3275 1025 2328 
Q 1025 1384 1454 906 
Q 1884 428 2741 428 
Q 3075 428 3337 486 
Q 3600 544 3809 666 
z
" id="DejaVuSans-47" transform="scale(0.015625)"/>
       <path d="M 3425 4513 
L 3425 3897 
Q 3066 4069 2747 4153 
Q 2428 4238 2131 4238 
Q 1616 4238 1336 4038 
Q 1056 3838 1056 3469 
Q 1056 3159 1242 3001 
Q 1428 2844 1947 2747 
L 2328 2669 
Q 3034 2534 3370 2195 
Q 3706 1856 3706 1288 
Q 3706 609 3251 259 
Q 2797 -91 1919 -91 
Q 1588 -91 1214 -16 
Q 841 59 441 206 
L 441 856 
Q 825 641 1194 531 
Q 1563 422 1919 422 
Q 2459 422 2753 634 
Q 3047 847 3047 1241 
Q 3047 1584 2836 1778 
Q 2625 1972 2144 2069 
L 1759 2144 
Q 1053 2284 737 2584 
Q 422 2884 422 3419 
Q 422 4038 858 4394 
Q 1294 4750 2059 4750 
Q 2388 4750 2728 4690 
Q 3069 4631 3425 4513 
z
" id="DejaVuSans-53" transform="scale(0.015625)"/>
      </defs>
      <use xlink:href="#DejaVuSans-4c"/>
      <use x="53.962891" xlink:href="#DejaVuSans-2d"/>
      <use x="86.421875" xlink:href="#DejaVuSans-42"/>
      <use x="155.025391" xlink:href="#DejaVuSans-46"/>
      <use x="212.544922" xlink:href="#DejaVuSans-47"/>
      <use x="290.035156" xlink:href="#DejaVuSans-53"/>
      <use x="353.511719" xlink:href="#DejaVuSans-2d"/>
      <use x="385.970703" xlink:href="#DejaVuSans-42"/>
     </g>
    </g>
    <g id="line2d_40">
     <path d="M 1134.5775 112.69125 
L 1182.5775 112.69125 
" style="fill:none;stroke:#2ca02c;stroke-linecap:square;stroke-width:3;"/>
    </g>
    <g id="line2d_41"/>
    <g id="text_21">
     <!-- SLSQP -->
     <g transform="translate(1201.7775 121.09125)scale(0.24 -0.24)">
      <defs>
       <path d="M 1259 4147 
L 1259 2394 
L 2053 2394 
Q 2494 2394 2734 2622 
Q 2975 2850 2975 3272 
Q 2975 3691 2734 3919 
Q 2494 4147 2053 4147 
L 1259 4147 
z
M 628 4666 
L 2053 4666 
Q 2838 4666 3239 4311 
Q 3641 3956 3641 3272 
Q 3641 2581 3239 2228 
Q 2838 1875 2053 1875 
L 1259 1875 
L 1259 0 
L 628 0 
L 628 4666 
z
" id="DejaVuSans-50" transform="scale(0.015625)"/>
      </defs>
      <use xlink:href="#DejaVuSans-53"/>
      <use x="63.476562" xlink:href="#DejaVuSans-4c"/>
      <use x="119.189453" xlink:href="#DejaVuSans-53"/>
      <use x="182.666016" xlink:href="#DejaVuSans-51"/>
      <use x="261.376953" xlink:href="#DejaVuSans-50"/>
     </g>
    </g>
    <g id="line2d_42">
     <path d="M 1134.5775 147.91875 
L 1182.5775 147.91875 
" style="fill:none;stroke:#d62728;stroke-linecap:square;stroke-width:3;"/>
    </g>
    <g id="line2d_43"/>
    <g id="text_22">
     <!-- NELDER-MEAD -->
     <g transform="translate(1201.7775 156.31875)scale(0.24 -0.24)">
      <defs>
       <path d="M 628 4666 
L 1478 4666 
L 3547 763 
L 3547 4666 
L 4159 4666 
L 4159 0 
L 3309 0 
L 1241 3903 
L 1241 0 
L 628 0 
L 628 4666 
z
" id="DejaVuSans-4e" transform="scale(0.015625)"/>
       <path d="M 1259 4147 
L 1259 519 
L 2022 519 
Q 2988 519 3436 956 
Q 3884 1394 3884 2338 
Q 3884 3275 3436 3711 
Q 2988 4147 2022 4147 
L 1259 4147 
z
M 628 4666 
L 1925 4666 
Q 3281 4666 3915 4102 
Q 4550 3538 4550 2338 
Q 4550 1131 3912 565 
Q 3275 0 1925 0 
L 628 0 
L 628 4666 
z
" id="DejaVuSans-44" transform="scale(0.015625)"/>
       <path d="M 2841 2188 
Q 3044 2119 3236 1894 
Q 3428 1669 3622 1275 
L 4263 0 
L 3584 0 
L 2988 1197 
Q 2756 1666 2539 1819 
Q 2322 1972 1947 1972 
L 1259 1972 
L 1259 0 
L 628 0 
L 628 4666 
L 2053 4666 
Q 2853 4666 3247 4331 
Q 3641 3997 3641 3322 
Q 3641 2881 3436 2590 
Q 3231 2300 2841 2188 
z
M 1259 4147 
L 1259 2491 
L 2053 2491 
Q 2509 2491 2742 2702 
Q 2975 2913 2975 3322 
Q 2975 3731 2742 3939 
Q 2509 4147 2053 4147 
L 1259 4147 
z
" id="DejaVuSans-52" transform="scale(0.015625)"/>
       <path d="M 628 4666 
L 1569 4666 
L 2759 1491 
L 3956 4666 
L 4897 4666 
L 4897 0 
L 4281 0 
L 4281 4097 
L 3078 897 
L 2444 897 
L 1241 4097 
L 1241 0 
L 628 0 
L 628 4666 
z
" id="DejaVuSans-4d" transform="scale(0.015625)"/>
      </defs>
      <use xlink:href="#DejaVuSans-4e"/>
      <use x="74.804688" xlink:href="#DejaVuSans-45"/>
      <use x="137.988281" xlink:href="#DejaVuSans-4c"/>
      <use x="193.701172" xlink:href="#DejaVuSans-44"/>
      <use x="270.703125" xlink:href="#DejaVuSans-45"/>
      <use x="333.886719" xlink:href="#DejaVuSans-52"/>
      <use x="399.369141" xlink:href="#DejaVuSans-2d"/>
      <use x="435.453125" xlink:href="#DejaVuSans-4d"/>
      <use x="521.732422" xlink:href="#DejaVuSans-45"/>
      <use x="584.916016" xlink:href="#DejaVuSans-41"/>
      <use x="653.324219" xlink:href="#DejaVuSans-44"/>
     </g>
    </g>
    <g id="line2d_44">
     <path d="M 1134.5775 183.14625 
L 1182.5775 183.14625 
" style="fill:none;stroke:#000000;stroke-dasharray:7.4,3.2;stroke-dashoffset:0;stroke-width:2;"/>
    </g>
    <g id="line2d_45"/>
    <g id="text_23">
     <!-- HT -->
     <g transform="translate(1201.7775 191.54625)scale(0.24 -0.24)">
      <defs>
       <path d="M 628 4666 
L 1259 4666 
L 1259 2753 
L 3553 2753 
L 3553 4666 
L 4184 4666 
L 4184 0 
L 3553 0 
L 3553 2222 
L 1259 2222 
L 1259 0 
L 628 0 
L 628 4666 
z
" id="DejaVuSans-48" transform="scale(0.015625)"/>
       <path d="M -19 4666 
L 3928 4666 
L 3928 4134 
L 2272 4134 
L 2272 0 
L 1638 0 
L 1638 4134 
L -19 4134 
L -19 4666 
z
" id="DejaVuSans-54" transform="scale(0.015625)"/>
      </defs>
      <use xlink:href="#DejaVuSans-48"/>
      <use x="75.195312" xlink:href="#DejaVuSans-54"/>
     </g>
    </g>
   </g>
  </g>
 </g>
 <defs>
  <clipPath id="p75e48fb046">
   <rect height="496.945" width="1315.465" x="83.195" y="10.8"/>
  </clipPath>
  <clipPath id="pbdc72f3043">
   <rect height="248.4725" width="394.6395" x="477.8345" y="60.4945"/>
  </clipPath>
 </defs>
</svg>
