<?xml version="1.0" encoding="utf-8" standalone="no"?>
<!DOCTYPE svg PUBLIC "-//W3C//DTD SVG 1.1//EN"
  "http://www.w3.org/Graphics/SVG/1.1/DTD/svg11.dtd">
<svg height="576pt" version="1.1" viewBox="0 0 1440 576" width="1440pt" xmlns="http://www.w3.org/2000/svg" xmlns:xlink="http://www.w3.org/1999/xlink">
 <metadata>
  <rdf:RDF xmlns:cc="http://creativecommons.org/ns#" xmlns:dc="http://purl.org/dc/elements/1.1/" xmlns:rdf="http://www.w3.org/1999/02/22-rdf-syntax-ns#">
   <cc:Work>
    <dc:type rdf:resource="http://purl.org/dc/dcmitype/StillImage"/>
    <dc:date>2021-07-31T20:52:42.538336</dc:date>
    <dc:format>image/svg+xml</dc:format>
    <dc:creator>
     <cc:Agent>
      <dc:title>Matplotlib v3.4.2, https://matplotlib.org/</dc:title>
     </cc:Agent>
    </dc:creator>
   </cc:Work>
  </rdf:RDF>
 </metadata>
 <defs>
  <style type="text/css">*{stroke-linecap:butt;stroke-linejoin:round;}</style>
 </defs>
 <g id="figure_1">
  <g id="patch_1">
   <path d="M 0 576 
L 1440 576 
L 1440 0 
L 0 0 
z
" style="fill:none;"/>
  </g>
  <g id="axes_1">
   <g id="patch_2">
    <path d="M 83.195 507.745 
L 1391.025 507.745 
L 1391.025 10.8 
L 83.195 10.8 
z
" style="fill:#ffffff;"/>
   </g>
   <g id="matplotlib.axis_1">
    <g id="xtick_1">
     <g id="line2d_1">
      <defs>
       <path d="M 0 0 
L 0 3.5 
" id="ma52d30a19e" style="stroke:#000000;stroke-width:0.8;"/>
      </defs>
      <g>
       <use style="stroke:#000000;stroke-width:0.8;" x="83.195" xlink:href="#ma52d30a19e" y="507.745"/>
      </g>
     </g>
     <g id="text_1">
      <!-- 0 -->
      <g transform="translate(75.56 532.98125)scale(0.24 -0.24)">
       <defs>
        <path d="M 2034 4250 
Q 1547 4250 1301 3770 
Q 1056 3291 1056 2328 
Q 1056 1369 1301 889 
Q 1547 409 2034 409 
Q 2525 409 2770 889 
Q 3016 1369 3016 2328 
Q 3016 3291 2770 3770 
Q 2525 4250 2034 4250 
z
M 2034 4750 
Q 2819 4750 3233 4129 
Q 3647 3509 3647 2328 
Q 3647 1150 3233 529 
Q 2819 -91 2034 -91 
Q 1250 -91 836 529 
Q 422 1150 422 2328 
Q 422 3509 836 4129 
Q 1250 4750 2034 4750 
z
" id="DejaVuSans-30" transform="scale(0.015625)"/>
       </defs>
       <use xlink:href="#DejaVuSans-30"/>
      </g>
     </g>
    </g>
    <g id="xtick_2">
     <g id="line2d_2">
      <g>
       <use style="stroke:#000000;stroke-width:0.8;" x="344.761" xlink:href="#ma52d30a19e" y="507.745"/>
      </g>
     </g>
     <g id="text_2">
      <!-- 2000 -->
      <g transform="translate(314.221 532.98125)scale(0.24 -0.24)">
       <defs>
        <path d="M 1228 531 
L 3431 531 
L 3431 0 
L 469 0 
L 469 531 
Q 828 903 1448 1529 
Q 2069 2156 2228 2338 
Q 2531 2678 2651 2914 
Q 2772 3150 2772 3378 
Q 2772 3750 2511 3984 
Q 2250 4219 1831 4219 
Q 1534 4219 1204 4116 
Q 875 4013 500 3803 
L 500 4441 
Q 881 4594 1212 4672 
Q 1544 4750 1819 4750 
Q 2544 4750 2975 4387 
Q 3406 4025 3406 3419 
Q 3406 3131 3298 2873 
Q 3191 2616 2906 2266 
Q 2828 2175 2409 1742 
Q 1991 1309 1228 531 
z
" id="DejaVuSans-32" transform="scale(0.015625)"/>
       </defs>
       <use xlink:href="#DejaVuSans-32"/>
       <use x="63.623047" xlink:href="#DejaVuSans-30"/>
       <use x="127.246094" xlink:href="#DejaVuSans-30"/>
       <use x="190.869141" xlink:href="#DejaVuSans-30"/>
      </g>
     </g>
    </g>
    <g id="xtick_3">
     <g id="line2d_3">
      <g>
       <use style="stroke:#000000;stroke-width:0.8;" x="606.327" xlink:href="#ma52d30a19e" y="507.745"/>
      </g>
     </g>
     <g id="text_3">
      <!-- 4000 -->
      <g transform="translate(575.787 532.98125)scale(0.24 -0.24)">
       <defs>
        <path d="M 2419 4116 
L 825 1625 
L 2419 1625 
L 2419 4116 
z
M 2253 4666 
L 3047 4666 
L 3047 1625 
L 3713 1625 
L 3713 1100 
L 3047 1100 
L 3047 0 
L 2419 0 
L 2419 1100 
L 313 1100 
L 313 1709 
L 2253 4666 
z
" id="DejaVuSans-34" transform="scale(0.015625)"/>
       </defs>
       <use xlink:href="#DejaVuSans-34"/>
       <use x="63.623047" xlink:href="#DejaVuSans-30"/>
       <use x="127.246094" xlink:href="#DejaVuSans-30"/>
       <use x="190.869141" xlink:href="#DejaVuSans-30"/>
      </g>
     </g>
    </g>
    <g id="xtick_4">
     <g id="line2d_4">
      <g>
       <use style="stroke:#000000;stroke-width:0.8;" x="867.893" xlink:href="#ma52d30a19e" y="507.745"/>
      </g>
     </g>
     <g id="text_4">
      <!-- 6000 -->
      <g transform="translate(837.353 532.98125)scale(0.24 -0.24)">
       <defs>
        <path d="M 2113 2584 
Q 1688 2584 1439 2293 
Q 1191 2003 1191 1497 
Q 1191 994 1439 701 
Q 1688 409 2113 409 
Q 2538 409 2786 701 
Q 3034 994 3034 1497 
Q 3034 2003 2786 2293 
Q 2538 2584 2113 2584 
z
M 3366 4563 
L 3366 3988 
Q 3128 4100 2886 4159 
Q 2644 4219 2406 4219 
Q 1781 4219 1451 3797 
Q 1122 3375 1075 2522 
Q 1259 2794 1537 2939 
Q 1816 3084 2150 3084 
Q 2853 3084 3261 2657 
Q 3669 2231 3669 1497 
Q 3669 778 3244 343 
Q 2819 -91 2113 -91 
Q 1303 -91 875 529 
Q 447 1150 447 2328 
Q 447 3434 972 4092 
Q 1497 4750 2381 4750 
Q 2619 4750 2861 4703 
Q 3103 4656 3366 4563 
z
" id="DejaVuSans-36" transform="scale(0.015625)"/>
       </defs>
       <use xlink:href="#DejaVuSans-36"/>
       <use x="63.623047" xlink:href="#DejaVuSans-30"/>
       <use x="127.246094" xlink:href="#DejaVuSans-30"/>
       <use x="190.869141" xlink:href="#DejaVuSans-30"/>
      </g>
     </g>
    </g>
    <g id="xtick_5">
     <g id="line2d_5">
      <g>
       <use style="stroke:#000000;stroke-width:0.8;" x="1129.459" xlink:href="#ma52d30a19e" y="507.745"/>
      </g>
     </g>
     <g id="text_5">
      <!-- 8000 -->
      <g transform="translate(1098.919 532.98125)scale(0.24 -0.24)">
       <defs>
        <path d="M 2034 2216 
Q 1584 2216 1326 1975 
Q 1069 1734 1069 1313 
Q 1069 891 1326 650 
Q 1584 409 2034 409 
Q 2484 409 2743 651 
Q 3003 894 3003 1313 
Q 3003 1734 2745 1975 
Q 2488 2216 2034 2216 
z
M 1403 2484 
Q 997 2584 770 2862 
Q 544 3141 544 3541 
Q 544 4100 942 4425 
Q 1341 4750 2034 4750 
Q 2731 4750 3128 4425 
Q 3525 4100 3525 3541 
Q 3525 3141 3298 2862 
Q 3072 2584 2669 2484 
Q 3125 2378 3379 2068 
Q 3634 1759 3634 1313 
Q 3634 634 3220 271 
Q 2806 -91 2034 -91 
Q 1263 -91 848 271 
Q 434 634 434 1313 
Q 434 1759 690 2068 
Q 947 2378 1403 2484 
z
M 1172 3481 
Q 1172 3119 1398 2916 
Q 1625 2713 2034 2713 
Q 2441 2713 2670 2916 
Q 2900 3119 2900 3481 
Q 2900 3844 2670 4047 
Q 2441 4250 2034 4250 
Q 1625 4250 1398 4047 
Q 1172 3844 1172 3481 
z
" id="DejaVuSans-38" transform="scale(0.015625)"/>
       </defs>
       <use xlink:href="#DejaVuSans-38"/>
       <use x="63.623047" xlink:href="#DejaVuSans-30"/>
       <use x="127.246094" xlink:href="#DejaVuSans-30"/>
       <use x="190.869141" xlink:href="#DejaVuSans-30"/>
      </g>
     </g>
    </g>
    <g id="xtick_6">
     <g id="line2d_6">
      <g>
       <use style="stroke:#000000;stroke-width:0.8;" x="1391.025" xlink:href="#ma52d30a19e" y="507.745"/>
      </g>
     </g>
     <g id="text_6">
      <!-- 10000 -->
      <g transform="translate(1352.85 532.98125)scale(0.24 -0.24)">
       <defs>
        <path d="M 794 531 
L 1825 531 
L 1825 4091 
L 703 3866 
L 703 4441 
L 1819 4666 
L 2450 4666 
L 2450 531 
L 3481 531 
L 3481 0 
L 794 0 
L 794 531 
z
" id="DejaVuSans-31" transform="scale(0.015625)"/>
       </defs>
       <use xlink:href="#DejaVuSans-31"/>
       <use x="63.623047" xlink:href="#DejaVuSans-30"/>
       <use x="127.246094" xlink:href="#DejaVuSans-30"/>
       <use x="190.869141" xlink:href="#DejaVuSans-30"/>
       <use x="254.492188" xlink:href="#DejaVuSans-30"/>
      </g>
     </g>
    </g>
    <g id="text_7">
     <!-- iterations -->
     <g transform="translate(680.164375 560.20875)scale(0.24 -0.24)">
      <defs>
       <path d="M 603 3500 
L 1178 3500 
L 1178 0 
L 603 0 
L 603 3500 
z
M 603 4863 
L 1178 4863 
L 1178 4134 
L 603 4134 
L 603 4863 
z
" id="DejaVuSans-69" transform="scale(0.015625)"/>
       <path d="M 1172 4494 
L 1172 3500 
L 2356 3500 
L 2356 3053 
L 1172 3053 
L 1172 1153 
Q 1172 725 1289 603 
Q 1406 481 1766 481 
L 2356 481 
L 2356 0 
L 1766 0 
Q 1100 0 847 248 
Q 594 497 594 1153 
L 594 3053 
L 172 3053 
L 172 3500 
L 594 3500 
L 594 4494 
L 1172 4494 
z
" id="DejaVuSans-74" transform="scale(0.015625)"/>
       <path d="M 3597 1894 
L 3597 1613 
L 953 1613 
Q 991 1019 1311 708 
Q 1631 397 2203 397 
Q 2534 397 2845 478 
Q 3156 559 3463 722 
L 3463 178 
Q 3153 47 2828 -22 
Q 2503 -91 2169 -91 
Q 1331 -91 842 396 
Q 353 884 353 1716 
Q 353 2575 817 3079 
Q 1281 3584 2069 3584 
Q 2775 3584 3186 3129 
Q 3597 2675 3597 1894 
z
M 3022 2063 
Q 3016 2534 2758 2815 
Q 2500 3097 2075 3097 
Q 1594 3097 1305 2825 
Q 1016 2553 972 2059 
L 3022 2063 
z
" id="DejaVuSans-65" transform="scale(0.015625)"/>
       <path d="M 2631 2963 
Q 2534 3019 2420 3045 
Q 2306 3072 2169 3072 
Q 1681 3072 1420 2755 
Q 1159 2438 1159 1844 
L 1159 0 
L 581 0 
L 581 3500 
L 1159 3500 
L 1159 2956 
Q 1341 3275 1631 3429 
Q 1922 3584 2338 3584 
Q 2397 3584 2469 3576 
Q 2541 3569 2628 3553 
L 2631 2963 
z
" id="DejaVuSans-72" transform="scale(0.015625)"/>
       <path d="M 2194 1759 
Q 1497 1759 1228 1600 
Q 959 1441 959 1056 
Q 959 750 1161 570 
Q 1363 391 1709 391 
Q 2188 391 2477 730 
Q 2766 1069 2766 1631 
L 2766 1759 
L 2194 1759 
z
M 3341 1997 
L 3341 0 
L 2766 0 
L 2766 531 
Q 2569 213 2275 61 
Q 1981 -91 1556 -91 
Q 1019 -91 701 211 
Q 384 513 384 1019 
Q 384 1609 779 1909 
Q 1175 2209 1959 2209 
L 2766 2209 
L 2766 2266 
Q 2766 2663 2505 2880 
Q 2244 3097 1772 3097 
Q 1472 3097 1187 3025 
Q 903 2953 641 2809 
L 641 3341 
Q 956 3463 1253 3523 
Q 1550 3584 1831 3584 
Q 2591 3584 2966 3190 
Q 3341 2797 3341 1997 
z
" id="DejaVuSans-61" transform="scale(0.015625)"/>
       <path d="M 1959 3097 
Q 1497 3097 1228 2736 
Q 959 2375 959 1747 
Q 959 1119 1226 758 
Q 1494 397 1959 397 
Q 2419 397 2687 759 
Q 2956 1122 2956 1747 
Q 2956 2369 2687 2733 
Q 2419 3097 1959 3097 
z
M 1959 3584 
Q 2709 3584 3137 3096 
Q 3566 2609 3566 1747 
Q 3566 888 3137 398 
Q 2709 -91 1959 -91 
Q 1206 -91 779 398 
Q 353 888 353 1747 
Q 353 2609 779 3096 
Q 1206 3584 1959 3584 
z
" id="DejaVuSans-6f" transform="scale(0.015625)"/>
       <path d="M 3513 2113 
L 3513 0 
L 2938 0 
L 2938 2094 
Q 2938 2591 2744 2837 
Q 2550 3084 2163 3084 
Q 1697 3084 1428 2787 
Q 1159 2491 1159 1978 
L 1159 0 
L 581 0 
L 581 3500 
L 1159 3500 
L 1159 2956 
Q 1366 3272 1645 3428 
Q 1925 3584 2291 3584 
Q 2894 3584 3203 3211 
Q 3513 2838 3513 2113 
z
" id="DejaVuSans-6e" transform="scale(0.015625)"/>
       <path d="M 2834 3397 
L 2834 2853 
Q 2591 2978 2328 3040 
Q 2066 3103 1784 3103 
Q 1356 3103 1142 2972 
Q 928 2841 928 2578 
Q 928 2378 1081 2264 
Q 1234 2150 1697 2047 
L 1894 2003 
Q 2506 1872 2764 1633 
Q 3022 1394 3022 966 
Q 3022 478 2636 193 
Q 2250 -91 1575 -91 
Q 1294 -91 989 -36 
Q 684 19 347 128 
L 347 722 
Q 666 556 975 473 
Q 1284 391 1588 391 
Q 1994 391 2212 530 
Q 2431 669 2431 922 
Q 2431 1156 2273 1281 
Q 2116 1406 1581 1522 
L 1381 1569 
Q 847 1681 609 1914 
Q 372 2147 372 2553 
Q 372 3047 722 3315 
Q 1072 3584 1716 3584 
Q 2034 3584 2315 3537 
Q 2597 3491 2834 3397 
z
" id="DejaVuSans-73" transform="scale(0.015625)"/>
      </defs>
      <use xlink:href="#DejaVuSans-69"/>
      <use x="27.783203" xlink:href="#DejaVuSans-74"/>
      <use x="66.992188" xlink:href="#DejaVuSans-65"/>
      <use x="128.515625" xlink:href="#DejaVuSans-72"/>
      <use x="169.628906" xlink:href="#DejaVuSans-61"/>
      <use x="230.908203" xlink:href="#DejaVuSans-74"/>
      <use x="270.117188" xlink:href="#DejaVuSans-69"/>
      <use x="297.900391" xlink:href="#DejaVuSans-6f"/>
      <use x="359.082031" xlink:href="#DejaVuSans-6e"/>
      <use x="422.460938" xlink:href="#DejaVuSans-73"/>
     </g>
    </g>
   </g>
   <g id="matplotlib.axis_2">
    <g id="ytick_1">
     <g id="line2d_7">
      <defs>
       <path d="M 0 0 
L -3.5 0 
" id="m02f7a28b27" style="stroke:#000000;stroke-width:0.8;"/>
      </defs>
      <g>
       <use style="stroke:#000000;stroke-width:0.8;" x="83.195" xlink:href="#m02f7a28b27" y="502.892426"/>
      </g>
     </g>
     <g id="text_8">
      <!-- 3.0 -->
      <g transform="translate(38.0275 512.010551)scale(0.24 -0.24)">
       <defs>
        <path d="M 2597 2516 
Q 3050 2419 3304 2112 
Q 3559 1806 3559 1356 
Q 3559 666 3084 287 
Q 2609 -91 1734 -91 
Q 1441 -91 1130 -33 
Q 819 25 488 141 
L 488 750 
Q 750 597 1062 519 
Q 1375 441 1716 441 
Q 2309 441 2620 675 
Q 2931 909 2931 1356 
Q 2931 1769 2642 2001 
Q 2353 2234 1838 2234 
L 1294 2234 
L 1294 2753 
L 1863 2753 
Q 2328 2753 2575 2939 
Q 2822 3125 2822 3475 
Q 2822 3834 2567 4026 
Q 2313 4219 1838 4219 
Q 1578 4219 1281 4162 
Q 984 4106 628 3988 
L 628 4550 
Q 988 4650 1302 4700 
Q 1616 4750 1894 4750 
Q 2613 4750 3031 4423 
Q 3450 4097 3450 3541 
Q 3450 3153 3228 2886 
Q 3006 2619 2597 2516 
z
" id="DejaVuSans-33" transform="scale(0.015625)"/>
        <path d="M 684 794 
L 1344 794 
L 1344 0 
L 684 0 
L 684 794 
z
" id="DejaVuSans-2e" transform="scale(0.015625)"/>
       </defs>
       <use xlink:href="#DejaVuSans-33"/>
       <use x="63.623047" xlink:href="#DejaVuSans-2e"/>
       <use x="95.410156" xlink:href="#DejaVuSans-30"/>
      </g>
     </g>
    </g>
    <g id="ytick_2">
     <g id="line2d_8">
      <g>
       <use style="stroke:#000000;stroke-width:0.8;" x="83.195" xlink:href="#m02f7a28b27" y="443.365151"/>
      </g>
     </g>
     <g id="text_9">
      <!-- 3.5 -->
      <g transform="translate(38.0275 452.483276)scale(0.24 -0.24)">
       <defs>
        <path d="M 691 4666 
L 3169 4666 
L 3169 4134 
L 1269 4134 
L 1269 2991 
Q 1406 3038 1543 3061 
Q 1681 3084 1819 3084 
Q 2600 3084 3056 2656 
Q 3513 2228 3513 1497 
Q 3513 744 3044 326 
Q 2575 -91 1722 -91 
Q 1428 -91 1123 -41 
Q 819 9 494 109 
L 494 744 
Q 775 591 1075 516 
Q 1375 441 1709 441 
Q 2250 441 2565 725 
Q 2881 1009 2881 1497 
Q 2881 1984 2565 2268 
Q 2250 2553 1709 2553 
Q 1456 2553 1204 2497 
Q 953 2441 691 2322 
L 691 4666 
z
" id="DejaVuSans-35" transform="scale(0.015625)"/>
       </defs>
       <use xlink:href="#DejaVuSans-33"/>
       <use x="63.623047" xlink:href="#DejaVuSans-2e"/>
       <use x="95.410156" xlink:href="#DejaVuSans-35"/>
      </g>
     </g>
    </g>
    <g id="ytick_3">
     <g id="line2d_9">
      <g>
       <use style="stroke:#000000;stroke-width:0.8;" x="83.195" xlink:href="#m02f7a28b27" y="383.837876"/>
      </g>
     </g>
     <g id="text_10">
      <!-- 4.0 -->
      <g transform="translate(38.0275 392.956001)scale(0.24 -0.24)">
       <use xlink:href="#DejaVuSans-34"/>
       <use x="63.623047" xlink:href="#DejaVuSans-2e"/>
       <use x="95.410156" xlink:href="#DejaVuSans-30"/>
      </g>
     </g>
    </g>
    <g id="ytick_4">
     <g id="line2d_10">
      <g>
       <use style="stroke:#000000;stroke-width:0.8;" x="83.195" xlink:href="#m02f7a28b27" y="324.310601"/>
      </g>
     </g>
     <g id="text_11">
      <!-- 4.5 -->
      <g transform="translate(38.0275 333.428726)scale(0.24 -0.24)">
       <use xlink:href="#DejaVuSans-34"/>
       <use x="63.623047" xlink:href="#DejaVuSans-2e"/>
       <use x="95.410156" xlink:href="#DejaVuSans-35"/>
      </g>
     </g>
    </g>
    <g id="ytick_5">
     <g id="line2d_11">
      <g>
       <use style="stroke:#000000;stroke-width:0.8;" x="83.195" xlink:href="#m02f7a28b27" y="264.783326"/>
      </g>
     </g>
     <g id="text_12">
      <!-- 5.0 -->
      <g transform="translate(38.0275 273.901451)scale(0.24 -0.24)">
       <use xlink:href="#DejaVuSans-35"/>
       <use x="63.623047" xlink:href="#DejaVuSans-2e"/>
       <use x="95.410156" xlink:href="#DejaVuSans-30"/>
      </g>
     </g>
    </g>
    <g id="ytick_6">
     <g id="line2d_12">
      <g>
       <use style="stroke:#000000;stroke-width:0.8;" x="83.195" xlink:href="#m02f7a28b27" y="205.256051"/>
      </g>
     </g>
     <g id="text_13">
      <!-- 5.5 -->
      <g transform="translate(38.0275 214.374176)scale(0.24 -0.24)">
       <use xlink:href="#DejaVuSans-35"/>
       <use x="63.623047" xlink:href="#DejaVuSans-2e"/>
       <use x="95.410156" xlink:href="#DejaVuSans-35"/>
      </g>
     </g>
    </g>
    <g id="ytick_7">
     <g id="line2d_13">
      <g>
       <use style="stroke:#000000;stroke-width:0.8;" x="83.195" xlink:href="#m02f7a28b27" y="145.728776"/>
      </g>
     </g>
     <g id="text_14">
      <!-- 6.0 -->
      <g transform="translate(38.0275 154.846901)scale(0.24 -0.24)">
       <use xlink:href="#DejaVuSans-36"/>
       <use x="63.623047" xlink:href="#DejaVuSans-2e"/>
       <use x="95.410156" xlink:href="#DejaVuSans-30"/>
      </g>
     </g>
    </g>
    <g id="ytick_8">
     <g id="line2d_14">
      <g>
       <use style="stroke:#000000;stroke-width:0.8;" x="83.195" xlink:href="#m02f7a28b27" y="86.201501"/>
      </g>
     </g>
     <g id="text_15">
      <!-- 6.5 -->
      <g transform="translate(38.0275 95.319626)scale(0.24 -0.24)">
       <use xlink:href="#DejaVuSans-36"/>
       <use x="63.623047" xlink:href="#DejaVuSans-2e"/>
       <use x="95.410156" xlink:href="#DejaVuSans-35"/>
      </g>
     </g>
    </g>
    <g id="ytick_9">
     <g id="line2d_15">
      <g>
       <use style="stroke:#000000;stroke-width:0.8;" x="83.195" xlink:href="#m02f7a28b27" y="26.674227"/>
      </g>
     </g>
     <g id="text_16">
      <!-- 7.0 -->
      <g transform="translate(38.0275 35.792352)scale(0.24 -0.24)">
       <defs>
        <path d="M 525 4666 
L 3525 4666 
L 3525 4397 
L 1831 0 
L 1172 0 
L 2766 4134 
L 525 4134 
L 525 4666 
z
" id="DejaVuSans-37" transform="scale(0.015625)"/>
       </defs>
       <use xlink:href="#DejaVuSans-37"/>
       <use x="63.623047" xlink:href="#DejaVuSans-2e"/>
       <use x="95.410156" xlink:href="#DejaVuSans-30"/>
      </g>
     </g>
    </g>
    <g id="text_17">
     <!-- VQE energy -->
     <g transform="translate(29.03625 330.14)rotate(-90)scale(0.24 -0.24)">
      <defs>
       <path d="M 1831 0 
L 50 4666 
L 709 4666 
L 2188 738 
L 3669 4666 
L 4325 4666 
L 2547 0 
L 1831 0 
z
" id="DejaVuSans-56" transform="scale(0.015625)"/>
       <path d="M 2522 4238 
Q 1834 4238 1429 3725 
Q 1025 3213 1025 2328 
Q 1025 1447 1429 934 
Q 1834 422 2522 422 
Q 3209 422 3611 934 
Q 4013 1447 4013 2328 
Q 4013 3213 3611 3725 
Q 3209 4238 2522 4238 
z
M 3406 84 
L 4238 -825 
L 3475 -825 
L 2784 -78 
Q 2681 -84 2626 -87 
Q 2572 -91 2522 -91 
Q 1538 -91 948 567 
Q 359 1225 359 2328 
Q 359 3434 948 4092 
Q 1538 4750 2522 4750 
Q 3503 4750 4090 4092 
Q 4678 3434 4678 2328 
Q 4678 1516 4351 937 
Q 4025 359 3406 84 
z
" id="DejaVuSans-51" transform="scale(0.015625)"/>
       <path d="M 628 4666 
L 3578 4666 
L 3578 4134 
L 1259 4134 
L 1259 2753 
L 3481 2753 
L 3481 2222 
L 1259 2222 
L 1259 531 
L 3634 531 
L 3634 0 
L 628 0 
L 628 4666 
z
" id="DejaVuSans-45" transform="scale(0.015625)"/>
       <path id="DejaVuSans-20" transform="scale(0.015625)"/>
       <path d="M 2906 1791 
Q 2906 2416 2648 2759 
Q 2391 3103 1925 3103 
Q 1463 3103 1205 2759 
Q 947 2416 947 1791 
Q 947 1169 1205 825 
Q 1463 481 1925 481 
Q 2391 481 2648 825 
Q 2906 1169 2906 1791 
z
M 3481 434 
Q 3481 -459 3084 -895 
Q 2688 -1331 1869 -1331 
Q 1566 -1331 1297 -1286 
Q 1028 -1241 775 -1147 
L 775 -588 
Q 1028 -725 1275 -790 
Q 1522 -856 1778 -856 
Q 2344 -856 2625 -561 
Q 2906 -266 2906 331 
L 2906 616 
Q 2728 306 2450 153 
Q 2172 0 1784 0 
Q 1141 0 747 490 
Q 353 981 353 1791 
Q 353 2603 747 3093 
Q 1141 3584 1784 3584 
Q 2172 3584 2450 3431 
Q 2728 3278 2906 2969 
L 2906 3500 
L 3481 3500 
L 3481 434 
z
" id="DejaVuSans-67" transform="scale(0.015625)"/>
       <path d="M 2059 -325 
Q 1816 -950 1584 -1140 
Q 1353 -1331 966 -1331 
L 506 -1331 
L 506 -850 
L 844 -850 
Q 1081 -850 1212 -737 
Q 1344 -625 1503 -206 
L 1606 56 
L 191 3500 
L 800 3500 
L 1894 763 
L 2988 3500 
L 3597 3500 
L 2059 -325 
z
" id="DejaVuSans-79" transform="scale(0.015625)"/>
      </defs>
      <use xlink:href="#DejaVuSans-56"/>
      <use x="68.408203" xlink:href="#DejaVuSans-51"/>
      <use x="147.119141" xlink:href="#DejaVuSans-45"/>
      <use x="210.302734" xlink:href="#DejaVuSans-20"/>
      <use x="242.089844" xlink:href="#DejaVuSans-65"/>
      <use x="303.613281" xlink:href="#DejaVuSans-6e"/>
      <use x="366.992188" xlink:href="#DejaVuSans-65"/>
      <use x="428.515625" xlink:href="#DejaVuSans-72"/>
      <use x="467.878906" xlink:href="#DejaVuSans-67"/>
      <use x="531.355469" xlink:href="#DejaVuSans-79"/>
     </g>
    </g>
   </g>
   <g id="line2d_16">
    <path clip-path="url(#p529d9de176)" d="M 83.325783 143.901455 
L 83.456566 165.104949 
L 83.587349 125.911281 
L 83.718132 134.215882 
L 83.848915 178.510055 
L 83.979698 183.156367 
L 84.110481 209.562286 
L 84.241264 206.702534 
L 84.372047 217.94425 
L 84.50283 203.004659 
L 84.633613 215.369593 
L 84.764396 172.171724 
L 85.025962 209.753929 
L 85.156745 196.418526 
L 85.287528 218.245034 
L 85.418311 179.740694 
L 85.81066 203.190226 
L 85.941443 221.236208 
L 86.072226 214.338251 
L 86.203009 232.649449 
L 86.333792 275.804784 
L 86.464575 260.334525 
L 86.595358 286.837099 
L 86.856924 269.731398 
L 86.987707 272.522131 
L 87.11849 313.956771 
L 87.249273 266.753361 
L 87.380056 335.121765 
L 87.641622 314.561852 
L 87.772405 341.059675 
L 87.903188 303.994089 
L 88.033971 318.785484 
L 88.164754 300.474905 
L 88.295537 346.844073 
L 88.42632 319.71555 
L 88.557103 325.458032 
L 88.687886 321.148311 
L 88.818669 330.884209 
L 88.949452 299.863464 
L 89.472584 340.531335 
L 89.603367 339.999877 
L 89.73415 382.625428 
L 89.864933 351.306841 
L 89.995716 386.804585 
L 90.257282 340.57753 
L 90.388065 379.606003 
L 90.518848 357.674719 
L 90.649631 415.532224 
L 90.780414 378.239358 
L 90.911197 402.482558 
L 91.04198 354.166958 
L 91.172763 402.351618 
L 91.303546 382.149188 
L 91.434329 399.85985 
L 91.565112 399.029398 
L 91.695895 417.822444 
L 91.826678 420.609583 
L 91.957461 413.154602 
L 92.088244 417.763333 
L 92.219027 416.973408 
L 92.480593 403.410517 
L 92.611376 408.151762 
L 92.742159 428.835177 
L 92.872942 429.515942 
L 93.003725 428.396118 
L 93.134508 430.03192 
L 93.265291 419.285618 
L 93.526857 432.238874 
L 93.788423 417.208204 
L 93.919206 426.113341 
L 94.049989 424.467018 
L 94.180772 427.396053 
L 94.311555 415.35011 
L 94.442338 415.299159 
L 94.703904 438.662231 
L 94.834687 434.661083 
L 94.96547 441.011307 
L 95.096253 425.533633 
L 95.227036 434.603094 
L 95.357819 424.071755 
L 95.619385 441.331761 
L 95.880951 425.697421 
L 96.011734 443.022092 
L 96.142517 433.281856 
L 96.2733 444.636823 
L 96.404083 426.180006 
L 96.534866 443.99975 
L 96.665649 424.157361 
L 96.796432 444.414804 
L 97.057998 443.435587 
L 97.188781 443.950709 
L 97.319564 439.525547 
L 97.450347 444.830157 
L 97.58113 435.379366 
L 97.711913 450.593418 
L 97.842696 443.13647 
L 98.104262 450.511373 
L 98.235045 448.837237 
L 98.365828 451.505138 
L 98.758177 448.684608 
L 98.88896 447.400517 
L 99.281309 463.725018 
L 99.412092 463.432219 
L 99.542875 462.307326 
L 99.673658 459.467326 
L 99.804441 467.226824 
L 99.935224 465.242841 
L 100.066007 467.016235 
L 100.19679 464.42887 
L 100.327573 466.572713 
L 100.458356 462.098999 
L 100.589139 468.927718 
L 100.850705 466.303317 
L 100.981488 466.305976 
L 101.112271 471.800501 
L 101.243054 471.401797 
L 101.373837 471.70046 
L 101.635403 470.566942 
L 101.766186 467.543279 
L 101.896969 474.063385 
L 102.027752 473.90118 
L 102.158535 472.830425 
L 102.289318 473.091411 
L 102.420101 459.435593 
L 102.550884 472.152597 
L 102.681667 474.045042 
L 102.81245 472.669351 
L 102.943233 473.606336 
L 103.074016 471.590815 
L 103.204799 476.693356 
L 103.335582 476.626853 
L 103.466365 470.977294 
L 103.597148 474.017015 
L 103.727931 469.369844 
L 103.989497 479.558746 
L 104.12028 479.139015 
L 104.251063 475.888491 
L 104.512629 478.112918 
L 104.643412 479.08642 
L 104.774195 475.304697 
L 104.904978 475.494129 
L 105.166544 479.679595 
L 105.297327 478.972147 
L 105.42811 479.26558 
L 105.689676 480.126676 
L 105.820459 477.236256 
L 105.951242 479.783358 
L 106.082025 478.194549 
L 106.212808 479.578269 
L 106.343591 479.163571 
L 106.605157 479.550151 
L 106.73594 479.532818 
L 106.866723 480.384586 
L 106.997506 479.977036 
L 107.128289 478.853592 
L 107.389855 480.92077 
L 107.520638 480.44694 
L 107.782204 481.656689 
L 108.04377 481.081288 
L 108.305336 481.605873 
L 108.436119 482.416398 
L 108.697685 481.107435 
L 108.828468 481.911775 
L 108.959251 480.820877 
L 109.3516 482.897173 
L 109.482383 482.331421 
L 109.743949 482.495085 
L 109.874732 481.899045 
L 110.267081 482.678769 
L 110.397864 482.616658 
L 110.528647 482.271325 
L 110.65943 483.026979 
L 110.790213 481.421073 
L 110.920996 482.857218 
L 111.051779 481.300928 
L 111.313345 483.456976 
L 111.444128 483.262107 
L 111.574911 483.272037 
L 111.705694 482.976885 
L 111.96726 483.868429 
L 112.098043 483.70849 
L 112.359609 484.289747 
L 112.621175 484.261017 
L 112.751958 483.680371 
L 112.882741 484.228112 
L 113.013524 484.10118 
L 113.798222 484.537225 
L 114.059788 484.398103 
L 114.190571 484.643554 
L 114.321354 484.217103 
L 114.713703 484.64633 
L 114.975269 484.586499 
L 115.106052 484.227889 
L 115.367618 484.616437 
L 115.498401 484.714499 
L 115.629184 484.397811 
L 115.759967 484.61503 
L 115.89075 484.337947 
L 116.021533 484.669739 
L 116.152316 484.640377 
L 116.413882 484.72335 
L 116.675448 484.744731 
L 116.806231 484.642149 
L 116.937014 484.750411 
L 117.19858 484.698012 
L 117.460146 484.805968 
L 117.590929 484.768983 
L 117.852495 484.865947 
L 118.114061 484.815638 
L 118.375627 484.906991 
L 119.291108 484.940917 
L 119.421891 484.827286 
L 119.552674 484.942943 
L 119.81424 484.950226 
L 121.383636 484.962421 
L 131.977059 485.082014 
L 133.808021 485.083684 
L 144.793793 485.097129 
L 347.638226 485.109227 
L 353.261895 485.109229 
L 353.261895 485.109229 
" style="fill:none;stroke:#1f77b4;stroke-linecap:square;stroke-width:3;"/>
   </g>
   <g id="line2d_17">
    <path clip-path="url(#p529d9de176)" d="M 83.325783 108.582542 
L 86.464575 108.582542 
L 86.595358 154.608688 
L 89.73415 154.608688 
L 89.864933 33.38841 
L 93.003725 33.38841 
L 93.134508 160.813453 
L 96.2733 160.813453 
L 96.404083 210.9899 
L 99.542875 210.9899 
L 99.673658 257.324713 
L 102.81245 257.324713 
L 102.943233 387.483658 
L 106.082025 387.483657 
L 106.212808 407.21986 
L 109.3516 407.21986 
L 109.482383 427.261227 
L 112.621175 427.261227 
L 112.751958 457.550635 
L 115.89075 457.550635 
L 116.021533 433.436293 
L 119.160325 433.436293 
L 119.291108 477.521083 
L 122.4299 477.521083 
L 122.560683 481.511445 
L 125.699475 481.511445 
L 125.830258 483.721742 
L 128.96905 483.721742 
L 129.099833 484.631353 
L 132.238625 484.631353 
L 132.369408 484.920194 
L 135.5082 484.920194 
L 135.769766 485.037379 
L 678.25765 485.121401 
L 678.25765 485.121401 
" style="fill:none;stroke:#ff7f0e;stroke-linecap:square;stroke-width:3;"/>
   </g>
   <g id="line2d_18">
    <path clip-path="url(#p529d9de176)" d="M 83.325783 179.953729 
L 86.464575 179.953729 
L 86.595358 263.58105 
L 89.73415 263.58105 
L 89.864933 76.159332 
L 89.995716 337.999024 
L 93.134508 337.999024 
L 93.265291 374.085641 
L 96.404083 374.085641 
L 96.534866 389.838348 
L 99.673658 389.838348 
L 99.804441 207.382246 
L 99.935224 435.44304 
L 103.074016 435.44304 
L 103.204799 455.576559 
L 106.343591 455.576559 
L 106.474374 467.587652 
L 109.613166 467.587652 
L 109.743949 483.126206 
L 112.882741 483.126206 
L 113.013524 481.853181 
L 113.144307 484.58313 
L 116.283099 484.58313 
L 116.413882 484.838264 
L 119.552674 484.838264 
L 119.683457 485.062126 
L 136.031332 485.105983 
L 136.031332 485.105983 
" style="fill:none;stroke:#2ca02c;stroke-linecap:square;stroke-width:3;"/>
   </g>
   <g id="line2d_19">
    <path clip-path="url(#p529d9de176)" d="M 83.325783 130.86525 
L 83.718132 127.843403 
L 83.848915 130.325164 
L 83.979698 122.661185 
L 84.110481 123.503433 
L 84.241264 131.090007 
L 84.50283 128.755238 
L 84.764396 140.836289 
L 84.895179 125.798485 
L 85.025962 132.544432 
L 85.156745 131.585966 
L 85.287528 129.086911 
L 85.418311 135.568862 
L 85.549094 131.642455 
L 85.679877 120.781838 
L 85.81066 131.411816 
L 86.072226 128.751709 
L 86.203009 127.496176 
L 86.333792 129.417116 
L 86.464575 127.215423 
L 86.595358 139.033186 
L 86.726141 139.111822 
L 86.987707 136.951661 
L 87.11849 138.20611 
L 87.249273 138.086623 
L 87.510839 138.921 
L 87.641622 139.191225 
L 87.772405 140.17308 
L 87.903188 140.068977 
L 88.033971 141.143433 
L 88.164754 146.468144 
L 88.295537 143.047178 
L 88.557103 144.079297 
L 88.949452 146.838201 
L 89.080235 154.274883 
L 89.211018 148.654698 
L 89.341801 148.885487 
L 89.73415 152.443062 
L 89.864933 152.097836 
L 89.995716 149.722882 
L 90.126499 150.038112 
L 90.388065 152.978045 
L 90.649631 154.509329 
L 90.780414 160.752469 
L 90.911197 156.874807 
L 91.434329 161.494238 
L 91.565112 170.336026 
L 91.695895 162.728543 
L 91.826678 163.174833 
L 92.088244 165.939126 
L 92.480593 168.475714 
L 92.611376 168.28667 
L 92.742159 167.407555 
L 92.872942 168.19965 
L 93.003725 167.850849 
L 93.134508 172.901602 
L 93.265291 183.382553 
L 93.396074 173.64608 
L 93.526857 174.930553 
L 93.65764 171.326419 
L 93.919206 181.128796 
L 94.049989 181.625711 
L 94.180772 182.851563 
L 94.311555 180.339662 
L 94.442338 183.589301 
L 94.573121 195.324749 
L 94.703904 183.530132 
L 94.96547 184.353862 
L 95.096253 187.776766 
L 95.357819 188.100664 
L 95.488602 188.452494 
L 96.011734 194.545408 
L 96.142517 194.724451 
L 96.2733 196.580087 
L 96.404083 203.441289 
L 96.534866 196.857933 
L 96.796432 205.490314 
L 96.927215 220.211558 
L 97.057998 204.153193 
L 97.319564 206.755353 
L 97.450347 206.669878 
L 97.58113 205.841877 
L 97.711913 208.252507 
L 97.842696 208.41116 
L 97.973479 207.000322 
L 98.235045 213.542239 
L 98.365828 210.82603 
L 98.496611 211.332553 
L 98.758177 217.93046 
L 99.019743 221.407064 
L 99.150526 230.752837 
L 99.281309 223.307229 
L 99.412092 222.652917 
L 99.542875 217.025246 
L 99.673658 224.655746 
L 99.804441 220.963031 
L 100.066007 247.804806 
L 100.19679 225.493515 
L 100.327573 232.115907 
L 100.458356 230.059515 
L 100.589139 230.678625 
L 100.719922 235.288732 
L 100.850705 227.869176 
L 100.981488 233.002723 
L 101.112271 230.742503 
L 101.373837 238.729283 
L 101.50462 236.315987 
L 101.635403 243.474292 
L 101.766186 236.409668 
L 101.896969 237.481055 
L 102.158535 248.194752 
L 102.289318 260.44507 
L 102.420101 245.558371 
L 102.550884 246.458129 
L 102.681667 219.69835 
L 102.943233 251.555378 
L 103.074016 246.841553 
L 103.335582 251.061173 
L 103.466365 252.12504 
L 103.597148 256.721416 
L 103.858714 252.587513 
L 104.251063 271.037128 
L 104.381846 246.557149 
L 104.512629 248.658293 
L 104.643412 263.973901 
L 104.774195 254.930346 
L 104.904978 258.993614 
L 105.035761 267.697341 
L 105.166544 268.531505 
L 105.42811 271.829197 
L 105.558893 279.571185 
L 105.820459 270.391347 
L 105.951242 276.36303 
L 106.082025 276.578723 
L 106.212808 271.847654 
L 106.474374 296.489483 
L 106.605157 266.780417 
L 106.866723 286.45534 
L 106.997506 284.518577 
L 107.128289 280.768361 
L 107.651421 315.934128 
L 107.912987 291.216809 
L 108.04377 286.131441 
L 108.174553 304.396792 
L 108.305336 271.786567 
L 108.436119 301.030426 
L 108.697685 298.631268 
L 108.828468 309.559386 
L 108.959251 306.825449 
L 109.220817 311.41064 
L 109.3516 283.598941 
L 109.613166 315.037971 
L 109.743949 317.250449 
L 109.874732 324.461635 
L 110.005515 306.408969 
L 110.267081 323.608931 
L 110.397864 321.553162 
L 110.528647 285.027089 
L 110.65943 325.30132 
L 110.790213 324.804125 
L 110.920996 289.272964 
L 111.051779 325.101938 
L 111.182562 328.448153 
L 111.313345 322.68102 
L 111.574911 342.998569 
L 111.705694 295.674347 
L 111.836477 334.413549 
L 111.96726 329.289647 
L 112.098043 295.858767 
L 112.490392 338.736528 
L 112.751958 305.222803 
L 113.013524 346.604505 
L 113.144307 355.898585 
L 113.405873 311.9029 
L 113.667439 337.055583 
L 113.929005 345.899853 
L 114.059788 347.407719 
L 114.190571 309.852232 
L 114.452137 335.086498 
L 114.58292 348.825457 
L 114.713703 344.463116 
L 114.844486 351.773591 
L 114.975269 340.175971 
L 115.236835 362.65639 
L 115.367618 346.802884 
L 115.498401 346.647414 
L 115.629184 356.54566 
L 115.759967 334.510994 
L 115.89075 336.272735 
L 116.021533 352.000482 
L 116.152316 340.855328 
L 116.283099 353.677157 
L 116.413882 355.427067 
L 116.544665 341.022041 
L 116.675448 350.858362 
L 116.806231 348.575482 
L 116.937014 355.134196 
L 117.067797 351.352488 
L 117.19858 358.206048 
L 117.460146 377.22948 
L 117.590929 342.507081 
L 117.721712 343.180184 
L 117.983278 356.754144 
L 118.114061 338.816846 
L 118.244844 356.988072 
L 118.375627 355.633802 
L 118.50641 342.008425 
L 118.898759 375.561941 
L 119.029542 370.171345 
L 119.160325 374.994559 
L 119.291108 334.860483 
L 119.552674 370.022976 
L 119.683457 363.566236 
L 119.945023 389.645527 
L 120.206589 361.685413 
L 120.337372 382.592197 
L 120.598938 365.156809 
L 120.729721 377.744572 
L 120.860504 366.476928 
L 120.991287 378.978525 
L 121.12207 366.641923 
L 121.383636 395.816278 
L 121.514419 391.170262 
L 121.645202 393.282958 
L 121.775985 381.262311 
L 122.037551 405.997952 
L 122.299117 376.24999 
L 122.560683 395.812668 
L 122.691466 379.327496 
L 122.822249 397.057793 
L 123.083815 390.409535 
L 123.214598 381.328644 
L 123.345381 406.39452 
L 123.476164 401.68501 
L 123.73773 421.442338 
L 123.868513 420.174808 
L 123.999296 395.485211 
L 124.260862 413.947963 
L 124.391645 397.639514 
L 124.653211 411.01339 
L 124.783994 402.984031 
L 125.04556 412.898885 
L 125.176343 403.982412 
L 125.307126 424.117147 
L 125.437909 414.202957 
L 125.699475 423.378542 
L 125.830258 391.041023 
L 125.961041 409.7395 
L 126.091824 410.961709 
L 126.484173 422.044852 
L 126.614956 403.552637 
L 126.876522 433.053687 
L 127.007305 425.481433 
L 127.138088 427.328587 
L 127.399654 393.230939 
L 127.530437 420.649116 
L 127.66122 405.866139 
L 127.922786 420.866253 
L 128.053569 405.146861 
L 128.184352 420.951481 
L 128.315135 419.58461 
L 128.576701 430.977042 
L 128.707484 407.519248 
L 128.96905 437.612636 
L 129.099833 435.897856 
L 129.230616 419.33671 
L 129.492182 423.954514 
L 129.622965 423.79677 
L 129.753748 437.566701 
L 129.884531 421.954809 
L 130.015314 430.315118 
L 130.146097 425.097127 
L 130.27688 426.203119 
L 130.407663 416.778802 
L 130.538446 430.149742 
L 130.669229 428.84849 
L 130.800012 425.497872 
L 130.930795 425.929224 
L 131.061578 431.471704 
L 131.192361 431.127303 
L 131.323144 433.68565 
L 131.453927 431.544421 
L 131.58471 426.093415 
L 131.715493 434.13918 
L 131.846276 407.109545 
L 131.977059 435.36448 
L 132.107842 429.771621 
L 132.238625 444.73502 
L 132.369408 442.135157 
L 132.500191 424.219022 
L 132.630974 436.905122 
L 132.761757 438.151545 
L 132.89254 442.529806 
L 133.023323 431.294377 
L 133.154106 430.153024 
L 133.284889 424.150592 
L 133.415672 437.504802 
L 133.546455 439.197826 
L 133.677238 429.787229 
L 133.938804 442.035522 
L 134.069587 428.404795 
L 134.20037 439.112496 
L 134.331153 425.482583 
L 134.461936 439.700344 
L 134.592719 431.97762 
L 134.723502 449.778425 
L 134.854285 449.957818 
L 134.985068 431.503402 
L 135.115851 436.735876 
L 135.246634 447.384742 
L 135.5082 435.993088 
L 135.638983 441.049019 
L 135.769766 430.136938 
L 135.900549 442.203821 
L 136.031332 433.00485 
L 136.162115 438.043395 
L 136.292898 432.355968 
L 136.554464 447.462859 
L 136.685247 444.730654 
L 136.81603 429.625519 
L 137.077596 454.935571 
L 137.208379 457.6409 
L 137.339162 440.728974 
L 137.469945 439.508521 
L 137.600728 444.390333 
L 137.731511 454.001144 
L 137.862294 446.576328 
L 137.993077 449.504128 
L 138.12386 437.067962 
L 138.254643 447.555429 
L 138.385426 443.563433 
L 138.516209 453.278598 
L 138.646992 443.537935 
L 138.777775 449.334949 
L 138.908558 450.052346 
L 139.039341 453.650761 
L 139.170124 450.091068 
L 139.300907 441.531703 
L 139.562473 452.974475 
L 139.693256 450.762479 
L 139.824039 460.738391 
L 139.954822 459.055336 
L 140.085605 454.627923 
L 140.216388 455.427706 
L 140.477954 445.75652 
L 140.608737 454.049049 
L 140.73952 448.424011 
L 141.001086 463.307292 
L 141.131869 460.527635 
L 141.262652 450.450053 
L 141.524218 459.110939 
L 141.655001 453.43908 
L 141.785784 462.15988 
L 141.916567 449.427093 
L 142.04735 457.166807 
L 142.178133 448.174246 
L 142.439699 460.98362 
L 142.570482 457.931727 
L 142.701265 460.101853 
L 142.962831 456.845386 
L 143.093614 464.914613 
L 143.224397 456.765109 
L 143.35518 457.513883 
L 143.485963 456.225738 
L 143.747529 464.09402 
L 143.878312 455.660019 
L 144.139878 464.509843 
L 144.270661 461.837597 
L 144.401444 461.991084 
L 144.532227 462.626889 
L 144.66301 457.728712 
L 144.793793 458.477067 
L 144.924576 460.264764 
L 145.055359 457.859573 
L 145.186142 461.700941 
L 145.316925 456.779904 
L 145.447708 464.151284 
L 145.578491 463.563131 
L 145.709274 456.01776 
L 145.840057 464.772865 
L 145.97084 458.58385 
L 146.101623 460.653326 
L 146.232406 467.555849 
L 146.493972 457.067292 
L 146.624755 465.374046 
L 146.886321 456.979553 
L 147.017104 465.322687 
L 147.147887 464.893521 
L 147.27867 462.800205 
L 147.409453 466.736742 
L 147.540236 455.025024 
L 147.671019 466.545708 
L 147.932585 458.096462 
L 148.063368 466.466032 
L 148.194151 466.777591 
L 148.324934 461.714753 
L 148.455717 464.171505 
L 148.5865 460.797489 
L 148.717283 466.576753 
L 148.848066 460.573849 
L 148.978849 466.762003 
L 149.240415 461.153405 
L 149.371198 466.804141 
L 149.501981 460.647396 
L 149.632764 466.945481 
L 149.763547 461.597282 
L 149.89433 466.729554 
L 150.025113 461.58045 
L 150.286679 468.635327 
L 150.417462 462.736305 
L 150.548245 464.461054 
L 150.679028 463.708275 
L 150.809811 468.797892 
L 150.940594 462.858809 
L 151.071377 463.3493 
L 151.20216 467.666052 
L 151.332943 463.608871 
L 151.463726 467.716523 
L 151.594509 464.517639 
L 151.725292 467.883574 
L 151.856075 463.993517 
L 151.986858 467.965288 
L 152.117641 466.318642 
L 152.248424 466.575421 
L 152.379207 464.495677 
L 152.640773 468.860885 
L 152.771556 462.993385 
L 152.902339 463.020451 
L 153.033122 468.553278 
L 153.163905 466.884714 
L 153.425471 467.505511 
L 153.556254 466.152776 
L 153.81782 469.81292 
L 153.948603 466.655215 
L 154.079386 467.05241 
L 154.210169 464.696158 
L 154.340952 469.266472 
L 154.471735 469.288551 
L 154.602518 468.148297 
L 154.733301 463.907085 
L 154.864084 469.540504 
L 155.12565 467.859209 
L 155.256433 468.465035 
L 155.387216 469.604841 
L 155.517999 468.042286 
L 155.648782 471.046409 
L 155.779565 468.636515 
L 155.910348 469.259269 
L 156.171914 467.329341 
L 156.302697 469.876339 
L 156.43348 467.701705 
L 156.564263 471.651871 
L 156.695046 470.388149 
L 156.956612 467.434977 
L 157.087395 470.100924 
L 157.218178 469.349947 
L 157.348961 466.398719 
L 157.479744 470.350913 
L 157.610527 467.017882 
L 157.74131 470.287208 
L 157.872093 468.427958 
L 158.133659 470.238053 
L 158.264442 468.474942 
L 158.395225 469.907803 
L 158.526008 467.20919 
L 158.656791 470.614414 
L 158.787574 466.347245 
L 158.918357 470.751854 
L 159.04914 469.070332 
L 159.179923 470.465673 
L 159.310706 465.426853 
L 159.441489 470.918759 
L 159.572272 468.891588 
L 159.703055 471.533074 
L 159.833838 471.102746 
L 159.964621 468.882786 
L 160.095404 470.769949 
L 160.226187 471.000325 
L 160.487753 469.168283 
L 160.618536 470.96981 
L 160.749319 471.020407 
L 160.880102 470.683531 
L 161.010885 469.798243 
L 161.141668 472.206421 
L 161.272451 470.916369 
L 161.403234 471.116133 
L 161.534017 469.283282 
L 161.6648 471.344846 
L 161.795583 469.72111 
L 162.057149 471.731613 
L 162.187932 469.218911 
L 162.449498 472.960465 
L 162.580281 472.818355 
L 162.711064 469.540277 
L 162.841847 471.540552 
L 162.97263 471.203731 
L 163.103413 471.239558 
L 163.234196 471.88187 
L 163.364979 471.84588 
L 163.495762 471.273472 
L 163.626545 471.817115 
L 163.757328 471.086009 
L 164.018894 473.068745 
L 164.28046 471.729042 
L 164.411243 472.874053 
L 164.672809 472.04737 
L 164.803592 472.177221 
L 165.065158 470.769602 
L 165.195941 472.386014 
L 165.457507 471.301386 
L 165.58829 472.227115 
L 165.719073 472.116194 
L 165.849856 470.794704 
L 166.111422 473.4188 
L 166.242205 472.887528 
L 166.372988 473.023462 
L 166.503771 473.401475 
L 166.634554 472.390656 
L 166.765337 473.763817 
L 166.89612 473.316052 
L 167.026903 472.200287 
L 167.157686 473.598269 
L 167.288469 472.082945 
L 167.419252 472.044358 
L 167.680818 472.987135 
L 167.811601 473.25308 
L 167.942384 473.233956 
L 168.073167 471.999759 
L 168.20395 473.1654 
L 168.334733 472.290351 
L 168.465516 472.35481 
L 168.596299 473.102436 
L 168.857865 473.084925 
L 168.988648 472.357741 
L 169.119431 474.367185 
L 169.250214 474.13921 
L 169.642563 472.320151 
L 169.773346 473.463389 
L 169.904129 472.228611 
L 170.165695 474.380528 
L 170.427261 473.153271 
L 170.688827 474.469538 
L 170.950393 472.550852 
L 171.081176 473.7418 
L 171.211959 472.545005 
L 171.473525 474.249091 
L 171.735091 473.827515 
L 171.865874 474.399327 
L 171.996657 474.351741 
L 172.258223 473.184069 
L 172.389006 473.817903 
L 172.519789 473.346926 
L 172.650572 474.962559 
L 172.781355 474.817926 
L 172.912138 472.905112 
L 173.042921 474.153508 
L 173.173704 473.220299 
L 173.304487 474.149434 
L 173.43527 473.381707 
L 173.566053 473.610208 
L 173.696836 473.092994 
L 173.958402 474.447362 
L 174.350751 475.379903 
L 174.873883 473.749427 
L 175.004666 474.103107 
L 175.135449 473.82222 
L 175.266232 475.157216 
L 175.397015 473.640669 
L 175.789364 475.81998 
L 175.920147 476.316078 
L 176.181713 474.103743 
L 176.312496 474.975101 
L 176.443279 475.043514 
L 176.704845 473.958103 
L 176.966411 475.623433 
L 177.227977 475.757367 
L 177.35876 475.511523 
L 177.489543 474.979964 
L 177.751109 476.095235 
L 177.881892 475.127035 
L 178.012675 475.816407 
L 178.274241 475.619175 
L 178.405024 476.270037 
L 178.535807 476.099242 
L 179.058939 476.139343 
L 179.189722 475.335333 
L 179.451288 477.483385 
L 179.582071 476.454785 
L 179.712854 476.968142 
L 179.97442 475.947754 
L 180.235986 476.769439 
L 180.366769 475.975159 
L 180.497552 477.105965 
L 180.628335 476.515256 
L 180.759118 477.045302 
L 180.889901 476.451126 
L 181.151467 477.091933 
L 181.413033 477.559578 
L 181.674599 477.189397 
L 181.805382 476.024659 
L 181.936165 476.772138 
L 182.066948 475.777387 
L 182.328514 477.623207 
L 182.459297 477.396899 
L 182.59008 476.639668 
L 182.851646 478.051687 
L 182.982429 478.303822 
L 183.113212 477.493706 
L 183.243995 478.284939 
L 183.374778 477.163796 
L 183.505561 477.593306 
L 183.636344 477.332198 
L 183.767127 477.71784 
L 183.89791 477.655065 
L 184.028693 478.489635 
L 184.159476 478.445621 
L 184.290259 478.07075 
L 184.421042 477.238833 
L 184.551825 478.063514 
L 184.682608 477.836524 
L 184.813391 478.391002 
L 184.944174 478.066508 
L 185.20574 478.490172 
L 185.336523 477.822533 
L 185.598089 478.430104 
L 185.728872 477.826127 
L 185.859655 478.313196 
L 185.990438 477.644957 
L 186.252004 478.77264 
L 186.382787 478.135509 
L 186.51357 479.056334 
L 186.775136 478.671391 
L 186.905919 479.004596 
L 187.167485 478.935644 
L 187.298268 479.37447 
L 187.429051 479.196736 
L 187.559834 478.017136 
L 187.690617 479.141358 
L 187.8214 478.967116 
L 187.952183 478.199852 
L 188.082966 478.640731 
L 188.213749 477.810225 
L 188.475315 479.21442 
L 188.606098 478.461655 
L 188.736881 478.732565 
L 188.867664 479.524967 
L 189.12923 478.518502 
L 189.390796 479.331471 
L 189.652362 478.787135 
L 190.044711 479.942328 
L 190.175494 479.582664 
L 190.306277 478.624328 
L 190.43706 479.705565 
L 190.567843 479.663863 
L 190.829409 478.498709 
L 190.960192 479.394534 
L 191.090975 479.116721 
L 191.221758 479.745221 
L 191.352541 478.989172 
L 191.483324 480.296755 
L 191.614107 480.448821 
L 191.74489 479.014951 
L 191.875673 480.064265 
L 192.006456 478.699596 
L 192.137239 479.664847 
L 192.398805 478.992294 
L 192.529588 480.146404 
L 192.660371 480.181188 
L 192.921937 478.953718 
L 193.183503 479.991293 
L 193.314286 479.167375 
L 193.445069 480.13488 
L 193.575852 479.665768 
L 193.706635 480.486695 
L 193.968201 480.117602 
L 194.098984 479.263746 
L 194.36055 480.340743 
L 194.491333 479.283066 
L 194.622116 480.044229 
L 194.752899 480.134304 
L 194.883682 480.895832 
L 195.014465 481.000617 
L 195.145248 480.884212 
L 195.276031 480.228048 
L 195.537597 480.493495 
L 195.66838 480.311571 
L 195.799163 480.452331 
L 195.929946 481.045183 
L 196.060729 480.815299 
L 196.191512 480.07513 
L 196.322295 480.839695 
L 196.453078 480.919847 
L 196.714644 481.895715 
L 196.845427 480.867314 
L 197.106993 481.02486 
L 197.237776 481.4048 
L 197.368559 480.40299 
L 197.630125 481.444725 
L 197.760908 481.339699 
L 197.891691 480.929104 
L 198.022474 481.639561 
L 198.153257 481.63873 
L 198.414823 481.166103 
L 198.545606 481.134336 
L 198.676389 480.866124 
L 199.068738 481.691539 
L 199.199521 481.36787 
L 199.330304 481.781087 
L 199.461087 481.416201 
L 199.59187 481.533757 
L 199.722653 480.708779 
L 199.984219 481.779882 
L 200.115002 481.91183 
L 200.245785 481.167754 
L 200.507351 481.921256 
L 200.638134 481.076229 
L 200.768917 481.797287 
L 200.8997 481.844589 
L 201.030483 482.410731 
L 201.161266 482.291878 
L 201.422832 481.687603 
L 201.553615 481.740199 
L 201.684398 481.558264 
L 201.815181 481.636165 
L 201.945964 482.05571 
L 202.076747 481.960296 
L 202.20753 482.339124 
L 202.730662 481.655508 
L 202.992228 482.299222 
L 203.123011 481.682451 
L 203.253794 481.680889 
L 203.51536 482.446529 
L 203.646143 481.7872 
L 203.907709 481.677369 
L 204.038492 482.229232 
L 204.169275 481.780858 
L 204.300058 481.910381 
L 204.430841 482.417468 
L 204.692407 481.868753 
L 204.82319 482.121488 
L 204.953973 481.88943 
L 205.084756 482.524366 
L 205.215539 481.79697 
L 205.346322 482.354263 
L 205.477105 482.323643 
L 205.607888 481.880157 
L 205.738671 482.391003 
L 205.869454 482.000247 
L 206.000237 482.468843 
L 206.13102 481.737597 
L 206.392586 482.57864 
L 206.523369 481.846573 
L 206.654152 482.139222 
L 206.784935 481.873963 
L 206.915718 482.463826 
L 207.046501 482.464924 
L 207.177284 482.041254 
L 207.43885 482.700525 
L 207.569633 482.075215 
L 207.831199 482.568389 
L 207.961982 482.040806 
L 208.092765 482.550906 
L 208.354331 482.410355 
L 208.615897 481.946741 
L 208.74668 482.623987 
L 208.877463 482.14615 
L 209.008246 482.600231 
L 209.139029 482.306472 
L 209.269812 482.706213 
L 209.400595 482.023524 
L 209.531378 482.315764 
L 209.662161 482.127977 
L 209.792944 482.673141 
L 209.923727 482.639683 
L 210.05451 482.213836 
L 210.185293 482.679924 
L 210.316076 482.219421 
L 210.446859 482.681748 
L 210.577642 482.633743 
L 210.708425 482.868542 
L 210.969991 482.42608 
L 211.100774 482.784419 
L 211.231557 482.38672 
L 211.493123 482.840494 
L 211.754689 482.499812 
L 211.885472 482.923965 
L 212.016255 482.552265 
L 212.277821 482.944405 
L 212.408604 482.52565 
L 212.539387 482.586192 
L 212.67017 482.780266 
L 212.931736 482.372931 
L 213.062519 482.857451 
L 213.193302 482.634869 
L 213.324085 482.978627 
L 213.454868 482.605457 
L 213.585651 482.618507 
L 213.716434 482.827309 
L 213.847217 482.449649 
L 213.978 482.896616 
L 214.108783 482.899278 
L 214.239566 482.67256 
L 214.370349 483.051408 
L 214.501132 482.773329 
L 214.631915 482.839393 
L 214.762698 482.631189 
L 214.893481 482.92295 
L 215.024264 482.436788 
L 215.155047 482.946535 
L 215.28583 482.617497 
L 215.416613 482.928353 
L 215.547396 482.718412 
L 215.678179 483.091442 
L 215.808962 482.863043 
L 215.939745 483.225099 
L 216.201311 483.181063 
L 216.332094 482.756387 
L 216.462877 482.744654 
L 216.59366 482.930902 
L 216.855226 482.836918 
L 216.986009 483.200658 
L 217.116792 482.741285 
L 217.247575 483.028385 
L 217.378358 482.792425 
L 217.509141 482.789656 
L 217.639924 483.020879 
L 217.770707 482.789693 
L 217.90149 483.048008 
L 218.032273 482.744253 
L 218.163056 483.053907 
L 218.293839 482.77297 
L 218.424622 483.063553 
L 218.555405 482.83953 
L 218.947754 482.970201 
L 219.078537 483.260429 
L 219.20932 483.18974 
L 219.340103 482.912143 
L 219.470886 483.083042 
L 219.601669 482.878559 
L 219.732452 483.096433 
L 219.863235 482.854512 
L 220.124801 483.255828 
L 220.386367 482.9469 
L 220.51715 483.285414 
L 220.647933 483.189314 
L 220.909499 483.325678 
L 221.040282 483.230881 
L 221.171065 482.863587 
L 221.301848 483.165155 
L 221.432631 483.108564 
L 221.563414 483.29318 
L 221.694197 483.069649 
L 222.086546 483.061672 
L 222.217329 482.995905 
L 222.478895 483.331488 
L 222.609678 483.187886 
L 222.740461 483.360919 
L 223.002027 483.174525 
L 223.13281 483.318116 
L 223.263593 483.081538 
L 223.394376 483.445655 
L 223.525159 483.434887 
L 223.786725 483.092395 
L 223.917508 483.134796 
L 224.048291 483.371023 
L 224.179074 483.121375 
L 224.571423 483.46221 
L 225.094555 483.2005 
L 225.225338 483.437877 
L 225.356121 483.267409 
L 225.617687 483.219173 
L 225.74847 483.450657 
L 225.879253 483.212258 
L 226.010036 483.243746 
L 226.140819 483.445156 
L 226.271602 483.20551 
L 226.533168 483.46174 
L 226.663951 483.255892 
L 226.794734 483.480884 
L 227.0563 483.281289 
L 227.317866 483.309038 
L 227.448649 483.502902 
L 227.710215 483.305864 
L 227.971781 483.480862 
L 228.233347 483.254075 
L 228.494913 483.602044 
L 228.625696 483.576575 
L 228.887262 483.279234 
L 229.148828 483.502138 
L 229.410394 483.343897 
L 229.541177 483.547011 
L 229.67196 483.502076 
L 229.802743 483.633761 
L 229.933526 483.570501 
L 230.064309 483.350378 
L 230.325875 483.575713 
L 230.456658 483.492737 
L 230.587441 483.640142 
L 230.97979 483.500886 
L 231.110573 483.579729 
L 231.241356 483.425206 
L 231.372139 483.553941 
L 231.502922 483.414267 
L 231.633705 483.558959 
L 231.895271 483.536795 
L 232.026054 483.666636 
L 232.418403 483.547841 
L 232.549186 483.676016 
L 232.810752 483.644398 
L 233.857016 483.567503 
L 233.987799 483.667873 
L 234.118582 483.535974 
L 234.249365 483.721696 
L 234.510931 483.519339 
L 234.772497 483.668425 
L 235.557195 483.769089 
L 235.687978 483.580901 
L 236.080327 483.700756 
L 236.21111 483.57716 
L 236.472676 483.791317 
L 237.257374 483.606943 
L 237.388157 483.720388 
L 237.649723 483.61695 
L 237.911289 483.704696 
L 238.172855 483.72299 
L 238.303638 483.618278 
L 238.565204 483.77211 
L 239.219119 483.838692 
L 239.349902 483.841728 
L 239.611468 483.721168 
L 239.742251 483.677834 
L 239.873034 483.828832 
L 240.003817 483.690209 
L 240.1346 483.816031 
L 240.396166 483.699621 
L 240.657732 483.806405 
L 241.180864 483.790573 
L 241.44243 483.858357 
L 243.665741 483.849584 
L 244.450439 483.977464 
L 244.581222 483.886377 
L 244.842788 483.976238 
L 245.104354 483.877929 
L 245.235137 483.954642 
L 245.36592 483.873742 
L 245.627486 483.934505 
L 245.889052 483.901489 
L 246.150618 484.014043 
L 248.243146 484.030783 
L 248.504712 484.174859 
L 248.766278 483.997 
L 249.027844 484.033563 
L 249.681759 484.097046 
L 250.466457 484.249086 
L 250.728023 484.145739 
L 251.120372 484.103 
L 251.512721 484.149344 
L 251.774287 484.129968 
L 252.820551 484.251762 
L 254.259164 484.335107 
L 254.389947 484.207977 
L 254.52073 484.33084 
L 254.913079 484.240936 
L 255.174645 484.281412 
L 255.305428 484.227277 
L 255.566994 484.359757 
L 255.82856 484.287639 
L 256.220909 484.378915 
L 256.744041 484.199666 
L 256.874824 484.320297 
L 257.267173 484.294969 
L 257.921088 484.356057 
L 258.051871 484.268952 
L 258.44422 484.39921 
L 258.705786 484.392493 
L 259.621267 484.359951 
L 260.405965 484.337275 
L 260.667531 484.387533 
L 294.409545 484.796173 
L 294.932677 484.768464 
L 295.586592 484.801427 
L 303.041223 484.841959 
L 307.487845 484.875599 
L 308.795675 484.89359 
L 311.018986 484.887342 
L 313.111514 484.903646 
L 313.634646 484.883645 
L 314.550127 484.910094 
L 316.119523 484.896859 
L 317.688919 484.906737 
L 318.6044 484.916275 
L 319.781447 484.911533 
L 326.320597 484.956625 
L 327.628427 484.948737 
L 328.674691 484.979567 
L 331.944266 484.974779 
L 339.137331 484.983172 
L 341.360642 484.984317 
L 342.668472 484.992173 
L 351.823282 485.013165 
L 355.615989 485.025633 
L 370.525251 485.035921 
L 1391.025 485.156486 
L 1391.025 485.156486 
" style="fill:none;stroke:#d62728;stroke-linecap:square;stroke-width:3;"/>
   </g>
   <g id="line2d_20">
    <path clip-path="url(#p529d9de176)" d="M 83.195 485.262828 
L 1391.025 485.262828 
" style="fill:none;stroke:#000000;stroke-dasharray:7.4,3.2;stroke-dashoffset:0;stroke-width:2;"/>
   </g>
   <g id="patch_3">
    <path d="M 83.195 507.745 
L 83.195 10.8 
" style="fill:none;stroke:#000000;stroke-linecap:square;stroke-linejoin:miter;stroke-width:0.8;"/>
   </g>
   <g id="patch_4">
    <path d="M 1391.025 507.745 
L 1391.025 10.8 
" style="fill:none;stroke:#000000;stroke-linecap:square;stroke-linejoin:miter;stroke-width:0.8;"/>
   </g>
   <g id="patch_5">
    <path d="M 83.195 507.745 
L 1391.025 507.745 
" style="fill:none;stroke:#000000;stroke-linecap:square;stroke-linejoin:miter;stroke-width:0.8;"/>
   </g>
   <g id="patch_6">
    <path d="M 83.195 10.8 
L 1391.025 10.8 
" style="fill:none;stroke:#000000;stroke-linecap:square;stroke-linejoin:miter;stroke-width:0.8;"/>
   </g>
   <g id="legend_1">
    <g id="patch_7">
     <path d="M 1122.1425 206.1375 
L 1374.225 206.1375 
Q 1379.025 206.1375 1379.025 201.3375 
L 1379.025 27.6 
Q 1379.025 22.8 1374.225 22.8 
L 1122.1425 22.8 
Q 1117.3425 22.8 1117.3425 27.6 
L 1117.3425 201.3375 
Q 1117.3425 206.1375 1122.1425 206.1375 
z
" style="fill:#ffffff;opacity:0.8;stroke:#cccccc;stroke-linejoin:miter;"/>
    </g>
    <g id="line2d_21">
     <path d="M 1126.9425 42.23625 
L 1174.9425 42.23625 
" style="fill:none;stroke:#1f77b4;stroke-linecap:square;stroke-width:3;"/>
    </g>
    <g id="line2d_22"/>
    <g id="text_18">
     <!-- COBYLA -->
     <g transform="translate(1194.1425 50.63625)scale(0.24 -0.24)">
      <defs>
       <path d="M 4122 4306 
L 4122 3641 
Q 3803 3938 3442 4084 
Q 3081 4231 2675 4231 
Q 1875 4231 1450 3742 
Q 1025 3253 1025 2328 
Q 1025 1406 1450 917 
Q 1875 428 2675 428 
Q 3081 428 3442 575 
Q 3803 722 4122 1019 
L 4122 359 
Q 3791 134 3420 21 
Q 3050 -91 2638 -91 
Q 1578 -91 968 557 
Q 359 1206 359 2328 
Q 359 3453 968 4101 
Q 1578 4750 2638 4750 
Q 3056 4750 3426 4639 
Q 3797 4528 4122 4306 
z
" id="DejaVuSans-43" transform="scale(0.015625)"/>
       <path d="M 2522 4238 
Q 1834 4238 1429 3725 
Q 1025 3213 1025 2328 
Q 1025 1447 1429 934 
Q 1834 422 2522 422 
Q 3209 422 3611 934 
Q 4013 1447 4013 2328 
Q 4013 3213 3611 3725 
Q 3209 4238 2522 4238 
z
M 2522 4750 
Q 3503 4750 4090 4092 
Q 4678 3434 4678 2328 
Q 4678 1225 4090 567 
Q 3503 -91 2522 -91 
Q 1538 -91 948 565 
Q 359 1222 359 2328 
Q 359 3434 948 4092 
Q 1538 4750 2522 4750 
z
" id="DejaVuSans-4f" transform="scale(0.015625)"/>
       <path d="M 1259 2228 
L 1259 519 
L 2272 519 
Q 2781 519 3026 730 
Q 3272 941 3272 1375 
Q 3272 1813 3026 2020 
Q 2781 2228 2272 2228 
L 1259 2228 
z
M 1259 4147 
L 1259 2741 
L 2194 2741 
Q 2656 2741 2882 2914 
Q 3109 3088 3109 3444 
Q 3109 3797 2882 3972 
Q 2656 4147 2194 4147 
L 1259 4147 
z
M 628 4666 
L 2241 4666 
Q 2963 4666 3353 4366 
Q 3744 4066 3744 3513 
Q 3744 3084 3544 2831 
Q 3344 2578 2956 2516 
Q 3422 2416 3680 2098 
Q 3938 1781 3938 1306 
Q 3938 681 3513 340 
Q 3088 0 2303 0 
L 628 0 
L 628 4666 
z
" id="DejaVuSans-42" transform="scale(0.015625)"/>
       <path d="M -13 4666 
L 666 4666 
L 1959 2747 
L 3244 4666 
L 3922 4666 
L 2272 2222 
L 2272 0 
L 1638 0 
L 1638 2222 
L -13 4666 
z
" id="DejaVuSans-59" transform="scale(0.015625)"/>
       <path d="M 628 4666 
L 1259 4666 
L 1259 531 
L 3531 531 
L 3531 0 
L 628 0 
L 628 4666 
z
" id="DejaVuSans-4c" transform="scale(0.015625)"/>
       <path d="M 2188 4044 
L 1331 1722 
L 3047 1722 
L 2188 4044 
z
M 1831 4666 
L 2547 4666 
L 4325 0 
L 3669 0 
L 3244 1197 
L 1141 1197 
L 716 0 
L 50 0 
L 1831 4666 
z
" id="DejaVuSans-41" transform="scale(0.015625)"/>
      </defs>
      <use xlink:href="#DejaVuSans-43"/>
      <use x="69.824219" xlink:href="#DejaVuSans-4f"/>
      <use x="148.535156" xlink:href="#DejaVuSans-42"/>
      <use x="211.638672" xlink:href="#DejaVuSans-59"/>
      <use x="272.722656" xlink:href="#DejaVuSans-4c"/>
      <use x="330.685547" xlink:href="#DejaVuSans-41"/>
     </g>
    </g>
    <g id="line2d_23">
     <path d="M 1126.9425 77.46375 
L 1174.9425 77.46375 
" style="fill:none;stroke:#ff7f0e;stroke-linecap:square;stroke-width:3;"/>
    </g>
    <g id="line2d_24"/>
    <g id="text_19">
     <!-- L-BFGS-B -->
     <g transform="translate(1194.1425 85.86375)scale(0.24 -0.24)">
      <defs>
       <path d="M 313 2009 
L 1997 2009 
L 1997 1497 
L 313 1497 
L 313 2009 
z
" id="DejaVuSans-2d" transform="scale(0.015625)"/>
       <path d="M 628 4666 
L 3309 4666 
L 3309 4134 
L 1259 4134 
L 1259 2759 
L 3109 2759 
L 3109 2228 
L 1259 2228 
L 1259 0 
L 628 0 
L 628 4666 
z
" id="DejaVuSans-46" transform="scale(0.015625)"/>
       <path d="M 3809 666 
L 3809 1919 
L 2778 1919 
L 2778 2438 
L 4434 2438 
L 4434 434 
Q 4069 175 3628 42 
Q 3188 -91 2688 -91 
Q 1594 -91 976 548 
Q 359 1188 359 2328 
Q 359 3472 976 4111 
Q 1594 4750 2688 4750 
Q 3144 4750 3555 4637 
Q 3966 4525 4313 4306 
L 4313 3634 
Q 3963 3931 3569 4081 
Q 3175 4231 2741 4231 
Q 1884 4231 1454 3753 
Q 1025 3275 1025 2328 
Q 1025 1384 1454 906 
Q 1884 428 2741 428 
Q 3075 428 3337 486 
Q 3600 544 3809 666 
z
" id="DejaVuSans-47" transform="scale(0.015625)"/>
       <path d="M 3425 4513 
L 3425 3897 
Q 3066 4069 2747 4153 
Q 2428 4238 2131 4238 
Q 1616 4238 1336 4038 
Q 1056 3838 1056 3469 
Q 1056 3159 1242 3001 
Q 1428 2844 1947 2747 
L 2328 2669 
Q 3034 2534 3370 2195 
Q 3706 1856 3706 1288 
Q 3706 609 3251 259 
Q 2797 -91 1919 -91 
Q 1588 -91 1214 -16 
Q 841 59 441 206 
L 441 856 
Q 825 641 1194 531 
Q 1563 422 1919 422 
Q 2459 422 2753 634 
Q 3047 847 3047 1241 
Q 3047 1584 2836 1778 
Q 2625 1972 2144 2069 
L 1759 2144 
Q 1053 2284 737 2584 
Q 422 2884 422 3419 
Q 422 4038 858 4394 
Q 1294 4750 2059 4750 
Q 2388 4750 2728 4690 
Q 3069 4631 3425 4513 
z
" id="DejaVuSans-53" transform="scale(0.015625)"/>
      </defs>
      <use xlink:href="#DejaVuSans-4c"/>
      <use x="53.962891" xlink:href="#DejaVuSans-2d"/>
      <use x="86.421875" xlink:href="#DejaVuSans-42"/>
      <use x="155.025391" xlink:href="#DejaVuSans-46"/>
      <use x="212.544922" xlink:href="#DejaVuSans-47"/>
      <use x="290.035156" xlink:href="#DejaVuSans-53"/>
      <use x="353.511719" xlink:href="#DejaVuSans-2d"/>
      <use x="385.970703" xlink:href="#DejaVuSans-42"/>
     </g>
    </g>
    <g id="line2d_25">
     <path d="M 1126.9425 112.69125 
L 1174.9425 112.69125 
" style="fill:none;stroke:#2ca02c;stroke-linecap:square;stroke-width:3;"/>
    </g>
    <g id="line2d_26"/>
    <g id="text_20">
     <!-- SLSQP -->
     <g transform="translate(1194.1425 121.09125)scale(0.24 -0.24)">
      <defs>
       <path d="M 1259 4147 
L 1259 2394 
L 2053 2394 
Q 2494 2394 2734 2622 
Q 2975 2850 2975 3272 
Q 2975 3691 2734 3919 
Q 2494 4147 2053 4147 
L 1259 4147 
z
M 628 4666 
L 2053 4666 
Q 2838 4666 3239 4311 
Q 3641 3956 3641 3272 
Q 3641 2581 3239 2228 
Q 2838 1875 2053 1875 
L 1259 1875 
L 1259 0 
L 628 0 
L 628 4666 
z
" id="DejaVuSans-50" transform="scale(0.015625)"/>
      </defs>
      <use xlink:href="#DejaVuSans-53"/>
      <use x="63.476562" xlink:href="#DejaVuSans-4c"/>
      <use x="119.189453" xlink:href="#DejaVuSans-53"/>
      <use x="182.666016" xlink:href="#DejaVuSans-51"/>
      <use x="261.376953" xlink:href="#DejaVuSans-50"/>
     </g>
    </g>
    <g id="line2d_27">
     <path d="M 1126.9425 147.91875 
L 1174.9425 147.91875 
" style="fill:none;stroke:#d62728;stroke-linecap:square;stroke-width:3;"/>
    </g>
    <g id="line2d_28"/>
    <g id="text_21">
     <!-- NELDER-MEAD -->
     <g transform="translate(1194.1425 156.31875)scale(0.24 -0.24)">
      <defs>
       <path d="M 628 4666 
L 1478 4666 
L 3547 763 
L 3547 4666 
L 4159 4666 
L 4159 0 
L 3309 0 
L 1241 3903 
L 1241 0 
L 628 0 
L 628 4666 
z
" id="DejaVuSans-4e" transform="scale(0.015625)"/>
       <path d="M 1259 4147 
L 1259 519 
L 2022 519 
Q 2988 519 3436 956 
Q 3884 1394 3884 2338 
Q 3884 3275 3436 3711 
Q 2988 4147 2022 4147 
L 1259 4147 
z
M 628 4666 
L 1925 4666 
Q 3281 4666 3915 4102 
Q 4550 3538 4550 2338 
Q 4550 1131 3912 565 
Q 3275 0 1925 0 
L 628 0 
L 628 4666 
z
" id="DejaVuSans-44" transform="scale(0.015625)"/>
       <path d="M 2841 2188 
Q 3044 2119 3236 1894 
Q 3428 1669 3622 1275 
L 4263 0 
L 3584 0 
L 2988 1197 
Q 2756 1666 2539 1819 
Q 2322 1972 1947 1972 
L 1259 1972 
L 1259 0 
L 628 0 
L 628 4666 
L 2053 4666 
Q 2853 4666 3247 4331 
Q 3641 3997 3641 3322 
Q 3641 2881 3436 2590 
Q 3231 2300 2841 2188 
z
M 1259 4147 
L 1259 2491 
L 2053 2491 
Q 2509 2491 2742 2702 
Q 2975 2913 2975 3322 
Q 2975 3731 2742 3939 
Q 2509 4147 2053 4147 
L 1259 4147 
z
" id="DejaVuSans-52" transform="scale(0.015625)"/>
       <path d="M 628 4666 
L 1569 4666 
L 2759 1491 
L 3956 4666 
L 4897 4666 
L 4897 0 
L 4281 0 
L 4281 4097 
L 3078 897 
L 2444 897 
L 1241 4097 
L 1241 0 
L 628 0 
L 628 4666 
z
" id="DejaVuSans-4d" transform="scale(0.015625)"/>
      </defs>
      <use xlink:href="#DejaVuSans-4e"/>
      <use x="74.804688" xlink:href="#DejaVuSans-45"/>
      <use x="137.988281" xlink:href="#DejaVuSans-4c"/>
      <use x="193.701172" xlink:href="#DejaVuSans-44"/>
      <use x="270.703125" xlink:href="#DejaVuSans-45"/>
      <use x="333.886719" xlink:href="#DejaVuSans-52"/>
      <use x="399.369141" xlink:href="#DejaVuSans-2d"/>
      <use x="435.453125" xlink:href="#DejaVuSans-4d"/>
      <use x="521.732422" xlink:href="#DejaVuSans-45"/>
      <use x="584.916016" xlink:href="#DejaVuSans-41"/>
      <use x="653.324219" xlink:href="#DejaVuSans-44"/>
     </g>
    </g>
    <g id="line2d_29">
     <path d="M 1126.9425 183.14625 
L 1174.9425 183.14625 
" style="fill:none;stroke:#000000;stroke-dasharray:7.4,3.2;stroke-dashoffset:0;stroke-width:2;"/>
    </g>
    <g id="line2d_30"/>
    <g id="text_22">
     <!-- HT -->
     <g transform="translate(1194.1425 191.54625)scale(0.24 -0.24)">
      <defs>
       <path d="M 628 4666 
L 1259 4666 
L 1259 2753 
L 3553 2753 
L 3553 4666 
L 4184 4666 
L 4184 0 
L 3553 0 
L 3553 2222 
L 1259 2222 
L 1259 0 
L 628 0 
L 628 4666 
z
" id="DejaVuSans-48" transform="scale(0.015625)"/>
       <path d="M -19 4666 
L 3928 4666 
L 3928 4134 
L 2272 4134 
L 2272 0 
L 1638 0 
L 1638 4134 
L -19 4134 
L -19 4666 
z
" id="DejaVuSans-54" transform="scale(0.015625)"/>
      </defs>
      <use xlink:href="#DejaVuSans-48"/>
      <use x="75.195312" xlink:href="#DejaVuSans-54"/>
     </g>
    </g>
   </g>
  </g>
 </g>
 <defs>
  <clipPath id="p529d9de176">
   <rect height="496.945" width="1307.83" x="83.195" y="10.8"/>
  </clipPath>
 </defs>
</svg>
