<?xml version="1.0" encoding="utf-8" standalone="no"?>
<!DOCTYPE svg PUBLIC "-//W3C//DTD SVG 1.1//EN"
  "http://www.w3.org/Graphics/SVG/1.1/DTD/svg11.dtd">
<svg height="576pt" version="1.1" viewBox="0 0 720 576" width="720pt" xmlns="http://www.w3.org/2000/svg" xmlns:xlink="http://www.w3.org/1999/xlink">
 <metadata>
  <rdf:RDF xmlns:cc="http://creativecommons.org/ns#" xmlns:dc="http://purl.org/dc/elements/1.1/" xmlns:rdf="http://www.w3.org/1999/02/22-rdf-syntax-ns#">
   <cc:Work>
    <dc:type rdf:resource="http://purl.org/dc/dcmitype/StillImage"/>
    <dc:date>2021-08-02T15:54:32.589030</dc:date>
    <dc:format>image/svg+xml</dc:format>
    <dc:creator>
     <cc:Agent>
      <dc:title>Matplotlib v3.4.2, https://matplotlib.org/</dc:title>
     </cc:Agent>
    </dc:creator>
   </cc:Work>
  </rdf:RDF>
 </metadata>
 <defs>
  <style type="text/css">*{stroke-linecap:butt;stroke-linejoin:round;}</style>
 </defs>
 <g id="figure_1">
  <g id="patch_1">
   <path d="M 0 576 
L 720 576 
L 720 0 
L 0 0 
z
" style="fill:#ffffff;"/>
  </g>
  <g id="axes_1">
   <g id="patch_2">
    <path d="M 83.195 507.745 
L 671.025 507.745 
L 671.025 16.959846 
L 83.195 16.959846 
z
" style="fill:#ffffff;"/>
   </g>
   <g id="matplotlib.axis_1">
    <g id="xtick_1">
     <g id="line2d_1">
      <defs>
       <path d="M 0 0 
L 0 3.5 
" id="ma79cc609a7" style="stroke:#000000;stroke-width:0.8;"/>
      </defs>
      <g>
       <use style="stroke:#000000;stroke-width:0.8;" x="83.195" xlink:href="#ma79cc609a7" y="507.745"/>
      </g>
     </g>
     <g id="text_1">
      <!-- 0 -->
      <g transform="translate(75.56 532.98125)scale(0.24 -0.24)">
       <defs>
        <path d="M 2034 4250 
Q 1547 4250 1301 3770 
Q 1056 3291 1056 2328 
Q 1056 1369 1301 889 
Q 1547 409 2034 409 
Q 2525 409 2770 889 
Q 3016 1369 3016 2328 
Q 3016 3291 2770 3770 
Q 2525 4250 2034 4250 
z
M 2034 4750 
Q 2819 4750 3233 4129 
Q 3647 3509 3647 2328 
Q 3647 1150 3233 529 
Q 2819 -91 2034 -91 
Q 1250 -91 836 529 
Q 422 1150 422 2328 
Q 422 3509 836 4129 
Q 1250 4750 2034 4750 
z
" id="DejaVuSans-30" transform="scale(0.015625)"/>
       </defs>
       <use xlink:href="#DejaVuSans-30"/>
      </g>
     </g>
    </g>
    <g id="xtick_2">
     <g id="line2d_2">
      <g>
       <use style="stroke:#000000;stroke-width:0.8;" x="200.761" xlink:href="#ma79cc609a7" y="507.745"/>
      </g>
     </g>
     <g id="text_2">
      <!-- 2000 -->
      <g transform="translate(170.221 532.98125)scale(0.24 -0.24)">
       <defs>
        <path d="M 1228 531 
L 3431 531 
L 3431 0 
L 469 0 
L 469 531 
Q 828 903 1448 1529 
Q 2069 2156 2228 2338 
Q 2531 2678 2651 2914 
Q 2772 3150 2772 3378 
Q 2772 3750 2511 3984 
Q 2250 4219 1831 4219 
Q 1534 4219 1204 4116 
Q 875 4013 500 3803 
L 500 4441 
Q 881 4594 1212 4672 
Q 1544 4750 1819 4750 
Q 2544 4750 2975 4387 
Q 3406 4025 3406 3419 
Q 3406 3131 3298 2873 
Q 3191 2616 2906 2266 
Q 2828 2175 2409 1742 
Q 1991 1309 1228 531 
z
" id="DejaVuSans-32" transform="scale(0.015625)"/>
       </defs>
       <use xlink:href="#DejaVuSans-32"/>
       <use x="63.623047" xlink:href="#DejaVuSans-30"/>
       <use x="127.246094" xlink:href="#DejaVuSans-30"/>
       <use x="190.869141" xlink:href="#DejaVuSans-30"/>
      </g>
     </g>
    </g>
    <g id="xtick_3">
     <g id="line2d_3">
      <g>
       <use style="stroke:#000000;stroke-width:0.8;" x="318.327" xlink:href="#ma79cc609a7" y="507.745"/>
      </g>
     </g>
     <g id="text_3">
      <!-- 4000 -->
      <g transform="translate(287.787 532.98125)scale(0.24 -0.24)">
       <defs>
        <path d="M 2419 4116 
L 825 1625 
L 2419 1625 
L 2419 4116 
z
M 2253 4666 
L 3047 4666 
L 3047 1625 
L 3713 1625 
L 3713 1100 
L 3047 1100 
L 3047 0 
L 2419 0 
L 2419 1100 
L 313 1100 
L 313 1709 
L 2253 4666 
z
" id="DejaVuSans-34" transform="scale(0.015625)"/>
       </defs>
       <use xlink:href="#DejaVuSans-34"/>
       <use x="63.623047" xlink:href="#DejaVuSans-30"/>
       <use x="127.246094" xlink:href="#DejaVuSans-30"/>
       <use x="190.869141" xlink:href="#DejaVuSans-30"/>
      </g>
     </g>
    </g>
    <g id="xtick_4">
     <g id="line2d_4">
      <g>
       <use style="stroke:#000000;stroke-width:0.8;" x="435.893" xlink:href="#ma79cc609a7" y="507.745"/>
      </g>
     </g>
     <g id="text_4">
      <!-- 6000 -->
      <g transform="translate(405.353 532.98125)scale(0.24 -0.24)">
       <defs>
        <path d="M 2113 2584 
Q 1688 2584 1439 2293 
Q 1191 2003 1191 1497 
Q 1191 994 1439 701 
Q 1688 409 2113 409 
Q 2538 409 2786 701 
Q 3034 994 3034 1497 
Q 3034 2003 2786 2293 
Q 2538 2584 2113 2584 
z
M 3366 4563 
L 3366 3988 
Q 3128 4100 2886 4159 
Q 2644 4219 2406 4219 
Q 1781 4219 1451 3797 
Q 1122 3375 1075 2522 
Q 1259 2794 1537 2939 
Q 1816 3084 2150 3084 
Q 2853 3084 3261 2657 
Q 3669 2231 3669 1497 
Q 3669 778 3244 343 
Q 2819 -91 2113 -91 
Q 1303 -91 875 529 
Q 447 1150 447 2328 
Q 447 3434 972 4092 
Q 1497 4750 2381 4750 
Q 2619 4750 2861 4703 
Q 3103 4656 3366 4563 
z
" id="DejaVuSans-36" transform="scale(0.015625)"/>
       </defs>
       <use xlink:href="#DejaVuSans-36"/>
       <use x="63.623047" xlink:href="#DejaVuSans-30"/>
       <use x="127.246094" xlink:href="#DejaVuSans-30"/>
       <use x="190.869141" xlink:href="#DejaVuSans-30"/>
      </g>
     </g>
    </g>
    <g id="xtick_5">
     <g id="line2d_5">
      <g>
       <use style="stroke:#000000;stroke-width:0.8;" x="553.459" xlink:href="#ma79cc609a7" y="507.745"/>
      </g>
     </g>
     <g id="text_5">
      <!-- 8000 -->
      <g transform="translate(522.919 532.98125)scale(0.24 -0.24)">
       <defs>
        <path d="M 2034 2216 
Q 1584 2216 1326 1975 
Q 1069 1734 1069 1313 
Q 1069 891 1326 650 
Q 1584 409 2034 409 
Q 2484 409 2743 651 
Q 3003 894 3003 1313 
Q 3003 1734 2745 1975 
Q 2488 2216 2034 2216 
z
M 1403 2484 
Q 997 2584 770 2862 
Q 544 3141 544 3541 
Q 544 4100 942 4425 
Q 1341 4750 2034 4750 
Q 2731 4750 3128 4425 
Q 3525 4100 3525 3541 
Q 3525 3141 3298 2862 
Q 3072 2584 2669 2484 
Q 3125 2378 3379 2068 
Q 3634 1759 3634 1313 
Q 3634 634 3220 271 
Q 2806 -91 2034 -91 
Q 1263 -91 848 271 
Q 434 634 434 1313 
Q 434 1759 690 2068 
Q 947 2378 1403 2484 
z
M 1172 3481 
Q 1172 3119 1398 2916 
Q 1625 2713 2034 2713 
Q 2441 2713 2670 2916 
Q 2900 3119 2900 3481 
Q 2900 3844 2670 4047 
Q 2441 4250 2034 4250 
Q 1625 4250 1398 4047 
Q 1172 3844 1172 3481 
z
" id="DejaVuSans-38" transform="scale(0.015625)"/>
       </defs>
       <use xlink:href="#DejaVuSans-38"/>
       <use x="63.623047" xlink:href="#DejaVuSans-30"/>
       <use x="127.246094" xlink:href="#DejaVuSans-30"/>
       <use x="190.869141" xlink:href="#DejaVuSans-30"/>
      </g>
     </g>
    </g>
    <g id="xtick_6">
     <g id="line2d_6">
      <g>
       <use style="stroke:#000000;stroke-width:0.8;" x="671.025" xlink:href="#ma79cc609a7" y="507.745"/>
      </g>
     </g>
     <g id="text_6">
      <!-- 10000 -->
      <g transform="translate(632.85 532.98125)scale(0.24 -0.24)">
       <defs>
        <path d="M 794 531 
L 1825 531 
L 1825 4091 
L 703 3866 
L 703 4441 
L 1819 4666 
L 2450 4666 
L 2450 531 
L 3481 531 
L 3481 0 
L 794 0 
L 794 531 
z
" id="DejaVuSans-31" transform="scale(0.015625)"/>
       </defs>
       <use xlink:href="#DejaVuSans-31"/>
       <use x="63.623047" xlink:href="#DejaVuSans-30"/>
       <use x="127.246094" xlink:href="#DejaVuSans-30"/>
       <use x="190.869141" xlink:href="#DejaVuSans-30"/>
       <use x="254.492188" xlink:href="#DejaVuSans-30"/>
      </g>
     </g>
    </g>
    <g id="text_7">
     <!-- iterations -->
     <g transform="translate(320.164375 560.20875)scale(0.24 -0.24)">
      <defs>
       <path d="M 603 3500 
L 1178 3500 
L 1178 0 
L 603 0 
L 603 3500 
z
M 603 4863 
L 1178 4863 
L 1178 4134 
L 603 4134 
L 603 4863 
z
" id="DejaVuSans-69" transform="scale(0.015625)"/>
       <path d="M 1172 4494 
L 1172 3500 
L 2356 3500 
L 2356 3053 
L 1172 3053 
L 1172 1153 
Q 1172 725 1289 603 
Q 1406 481 1766 481 
L 2356 481 
L 2356 0 
L 1766 0 
Q 1100 0 847 248 
Q 594 497 594 1153 
L 594 3053 
L 172 3053 
L 172 3500 
L 594 3500 
L 594 4494 
L 1172 4494 
z
" id="DejaVuSans-74" transform="scale(0.015625)"/>
       <path d="M 3597 1894 
L 3597 1613 
L 953 1613 
Q 991 1019 1311 708 
Q 1631 397 2203 397 
Q 2534 397 2845 478 
Q 3156 559 3463 722 
L 3463 178 
Q 3153 47 2828 -22 
Q 2503 -91 2169 -91 
Q 1331 -91 842 396 
Q 353 884 353 1716 
Q 353 2575 817 3079 
Q 1281 3584 2069 3584 
Q 2775 3584 3186 3129 
Q 3597 2675 3597 1894 
z
M 3022 2063 
Q 3016 2534 2758 2815 
Q 2500 3097 2075 3097 
Q 1594 3097 1305 2825 
Q 1016 2553 972 2059 
L 3022 2063 
z
" id="DejaVuSans-65" transform="scale(0.015625)"/>
       <path d="M 2631 2963 
Q 2534 3019 2420 3045 
Q 2306 3072 2169 3072 
Q 1681 3072 1420 2755 
Q 1159 2438 1159 1844 
L 1159 0 
L 581 0 
L 581 3500 
L 1159 3500 
L 1159 2956 
Q 1341 3275 1631 3429 
Q 1922 3584 2338 3584 
Q 2397 3584 2469 3576 
Q 2541 3569 2628 3553 
L 2631 2963 
z
" id="DejaVuSans-72" transform="scale(0.015625)"/>
       <path d="M 2194 1759 
Q 1497 1759 1228 1600 
Q 959 1441 959 1056 
Q 959 750 1161 570 
Q 1363 391 1709 391 
Q 2188 391 2477 730 
Q 2766 1069 2766 1631 
L 2766 1759 
L 2194 1759 
z
M 3341 1997 
L 3341 0 
L 2766 0 
L 2766 531 
Q 2569 213 2275 61 
Q 1981 -91 1556 -91 
Q 1019 -91 701 211 
Q 384 513 384 1019 
Q 384 1609 779 1909 
Q 1175 2209 1959 2209 
L 2766 2209 
L 2766 2266 
Q 2766 2663 2505 2880 
Q 2244 3097 1772 3097 
Q 1472 3097 1187 3025 
Q 903 2953 641 2809 
L 641 3341 
Q 956 3463 1253 3523 
Q 1550 3584 1831 3584 
Q 2591 3584 2966 3190 
Q 3341 2797 3341 1997 
z
" id="DejaVuSans-61" transform="scale(0.015625)"/>
       <path d="M 1959 3097 
Q 1497 3097 1228 2736 
Q 959 2375 959 1747 
Q 959 1119 1226 758 
Q 1494 397 1959 397 
Q 2419 397 2687 759 
Q 2956 1122 2956 1747 
Q 2956 2369 2687 2733 
Q 2419 3097 1959 3097 
z
M 1959 3584 
Q 2709 3584 3137 3096 
Q 3566 2609 3566 1747 
Q 3566 888 3137 398 
Q 2709 -91 1959 -91 
Q 1206 -91 779 398 
Q 353 888 353 1747 
Q 353 2609 779 3096 
Q 1206 3584 1959 3584 
z
" id="DejaVuSans-6f" transform="scale(0.015625)"/>
       <path d="M 3513 2113 
L 3513 0 
L 2938 0 
L 2938 2094 
Q 2938 2591 2744 2837 
Q 2550 3084 2163 3084 
Q 1697 3084 1428 2787 
Q 1159 2491 1159 1978 
L 1159 0 
L 581 0 
L 581 3500 
L 1159 3500 
L 1159 2956 
Q 1366 3272 1645 3428 
Q 1925 3584 2291 3584 
Q 2894 3584 3203 3211 
Q 3513 2838 3513 2113 
z
" id="DejaVuSans-6e" transform="scale(0.015625)"/>
       <path d="M 2834 3397 
L 2834 2853 
Q 2591 2978 2328 3040 
Q 2066 3103 1784 3103 
Q 1356 3103 1142 2972 
Q 928 2841 928 2578 
Q 928 2378 1081 2264 
Q 1234 2150 1697 2047 
L 1894 2003 
Q 2506 1872 2764 1633 
Q 3022 1394 3022 966 
Q 3022 478 2636 193 
Q 2250 -91 1575 -91 
Q 1294 -91 989 -36 
Q 684 19 347 128 
L 347 722 
Q 666 556 975 473 
Q 1284 391 1588 391 
Q 1994 391 2212 530 
Q 2431 669 2431 922 
Q 2431 1156 2273 1281 
Q 2116 1406 1581 1522 
L 1381 1569 
Q 847 1681 609 1914 
Q 372 2147 372 2553 
Q 372 3047 722 3315 
Q 1072 3584 1716 3584 
Q 2034 3584 2315 3537 
Q 2597 3491 2834 3397 
z
" id="DejaVuSans-73" transform="scale(0.015625)"/>
      </defs>
      <use xlink:href="#DejaVuSans-69"/>
      <use x="27.783203" xlink:href="#DejaVuSans-74"/>
      <use x="66.992188" xlink:href="#DejaVuSans-65"/>
      <use x="128.515625" xlink:href="#DejaVuSans-72"/>
      <use x="169.628906" xlink:href="#DejaVuSans-61"/>
      <use x="230.908203" xlink:href="#DejaVuSans-74"/>
      <use x="270.117188" xlink:href="#DejaVuSans-69"/>
      <use x="297.900391" xlink:href="#DejaVuSans-6f"/>
      <use x="359.082031" xlink:href="#DejaVuSans-6e"/>
      <use x="422.460938" xlink:href="#DejaVuSans-73"/>
     </g>
    </g>
   </g>
   <g id="matplotlib.axis_2">
    <g id="ytick_1">
     <g id="line2d_7">
      <defs>
       <path d="M 0 0 
L -3.5 0 
" id="m94cb087e39" style="stroke:#000000;stroke-width:0.8;"/>
      </defs>
      <g>
       <use style="stroke:#000000;stroke-width:0.8;" x="83.195" xlink:href="#m94cb087e39" y="470.429028"/>
      </g>
     </g>
     <g id="text_8">
      <!-- 3.5 -->
      <g transform="translate(38.0275 479.547153)scale(0.24 -0.24)">
       <defs>
        <path d="M 2597 2516 
Q 3050 2419 3304 2112 
Q 3559 1806 3559 1356 
Q 3559 666 3084 287 
Q 2609 -91 1734 -91 
Q 1441 -91 1130 -33 
Q 819 25 488 141 
L 488 750 
Q 750 597 1062 519 
Q 1375 441 1716 441 
Q 2309 441 2620 675 
Q 2931 909 2931 1356 
Q 2931 1769 2642 2001 
Q 2353 2234 1838 2234 
L 1294 2234 
L 1294 2753 
L 1863 2753 
Q 2328 2753 2575 2939 
Q 2822 3125 2822 3475 
Q 2822 3834 2567 4026 
Q 2313 4219 1838 4219 
Q 1578 4219 1281 4162 
Q 984 4106 628 3988 
L 628 4550 
Q 988 4650 1302 4700 
Q 1616 4750 1894 4750 
Q 2613 4750 3031 4423 
Q 3450 4097 3450 3541 
Q 3450 3153 3228 2886 
Q 3006 2619 2597 2516 
z
" id="DejaVuSans-33" transform="scale(0.015625)"/>
        <path d="M 684 794 
L 1344 794 
L 1344 0 
L 684 0 
L 684 794 
z
" id="DejaVuSans-2e" transform="scale(0.015625)"/>
        <path d="M 691 4666 
L 3169 4666 
L 3169 4134 
L 1269 4134 
L 1269 2991 
Q 1406 3038 1543 3061 
Q 1681 3084 1819 3084 
Q 2600 3084 3056 2656 
Q 3513 2228 3513 1497 
Q 3513 744 3044 326 
Q 2575 -91 1722 -91 
Q 1428 -91 1123 -41 
Q 819 9 494 109 
L 494 744 
Q 775 591 1075 516 
Q 1375 441 1709 441 
Q 2250 441 2565 725 
Q 2881 1009 2881 1497 
Q 2881 1984 2565 2268 
Q 2250 2553 1709 2553 
Q 1456 2553 1204 2497 
Q 953 2441 691 2322 
L 691 4666 
z
" id="DejaVuSans-35" transform="scale(0.015625)"/>
       </defs>
       <use xlink:href="#DejaVuSans-33"/>
       <use x="63.623047" xlink:href="#DejaVuSans-2e"/>
       <use x="95.410156" xlink:href="#DejaVuSans-35"/>
      </g>
     </g>
    </g>
    <g id="ytick_2">
     <g id="line2d_8">
      <g>
       <use style="stroke:#000000;stroke-width:0.8;" x="83.195" xlink:href="#m94cb087e39" y="414.116152"/>
      </g>
     </g>
     <g id="text_9">
      <!-- 4.0 -->
      <g transform="translate(38.0275 423.234277)scale(0.24 -0.24)">
       <use xlink:href="#DejaVuSans-34"/>
       <use x="63.623047" xlink:href="#DejaVuSans-2e"/>
       <use x="95.410156" xlink:href="#DejaVuSans-30"/>
      </g>
     </g>
    </g>
    <g id="ytick_3">
     <g id="line2d_9">
      <g>
       <use style="stroke:#000000;stroke-width:0.8;" x="83.195" xlink:href="#m94cb087e39" y="357.803277"/>
      </g>
     </g>
     <g id="text_10">
      <!-- 4.5 -->
      <g transform="translate(38.0275 366.921402)scale(0.24 -0.24)">
       <use xlink:href="#DejaVuSans-34"/>
       <use x="63.623047" xlink:href="#DejaVuSans-2e"/>
       <use x="95.410156" xlink:href="#DejaVuSans-35"/>
      </g>
     </g>
    </g>
    <g id="ytick_4">
     <g id="line2d_10">
      <g>
       <use style="stroke:#000000;stroke-width:0.8;" x="83.195" xlink:href="#m94cb087e39" y="301.490401"/>
      </g>
     </g>
     <g id="text_11">
      <!-- 5.0 -->
      <g transform="translate(38.0275 310.608526)scale(0.24 -0.24)">
       <use xlink:href="#DejaVuSans-35"/>
       <use x="63.623047" xlink:href="#DejaVuSans-2e"/>
       <use x="95.410156" xlink:href="#DejaVuSans-30"/>
      </g>
     </g>
    </g>
    <g id="ytick_5">
     <g id="line2d_11">
      <g>
       <use style="stroke:#000000;stroke-width:0.8;" x="83.195" xlink:href="#m94cb087e39" y="245.177526"/>
      </g>
     </g>
     <g id="text_12">
      <!-- 5.5 -->
      <g transform="translate(38.0275 254.295651)scale(0.24 -0.24)">
       <use xlink:href="#DejaVuSans-35"/>
       <use x="63.623047" xlink:href="#DejaVuSans-2e"/>
       <use x="95.410156" xlink:href="#DejaVuSans-35"/>
      </g>
     </g>
    </g>
    <g id="ytick_6">
     <g id="line2d_12">
      <g>
       <use style="stroke:#000000;stroke-width:0.8;" x="83.195" xlink:href="#m94cb087e39" y="188.86465"/>
      </g>
     </g>
     <g id="text_13">
      <!-- 6.0 -->
      <g transform="translate(38.0275 197.982775)scale(0.24 -0.24)">
       <use xlink:href="#DejaVuSans-36"/>
       <use x="63.623047" xlink:href="#DejaVuSans-2e"/>
       <use x="95.410156" xlink:href="#DejaVuSans-30"/>
      </g>
     </g>
    </g>
    <g id="ytick_7">
     <g id="line2d_13">
      <g>
       <use style="stroke:#000000;stroke-width:0.8;" x="83.195" xlink:href="#m94cb087e39" y="132.551775"/>
      </g>
     </g>
     <g id="text_14">
      <!-- 6.5 -->
      <g transform="translate(38.0275 141.6699)scale(0.24 -0.24)">
       <use xlink:href="#DejaVuSans-36"/>
       <use x="63.623047" xlink:href="#DejaVuSans-2e"/>
       <use x="95.410156" xlink:href="#DejaVuSans-35"/>
      </g>
     </g>
    </g>
    <g id="ytick_8">
     <g id="line2d_14">
      <g>
       <use style="stroke:#000000;stroke-width:0.8;" x="83.195" xlink:href="#m94cb087e39" y="76.238899"/>
      </g>
     </g>
     <g id="text_15">
      <!-- 7.0 -->
      <g transform="translate(38.0275 85.357024)scale(0.24 -0.24)">
       <defs>
        <path d="M 525 4666 
L 3525 4666 
L 3525 4397 
L 1831 0 
L 1172 0 
L 2766 4134 
L 525 4134 
L 525 4666 
z
" id="DejaVuSans-37" transform="scale(0.015625)"/>
       </defs>
       <use xlink:href="#DejaVuSans-37"/>
       <use x="63.623047" xlink:href="#DejaVuSans-2e"/>
       <use x="95.410156" xlink:href="#DejaVuSans-30"/>
      </g>
     </g>
    </g>
    <g id="ytick_9">
     <g id="line2d_15">
      <g>
       <use style="stroke:#000000;stroke-width:0.8;" x="83.195" xlink:href="#m94cb087e39" y="19.926023"/>
      </g>
     </g>
     <g id="text_16">
      <!-- 7.5 -->
      <g transform="translate(38.0275 29.044148)scale(0.24 -0.24)">
       <use xlink:href="#DejaVuSans-37"/>
       <use x="63.623047" xlink:href="#DejaVuSans-2e"/>
       <use x="95.410156" xlink:href="#DejaVuSans-35"/>
      </g>
     </g>
    </g>
    <g id="text_17">
     <!-- VQE energy -->
     <g transform="translate(29.03625 333.219923)rotate(-90)scale(0.24 -0.24)">
      <defs>
       <path d="M 1831 0 
L 50 4666 
L 709 4666 
L 2188 738 
L 3669 4666 
L 4325 4666 
L 2547 0 
L 1831 0 
z
" id="DejaVuSans-56" transform="scale(0.015625)"/>
       <path d="M 2522 4238 
Q 1834 4238 1429 3725 
Q 1025 3213 1025 2328 
Q 1025 1447 1429 934 
Q 1834 422 2522 422 
Q 3209 422 3611 934 
Q 4013 1447 4013 2328 
Q 4013 3213 3611 3725 
Q 3209 4238 2522 4238 
z
M 3406 84 
L 4238 -825 
L 3475 -825 
L 2784 -78 
Q 2681 -84 2626 -87 
Q 2572 -91 2522 -91 
Q 1538 -91 948 567 
Q 359 1225 359 2328 
Q 359 3434 948 4092 
Q 1538 4750 2522 4750 
Q 3503 4750 4090 4092 
Q 4678 3434 4678 2328 
Q 4678 1516 4351 937 
Q 4025 359 3406 84 
z
" id="DejaVuSans-51" transform="scale(0.015625)"/>
       <path d="M 628 4666 
L 3578 4666 
L 3578 4134 
L 1259 4134 
L 1259 2753 
L 3481 2753 
L 3481 2222 
L 1259 2222 
L 1259 531 
L 3634 531 
L 3634 0 
L 628 0 
L 628 4666 
z
" id="DejaVuSans-45" transform="scale(0.015625)"/>
       <path id="DejaVuSans-20" transform="scale(0.015625)"/>
       <path d="M 2906 1791 
Q 2906 2416 2648 2759 
Q 2391 3103 1925 3103 
Q 1463 3103 1205 2759 
Q 947 2416 947 1791 
Q 947 1169 1205 825 
Q 1463 481 1925 481 
Q 2391 481 2648 825 
Q 2906 1169 2906 1791 
z
M 3481 434 
Q 3481 -459 3084 -895 
Q 2688 -1331 1869 -1331 
Q 1566 -1331 1297 -1286 
Q 1028 -1241 775 -1147 
L 775 -588 
Q 1028 -725 1275 -790 
Q 1522 -856 1778 -856 
Q 2344 -856 2625 -561 
Q 2906 -266 2906 331 
L 2906 616 
Q 2728 306 2450 153 
Q 2172 0 1784 0 
Q 1141 0 747 490 
Q 353 981 353 1791 
Q 353 2603 747 3093 
Q 1141 3584 1784 3584 
Q 2172 3584 2450 3431 
Q 2728 3278 2906 2969 
L 2906 3500 
L 3481 3500 
L 3481 434 
z
" id="DejaVuSans-67" transform="scale(0.015625)"/>
       <path d="M 2059 -325 
Q 1816 -950 1584 -1140 
Q 1353 -1331 966 -1331 
L 506 -1331 
L 506 -850 
L 844 -850 
Q 1081 -850 1212 -737 
Q 1344 -625 1503 -206 
L 1606 56 
L 191 3500 
L 800 3500 
L 1894 763 
L 2988 3500 
L 3597 3500 
L 2059 -325 
z
" id="DejaVuSans-79" transform="scale(0.015625)"/>
      </defs>
      <use xlink:href="#DejaVuSans-56"/>
      <use x="68.408203" xlink:href="#DejaVuSans-51"/>
      <use x="147.119141" xlink:href="#DejaVuSans-45"/>
      <use x="210.302734" xlink:href="#DejaVuSans-20"/>
      <use x="242.089844" xlink:href="#DejaVuSans-65"/>
      <use x="303.613281" xlink:href="#DejaVuSans-6e"/>
      <use x="366.992188" xlink:href="#DejaVuSans-65"/>
      <use x="428.515625" xlink:href="#DejaVuSans-72"/>
      <use x="467.878906" xlink:href="#DejaVuSans-67"/>
      <use x="531.355469" xlink:href="#DejaVuSans-79"/>
     </g>
    </g>
   </g>
   <g id="line2d_16">
    <path clip-path="url(#pa3b5f89f6d)" d="M 83.253783 103.06616 
L 83.371349 132.496649 
L 83.488915 103.309495 
L 83.665264 177.10588 
L 83.900396 195.825733 
L 83.959179 150.3679 
L 84.017962 190.051969 
L 84.076745 188.965759 
L 84.135528 210.269698 
L 84.194311 196.482011 
L 84.253094 160.477799 
L 84.311877 168.561636 
L 84.488226 220.803066 
L 84.547009 183.808348 
L 84.605792 212.23903 
L 84.664575 231.03 
L 84.782141 302.157901 
L 84.899707 280.333692 
L 85.076056 313.608602 
L 85.134839 272.15836 
L 85.252405 316.401028 
L 85.369971 280.257004 
L 85.54632 313.124751 
L 85.605103 281.19532 
L 85.663886 307.380426 
L 85.722669 287.226305 
L 85.781452 302.486008 
L 85.840235 292.350716 
L 85.899018 309.432491 
L 85.957801 255.099446 
L 86.13415 314.432323 
L 86.192933 322.827152 
L 86.251716 315.627128 
L 86.310499 297.032441 
L 86.369282 309.875942 
L 86.428065 301.436662 
L 86.486848 319.839735 
L 86.545631 296.173269 
L 86.604414 312.904301 
L 86.780763 329.55529 
L 86.839546 302.898602 
L 86.898329 323.248096 
L 87.074678 338.512721 
L 87.133461 339.330295 
L 87.251027 331.784628 
L 87.30981 335.709975 
L 87.368593 333.794413 
L 87.427376 330.951026 
L 87.603725 344.358174 
L 87.838857 359.130889 
L 87.89764 347.591205 
L 88.015206 369.345825 
L 88.073989 360.900755 
L 88.132772 367.647823 
L 88.191555 361.786781 
L 88.367904 378.097743 
L 88.426687 365.984642 
L 88.48547 369.469048 
L 88.544253 370.966901 
L 88.720602 387.30629 
L 88.779385 390.189392 
L 88.838168 379.180396 
L 88.896951 386.164675 
L 88.955734 383.579964 
L 89.014517 391.640687 
L 89.0733 366.984008 
L 89.132083 387.118936 
L 89.249649 411.628313 
L 89.308432 400.274248 
L 89.367215 401.141736 
L 89.425998 408.616889 
L 89.484781 402.256218 
L 89.543564 398.572191 
L 89.602347 411.740187 
L 89.66113 405.80556 
L 89.719913 406.050897 
L 89.778696 392.150008 
L 89.896262 421.122605 
L 89.955045 416.239185 
L 90.013828 422.958313 
L 90.072611 421.599195 
L 90.190177 410.978012 
L 90.307743 440.553323 
L 90.366526 436.203045 
L 90.425309 439.151149 
L 90.484092 410.210602 
L 90.542875 439.198956 
L 90.601658 429.90997 
L 90.660441 435.789281 
L 90.719224 409.167445 
L 90.83679 443.910258 
L 90.895573 433.582841 
L 90.954356 460.765914 
L 91.013139 454.269665 
L 91.071922 434.244175 
L 91.130705 456.816841 
L 91.189488 448.466363 
L 91.248271 453.503195 
L 91.307054 440.093223 
L 91.483403 462.578392 
L 91.542186 439.92744 
L 91.600969 457.757652 
L 91.659752 450.077974 
L 91.836101 464.683188 
L 91.894884 460.687039 
L 91.953667 463.149372 
L 92.071233 459.782317 
L 92.130016 461.365946 
L 92.188799 455.126693 
L 92.247582 462.999735 
L 92.306365 459.265591 
L 92.482714 465.289606 
L 92.541497 460.136583 
L 92.60028 461.05908 
L 92.776629 466.948894 
L 92.835412 463.268493 
L 92.894195 473.950994 
L 92.952978 472.263368 
L 93.011761 470.217115 
L 93.070544 474.708289 
L 93.129327 472.843156 
L 93.18811 473.794591 
L 93.246893 476.655502 
L 93.305676 473.282527 
L 93.364459 475.994589 
L 93.423242 476.45649 
L 93.482025 477.896747 
L 93.540808 475.155214 
L 93.599591 477.76954 
L 93.658374 475.280206 
L 93.717157 478.407128 
L 93.77594 477.429239 
L 93.834723 478.073132 
L 93.893506 474.067944 
L 93.952289 477.404969 
L 94.011072 475.237815 
L 94.069855 477.84446 
L 94.128638 473.288431 
L 94.187421 476.936106 
L 94.246204 474.607187 
L 94.304987 478.756149 
L 94.36377 470.822459 
L 94.422553 478.705275 
L 94.481336 476.910423 
L 94.540119 477.30359 
L 94.598902 474.239448 
L 94.775251 480.440101 
L 94.834034 481.129676 
L 94.892817 480.660968 
L 95.010383 481.331077 
L 95.127949 480.340627 
L 95.186732 481.034402 
L 95.245515 480.631466 
L 95.421864 480.464925 
L 95.480647 480.12895 
L 95.598213 481.322961 
L 95.656996 480.438702 
L 95.833345 481.788685 
L 95.892128 481.035658 
L 95.950911 481.320325 
L 96.12726 482.018709 
L 96.303609 480.331706 
L 96.479958 482.031669 
L 96.538741 481.702412 
L 96.597524 481.964047 
L 96.656307 481.784235 
L 96.71509 482.175709 
L 96.773873 481.83729 
L 96.832656 482.106437 
L 96.891439 480.920882 
L 96.950222 481.550903 
L 97.009005 481.363564 
L 97.067788 482.516919 
L 97.126571 482.165209 
L 97.185354 482.294731 
L 97.244137 482.021679 
L 97.30292 482.397835 
L 97.361703 481.352345 
L 97.420486 481.759984 
L 97.655618 482.570724 
L 97.773184 482.231667 
L 97.831967 482.534153 
L 97.89075 482.385305 
L 97.949533 482.352006 
L 98.008316 482.689355 
L 98.067099 482.513488 
L 98.184665 482.407134 
L 98.243448 482.891101 
L 98.302231 482.804567 
L 98.361014 482.671616 
L 98.419797 482.782458 
L 98.537363 482.890848 
L 98.713712 482.476644 
L 98.890061 483.04109 
L 99.125193 483.021569 
L 99.183976 483.244477 
L 99.242759 483.21714 
L 99.360325 483.001064 
L 99.477891 483.328307 
L 99.595457 483.227666 
L 99.771806 482.981572 
L 99.948155 483.221245 
L 100.006938 483.32771 
L 100.124504 483.138105 
L 100.300853 483.172186 
L 100.418419 482.980511 
L 100.594768 483.396244 
L 100.653551 483.296185 
L 101.065032 483.524333 
L 101.241381 483.744536 
L 101.358947 483.709257 
L 101.41773 483.879228 
L 101.476513 483.842255 
L 101.594079 483.795352 
L 101.829211 483.959699 
L 102.064343 484.02799 
L 102.652173 484.034228 
L 102.828522 483.96586 
L 102.946088 484.127422 
L 103.004871 484.079092 
L 103.18122 484.026686 
L 103.240003 484.123757 
L 103.298786 484.072306 
L 103.651484 484.117123 
L 105.003493 484.20873 
L 105.414974 484.197137 
L 106.473068 484.236347 
L 107.942643 484.294085 
L 111.234491 484.360576 
L 112.292585 484.379233 
L 112.704066 484.377005 
L 113.938509 484.392758 
L 134.218644 484.542409 
L 135.747002 484.549729 
L 143.388792 484.577896 
L 171.310717 484.637732 
L 198.350897 484.677735 
L 206.05147 484.687289 
L 671.025 485.228991 
L 671.025 485.228991 
" style="fill:none;stroke:#1f77b4;stroke-linecap:square;stroke-width:3;"/>
   </g>
   <g id="line2d_17">
    <path clip-path="url(#pa3b5f89f6d)" d="M 83.253783 128.436863 
L 84.664575 128.436863 
L 84.782141 172.037401 
L 86.13415 172.037401 
L 86.251716 118.894754 
L 87.603725 118.894755 
L 87.721291 170.897699 
L 89.0733 170.897699 
L 89.190866 229.724395 
L 90.542875 229.724395 
L 90.660441 272.664924 
L 92.01245 272.664924 
L 92.130016 242.864499 
L 93.482025 242.864499 
L 93.599591 312.706528 
L 94.9516 312.706529 
L 95.069166 395.407417 
L 96.421175 395.407417 
L 96.538741 396.643488 
L 97.89075 396.643488 
L 98.008316 429.952602 
L 99.360325 429.952602 
L 99.477891 435.045717 
L 100.8299 435.045717 
L 100.947466 452.554192 
L 102.299475 452.554192 
L 102.417041 473.045234 
L 103.76905 473.045234 
L 103.886616 483.660489 
L 105.238625 483.660489 
L 105.356191 484.39156 
L 106.7082 484.39156 
L 106.825766 484.587333 
L 111.116925 484.671822 
L 111.352057 484.717029 
L 127.28225 484.827209 
L 127.928863 484.83785 
L 150.79545 484.947534 
L 154.675128 484.950464 
L 315.38785 485.022017 
L 315.38785 485.022017 
" style="fill:none;stroke:#ff7f0e;stroke-linecap:square;stroke-width:3;"/>
   </g>
   <g id="line2d_18">
    <path clip-path="url(#pa3b5f89f6d)" d="M 83.253783 81.906399 
L 84.664575 81.906399 
L 84.782141 151.557593 
L 86.13415 151.557593 
L 86.192933 169.019574 
L 86.310499 256.782454 
L 87.662508 256.782454 
L 87.780074 329.39162 
L 89.132083 329.391619 
L 89.249649 351.652089 
L 90.601658 351.652089 
L 90.719224 369.190601 
L 92.071233 369.190601 
L 92.188799 375.184506 
L 93.540808 375.184506 
L 93.658374 382.224932 
L 95.010383 382.224932 
L 95.127949 395.038727 
L 96.479958 395.038728 
L 96.597524 405.768079 
L 97.949533 405.76808 
L 98.067099 430.176925 
L 99.419108 430.176926 
L 99.536674 442.546481 
L 100.888683 442.546481 
L 101.006249 474.381726 
L 102.358258 474.381725 
L 102.417041 464.353912 
L 102.534607 478.481178 
L 103.886616 478.481178 
L 103.945399 476.651308 
L 104.062965 481.772769 
L 105.414974 481.772769 
L 105.53254 483.898756 
L 106.884549 483.898756 
L 107.002115 484.162271 
L 108.354124 484.162271 
L 108.47169 484.472619 
L 124.519449 484.563673 
L 124.872147 484.586442 
L 128.928174 484.670991 
L 129.104523 484.790443 
L 139.215199 484.898738 
L 139.979378 484.907715 
L 165.667549 485.018394 
L 166.196596 485.031751 
L 175.954574 485.122055 
L 176.248489 485.153271 
L 180.363299 485.2461 
L 180.598431 485.286603 
L 187.711174 485.377812 
L 187.769957 485.171831 
L 187.887523 485.385277 
L 218.866164 485.436584 
L 218.866164 485.436584 
" style="fill:none;stroke:#2ca02c;stroke-linecap:square;stroke-width:3;"/>
   </g>
   <g id="line2d_19">
    <path clip-path="url(#pa3b5f89f6d)" d="M 83.253783 49.597436 
L 83.312566 51.370434 
L 83.371349 39.268262 
L 83.430132 53.100775 
L 83.488915 47.209999 
L 83.606481 62.291477 
L 83.724047 50.277637 
L 83.78283 50.318815 
L 83.900396 49.589004 
L 83.959179 39.524054 
L 84.076745 56.821063 
L 84.135528 50.882583 
L 84.194311 57.571761 
L 84.253094 50.131386 
L 84.311877 58.473514 
L 84.429443 47.785113 
L 84.547009 50.605266 
L 84.605792 48.67478 
L 84.664575 49.492967 
L 84.782141 74.410006 
L 84.840924 66.95686 
L 84.95849 59.168006 
L 85.017273 59.130084 
L 85.076056 61.592908 
L 85.134839 60.504003 
L 85.252405 61.908765 
L 85.722669 70.978544 
L 85.899018 75.98702 
L 85.957801 88.451234 
L 86.016584 78.298322 
L 86.13415 76.794693 
L 86.310499 80.058504 
L 86.72198 89.184121 
L 86.780763 102.489883 
L 86.839546 90.963085 
L 86.898329 91.297025 
L 87.251027 100.325732 
L 87.30981 100.032551 
L 87.368593 100.320527 
L 87.427376 104.9654 
L 87.486159 121.943247 
L 87.544942 103.687039 
L 87.603725 104.762246 
L 87.721291 108.566425 
L 87.780074 114.22498 
L 87.838857 112.144862 
L 88.132772 118.839278 
L 88.191555 123.066821 
L 88.250338 142.827913 
L 88.309121 123.215445 
L 88.367904 124.307991 
L 88.661819 133.503041 
L 89.014517 143.051324 
L 89.0733 158.439098 
L 89.132083 149.757991 
L 89.484781 158.823806 
L 89.543564 179.219321 
L 89.602347 163.722167 
L 89.719913 169.602755 
L 89.778696 160.211838 
L 89.955045 176.336426 
L 90.131394 179.42466 
L 90.190177 198.028497 
L 90.24896 183.697213 
L 90.366526 190.0973 
L 90.542875 197.680832 
L 90.601658 194.298591 
L 90.660441 197.091241 
L 90.719224 197.705585 
L 90.778007 201.110559 
L 90.83679 217.908462 
L 90.895573 204.251564 
L 91.071922 218.44323 
L 91.130705 245.062358 
L 91.189488 212.601633 
L 91.248271 218.051787 
L 91.483403 227.132995 
L 91.542186 223.151205 
L 91.777318 236.059984 
L 91.836101 238.283406 
L 91.894884 236.820537 
L 91.953667 236.588776 
L 92.01245 244.304812 
L 92.071233 241.314511 
L 92.306365 253.154904 
L 92.365148 248.138032 
L 92.482714 269.263157 
L 92.659063 245.351907 
L 92.835412 265.945147 
L 92.894195 262.725387 
L 92.952978 264.378209 
L 93.070544 283.0322 
L 93.129327 264.622995 
L 93.18811 273.941568 
L 93.246893 270.59874 
L 93.423242 280.407525 
L 93.540808 277.522069 
L 93.717157 291.042506 
L 93.834723 266.019845 
L 93.893506 220.729398 
L 94.069855 285.701822 
L 94.187421 302.571268 
L 94.36377 271.973812 
L 94.422553 290.980372 
L 94.481336 278.935771 
L 94.598902 294.945682 
L 94.657685 276.152103 
L 94.716468 296.663973 
L 94.775251 289.512581 
L 94.834034 292.071493 
L 94.892817 301.324078 
L 94.9516 253.030931 
L 95.010383 288.234308 
L 95.069166 302.062882 
L 95.127949 298.506669 
L 95.245515 285.988868 
L 95.363081 318.28915 
L 95.421864 301.216222 
L 95.480647 304.123046 
L 95.53943 311.048376 
L 95.598213 303.90421 
L 95.656996 314.664586 
L 95.715779 313.648427 
L 95.774562 313.270021 
L 95.892128 343.084614 
L 96.009694 289.458789 
L 96.068477 297.219162 
L 96.186043 288.132547 
L 96.421175 327.521926 
L 96.479958 329.435563 
L 96.538741 297.858472 
L 96.597524 333.27774 
L 96.656307 326.089112 
L 96.71509 332.1288 
L 96.891439 298.133276 
L 97.126571 336.280503 
L 97.185354 335.820574 
L 97.244137 336.698979 
L 97.30292 333.134318 
L 97.361703 338.081462 
L 97.479269 318.105483 
L 97.596835 350.210557 
L 97.655618 345.044499 
L 97.714401 348.602044 
L 97.773184 348.497092 
L 97.831967 339.624438 
L 97.949533 355.368973 
L 98.067099 322.207039 
L 98.243448 365.057029 
L 98.302231 329.611682 
L 98.361014 355.296376 
L 98.47858 335.621142 
L 98.654929 368.25038 
L 98.713712 378.33272 
L 98.831278 343.458956 
L 98.890061 352.583981 
L 98.948844 372.607249 
L 99.007627 372.53632 
L 99.06641 367.398282 
L 99.125193 336.754504 
L 99.242759 375.373869 
L 99.360325 348.94449 
L 99.419108 371.315225 
L 99.477891 361.543579 
L 99.536674 367.255171 
L 99.65424 342.757616 
L 99.830589 381.721794 
L 99.889372 379.951992 
L 100.006938 348.908952 
L 100.065721 366.097183 
L 100.183287 397.786441 
L 100.24207 351.984135 
L 100.300853 368.833702 
L 100.359636 382.525358 
L 100.418419 377.523985 
L 100.477202 370.165207 
L 100.653551 388.83314 
L 100.771117 359.181052 
L 100.947466 395.363859 
L 101.123815 359.804518 
L 101.241381 396.547042 
L 101.300164 389.395794 
L 101.41773 398.730684 
L 101.535296 371.182343 
L 101.594079 396.385668 
L 101.652862 368.989952 
L 101.711645 385.886419 
L 101.770428 396.400485 
L 101.829211 384.658269 
L 102.00556 401.212281 
L 102.181909 389.722661 
L 102.417041 403.156044 
L 102.475824 392.716228 
L 102.59339 415.716109 
L 102.652173 391.779183 
L 102.710956 399.435129 
L 102.769739 392.03936 
L 102.828522 411.52133 
L 102.887305 411.411534 
L 102.946088 394.18361 
L 103.004871 408.580005 
L 103.240003 389.285857 
L 103.298786 403.755002 
L 103.357569 390.308876 
L 103.416352 403.64992 
L 103.475135 400.010149 
L 103.533918 389.856259 
L 103.651484 411.15802 
L 103.710267 406.943959 
L 103.76905 400.028087 
L 103.827833 410.978151 
L 103.886616 393.243466 
L 103.945399 406.843531 
L 104.004182 405.973151 
L 104.062965 400.177494 
L 104.180531 414.387636 
L 104.35688 405.964527 
L 104.415663 417.82952 
L 104.474446 413.838056 
L 104.533229 398.799797 
L 104.592012 410.031532 
L 104.709578 407.17778 
L 104.885927 428.63108 
L 105.062276 411.685417 
L 105.121059 423.876502 
L 105.179842 404.088678 
L 105.238625 414.682673 
L 105.356191 401.404994 
L 105.473757 417.469196 
L 105.53254 416.092053 
L 105.591323 407.369195 
L 105.708889 419.441422 
L 105.767672 418.917646 
L 105.826455 410.262 
L 105.885238 417.4598 
L 105.944021 416.062069 
L 106.002804 408.373393 
L 106.12037 420.746948 
L 106.179153 409.081753 
L 106.237936 418.33336 
L 106.414285 427.377649 
L 106.531851 409.445471 
L 106.649417 421.665476 
L 106.7082 411.441649 
L 106.884549 427.342541 
L 106.943332 421.98825 
L 107.002115 423.884673 
L 107.178464 435.515689 
L 107.29603 425.10907 
L 107.354813 431.986001 
L 107.413596 424.933663 
L 107.472379 432.960311 
L 107.531162 429.356129 
L 107.648728 433.941248 
L 107.707511 432.672248 
L 107.766294 424.042107 
L 107.942643 436.516033 
L 108.060209 433.092943 
L 108.118992 433.801602 
L 108.177775 433.732923 
L 108.236558 430.117536 
L 108.295341 437.076686 
L 108.354124 431.742871 
L 108.412907 436.862643 
L 108.47169 429.58704 
L 108.530473 434.401961 
L 108.648039 437.703464 
L 108.706822 429.809588 
L 108.883171 443.090341 
L 108.941954 444.66504 
L 109.000737 436.766548 
L 109.05952 443.349938 
L 109.118303 442.998376 
L 109.177086 444.756946 
L 109.235869 443.936608 
L 109.294652 436.558587 
L 109.353435 436.972398 
L 109.471001 443.022911 
L 109.529784 436.097869 
L 109.706133 446.063735 
L 109.823699 440.847733 
L 110.000048 446.148442 
L 110.058831 437.937266 
L 110.117614 447.018814 
L 110.176397 440.336667 
L 110.23518 445.390754 
L 110.293963 442.612424 
L 110.352746 440.116238 
L 110.411529 450.3942 
L 110.470312 448.066962 
L 110.529095 443.543973 
L 110.646661 449.806586 
L 110.705444 441.173624 
L 110.764227 448.140448 
L 110.881793 446.521914 
L 110.940576 454.668014 
L 110.999359 454.538522 
L 111.058142 441.31351 
L 111.116925 443.630023 
L 111.175708 443.070804 
L 111.234491 438.816547 
L 111.352057 450.452373 
L 111.41084 446.356513 
L 111.469623 447.561092 
L 111.528406 453.030182 
L 111.587189 445.841412 
L 111.645972 454.790262 
L 111.704755 452.613074 
L 111.822321 443.579705 
L 111.939887 451.438801 
L 111.99867 446.934829 
L 112.057453 452.878536 
L 112.116236 451.563342 
L 112.233802 452.702613 
L 112.292585 451.065916 
L 112.351368 457.341721 
L 112.410151 455.749545 
L 112.468934 455.349582 
L 112.645283 446.45311 
L 112.704066 453.043627 
L 112.762849 451.766429 
L 112.821632 446.22922 
L 112.880415 453.317352 
L 112.939198 451.874064 
L 113.115547 457.836616 
L 113.291896 448.618972 
L 113.409462 455.646216 
L 113.468245 450.386953 
L 113.527028 456.934932 
L 113.585811 449.436146 
L 113.644594 455.348195 
L 113.703377 459.346789 
L 113.76216 457.262528 
L 113.879726 452.068825 
L 113.938509 452.604425 
L 113.997292 457.675753 
L 114.056075 453.104795 
L 114.114858 456.077546 
L 114.173641 455.301483 
L 114.232424 451.786302 
L 114.291207 456.74362 
L 114.34999 451.603078 
L 114.408773 456.692745 
L 114.467556 451.147578 
L 114.643905 457.864569 
L 114.702688 454.811341 
L 114.761471 459.979159 
L 114.820254 457.187693 
L 114.879037 452.74663 
L 115.114169 463.35109 
L 115.172952 453.920133 
L 115.231735 458.075754 
L 115.349301 456.570339 
L 115.466867 463.265045 
L 115.52565 456.497697 
L 115.584433 457.765713 
L 115.643216 457.770163 
L 115.701999 462.244533 
L 115.878348 457.044727 
L 116.11348 462.624412 
L 116.172263 461.951622 
L 116.231046 461.104687 
L 116.289829 463.121803 
L 116.348612 458.188316 
L 116.407395 459.366097 
L 116.466178 461.655245 
L 116.524961 459.278817 
L 116.583744 462.321964 
L 116.642527 459.949622 
L 116.760093 459.583925 
L 116.818876 464.482449 
L 116.877659 462.199109 
L 116.936442 460.93522 
L 116.995225 464.641728 
L 117.054008 461.60629 
L 117.112791 462.440082 
L 117.171574 457.825431 
L 117.230357 462.403392 
L 117.28914 457.687124 
L 117.406706 464.123465 
L 117.465489 460.25031 
L 117.524272 465.718225 
L 117.583055 464.221754 
L 117.641838 463.17525 
L 117.700621 465.748751 
L 117.935753 459.76308 
L 118.053319 466.261693 
L 118.288451 460.854448 
L 118.347234 464.207938 
L 118.406017 462.746262 
L 118.4648 461.833068 
L 118.523583 459.088145 
L 118.641149 465.771914 
L 118.699932 461.816811 
L 118.758715 464.605541 
L 118.817498 464.750258 
L 118.876281 465.977679 
L 118.935064 461.407771 
L 118.993847 464.9538 
L 119.05263 465.187899 
L 119.170196 468.334815 
L 119.228979 467.256594 
L 119.287762 463.781062 
L 119.346545 466.197914 
L 119.464111 463.285463 
L 119.522894 466.534809 
L 119.581677 464.329669 
L 119.64046 465.598023 
L 119.699243 463.804487 
L 119.758026 467.777398 
L 119.816809 467.503176 
L 119.934375 464.586992 
L 120.110724 469.91341 
L 120.169507 464.426859 
L 120.22829 466.999286 
L 120.287073 468.40274 
L 120.345856 463.648951 
L 120.404639 467.273449 
L 120.522205 468.806807 
L 120.580988 467.852675 
L 120.639771 469.958158 
L 120.698554 468.956276 
L 120.757337 467.720276 
L 120.81612 469.783462 
L 120.874903 468.07617 
L 120.933686 468.846792 
L 120.992469 467.721908 
L 121.110035 470.001257 
L 121.168818 467.23835 
L 121.286384 470.54761 
L 121.345167 467.894289 
L 121.40395 470.233397 
L 121.462733 471.088549 
L 121.521516 468.547898 
L 121.580299 470.304896 
L 121.697865 472.465355 
L 121.756648 471.858792 
L 121.815431 471.778651 
L 121.874214 471.976585 
L 121.932997 471.599712 
L 122.050563 470.189494 
L 122.109346 471.916276 
L 122.168129 471.050223 
L 122.226912 471.430821 
L 122.285695 469.285764 
L 122.403261 473.616303 
L 122.638393 469.150791 
L 122.814742 473.876439 
L 122.991091 472.226839 
L 123.049874 474.247852 
L 123.108657 472.929019 
L 123.16744 473.728191 
L 123.285006 471.581345 
L 123.461355 474.194108 
L 123.520138 470.704965 
L 123.578921 473.138444 
L 123.637704 472.31292 
L 123.696487 472.551736 
L 123.75527 474.219425 
L 123.872836 471.484011 
L 123.931619 473.571959 
L 123.990402 472.968806 
L 124.049185 473.265327 
L 124.107968 474.293187 
L 124.166751 471.56988 
L 124.225534 474.519351 
L 124.284317 472.06387 
L 124.3431 474.752304 
L 124.401883 472.422621 
L 124.460666 473.310625 
L 124.519449 471.112999 
L 124.637015 474.370645 
L 124.695798 473.298392 
L 124.754581 474.694072 
L 124.813364 472.623356 
L 124.872147 473.380938 
L 124.93093 474.821869 
L 124.989713 471.59384 
L 125.048496 473.808755 
L 125.107279 474.292633 
L 125.166062 472.196889 
L 125.224845 474.601404 
L 125.283628 473.733045 
L 125.342411 474.861906 
L 125.401194 471.792624 
L 125.459977 474.262488 
L 125.51876 475.953082 
L 125.577543 474.709085 
L 125.753892 473.471963 
L 125.812675 473.144988 
L 125.871458 475.039927 
L 125.930241 473.339793 
L 126.047807 476.155056 
L 126.10659 475.263023 
L 126.165373 475.991359 
L 126.282939 472.425679 
L 126.341722 475.40365 
L 126.400505 473.989181 
L 126.459288 473.436232 
L 126.518071 475.299517 
L 126.576854 474.260534 
L 126.635637 475.144057 
L 126.69442 473.779604 
L 126.870769 475.894683 
L 126.929552 474.745025 
L 126.988335 475.698794 
L 127.164684 474.261588 
L 127.28225 475.683312 
L 127.341033 474.654713 
L 127.399816 475.863639 
L 127.458599 474.093928 
L 127.576165 476.429688 
L 127.693731 474.66465 
L 127.752514 475.870482 
L 127.811297 475.804811 
L 127.87008 474.712598 
L 127.928863 475.938246 
L 127.987646 475.443666 
L 128.046429 474.973534 
L 128.105212 475.968735 
L 128.163995 475.092545 
L 128.222778 474.88446 
L 128.281561 476.045472 
L 128.340344 474.713912 
L 128.45791 476.432779 
L 128.516693 474.971531 
L 128.575476 476.857544 
L 128.634259 476.093468 
L 128.693042 475.143691 
L 128.869391 476.649762 
L 128.928174 476.8328 
L 128.986957 476.475318 
L 129.04574 475.416548 
L 129.104523 476.401924 
L 129.163306 475.201314 
L 129.339655 476.956665 
L 129.457221 475.548489 
L 129.516004 476.5399 
L 129.574787 475.942308 
L 129.692353 477.088294 
L 129.751136 476.550144 
L 129.809919 475.584943 
L 129.927485 476.674356 
L 129.986268 475.835627 
L 130.103834 477.290856 
L 130.162617 477.015268 
L 130.338966 475.628852 
L 130.515315 477.138296 
L 130.574098 477.105671 
L 130.691664 476.428609 
L 130.750447 477.480841 
L 130.80923 477.095255 
L 130.868013 476.335909 
L 130.926796 477.006906 
L 130.985579 476.54435 
L 131.103145 477.267786 
L 131.161928 476.404663 
L 131.220711 477.077643 
L 131.338277 477.394401 
L 131.573409 476.824099 
L 131.632192 477.813577 
L 131.690975 477.682778 
L 131.749758 477.851846 
L 131.926107 477.195271 
L 131.98489 477.647734 
L 132.043673 476.844723 
L 132.102456 477.472133 
L 132.161239 476.964357 
L 132.220022 477.49102 
L 132.278805 477.367509 
L 132.396371 477.571436 
L 132.513937 477.217523 
L 132.57272 477.988735 
L 132.631503 477.613207 
L 132.690286 477.903255 
L 132.749069 477.649701 
L 132.866635 477.910998 
L 132.925418 477.567444 
L 132.984201 478.065931 
L 133.042984 477.536978 
L 133.101767 477.594662 
L 133.219333 477.625442 
L 133.278116 477.190768 
L 133.395682 477.991565 
L 133.454465 477.790334 
L 133.513248 478.184935 
L 133.572031 477.582916 
L 133.630814 478.052049 
L 133.689597 477.58824 
L 133.74838 477.900699 
L 133.807163 477.866946 
L 133.865946 478.123481 
L 133.924729 477.833249 
L 133.983512 477.924452 
L 134.042295 477.891311 
L 134.101078 478.185419 
L 134.159861 477.362451 
L 134.218644 477.739906 
L 134.33621 477.817584 
L 134.394993 478.628755 
L 134.453776 478.600448 
L 134.630125 477.507504 
L 134.688908 478.227855 
L 134.747691 477.819891 
L 134.806474 477.745036 
L 134.865257 478.220169 
L 134.92404 477.629682 
L 135.100389 479.091497 
L 135.159172 477.835996 
L 135.217955 477.923122 
L 135.335521 477.859748 
L 135.453087 478.543588 
L 135.570653 477.857524 
L 135.629436 478.331679 
L 135.688219 478.111253 
L 135.747002 477.963734 
L 135.805785 478.770485 
L 135.864568 478.40046 
L 135.923351 478.525726 
L 135.982134 477.99316 
L 136.040917 478.233845 
L 136.158483 478.109889 
L 136.276049 478.644216 
L 136.334832 478.600219 
L 136.393615 478.017888 
L 136.452398 478.512475 
L 136.628747 478.083211 
L 136.68753 478.549467 
L 136.746313 478.150385 
L 136.863879 478.703762 
L 136.922662 478.129043 
L 136.981445 478.59291 
L 137.040228 478.257372 
L 137.216577 479.178955 
L 137.27536 479.340111 
L 137.334143 479.166236 
L 137.392926 478.348233 
L 137.451709 479.239181 
L 137.510492 478.562093 
L 137.686841 479.536211 
L 137.745624 478.409084 
L 137.804407 478.931716 
L 137.86319 478.676038 
L 137.921973 478.994758 
L 137.980756 478.585329 
L 138.039539 478.717316 
L 138.098322 479.350936 
L 138.157105 478.96229 
L 138.392237 479.924749 
L 138.509803 478.855216 
L 138.568586 479.629888 
L 138.627369 479.154373 
L 138.686152 479.357743 
L 138.803718 480.467472 
L 138.921284 479.42751 
L 139.097633 480.015677 
L 139.156416 480.124106 
L 139.273982 479.341667 
L 139.332765 479.649414 
L 139.567897 480.247308 
L 139.62668 479.754956 
L 139.744246 480.940247 
L 139.861812 480.2561 
L 139.920595 480.52046 
L 139.979378 480.680214 
L 140.038161 480.109628 
L 140.155727 481.171293 
L 140.21451 480.396962 
L 140.273293 480.580485 
L 140.332076 480.80065 
L 140.390859 480.647333 
L 140.449642 480.549965 
L 140.567208 480.790952 
L 140.625991 480.492547 
L 140.80234 481.407066 
L 140.978689 480.929887 
L 141.096255 481.997403 
L 141.155038 480.95207 
L 141.213821 481.464078 
L 141.272604 481.374413 
L 141.331387 481.740895 
L 141.39017 481.522244 
L 141.448953 481.251168 
L 141.507736 481.61596 
L 141.566519 481.219504 
L 141.625302 481.944289 
L 141.684085 481.185901 
L 141.742868 481.92551 
L 141.801651 481.451505 
L 141.860434 481.89113 
L 141.919217 481.730797 
L 141.978 481.602029 
L 142.036783 481.860657 
L 142.095566 481.519729 
L 142.154349 481.610966 
L 142.213132 481.811966 
L 142.271915 481.706864 
L 142.330698 481.618059 
L 142.389481 482.013112 
L 142.448264 481.158871 
L 142.507047 481.881651 
L 142.56583 481.927295 
L 142.624613 482.116581 
L 142.683396 481.287274 
L 142.742179 481.716658 
L 142.800962 481.70349 
L 142.859745 482.028285 
L 142.977311 481.528547 
L 143.036094 482.214801 
L 143.094877 481.520751 
L 143.15366 482.093734 
L 143.271226 481.474136 
L 143.330009 482.076957 
L 143.388792 481.680591 
L 143.447575 481.439776 
L 143.623924 482.197662 
L 143.682707 481.751304 
L 143.74149 481.790876 
L 143.859056 481.92802 
L 143.917839 481.577476 
L 144.035405 482.246132 
L 144.094188 481.463846 
L 144.152971 482.017328 
L 144.211754 481.483189 
L 144.270537 482.229367 
L 144.32932 481.883075 
L 144.388103 482.060937 
L 144.446886 481.641518 
L 144.505669 482.254112 
L 144.564452 481.894053 
L 144.623235 482.090418 
L 144.682018 482.009324 
L 144.740801 481.701646 
L 144.799584 482.275737 
L 144.858367 481.986474 
L 144.91715 482.011486 
L 145.034716 482.417893 
L 145.093499 481.954961 
L 145.152282 482.079662 
L 145.211065 482.191709 
L 145.269848 481.963547 
L 145.328631 482.323869 
L 145.387414 482.08648 
L 145.446197 481.796879 
L 145.622546 482.476863 
L 145.681329 482.084852 
L 145.740112 482.143617 
L 145.798895 482.359916 
L 145.857678 481.994471 
L 145.916461 482.38167 
L 145.975244 482.324134 
L 146.09281 482.058408 
L 146.151593 482.390697 
L 146.210376 482.162147 
L 146.269159 482.178157 
L 146.327942 482.634728 
L 146.386725 482.492972 
L 146.445508 482.066001 
L 146.504291 482.423387 
L 146.563074 482.040022 
L 146.621857 482.432175 
L 146.68064 482.149443 
L 146.739423 482.427166 
L 146.798206 482.15917 
L 146.856989 482.428328 
L 146.915772 482.204508 
L 146.974555 482.179619 
L 147.092121 482.554811 
L 147.150904 482.080256 
L 147.209687 482.461779 
L 147.26847 482.140518 
L 147.327253 482.457601 
L 147.386036 482.323922 
L 147.503602 482.183918 
L 147.562385 482.458546 
L 147.621168 482.213833 
L 147.679951 482.459656 
L 147.738734 482.216034 
L 147.8563 482.520112 
L 147.915083 482.192216 
L 147.973866 482.482053 
L 148.032649 482.42121 
L 148.091432 482.660775 
L 148.150215 482.559534 
L 148.208998 482.645759 
L 148.326564 482.315482 
L 148.385347 482.522295 
L 148.44413 482.312819 
L 148.561696 482.516485 
L 148.620479 482.239693 
L 148.796828 482.690071 
L 148.914394 482.489904 
L 148.973177 482.341512 
L 149.149526 482.649341 
L 149.208309 482.531648 
L 149.267092 482.639083 
L 149.325875 482.69876 
L 149.384658 482.593564 
L 149.443441 482.6775 
L 149.502224 482.739526 
L 149.561007 482.679867 
L 149.796139 482.595751 
L 149.854922 482.443608 
L 149.972488 482.762476 
L 150.148837 482.61583 
L 150.20762 482.616667 
L 150.325186 482.888784 
L 150.383969 482.679545 
L 150.442752 482.808426 
L 150.619101 482.719119 
L 150.736667 482.876512 
L 150.913016 482.618654 
L 150.971799 482.764786 
L 151.38328 482.95135 
L 151.442063 482.723657 
L 151.500846 482.945683 
L 151.559629 482.794216 
L 151.735978 482.866073 
L 151.794761 482.856467 
L 151.853544 482.989287 
L 151.912327 482.955984 
L 151.97111 482.930051 
L 152.029893 482.759561 
L 152.088676 482.821759 
L 152.147459 482.972412 
L 152.206242 482.766296 
L 152.265025 482.932506 
L 152.382591 482.783375 
L 152.441374 482.958035 
L 152.55894 483.078273 
L 152.735289 482.808212 
L 152.852855 482.998301 
L 152.911638 482.926352 
L 152.970421 482.805647 
L 153.087987 483.080194 
L 153.14677 483.027599 
L 153.205553 482.879523 
L 153.264336 483.025297 
L 153.323119 482.894719 
L 153.381902 483.01558 
L 153.499468 483.024079 
L 153.558251 483.071398 
L 153.617034 482.881912 
L 153.675817 482.925904 
L 153.7346 482.879859 
L 153.852166 483.092229 
L 153.910949 482.987413 
L 153.969732 483.130287 
L 154.028515 483.07942 
L 154.087298 482.931709 
L 154.146081 483.060739 
L 154.616345 483.124609 
L 154.792694 483.23062 
L 154.91026 483.211129 
L 155.145392 483.061567 
L 155.262958 483.224718 
L 155.321741 483.077456 
L 155.380524 483.282263 
L 155.439307 483.255257 
L 155.556873 483.09539 
L 155.615656 483.285695 
L 155.674439 483.212629 
L 155.968354 483.253836 
L 156.027137 483.112011 
L 156.08592 483.228199 
L 156.262269 483.311018 
L 156.321052 483.139077 
L 156.379835 483.226631 
L 156.438618 483.328106 
L 156.497401 483.158667 
L 156.556184 483.23254 
L 156.614967 483.183403 
L 156.732533 483.362284 
L 156.791316 483.217852 
L 156.967665 483.410116 
L 157.144014 483.212916 
L 157.202797 483.401728 
L 157.26158 483.280255 
L 157.320363 483.209897 
L 157.437929 483.363948 
L 157.496712 483.302083 
L 157.555495 483.385465 
L 157.908193 483.252704 
L 157.966976 483.400446 
L 158.025759 483.2833 
L 158.084542 483.220882 
L 158.202108 483.413654 
L 158.260891 483.21935 
L 158.319674 483.387944 
L 158.43724 483.363351 
L 158.496023 483.503266 
L 158.554806 483.456734 
L 158.613589 483.319573 
L 158.672372 483.452382 
L 158.848721 483.400881 
L 158.907504 483.474869 
L 158.966287 483.295709 
L 159.02507 483.438846 
L 159.201419 483.413254 
L 159.260202 483.519881 
L 159.318985 483.423801 
L 159.495334 483.384291 
L 159.554117 483.499762 
L 159.6129 483.418907 
L 159.671683 483.447173 
L 159.730466 483.346093 
L 159.848032 483.550282 
L 159.906815 483.481848 
L 159.965598 483.395047 
L 160.024381 483.503559 
L 160.141947 483.413797 
L 160.20073 483.514843 
L 160.259513 483.418999 
L 160.435862 483.555076 
L 160.612211 483.433715 
L 160.729777 483.583169 
L 160.78856 483.481397 
L 160.847343 483.430813 
L 160.906126 483.499767 
L 161.200041 483.391192 
L 161.37639 483.606569 
L 161.493956 483.488832 
L 161.552739 483.592996 
L 161.611522 483.467904 
L 161.670305 483.562347 
L 161.905437 483.614025 
L 162.081786 483.454495 
L 162.258135 483.579507 
L 163.022314 483.52315 
L 163.081097 483.643232 
L 163.13988 483.530748 
L 163.551361 483.572705 
L 163.72771 483.633045 
L 163.845276 483.63969 
L 163.962842 483.611518 
L 164.197974 483.566224 
L 164.374323 483.646541 
L 164.491889 483.622811 
L 164.550672 483.574266 
L 164.609455 483.6476 
L 164.962153 483.571706 
L 165.138502 483.654734 
L 165.314851 483.617404 
L 165.4912 483.71134 
L 165.726332 483.677428 
L 165.961464 483.650272 
L 166.137813 483.621538 
L 166.314162 483.674568 
L 166.549294 483.677632 
L 166.725643 483.774674 
L 166.843209 483.679355 
L 167.078341 483.787033 
L 167.195907 483.707943 
L 167.313473 483.802753 
L 167.489822 483.707936 
L 168.018869 483.823367 
L 168.136435 483.759349 
L 168.312784 483.786015 
L 168.43035 483.746618 
L 168.547916 483.920805 
L 168.783048 483.801724 
L 169.076963 483.861195 
L 170.135057 483.914321 
L 170.487755 483.983732 
L 170.78167 483.950495 
L 170.899236 484.054285 
L 171.075585 483.942103 
L 171.3695 483.914962 
L 171.545849 483.990286 
L 171.663415 484.00811 
L 171.839764 483.932585 
L 172.016113 484.0511 
L 172.603943 483.969769 
L 172.662726 484.091065 
L 172.721509 484.051898 
L 173.838386 484.047184 
L 174.014735 484.066859 
L 174.249867 484.037865 
L 174.426216 484.091361 
L 174.602565 484.102661 
L 174.778914 484.105434 
L 174.837697 484.045325 
L 174.89648 484.105494 
L 175.366744 484.098886 
L 175.425527 484.163152 
L 175.48431 484.075744 
L 179.305205 484.173056 
L 179.422771 484.190414 
L 179.716686 484.225635 
L 180.422082 484.20464 
L 181.421393 484.192622 
L 182.185572 484.24713 
L 182.303138 484.230526 
L 182.597053 484.237013 
L 182.890968 484.212503 
L 183.008534 484.266542 
L 183.184883 484.21493 
L 183.478798 484.233739 
L 189.415881 484.340948 
L 189.59223 484.373566 
L 189.827362 484.344469 
L 190.062494 484.374395 
L 191.296937 484.388364 
L 191.767201 484.408202 
L 192.178682 484.394687 
L 192.413814 484.415001 
L 192.766512 484.412611 
L 193.354342 484.406204 
L 193.589474 484.451155 
L 193.824606 484.442893 
L 197.704284 484.473244 
L 197.880633 484.506838 
L 198.115765 484.495657 
L 198.527246 484.509986 
L 199.115076 484.492468 
L 199.702906 484.524597 
L 200.761 484.551227 
L 201.93666 484.571022 
L 202.113009 484.564864 
L 202.583273 484.584249 
L 203.758933 484.597743 
L 216.867542 484.719319 
L 217.22024 484.721696 
L 224.744464 484.761936 
L 225.508643 484.766462 
L 231.210594 484.800714 
L 232.562603 484.80071 
L 237.911856 484.819236 
L 239.792912 484.821791 
L 249.609673 484.852159 
L 258.191991 484.930772 
L 258.662255 484.930279 
L 259.602783 484.942769 
L 260.190613 484.947579 
L 260.896009 484.958836 
L 261.30749 484.962545 
L 262.48315 484.968185 
L 264.599338 484.971078 
L 295.284064 485.001475 
L 498.320546 485.29675 
L 502.846837 485.308385 
L 505.550855 485.311959 
L 510.077146 485.31644 
L 536.176798 485.352957 
L 538.939599 485.353856 
L 558.74947 485.369342 
L 562.629148 485.369863 
L 573.504003 485.373261 
L 671.083783 485.387529 
L 671.083783 485.387529 
" style="fill:none;stroke:#d62728;stroke-linecap:square;stroke-width:3;"/>
   </g>
   <g id="line2d_20">
    <path clip-path="url(#pa3b5f89f6d)" d="M 83.195 485.910564 
L 671.025 485.910564 
" style="fill:none;stroke:#000000;stroke-dasharray:7.4,3.2;stroke-dashoffset:0;stroke-width:2;"/>
   </g>
   <g id="patch_3">
    <path d="M 83.195 507.745 
L 83.195 16.959846 
" style="fill:none;stroke:#000000;stroke-linecap:square;stroke-linejoin:miter;stroke-width:0.8;"/>
   </g>
   <g id="patch_4">
    <path d="M 671.025 507.745 
L 671.025 16.959846 
" style="fill:none;stroke:#000000;stroke-linecap:square;stroke-linejoin:miter;stroke-width:0.8;"/>
   </g>
   <g id="patch_5">
    <path d="M 83.195 507.745 
L 671.025 507.745 
" style="fill:none;stroke:#000000;stroke-linecap:square;stroke-linejoin:miter;stroke-width:0.8;"/>
   </g>
   <g id="patch_6">
    <path d="M 83.195 16.959846 
L 671.025 16.959846 
" style="fill:none;stroke:#000000;stroke-linecap:square;stroke-linejoin:miter;stroke-width:0.8;"/>
   </g>
   <g id="legend_1">
    <g id="patch_7">
     <path d="M 402.1425 212.297346 
L 654.225 212.297346 
Q 659.025 212.297346 659.025 207.497346 
L 659.025 33.759846 
Q 659.025 28.959846 654.225 28.959846 
L 402.1425 28.959846 
Q 397.3425 28.959846 397.3425 33.759846 
L 397.3425 207.497346 
Q 397.3425 212.297346 402.1425 212.297346 
z
" style="fill:#ffffff;opacity:0.8;stroke:#cccccc;stroke-linejoin:miter;"/>
    </g>
    <g id="line2d_21">
     <path d="M 406.9425 48.396096 
L 454.9425 48.396096 
" style="fill:none;stroke:#1f77b4;stroke-linecap:square;stroke-width:3;"/>
    </g>
    <g id="line2d_22"/>
    <g id="text_18">
     <!-- COBYLA -->
     <g transform="translate(474.1425 56.796096)scale(0.24 -0.24)">
      <defs>
       <path d="M 4122 4306 
L 4122 3641 
Q 3803 3938 3442 4084 
Q 3081 4231 2675 4231 
Q 1875 4231 1450 3742 
Q 1025 3253 1025 2328 
Q 1025 1406 1450 917 
Q 1875 428 2675 428 
Q 3081 428 3442 575 
Q 3803 722 4122 1019 
L 4122 359 
Q 3791 134 3420 21 
Q 3050 -91 2638 -91 
Q 1578 -91 968 557 
Q 359 1206 359 2328 
Q 359 3453 968 4101 
Q 1578 4750 2638 4750 
Q 3056 4750 3426 4639 
Q 3797 4528 4122 4306 
z
" id="DejaVuSans-43" transform="scale(0.015625)"/>
       <path d="M 2522 4238 
Q 1834 4238 1429 3725 
Q 1025 3213 1025 2328 
Q 1025 1447 1429 934 
Q 1834 422 2522 422 
Q 3209 422 3611 934 
Q 4013 1447 4013 2328 
Q 4013 3213 3611 3725 
Q 3209 4238 2522 4238 
z
M 2522 4750 
Q 3503 4750 4090 4092 
Q 4678 3434 4678 2328 
Q 4678 1225 4090 567 
Q 3503 -91 2522 -91 
Q 1538 -91 948 565 
Q 359 1222 359 2328 
Q 359 3434 948 4092 
Q 1538 4750 2522 4750 
z
" id="DejaVuSans-4f" transform="scale(0.015625)"/>
       <path d="M 1259 2228 
L 1259 519 
L 2272 519 
Q 2781 519 3026 730 
Q 3272 941 3272 1375 
Q 3272 1813 3026 2020 
Q 2781 2228 2272 2228 
L 1259 2228 
z
M 1259 4147 
L 1259 2741 
L 2194 2741 
Q 2656 2741 2882 2914 
Q 3109 3088 3109 3444 
Q 3109 3797 2882 3972 
Q 2656 4147 2194 4147 
L 1259 4147 
z
M 628 4666 
L 2241 4666 
Q 2963 4666 3353 4366 
Q 3744 4066 3744 3513 
Q 3744 3084 3544 2831 
Q 3344 2578 2956 2516 
Q 3422 2416 3680 2098 
Q 3938 1781 3938 1306 
Q 3938 681 3513 340 
Q 3088 0 2303 0 
L 628 0 
L 628 4666 
z
" id="DejaVuSans-42" transform="scale(0.015625)"/>
       <path d="M -13 4666 
L 666 4666 
L 1959 2747 
L 3244 4666 
L 3922 4666 
L 2272 2222 
L 2272 0 
L 1638 0 
L 1638 2222 
L -13 4666 
z
" id="DejaVuSans-59" transform="scale(0.015625)"/>
       <path d="M 628 4666 
L 1259 4666 
L 1259 531 
L 3531 531 
L 3531 0 
L 628 0 
L 628 4666 
z
" id="DejaVuSans-4c" transform="scale(0.015625)"/>
       <path d="M 2188 4044 
L 1331 1722 
L 3047 1722 
L 2188 4044 
z
M 1831 4666 
L 2547 4666 
L 4325 0 
L 3669 0 
L 3244 1197 
L 1141 1197 
L 716 0 
L 50 0 
L 1831 4666 
z
" id="DejaVuSans-41" transform="scale(0.015625)"/>
      </defs>
      <use xlink:href="#DejaVuSans-43"/>
      <use x="69.824219" xlink:href="#DejaVuSans-4f"/>
      <use x="148.535156" xlink:href="#DejaVuSans-42"/>
      <use x="211.638672" xlink:href="#DejaVuSans-59"/>
      <use x="272.722656" xlink:href="#DejaVuSans-4c"/>
      <use x="330.685547" xlink:href="#DejaVuSans-41"/>
     </g>
    </g>
    <g id="line2d_23">
     <path d="M 406.9425 83.623596 
L 454.9425 83.623596 
" style="fill:none;stroke:#ff7f0e;stroke-linecap:square;stroke-width:3;"/>
    </g>
    <g id="line2d_24"/>
    <g id="text_19">
     <!-- L-BFGS-B -->
     <g transform="translate(474.1425 92.023596)scale(0.24 -0.24)">
      <defs>
       <path d="M 313 2009 
L 1997 2009 
L 1997 1497 
L 313 1497 
L 313 2009 
z
" id="DejaVuSans-2d" transform="scale(0.015625)"/>
       <path d="M 628 4666 
L 3309 4666 
L 3309 4134 
L 1259 4134 
L 1259 2759 
L 3109 2759 
L 3109 2228 
L 1259 2228 
L 1259 0 
L 628 0 
L 628 4666 
z
" id="DejaVuSans-46" transform="scale(0.015625)"/>
       <path d="M 3809 666 
L 3809 1919 
L 2778 1919 
L 2778 2438 
L 4434 2438 
L 4434 434 
Q 4069 175 3628 42 
Q 3188 -91 2688 -91 
Q 1594 -91 976 548 
Q 359 1188 359 2328 
Q 359 3472 976 4111 
Q 1594 4750 2688 4750 
Q 3144 4750 3555 4637 
Q 3966 4525 4313 4306 
L 4313 3634 
Q 3963 3931 3569 4081 
Q 3175 4231 2741 4231 
Q 1884 4231 1454 3753 
Q 1025 3275 1025 2328 
Q 1025 1384 1454 906 
Q 1884 428 2741 428 
Q 3075 428 3337 486 
Q 3600 544 3809 666 
z
" id="DejaVuSans-47" transform="scale(0.015625)"/>
       <path d="M 3425 4513 
L 3425 3897 
Q 3066 4069 2747 4153 
Q 2428 4238 2131 4238 
Q 1616 4238 1336 4038 
Q 1056 3838 1056 3469 
Q 1056 3159 1242 3001 
Q 1428 2844 1947 2747 
L 2328 2669 
Q 3034 2534 3370 2195 
Q 3706 1856 3706 1288 
Q 3706 609 3251 259 
Q 2797 -91 1919 -91 
Q 1588 -91 1214 -16 
Q 841 59 441 206 
L 441 856 
Q 825 641 1194 531 
Q 1563 422 1919 422 
Q 2459 422 2753 634 
Q 3047 847 3047 1241 
Q 3047 1584 2836 1778 
Q 2625 1972 2144 2069 
L 1759 2144 
Q 1053 2284 737 2584 
Q 422 2884 422 3419 
Q 422 4038 858 4394 
Q 1294 4750 2059 4750 
Q 2388 4750 2728 4690 
Q 3069 4631 3425 4513 
z
" id="DejaVuSans-53" transform="scale(0.015625)"/>
      </defs>
      <use xlink:href="#DejaVuSans-4c"/>
      <use x="53.962891" xlink:href="#DejaVuSans-2d"/>
      <use x="86.421875" xlink:href="#DejaVuSans-42"/>
      <use x="155.025391" xlink:href="#DejaVuSans-46"/>
      <use x="212.544922" xlink:href="#DejaVuSans-47"/>
      <use x="290.035156" xlink:href="#DejaVuSans-53"/>
      <use x="353.511719" xlink:href="#DejaVuSans-2d"/>
      <use x="385.970703" xlink:href="#DejaVuSans-42"/>
     </g>
    </g>
    <g id="line2d_25">
     <path d="M 406.9425 118.851096 
L 454.9425 118.851096 
" style="fill:none;stroke:#2ca02c;stroke-linecap:square;stroke-width:3;"/>
    </g>
    <g id="line2d_26"/>
    <g id="text_20">
     <!-- SLSQP -->
     <g transform="translate(474.1425 127.251096)scale(0.24 -0.24)">
      <defs>
       <path d="M 1259 4147 
L 1259 2394 
L 2053 2394 
Q 2494 2394 2734 2622 
Q 2975 2850 2975 3272 
Q 2975 3691 2734 3919 
Q 2494 4147 2053 4147 
L 1259 4147 
z
M 628 4666 
L 2053 4666 
Q 2838 4666 3239 4311 
Q 3641 3956 3641 3272 
Q 3641 2581 3239 2228 
Q 2838 1875 2053 1875 
L 1259 1875 
L 1259 0 
L 628 0 
L 628 4666 
z
" id="DejaVuSans-50" transform="scale(0.015625)"/>
      </defs>
      <use xlink:href="#DejaVuSans-53"/>
      <use x="63.476562" xlink:href="#DejaVuSans-4c"/>
      <use x="119.189453" xlink:href="#DejaVuSans-53"/>
      <use x="182.666016" xlink:href="#DejaVuSans-51"/>
      <use x="261.376953" xlink:href="#DejaVuSans-50"/>
     </g>
    </g>
    <g id="line2d_27">
     <path d="M 406.9425 154.078596 
L 454.9425 154.078596 
" style="fill:none;stroke:#d62728;stroke-linecap:square;stroke-width:3;"/>
    </g>
    <g id="line2d_28"/>
    <g id="text_21">
     <!-- NELDER-MEAD -->
     <g transform="translate(474.1425 162.478596)scale(0.24 -0.24)">
      <defs>
       <path d="M 628 4666 
L 1478 4666 
L 3547 763 
L 3547 4666 
L 4159 4666 
L 4159 0 
L 3309 0 
L 1241 3903 
L 1241 0 
L 628 0 
L 628 4666 
z
" id="DejaVuSans-4e" transform="scale(0.015625)"/>
       <path d="M 1259 4147 
L 1259 519 
L 2022 519 
Q 2988 519 3436 956 
Q 3884 1394 3884 2338 
Q 3884 3275 3436 3711 
Q 2988 4147 2022 4147 
L 1259 4147 
z
M 628 4666 
L 1925 4666 
Q 3281 4666 3915 4102 
Q 4550 3538 4550 2338 
Q 4550 1131 3912 565 
Q 3275 0 1925 0 
L 628 0 
L 628 4666 
z
" id="DejaVuSans-44" transform="scale(0.015625)"/>
       <path d="M 2841 2188 
Q 3044 2119 3236 1894 
Q 3428 1669 3622 1275 
L 4263 0 
L 3584 0 
L 2988 1197 
Q 2756 1666 2539 1819 
Q 2322 1972 1947 1972 
L 1259 1972 
L 1259 0 
L 628 0 
L 628 4666 
L 2053 4666 
Q 2853 4666 3247 4331 
Q 3641 3997 3641 3322 
Q 3641 2881 3436 2590 
Q 3231 2300 2841 2188 
z
M 1259 4147 
L 1259 2491 
L 2053 2491 
Q 2509 2491 2742 2702 
Q 2975 2913 2975 3322 
Q 2975 3731 2742 3939 
Q 2509 4147 2053 4147 
L 1259 4147 
z
" id="DejaVuSans-52" transform="scale(0.015625)"/>
       <path d="M 628 4666 
L 1569 4666 
L 2759 1491 
L 3956 4666 
L 4897 4666 
L 4897 0 
L 4281 0 
L 4281 4097 
L 3078 897 
L 2444 897 
L 1241 4097 
L 1241 0 
L 628 0 
L 628 4666 
z
" id="DejaVuSans-4d" transform="scale(0.015625)"/>
      </defs>
      <use xlink:href="#DejaVuSans-4e"/>
      <use x="74.804688" xlink:href="#DejaVuSans-45"/>
      <use x="137.988281" xlink:href="#DejaVuSans-4c"/>
      <use x="193.701172" xlink:href="#DejaVuSans-44"/>
      <use x="270.703125" xlink:href="#DejaVuSans-45"/>
      <use x="333.886719" xlink:href="#DejaVuSans-52"/>
      <use x="399.369141" xlink:href="#DejaVuSans-2d"/>
      <use x="435.453125" xlink:href="#DejaVuSans-4d"/>
      <use x="521.732422" xlink:href="#DejaVuSans-45"/>
      <use x="584.916016" xlink:href="#DejaVuSans-41"/>
      <use x="653.324219" xlink:href="#DejaVuSans-44"/>
     </g>
    </g>
    <g id="line2d_29">
     <path d="M 406.9425 189.306096 
L 454.9425 189.306096 
" style="fill:none;stroke:#000000;stroke-dasharray:7.4,3.2;stroke-dashoffset:0;stroke-width:2;"/>
    </g>
    <g id="line2d_30"/>
    <g id="text_22">
     <!-- HT -->
     <g transform="translate(474.1425 197.706096)scale(0.24 -0.24)">
      <defs>
       <path d="M 628 4666 
L 1259 4666 
L 1259 2753 
L 3553 2753 
L 3553 4666 
L 4184 4666 
L 4184 0 
L 3553 0 
L 3553 2222 
L 1259 2222 
L 1259 0 
L 628 0 
L 628 4666 
z
" id="DejaVuSans-48" transform="scale(0.015625)"/>
       <path d="M -19 4666 
L 3928 4666 
L 3928 4134 
L 2272 4134 
L 2272 0 
L 1638 0 
L 1638 4134 
L -19 4134 
L -19 4666 
z
" id="DejaVuSans-54" transform="scale(0.015625)"/>
      </defs>
      <use xlink:href="#DejaVuSans-48"/>
      <use x="75.195312" xlink:href="#DejaVuSans-54"/>
     </g>
    </g>
   </g>
  </g>
 </g>
 <defs>
  <clipPath id="pa3b5f89f6d">
   <rect height="490.785154" width="587.83" x="83.195" y="16.959846"/>
  </clipPath>
 </defs>
</svg>
