<?xml version="1.0" encoding="utf-8" standalone="no"?>
<!DOCTYPE svg PUBLIC "-//W3C//DTD SVG 1.1//EN"
  "http://www.w3.org/Graphics/SVG/1.1/DTD/svg11.dtd">
<svg height="576pt" version="1.1" viewBox="0 0 720 576" width="720pt" xmlns="http://www.w3.org/2000/svg" xmlns:xlink="http://www.w3.org/1999/xlink">
 <metadata>
  <rdf:RDF xmlns:cc="http://creativecommons.org/ns#" xmlns:dc="http://purl.org/dc/elements/1.1/" xmlns:rdf="http://www.w3.org/1999/02/22-rdf-syntax-ns#">
   <cc:Work>
    <dc:type rdf:resource="http://purl.org/dc/dcmitype/StillImage"/>
    <dc:date>2021-07-30T13:15:17.999259</dc:date>
    <dc:format>image/svg+xml</dc:format>
    <dc:creator>
     <cc:Agent>
      <dc:title>Matplotlib v3.4.2, https://matplotlib.org/</dc:title>
     </cc:Agent>
    </dc:creator>
   </cc:Work>
  </rdf:RDF>
 </metadata>
 <defs>
  <style type="text/css">*{stroke-linecap:butt;stroke-linejoin:round;}</style>
 </defs>
 <g id="figure_1">
  <g id="patch_1">
   <path d="M 0 576 
L 720 576 
L 720 0 
L 0 0 
z
" style="fill:#ffffff;"/>
  </g>
  <g id="axes_1">
   <g id="patch_2">
    <path d="M 60.2975 507.745 
L 678.66 507.745 
L 678.66 10.8 
L 60.2975 10.8 
z
" style="fill:#ffffff;"/>
   </g>
   <g id="matplotlib.axis_1">
    <g id="xtick_1">
     <g id="line2d_1">
      <defs>
       <path d="M 0 0 
L 0 3.5 
" id="m9b63a83d9d" style="stroke:#000000;stroke-width:0.8;"/>
      </defs>
      <g>
       <use style="stroke:#000000;stroke-width:0.8;" x="60.2975" xlink:href="#m9b63a83d9d" y="507.745"/>
      </g>
     </g>
     <g id="text_1">
      <!-- 0 -->
      <g transform="translate(52.6625 532.98125)scale(0.24 -0.24)">
       <defs>
        <path d="M 2034 4250 
Q 1547 4250 1301 3770 
Q 1056 3291 1056 2328 
Q 1056 1369 1301 889 
Q 1547 409 2034 409 
Q 2525 409 2770 889 
Q 3016 1369 3016 2328 
Q 3016 3291 2770 3770 
Q 2525 4250 2034 4250 
z
M 2034 4750 
Q 2819 4750 3233 4129 
Q 3647 3509 3647 2328 
Q 3647 1150 3233 529 
Q 2819 -91 2034 -91 
Q 1250 -91 836 529 
Q 422 1150 422 2328 
Q 422 3509 836 4129 
Q 1250 4750 2034 4750 
z
" id="DejaVuSans-30" transform="scale(0.015625)"/>
       </defs>
       <use xlink:href="#DejaVuSans-30"/>
      </g>
     </g>
    </g>
    <g id="xtick_2">
     <g id="line2d_2">
      <g>
       <use style="stroke:#000000;stroke-width:0.8;" x="183.97" xlink:href="#m9b63a83d9d" y="507.745"/>
      </g>
     </g>
     <g id="text_2">
      <!-- 1000 -->
      <g transform="translate(153.43 532.98125)scale(0.24 -0.24)">
       <defs>
        <path d="M 794 531 
L 1825 531 
L 1825 4091 
L 703 3866 
L 703 4441 
L 1819 4666 
L 2450 4666 
L 2450 531 
L 3481 531 
L 3481 0 
L 794 0 
L 794 531 
z
" id="DejaVuSans-31" transform="scale(0.015625)"/>
       </defs>
       <use xlink:href="#DejaVuSans-31"/>
       <use x="63.623047" xlink:href="#DejaVuSans-30"/>
       <use x="127.246094" xlink:href="#DejaVuSans-30"/>
       <use x="190.869141" xlink:href="#DejaVuSans-30"/>
      </g>
     </g>
    </g>
    <g id="xtick_3">
     <g id="line2d_3">
      <g>
       <use style="stroke:#000000;stroke-width:0.8;" x="307.6425" xlink:href="#m9b63a83d9d" y="507.745"/>
      </g>
     </g>
     <g id="text_3">
      <!-- 2000 -->
      <g transform="translate(277.1025 532.98125)scale(0.24 -0.24)">
       <defs>
        <path d="M 1228 531 
L 3431 531 
L 3431 0 
L 469 0 
L 469 531 
Q 828 903 1448 1529 
Q 2069 2156 2228 2338 
Q 2531 2678 2651 2914 
Q 2772 3150 2772 3378 
Q 2772 3750 2511 3984 
Q 2250 4219 1831 4219 
Q 1534 4219 1204 4116 
Q 875 4013 500 3803 
L 500 4441 
Q 881 4594 1212 4672 
Q 1544 4750 1819 4750 
Q 2544 4750 2975 4387 
Q 3406 4025 3406 3419 
Q 3406 3131 3298 2873 
Q 3191 2616 2906 2266 
Q 2828 2175 2409 1742 
Q 1991 1309 1228 531 
z
" id="DejaVuSans-32" transform="scale(0.015625)"/>
       </defs>
       <use xlink:href="#DejaVuSans-32"/>
       <use x="63.623047" xlink:href="#DejaVuSans-30"/>
       <use x="127.246094" xlink:href="#DejaVuSans-30"/>
       <use x="190.869141" xlink:href="#DejaVuSans-30"/>
      </g>
     </g>
    </g>
    <g id="xtick_4">
     <g id="line2d_4">
      <g>
       <use style="stroke:#000000;stroke-width:0.8;" x="431.315" xlink:href="#m9b63a83d9d" y="507.745"/>
      </g>
     </g>
     <g id="text_4">
      <!-- 3000 -->
      <g transform="translate(400.775 532.98125)scale(0.24 -0.24)">
       <defs>
        <path d="M 2597 2516 
Q 3050 2419 3304 2112 
Q 3559 1806 3559 1356 
Q 3559 666 3084 287 
Q 2609 -91 1734 -91 
Q 1441 -91 1130 -33 
Q 819 25 488 141 
L 488 750 
Q 750 597 1062 519 
Q 1375 441 1716 441 
Q 2309 441 2620 675 
Q 2931 909 2931 1356 
Q 2931 1769 2642 2001 
Q 2353 2234 1838 2234 
L 1294 2234 
L 1294 2753 
L 1863 2753 
Q 2328 2753 2575 2939 
Q 2822 3125 2822 3475 
Q 2822 3834 2567 4026 
Q 2313 4219 1838 4219 
Q 1578 4219 1281 4162 
Q 984 4106 628 3988 
L 628 4550 
Q 988 4650 1302 4700 
Q 1616 4750 1894 4750 
Q 2613 4750 3031 4423 
Q 3450 4097 3450 3541 
Q 3450 3153 3228 2886 
Q 3006 2619 2597 2516 
z
" id="DejaVuSans-33" transform="scale(0.015625)"/>
       </defs>
       <use xlink:href="#DejaVuSans-33"/>
       <use x="63.623047" xlink:href="#DejaVuSans-30"/>
       <use x="127.246094" xlink:href="#DejaVuSans-30"/>
       <use x="190.869141" xlink:href="#DejaVuSans-30"/>
      </g>
     </g>
    </g>
    <g id="xtick_5">
     <g id="line2d_5">
      <g>
       <use style="stroke:#000000;stroke-width:0.8;" x="554.9875" xlink:href="#m9b63a83d9d" y="507.745"/>
      </g>
     </g>
     <g id="text_5">
      <!-- 4000 -->
      <g transform="translate(524.4475 532.98125)scale(0.24 -0.24)">
       <defs>
        <path d="M 2419 4116 
L 825 1625 
L 2419 1625 
L 2419 4116 
z
M 2253 4666 
L 3047 4666 
L 3047 1625 
L 3713 1625 
L 3713 1100 
L 3047 1100 
L 3047 0 
L 2419 0 
L 2419 1100 
L 313 1100 
L 313 1709 
L 2253 4666 
z
" id="DejaVuSans-34" transform="scale(0.015625)"/>
       </defs>
       <use xlink:href="#DejaVuSans-34"/>
       <use x="63.623047" xlink:href="#DejaVuSans-30"/>
       <use x="127.246094" xlink:href="#DejaVuSans-30"/>
       <use x="190.869141" xlink:href="#DejaVuSans-30"/>
      </g>
     </g>
    </g>
    <g id="xtick_6">
     <g id="line2d_6">
      <g>
       <use style="stroke:#000000;stroke-width:0.8;" x="678.66" xlink:href="#m9b63a83d9d" y="507.745"/>
      </g>
     </g>
     <g id="text_6">
      <!-- 5000 -->
      <g transform="translate(648.12 532.98125)scale(0.24 -0.24)">
       <defs>
        <path d="M 691 4666 
L 3169 4666 
L 3169 4134 
L 1269 4134 
L 1269 2991 
Q 1406 3038 1543 3061 
Q 1681 3084 1819 3084 
Q 2600 3084 3056 2656 
Q 3513 2228 3513 1497 
Q 3513 744 3044 326 
Q 2575 -91 1722 -91 
Q 1428 -91 1123 -41 
Q 819 9 494 109 
L 494 744 
Q 775 591 1075 516 
Q 1375 441 1709 441 
Q 2250 441 2565 725 
Q 2881 1009 2881 1497 
Q 2881 1984 2565 2268 
Q 2250 2553 1709 2553 
Q 1456 2553 1204 2497 
Q 953 2441 691 2322 
L 691 4666 
z
" id="DejaVuSans-35" transform="scale(0.015625)"/>
       </defs>
       <use xlink:href="#DejaVuSans-35"/>
       <use x="63.623047" xlink:href="#DejaVuSans-30"/>
       <use x="127.246094" xlink:href="#DejaVuSans-30"/>
       <use x="190.869141" xlink:href="#DejaVuSans-30"/>
      </g>
     </g>
    </g>
    <g id="text_7">
     <!-- iterations -->
     <g transform="translate(312.533125 560.20875)scale(0.24 -0.24)">
      <defs>
       <path d="M 603 3500 
L 1178 3500 
L 1178 0 
L 603 0 
L 603 3500 
z
M 603 4863 
L 1178 4863 
L 1178 4134 
L 603 4134 
L 603 4863 
z
" id="DejaVuSans-69" transform="scale(0.015625)"/>
       <path d="M 1172 4494 
L 1172 3500 
L 2356 3500 
L 2356 3053 
L 1172 3053 
L 1172 1153 
Q 1172 725 1289 603 
Q 1406 481 1766 481 
L 2356 481 
L 2356 0 
L 1766 0 
Q 1100 0 847 248 
Q 594 497 594 1153 
L 594 3053 
L 172 3053 
L 172 3500 
L 594 3500 
L 594 4494 
L 1172 4494 
z
" id="DejaVuSans-74" transform="scale(0.015625)"/>
       <path d="M 3597 1894 
L 3597 1613 
L 953 1613 
Q 991 1019 1311 708 
Q 1631 397 2203 397 
Q 2534 397 2845 478 
Q 3156 559 3463 722 
L 3463 178 
Q 3153 47 2828 -22 
Q 2503 -91 2169 -91 
Q 1331 -91 842 396 
Q 353 884 353 1716 
Q 353 2575 817 3079 
Q 1281 3584 2069 3584 
Q 2775 3584 3186 3129 
Q 3597 2675 3597 1894 
z
M 3022 2063 
Q 3016 2534 2758 2815 
Q 2500 3097 2075 3097 
Q 1594 3097 1305 2825 
Q 1016 2553 972 2059 
L 3022 2063 
z
" id="DejaVuSans-65" transform="scale(0.015625)"/>
       <path d="M 2631 2963 
Q 2534 3019 2420 3045 
Q 2306 3072 2169 3072 
Q 1681 3072 1420 2755 
Q 1159 2438 1159 1844 
L 1159 0 
L 581 0 
L 581 3500 
L 1159 3500 
L 1159 2956 
Q 1341 3275 1631 3429 
Q 1922 3584 2338 3584 
Q 2397 3584 2469 3576 
Q 2541 3569 2628 3553 
L 2631 2963 
z
" id="DejaVuSans-72" transform="scale(0.015625)"/>
       <path d="M 2194 1759 
Q 1497 1759 1228 1600 
Q 959 1441 959 1056 
Q 959 750 1161 570 
Q 1363 391 1709 391 
Q 2188 391 2477 730 
Q 2766 1069 2766 1631 
L 2766 1759 
L 2194 1759 
z
M 3341 1997 
L 3341 0 
L 2766 0 
L 2766 531 
Q 2569 213 2275 61 
Q 1981 -91 1556 -91 
Q 1019 -91 701 211 
Q 384 513 384 1019 
Q 384 1609 779 1909 
Q 1175 2209 1959 2209 
L 2766 2209 
L 2766 2266 
Q 2766 2663 2505 2880 
Q 2244 3097 1772 3097 
Q 1472 3097 1187 3025 
Q 903 2953 641 2809 
L 641 3341 
Q 956 3463 1253 3523 
Q 1550 3584 1831 3584 
Q 2591 3584 2966 3190 
Q 3341 2797 3341 1997 
z
" id="DejaVuSans-61" transform="scale(0.015625)"/>
       <path d="M 1959 3097 
Q 1497 3097 1228 2736 
Q 959 2375 959 1747 
Q 959 1119 1226 758 
Q 1494 397 1959 397 
Q 2419 397 2687 759 
Q 2956 1122 2956 1747 
Q 2956 2369 2687 2733 
Q 2419 3097 1959 3097 
z
M 1959 3584 
Q 2709 3584 3137 3096 
Q 3566 2609 3566 1747 
Q 3566 888 3137 398 
Q 2709 -91 1959 -91 
Q 1206 -91 779 398 
Q 353 888 353 1747 
Q 353 2609 779 3096 
Q 1206 3584 1959 3584 
z
" id="DejaVuSans-6f" transform="scale(0.015625)"/>
       <path d="M 3513 2113 
L 3513 0 
L 2938 0 
L 2938 2094 
Q 2938 2591 2744 2837 
Q 2550 3084 2163 3084 
Q 1697 3084 1428 2787 
Q 1159 2491 1159 1978 
L 1159 0 
L 581 0 
L 581 3500 
L 1159 3500 
L 1159 2956 
Q 1366 3272 1645 3428 
Q 1925 3584 2291 3584 
Q 2894 3584 3203 3211 
Q 3513 2838 3513 2113 
z
" id="DejaVuSans-6e" transform="scale(0.015625)"/>
       <path d="M 2834 3397 
L 2834 2853 
Q 2591 2978 2328 3040 
Q 2066 3103 1784 3103 
Q 1356 3103 1142 2972 
Q 928 2841 928 2578 
Q 928 2378 1081 2264 
Q 1234 2150 1697 2047 
L 1894 2003 
Q 2506 1872 2764 1633 
Q 3022 1394 3022 966 
Q 3022 478 2636 193 
Q 2250 -91 1575 -91 
Q 1294 -91 989 -36 
Q 684 19 347 128 
L 347 722 
Q 666 556 975 473 
Q 1284 391 1588 391 
Q 1994 391 2212 530 
Q 2431 669 2431 922 
Q 2431 1156 2273 1281 
Q 2116 1406 1581 1522 
L 1381 1569 
Q 847 1681 609 1914 
Q 372 2147 372 2553 
Q 372 3047 722 3315 
Q 1072 3584 1716 3584 
Q 2034 3584 2315 3537 
Q 2597 3491 2834 3397 
z
" id="DejaVuSans-73" transform="scale(0.015625)"/>
      </defs>
      <use xlink:href="#DejaVuSans-69"/>
      <use x="27.783203" xlink:href="#DejaVuSans-74"/>
      <use x="66.992188" xlink:href="#DejaVuSans-65"/>
      <use x="128.515625" xlink:href="#DejaVuSans-72"/>
      <use x="169.628906" xlink:href="#DejaVuSans-61"/>
      <use x="230.908203" xlink:href="#DejaVuSans-74"/>
      <use x="270.117188" xlink:href="#DejaVuSans-69"/>
      <use x="297.900391" xlink:href="#DejaVuSans-6f"/>
      <use x="359.082031" xlink:href="#DejaVuSans-6e"/>
      <use x="422.460938" xlink:href="#DejaVuSans-73"/>
     </g>
    </g>
   </g>
   <g id="matplotlib.axis_2">
    <g id="ytick_1">
     <g id="line2d_7">
      <defs>
       <path d="M 0 0 
L -3.5 0 
" id="m7ff136a983" style="stroke:#000000;stroke-width:0.8;"/>
      </defs>
      <g>
       <use style="stroke:#000000;stroke-width:0.8;" x="60.2975" xlink:href="#m7ff136a983" y="488.189741"/>
      </g>
     </g>
     <g id="text_8">
      <!-- 0 -->
      <g transform="translate(38.0275 497.307866)scale(0.24 -0.24)">
       <use xlink:href="#DejaVuSans-30"/>
      </g>
     </g>
    </g>
    <g id="ytick_2">
     <g id="line2d_8">
      <g>
       <use style="stroke:#000000;stroke-width:0.8;" x="60.2975" xlink:href="#m7ff136a983" y="425.378685"/>
      </g>
     </g>
     <g id="text_9">
      <!-- 1 -->
      <g transform="translate(38.0275 434.49681)scale(0.24 -0.24)">
       <use xlink:href="#DejaVuSans-31"/>
      </g>
     </g>
    </g>
    <g id="ytick_3">
     <g id="line2d_9">
      <g>
       <use style="stroke:#000000;stroke-width:0.8;" x="60.2975" xlink:href="#m7ff136a983" y="362.567629"/>
      </g>
     </g>
     <g id="text_10">
      <!-- 2 -->
      <g transform="translate(38.0275 371.685754)scale(0.24 -0.24)">
       <use xlink:href="#DejaVuSans-32"/>
      </g>
     </g>
    </g>
    <g id="ytick_4">
     <g id="line2d_10">
      <g>
       <use style="stroke:#000000;stroke-width:0.8;" x="60.2975" xlink:href="#m7ff136a983" y="299.756573"/>
      </g>
     </g>
     <g id="text_11">
      <!-- 3 -->
      <g transform="translate(38.0275 308.874698)scale(0.24 -0.24)">
       <use xlink:href="#DejaVuSans-33"/>
      </g>
     </g>
    </g>
    <g id="ytick_5">
     <g id="line2d_11">
      <g>
       <use style="stroke:#000000;stroke-width:0.8;" x="60.2975" xlink:href="#m7ff136a983" y="236.945517"/>
      </g>
     </g>
     <g id="text_12">
      <!-- 4 -->
      <g transform="translate(38.0275 246.063642)scale(0.24 -0.24)">
       <use xlink:href="#DejaVuSans-34"/>
      </g>
     </g>
    </g>
    <g id="ytick_6">
     <g id="line2d_12">
      <g>
       <use style="stroke:#000000;stroke-width:0.8;" x="60.2975" xlink:href="#m7ff136a983" y="174.134461"/>
      </g>
     </g>
     <g id="text_13">
      <!-- 5 -->
      <g transform="translate(38.0275 183.252586)scale(0.24 -0.24)">
       <use xlink:href="#DejaVuSans-35"/>
      </g>
     </g>
    </g>
    <g id="ytick_7">
     <g id="line2d_13">
      <g>
       <use style="stroke:#000000;stroke-width:0.8;" x="60.2975" xlink:href="#m7ff136a983" y="111.323405"/>
      </g>
     </g>
     <g id="text_14">
      <!-- 6 -->
      <g transform="translate(38.0275 120.44153)scale(0.24 -0.24)">
       <defs>
        <path d="M 2113 2584 
Q 1688 2584 1439 2293 
Q 1191 2003 1191 1497 
Q 1191 994 1439 701 
Q 1688 409 2113 409 
Q 2538 409 2786 701 
Q 3034 994 3034 1497 
Q 3034 2003 2786 2293 
Q 2538 2584 2113 2584 
z
M 3366 4563 
L 3366 3988 
Q 3128 4100 2886 4159 
Q 2644 4219 2406 4219 
Q 1781 4219 1451 3797 
Q 1122 3375 1075 2522 
Q 1259 2794 1537 2939 
Q 1816 3084 2150 3084 
Q 2853 3084 3261 2657 
Q 3669 2231 3669 1497 
Q 3669 778 3244 343 
Q 2819 -91 2113 -91 
Q 1303 -91 875 529 
Q 447 1150 447 2328 
Q 447 3434 972 4092 
Q 1497 4750 2381 4750 
Q 2619 4750 2861 4703 
Q 3103 4656 3366 4563 
z
" id="DejaVuSans-36" transform="scale(0.015625)"/>
       </defs>
       <use xlink:href="#DejaVuSans-36"/>
      </g>
     </g>
    </g>
    <g id="ytick_8">
     <g id="line2d_14">
      <g>
       <use style="stroke:#000000;stroke-width:0.8;" x="60.2975" xlink:href="#m7ff136a983" y="48.512349"/>
      </g>
     </g>
     <g id="text_15">
      <!-- 7 -->
      <g transform="translate(38.0275 57.630474)scale(0.24 -0.24)">
       <defs>
        <path d="M 525 4666 
L 3525 4666 
L 3525 4397 
L 1831 0 
L 1172 0 
L 2766 4134 
L 525 4134 
L 525 4666 
z
" id="DejaVuSans-37" transform="scale(0.015625)"/>
       </defs>
       <use xlink:href="#DejaVuSans-37"/>
      </g>
     </g>
    </g>
    <g id="text_16">
     <!-- VQE energy -->
     <g transform="translate(29.03625 330.14)rotate(-90)scale(0.24 -0.24)">
      <defs>
       <path d="M 1831 0 
L 50 4666 
L 709 4666 
L 2188 738 
L 3669 4666 
L 4325 4666 
L 2547 0 
L 1831 0 
z
" id="DejaVuSans-56" transform="scale(0.015625)"/>
       <path d="M 2522 4238 
Q 1834 4238 1429 3725 
Q 1025 3213 1025 2328 
Q 1025 1447 1429 934 
Q 1834 422 2522 422 
Q 3209 422 3611 934 
Q 4013 1447 4013 2328 
Q 4013 3213 3611 3725 
Q 3209 4238 2522 4238 
z
M 3406 84 
L 4238 -825 
L 3475 -825 
L 2784 -78 
Q 2681 -84 2626 -87 
Q 2572 -91 2522 -91 
Q 1538 -91 948 567 
Q 359 1225 359 2328 
Q 359 3434 948 4092 
Q 1538 4750 2522 4750 
Q 3503 4750 4090 4092 
Q 4678 3434 4678 2328 
Q 4678 1516 4351 937 
Q 4025 359 3406 84 
z
" id="DejaVuSans-51" transform="scale(0.015625)"/>
       <path d="M 628 4666 
L 3578 4666 
L 3578 4134 
L 1259 4134 
L 1259 2753 
L 3481 2753 
L 3481 2222 
L 1259 2222 
L 1259 531 
L 3634 531 
L 3634 0 
L 628 0 
L 628 4666 
z
" id="DejaVuSans-45" transform="scale(0.015625)"/>
       <path id="DejaVuSans-20" transform="scale(0.015625)"/>
       <path d="M 2906 1791 
Q 2906 2416 2648 2759 
Q 2391 3103 1925 3103 
Q 1463 3103 1205 2759 
Q 947 2416 947 1791 
Q 947 1169 1205 825 
Q 1463 481 1925 481 
Q 2391 481 2648 825 
Q 2906 1169 2906 1791 
z
M 3481 434 
Q 3481 -459 3084 -895 
Q 2688 -1331 1869 -1331 
Q 1566 -1331 1297 -1286 
Q 1028 -1241 775 -1147 
L 775 -588 
Q 1028 -725 1275 -790 
Q 1522 -856 1778 -856 
Q 2344 -856 2625 -561 
Q 2906 -266 2906 331 
L 2906 616 
Q 2728 306 2450 153 
Q 2172 0 1784 0 
Q 1141 0 747 490 
Q 353 981 353 1791 
Q 353 2603 747 3093 
Q 1141 3584 1784 3584 
Q 2172 3584 2450 3431 
Q 2728 3278 2906 2969 
L 2906 3500 
L 3481 3500 
L 3481 434 
z
" id="DejaVuSans-67" transform="scale(0.015625)"/>
       <path d="M 2059 -325 
Q 1816 -950 1584 -1140 
Q 1353 -1331 966 -1331 
L 506 -1331 
L 506 -850 
L 844 -850 
Q 1081 -850 1212 -737 
Q 1344 -625 1503 -206 
L 1606 56 
L 191 3500 
L 800 3500 
L 1894 763 
L 2988 3500 
L 3597 3500 
L 2059 -325 
z
" id="DejaVuSans-79" transform="scale(0.015625)"/>
      </defs>
      <use xlink:href="#DejaVuSans-56"/>
      <use x="68.408203" xlink:href="#DejaVuSans-51"/>
      <use x="147.119141" xlink:href="#DejaVuSans-45"/>
      <use x="210.302734" xlink:href="#DejaVuSans-20"/>
      <use x="242.089844" xlink:href="#DejaVuSans-65"/>
      <use x="303.613281" xlink:href="#DejaVuSans-6e"/>
      <use x="366.992188" xlink:href="#DejaVuSans-65"/>
      <use x="428.515625" xlink:href="#DejaVuSans-72"/>
      <use x="467.878906" xlink:href="#DejaVuSans-67"/>
      <use x="531.355469" xlink:href="#DejaVuSans-79"/>
     </g>
    </g>
   </g>
   <g id="line2d_15">
    <path clip-path="url(#p64bd2549f6)" d="M 60.421172 61.669848 
L 60.668518 116.585363 
L 60.79219 112.123918 
L 61.039535 112.02575 
L 61.163207 115.272591 
L 61.410553 158.823035 
L 61.534225 164.415418 
L 61.657897 140.438437 
L 61.78157 162.957884 
L 62.028915 153.192245 
L 62.152587 159.475208 
L 62.27626 120.804442 
L 62.523605 148.710167 
L 62.647278 137.790891 
L 62.77095 147.961197 
L 62.894622 169.000106 
L 63.141967 155.235121 
L 63.26564 162.64814 
L 63.512985 140.389148 
L 63.636657 161.289035 
L 63.884003 159.651055 
L 64.007675 151.646007 
L 64.25502 170.404855 
L 64.378692 169.832959 
L 64.502365 168.062821 
L 64.626037 172.321888 
L 64.873383 210.10009 
L 64.997055 242.852857 
L 65.120728 223.878483 
L 65.2444 226.277282 
L 65.615417 244.830777 
L 65.73909 221.417225 
L 65.862763 262.188283 
L 65.986435 242.678811 
L 66.110107 242.807737 
L 66.357452 249.854509 
L 66.481125 266.505005 
L 66.604798 242.078408 
L 66.72847 279.303921 
L 66.852142 278.525168 
L 66.975815 266.877895 
L 67.099487 268.106227 
L 67.22316 279.021432 
L 67.470505 266.84871 
L 67.594178 270.138447 
L 67.71785 278.254724 
L 67.841522 250.377225 
L 68.088867 265.0821 
L 68.21254 291.473235 
L 68.459885 288.513768 
L 68.583557 274.610073 
L 68.70723 289.003624 
L 68.830902 275.989692 
L 69.20192 304.120085 
L 69.325592 288.157443 
L 69.449265 300.79413 
L 69.572937 276.97871 
L 69.820283 310.734668 
L 69.943955 310.34933 
L 70.067628 259.429701 
L 70.314972 305.253562 
L 70.438645 311.483656 
L 70.562318 310.618674 
L 70.68599 284.818737 
L 70.809663 284.368891 
L 71.057007 320.347284 
L 71.18068 321.643329 
L 71.304352 290.761922 
L 71.428025 311.38021 
L 71.551698 275.347553 
L 71.67537 313.378259 
L 71.922715 299.585525 
L 72.046387 326.397062 
L 72.17006 321.584028 
L 72.293733 321.394447 
L 72.541078 339.697674 
L 72.66475 351.765504 
L 72.788422 270.840652 
L 73.035767 345.067121 
L 73.15944 355.851407 
L 73.283113 324.96927 
L 73.406785 339.215996 
L 73.530457 315.897278 
L 73.65413 361.638501 
L 73.777802 338.385572 
L 74.025148 361.849198 
L 74.272492 353.18697 
L 74.396165 355.622926 
L 74.519837 347.988592 
L 74.64351 352.323443 
L 74.767183 351.095482 
L 74.890855 342.840772 
L 75.014527 342.286409 
L 75.1382 342.708485 
L 75.261872 315.411197 
L 75.385545 364.323181 
L 75.509218 333.773733 
L 75.63289 362.903282 
L 75.756563 327.08586 
L 75.880235 353.501847 
L 76.003907 325.594501 
L 76.12758 350.890992 
L 76.251252 320.256413 
L 76.498598 353.564393 
L 76.62227 360.19599 
L 76.745942 337.950581 
L 76.869615 368.383699 
L 76.993287 346.366023 
L 77.11696 351.748459 
L 77.240633 327.033903 
L 77.364305 367.252662 
L 77.487977 355.877839 
L 77.61165 377.734834 
L 77.735322 326.10612 
L 77.858995 374.694525 
L 77.982667 345.076753 
L 78.10634 368.219708 
L 78.230013 352.914131 
L 78.60103 379.131013 
L 78.724703 376.291494 
L 78.848375 382.150678 
L 78.972048 375.60567 
L 79.09572 382.69327 
L 79.219392 372.755118 
L 79.343065 383.45815 
L 79.466737 384.340013 
L 79.59041 383.876699 
L 79.837755 369.360672 
L 80.0851 389.832577 
L 80.208772 381.608154 
L 80.57979 398.212994 
L 80.703463 392.60551 
L 80.827135 393.447598 
L 80.950807 397.673618 
L 81.07448 375.926832 
L 81.321825 410.568692 
L 81.445498 409.141807 
L 81.56917 416.828962 
L 81.692842 413.413334 
L 81.816515 403.691195 
L 81.940187 416.436068 
L 82.06386 412.433446 
L 82.187533 417.668597 
L 82.311205 411.984109 
L 82.434877 412.389571 
L 82.55855 400.913279 
L 82.682222 420.09069 
L 82.805895 398.392681 
L 82.929567 413.46194 
L 83.05324 404.740945 
L 83.300585 420.706794 
L 83.424257 420.017428 
L 83.54793 411.110612 
L 83.671603 421.271803 
L 83.795275 409.35787 
L 83.918948 421.717058 
L 84.04262 392.807488 
L 84.166292 421.589328 
L 84.289965 422.697359 
L 84.413637 422.657066 
L 84.53731 413.142645 
L 84.660983 418.533839 
L 84.784655 415.597507 
L 84.908327 418.734294 
L 85.032 410.128102 
L 85.155672 414.202203 
L 85.279345 403.918072 
L 85.403018 416.77717 
L 85.52669 410.872219 
L 85.650362 419.471899 
L 85.774035 418.50069 
L 86.02138 411.227524 
L 86.145052 424.052281 
L 86.268725 408.808785 
L 86.392398 423.686494 
L 86.51607 403.889182 
L 86.639742 422.06043 
L 86.763415 408.78088 
L 87.01076 423.990136 
L 87.134433 423.195654 
L 87.381777 425.694834 
L 87.629122 427.019954 
L 87.752795 428.158813 
L 88.00014 426.518191 
L 88.123812 430.921257 
L 88.247485 427.838215 
L 88.49483 432.045636 
L 88.618503 427.940432 
L 88.742175 429.630932 
L 88.865848 429.707759 
L 89.113192 432.512505 
L 89.236865 431.708393 
L 89.360537 433.034502 
L 89.607883 431.746191 
L 89.731555 431.985606 
L 89.855227 434.549648 
L 89.9789 434.458947 
L 90.102572 432.571999 
L 90.226245 432.974951 
L 90.349918 430.333202 
L 90.47359 434.752731 
L 90.597262 432.494416 
L 90.720935 433.4487 
L 90.844607 432.470715 
L 91.091952 435.439201 
L 91.215625 434.469579 
L 91.339298 432.237901 
L 91.46297 432.688682 
L 91.586642 431.915911 
L 91.710315 435.645725 
L 91.833987 433.497382 
L 91.95766 433.478233 
L 92.205005 435.030908 
L 92.328677 436.712383 
L 92.699695 433.47243 
L 92.823367 433.974566 
L 92.94704 436.551064 
L 93.070712 436.179311 
L 93.194385 436.878166 
L 93.318057 431.67955 
L 93.44173 437.200866 
L 93.565403 432.583117 
L 93.812748 437.538263 
L 94.060092 435.78602 
L 94.183765 436.895767 
L 94.307437 435.376166 
L 94.43111 437.184184 
L 94.554782 436.186962 
L 94.678455 437.232468 
L 94.802127 434.312796 
L 94.9258 437.711743 
L 95.049473 437.266506 
L 95.173145 437.35158 
L 95.296818 435.055529 
L 95.42049 436.516311 
L 95.544162 436.406472 
L 95.667835 436.471003 
L 95.791507 434.696337 
L 95.91518 435.898557 
L 96.038852 439.287324 
L 96.286198 435.073059 
L 96.533542 437.404935 
L 96.657215 439.11667 
L 96.780888 436.652109 
L 96.90456 438.003273 
L 97.028233 436.994021 
L 97.275577 439.55552 
L 97.522922 440.665542 
L 97.646595 440.663693 
L 97.89394 440.047927 
L 98.017612 440.683064 
L 98.141285 439.920633 
L 98.264957 440.346469 
L 98.38863 440.002508 
L 98.512303 440.965401 
L 98.635975 440.374371 
L 99.130665 441.809579 
L 99.254337 441.733227 
L 99.37801 441.927349 
L 99.625355 440.994224 
L 99.749027 441.821115 
L 99.8727 440.189374 
L 99.996373 441.99282 
L 100.120045 440.681213 
L 100.243718 441.862356 
L 100.36739 440.975869 
L 100.491062 441.891522 
L 100.614735 440.798522 
L 100.86208 442.31921 
L 101.233097 442.185823 
L 101.35677 441.442521 
L 101.480442 442.254532 
L 101.604115 441.309919 
L 101.727788 442.208404 
L 101.85146 441.517439 
L 102.098805 441.974344 
L 102.222477 442.319337 
L 102.34615 441.415867 
L 102.469822 442.048767 
L 102.593495 441.516537 
L 102.717167 442.055458 
L 102.84084 441.28302 
L 102.964512 442.153669 
L 103.088185 441.477935 
L 103.211857 442.461506 
L 103.33553 441.261274 
L 103.459203 442.058039 
L 103.582875 442.082362 
L 103.706547 442.383489 
L 103.83022 441.581257 
L 103.953892 442.304827 
L 104.077565 441.729222 
L 104.201237 442.398699 
L 104.32491 442.145063 
L 104.448582 442.333422 
L 104.572255 441.968493 
L 104.695927 442.286282 
L 104.8196 442.292302 
L 105.066945 442.38589 
L 105.190618 442.114828 
L 105.437962 442.532656 
L 105.561635 442.70266 
L 105.685307 442.53747 
L 105.80898 442.724005 
L 106.179997 442.516836 
L 106.30367 442.720837 
L 106.427342 442.458097 
L 106.551015 442.890002 
L 106.674688 442.753216 
L 106.79836 442.887043 
L 107.045705 442.718499 
L 107.416722 442.905312 
L 107.78774 442.810266 
L 107.911412 442.537821 
L 108.035085 442.839376 
L 108.28243 442.714907 
L 108.529775 442.944641 
L 108.77712 442.876313 
L 108.900792 442.694103 
L 109.024465 442.770458 
L 109.148137 443.010203 
L 109.27181 442.893961 
L 109.395482 442.975904 
L 109.642827 442.754112 
L 109.7665 442.887798 
L 109.890173 442.824065 
L 110.137518 443.037381 
L 110.26119 442.908375 
L 110.508535 443.06309 
L 110.75588 442.901487 
L 111.003225 443.221929 
L 111.126897 442.942394 
L 111.25057 443.200543 
L 111.374242 442.71272 
L 111.621588 443.073165 
L 111.74526 443.257173 
L 112.23995 443.145458 
L 112.487295 443.31486 
L 112.610967 443.185086 
L 112.73464 443.268476 
L 112.858312 443.044164 
L 112.981985 443.296387 
L 113.600347 443.251694 
L 113.847692 443.290707 
L 113.971365 443.196513 
L 114.21871 443.340539 
L 114.342382 443.205937 
L 114.466055 443.27354 
L 114.589727 443.06901 
L 114.837073 443.248437 
L 115.084418 443.098954 
L 115.20809 443.252295 
L 115.331762 443.188485 
L 115.579107 443.441737 
L 115.826452 443.054304 
L 116.073797 443.514972 
L 116.568488 443.299033 
L 116.815832 443.597211 
L 116.939505 443.585548 
L 117.063177 443.365706 
L 117.310522 443.493498 
L 117.434195 443.408345 
L 117.68154 443.738413 
L 117.805212 443.562526 
L 118.17623 443.711422 
L 118.299903 443.462381 
L 118.423575 443.74869 
L 118.547247 443.494592 
L 118.67092 443.707891 
L 118.794592 443.627153 
L 119.16561 443.761329 
L 119.289282 443.458429 
L 119.412955 443.667835 
L 119.536627 443.555759 
L 119.907645 443.929495 
L 120.031318 443.662691 
L 120.278662 443.845795 
L 120.526007 443.674653 
L 120.64968 443.8901 
L 120.773352 443.725116 
L 120.897025 443.807048 
L 121.020697 443.680332 
L 121.14437 443.880303 
L 121.391715 443.773444 
L 121.63906 443.888331 
L 121.762732 443.756289 
L 121.886405 443.915785 
L 122.010077 443.73744 
L 122.13375 443.848266 
L 122.504767 443.627289 
L 122.62844 443.909109 
L 122.752112 443.905547 
L 122.875785 444.131374 
L 123.12313 443.991019 
L 123.370475 444.089819 
L 123.988837 444.150401 
L 124.359855 444.077414 
L 124.483527 444.12206 
L 124.6072 444.286326 
L 125.225562 444.278825 
L 126.09127 444.355839 
L 126.338615 444.359103 
L 128.812065 444.46665 
L 129.05941 444.599072 
L 129.430428 444.569588 
L 132.274895 444.790258 
L 132.398568 444.718881 
L 132.52224 444.839378 
L 132.893258 444.710107 
L 133.140602 444.81859 
L 133.264275 444.766342 
L 133.387947 444.839263 
L 133.51162 444.746737 
L 133.882637 444.937604 
L 134.253655 444.942945 
L 134.501 445.03012 
L 134.99569 445.121374 
L 135.366707 445.147158 
L 135.98507 445.161765 
L 136.232415 445.155672 
L 136.603432 445.091621 
L 138.087502 445.301458 
L 140.313607 445.33677 
L 141.055642 445.399202 
L 141.42666 445.437298 
L 141.550332 445.261707 
L 141.797677 445.5583 
L 149.83639 445.866791 
L 150.083735 446.037368 
L 150.578425 445.952168 
L 150.82577 446.013748 
L 151.938822 446.100629 
L 152.186168 446.199084 
L 152.433513 446.179418 
L 154.164927 446.280659 
L 154.2886 446.133283 
L 154.412272 446.27669 
L 154.535945 446.141088 
L 154.78329 446.260674 
L 163.316692 446.898685 
L 163.440365 446.994861 
L 163.68771 446.919912 
L 164.429745 447.090233 
L 164.553417 446.994569 
L 164.800762 447.159485 
L 165.542798 447.108575 
L 165.66647 447.149026 
L 165.790143 447.028273 
L 166.037487 447.177021 
L 166.284832 447.262338 
L 167.026867 447.250442 
L 167.274212 447.230948 
L 167.521557 447.260718 
L 168.881955 447.284745 
L 169.005628 447.159171 
L 169.252972 447.392625 
L 171.10806 447.471419 
L 171.479077 447.596247 
L 171.850095 447.577828 
L 174.57089 447.678528 
L 174.941907 447.741793 
L 175.56027 447.751613 
L 176.05496 447.812161 
L 176.425977 447.788509 
L 176.54965 447.874222 
L 176.796995 447.795606 
L 177.04434 447.997802 
L 177.168012 448.051149 
L 177.291685 447.962469 
L 177.415357 448.063943 
L 177.53903 447.957925 
L 177.786375 448.014982 
L 178.03372 448.151001 
L 178.404738 448.157174 
L 178.899428 448.206584 
L 179.0231 448.062958 
L 179.146772 448.201342 
L 179.270445 448.115871 
L 179.641462 448.222872 
L 179.765135 448.14544 
L 180.136152 448.251756 
L 180.383497 448.198758 
L 180.754515 448.354693 
L 181.249205 448.414451 
L 181.49655 448.367405 
L 182.238585 448.469618 
L 182.609602 448.411077 
L 182.856947 448.525093 
L 183.227965 448.580911 
L 183.47531 448.511373 
L 183.846327 448.606881 
L 184.835707 448.667531 
L 185.330398 448.666862 
L 185.577742 448.664983 
L 185.701415 448.819333 
L 185.825087 448.684391 
L 186.072432 448.775279 
L 186.44345 448.824211 
L 186.690795 448.810899 
L 188.174865 448.916651 
L 189.040572 448.948846 
L 189.41159 448.991864 
L 189.535262 448.928962 
L 189.658935 449.024336 
L 189.90628 449.001553 
L 190.277297 449.035178 
L 190.40097 448.906382 
L 190.648315 449.115478 
L 191.39035 449.158339 
L 192.256057 449.26941 
L 192.37973 449.180876 
L 192.87442 449.343174 
L 193.36911 449.206741 
L 193.492782 449.346987 
L 193.616455 449.288975 
L 193.740127 449.356286 
L 193.8638 449.188851 
L 194.111145 449.341048 
L 194.234817 449.326457 
L 194.482163 449.424105 
L 195.100525 449.482735 
L 199.058045 449.715692 
L 199.30539 449.836522 
L 199.552735 449.848518 
L 199.923752 449.895821 
L 202.397202 449.945939 
L 203.139237 450.027727 
L 203.633927 450.009156 
L 204.25229 450.088077 
L 204.375963 449.988092 
L 204.623308 450.112007 
L 205.117998 450.011603 
L 205.983705 450.206851 
L 206.23105 450.250004 
L 206.354722 450.098129 
L 206.72574 450.266572 
L 207.591448 450.281856 
L 208.457155 450.38606 
L 208.828172 450.31994 
L 209.19919 450.476135 
L 209.446535 450.463618 
L 212.043657 450.628825 
L 212.538347 450.641466 
L 213.15671 450.670627 
L 213.404055 450.714681 
L 213.775072 450.722893 
L 214.393435 450.687562 
L 214.64078 450.825193 
L 214.764453 450.739111 
L 214.888125 450.835318 
L 215.13547 450.775255 
L 215.506487 450.830351 
L 216.61954 450.819728 
L 216.990557 450.889616 
L 218.350955 451.047847 
L 218.474627 450.895606 
L 218.721972 451.078735 
L 219.340335 451.055512 
L 219.464007 450.887053 
L 219.711352 451.059257 
L 219.835025 451.001471 
L 220.08237 451.068318 
L 220.329715 451.064988 
L 220.57706 451.227225 
L 222.432147 451.302543 
L 222.55582 451.205798 
L 222.803165 451.316193 
L 223.5452 451.281879 
L 225.400287 451.327839 
L 225.52396 451.272138 
L 225.894977 451.460852 
L 226.637012 451.465167 
L 227.379048 451.49652 
L 227.626393 451.481001 
L 227.873738 451.51336 
L 227.99741 451.438231 
L 228.244755 451.547871 
L 228.739445 451.590603 
L 228.98679 451.518275 
L 229.234135 451.602838 
L 231.336568 451.656068 
L 231.583912 451.69974 
L 231.831257 451.760053 
L 231.95493 451.664765 
L 232.078602 451.741261 
L 232.202275 451.62071 
L 232.44962 451.785151 
L 232.820637 451.833236 
L 233.315327 451.888393 
L 233.686345 451.77346 
L 233.93369 451.903065 
L 234.304708 451.838348 
L 234.552053 451.938887 
L 235.294087 451.932424 
L 235.788777 452.070799 
L 236.90183 452.004799 
L 237.272848 452.065266 
L 237.520193 452.018482 
L 237.767538 452.088926 
L 238.3859 452.094882 
L 238.633245 452.216282 
L 239.004262 452.19795 
L 239.746297 452.206638 
L 239.86997 452.072586 
L 239.993642 452.189356 
L 240.117315 452.100817 
L 240.240987 452.192726 
L 240.36466 452.133528 
L 240.612005 452.230796 
L 241.106695 452.217472 
L 241.477712 452.229332 
L 241.601385 452.160266 
L 241.84873 452.212575 
L 242.096075 452.199732 
L 242.961782 452.33936 
L 243.209127 452.290179 
L 248.403372 452.480995 
L 248.527045 452.402238 
L 248.898062 452.532542 
L 249.26908 452.507216 
L 249.887442 452.575262 
L 250.25846 452.560161 
L 250.382133 452.581482 
L 250.505805 452.402378 
L 250.629478 452.563627 
L 251.000495 452.522693 
L 251.124167 452.624723 
L 251.371512 452.609479 
L 251.618857 452.62663 
L 251.866202 452.638671 
L 251.989875 452.544354 
L 252.23722 452.666855 
L 253.2266 452.663116 
L 253.844963 452.730367 
L 253.968635 452.588034 
L 254.092308 452.700372 
L 254.21598 452.617699 
L 254.463325 452.716554 
L 254.71067 452.749608 
L 255.823722 452.822744 
L 255.947395 452.681379 
L 256.19474 452.803732 
L 256.565757 452.804071 
L 256.813102 452.839231 
L 260.028587 452.917047 
L 260.275933 452.981902 
L 261.265312 452.98722 
L 261.512657 453.064339 
L 262.378365 452.909784 
L 262.62571 453.097477 
L 263.862435 453.00475 
L 263.986108 453.169482 
L 264.10978 453.040497 
L 264.357125 453.139307 
L 264.480797 453.178434 
L 264.60447 453.001565 
L 264.728142 453.13811 
L 264.851815 453.105608 
L 265.09916 453.15869 
L 265.717522 453.165979 
L 266.08854 453.190846 
L 268.685662 453.274224 
L 269.304025 453.39742 
L 269.922387 453.377015 
L 270.664423 453.429248 
L 270.788095 453.314886 
L 270.911767 453.44507 
L 271.03544 453.341923 
L 271.159112 453.460262 
L 271.282785 453.380732 
L 271.406457 453.450883 
L 271.53013 453.364476 
L 271.777475 453.439751 
L 272.148492 453.511497 
L 272.890527 453.51073 
L 273.137872 453.432125 
L 273.50889 453.475113 
L 274.49827 453.544374 
L 275.240305 453.640086 
L 275.858667 453.601462 
L 276.106012 453.635958 
L 276.600703 453.661392 
L 277.095393 453.672495 
L 277.590082 453.754508 
L 277.713755 453.642465 
L 277.9611 453.735185 
L 278.332117 453.766643 
L 278.45579 453.667354 
L 278.703135 453.714419 
L 279.074152 453.772182 
L 279.568842 453.665167 
L 279.816187 453.745016 
L 280.558222 453.750159 
L 280.805567 453.762031 
L 281.052912 453.739581 
L 281.300257 453.811124 
L 281.671275 453.73763 
L 282.042292 453.830462 
L 284.268397 453.948381 
L 284.639415 453.868811 
L 285.010432 453.959738 
L 285.628795 453.915357 
L 287.607555 453.96741 
L 288.84428 453.989257 
L 289.215297 454.072017 
L 291.31773 454.130146 
L 292.8018 454.189128 
L 293.914852 454.220258 
L 296.511975 454.272251 
L 298.24339 454.343758 
L 299.23277 454.357912 
L 299.603788 454.39715 
L 301.829892 454.474197 
L 302.819272 454.529806 
L 303.808652 454.556024 
L 304.303342 454.579863 
L 305.045377 454.59488 
L 307.14781 454.600771 
L 308.260862 454.648756 
L 309.250242 454.626266 
L 309.62126 454.678157 
L 310.363295 454.710231 
L 312.09471 454.721028 
L 312.342055 454.719529 
L 313.455107 454.785095 
L 315.06285 454.797667 
L 322.235855 454.966356 
L 322.4832 454.957518 
L 324.090942 455.003178 
L 330.39824 455.081474 
L 336.210847 455.157905 
L 336.458192 455.149632 
L 337.076555 455.160453 
L 342.889162 455.25815 
L 343.26018 455.245185 
L 347.094027 455.322164 
L 348.70177 455.347674 
L 350.309512 455.371983 
L 357.977207 455.474627 
L 358.842915 455.482463 
L 362.924107 455.526446 
L 363.295125 455.525372 
L 366.386937 455.553444 
L 368.242025 455.551592 
L 389.142677 455.682876 
L 393.71856 455.690923 
L 634.508917 455.90585 
L 678.783672 455.907981 
L 678.783672 455.907981 
" style="fill:none;stroke:#1f77b4;stroke-linecap:square;stroke-width:3;"/>
   </g>
   <g id="line2d_16">
    <path clip-path="url(#p64bd2549f6)" d="M 60.421172 49.42604 
L 64.873383 49.42604 
L 64.997055 127.47169 
L 69.449265 127.47169 
L 69.572937 113.610509 
L 69.69661 120.599385 
L 69.820283 165.959646 
L 74.272492 165.959646 
L 74.396165 215.979458 
L 78.848375 215.979458 
L 78.972048 33.388409 
L 79.09572 292.824523 
L 83.54793 292.824523 
L 83.671603 298.052972 
L 83.795275 325.058217 
L 88.247485 325.058217 
L 88.371157 359.892186 
L 92.823367 359.892186 
L 92.94704 374.563563 
L 97.39925 374.563563 
L 97.522922 377.793544 
L 101.975133 377.793544 
L 102.098805 382.525232 
L 106.551015 382.525231 
L 106.674688 385.257733 
L 111.126897 385.257733 
L 111.25057 387.116203 
L 115.70278 387.116203 
L 115.826452 388.046245 
L 120.278662 388.046245 
L 120.402335 390.069856 
L 124.854545 390.069856 
L 124.978217 399.831452 
L 129.430428 399.831451 
L 129.5541 415.939368 
L 134.00631 415.939368 
L 134.129982 343.286959 
L 134.253655 421.711007 
L 138.705865 421.711007 
L 138.829537 425.871155 
L 143.281747 425.871155 
L 143.40542 431.029225 
L 147.85763 431.029225 
L 147.981302 435.045804 
L 152.433513 435.045804 
L 152.557185 439.132343 
L 157.009395 439.132343 
L 157.133067 444.237658 
L 161.585277 444.237658 
L 161.70895 447.667327 
L 166.16116 447.667327 
L 166.284832 432.51026 
L 166.408505 448.008068 
L 170.860715 448.008068 
L 170.984387 445.813656 
L 171.10806 448.600294 
L 175.56027 448.600294 
L 175.683943 449.070743 
L 180.136152 449.070743 
L 180.383497 449.273085 
L 184.712035 449.273085 
L 184.95938 449.478198 
L 193.8638 449.577583 
L 194.234817 449.622893 
L 285.505122 449.711258 
L 285.505122 449.711258 
" style="fill:none;stroke:#ff7f0e;stroke-linecap:square;stroke-width:3;"/>
   </g>
   <g id="line2d_17">
    <path clip-path="url(#p64bd2549f6)" d="M 60.421172 191.825321 
L 64.873383 191.825321 
L 64.997055 256.805619 
L 69.449265 256.805619 
L 69.572937 290.285034 
L 74.025148 290.285034 
L 74.14882 325.882368 
L 78.60103 325.882368 
L 78.724703 342.818834 
L 83.176913 342.818834 
L 83.300585 357.851026 
L 87.752795 357.851026 
L 87.876467 364.212073 
L 92.328677 364.212073 
L 92.45235 372.281188 
L 96.90456 372.281188 
L 97.028233 380.40066 
L 101.480442 380.40066 
L 101.604115 385.857219 
L 106.056325 385.857219 
L 106.179997 393.93087 
L 110.632207 393.93087 
L 110.75588 407.706467 
L 115.20809 407.706467 
L 115.331762 423.755824 
L 119.783973 423.755824 
L 119.907645 375.944599 
L 124.359855 375.944599 
L 124.483527 433.535118 
L 128.935737 433.535118 
L 129.05941 445.293832 
L 133.51162 445.293832 
L 133.635292 444.575002 
L 138.087502 444.575002 
L 138.211175 447.251517 
L 142.663385 447.251517 
L 142.787058 448.21732 
L 147.239267 448.21732 
L 147.36294 448.499452 
L 156.391032 448.60853 
L 156.638377 448.67469 
L 215.877505 448.781329 
L 216.001177 445.45994 
L 220.453387 445.45994 
L 220.57706 448.825703 
L 229.605152 448.896944 
L 229.852497 449.004048 
L 234.181035 449.004048 
L 234.42838 449.198722 
L 243.3328 449.287226 
L 243.580145 449.38826 
L 307.395155 449.490439 
L 308.63188 449.501902 
L 353.15398 449.599273 
L 353.772342 449.622147 
L 678.783672 449.711266 
L 678.783672 449.711266 
" style="fill:none;stroke:#2ca02c;stroke-linecap:square;stroke-width:3;"/>
   </g>
   <g id="line2d_18">
    <path clip-path="url(#p64bd2549f6)" d="M 60.2975 485.156591 
L 678.66 485.156591 
" style="fill:none;stroke:#000000;stroke-dasharray:7.4,3.2;stroke-dashoffset:0;stroke-width:2;"/>
   </g>
   <g id="patch_3">
    <path d="M 60.2975 507.745 
L 60.2975 10.8 
" style="fill:none;stroke:#000000;stroke-linecap:square;stroke-linejoin:miter;stroke-width:0.8;"/>
   </g>
   <g id="patch_4">
    <path d="M 678.66 507.745 
L 678.66 10.8 
" style="fill:none;stroke:#000000;stroke-linecap:square;stroke-linejoin:miter;stroke-width:0.8;"/>
   </g>
   <g id="patch_5">
    <path d="M 60.2975 507.745 
L 678.66 507.745 
" style="fill:none;stroke:#000000;stroke-linecap:square;stroke-linejoin:miter;stroke-width:0.8;"/>
   </g>
   <g id="patch_6">
    <path d="M 60.2975 10.8 
L 678.66 10.8 
" style="fill:none;stroke:#000000;stroke-linecap:square;stroke-linejoin:miter;stroke-width:0.8;"/>
   </g>
   <g id="legend_1">
    <g id="patch_7">
     <path d="M 475.96125 170.91 
L 661.86 170.91 
Q 666.66 170.91 666.66 166.11 
L 666.66 27.6 
Q 666.66 22.8 661.86 22.8 
L 475.96125 22.8 
Q 471.16125 22.8 471.16125 27.6 
L 471.16125 166.11 
Q 471.16125 170.91 475.96125 170.91 
z
" style="fill:#ffffff;opacity:0.8;stroke:#cccccc;stroke-linejoin:miter;"/>
    </g>
    <g id="line2d_19">
     <path d="M 480.76125 42.23625 
L 528.76125 42.23625 
" style="fill:none;stroke:#1f77b4;stroke-linecap:square;stroke-width:3;"/>
    </g>
    <g id="line2d_20"/>
    <g id="text_17">
     <!-- COBYLA -->
     <g transform="translate(547.96125 50.63625)scale(0.24 -0.24)">
      <defs>
       <path d="M 4122 4306 
L 4122 3641 
Q 3803 3938 3442 4084 
Q 3081 4231 2675 4231 
Q 1875 4231 1450 3742 
Q 1025 3253 1025 2328 
Q 1025 1406 1450 917 
Q 1875 428 2675 428 
Q 3081 428 3442 575 
Q 3803 722 4122 1019 
L 4122 359 
Q 3791 134 3420 21 
Q 3050 -91 2638 -91 
Q 1578 -91 968 557 
Q 359 1206 359 2328 
Q 359 3453 968 4101 
Q 1578 4750 2638 4750 
Q 3056 4750 3426 4639 
Q 3797 4528 4122 4306 
z
" id="DejaVuSans-43" transform="scale(0.015625)"/>
       <path d="M 2522 4238 
Q 1834 4238 1429 3725 
Q 1025 3213 1025 2328 
Q 1025 1447 1429 934 
Q 1834 422 2522 422 
Q 3209 422 3611 934 
Q 4013 1447 4013 2328 
Q 4013 3213 3611 3725 
Q 3209 4238 2522 4238 
z
M 2522 4750 
Q 3503 4750 4090 4092 
Q 4678 3434 4678 2328 
Q 4678 1225 4090 567 
Q 3503 -91 2522 -91 
Q 1538 -91 948 565 
Q 359 1222 359 2328 
Q 359 3434 948 4092 
Q 1538 4750 2522 4750 
z
" id="DejaVuSans-4f" transform="scale(0.015625)"/>
       <path d="M 1259 2228 
L 1259 519 
L 2272 519 
Q 2781 519 3026 730 
Q 3272 941 3272 1375 
Q 3272 1813 3026 2020 
Q 2781 2228 2272 2228 
L 1259 2228 
z
M 1259 4147 
L 1259 2741 
L 2194 2741 
Q 2656 2741 2882 2914 
Q 3109 3088 3109 3444 
Q 3109 3797 2882 3972 
Q 2656 4147 2194 4147 
L 1259 4147 
z
M 628 4666 
L 2241 4666 
Q 2963 4666 3353 4366 
Q 3744 4066 3744 3513 
Q 3744 3084 3544 2831 
Q 3344 2578 2956 2516 
Q 3422 2416 3680 2098 
Q 3938 1781 3938 1306 
Q 3938 681 3513 340 
Q 3088 0 2303 0 
L 628 0 
L 628 4666 
z
" id="DejaVuSans-42" transform="scale(0.015625)"/>
       <path d="M -13 4666 
L 666 4666 
L 1959 2747 
L 3244 4666 
L 3922 4666 
L 2272 2222 
L 2272 0 
L 1638 0 
L 1638 2222 
L -13 4666 
z
" id="DejaVuSans-59" transform="scale(0.015625)"/>
       <path d="M 628 4666 
L 1259 4666 
L 1259 531 
L 3531 531 
L 3531 0 
L 628 0 
L 628 4666 
z
" id="DejaVuSans-4c" transform="scale(0.015625)"/>
       <path d="M 2188 4044 
L 1331 1722 
L 3047 1722 
L 2188 4044 
z
M 1831 4666 
L 2547 4666 
L 4325 0 
L 3669 0 
L 3244 1197 
L 1141 1197 
L 716 0 
L 50 0 
L 1831 4666 
z
" id="DejaVuSans-41" transform="scale(0.015625)"/>
      </defs>
      <use xlink:href="#DejaVuSans-43"/>
      <use x="69.824219" xlink:href="#DejaVuSans-4f"/>
      <use x="148.535156" xlink:href="#DejaVuSans-42"/>
      <use x="211.638672" xlink:href="#DejaVuSans-59"/>
      <use x="272.722656" xlink:href="#DejaVuSans-4c"/>
      <use x="330.685547" xlink:href="#DejaVuSans-41"/>
     </g>
    </g>
    <g id="line2d_21">
     <path d="M 480.76125 77.46375 
L 528.76125 77.46375 
" style="fill:none;stroke:#ff7f0e;stroke-linecap:square;stroke-width:3;"/>
    </g>
    <g id="line2d_22"/>
    <g id="text_18">
     <!-- SLSQP -->
     <g transform="translate(547.96125 85.86375)scale(0.24 -0.24)">
      <defs>
       <path d="M 3425 4513 
L 3425 3897 
Q 3066 4069 2747 4153 
Q 2428 4238 2131 4238 
Q 1616 4238 1336 4038 
Q 1056 3838 1056 3469 
Q 1056 3159 1242 3001 
Q 1428 2844 1947 2747 
L 2328 2669 
Q 3034 2534 3370 2195 
Q 3706 1856 3706 1288 
Q 3706 609 3251 259 
Q 2797 -91 1919 -91 
Q 1588 -91 1214 -16 
Q 841 59 441 206 
L 441 856 
Q 825 641 1194 531 
Q 1563 422 1919 422 
Q 2459 422 2753 634 
Q 3047 847 3047 1241 
Q 3047 1584 2836 1778 
Q 2625 1972 2144 2069 
L 1759 2144 
Q 1053 2284 737 2584 
Q 422 2884 422 3419 
Q 422 4038 858 4394 
Q 1294 4750 2059 4750 
Q 2388 4750 2728 4690 
Q 3069 4631 3425 4513 
z
" id="DejaVuSans-53" transform="scale(0.015625)"/>
       <path d="M 1259 4147 
L 1259 2394 
L 2053 2394 
Q 2494 2394 2734 2622 
Q 2975 2850 2975 3272 
Q 2975 3691 2734 3919 
Q 2494 4147 2053 4147 
L 1259 4147 
z
M 628 4666 
L 2053 4666 
Q 2838 4666 3239 4311 
Q 3641 3956 3641 3272 
Q 3641 2581 3239 2228 
Q 2838 1875 2053 1875 
L 1259 1875 
L 1259 0 
L 628 0 
L 628 4666 
z
" id="DejaVuSans-50" transform="scale(0.015625)"/>
      </defs>
      <use xlink:href="#DejaVuSans-53"/>
      <use x="63.476562" xlink:href="#DejaVuSans-4c"/>
      <use x="119.189453" xlink:href="#DejaVuSans-53"/>
      <use x="182.666016" xlink:href="#DejaVuSans-51"/>
      <use x="261.376953" xlink:href="#DejaVuSans-50"/>
     </g>
    </g>
    <g id="line2d_23">
     <path d="M 480.76125 112.69125 
L 528.76125 112.69125 
" style="fill:none;stroke:#2ca02c;stroke-linecap:square;stroke-width:3;"/>
    </g>
    <g id="line2d_24"/>
    <g id="text_19">
     <!-- L-BFGS-B -->
     <g transform="translate(547.96125 121.09125)scale(0.24 -0.24)">
      <defs>
       <path d="M 313 2009 
L 1997 2009 
L 1997 1497 
L 313 1497 
L 313 2009 
z
" id="DejaVuSans-2d" transform="scale(0.015625)"/>
       <path d="M 628 4666 
L 3309 4666 
L 3309 4134 
L 1259 4134 
L 1259 2759 
L 3109 2759 
L 3109 2228 
L 1259 2228 
L 1259 0 
L 628 0 
L 628 4666 
z
" id="DejaVuSans-46" transform="scale(0.015625)"/>
       <path d="M 3809 666 
L 3809 1919 
L 2778 1919 
L 2778 2438 
L 4434 2438 
L 4434 434 
Q 4069 175 3628 42 
Q 3188 -91 2688 -91 
Q 1594 -91 976 548 
Q 359 1188 359 2328 
Q 359 3472 976 4111 
Q 1594 4750 2688 4750 
Q 3144 4750 3555 4637 
Q 3966 4525 4313 4306 
L 4313 3634 
Q 3963 3931 3569 4081 
Q 3175 4231 2741 4231 
Q 1884 4231 1454 3753 
Q 1025 3275 1025 2328 
Q 1025 1384 1454 906 
Q 1884 428 2741 428 
Q 3075 428 3337 486 
Q 3600 544 3809 666 
z
" id="DejaVuSans-47" transform="scale(0.015625)"/>
      </defs>
      <use xlink:href="#DejaVuSans-4c"/>
      <use x="53.962891" xlink:href="#DejaVuSans-2d"/>
      <use x="86.421875" xlink:href="#DejaVuSans-42"/>
      <use x="155.025391" xlink:href="#DejaVuSans-46"/>
      <use x="212.544922" xlink:href="#DejaVuSans-47"/>
      <use x="290.035156" xlink:href="#DejaVuSans-53"/>
      <use x="353.511719" xlink:href="#DejaVuSans-2d"/>
      <use x="385.970703" xlink:href="#DejaVuSans-42"/>
     </g>
    </g>
    <g id="line2d_25">
     <path d="M 480.76125 147.91875 
L 528.76125 147.91875 
" style="fill:none;stroke:#000000;stroke-dasharray:7.4,3.2;stroke-dashoffset:0;stroke-width:2;"/>
    </g>
    <g id="line2d_26"/>
    <g id="text_20">
     <!-- HT -->
     <g transform="translate(547.96125 156.31875)scale(0.24 -0.24)">
      <defs>
       <path d="M 628 4666 
L 1259 4666 
L 1259 2753 
L 3553 2753 
L 3553 4666 
L 4184 4666 
L 4184 0 
L 3553 0 
L 3553 2222 
L 1259 2222 
L 1259 0 
L 628 0 
L 628 4666 
z
" id="DejaVuSans-48" transform="scale(0.015625)"/>
       <path d="M -19 4666 
L 3928 4666 
L 3928 4134 
L 2272 4134 
L 2272 0 
L 1638 0 
L 1638 4134 
L -19 4134 
L -19 4666 
z
" id="DejaVuSans-54" transform="scale(0.015625)"/>
      </defs>
      <use xlink:href="#DejaVuSans-48"/>
      <use x="75.195312" xlink:href="#DejaVuSans-54"/>
     </g>
    </g>
   </g>
  </g>
 </g>
 <defs>
  <clipPath id="p64bd2549f6">
   <rect height="496.945" width="618.3625" x="60.2975" y="10.8"/>
  </clipPath>
 </defs>
</svg>
