<?xml version="1.0" encoding="utf-8" standalone="no"?>
<!DOCTYPE svg PUBLIC "-//W3C//DTD SVG 1.1//EN"
  "http://www.w3.org/Graphics/SVG/1.1/DTD/svg11.dtd">
<svg height="576pt" version="1.1" viewBox="0 0 720 576" width="720pt" xmlns="http://www.w3.org/2000/svg" xmlns:xlink="http://www.w3.org/1999/xlink">
 <metadata>
  <rdf:RDF xmlns:cc="http://creativecommons.org/ns#" xmlns:dc="http://purl.org/dc/elements/1.1/" xmlns:rdf="http://www.w3.org/1999/02/22-rdf-syntax-ns#">
   <cc:Work>
    <dc:type rdf:resource="http://purl.org/dc/dcmitype/StillImage"/>
    <dc:date>2021-07-30T13:00:24.235744</dc:date>
    <dc:format>image/svg+xml</dc:format>
    <dc:creator>
     <cc:Agent>
      <dc:title>Matplotlib v3.4.2, https://matplotlib.org/</dc:title>
     </cc:Agent>
    </dc:creator>
   </cc:Work>
  </rdf:RDF>
 </metadata>
 <defs>
  <style type="text/css">*{stroke-linecap:butt;stroke-linejoin:round;}</style>
 </defs>
 <g id="figure_1">
  <g id="patch_1">
   <path d="M 0 576 
L 720 576 
L 720 0 
L 0 0 
z
" style="fill:#ffffff;"/>
  </g>
  <g id="axes_1">
   <g id="patch_2">
    <path d="M 60.2975 507.745 
L 671.025 507.745 
L 671.025 10.8 
L 60.2975 10.8 
z
" style="fill:#ffffff;"/>
   </g>
   <g id="matplotlib.axis_1">
    <g id="xtick_1">
     <g id="line2d_1">
      <defs>
       <path d="M 0 0 
L 0 3.5 
" id="m1b40cba194" style="stroke:#000000;stroke-width:0.8;"/>
      </defs>
      <g>
       <use style="stroke:#000000;stroke-width:0.8;" x="60.2975" xlink:href="#m1b40cba194" y="507.745"/>
      </g>
     </g>
     <g id="text_1">
      <!-- 0 -->
      <g transform="translate(52.6625 532.98125)scale(0.24 -0.24)">
       <defs>
        <path d="M 2034 4250 
Q 1547 4250 1301 3770 
Q 1056 3291 1056 2328 
Q 1056 1369 1301 889 
Q 1547 409 2034 409 
Q 2525 409 2770 889 
Q 3016 1369 3016 2328 
Q 3016 3291 2770 3770 
Q 2525 4250 2034 4250 
z
M 2034 4750 
Q 2819 4750 3233 4129 
Q 3647 3509 3647 2328 
Q 3647 1150 3233 529 
Q 2819 -91 2034 -91 
Q 1250 -91 836 529 
Q 422 1150 422 2328 
Q 422 3509 836 4129 
Q 1250 4750 2034 4750 
z
" id="DejaVuSans-30" transform="scale(0.015625)"/>
       </defs>
       <use xlink:href="#DejaVuSans-30"/>
      </g>
     </g>
    </g>
    <g id="xtick_2">
     <g id="line2d_2">
      <g>
       <use style="stroke:#000000;stroke-width:0.8;" x="182.443" xlink:href="#m1b40cba194" y="507.745"/>
      </g>
     </g>
     <g id="text_2">
      <!-- 2000 -->
      <g transform="translate(151.903 532.98125)scale(0.24 -0.24)">
       <defs>
        <path d="M 1228 531 
L 3431 531 
L 3431 0 
L 469 0 
L 469 531 
Q 828 903 1448 1529 
Q 2069 2156 2228 2338 
Q 2531 2678 2651 2914 
Q 2772 3150 2772 3378 
Q 2772 3750 2511 3984 
Q 2250 4219 1831 4219 
Q 1534 4219 1204 4116 
Q 875 4013 500 3803 
L 500 4441 
Q 881 4594 1212 4672 
Q 1544 4750 1819 4750 
Q 2544 4750 2975 4387 
Q 3406 4025 3406 3419 
Q 3406 3131 3298 2873 
Q 3191 2616 2906 2266 
Q 2828 2175 2409 1742 
Q 1991 1309 1228 531 
z
" id="DejaVuSans-32" transform="scale(0.015625)"/>
       </defs>
       <use xlink:href="#DejaVuSans-32"/>
       <use x="63.623047" xlink:href="#DejaVuSans-30"/>
       <use x="127.246094" xlink:href="#DejaVuSans-30"/>
       <use x="190.869141" xlink:href="#DejaVuSans-30"/>
      </g>
     </g>
    </g>
    <g id="xtick_3">
     <g id="line2d_3">
      <g>
       <use style="stroke:#000000;stroke-width:0.8;" x="304.5885" xlink:href="#m1b40cba194" y="507.745"/>
      </g>
     </g>
     <g id="text_3">
      <!-- 4000 -->
      <g transform="translate(274.0485 532.98125)scale(0.24 -0.24)">
       <defs>
        <path d="M 2419 4116 
L 825 1625 
L 2419 1625 
L 2419 4116 
z
M 2253 4666 
L 3047 4666 
L 3047 1625 
L 3713 1625 
L 3713 1100 
L 3047 1100 
L 3047 0 
L 2419 0 
L 2419 1100 
L 313 1100 
L 313 1709 
L 2253 4666 
z
" id="DejaVuSans-34" transform="scale(0.015625)"/>
       </defs>
       <use xlink:href="#DejaVuSans-34"/>
       <use x="63.623047" xlink:href="#DejaVuSans-30"/>
       <use x="127.246094" xlink:href="#DejaVuSans-30"/>
       <use x="190.869141" xlink:href="#DejaVuSans-30"/>
      </g>
     </g>
    </g>
    <g id="xtick_4">
     <g id="line2d_4">
      <g>
       <use style="stroke:#000000;stroke-width:0.8;" x="426.734" xlink:href="#m1b40cba194" y="507.745"/>
      </g>
     </g>
     <g id="text_4">
      <!-- 6000 -->
      <g transform="translate(396.194 532.98125)scale(0.24 -0.24)">
       <defs>
        <path d="M 2113 2584 
Q 1688 2584 1439 2293 
Q 1191 2003 1191 1497 
Q 1191 994 1439 701 
Q 1688 409 2113 409 
Q 2538 409 2786 701 
Q 3034 994 3034 1497 
Q 3034 2003 2786 2293 
Q 2538 2584 2113 2584 
z
M 3366 4563 
L 3366 3988 
Q 3128 4100 2886 4159 
Q 2644 4219 2406 4219 
Q 1781 4219 1451 3797 
Q 1122 3375 1075 2522 
Q 1259 2794 1537 2939 
Q 1816 3084 2150 3084 
Q 2853 3084 3261 2657 
Q 3669 2231 3669 1497 
Q 3669 778 3244 343 
Q 2819 -91 2113 -91 
Q 1303 -91 875 529 
Q 447 1150 447 2328 
Q 447 3434 972 4092 
Q 1497 4750 2381 4750 
Q 2619 4750 2861 4703 
Q 3103 4656 3366 4563 
z
" id="DejaVuSans-36" transform="scale(0.015625)"/>
       </defs>
       <use xlink:href="#DejaVuSans-36"/>
       <use x="63.623047" xlink:href="#DejaVuSans-30"/>
       <use x="127.246094" xlink:href="#DejaVuSans-30"/>
       <use x="190.869141" xlink:href="#DejaVuSans-30"/>
      </g>
     </g>
    </g>
    <g id="xtick_5">
     <g id="line2d_5">
      <g>
       <use style="stroke:#000000;stroke-width:0.8;" x="548.8795" xlink:href="#m1b40cba194" y="507.745"/>
      </g>
     </g>
     <g id="text_5">
      <!-- 8000 -->
      <g transform="translate(518.3395 532.98125)scale(0.24 -0.24)">
       <defs>
        <path d="M 2034 2216 
Q 1584 2216 1326 1975 
Q 1069 1734 1069 1313 
Q 1069 891 1326 650 
Q 1584 409 2034 409 
Q 2484 409 2743 651 
Q 3003 894 3003 1313 
Q 3003 1734 2745 1975 
Q 2488 2216 2034 2216 
z
M 1403 2484 
Q 997 2584 770 2862 
Q 544 3141 544 3541 
Q 544 4100 942 4425 
Q 1341 4750 2034 4750 
Q 2731 4750 3128 4425 
Q 3525 4100 3525 3541 
Q 3525 3141 3298 2862 
Q 3072 2584 2669 2484 
Q 3125 2378 3379 2068 
Q 3634 1759 3634 1313 
Q 3634 634 3220 271 
Q 2806 -91 2034 -91 
Q 1263 -91 848 271 
Q 434 634 434 1313 
Q 434 1759 690 2068 
Q 947 2378 1403 2484 
z
M 1172 3481 
Q 1172 3119 1398 2916 
Q 1625 2713 2034 2713 
Q 2441 2713 2670 2916 
Q 2900 3119 2900 3481 
Q 2900 3844 2670 4047 
Q 2441 4250 2034 4250 
Q 1625 4250 1398 4047 
Q 1172 3844 1172 3481 
z
" id="DejaVuSans-38" transform="scale(0.015625)"/>
       </defs>
       <use xlink:href="#DejaVuSans-38"/>
       <use x="63.623047" xlink:href="#DejaVuSans-30"/>
       <use x="127.246094" xlink:href="#DejaVuSans-30"/>
       <use x="190.869141" xlink:href="#DejaVuSans-30"/>
      </g>
     </g>
    </g>
    <g id="xtick_6">
     <g id="line2d_6">
      <g>
       <use style="stroke:#000000;stroke-width:0.8;" x="671.025" xlink:href="#m1b40cba194" y="507.745"/>
      </g>
     </g>
     <g id="text_6">
      <!-- 10000 -->
      <g transform="translate(632.85 532.98125)scale(0.24 -0.24)">
       <defs>
        <path d="M 794 531 
L 1825 531 
L 1825 4091 
L 703 3866 
L 703 4441 
L 1819 4666 
L 2450 4666 
L 2450 531 
L 3481 531 
L 3481 0 
L 794 0 
L 794 531 
z
" id="DejaVuSans-31" transform="scale(0.015625)"/>
       </defs>
       <use xlink:href="#DejaVuSans-31"/>
       <use x="63.623047" xlink:href="#DejaVuSans-30"/>
       <use x="127.246094" xlink:href="#DejaVuSans-30"/>
       <use x="190.869141" xlink:href="#DejaVuSans-30"/>
       <use x="254.492188" xlink:href="#DejaVuSans-30"/>
      </g>
     </g>
    </g>
    <g id="text_7">
     <!-- iterations -->
     <g transform="translate(308.715625 560.20875)scale(0.24 -0.24)">
      <defs>
       <path d="M 603 3500 
L 1178 3500 
L 1178 0 
L 603 0 
L 603 3500 
z
M 603 4863 
L 1178 4863 
L 1178 4134 
L 603 4134 
L 603 4863 
z
" id="DejaVuSans-69" transform="scale(0.015625)"/>
       <path d="M 1172 4494 
L 1172 3500 
L 2356 3500 
L 2356 3053 
L 1172 3053 
L 1172 1153 
Q 1172 725 1289 603 
Q 1406 481 1766 481 
L 2356 481 
L 2356 0 
L 1766 0 
Q 1100 0 847 248 
Q 594 497 594 1153 
L 594 3053 
L 172 3053 
L 172 3500 
L 594 3500 
L 594 4494 
L 1172 4494 
z
" id="DejaVuSans-74" transform="scale(0.015625)"/>
       <path d="M 3597 1894 
L 3597 1613 
L 953 1613 
Q 991 1019 1311 708 
Q 1631 397 2203 397 
Q 2534 397 2845 478 
Q 3156 559 3463 722 
L 3463 178 
Q 3153 47 2828 -22 
Q 2503 -91 2169 -91 
Q 1331 -91 842 396 
Q 353 884 353 1716 
Q 353 2575 817 3079 
Q 1281 3584 2069 3584 
Q 2775 3584 3186 3129 
Q 3597 2675 3597 1894 
z
M 3022 2063 
Q 3016 2534 2758 2815 
Q 2500 3097 2075 3097 
Q 1594 3097 1305 2825 
Q 1016 2553 972 2059 
L 3022 2063 
z
" id="DejaVuSans-65" transform="scale(0.015625)"/>
       <path d="M 2631 2963 
Q 2534 3019 2420 3045 
Q 2306 3072 2169 3072 
Q 1681 3072 1420 2755 
Q 1159 2438 1159 1844 
L 1159 0 
L 581 0 
L 581 3500 
L 1159 3500 
L 1159 2956 
Q 1341 3275 1631 3429 
Q 1922 3584 2338 3584 
Q 2397 3584 2469 3576 
Q 2541 3569 2628 3553 
L 2631 2963 
z
" id="DejaVuSans-72" transform="scale(0.015625)"/>
       <path d="M 2194 1759 
Q 1497 1759 1228 1600 
Q 959 1441 959 1056 
Q 959 750 1161 570 
Q 1363 391 1709 391 
Q 2188 391 2477 730 
Q 2766 1069 2766 1631 
L 2766 1759 
L 2194 1759 
z
M 3341 1997 
L 3341 0 
L 2766 0 
L 2766 531 
Q 2569 213 2275 61 
Q 1981 -91 1556 -91 
Q 1019 -91 701 211 
Q 384 513 384 1019 
Q 384 1609 779 1909 
Q 1175 2209 1959 2209 
L 2766 2209 
L 2766 2266 
Q 2766 2663 2505 2880 
Q 2244 3097 1772 3097 
Q 1472 3097 1187 3025 
Q 903 2953 641 2809 
L 641 3341 
Q 956 3463 1253 3523 
Q 1550 3584 1831 3584 
Q 2591 3584 2966 3190 
Q 3341 2797 3341 1997 
z
" id="DejaVuSans-61" transform="scale(0.015625)"/>
       <path d="M 1959 3097 
Q 1497 3097 1228 2736 
Q 959 2375 959 1747 
Q 959 1119 1226 758 
Q 1494 397 1959 397 
Q 2419 397 2687 759 
Q 2956 1122 2956 1747 
Q 2956 2369 2687 2733 
Q 2419 3097 1959 3097 
z
M 1959 3584 
Q 2709 3584 3137 3096 
Q 3566 2609 3566 1747 
Q 3566 888 3137 398 
Q 2709 -91 1959 -91 
Q 1206 -91 779 398 
Q 353 888 353 1747 
Q 353 2609 779 3096 
Q 1206 3584 1959 3584 
z
" id="DejaVuSans-6f" transform="scale(0.015625)"/>
       <path d="M 3513 2113 
L 3513 0 
L 2938 0 
L 2938 2094 
Q 2938 2591 2744 2837 
Q 2550 3084 2163 3084 
Q 1697 3084 1428 2787 
Q 1159 2491 1159 1978 
L 1159 0 
L 581 0 
L 581 3500 
L 1159 3500 
L 1159 2956 
Q 1366 3272 1645 3428 
Q 1925 3584 2291 3584 
Q 2894 3584 3203 3211 
Q 3513 2838 3513 2113 
z
" id="DejaVuSans-6e" transform="scale(0.015625)"/>
       <path d="M 2834 3397 
L 2834 2853 
Q 2591 2978 2328 3040 
Q 2066 3103 1784 3103 
Q 1356 3103 1142 2972 
Q 928 2841 928 2578 
Q 928 2378 1081 2264 
Q 1234 2150 1697 2047 
L 1894 2003 
Q 2506 1872 2764 1633 
Q 3022 1394 3022 966 
Q 3022 478 2636 193 
Q 2250 -91 1575 -91 
Q 1294 -91 989 -36 
Q 684 19 347 128 
L 347 722 
Q 666 556 975 473 
Q 1284 391 1588 391 
Q 1994 391 2212 530 
Q 2431 669 2431 922 
Q 2431 1156 2273 1281 
Q 2116 1406 1581 1522 
L 1381 1569 
Q 847 1681 609 1914 
Q 372 2147 372 2553 
Q 372 3047 722 3315 
Q 1072 3584 1716 3584 
Q 2034 3584 2315 3537 
Q 2597 3491 2834 3397 
z
" id="DejaVuSans-73" transform="scale(0.015625)"/>
      </defs>
      <use xlink:href="#DejaVuSans-69"/>
      <use x="27.783203" xlink:href="#DejaVuSans-74"/>
      <use x="66.992188" xlink:href="#DejaVuSans-65"/>
      <use x="128.515625" xlink:href="#DejaVuSans-72"/>
      <use x="169.628906" xlink:href="#DejaVuSans-61"/>
      <use x="230.908203" xlink:href="#DejaVuSans-74"/>
      <use x="270.117188" xlink:href="#DejaVuSans-69"/>
      <use x="297.900391" xlink:href="#DejaVuSans-6f"/>
      <use x="359.082031" xlink:href="#DejaVuSans-6e"/>
      <use x="422.460938" xlink:href="#DejaVuSans-73"/>
     </g>
    </g>
   </g>
   <g id="matplotlib.axis_2">
    <g id="ytick_1">
     <g id="line2d_7">
      <defs>
       <path d="M 0 0 
L -3.5 0 
" id="mdffe40e64f" style="stroke:#000000;stroke-width:0.8;"/>
      </defs>
      <g>
       <use style="stroke:#000000;stroke-width:0.8;" x="60.2975" xlink:href="#mdffe40e64f" y="493.467932"/>
      </g>
     </g>
     <g id="text_8">
      <!-- 0 -->
      <g transform="translate(38.0275 502.586057)scale(0.24 -0.24)">
       <use xlink:href="#DejaVuSans-30"/>
      </g>
     </g>
    </g>
    <g id="ytick_2">
     <g id="line2d_8">
      <g>
       <use style="stroke:#000000;stroke-width:0.8;" x="60.2975" xlink:href="#mdffe40e64f" y="411.008908"/>
      </g>
     </g>
     <g id="text_9">
      <!-- 1 -->
      <g transform="translate(38.0275 420.127033)scale(0.24 -0.24)">
       <use xlink:href="#DejaVuSans-31"/>
      </g>
     </g>
    </g>
    <g id="ytick_3">
     <g id="line2d_9">
      <g>
       <use style="stroke:#000000;stroke-width:0.8;" x="60.2975" xlink:href="#mdffe40e64f" y="328.549884"/>
      </g>
     </g>
     <g id="text_10">
      <!-- 2 -->
      <g transform="translate(38.0275 337.668009)scale(0.24 -0.24)">
       <use xlink:href="#DejaVuSans-32"/>
      </g>
     </g>
    </g>
    <g id="ytick_4">
     <g id="line2d_10">
      <g>
       <use style="stroke:#000000;stroke-width:0.8;" x="60.2975" xlink:href="#mdffe40e64f" y="246.09086"/>
      </g>
     </g>
     <g id="text_11">
      <!-- 3 -->
      <g transform="translate(38.0275 255.208985)scale(0.24 -0.24)">
       <defs>
        <path d="M 2597 2516 
Q 3050 2419 3304 2112 
Q 3559 1806 3559 1356 
Q 3559 666 3084 287 
Q 2609 -91 1734 -91 
Q 1441 -91 1130 -33 
Q 819 25 488 141 
L 488 750 
Q 750 597 1062 519 
Q 1375 441 1716 441 
Q 2309 441 2620 675 
Q 2931 909 2931 1356 
Q 2931 1769 2642 2001 
Q 2353 2234 1838 2234 
L 1294 2234 
L 1294 2753 
L 1863 2753 
Q 2328 2753 2575 2939 
Q 2822 3125 2822 3475 
Q 2822 3834 2567 4026 
Q 2313 4219 1838 4219 
Q 1578 4219 1281 4162 
Q 984 4106 628 3988 
L 628 4550 
Q 988 4650 1302 4700 
Q 1616 4750 1894 4750 
Q 2613 4750 3031 4423 
Q 3450 4097 3450 3541 
Q 3450 3153 3228 2886 
Q 3006 2619 2597 2516 
z
" id="DejaVuSans-33" transform="scale(0.015625)"/>
       </defs>
       <use xlink:href="#DejaVuSans-33"/>
      </g>
     </g>
    </g>
    <g id="ytick_5">
     <g id="line2d_11">
      <g>
       <use style="stroke:#000000;stroke-width:0.8;" x="60.2975" xlink:href="#mdffe40e64f" y="163.631835"/>
      </g>
     </g>
     <g id="text_12">
      <!-- 4 -->
      <g transform="translate(38.0275 172.74996)scale(0.24 -0.24)">
       <use xlink:href="#DejaVuSans-34"/>
      </g>
     </g>
    </g>
    <g id="ytick_6">
     <g id="line2d_12">
      <g>
       <use style="stroke:#000000;stroke-width:0.8;" x="60.2975" xlink:href="#mdffe40e64f" y="81.172811"/>
      </g>
     </g>
     <g id="text_13">
      <!-- 5 -->
      <g transform="translate(38.0275 90.290936)scale(0.24 -0.24)">
       <defs>
        <path d="M 691 4666 
L 3169 4666 
L 3169 4134 
L 1269 4134 
L 1269 2991 
Q 1406 3038 1543 3061 
Q 1681 3084 1819 3084 
Q 2600 3084 3056 2656 
Q 3513 2228 3513 1497 
Q 3513 744 3044 326 
Q 2575 -91 1722 -91 
Q 1428 -91 1123 -41 
Q 819 9 494 109 
L 494 744 
Q 775 591 1075 516 
Q 1375 441 1709 441 
Q 2250 441 2565 725 
Q 2881 1009 2881 1497 
Q 2881 1984 2565 2268 
Q 2250 2553 1709 2553 
Q 1456 2553 1204 2497 
Q 953 2441 691 2322 
L 691 4666 
z
" id="DejaVuSans-35" transform="scale(0.015625)"/>
       </defs>
       <use xlink:href="#DejaVuSans-35"/>
      </g>
     </g>
    </g>
    <g id="text_14">
     <!-- VQE energy -->
     <g transform="translate(29.03625 330.14)rotate(-90)scale(0.24 -0.24)">
      <defs>
       <path d="M 1831 0 
L 50 4666 
L 709 4666 
L 2188 738 
L 3669 4666 
L 4325 4666 
L 2547 0 
L 1831 0 
z
" id="DejaVuSans-56" transform="scale(0.015625)"/>
       <path d="M 2522 4238 
Q 1834 4238 1429 3725 
Q 1025 3213 1025 2328 
Q 1025 1447 1429 934 
Q 1834 422 2522 422 
Q 3209 422 3611 934 
Q 4013 1447 4013 2328 
Q 4013 3213 3611 3725 
Q 3209 4238 2522 4238 
z
M 3406 84 
L 4238 -825 
L 3475 -825 
L 2784 -78 
Q 2681 -84 2626 -87 
Q 2572 -91 2522 -91 
Q 1538 -91 948 567 
Q 359 1225 359 2328 
Q 359 3434 948 4092 
Q 1538 4750 2522 4750 
Q 3503 4750 4090 4092 
Q 4678 3434 4678 2328 
Q 4678 1516 4351 937 
Q 4025 359 3406 84 
z
" id="DejaVuSans-51" transform="scale(0.015625)"/>
       <path d="M 628 4666 
L 3578 4666 
L 3578 4134 
L 1259 4134 
L 1259 2753 
L 3481 2753 
L 3481 2222 
L 1259 2222 
L 1259 531 
L 3634 531 
L 3634 0 
L 628 0 
L 628 4666 
z
" id="DejaVuSans-45" transform="scale(0.015625)"/>
       <path id="DejaVuSans-20" transform="scale(0.015625)"/>
       <path d="M 2906 1791 
Q 2906 2416 2648 2759 
Q 2391 3103 1925 3103 
Q 1463 3103 1205 2759 
Q 947 2416 947 1791 
Q 947 1169 1205 825 
Q 1463 481 1925 481 
Q 2391 481 2648 825 
Q 2906 1169 2906 1791 
z
M 3481 434 
Q 3481 -459 3084 -895 
Q 2688 -1331 1869 -1331 
Q 1566 -1331 1297 -1286 
Q 1028 -1241 775 -1147 
L 775 -588 
Q 1028 -725 1275 -790 
Q 1522 -856 1778 -856 
Q 2344 -856 2625 -561 
Q 2906 -266 2906 331 
L 2906 616 
Q 2728 306 2450 153 
Q 2172 0 1784 0 
Q 1141 0 747 490 
Q 353 981 353 1791 
Q 353 2603 747 3093 
Q 1141 3584 1784 3584 
Q 2172 3584 2450 3431 
Q 2728 3278 2906 2969 
L 2906 3500 
L 3481 3500 
L 3481 434 
z
" id="DejaVuSans-67" transform="scale(0.015625)"/>
       <path d="M 2059 -325 
Q 1816 -950 1584 -1140 
Q 1353 -1331 966 -1331 
L 506 -1331 
L 506 -850 
L 844 -850 
Q 1081 -850 1212 -737 
Q 1344 -625 1503 -206 
L 1606 56 
L 191 3500 
L 800 3500 
L 1894 763 
L 2988 3500 
L 3597 3500 
L 2059 -325 
z
" id="DejaVuSans-79" transform="scale(0.015625)"/>
      </defs>
      <use xlink:href="#DejaVuSans-56"/>
      <use x="68.408203" xlink:href="#DejaVuSans-51"/>
      <use x="147.119141" xlink:href="#DejaVuSans-45"/>
      <use x="210.302734" xlink:href="#DejaVuSans-20"/>
      <use x="242.089844" xlink:href="#DejaVuSans-65"/>
      <use x="303.613281" xlink:href="#DejaVuSans-6e"/>
      <use x="366.992188" xlink:href="#DejaVuSans-65"/>
      <use x="428.515625" xlink:href="#DejaVuSans-72"/>
      <use x="467.878906" xlink:href="#DejaVuSans-67"/>
      <use x="531.355469" xlink:href="#DejaVuSans-79"/>
     </g>
    </g>
   </g>
   <g id="line2d_13">
    <path clip-path="url(#p2cba67a090)" d="M 60.358573 43.826677 
L 60.419646 33.388409 
L 60.541791 55.03424 
L 60.663936 45.433999 
L 60.847155 82.939191 
L 60.9693 47.979543 
L 61.091446 78.408033 
L 61.152518 79.251908 
L 61.213591 74.001796 
L 61.274664 90.877835 
L 61.335737 72.217176 
L 61.457882 102.280697 
L 61.518955 98.137804 
L 61.580028 101.557581 
L 61.702173 93.673139 
L 61.824319 100.795803 
L 61.885391 143.175786 
L 62.007537 99.54144 
L 62.06861 145.200281 
L 62.129683 144.078008 
L 62.190755 136.458464 
L 62.251828 145.912824 
L 62.312901 128.210206 
L 62.373973 137.732193 
L 62.435046 136.415811 
L 62.496119 129.078989 
L 62.557192 133.793957 
L 62.618265 165.871768 
L 62.679337 119.984776 
L 62.74041 170.001282 
L 62.801483 166.652168 
L 62.862555 166.121593 
L 62.923628 168.300487 
L 62.984701 166.467295 
L 63.106847 180.22143 
L 63.167919 159.525647 
L 63.228992 171.431483 
L 63.473283 188.152413 
L 63.534356 166.047954 
L 63.595428 182.961794 
L 63.656501 186.5259 
L 63.717574 176.837273 
L 63.778647 186.20203 
L 63.83972 181.118886 
L 63.900792 181.365042 
L 64.084011 200.630747 
L 64.267229 164.398573 
L 64.328301 206.336198 
L 64.389374 182.173461 
L 64.51152 218.407819 
L 64.572592 214.482283 
L 64.694738 237.766272 
L 64.755811 228.50458 
L 64.816884 236.710444 
L 64.877956 193.274564 
L 64.939029 218.568476 
L 65.000102 220.852764 
L 65.061174 232.037815 
L 65.122247 219.294857 
L 65.18332 237.16082 
L 65.244393 229.581459 
L 65.305465 234.9227 
L 65.366538 221.66799 
L 65.427611 232.488279 
L 65.488684 220.102555 
L 65.549757 227.91563 
L 65.610829 238.733621 
L 65.671902 234.078437 
L 65.732975 207.773943 
L 65.794048 233.906788 
L 65.85512 225.716953 
L 65.916193 230.021465 
L 65.977266 209.898904 
L 66.038338 243.754629 
L 66.099411 197.809789 
L 66.160484 233.955215 
L 66.221557 221.17153 
L 66.282629 229.51434 
L 66.343702 232.26412 
L 66.404775 243.803751 
L 66.465848 205.291153 
L 66.526921 236.30384 
L 66.587993 216.213823 
L 66.649066 241.428646 
L 66.710139 223.975408 
L 66.771211 234.26159 
L 66.832284 193.150975 
L 66.893357 250.732507 
L 66.95443 229.488614 
L 67.015502 251.578328 
L 67.076575 231.309729 
L 67.137648 247.233777 
L 67.198721 239.443561 
L 67.259794 254.586398 
L 67.320866 249.822839 
L 67.381939 251.066209 
L 67.443012 240.149932 
L 67.62623 258.64956 
L 67.748375 246.458745 
L 67.809448 261.549249 
L 67.870521 251.298713 
L 68.175885 266.134383 
L 68.236958 258.339497 
L 68.29803 263.349964 
L 68.359103 261.571654 
L 68.420176 266.926125 
L 68.481248 262.653262 
L 68.542321 262.919434 
L 68.664467 267.305155 
L 68.786612 261.346702 
L 68.847685 263.027415 
L 69.030903 276.630222 
L 69.091976 266.54772 
L 69.153049 277.24153 
L 69.214122 275.688758 
L 69.275194 278.045091 
L 69.39734 272.107858 
L 69.458412 279.284733 
L 69.519485 277.674676 
L 69.580558 277.384668 
L 69.824849 290.602338 
L 69.885922 284.666119 
L 70.008067 308.914152 
L 70.06914 306.258863 
L 70.130213 296.461116 
L 70.313431 312.985526 
L 70.374504 311.495824 
L 70.435576 313.837054 
L 70.496649 312.264752 
L 70.557722 312.780853 
L 70.74094 336.549945 
L 70.802013 312.637602 
L 70.863086 328.74527 
L 70.924159 324.171013 
L 71.046304 343.708811 
L 71.107377 338.60035 
L 71.168449 319.664143 
L 71.229522 346.256467 
L 71.290595 340.958196 
L 71.351668 333.899548 
L 71.41274 337.881651 
L 71.534886 348.792605 
L 71.595959 343.994088 
L 71.657032 349.809679 
L 71.718104 347.115671 
L 71.779177 347.098883 
L 71.84025 357.036085 
L 71.901322 344.004008 
L 71.962395 362.053693 
L 72.023468 352.455744 
L 72.267759 375.228434 
L 72.389905 360.597791 
L 72.450977 365.399429 
L 72.51205 382.430253 
L 72.573123 373.498906 
L 72.695268 381.229535 
L 72.756341 379.758355 
L 72.817414 374.777455 
L 72.878486 351.225456 
L 72.939559 364.737055 
L 73.122777 404.006318 
L 73.18385 377.240009 
L 73.244923 403.364624 
L 73.305996 400.833773 
L 73.367069 395.331483 
L 73.489214 419.795237 
L 73.550287 416.054952 
L 73.61136 413.271491 
L 73.672432 418.405623 
L 73.733505 415.879066 
L 73.794578 411.21471 
L 73.85565 414.341044 
L 73.916723 418.435597 
L 73.977796 417.926146 
L 74.038869 415.650775 
L 74.099941 416.576137 
L 74.161014 405.121869 
L 74.222087 420.941222 
L 74.28316 387.530193 
L 74.344233 419.186758 
L 74.405305 403.676429 
L 74.649596 430.649399 
L 74.710669 416.880765 
L 74.832814 430.291104 
L 74.893887 419.853031 
L 75.077106 440.393389 
L 75.260324 424.739057 
L 75.321397 440.808028 
L 75.382469 421.807053 
L 75.443542 435.680352 
L 75.504615 422.772914 
L 75.565687 424.732939 
L 75.62676 425.375051 
L 75.748906 438.112865 
L 75.871051 431.59161 
L 75.932124 437.449306 
L 75.993197 434.016132 
L 76.115342 439.102438 
L 76.237488 423.936734 
L 76.298561 430.664203 
L 76.359633 418.897704 
L 76.420706 437.571642 
L 76.481779 411.570661 
L 76.603924 440.646278 
L 76.664997 439.784429 
L 76.72607 425.540447 
L 76.787143 442.179765 
L 76.848215 411.604441 
L 76.970361 443.266657 
L 77.031433 441.522027 
L 77.153579 446.871707 
L 77.214652 444.907042 
L 77.39787 437.606965 
L 77.581088 447.486939 
L 77.642161 447.706498 
L 77.703234 445.283262 
L 77.764307 446.508377 
L 77.886452 449.393608 
L 77.947525 448.889167 
L 78.008598 452.281668 
L 78.06967 447.971381 
L 78.130743 450.813896 
L 78.191816 450.762143 
L 78.313961 460.464012 
L 78.375034 458.6584 
L 78.49718 451.706905 
L 78.680398 462.705106 
L 78.863616 457.972318 
L 78.924689 462.521391 
L 78.985761 460.59165 
L 79.107907 462.085381 
L 79.16898 460.482402 
L 79.352198 469.526867 
L 79.413271 467.812257 
L 79.474344 468.427186 
L 79.535416 468.164321 
L 79.657562 470.840358 
L 79.779707 464.429736 
L 79.84078 467.635522 
L 79.901853 473.684781 
L 79.962925 473.023784 
L 80.146144 471.534642 
L 80.207217 472.53346 
L 80.268289 466.462858 
L 80.329362 474.213515 
L 80.390435 472.907427 
L 80.451508 472.597925 
L 80.51258 467.55002 
L 80.573653 473.34464 
L 80.634726 468.301531 
L 80.817944 475.26553 
L 81.001162 469.994168 
L 81.062235 475.207547 
L 81.123308 472.023406 
L 81.184381 473.499288 
L 81.245453 469.587967 
L 81.306526 474.456484 
L 81.367599 473.307229 
L 81.428672 472.457322 
L 81.550817 474.907047 
L 81.61189 474.680629 
L 81.672962 473.992501 
L 81.734035 471.357148 
L 81.795108 473.454099 
L 82.100472 475.679728 
L 82.161545 474.127587 
L 82.222617 474.914167 
L 82.28369 474.476277 
L 82.344763 474.695465 
L 82.466908 475.698192 
L 82.527981 473.487696 
L 82.589054 475.13067 
L 82.650126 474.517173 
L 82.711199 474.595198 
L 83.138709 478.320005 
L 83.199781 477.587553 
L 83.382999 478.663543 
L 83.444072 477.526742 
L 83.505145 477.790819 
L 83.627291 478.053077 
L 83.688363 478.002088 
L 83.749436 477.272598 
L 83.932654 479.002435 
L 84.115872 477.578679 
L 84.176945 478.639291 
L 84.238018 478.603283 
L 84.360163 477.902917 
L 84.421236 478.209758 
L 84.482309 479.526705 
L 84.543382 478.101658 
L 84.665527 479.893939 
L 84.7266 479.575387 
L 84.787673 479.843202 
L 84.848746 479.980504 
L 84.909818 479.080623 
L 84.970891 479.117224 
L 85.031964 480.003375 
L 85.093036 479.424504 
L 85.154109 480.083653 
L 85.215182 479.005673 
L 85.276255 479.509914 
L 85.337328 479.413173 
L 85.3984 479.477676 
L 85.459473 480.045721 
L 85.520546 479.895083 
L 85.581619 479.517886 
L 85.642691 480.088185 
L 85.703764 479.550206 
L 85.764837 479.779858 
L 85.825909 479.547444 
L 85.886982 480.097075 
L 85.948055 478.680184 
L 86.009128 479.738138 
L 86.0702 479.040478 
L 86.131273 480.572838 
L 86.192346 479.880129 
L 86.253419 480.249484 
L 86.314492 479.358809 
L 86.375564 480.405444 
L 86.436637 479.56748 
L 86.49771 480.345329 
L 86.558783 479.57402 
L 86.619855 480.648318 
L 86.680928 479.463162 
L 86.742001 480.742937 
L 86.803073 479.85807 
L 86.864146 480.516917 
L 86.925219 479.262672 
L 87.108437 481.259588 
L 87.16951 480.98431 
L 87.230583 481.249733 
L 87.291656 481.110341 
L 87.352728 481.212374 
L 87.413801 481.079887 
L 87.474874 481.187454 
L 87.535946 481.46119 
L 87.597019 481.401803 
L 87.658092 480.968512 
L 87.84131 481.525837 
L 87.902383 481.369876 
L 88.024529 481.614067 
L 88.085601 481.271259 
L 88.146674 481.451726 
L 88.207747 481.686392 
L 88.26882 481.561247 
L 88.390965 481.632497 
L 88.452038 481.497909 
L 88.51311 481.586141 
L 88.696329 481.992139 
L 88.757402 481.951945 
L 88.94062 481.565763 
L 89.123838 481.934668 
L 89.245983 481.852099 
L 89.307056 482.061229 
L 89.368129 482.001612 
L 89.61242 481.76223 
L 89.673493 482.230745 
L 89.734566 482.1918 
L 89.795638 481.863781 
L 89.856711 482.064395 
L 89.917784 482.261112 
L 89.978857 482.194828 
L 90.039929 482.146221 
L 90.101002 482.36549 
L 90.162075 482.095116 
L 90.223147 482.157377 
L 90.406366 482.377743 
L 90.467439 482.293466 
L 90.528511 481.995149 
L 90.589584 482.490923 
L 90.650657 482.163017 
L 90.833875 482.459089 
L 90.894948 482.26376 
L 90.95602 482.389245 
L 91.017093 482.586524 
L 91.078166 482.439898 
L 91.139239 482.37838 
L 91.200311 482.554714 
L 91.261384 482.4466 
L 91.322457 482.549011 
L 91.38353 482.295607 
L 91.444603 482.45802 
L 91.505675 482.453948 
L 91.566748 482.564928 
L 91.627821 482.146042 
L 91.688894 482.418895 
L 91.749966 482.457062 
L 91.811039 482.657264 
L 91.872112 482.300827 
L 91.933184 482.547481 
L 91.994257 482.350017 
L 92.05533 482.642648 
L 92.116403 482.496309 
L 92.238548 482.667574 
L 92.360694 482.353772 
L 92.543912 482.687871 
L 92.604985 482.28176 
L 92.666057 482.596675 
L 92.849276 482.429462 
L 93.032494 482.712776 
L 93.15464 482.644986 
L 93.215712 482.705015 
L 93.276785 482.603681 
L 93.337858 482.661632 
L 93.582149 482.688649 
L 93.765367 482.800338 
L 94.376094 482.752167 
L 94.437167 482.811418 
L 94.559313 482.721905 
L 94.986822 482.960954 
L 95.17004 482.953974 
L 95.231113 482.879343 
L 95.292186 482.955002 
L 95.475404 483.032774 
L 97.124368 483.175436 
L 97.307586 483.096273 
L 97.61295 483.159303 
L 97.674023 483.101088 
L 97.735096 483.181013 
L 98.162605 483.141246 
L 98.467969 483.175666 
L 99.445133 483.220411 
L 99.933715 483.285056 
L 100.971952 483.353159 
L 101.15517 483.369503 
L 101.582679 483.373581 
L 101.949116 483.427949 
L 102.743061 483.434585 
L 149.524788 484.521595 
L 150.501952 484.540059 
L 152.761643 484.570734 
L 161.55612 484.695536 
L 162.655429 484.699701 
L 164.182248 484.725094 
L 165.525848 484.730468 
L 166.564085 484.753262 
L 176.702161 484.842147 
L 178.961853 484.856858 
L 180.855109 484.872816 
L 216.094085 485.052298 
L 224.094616 485.066931 
L 225.865725 485.071325 
L 232.889092 485.084312 
L 265.379795 485.126865 
L 308.313938 485.146496 
L 530.801966 485.156591 
L 530.801966 485.156591 
" style="fill:none;stroke:#1f77b4;stroke-linecap:square;stroke-width:3;"/>
   </g>
   <g id="line2d_14">
    <path clip-path="url(#p2cba67a090)" d="M 60.358573 157.360418 
L 62.557192 157.360418 
L 62.679337 244.167417 
L 64.816884 244.167417 
L 64.939029 274.17606 
L 67.076575 274.17606 
L 67.198721 346.608411 
L 69.336267 346.608411 
L 69.39734 330.583281 
L 69.519485 375.643027 
L 71.657032 375.643027 
L 71.779177 385.216931 
L 73.916723 385.216931 
L 74.038869 391.796001 
L 76.176415 391.796001 
L 76.298561 395.731229 
L 78.436107 395.731229 
L 78.558252 397.3407 
L 80.695798 397.3407 
L 80.817944 398.223835 
L 82.95549 398.223835 
L 83.077636 398.50975 
L 85.215182 398.50975 
L 85.337328 398.710451 
L 87.474874 398.710451 
L 87.597019 398.89659 
L 94.253949 399.004553 
L 94.437167 399.089315 
L 96.513641 399.089315 
L 96.635786 399.329155 
L 98.773333 399.329155 
L 98.895478 399.587735 
L 101.033024 399.587735 
L 101.15517 400.046936 
L 103.292716 400.046936 
L 103.414862 400.797535 
L 105.552408 400.797535 
L 105.613481 400.447266 
L 105.735626 401.052409 
L 107.873172 401.052409 
L 108.05639 401.186137 
L 110.132864 401.186137 
L 110.255009 401.32568 
L 112.392556 401.32568 
L 112.514701 401.689977 
L 114.652248 401.689977 
L 114.71332 382.620328 
L 114.835466 402.19994 
L 116.973012 402.19994 
L 117.034085 378.038215 
L 117.15623 402.728676 
L 119.293777 402.728676 
L 119.415922 403.116558 
L 121.553468 403.116558 
L 121.675614 406.977595 
L 123.81316 406.977595 
L 123.935305 453.630199 
L 126.072852 453.630199 
L 126.133925 358.261261 
L 126.25607 461.621458 
L 128.393616 461.621458 
L 128.454689 354.559575 
L 128.576835 462.422402 
L 130.714381 462.422402 
L 130.836526 472.02716 
L 132.974073 472.02716 
L 133.096218 480.164941 
L 135.233764 480.164941 
L 135.35591 481.746912 
L 137.493456 481.746912 
L 137.615601 482.341633 
L 139.753148 482.341633 
L 139.875293 482.654088 
L 142.012839 482.654088 
L 142.134985 482.798836 
L 148.791915 482.904685 
L 149.036206 482.943927 
L 153.311298 483.047877 
L 153.494517 483.094472 
L 173.648524 483.19685 
L 173.648524 483.19685 
" style="fill:none;stroke:#ff7f0e;stroke-linecap:square;stroke-width:3;"/>
   </g>
   <g id="line2d_15">
    <path clip-path="url(#p2cba67a090)" d="M 60.358573 37.51782 
L 62.557192 37.51782 
L 62.679337 157.019771 
L 64.816884 157.019771 
L 64.939029 234.627751 
L 67.076575 234.627751 
L 67.198721 278.906558 
L 69.336267 278.906558 
L 69.458412 343.082317 
L 71.595959 343.082317 
L 71.718104 387.082546 
L 73.85565 387.082546 
L 73.977796 407.747128 
L 76.115342 407.747128 
L 76.237488 424.787278 
L 78.375034 424.787278 
L 78.49718 412.542426 
L 80.634726 412.542426 
L 80.756871 443.302792 
L 82.894418 443.302792 
L 83.016563 457.300624 
L 85.154109 457.300624 
L 85.276255 471.652632 
L 87.413801 471.652632 
L 87.535946 468.74265 
L 89.673493 468.74265 
L 89.795638 473.885749 
L 91.933184 473.885749 
L 92.05533 475.348596 
L 94.192876 475.348596 
L 94.315022 477.14396 
L 96.452568 477.14396 
L 96.574714 478.054237 
L 98.71226 478.054237 
L 98.834405 478.983153 
L 100.971952 478.983153 
L 101.094097 480.012983 
L 103.231643 480.012983 
L 103.353789 480.544715 
L 105.491335 480.544715 
L 105.613481 480.963393 
L 112.27041 481.055181 
L 112.575774 481.080485 
L 148.425478 481.10012 
L 148.547624 480.690012 
L 150.68517 480.690012 
L 150.807316 481.100945 
L 168.762704 481.035133 
L 168.88485 481.275597 
L 171.022396 481.275597 
L 171.205614 481.406682 
L 173.282087 481.406682 
L 173.404233 481.873106 
L 175.541779 481.873106 
L 175.663925 482.599298 
L 180.061163 482.621141 
L 180.183308 483.045346 
L 252.371299 483.14818 
L 252.493444 237.828463 
L 254.63099 237.828463 
L 254.753136 483.148182 
L 259.150374 483.148356 
L 259.272519 206.218253 
L 261.410066 206.218253 
L 261.532211 483.148355 
L 265.929449 483.148361 
L 266.051595 279.987111 
L 268.189141 279.98711 
L 268.311286 483.148361 
L 272.708525 483.148378 
L 272.83067 318.220861 
L 274.968216 318.220861 
L 275.090362 483.148379 
L 279.4876 483.148518 
L 279.609745 379.415779 
L 281.747292 379.415779 
L 281.869437 483.148522 
L 284.006983 483.148522 
L 284.129129 312.923881 
L 286.266675 312.923881 
L 286.388821 483.148522 
L 288.526367 483.148522 
L 288.648512 481.181232 
L 290.786059 481.181232 
L 290.908204 483.148563 
L 293.04575 483.148563 
L 293.167896 481.440893 
L 295.305442 481.440893 
L 295.427588 483.148563 
L 297.565134 483.148563 
L 297.687279 481.442302 
L 299.824826 481.442302 
L 299.946971 483.148563 
L 302.084517 483.148563 
L 302.206663 481.464145 
L 304.344209 481.464145 
L 304.466355 483.148563 
L 308.863592 483.148617 
L 308.985738 479.185021 
L 311.123284 479.185021 
L 311.24543 483.148629 
L 313.382976 483.148629 
L 313.505122 479.094982 
L 315.642668 479.094982 
L 315.764813 483.148629 
L 317.90236 483.148629 
L 318.024505 479.69611 
L 320.162051 479.69611 
L 320.284197 483.148629 
L 671.086073 483.199871 
L 671.086073 483.199871 
" style="fill:none;stroke:#2ca02c;stroke-linecap:square;stroke-width:3;"/>
   </g>
   <g id="line2d_16">
    <path clip-path="url(#p2cba67a090)" d="M 60.2975 493.19689 
L 671.025 493.19689 
" style="fill:none;stroke:#000000;stroke-dasharray:7.4,3.2;stroke-dashoffset:0;stroke-width:2;"/>
   </g>
   <g id="patch_3">
    <path d="M 60.2975 507.745 
L 60.2975 10.8 
" style="fill:none;stroke:#000000;stroke-linecap:square;stroke-linejoin:miter;stroke-width:0.8;"/>
   </g>
   <g id="patch_4">
    <path d="M 671.025 507.745 
L 671.025 10.8 
" style="fill:none;stroke:#000000;stroke-linecap:square;stroke-linejoin:miter;stroke-width:0.8;"/>
   </g>
   <g id="patch_5">
    <path d="M 60.2975 507.745 
L 671.025 507.745 
" style="fill:none;stroke:#000000;stroke-linecap:square;stroke-linejoin:miter;stroke-width:0.8;"/>
   </g>
   <g id="patch_6">
    <path d="M 60.2975 10.8 
L 671.025 10.8 
" style="fill:none;stroke:#000000;stroke-linecap:square;stroke-linejoin:miter;stroke-width:0.8;"/>
   </g>
   <g id="legend_1">
    <g id="patch_7">
     <path d="M 468.32625 170.91 
L 654.225 170.91 
Q 659.025 170.91 659.025 166.11 
L 659.025 27.6 
Q 659.025 22.8 654.225 22.8 
L 468.32625 22.8 
Q 463.52625 22.8 463.52625 27.6 
L 463.52625 166.11 
Q 463.52625 170.91 468.32625 170.91 
z
" style="fill:#ffffff;opacity:0.8;stroke:#cccccc;stroke-linejoin:miter;"/>
    </g>
    <g id="line2d_17">
     <path d="M 473.12625 42.23625 
L 521.12625 42.23625 
" style="fill:none;stroke:#1f77b4;stroke-linecap:square;stroke-width:3;"/>
    </g>
    <g id="line2d_18"/>
    <g id="text_15">
     <!-- COBYLA -->
     <g transform="translate(540.32625 50.63625)scale(0.24 -0.24)">
      <defs>
       <path d="M 4122 4306 
L 4122 3641 
Q 3803 3938 3442 4084 
Q 3081 4231 2675 4231 
Q 1875 4231 1450 3742 
Q 1025 3253 1025 2328 
Q 1025 1406 1450 917 
Q 1875 428 2675 428 
Q 3081 428 3442 575 
Q 3803 722 4122 1019 
L 4122 359 
Q 3791 134 3420 21 
Q 3050 -91 2638 -91 
Q 1578 -91 968 557 
Q 359 1206 359 2328 
Q 359 3453 968 4101 
Q 1578 4750 2638 4750 
Q 3056 4750 3426 4639 
Q 3797 4528 4122 4306 
z
" id="DejaVuSans-43" transform="scale(0.015625)"/>
       <path d="M 2522 4238 
Q 1834 4238 1429 3725 
Q 1025 3213 1025 2328 
Q 1025 1447 1429 934 
Q 1834 422 2522 422 
Q 3209 422 3611 934 
Q 4013 1447 4013 2328 
Q 4013 3213 3611 3725 
Q 3209 4238 2522 4238 
z
M 2522 4750 
Q 3503 4750 4090 4092 
Q 4678 3434 4678 2328 
Q 4678 1225 4090 567 
Q 3503 -91 2522 -91 
Q 1538 -91 948 565 
Q 359 1222 359 2328 
Q 359 3434 948 4092 
Q 1538 4750 2522 4750 
z
" id="DejaVuSans-4f" transform="scale(0.015625)"/>
       <path d="M 1259 2228 
L 1259 519 
L 2272 519 
Q 2781 519 3026 730 
Q 3272 941 3272 1375 
Q 3272 1813 3026 2020 
Q 2781 2228 2272 2228 
L 1259 2228 
z
M 1259 4147 
L 1259 2741 
L 2194 2741 
Q 2656 2741 2882 2914 
Q 3109 3088 3109 3444 
Q 3109 3797 2882 3972 
Q 2656 4147 2194 4147 
L 1259 4147 
z
M 628 4666 
L 2241 4666 
Q 2963 4666 3353 4366 
Q 3744 4066 3744 3513 
Q 3744 3084 3544 2831 
Q 3344 2578 2956 2516 
Q 3422 2416 3680 2098 
Q 3938 1781 3938 1306 
Q 3938 681 3513 340 
Q 3088 0 2303 0 
L 628 0 
L 628 4666 
z
" id="DejaVuSans-42" transform="scale(0.015625)"/>
       <path d="M -13 4666 
L 666 4666 
L 1959 2747 
L 3244 4666 
L 3922 4666 
L 2272 2222 
L 2272 0 
L 1638 0 
L 1638 2222 
L -13 4666 
z
" id="DejaVuSans-59" transform="scale(0.015625)"/>
       <path d="M 628 4666 
L 1259 4666 
L 1259 531 
L 3531 531 
L 3531 0 
L 628 0 
L 628 4666 
z
" id="DejaVuSans-4c" transform="scale(0.015625)"/>
       <path d="M 2188 4044 
L 1331 1722 
L 3047 1722 
L 2188 4044 
z
M 1831 4666 
L 2547 4666 
L 4325 0 
L 3669 0 
L 3244 1197 
L 1141 1197 
L 716 0 
L 50 0 
L 1831 4666 
z
" id="DejaVuSans-41" transform="scale(0.015625)"/>
      </defs>
      <use xlink:href="#DejaVuSans-43"/>
      <use x="69.824219" xlink:href="#DejaVuSans-4f"/>
      <use x="148.535156" xlink:href="#DejaVuSans-42"/>
      <use x="211.638672" xlink:href="#DejaVuSans-59"/>
      <use x="272.722656" xlink:href="#DejaVuSans-4c"/>
      <use x="330.685547" xlink:href="#DejaVuSans-41"/>
     </g>
    </g>
    <g id="line2d_19">
     <path d="M 473.12625 77.46375 
L 521.12625 77.46375 
" style="fill:none;stroke:#ff7f0e;stroke-linecap:square;stroke-width:3;"/>
    </g>
    <g id="line2d_20"/>
    <g id="text_16">
     <!-- SLSQP -->
     <g transform="translate(540.32625 85.86375)scale(0.24 -0.24)">
      <defs>
       <path d="M 3425 4513 
L 3425 3897 
Q 3066 4069 2747 4153 
Q 2428 4238 2131 4238 
Q 1616 4238 1336 4038 
Q 1056 3838 1056 3469 
Q 1056 3159 1242 3001 
Q 1428 2844 1947 2747 
L 2328 2669 
Q 3034 2534 3370 2195 
Q 3706 1856 3706 1288 
Q 3706 609 3251 259 
Q 2797 -91 1919 -91 
Q 1588 -91 1214 -16 
Q 841 59 441 206 
L 441 856 
Q 825 641 1194 531 
Q 1563 422 1919 422 
Q 2459 422 2753 634 
Q 3047 847 3047 1241 
Q 3047 1584 2836 1778 
Q 2625 1972 2144 2069 
L 1759 2144 
Q 1053 2284 737 2584 
Q 422 2884 422 3419 
Q 422 4038 858 4394 
Q 1294 4750 2059 4750 
Q 2388 4750 2728 4690 
Q 3069 4631 3425 4513 
z
" id="DejaVuSans-53" transform="scale(0.015625)"/>
       <path d="M 1259 4147 
L 1259 2394 
L 2053 2394 
Q 2494 2394 2734 2622 
Q 2975 2850 2975 3272 
Q 2975 3691 2734 3919 
Q 2494 4147 2053 4147 
L 1259 4147 
z
M 628 4666 
L 2053 4666 
Q 2838 4666 3239 4311 
Q 3641 3956 3641 3272 
Q 3641 2581 3239 2228 
Q 2838 1875 2053 1875 
L 1259 1875 
L 1259 0 
L 628 0 
L 628 4666 
z
" id="DejaVuSans-50" transform="scale(0.015625)"/>
      </defs>
      <use xlink:href="#DejaVuSans-53"/>
      <use x="63.476562" xlink:href="#DejaVuSans-4c"/>
      <use x="119.189453" xlink:href="#DejaVuSans-53"/>
      <use x="182.666016" xlink:href="#DejaVuSans-51"/>
      <use x="261.376953" xlink:href="#DejaVuSans-50"/>
     </g>
    </g>
    <g id="line2d_21">
     <path d="M 473.12625 112.69125 
L 521.12625 112.69125 
" style="fill:none;stroke:#2ca02c;stroke-linecap:square;stroke-width:3;"/>
    </g>
    <g id="line2d_22"/>
    <g id="text_17">
     <!-- L-BFGS-B -->
     <g transform="translate(540.32625 121.09125)scale(0.24 -0.24)">
      <defs>
       <path d="M 313 2009 
L 1997 2009 
L 1997 1497 
L 313 1497 
L 313 2009 
z
" id="DejaVuSans-2d" transform="scale(0.015625)"/>
       <path d="M 628 4666 
L 3309 4666 
L 3309 4134 
L 1259 4134 
L 1259 2759 
L 3109 2759 
L 3109 2228 
L 1259 2228 
L 1259 0 
L 628 0 
L 628 4666 
z
" id="DejaVuSans-46" transform="scale(0.015625)"/>
       <path d="M 3809 666 
L 3809 1919 
L 2778 1919 
L 2778 2438 
L 4434 2438 
L 4434 434 
Q 4069 175 3628 42 
Q 3188 -91 2688 -91 
Q 1594 -91 976 548 
Q 359 1188 359 2328 
Q 359 3472 976 4111 
Q 1594 4750 2688 4750 
Q 3144 4750 3555 4637 
Q 3966 4525 4313 4306 
L 4313 3634 
Q 3963 3931 3569 4081 
Q 3175 4231 2741 4231 
Q 1884 4231 1454 3753 
Q 1025 3275 1025 2328 
Q 1025 1384 1454 906 
Q 1884 428 2741 428 
Q 3075 428 3337 486 
Q 3600 544 3809 666 
z
" id="DejaVuSans-47" transform="scale(0.015625)"/>
      </defs>
      <use xlink:href="#DejaVuSans-4c"/>
      <use x="53.962891" xlink:href="#DejaVuSans-2d"/>
      <use x="86.421875" xlink:href="#DejaVuSans-42"/>
      <use x="155.025391" xlink:href="#DejaVuSans-46"/>
      <use x="212.544922" xlink:href="#DejaVuSans-47"/>
      <use x="290.035156" xlink:href="#DejaVuSans-53"/>
      <use x="353.511719" xlink:href="#DejaVuSans-2d"/>
      <use x="385.970703" xlink:href="#DejaVuSans-42"/>
     </g>
    </g>
    <g id="line2d_23">
     <path d="M 473.12625 147.91875 
L 521.12625 147.91875 
" style="fill:none;stroke:#000000;stroke-dasharray:7.4,3.2;stroke-dashoffset:0;stroke-width:2;"/>
    </g>
    <g id="line2d_24"/>
    <g id="text_18">
     <!-- HT -->
     <g transform="translate(540.32625 156.31875)scale(0.24 -0.24)">
      <defs>
       <path d="M 628 4666 
L 1259 4666 
L 1259 2753 
L 3553 2753 
L 3553 4666 
L 4184 4666 
L 4184 0 
L 3553 0 
L 3553 2222 
L 1259 2222 
L 1259 0 
L 628 0 
L 628 4666 
z
" id="DejaVuSans-48" transform="scale(0.015625)"/>
       <path d="M -19 4666 
L 3928 4666 
L 3928 4134 
L 2272 4134 
L 2272 0 
L 1638 0 
L 1638 4134 
L -19 4134 
L -19 4666 
z
" id="DejaVuSans-54" transform="scale(0.015625)"/>
      </defs>
      <use xlink:href="#DejaVuSans-48"/>
      <use x="75.195312" xlink:href="#DejaVuSans-54"/>
     </g>
    </g>
   </g>
  </g>
 </g>
 <defs>
  <clipPath id="p2cba67a090">
   <rect height="496.945" width="610.7275" x="60.2975" y="10.8"/>
  </clipPath>
 </defs>
</svg>
