<?xml version="1.0" encoding="utf-8" standalone="no"?>
<!DOCTYPE svg PUBLIC "-//W3C//DTD SVG 1.1//EN"
  "http://www.w3.org/Graphics/SVG/1.1/DTD/svg11.dtd">
<svg height="576pt" version="1.1" viewBox="0 0 720 576" width="720pt" xmlns="http://www.w3.org/2000/svg" xmlns:xlink="http://www.w3.org/1999/xlink">
 <metadata>
  <rdf:RDF xmlns:cc="http://creativecommons.org/ns#" xmlns:dc="http://purl.org/dc/elements/1.1/" xmlns:rdf="http://www.w3.org/1999/02/22-rdf-syntax-ns#">
   <cc:Work>
    <dc:type rdf:resource="http://purl.org/dc/dcmitype/StillImage"/>
    <dc:date>2021-07-30T12:58:03.791571</dc:date>
    <dc:format>image/svg+xml</dc:format>
    <dc:creator>
     <cc:Agent>
      <dc:title>Matplotlib v3.4.2, https://matplotlib.org/</dc:title>
     </cc:Agent>
    </dc:creator>
   </cc:Work>
  </rdf:RDF>
 </metadata>
 <defs>
  <style type="text/css">*{stroke-linecap:butt;stroke-linejoin:round;}</style>
 </defs>
 <g id="figure_1">
  <g id="patch_1">
   <path d="M 0 576 
L 720 576 
L 720 0 
L 0 0 
z
" style="fill:#ffffff;"/>
  </g>
  <g id="axes_1">
   <g id="patch_2">
    <path d="M 60.2975 507.745 
L 678.66 507.745 
L 678.66 10.8 
L 60.2975 10.8 
z
" style="fill:#ffffff;"/>
   </g>
   <g id="matplotlib.axis_1">
    <g id="xtick_1">
     <g id="line2d_1">
      <defs>
       <path d="M 0 0 
L 0 3.5 
" id="m0cfcbd31f7" style="stroke:#000000;stroke-width:0.8;"/>
      </defs>
      <g>
       <use style="stroke:#000000;stroke-width:0.8;" x="60.2975" xlink:href="#m0cfcbd31f7" y="507.745"/>
      </g>
     </g>
     <g id="text_1">
      <!-- 0 -->
      <g transform="translate(52.6625 532.98125)scale(0.24 -0.24)">
       <defs>
        <path d="M 2034 4250 
Q 1547 4250 1301 3770 
Q 1056 3291 1056 2328 
Q 1056 1369 1301 889 
Q 1547 409 2034 409 
Q 2525 409 2770 889 
Q 3016 1369 3016 2328 
Q 3016 3291 2770 3770 
Q 2525 4250 2034 4250 
z
M 2034 4750 
Q 2819 4750 3233 4129 
Q 3647 3509 3647 2328 
Q 3647 1150 3233 529 
Q 2819 -91 2034 -91 
Q 1250 -91 836 529 
Q 422 1150 422 2328 
Q 422 3509 836 4129 
Q 1250 4750 2034 4750 
z
" id="DejaVuSans-30" transform="scale(0.015625)"/>
       </defs>
       <use xlink:href="#DejaVuSans-30"/>
      </g>
     </g>
    </g>
    <g id="xtick_2">
     <g id="line2d_2">
      <g>
       <use style="stroke:#000000;stroke-width:0.8;" x="183.97" xlink:href="#m0cfcbd31f7" y="507.745"/>
      </g>
     </g>
     <g id="text_2">
      <!-- 200 -->
      <g transform="translate(161.065 532.98125)scale(0.24 -0.24)">
       <defs>
        <path d="M 1228 531 
L 3431 531 
L 3431 0 
L 469 0 
L 469 531 
Q 828 903 1448 1529 
Q 2069 2156 2228 2338 
Q 2531 2678 2651 2914 
Q 2772 3150 2772 3378 
Q 2772 3750 2511 3984 
Q 2250 4219 1831 4219 
Q 1534 4219 1204 4116 
Q 875 4013 500 3803 
L 500 4441 
Q 881 4594 1212 4672 
Q 1544 4750 1819 4750 
Q 2544 4750 2975 4387 
Q 3406 4025 3406 3419 
Q 3406 3131 3298 2873 
Q 3191 2616 2906 2266 
Q 2828 2175 2409 1742 
Q 1991 1309 1228 531 
z
" id="DejaVuSans-32" transform="scale(0.015625)"/>
       </defs>
       <use xlink:href="#DejaVuSans-32"/>
       <use x="63.623047" xlink:href="#DejaVuSans-30"/>
       <use x="127.246094" xlink:href="#DejaVuSans-30"/>
      </g>
     </g>
    </g>
    <g id="xtick_3">
     <g id="line2d_3">
      <g>
       <use style="stroke:#000000;stroke-width:0.8;" x="307.6425" xlink:href="#m0cfcbd31f7" y="507.745"/>
      </g>
     </g>
     <g id="text_3">
      <!-- 400 -->
      <g transform="translate(284.7375 532.98125)scale(0.24 -0.24)">
       <defs>
        <path d="M 2419 4116 
L 825 1625 
L 2419 1625 
L 2419 4116 
z
M 2253 4666 
L 3047 4666 
L 3047 1625 
L 3713 1625 
L 3713 1100 
L 3047 1100 
L 3047 0 
L 2419 0 
L 2419 1100 
L 313 1100 
L 313 1709 
L 2253 4666 
z
" id="DejaVuSans-34" transform="scale(0.015625)"/>
       </defs>
       <use xlink:href="#DejaVuSans-34"/>
       <use x="63.623047" xlink:href="#DejaVuSans-30"/>
       <use x="127.246094" xlink:href="#DejaVuSans-30"/>
      </g>
     </g>
    </g>
    <g id="xtick_4">
     <g id="line2d_4">
      <g>
       <use style="stroke:#000000;stroke-width:0.8;" x="431.315" xlink:href="#m0cfcbd31f7" y="507.745"/>
      </g>
     </g>
     <g id="text_4">
      <!-- 600 -->
      <g transform="translate(408.41 532.98125)scale(0.24 -0.24)">
       <defs>
        <path d="M 2113 2584 
Q 1688 2584 1439 2293 
Q 1191 2003 1191 1497 
Q 1191 994 1439 701 
Q 1688 409 2113 409 
Q 2538 409 2786 701 
Q 3034 994 3034 1497 
Q 3034 2003 2786 2293 
Q 2538 2584 2113 2584 
z
M 3366 4563 
L 3366 3988 
Q 3128 4100 2886 4159 
Q 2644 4219 2406 4219 
Q 1781 4219 1451 3797 
Q 1122 3375 1075 2522 
Q 1259 2794 1537 2939 
Q 1816 3084 2150 3084 
Q 2853 3084 3261 2657 
Q 3669 2231 3669 1497 
Q 3669 778 3244 343 
Q 2819 -91 2113 -91 
Q 1303 -91 875 529 
Q 447 1150 447 2328 
Q 447 3434 972 4092 
Q 1497 4750 2381 4750 
Q 2619 4750 2861 4703 
Q 3103 4656 3366 4563 
z
" id="DejaVuSans-36" transform="scale(0.015625)"/>
       </defs>
       <use xlink:href="#DejaVuSans-36"/>
       <use x="63.623047" xlink:href="#DejaVuSans-30"/>
       <use x="127.246094" xlink:href="#DejaVuSans-30"/>
      </g>
     </g>
    </g>
    <g id="xtick_5">
     <g id="line2d_5">
      <g>
       <use style="stroke:#000000;stroke-width:0.8;" x="554.9875" xlink:href="#m0cfcbd31f7" y="507.745"/>
      </g>
     </g>
     <g id="text_5">
      <!-- 800 -->
      <g transform="translate(532.0825 532.98125)scale(0.24 -0.24)">
       <defs>
        <path d="M 2034 2216 
Q 1584 2216 1326 1975 
Q 1069 1734 1069 1313 
Q 1069 891 1326 650 
Q 1584 409 2034 409 
Q 2484 409 2743 651 
Q 3003 894 3003 1313 
Q 3003 1734 2745 1975 
Q 2488 2216 2034 2216 
z
M 1403 2484 
Q 997 2584 770 2862 
Q 544 3141 544 3541 
Q 544 4100 942 4425 
Q 1341 4750 2034 4750 
Q 2731 4750 3128 4425 
Q 3525 4100 3525 3541 
Q 3525 3141 3298 2862 
Q 3072 2584 2669 2484 
Q 3125 2378 3379 2068 
Q 3634 1759 3634 1313 
Q 3634 634 3220 271 
Q 2806 -91 2034 -91 
Q 1263 -91 848 271 
Q 434 634 434 1313 
Q 434 1759 690 2068 
Q 947 2378 1403 2484 
z
M 1172 3481 
Q 1172 3119 1398 2916 
Q 1625 2713 2034 2713 
Q 2441 2713 2670 2916 
Q 2900 3119 2900 3481 
Q 2900 3844 2670 4047 
Q 2441 4250 2034 4250 
Q 1625 4250 1398 4047 
Q 1172 3844 1172 3481 
z
" id="DejaVuSans-38" transform="scale(0.015625)"/>
       </defs>
       <use xlink:href="#DejaVuSans-38"/>
       <use x="63.623047" xlink:href="#DejaVuSans-30"/>
       <use x="127.246094" xlink:href="#DejaVuSans-30"/>
      </g>
     </g>
    </g>
    <g id="xtick_6">
     <g id="line2d_6">
      <g>
       <use style="stroke:#000000;stroke-width:0.8;" x="678.66" xlink:href="#m0cfcbd31f7" y="507.745"/>
      </g>
     </g>
     <g id="text_6">
      <!-- 1000 -->
      <g transform="translate(648.12 532.98125)scale(0.24 -0.24)">
       <defs>
        <path d="M 794 531 
L 1825 531 
L 1825 4091 
L 703 3866 
L 703 4441 
L 1819 4666 
L 2450 4666 
L 2450 531 
L 3481 531 
L 3481 0 
L 794 0 
L 794 531 
z
" id="DejaVuSans-31" transform="scale(0.015625)"/>
       </defs>
       <use xlink:href="#DejaVuSans-31"/>
       <use x="63.623047" xlink:href="#DejaVuSans-30"/>
       <use x="127.246094" xlink:href="#DejaVuSans-30"/>
       <use x="190.869141" xlink:href="#DejaVuSans-30"/>
      </g>
     </g>
    </g>
    <g id="text_7">
     <!-- iterations -->
     <g transform="translate(312.533125 560.20875)scale(0.24 -0.24)">
      <defs>
       <path d="M 603 3500 
L 1178 3500 
L 1178 0 
L 603 0 
L 603 3500 
z
M 603 4863 
L 1178 4863 
L 1178 4134 
L 603 4134 
L 603 4863 
z
" id="DejaVuSans-69" transform="scale(0.015625)"/>
       <path d="M 1172 4494 
L 1172 3500 
L 2356 3500 
L 2356 3053 
L 1172 3053 
L 1172 1153 
Q 1172 725 1289 603 
Q 1406 481 1766 481 
L 2356 481 
L 2356 0 
L 1766 0 
Q 1100 0 847 248 
Q 594 497 594 1153 
L 594 3053 
L 172 3053 
L 172 3500 
L 594 3500 
L 594 4494 
L 1172 4494 
z
" id="DejaVuSans-74" transform="scale(0.015625)"/>
       <path d="M 3597 1894 
L 3597 1613 
L 953 1613 
Q 991 1019 1311 708 
Q 1631 397 2203 397 
Q 2534 397 2845 478 
Q 3156 559 3463 722 
L 3463 178 
Q 3153 47 2828 -22 
Q 2503 -91 2169 -91 
Q 1331 -91 842 396 
Q 353 884 353 1716 
Q 353 2575 817 3079 
Q 1281 3584 2069 3584 
Q 2775 3584 3186 3129 
Q 3597 2675 3597 1894 
z
M 3022 2063 
Q 3016 2534 2758 2815 
Q 2500 3097 2075 3097 
Q 1594 3097 1305 2825 
Q 1016 2553 972 2059 
L 3022 2063 
z
" id="DejaVuSans-65" transform="scale(0.015625)"/>
       <path d="M 2631 2963 
Q 2534 3019 2420 3045 
Q 2306 3072 2169 3072 
Q 1681 3072 1420 2755 
Q 1159 2438 1159 1844 
L 1159 0 
L 581 0 
L 581 3500 
L 1159 3500 
L 1159 2956 
Q 1341 3275 1631 3429 
Q 1922 3584 2338 3584 
Q 2397 3584 2469 3576 
Q 2541 3569 2628 3553 
L 2631 2963 
z
" id="DejaVuSans-72" transform="scale(0.015625)"/>
       <path d="M 2194 1759 
Q 1497 1759 1228 1600 
Q 959 1441 959 1056 
Q 959 750 1161 570 
Q 1363 391 1709 391 
Q 2188 391 2477 730 
Q 2766 1069 2766 1631 
L 2766 1759 
L 2194 1759 
z
M 3341 1997 
L 3341 0 
L 2766 0 
L 2766 531 
Q 2569 213 2275 61 
Q 1981 -91 1556 -91 
Q 1019 -91 701 211 
Q 384 513 384 1019 
Q 384 1609 779 1909 
Q 1175 2209 1959 2209 
L 2766 2209 
L 2766 2266 
Q 2766 2663 2505 2880 
Q 2244 3097 1772 3097 
Q 1472 3097 1187 3025 
Q 903 2953 641 2809 
L 641 3341 
Q 956 3463 1253 3523 
Q 1550 3584 1831 3584 
Q 2591 3584 2966 3190 
Q 3341 2797 3341 1997 
z
" id="DejaVuSans-61" transform="scale(0.015625)"/>
       <path d="M 1959 3097 
Q 1497 3097 1228 2736 
Q 959 2375 959 1747 
Q 959 1119 1226 758 
Q 1494 397 1959 397 
Q 2419 397 2687 759 
Q 2956 1122 2956 1747 
Q 2956 2369 2687 2733 
Q 2419 3097 1959 3097 
z
M 1959 3584 
Q 2709 3584 3137 3096 
Q 3566 2609 3566 1747 
Q 3566 888 3137 398 
Q 2709 -91 1959 -91 
Q 1206 -91 779 398 
Q 353 888 353 1747 
Q 353 2609 779 3096 
Q 1206 3584 1959 3584 
z
" id="DejaVuSans-6f" transform="scale(0.015625)"/>
       <path d="M 3513 2113 
L 3513 0 
L 2938 0 
L 2938 2094 
Q 2938 2591 2744 2837 
Q 2550 3084 2163 3084 
Q 1697 3084 1428 2787 
Q 1159 2491 1159 1978 
L 1159 0 
L 581 0 
L 581 3500 
L 1159 3500 
L 1159 2956 
Q 1366 3272 1645 3428 
Q 1925 3584 2291 3584 
Q 2894 3584 3203 3211 
Q 3513 2838 3513 2113 
z
" id="DejaVuSans-6e" transform="scale(0.015625)"/>
       <path d="M 2834 3397 
L 2834 2853 
Q 2591 2978 2328 3040 
Q 2066 3103 1784 3103 
Q 1356 3103 1142 2972 
Q 928 2841 928 2578 
Q 928 2378 1081 2264 
Q 1234 2150 1697 2047 
L 1894 2003 
Q 2506 1872 2764 1633 
Q 3022 1394 3022 966 
Q 3022 478 2636 193 
Q 2250 -91 1575 -91 
Q 1294 -91 989 -36 
Q 684 19 347 128 
L 347 722 
Q 666 556 975 473 
Q 1284 391 1588 391 
Q 1994 391 2212 530 
Q 2431 669 2431 922 
Q 2431 1156 2273 1281 
Q 2116 1406 1581 1522 
L 1381 1569 
Q 847 1681 609 1914 
Q 372 2147 372 2553 
Q 372 3047 722 3315 
Q 1072 3584 1716 3584 
Q 2034 3584 2315 3537 
Q 2597 3491 2834 3397 
z
" id="DejaVuSans-73" transform="scale(0.015625)"/>
      </defs>
      <use xlink:href="#DejaVuSans-69"/>
      <use x="27.783203" xlink:href="#DejaVuSans-74"/>
      <use x="66.992188" xlink:href="#DejaVuSans-65"/>
      <use x="128.515625" xlink:href="#DejaVuSans-72"/>
      <use x="169.628906" xlink:href="#DejaVuSans-61"/>
      <use x="230.908203" xlink:href="#DejaVuSans-74"/>
      <use x="270.117188" xlink:href="#DejaVuSans-69"/>
      <use x="297.900391" xlink:href="#DejaVuSans-6f"/>
      <use x="359.082031" xlink:href="#DejaVuSans-6e"/>
      <use x="422.460938" xlink:href="#DejaVuSans-73"/>
     </g>
    </g>
   </g>
   <g id="matplotlib.axis_2">
    <g id="ytick_1">
     <g id="line2d_7">
      <defs>
       <path d="M 0 0 
L -3.5 0 
" id="m7fe26db3f6" style="stroke:#000000;stroke-width:0.8;"/>
      </defs>
      <g>
       <use style="stroke:#000000;stroke-width:0.8;" x="60.2975" xlink:href="#m7fe26db3f6" y="493.467932"/>
      </g>
     </g>
     <g id="text_8">
      <!-- 0 -->
      <g transform="translate(38.0275 502.586057)scale(0.24 -0.24)">
       <use xlink:href="#DejaVuSans-30"/>
      </g>
     </g>
    </g>
    <g id="ytick_2">
     <g id="line2d_8">
      <g>
       <use style="stroke:#000000;stroke-width:0.8;" x="60.2975" xlink:href="#m7fe26db3f6" y="411.008908"/>
      </g>
     </g>
     <g id="text_9">
      <!-- 1 -->
      <g transform="translate(38.0275 420.127033)scale(0.24 -0.24)">
       <use xlink:href="#DejaVuSans-31"/>
      </g>
     </g>
    </g>
    <g id="ytick_3">
     <g id="line2d_9">
      <g>
       <use style="stroke:#000000;stroke-width:0.8;" x="60.2975" xlink:href="#m7fe26db3f6" y="328.549884"/>
      </g>
     </g>
     <g id="text_10">
      <!-- 2 -->
      <g transform="translate(38.0275 337.668009)scale(0.24 -0.24)">
       <use xlink:href="#DejaVuSans-32"/>
      </g>
     </g>
    </g>
    <g id="ytick_4">
     <g id="line2d_10">
      <g>
       <use style="stroke:#000000;stroke-width:0.8;" x="60.2975" xlink:href="#m7fe26db3f6" y="246.09086"/>
      </g>
     </g>
     <g id="text_11">
      <!-- 3 -->
      <g transform="translate(38.0275 255.208985)scale(0.24 -0.24)">
       <defs>
        <path d="M 2597 2516 
Q 3050 2419 3304 2112 
Q 3559 1806 3559 1356 
Q 3559 666 3084 287 
Q 2609 -91 1734 -91 
Q 1441 -91 1130 -33 
Q 819 25 488 141 
L 488 750 
Q 750 597 1062 519 
Q 1375 441 1716 441 
Q 2309 441 2620 675 
Q 2931 909 2931 1356 
Q 2931 1769 2642 2001 
Q 2353 2234 1838 2234 
L 1294 2234 
L 1294 2753 
L 1863 2753 
Q 2328 2753 2575 2939 
Q 2822 3125 2822 3475 
Q 2822 3834 2567 4026 
Q 2313 4219 1838 4219 
Q 1578 4219 1281 4162 
Q 984 4106 628 3988 
L 628 4550 
Q 988 4650 1302 4700 
Q 1616 4750 1894 4750 
Q 2613 4750 3031 4423 
Q 3450 4097 3450 3541 
Q 3450 3153 3228 2886 
Q 3006 2619 2597 2516 
z
" id="DejaVuSans-33" transform="scale(0.015625)"/>
       </defs>
       <use xlink:href="#DejaVuSans-33"/>
      </g>
     </g>
    </g>
    <g id="ytick_5">
     <g id="line2d_11">
      <g>
       <use style="stroke:#000000;stroke-width:0.8;" x="60.2975" xlink:href="#m7fe26db3f6" y="163.631835"/>
      </g>
     </g>
     <g id="text_12">
      <!-- 4 -->
      <g transform="translate(38.0275 172.74996)scale(0.24 -0.24)">
       <use xlink:href="#DejaVuSans-34"/>
      </g>
     </g>
    </g>
    <g id="ytick_6">
     <g id="line2d_12">
      <g>
       <use style="stroke:#000000;stroke-width:0.8;" x="60.2975" xlink:href="#m7fe26db3f6" y="81.172811"/>
      </g>
     </g>
     <g id="text_13">
      <!-- 5 -->
      <g transform="translate(38.0275 90.290936)scale(0.24 -0.24)">
       <defs>
        <path d="M 691 4666 
L 3169 4666 
L 3169 4134 
L 1269 4134 
L 1269 2991 
Q 1406 3038 1543 3061 
Q 1681 3084 1819 3084 
Q 2600 3084 3056 2656 
Q 3513 2228 3513 1497 
Q 3513 744 3044 326 
Q 2575 -91 1722 -91 
Q 1428 -91 1123 -41 
Q 819 9 494 109 
L 494 744 
Q 775 591 1075 516 
Q 1375 441 1709 441 
Q 2250 441 2565 725 
Q 2881 1009 2881 1497 
Q 2881 1984 2565 2268 
Q 2250 2553 1709 2553 
Q 1456 2553 1204 2497 
Q 953 2441 691 2322 
L 691 4666 
z
" id="DejaVuSans-35" transform="scale(0.015625)"/>
       </defs>
       <use xlink:href="#DejaVuSans-35"/>
      </g>
     </g>
    </g>
    <g id="text_14">
     <!-- VQE energy -->
     <g transform="translate(29.03625 330.14)rotate(-90)scale(0.24 -0.24)">
      <defs>
       <path d="M 1831 0 
L 50 4666 
L 709 4666 
L 2188 738 
L 3669 4666 
L 4325 4666 
L 2547 0 
L 1831 0 
z
" id="DejaVuSans-56" transform="scale(0.015625)"/>
       <path d="M 2522 4238 
Q 1834 4238 1429 3725 
Q 1025 3213 1025 2328 
Q 1025 1447 1429 934 
Q 1834 422 2522 422 
Q 3209 422 3611 934 
Q 4013 1447 4013 2328 
Q 4013 3213 3611 3725 
Q 3209 4238 2522 4238 
z
M 3406 84 
L 4238 -825 
L 3475 -825 
L 2784 -78 
Q 2681 -84 2626 -87 
Q 2572 -91 2522 -91 
Q 1538 -91 948 567 
Q 359 1225 359 2328 
Q 359 3434 948 4092 
Q 1538 4750 2522 4750 
Q 3503 4750 4090 4092 
Q 4678 3434 4678 2328 
Q 4678 1516 4351 937 
Q 4025 359 3406 84 
z
" id="DejaVuSans-51" transform="scale(0.015625)"/>
       <path d="M 628 4666 
L 3578 4666 
L 3578 4134 
L 1259 4134 
L 1259 2753 
L 3481 2753 
L 3481 2222 
L 1259 2222 
L 1259 531 
L 3634 531 
L 3634 0 
L 628 0 
L 628 4666 
z
" id="DejaVuSans-45" transform="scale(0.015625)"/>
       <path id="DejaVuSans-20" transform="scale(0.015625)"/>
       <path d="M 2906 1791 
Q 2906 2416 2648 2759 
Q 2391 3103 1925 3103 
Q 1463 3103 1205 2759 
Q 947 2416 947 1791 
Q 947 1169 1205 825 
Q 1463 481 1925 481 
Q 2391 481 2648 825 
Q 2906 1169 2906 1791 
z
M 3481 434 
Q 3481 -459 3084 -895 
Q 2688 -1331 1869 -1331 
Q 1566 -1331 1297 -1286 
Q 1028 -1241 775 -1147 
L 775 -588 
Q 1028 -725 1275 -790 
Q 1522 -856 1778 -856 
Q 2344 -856 2625 -561 
Q 2906 -266 2906 331 
L 2906 616 
Q 2728 306 2450 153 
Q 2172 0 1784 0 
Q 1141 0 747 490 
Q 353 981 353 1791 
Q 353 2603 747 3093 
Q 1141 3584 1784 3584 
Q 2172 3584 2450 3431 
Q 2728 3278 2906 2969 
L 2906 3500 
L 3481 3500 
L 3481 434 
z
" id="DejaVuSans-67" transform="scale(0.015625)"/>
       <path d="M 2059 -325 
Q 1816 -950 1584 -1140 
Q 1353 -1331 966 -1331 
L 506 -1331 
L 506 -850 
L 844 -850 
Q 1081 -850 1212 -737 
Q 1344 -625 1503 -206 
L 1606 56 
L 191 3500 
L 800 3500 
L 1894 763 
L 2988 3500 
L 3597 3500 
L 2059 -325 
z
" id="DejaVuSans-79" transform="scale(0.015625)"/>
      </defs>
      <use xlink:href="#DejaVuSans-56"/>
      <use x="68.408203" xlink:href="#DejaVuSans-51"/>
      <use x="147.119141" xlink:href="#DejaVuSans-45"/>
      <use x="210.302734" xlink:href="#DejaVuSans-20"/>
      <use x="242.089844" xlink:href="#DejaVuSans-65"/>
      <use x="303.613281" xlink:href="#DejaVuSans-6e"/>
      <use x="366.992188" xlink:href="#DejaVuSans-65"/>
      <use x="428.515625" xlink:href="#DejaVuSans-72"/>
      <use x="467.878906" xlink:href="#DejaVuSans-67"/>
      <use x="531.355469" xlink:href="#DejaVuSans-79"/>
     </g>
    </g>
   </g>
   <g id="line2d_13">
    <path clip-path="url(#p6343043e2f)" d="M 60.915862 43.826677 
L 61.534225 33.388409 
L 62.152587 54.661356 
L 62.77095 55.03424 
L 63.389312 49.037138 
L 64.007675 45.433999 
L 65.2444 79.404998 
L 65.862763 82.939191 
L 66.481125 63.191801 
L 67.099487 47.979543 
L 67.71785 75.027969 
L 68.336213 78.408033 
L 68.954575 79.251908 
L 69.572937 74.001796 
L 70.1913 90.877835 
L 70.809663 72.217176 
L 71.428025 101.478338 
L 72.046387 102.280697 
L 72.66475 98.137804 
L 73.283113 101.557581 
L 74.519837 93.673139 
L 75.1382 98.172095 
L 75.756563 100.795803 
L 76.374925 143.175786 
L 76.993287 101.320282 
L 77.61165 99.54144 
L 78.230012 145.200281 
L 78.848375 144.078008 
L 79.466737 136.458464 
L 80.0851 145.912824 
L 80.703463 128.210206 
L 81.321825 137.732193 
L 81.940187 136.415811 
L 82.55855 129.078989 
L 83.176912 133.793957 
L 83.795275 165.871768 
L 84.413637 119.984776 
L 85.032 170.001282 
L 85.650362 166.652168 
L 86.268725 166.121593 
L 86.887087 168.300487 
L 87.50545 166.467295 
L 88.123812 175.082511 
L 88.742175 180.22143 
L 89.360537 159.525647 
L 89.9789 171.431483 
L 90.597262 175.575106 
L 91.215625 174.859258 
L 91.833987 178.800378 
L 92.45235 188.152413 
L 93.070712 166.047954 
L 93.689075 182.961794 
L 94.307437 186.5259 
L 94.9258 176.837273 
L 95.544162 186.20203 
L 96.162525 181.118886 
L 96.780887 181.365042 
L 98.017612 199.678416 
L 98.635975 200.630747 
L 99.254337 172.502706 
L 99.8727 189.265112 
L 100.491062 164.398573 
L 101.109425 206.336198 
L 101.727787 182.173461 
L 102.34615 206.665241 
L 102.964512 218.407819 
L 103.582875 214.482283 
L 104.201237 235.291758 
L 104.8196 237.766272 
L 105.437962 228.50458 
L 106.056325 236.710444 
L 106.674687 193.274564 
L 107.29305 218.568476 
L 107.911412 220.852764 
L 108.529775 232.037815 
L 109.148137 219.294857 
L 109.7665 237.16082 
L 110.384862 229.581459 
L 111.003225 234.9227 
L 111.621587 221.66799 
L 112.23995 232.488279 
L 112.858312 220.102555 
L 113.476675 227.91563 
L 114.095037 238.733621 
L 114.7134 234.078437 
L 115.331762 207.773943 
L 115.950125 233.906788 
L 116.568487 225.716953 
L 117.18685 230.021465 
L 117.805212 209.898904 
L 118.423575 243.754629 
L 119.041937 197.809789 
L 119.6603 233.955215 
L 120.278662 221.17153 
L 120.897025 229.51434 
L 121.515387 232.26412 
L 122.13375 243.803751 
L 122.752112 205.291153 
L 123.370475 236.30384 
L 123.988837 216.213823 
L 124.6072 241.428646 
L 125.225562 223.975408 
L 125.843925 234.26159 
L 126.462287 193.150975 
L 127.08065 250.732507 
L 127.699012 229.488614 
L 128.317375 251.578328 
L 128.935737 231.309729 
L 129.5541 247.233777 
L 130.172462 239.443561 
L 130.790825 254.586398 
L 131.409187 249.822839 
L 132.02755 251.066209 
L 132.645912 240.149932 
L 133.264275 253.554487 
L 133.882637 253.095051 
L 134.501 258.64956 
L 135.737725 246.458745 
L 136.356087 261.549249 
L 136.97445 251.298713 
L 137.592812 255.447406 
L 138.211175 263.091051 
L 138.829537 259.406284 
L 139.4479 264.582495 
L 140.066262 266.134383 
L 140.684625 258.339497 
L 141.302987 263.349964 
L 141.92135 261.571654 
L 142.539712 266.926125 
L 143.158075 262.653262 
L 143.776437 262.919434 
L 145.013162 267.305155 
L 145.631525 261.595006 
L 146.249887 261.346702 
L 146.86825 263.027415 
L 147.486612 271.59049 
L 148.104975 272.09261 
L 148.723337 276.630222 
L 149.3417 266.54772 
L 149.960062 277.24153 
L 150.578425 275.688758 
L 151.196787 278.045091 
L 152.433512 272.107858 
L 153.051875 279.284733 
L 153.670237 277.674676 
L 154.2886 277.384668 
L 154.906962 281.953673 
L 155.525325 289.458022 
L 156.143687 284.727144 
L 156.76205 290.602338 
L 157.380412 284.666119 
L 157.998775 305.168214 
L 158.617137 308.914152 
L 159.2355 306.258863 
L 159.853862 296.461116 
L 160.472225 305.724831 
L 161.090587 307.502253 
L 161.70895 312.985526 
L 162.327312 311.495824 
L 162.945675 313.837054 
L 163.564037 312.264752 
L 164.1824 312.780853 
L 164.800762 329.340973 
L 166.037487 336.549945 
L 166.65585 312.637602 
L 167.274212 328.74527 
L 167.892575 324.171013 
L 168.510937 332.530185 
L 169.1293 343.708811 
L 169.747662 338.60035 
L 170.366025 319.664143 
L 170.984387 346.256467 
L 171.60275 340.958196 
L 172.221112 333.899548 
L 172.839475 337.881651 
L 173.457837 347.466233 
L 174.0762 348.792605 
L 174.694562 343.994088 
L 175.312925 349.809679 
L 175.931287 347.115671 
L 176.54965 347.098883 
L 177.168012 357.036085 
L 177.786375 344.004008 
L 178.404737 362.053693 
L 179.0231 352.455744 
L 179.641462 362.134966 
L 180.259825 368.843996 
L 180.878187 368.651037 
L 181.49655 375.228434 
L 182.114912 370.824748 
L 182.733275 360.597791 
L 183.351637 365.399429 
L 183.97 382.430253 
L 184.588362 373.498906 
L 185.206725 378.261629 
L 185.825087 381.229535 
L 186.44345 379.758355 
L 187.061812 374.777455 
L 187.680175 351.225456 
L 188.298537 364.737055 
L 188.9169 388.582609 
L 189.535262 388.738278 
L 190.153625 404.006318 
L 190.771987 377.240009 
L 191.39035 403.364624 
L 192.008712 400.833773 
L 192.627075 395.331483 
L 193.245437 409.822809 
L 193.8638 419.795237 
L 194.482162 416.054952 
L 195.100525 413.271491 
L 195.718887 418.405623 
L 196.33725 415.879066 
L 196.955612 411.21471 
L 197.573975 414.341044 
L 198.192337 418.435597 
L 198.8107 417.926146 
L 199.429062 415.650775 
L 200.047425 416.576137 
L 200.665787 405.121869 
L 201.28415 420.941222 
L 201.902512 387.530193 
L 202.520875 419.186758 
L 203.139237 403.676429 
L 203.7576 410.715417 
L 204.375962 408.175626 
L 204.994325 423.175189 
L 205.612687 430.649399 
L 206.23105 416.880765 
L 206.849412 429.392469 
L 207.467775 430.291104 
L 208.086137 419.853031 
L 208.7045 431.316601 
L 209.322862 434.485917 
L 209.941225 440.393389 
L 210.559587 429.769691 
L 211.17795 429.044237 
L 211.796312 424.739057 
L 212.414675 440.808028 
L 213.033037 421.807053 
L 213.6514 435.680352 
L 214.269762 422.772914 
L 214.888125 424.732939 
L 215.506487 425.375051 
L 216.12485 436.653572 
L 216.743212 438.112865 
L 217.361575 436.330204 
L 217.979937 431.59161 
L 218.5983 437.449306 
L 219.216662 434.016132 
L 219.835025 437.171813 
L 220.453387 439.102438 
L 221.07175 430.570692 
L 221.690112 423.936734 
L 222.308475 430.664203 
L 222.926837 418.897704 
L 223.5452 437.571642 
L 224.163562 411.570661 
L 224.781925 436.459933 
L 225.400287 440.646278 
L 226.01865 439.784429 
L 226.637012 425.540447 
L 227.255375 442.179765 
L 227.873737 411.604441 
L 228.4921 440.784267 
L 229.110462 443.266657 
L 229.728825 441.522027 
L 230.347187 443.352693 
L 230.96555 446.871707 
L 232.202275 442.875754 
L 232.820637 443.381831 
L 233.439 437.606965 
L 234.057362 442.837575 
L 235.294087 447.486939 
L 235.91245 447.706498 
L 236.530812 445.283262 
L 237.149175 446.508377 
L 237.767537 447.44822 
L 238.3859 449.393608 
L 239.004262 448.889167 
L 239.622625 452.281668 
L 240.240987 447.971381 
L 240.85935 450.813896 
L 241.477712 450.762143 
L 242.096075 456.987309 
L 242.714437 460.464012 
L 243.951162 456.716234 
L 244.569525 451.706905 
L 245.187887 458.673568 
L 245.80625 459.821617 
L 246.424612 462.705106 
L 247.042975 461.633898 
L 247.661337 459.060049 
L 248.2797 457.972318 
L 248.898062 462.521391 
L 249.516425 460.59165 
L 250.75315 462.085381 
L 251.371512 460.482402 
L 251.989875 464.497123 
L 252.608237 465.070906 
L 253.2266 469.526867 
L 253.844962 467.812257 
L 254.463325 468.427186 
L 255.081687 468.164321 
L 255.70005 470.189423 
L 256.318412 470.840358 
L 256.936775 468.932644 
L 257.555137 464.429736 
L 258.1735 467.635522 
L 258.791862 473.684781 
L 259.410225 473.023784 
L 260.028587 472.638511 
L 260.64695 471.608898 
L 261.265312 471.534642 
L 261.883675 472.53346 
L 262.502037 466.462858 
L 263.1204 474.213515 
L 263.738762 472.907427 
L 264.357125 472.597925 
L 264.975487 467.55002 
L 265.59385 473.34464 
L 266.212212 468.301531 
L 266.830575 472.467239 
L 267.448937 470.850582 
L 268.0673 475.26553 
L 268.685662 471.734896 
L 269.304025 472.808981 
L 269.922387 469.994168 
L 270.54075 475.207547 
L 271.159112 472.023406 
L 271.777475 473.499288 
L 272.395837 469.587967 
L 273.0142 474.456484 
L 273.632562 473.307229 
L 274.250925 472.457322 
L 274.869287 474.65835 
L 275.48765 474.907047 
L 276.106012 474.680629 
L 276.724375 473.992501 
L 277.342737 471.357148 
L 277.9611 473.454099 
L 278.579462 474.046536 
L 279.197825 473.965354 
L 279.816187 475.259466 
L 280.43455 475.540415 
L 281.052912 475.679728 
L 281.671275 474.127587 
L 282.289637 474.914167 
L 282.908 474.476277 
L 283.526362 474.695465 
L 284.144725 475.45358 
L 284.763087 475.698192 
L 285.38145 473.487696 
L 285.999812 475.13067 
L 286.618175 474.517173 
L 287.236537 474.595198 
L 287.8549 475.07507 
L 288.473262 475.11251 
L 289.091625 476.099955 
L 289.709987 475.753162 
L 290.32835 477.653968 
L 290.946712 477.568547 
L 291.565075 478.320005 
L 292.183437 477.587553 
L 292.8018 477.862882 
L 293.420162 478.594582 
L 294.038525 478.663543 
L 294.656887 477.526742 
L 295.893612 477.981374 
L 296.511975 478.053077 
L 297.130337 478.002088 
L 297.7487 477.272598 
L 298.367062 478.264544 
L 298.985425 477.520212 
L 299.603787 479.002435 
L 300.22215 478.507178 
L 300.840512 478.654441 
L 301.458875 477.578679 
L 302.077237 478.639291 
L 302.6956 478.603283 
L 303.313962 478.08303 
L 303.932325 477.902917 
L 304.550687 478.209758 
L 305.16905 479.526705 
L 305.787412 478.101658 
L 306.405775 479.668605 
L 307.024137 479.893939 
L 307.6425 479.575387 
L 308.260862 479.843202 
L 308.879225 479.980504 
L 309.497587 479.080623 
L 310.11595 479.117224 
L 310.734312 480.003375 
L 311.352675 479.424504 
L 311.971037 480.083653 
L 312.5894 479.005673 
L 313.207762 479.509914 
L 313.826125 479.413173 
L 314.444487 479.477676 
L 315.06285 480.045721 
L 315.681212 479.895083 
L 316.299575 479.517886 
L 316.917937 480.088185 
L 317.5363 479.550206 
L 318.154662 479.779858 
L 318.773025 479.547444 
L 319.391387 480.097075 
L 320.00975 478.680184 
L 320.628112 479.738138 
L 321.246475 479.040478 
L 321.864837 480.572838 
L 322.4832 479.880129 
L 323.101562 480.249484 
L 323.719925 479.358809 
L 324.338287 480.405444 
L 324.95665 479.56748 
L 325.575012 480.345329 
L 326.193375 479.57402 
L 326.811737 480.648318 
L 327.4301 479.463162 
L 328.048462 480.742937 
L 328.666825 479.85807 
L 329.285187 480.516917 
L 329.90355 479.262672 
L 330.521912 480.624079 
L 331.140275 480.800836 
L 331.758637 481.259588 
L 332.377 480.98431 
L 332.995362 481.249733 
L 333.613725 481.110341 
L 334.232087 481.212374 
L 334.85045 481.079887 
L 335.468812 481.187454 
L 336.087175 481.46119 
L 336.705537 481.401803 
L 337.3239 480.968512 
L 337.942262 481.363619 
L 339.178987 481.525837 
L 339.79735 481.369876 
L 340.415712 481.553909 
L 341.034075 481.614067 
L 341.652437 481.271259 
L 342.889162 481.686392 
L 343.507525 481.561247 
L 344.74425 481.632497 
L 345.362612 481.497909 
L 347.2177 481.685342 
L 347.836062 481.992139 
L 348.454425 481.951945 
L 349.072787 481.705258 
L 349.69115 481.720183 
L 350.309512 481.565763 
L 350.927875 481.800989 
L 353.401325 481.852099 
L 354.019687 482.061229 
L 357.1115 481.76223 
L 357.729862 482.230745 
L 358.348225 482.1918 
L 358.966587 481.863781 
L 360.203312 482.261112 
L 361.440037 482.146221 
L 362.0584 482.36549 
L 362.676762 482.095116 
L 363.295125 482.157377 
L 363.913487 482.331989 
L 364.53185 482.244418 
L 365.150212 482.377743 
L 365.768575 482.293466 
L 366.386937 481.995149 
L 367.0053 482.490923 
L 367.623662 482.163017 
L 369.47875 482.459089 
L 370.097112 482.26376 
L 371.333837 482.586524 
L 372.570562 482.37838 
L 373.188925 482.554714 
L 373.807287 482.4466 
L 374.42565 482.549011 
L 375.044012 482.295607 
L 375.662375 482.45802 
L 376.280737 482.453948 
L 376.8991 482.564928 
L 377.517462 482.146042 
L 378.135825 482.418895 
L 378.754187 482.457062 
L 379.37255 482.657264 
L 379.990912 482.300827 
L 380.609275 482.547481 
L 381.227637 482.350017 
L 381.846 482.642648 
L 382.464362 482.496309 
L 383.082725 482.643921 
L 383.701087 482.667574 
L 384.937812 482.353772 
L 385.556175 482.610664 
L 386.174537 482.4793 
L 386.7929 482.687871 
L 387.411262 482.28176 
L 388.029625 482.596675 
L 388.647987 482.47022 
L 389.26635 482.559954 
L 389.884712 482.429462 
L 390.503075 482.642693 
L 391.121437 482.485939 
L 391.7398 482.712776 
L 392.976525 482.644986 
L 393.594887 482.705015 
L 394.21325 482.603681 
L 396.068337 482.71552 
L 398.541787 482.708664 
L 399.778512 482.786947 
L 400.396875 482.687156 
L 401.6336 482.731443 
L 402.251962 482.78307 
L 402.870325 482.684887 
L 404.10705 482.786037 
L 405.343775 482.752167 
L 405.962137 482.811418 
L 407.198862 482.721905 
L 409.05395 482.788591 
L 410.290675 482.917793 
L 412.145762 482.977043 
L 414.619212 482.955002 
L 415.855937 483.004552 
L 418.329387 483.066231 
L 418.94775 482.978312 
L 420.184475 483.090353 
L 422.039562 483.071235 
L 426.986462 483.154225 
L 428.223187 483.095562 
L 430.696637 483.159859 
L 433.78845 483.106837 
L 434.406812 483.164117 
L 435.643537 483.122219 
L 436.880262 483.155846 
L 441.2088 483.171693 
L 443.063887 483.186998 
L 444.300612 483.172719 
L 449.247512 483.209421 
L 453.57605 483.22737 
L 462.233125 483.294317 
L 464.706575 483.302069 
L 551.277325 483.62715 
L 557.46095 483.646807 
L 649.596962 483.938565 
L 667.529475 483.973681 
L 675.568187 484.000447 
L 679.278362 484.000247 
L 679.278362 484.000247 
" style="fill:none;stroke:#1f77b4;stroke-linecap:square;stroke-width:3;"/>
   </g>
   <g id="line2d_14">
    <path clip-path="url(#p6343043e2f)" d="M 60.915862 157.360418 
L 83.176912 157.360418 
L 83.795275 244.167417 
L 106.056325 244.167417 
L 106.674687 274.17606 
L 128.935737 274.17606 
L 129.5541 346.608411 
L 151.81515 346.608411 
L 152.433512 330.583281 
L 153.051875 375.643027 
L 175.312925 375.643027 
L 175.931287 385.216931 
L 198.192337 385.216931 
L 198.8107 391.796001 
L 221.07175 391.796001 
L 221.690112 395.731229 
L 243.951162 395.731229 
L 244.569525 397.3407 
L 266.830575 397.3407 
L 267.448937 398.223835 
L 289.709987 398.223835 
L 290.32835 398.50975 
L 312.5894 398.50975 
L 313.207762 398.710451 
L 335.468812 398.710451 
L 336.087175 398.89659 
L 404.10705 399.004553 
L 405.343775 399.089315 
L 426.986462 399.089315 
L 427.604825 399.329155 
L 449.865875 399.329155 
L 450.484237 399.587735 
L 472.745287 399.587735 
L 473.36365 400.046936 
L 495.6247 400.046936 
L 496.243062 400.797535 
L 518.504112 400.797535 
L 519.122475 400.447266 
L 519.740837 401.052409 
L 542.001887 401.052409 
L 542.62025 401.186137 
L 564.8813 401.186137 
L 565.499662 401.32568 
L 587.760712 401.32568 
L 588.379075 401.689977 
L 610.640125 401.689977 
L 611.258487 382.620328 
L 611.87685 402.19994 
L 634.1379 402.19994 
L 634.756262 378.038215 
L 635.374625 402.728676 
L 657.635675 402.728676 
L 658.254037 403.116558 
L 679.278362 403.116558 
L 679.278362 403.116558 
" style="fill:none;stroke:#ff7f0e;stroke-linecap:square;stroke-width:3;"/>
   </g>
   <g id="line2d_15">
    <path clip-path="url(#p6343043e2f)" d="M 60.915862 37.51782 
L 83.176912 37.51782 
L 83.795275 157.019771 
L 106.056325 157.019771 
L 106.674687 234.627752 
L 128.935737 234.627751 
L 129.5541 278.906558 
L 151.81515 278.906558 
L 152.433512 343.082317 
L 174.694562 343.082317 
L 175.312925 387.082546 
L 197.573975 387.082546 
L 198.192337 407.747128 
L 220.453387 407.747128 
L 221.07175 424.787278 
L 243.3328 424.787278 
L 243.951162 412.542426 
L 266.212212 412.542426 
L 266.830575 443.302792 
L 289.091625 443.302792 
L 289.709987 457.300624 
L 311.971037 457.300624 
L 312.5894 471.652632 
L 334.85045 471.652632 
L 335.468812 468.74265 
L 357.729862 468.74265 
L 358.348225 473.885749 
L 380.609275 473.885749 
L 381.227637 475.348596 
L 403.488687 475.348596 
L 404.10705 477.14396 
L 426.3681 477.14396 
L 426.986462 478.054237 
L 449.247512 478.054237 
L 449.865875 478.983153 
L 472.126925 478.983153 
L 472.745287 480.012983 
L 495.006337 480.012983 
L 495.6247 480.544715 
L 517.88575 480.544715 
L 518.504112 480.963393 
L 586.523987 481.055181 
L 589.6158 481.080485 
L 679.278362 481.095255 
L 679.278362 481.095255 
" style="fill:none;stroke:#2ca02c;stroke-linecap:square;stroke-width:3;"/>
   </g>
   <g id="line2d_16">
    <path clip-path="url(#p6343043e2f)" d="M 60.2975 233.880327 
L 678.66 233.880327 
" style="fill:none;stroke:#000000;stroke-dasharray:7.4,3.2;stroke-dashoffset:0;stroke-width:2;"/>
   </g>
   <g id="patch_3">
    <path d="M 60.2975 507.745 
L 60.2975 10.8 
" style="fill:none;stroke:#000000;stroke-linecap:square;stroke-linejoin:miter;stroke-width:0.8;"/>
   </g>
   <g id="patch_4">
    <path d="M 678.66 507.745 
L 678.66 10.8 
" style="fill:none;stroke:#000000;stroke-linecap:square;stroke-linejoin:miter;stroke-width:0.8;"/>
   </g>
   <g id="patch_5">
    <path d="M 60.2975 507.745 
L 678.66 507.745 
" style="fill:none;stroke:#000000;stroke-linecap:square;stroke-linejoin:miter;stroke-width:0.8;"/>
   </g>
   <g id="patch_6">
    <path d="M 60.2975 10.8 
L 678.66 10.8 
" style="fill:none;stroke:#000000;stroke-linecap:square;stroke-linejoin:miter;stroke-width:0.8;"/>
   </g>
   <g id="legend_1">
    <g id="patch_7">
     <path d="M 475.96125 170.91 
L 661.86 170.91 
Q 666.66 170.91 666.66 166.11 
L 666.66 27.6 
Q 666.66 22.8 661.86 22.8 
L 475.96125 22.8 
Q 471.16125 22.8 471.16125 27.6 
L 471.16125 166.11 
Q 471.16125 170.91 475.96125 170.91 
z
" style="fill:#ffffff;opacity:0.8;stroke:#cccccc;stroke-linejoin:miter;"/>
    </g>
    <g id="line2d_17">
     <path d="M 480.76125 42.23625 
L 528.76125 42.23625 
" style="fill:none;stroke:#1f77b4;stroke-linecap:square;stroke-width:3;"/>
    </g>
    <g id="line2d_18"/>
    <g id="text_15">
     <!-- COBYLA -->
     <g transform="translate(547.96125 50.63625)scale(0.24 -0.24)">
      <defs>
       <path d="M 4122 4306 
L 4122 3641 
Q 3803 3938 3442 4084 
Q 3081 4231 2675 4231 
Q 1875 4231 1450 3742 
Q 1025 3253 1025 2328 
Q 1025 1406 1450 917 
Q 1875 428 2675 428 
Q 3081 428 3442 575 
Q 3803 722 4122 1019 
L 4122 359 
Q 3791 134 3420 21 
Q 3050 -91 2638 -91 
Q 1578 -91 968 557 
Q 359 1206 359 2328 
Q 359 3453 968 4101 
Q 1578 4750 2638 4750 
Q 3056 4750 3426 4639 
Q 3797 4528 4122 4306 
z
" id="DejaVuSans-43" transform="scale(0.015625)"/>
       <path d="M 2522 4238 
Q 1834 4238 1429 3725 
Q 1025 3213 1025 2328 
Q 1025 1447 1429 934 
Q 1834 422 2522 422 
Q 3209 422 3611 934 
Q 4013 1447 4013 2328 
Q 4013 3213 3611 3725 
Q 3209 4238 2522 4238 
z
M 2522 4750 
Q 3503 4750 4090 4092 
Q 4678 3434 4678 2328 
Q 4678 1225 4090 567 
Q 3503 -91 2522 -91 
Q 1538 -91 948 565 
Q 359 1222 359 2328 
Q 359 3434 948 4092 
Q 1538 4750 2522 4750 
z
" id="DejaVuSans-4f" transform="scale(0.015625)"/>
       <path d="M 1259 2228 
L 1259 519 
L 2272 519 
Q 2781 519 3026 730 
Q 3272 941 3272 1375 
Q 3272 1813 3026 2020 
Q 2781 2228 2272 2228 
L 1259 2228 
z
M 1259 4147 
L 1259 2741 
L 2194 2741 
Q 2656 2741 2882 2914 
Q 3109 3088 3109 3444 
Q 3109 3797 2882 3972 
Q 2656 4147 2194 4147 
L 1259 4147 
z
M 628 4666 
L 2241 4666 
Q 2963 4666 3353 4366 
Q 3744 4066 3744 3513 
Q 3744 3084 3544 2831 
Q 3344 2578 2956 2516 
Q 3422 2416 3680 2098 
Q 3938 1781 3938 1306 
Q 3938 681 3513 340 
Q 3088 0 2303 0 
L 628 0 
L 628 4666 
z
" id="DejaVuSans-42" transform="scale(0.015625)"/>
       <path d="M -13 4666 
L 666 4666 
L 1959 2747 
L 3244 4666 
L 3922 4666 
L 2272 2222 
L 2272 0 
L 1638 0 
L 1638 2222 
L -13 4666 
z
" id="DejaVuSans-59" transform="scale(0.015625)"/>
       <path d="M 628 4666 
L 1259 4666 
L 1259 531 
L 3531 531 
L 3531 0 
L 628 0 
L 628 4666 
z
" id="DejaVuSans-4c" transform="scale(0.015625)"/>
       <path d="M 2188 4044 
L 1331 1722 
L 3047 1722 
L 2188 4044 
z
M 1831 4666 
L 2547 4666 
L 4325 0 
L 3669 0 
L 3244 1197 
L 1141 1197 
L 716 0 
L 50 0 
L 1831 4666 
z
" id="DejaVuSans-41" transform="scale(0.015625)"/>
      </defs>
      <use xlink:href="#DejaVuSans-43"/>
      <use x="69.824219" xlink:href="#DejaVuSans-4f"/>
      <use x="148.535156" xlink:href="#DejaVuSans-42"/>
      <use x="211.638672" xlink:href="#DejaVuSans-59"/>
      <use x="272.722656" xlink:href="#DejaVuSans-4c"/>
      <use x="330.685547" xlink:href="#DejaVuSans-41"/>
     </g>
    </g>
    <g id="line2d_19">
     <path d="M 480.76125 77.46375 
L 528.76125 77.46375 
" style="fill:none;stroke:#ff7f0e;stroke-linecap:square;stroke-width:3;"/>
    </g>
    <g id="line2d_20"/>
    <g id="text_16">
     <!-- SLSQP -->
     <g transform="translate(547.96125 85.86375)scale(0.24 -0.24)">
      <defs>
       <path d="M 3425 4513 
L 3425 3897 
Q 3066 4069 2747 4153 
Q 2428 4238 2131 4238 
Q 1616 4238 1336 4038 
Q 1056 3838 1056 3469 
Q 1056 3159 1242 3001 
Q 1428 2844 1947 2747 
L 2328 2669 
Q 3034 2534 3370 2195 
Q 3706 1856 3706 1288 
Q 3706 609 3251 259 
Q 2797 -91 1919 -91 
Q 1588 -91 1214 -16 
Q 841 59 441 206 
L 441 856 
Q 825 641 1194 531 
Q 1563 422 1919 422 
Q 2459 422 2753 634 
Q 3047 847 3047 1241 
Q 3047 1584 2836 1778 
Q 2625 1972 2144 2069 
L 1759 2144 
Q 1053 2284 737 2584 
Q 422 2884 422 3419 
Q 422 4038 858 4394 
Q 1294 4750 2059 4750 
Q 2388 4750 2728 4690 
Q 3069 4631 3425 4513 
z
" id="DejaVuSans-53" transform="scale(0.015625)"/>
       <path d="M 1259 4147 
L 1259 2394 
L 2053 2394 
Q 2494 2394 2734 2622 
Q 2975 2850 2975 3272 
Q 2975 3691 2734 3919 
Q 2494 4147 2053 4147 
L 1259 4147 
z
M 628 4666 
L 2053 4666 
Q 2838 4666 3239 4311 
Q 3641 3956 3641 3272 
Q 3641 2581 3239 2228 
Q 2838 1875 2053 1875 
L 1259 1875 
L 1259 0 
L 628 0 
L 628 4666 
z
" id="DejaVuSans-50" transform="scale(0.015625)"/>
      </defs>
      <use xlink:href="#DejaVuSans-53"/>
      <use x="63.476562" xlink:href="#DejaVuSans-4c"/>
      <use x="119.189453" xlink:href="#DejaVuSans-53"/>
      <use x="182.666016" xlink:href="#DejaVuSans-51"/>
      <use x="261.376953" xlink:href="#DejaVuSans-50"/>
     </g>
    </g>
    <g id="line2d_21">
     <path d="M 480.76125 112.69125 
L 528.76125 112.69125 
" style="fill:none;stroke:#2ca02c;stroke-linecap:square;stroke-width:3;"/>
    </g>
    <g id="line2d_22"/>
    <g id="text_17">
     <!-- L-BFGS-B -->
     <g transform="translate(547.96125 121.09125)scale(0.24 -0.24)">
      <defs>
       <path d="M 313 2009 
L 1997 2009 
L 1997 1497 
L 313 1497 
L 313 2009 
z
" id="DejaVuSans-2d" transform="scale(0.015625)"/>
       <path d="M 628 4666 
L 3309 4666 
L 3309 4134 
L 1259 4134 
L 1259 2759 
L 3109 2759 
L 3109 2228 
L 1259 2228 
L 1259 0 
L 628 0 
L 628 4666 
z
" id="DejaVuSans-46" transform="scale(0.015625)"/>
       <path d="M 3809 666 
L 3809 1919 
L 2778 1919 
L 2778 2438 
L 4434 2438 
L 4434 434 
Q 4069 175 3628 42 
Q 3188 -91 2688 -91 
Q 1594 -91 976 548 
Q 359 1188 359 2328 
Q 359 3472 976 4111 
Q 1594 4750 2688 4750 
Q 3144 4750 3555 4637 
Q 3966 4525 4313 4306 
L 4313 3634 
Q 3963 3931 3569 4081 
Q 3175 4231 2741 4231 
Q 1884 4231 1454 3753 
Q 1025 3275 1025 2328 
Q 1025 1384 1454 906 
Q 1884 428 2741 428 
Q 3075 428 3337 486 
Q 3600 544 3809 666 
z
" id="DejaVuSans-47" transform="scale(0.015625)"/>
      </defs>
      <use xlink:href="#DejaVuSans-4c"/>
      <use x="53.962891" xlink:href="#DejaVuSans-2d"/>
      <use x="86.421875" xlink:href="#DejaVuSans-42"/>
      <use x="155.025391" xlink:href="#DejaVuSans-46"/>
      <use x="212.544922" xlink:href="#DejaVuSans-47"/>
      <use x="290.035156" xlink:href="#DejaVuSans-53"/>
      <use x="353.511719" xlink:href="#DejaVuSans-2d"/>
      <use x="385.970703" xlink:href="#DejaVuSans-42"/>
     </g>
    </g>
    <g id="line2d_23">
     <path d="M 480.76125 147.91875 
L 528.76125 147.91875 
" style="fill:none;stroke:#000000;stroke-dasharray:7.4,3.2;stroke-dashoffset:0;stroke-width:2;"/>
    </g>
    <g id="line2d_24"/>
    <g id="text_18">
     <!-- HT -->
     <g transform="translate(547.96125 156.31875)scale(0.24 -0.24)">
      <defs>
       <path d="M 628 4666 
L 1259 4666 
L 1259 2753 
L 3553 2753 
L 3553 4666 
L 4184 4666 
L 4184 0 
L 3553 0 
L 3553 2222 
L 1259 2222 
L 1259 0 
L 628 0 
L 628 4666 
z
" id="DejaVuSans-48" transform="scale(0.015625)"/>
       <path d="M -19 4666 
L 3928 4666 
L 3928 4134 
L 2272 4134 
L 2272 0 
L 1638 0 
L 1638 4134 
L -19 4134 
L -19 4666 
z
" id="DejaVuSans-54" transform="scale(0.015625)"/>
      </defs>
      <use xlink:href="#DejaVuSans-48"/>
      <use x="75.195312" xlink:href="#DejaVuSans-54"/>
     </g>
    </g>
   </g>
  </g>
 </g>
 <defs>
  <clipPath id="p6343043e2f">
   <rect height="496.945" width="618.3625" x="60.2975" y="10.8"/>
  </clipPath>
 </defs>
</svg>
