<?xml version="1.0" encoding="utf-8" standalone="no"?>
<!DOCTYPE svg PUBLIC "-//W3C//DTD SVG 1.1//EN"
  "http://www.w3.org/Graphics/SVG/1.1/DTD/svg11.dtd">
<svg height="576pt" version="1.1" viewBox="0 0 720 576" width="720pt" xmlns="http://www.w3.org/2000/svg" xmlns:xlink="http://www.w3.org/1999/xlink">
 <metadata>
  <rdf:RDF xmlns:cc="http://creativecommons.org/ns#" xmlns:dc="http://purl.org/dc/elements/1.1/" xmlns:rdf="http://www.w3.org/1999/02/22-rdf-syntax-ns#">
   <cc:Work>
    <dc:type rdf:resource="http://purl.org/dc/dcmitype/StillImage"/>
    <dc:date>2021-07-30T13:12:42.311906</dc:date>
    <dc:format>image/svg+xml</dc:format>
    <dc:creator>
     <cc:Agent>
      <dc:title>Matplotlib v3.4.2, https://matplotlib.org/</dc:title>
     </cc:Agent>
    </dc:creator>
   </cc:Work>
  </rdf:RDF>
 </metadata>
 <defs>
  <style type="text/css">*{stroke-linecap:butt;stroke-linejoin:round;}</style>
 </defs>
 <g id="figure_1">
  <g id="patch_1">
   <path d="M 0 576 
L 720 576 
L 720 0 
L 0 0 
z
" style="fill:#ffffff;"/>
  </g>
  <g id="axes_1">
   <g id="patch_2">
    <path d="M 60.2975 507.745 
L 678.66 507.745 
L 678.66 10.8 
L 60.2975 10.8 
z
" style="fill:#ffffff;"/>
   </g>
   <g id="matplotlib.axis_1">
    <g id="xtick_1">
     <g id="line2d_1">
      <defs>
       <path d="M 0 0 
L 0 3.5 
" id="m9cd341a605" style="stroke:#000000;stroke-width:0.8;"/>
      </defs>
      <g>
       <use style="stroke:#000000;stroke-width:0.8;" x="60.2975" xlink:href="#m9cd341a605" y="507.745"/>
      </g>
     </g>
     <g id="text_1">
      <!-- 0 -->
      <g transform="translate(52.6625 532.98125)scale(0.24 -0.24)">
       <defs>
        <path d="M 2034 4250 
Q 1547 4250 1301 3770 
Q 1056 3291 1056 2328 
Q 1056 1369 1301 889 
Q 1547 409 2034 409 
Q 2525 409 2770 889 
Q 3016 1369 3016 2328 
Q 3016 3291 2770 3770 
Q 2525 4250 2034 4250 
z
M 2034 4750 
Q 2819 4750 3233 4129 
Q 3647 3509 3647 2328 
Q 3647 1150 3233 529 
Q 2819 -91 2034 -91 
Q 1250 -91 836 529 
Q 422 1150 422 2328 
Q 422 3509 836 4129 
Q 1250 4750 2034 4750 
z
" id="DejaVuSans-30" transform="scale(0.015625)"/>
       </defs>
       <use xlink:href="#DejaVuSans-30"/>
      </g>
     </g>
    </g>
    <g id="xtick_2">
     <g id="line2d_2">
      <g>
       <use style="stroke:#000000;stroke-width:0.8;" x="183.97" xlink:href="#m9cd341a605" y="507.745"/>
      </g>
     </g>
     <g id="text_2">
      <!-- 1000 -->
      <g transform="translate(153.43 532.98125)scale(0.24 -0.24)">
       <defs>
        <path d="M 794 531 
L 1825 531 
L 1825 4091 
L 703 3866 
L 703 4441 
L 1819 4666 
L 2450 4666 
L 2450 531 
L 3481 531 
L 3481 0 
L 794 0 
L 794 531 
z
" id="DejaVuSans-31" transform="scale(0.015625)"/>
       </defs>
       <use xlink:href="#DejaVuSans-31"/>
       <use x="63.623047" xlink:href="#DejaVuSans-30"/>
       <use x="127.246094" xlink:href="#DejaVuSans-30"/>
       <use x="190.869141" xlink:href="#DejaVuSans-30"/>
      </g>
     </g>
    </g>
    <g id="xtick_3">
     <g id="line2d_3">
      <g>
       <use style="stroke:#000000;stroke-width:0.8;" x="307.6425" xlink:href="#m9cd341a605" y="507.745"/>
      </g>
     </g>
     <g id="text_3">
      <!-- 2000 -->
      <g transform="translate(277.1025 532.98125)scale(0.24 -0.24)">
       <defs>
        <path d="M 1228 531 
L 3431 531 
L 3431 0 
L 469 0 
L 469 531 
Q 828 903 1448 1529 
Q 2069 2156 2228 2338 
Q 2531 2678 2651 2914 
Q 2772 3150 2772 3378 
Q 2772 3750 2511 3984 
Q 2250 4219 1831 4219 
Q 1534 4219 1204 4116 
Q 875 4013 500 3803 
L 500 4441 
Q 881 4594 1212 4672 
Q 1544 4750 1819 4750 
Q 2544 4750 2975 4387 
Q 3406 4025 3406 3419 
Q 3406 3131 3298 2873 
Q 3191 2616 2906 2266 
Q 2828 2175 2409 1742 
Q 1991 1309 1228 531 
z
" id="DejaVuSans-32" transform="scale(0.015625)"/>
       </defs>
       <use xlink:href="#DejaVuSans-32"/>
       <use x="63.623047" xlink:href="#DejaVuSans-30"/>
       <use x="127.246094" xlink:href="#DejaVuSans-30"/>
       <use x="190.869141" xlink:href="#DejaVuSans-30"/>
      </g>
     </g>
    </g>
    <g id="xtick_4">
     <g id="line2d_4">
      <g>
       <use style="stroke:#000000;stroke-width:0.8;" x="431.315" xlink:href="#m9cd341a605" y="507.745"/>
      </g>
     </g>
     <g id="text_4">
      <!-- 3000 -->
      <g transform="translate(400.775 532.98125)scale(0.24 -0.24)">
       <defs>
        <path d="M 2597 2516 
Q 3050 2419 3304 2112 
Q 3559 1806 3559 1356 
Q 3559 666 3084 287 
Q 2609 -91 1734 -91 
Q 1441 -91 1130 -33 
Q 819 25 488 141 
L 488 750 
Q 750 597 1062 519 
Q 1375 441 1716 441 
Q 2309 441 2620 675 
Q 2931 909 2931 1356 
Q 2931 1769 2642 2001 
Q 2353 2234 1838 2234 
L 1294 2234 
L 1294 2753 
L 1863 2753 
Q 2328 2753 2575 2939 
Q 2822 3125 2822 3475 
Q 2822 3834 2567 4026 
Q 2313 4219 1838 4219 
Q 1578 4219 1281 4162 
Q 984 4106 628 3988 
L 628 4550 
Q 988 4650 1302 4700 
Q 1616 4750 1894 4750 
Q 2613 4750 3031 4423 
Q 3450 4097 3450 3541 
Q 3450 3153 3228 2886 
Q 3006 2619 2597 2516 
z
" id="DejaVuSans-33" transform="scale(0.015625)"/>
       </defs>
       <use xlink:href="#DejaVuSans-33"/>
       <use x="63.623047" xlink:href="#DejaVuSans-30"/>
       <use x="127.246094" xlink:href="#DejaVuSans-30"/>
       <use x="190.869141" xlink:href="#DejaVuSans-30"/>
      </g>
     </g>
    </g>
    <g id="xtick_5">
     <g id="line2d_5">
      <g>
       <use style="stroke:#000000;stroke-width:0.8;" x="554.9875" xlink:href="#m9cd341a605" y="507.745"/>
      </g>
     </g>
     <g id="text_5">
      <!-- 4000 -->
      <g transform="translate(524.4475 532.98125)scale(0.24 -0.24)">
       <defs>
        <path d="M 2419 4116 
L 825 1625 
L 2419 1625 
L 2419 4116 
z
M 2253 4666 
L 3047 4666 
L 3047 1625 
L 3713 1625 
L 3713 1100 
L 3047 1100 
L 3047 0 
L 2419 0 
L 2419 1100 
L 313 1100 
L 313 1709 
L 2253 4666 
z
" id="DejaVuSans-34" transform="scale(0.015625)"/>
       </defs>
       <use xlink:href="#DejaVuSans-34"/>
       <use x="63.623047" xlink:href="#DejaVuSans-30"/>
       <use x="127.246094" xlink:href="#DejaVuSans-30"/>
       <use x="190.869141" xlink:href="#DejaVuSans-30"/>
      </g>
     </g>
    </g>
    <g id="xtick_6">
     <g id="line2d_6">
      <g>
       <use style="stroke:#000000;stroke-width:0.8;" x="678.66" xlink:href="#m9cd341a605" y="507.745"/>
      </g>
     </g>
     <g id="text_6">
      <!-- 5000 -->
      <g transform="translate(648.12 532.98125)scale(0.24 -0.24)">
       <defs>
        <path d="M 691 4666 
L 3169 4666 
L 3169 4134 
L 1269 4134 
L 1269 2991 
Q 1406 3038 1543 3061 
Q 1681 3084 1819 3084 
Q 2600 3084 3056 2656 
Q 3513 2228 3513 1497 
Q 3513 744 3044 326 
Q 2575 -91 1722 -91 
Q 1428 -91 1123 -41 
Q 819 9 494 109 
L 494 744 
Q 775 591 1075 516 
Q 1375 441 1709 441 
Q 2250 441 2565 725 
Q 2881 1009 2881 1497 
Q 2881 1984 2565 2268 
Q 2250 2553 1709 2553 
Q 1456 2553 1204 2497 
Q 953 2441 691 2322 
L 691 4666 
z
" id="DejaVuSans-35" transform="scale(0.015625)"/>
       </defs>
       <use xlink:href="#DejaVuSans-35"/>
       <use x="63.623047" xlink:href="#DejaVuSans-30"/>
       <use x="127.246094" xlink:href="#DejaVuSans-30"/>
       <use x="190.869141" xlink:href="#DejaVuSans-30"/>
      </g>
     </g>
    </g>
    <g id="text_7">
     <!-- iterations -->
     <g transform="translate(312.533125 560.20875)scale(0.24 -0.24)">
      <defs>
       <path d="M 603 3500 
L 1178 3500 
L 1178 0 
L 603 0 
L 603 3500 
z
M 603 4863 
L 1178 4863 
L 1178 4134 
L 603 4134 
L 603 4863 
z
" id="DejaVuSans-69" transform="scale(0.015625)"/>
       <path d="M 1172 4494 
L 1172 3500 
L 2356 3500 
L 2356 3053 
L 1172 3053 
L 1172 1153 
Q 1172 725 1289 603 
Q 1406 481 1766 481 
L 2356 481 
L 2356 0 
L 1766 0 
Q 1100 0 847 248 
Q 594 497 594 1153 
L 594 3053 
L 172 3053 
L 172 3500 
L 594 3500 
L 594 4494 
L 1172 4494 
z
" id="DejaVuSans-74" transform="scale(0.015625)"/>
       <path d="M 3597 1894 
L 3597 1613 
L 953 1613 
Q 991 1019 1311 708 
Q 1631 397 2203 397 
Q 2534 397 2845 478 
Q 3156 559 3463 722 
L 3463 178 
Q 3153 47 2828 -22 
Q 2503 -91 2169 -91 
Q 1331 -91 842 396 
Q 353 884 353 1716 
Q 353 2575 817 3079 
Q 1281 3584 2069 3584 
Q 2775 3584 3186 3129 
Q 3597 2675 3597 1894 
z
M 3022 2063 
Q 3016 2534 2758 2815 
Q 2500 3097 2075 3097 
Q 1594 3097 1305 2825 
Q 1016 2553 972 2059 
L 3022 2063 
z
" id="DejaVuSans-65" transform="scale(0.015625)"/>
       <path d="M 2631 2963 
Q 2534 3019 2420 3045 
Q 2306 3072 2169 3072 
Q 1681 3072 1420 2755 
Q 1159 2438 1159 1844 
L 1159 0 
L 581 0 
L 581 3500 
L 1159 3500 
L 1159 2956 
Q 1341 3275 1631 3429 
Q 1922 3584 2338 3584 
Q 2397 3584 2469 3576 
Q 2541 3569 2628 3553 
L 2631 2963 
z
" id="DejaVuSans-72" transform="scale(0.015625)"/>
       <path d="M 2194 1759 
Q 1497 1759 1228 1600 
Q 959 1441 959 1056 
Q 959 750 1161 570 
Q 1363 391 1709 391 
Q 2188 391 2477 730 
Q 2766 1069 2766 1631 
L 2766 1759 
L 2194 1759 
z
M 3341 1997 
L 3341 0 
L 2766 0 
L 2766 531 
Q 2569 213 2275 61 
Q 1981 -91 1556 -91 
Q 1019 -91 701 211 
Q 384 513 384 1019 
Q 384 1609 779 1909 
Q 1175 2209 1959 2209 
L 2766 2209 
L 2766 2266 
Q 2766 2663 2505 2880 
Q 2244 3097 1772 3097 
Q 1472 3097 1187 3025 
Q 903 2953 641 2809 
L 641 3341 
Q 956 3463 1253 3523 
Q 1550 3584 1831 3584 
Q 2591 3584 2966 3190 
Q 3341 2797 3341 1997 
z
" id="DejaVuSans-61" transform="scale(0.015625)"/>
       <path d="M 1959 3097 
Q 1497 3097 1228 2736 
Q 959 2375 959 1747 
Q 959 1119 1226 758 
Q 1494 397 1959 397 
Q 2419 397 2687 759 
Q 2956 1122 2956 1747 
Q 2956 2369 2687 2733 
Q 2419 3097 1959 3097 
z
M 1959 3584 
Q 2709 3584 3137 3096 
Q 3566 2609 3566 1747 
Q 3566 888 3137 398 
Q 2709 -91 1959 -91 
Q 1206 -91 779 398 
Q 353 888 353 1747 
Q 353 2609 779 3096 
Q 1206 3584 1959 3584 
z
" id="DejaVuSans-6f" transform="scale(0.015625)"/>
       <path d="M 3513 2113 
L 3513 0 
L 2938 0 
L 2938 2094 
Q 2938 2591 2744 2837 
Q 2550 3084 2163 3084 
Q 1697 3084 1428 2787 
Q 1159 2491 1159 1978 
L 1159 0 
L 581 0 
L 581 3500 
L 1159 3500 
L 1159 2956 
Q 1366 3272 1645 3428 
Q 1925 3584 2291 3584 
Q 2894 3584 3203 3211 
Q 3513 2838 3513 2113 
z
" id="DejaVuSans-6e" transform="scale(0.015625)"/>
       <path d="M 2834 3397 
L 2834 2853 
Q 2591 2978 2328 3040 
Q 2066 3103 1784 3103 
Q 1356 3103 1142 2972 
Q 928 2841 928 2578 
Q 928 2378 1081 2264 
Q 1234 2150 1697 2047 
L 1894 2003 
Q 2506 1872 2764 1633 
Q 3022 1394 3022 966 
Q 3022 478 2636 193 
Q 2250 -91 1575 -91 
Q 1294 -91 989 -36 
Q 684 19 347 128 
L 347 722 
Q 666 556 975 473 
Q 1284 391 1588 391 
Q 1994 391 2212 530 
Q 2431 669 2431 922 
Q 2431 1156 2273 1281 
Q 2116 1406 1581 1522 
L 1381 1569 
Q 847 1681 609 1914 
Q 372 2147 372 2553 
Q 372 3047 722 3315 
Q 1072 3584 1716 3584 
Q 2034 3584 2315 3537 
Q 2597 3491 2834 3397 
z
" id="DejaVuSans-73" transform="scale(0.015625)"/>
      </defs>
      <use xlink:href="#DejaVuSans-69"/>
      <use x="27.783203" xlink:href="#DejaVuSans-74"/>
      <use x="66.992188" xlink:href="#DejaVuSans-65"/>
      <use x="128.515625" xlink:href="#DejaVuSans-72"/>
      <use x="169.628906" xlink:href="#DejaVuSans-61"/>
      <use x="230.908203" xlink:href="#DejaVuSans-74"/>
      <use x="270.117188" xlink:href="#DejaVuSans-69"/>
      <use x="297.900391" xlink:href="#DejaVuSans-6f"/>
      <use x="359.082031" xlink:href="#DejaVuSans-6e"/>
      <use x="422.460938" xlink:href="#DejaVuSans-73"/>
     </g>
    </g>
   </g>
   <g id="matplotlib.axis_2">
    <g id="ytick_1">
     <g id="line2d_7">
      <defs>
       <path d="M 0 0 
L -3.5 0 
" id="m66297003a0" style="stroke:#000000;stroke-width:0.8;"/>
      </defs>
      <g>
       <use style="stroke:#000000;stroke-width:0.8;" x="60.2975" xlink:href="#m66297003a0" y="502.395844"/>
      </g>
     </g>
     <g id="text_8">
      <!-- 0 -->
      <g transform="translate(38.0275 511.513969)scale(0.24 -0.24)">
       <use xlink:href="#DejaVuSans-30"/>
      </g>
     </g>
    </g>
    <g id="ytick_2">
     <g id="line2d_8">
      <g>
       <use style="stroke:#000000;stroke-width:0.8;" x="60.2975" xlink:href="#m66297003a0" y="434.503878"/>
      </g>
     </g>
     <g id="text_9">
      <!-- 1 -->
      <g transform="translate(38.0275 443.622003)scale(0.24 -0.24)">
       <use xlink:href="#DejaVuSans-31"/>
      </g>
     </g>
    </g>
    <g id="ytick_3">
     <g id="line2d_9">
      <g>
       <use style="stroke:#000000;stroke-width:0.8;" x="60.2975" xlink:href="#m66297003a0" y="366.611911"/>
      </g>
     </g>
     <g id="text_10">
      <!-- 2 -->
      <g transform="translate(38.0275 375.730036)scale(0.24 -0.24)">
       <use xlink:href="#DejaVuSans-32"/>
      </g>
     </g>
    </g>
    <g id="ytick_4">
     <g id="line2d_10">
      <g>
       <use style="stroke:#000000;stroke-width:0.8;" x="60.2975" xlink:href="#m66297003a0" y="298.719944"/>
      </g>
     </g>
     <g id="text_11">
      <!-- 3 -->
      <g transform="translate(38.0275 307.838069)scale(0.24 -0.24)">
       <use xlink:href="#DejaVuSans-33"/>
      </g>
     </g>
    </g>
    <g id="ytick_5">
     <g id="line2d_11">
      <g>
       <use style="stroke:#000000;stroke-width:0.8;" x="60.2975" xlink:href="#m66297003a0" y="230.827977"/>
      </g>
     </g>
     <g id="text_12">
      <!-- 4 -->
      <g transform="translate(38.0275 239.946102)scale(0.24 -0.24)">
       <use xlink:href="#DejaVuSans-34"/>
      </g>
     </g>
    </g>
    <g id="ytick_6">
     <g id="line2d_12">
      <g>
       <use style="stroke:#000000;stroke-width:0.8;" x="60.2975" xlink:href="#m66297003a0" y="162.936011"/>
      </g>
     </g>
     <g id="text_13">
      <!-- 5 -->
      <g transform="translate(38.0275 172.054136)scale(0.24 -0.24)">
       <use xlink:href="#DejaVuSans-35"/>
      </g>
     </g>
    </g>
    <g id="ytick_7">
     <g id="line2d_13">
      <g>
       <use style="stroke:#000000;stroke-width:0.8;" x="60.2975" xlink:href="#m66297003a0" y="95.044044"/>
      </g>
     </g>
     <g id="text_14">
      <!-- 6 -->
      <g transform="translate(38.0275 104.162169)scale(0.24 -0.24)">
       <defs>
        <path d="M 2113 2584 
Q 1688 2584 1439 2293 
Q 1191 2003 1191 1497 
Q 1191 994 1439 701 
Q 1688 409 2113 409 
Q 2538 409 2786 701 
Q 3034 994 3034 1497 
Q 3034 2003 2786 2293 
Q 2538 2584 2113 2584 
z
M 3366 4563 
L 3366 3988 
Q 3128 4100 2886 4159 
Q 2644 4219 2406 4219 
Q 1781 4219 1451 3797 
Q 1122 3375 1075 2522 
Q 1259 2794 1537 2939 
Q 1816 3084 2150 3084 
Q 2853 3084 3261 2657 
Q 3669 2231 3669 1497 
Q 3669 778 3244 343 
Q 2819 -91 2113 -91 
Q 1303 -91 875 529 
Q 447 1150 447 2328 
Q 447 3434 972 4092 
Q 1497 4750 2381 4750 
Q 2619 4750 2861 4703 
Q 3103 4656 3366 4563 
z
" id="DejaVuSans-36" transform="scale(0.015625)"/>
       </defs>
       <use xlink:href="#DejaVuSans-36"/>
      </g>
     </g>
    </g>
    <g id="ytick_8">
     <g id="line2d_14">
      <g>
       <use style="stroke:#000000;stroke-width:0.8;" x="60.2975" xlink:href="#m66297003a0" y="27.152077"/>
      </g>
     </g>
     <g id="text_15">
      <!-- 7 -->
      <g transform="translate(38.0275 36.270202)scale(0.24 -0.24)">
       <defs>
        <path d="M 525 4666 
L 3525 4666 
L 3525 4397 
L 1831 0 
L 1172 0 
L 2766 4134 
L 525 4134 
L 525 4666 
z
" id="DejaVuSans-37" transform="scale(0.015625)"/>
       </defs>
       <use xlink:href="#DejaVuSans-37"/>
      </g>
     </g>
    </g>
    <g id="text_16">
     <!-- VQE energy -->
     <g transform="translate(29.03625 330.14)rotate(-90)scale(0.24 -0.24)">
      <defs>
       <path d="M 1831 0 
L 50 4666 
L 709 4666 
L 2188 738 
L 3669 4666 
L 4325 4666 
L 2547 0 
L 1831 0 
z
" id="DejaVuSans-56" transform="scale(0.015625)"/>
       <path d="M 2522 4238 
Q 1834 4238 1429 3725 
Q 1025 3213 1025 2328 
Q 1025 1447 1429 934 
Q 1834 422 2522 422 
Q 3209 422 3611 934 
Q 4013 1447 4013 2328 
Q 4013 3213 3611 3725 
Q 3209 4238 2522 4238 
z
M 3406 84 
L 4238 -825 
L 3475 -825 
L 2784 -78 
Q 2681 -84 2626 -87 
Q 2572 -91 2522 -91 
Q 1538 -91 948 567 
Q 359 1225 359 2328 
Q 359 3434 948 4092 
Q 1538 4750 2522 4750 
Q 3503 4750 4090 4092 
Q 4678 3434 4678 2328 
Q 4678 1516 4351 937 
Q 4025 359 3406 84 
z
" id="DejaVuSans-51" transform="scale(0.015625)"/>
       <path d="M 628 4666 
L 3578 4666 
L 3578 4134 
L 1259 4134 
L 1259 2753 
L 3481 2753 
L 3481 2222 
L 1259 2222 
L 1259 531 
L 3634 531 
L 3634 0 
L 628 0 
L 628 4666 
z
" id="DejaVuSans-45" transform="scale(0.015625)"/>
       <path id="DejaVuSans-20" transform="scale(0.015625)"/>
       <path d="M 2906 1791 
Q 2906 2416 2648 2759 
Q 2391 3103 1925 3103 
Q 1463 3103 1205 2759 
Q 947 2416 947 1791 
Q 947 1169 1205 825 
Q 1463 481 1925 481 
Q 2391 481 2648 825 
Q 2906 1169 2906 1791 
z
M 3481 434 
Q 3481 -459 3084 -895 
Q 2688 -1331 1869 -1331 
Q 1566 -1331 1297 -1286 
Q 1028 -1241 775 -1147 
L 775 -588 
Q 1028 -725 1275 -790 
Q 1522 -856 1778 -856 
Q 2344 -856 2625 -561 
Q 2906 -266 2906 331 
L 2906 616 
Q 2728 306 2450 153 
Q 2172 0 1784 0 
Q 1141 0 747 490 
Q 353 981 353 1791 
Q 353 2603 747 3093 
Q 1141 3584 1784 3584 
Q 2172 3584 2450 3431 
Q 2728 3278 2906 2969 
L 2906 3500 
L 3481 3500 
L 3481 434 
z
" id="DejaVuSans-67" transform="scale(0.015625)"/>
       <path d="M 2059 -325 
Q 1816 -950 1584 -1140 
Q 1353 -1331 966 -1331 
L 506 -1331 
L 506 -850 
L 844 -850 
Q 1081 -850 1212 -737 
Q 1344 -625 1503 -206 
L 1606 56 
L 191 3500 
L 800 3500 
L 1894 763 
L 2988 3500 
L 3597 3500 
L 2059 -325 
z
" id="DejaVuSans-79" transform="scale(0.015625)"/>
      </defs>
      <use xlink:href="#DejaVuSans-56"/>
      <use x="68.408203" xlink:href="#DejaVuSans-51"/>
      <use x="147.119141" xlink:href="#DejaVuSans-45"/>
      <use x="210.302734" xlink:href="#DejaVuSans-20"/>
      <use x="242.089844" xlink:href="#DejaVuSans-65"/>
      <use x="303.613281" xlink:href="#DejaVuSans-6e"/>
      <use x="366.992188" xlink:href="#DejaVuSans-65"/>
      <use x="428.515625" xlink:href="#DejaVuSans-72"/>
      <use x="467.878906" xlink:href="#DejaVuSans-67"/>
      <use x="531.355469" xlink:href="#DejaVuSans-79"/>
     </g>
    </g>
   </g>
   <g id="line2d_15">
    <path clip-path="url(#p060c055ff3)" d="M 60.421172 72.013639 
L 60.668518 59.627429 
L 60.915863 104.484744 
L 61.039535 105.028852 
L 61.163207 101.438154 
L 61.28688 124.098003 
L 61.410553 117.734619 
L 61.534225 119.264767 
L 61.657897 124.586708 
L 61.78157 117.414179 
L 61.905242 131.386843 
L 62.028915 132.404658 
L 62.152587 130.761111 
L 62.27626 83.196215 
L 62.399932 100.886359 
L 62.523605 139.846513 
L 62.647278 128.238809 
L 62.77095 128.598014 
L 62.894622 137.654894 
L 63.018295 133.600313 
L 63.141967 149.520072 
L 63.26564 149.416044 
L 63.389313 145.594208 
L 63.512985 160.611576 
L 63.636657 157.992177 
L 63.76033 162.377416 
L 63.884003 159.500211 
L 64.007675 162.926837 
L 64.131348 137.665246 
L 64.378692 166.524274 
L 64.502365 160.597642 
L 64.626037 169.138536 
L 64.74971 167.759358 
L 64.873383 137.576499 
L 64.997055 209.520354 
L 65.120728 208.804124 
L 65.2444 207.073594 
L 65.368072 198.096337 
L 65.491745 199.446201 
L 65.615417 229.356746 
L 65.73909 228.355148 
L 65.862763 228.431926 
L 65.986435 210.338297 
L 66.110107 216.859758 
L 66.23378 201.715009 
L 66.357452 229.727215 
L 66.481125 227.345937 
L 66.604798 229.402008 
L 66.72847 265.406836 
L 66.852142 243.115117 
L 66.975815 264.819882 
L 67.099487 251.517948 
L 67.22316 260.127511 
L 67.346833 232.949755 
L 67.470505 263.585991 
L 67.594178 235.87523 
L 67.71785 258.812234 
L 67.841522 248.680314 
L 67.965195 263.721547 
L 68.21254 260.769551 
L 68.336213 244.071131 
L 68.583557 272.725262 
L 68.70723 252.537303 
L 68.954575 277.609538 
L 69.078248 288.995157 
L 69.325592 273.022851 
L 69.449265 281.560639 
L 69.572937 278.165763 
L 69.820283 265.126761 
L 69.943955 279.964392 
L 70.067628 308.412575 
L 70.1913 302.397342 
L 70.314972 276.887623 
L 70.438645 300.825249 
L 70.562318 301.315613 
L 70.68599 291.656518 
L 70.809663 291.809016 
L 70.933335 310.363445 
L 71.057007 266.049462 
L 71.304352 310.437367 
L 71.428025 290.918203 
L 71.551698 294.043638 
L 71.67537 312.240853 
L 71.799042 309.549174 
L 71.922715 315.028534 
L 72.046387 301.727448 
L 72.17006 304.438754 
L 72.293733 293.857781 
L 72.417405 307.555507 
L 72.541078 305.570764 
L 72.66475 317.661689 
L 72.788422 285.018119 
L 72.912095 322.91867 
L 73.035767 285.877185 
L 73.15944 323.461228 
L 73.283113 309.756329 
L 73.406785 329.448693 
L 73.530457 307.627681 
L 73.65413 316.610521 
L 73.777802 306.401585 
L 73.901475 318.012844 
L 74.025148 318.13587 
L 74.14882 320.860893 
L 74.272492 294.34384 
L 74.519837 322.338544 
L 74.64351 320.73294 
L 74.767183 299.178435 
L 74.890855 329.284926 
L 75.014527 293.129289 
L 75.1382 325.656549 
L 75.261872 325.670717 
L 75.385545 326.732654 
L 75.63289 332.081552 
L 75.756563 327.998734 
L 75.880235 319.476738 
L 76.003907 335.18294 
L 76.251252 338.324815 
L 76.374925 347.296257 
L 76.498598 336.269333 
L 76.745942 352.155507 
L 76.869615 356.208225 
L 76.993287 346.171105 
L 77.11696 357.991484 
L 77.240633 358.155495 
L 77.364305 346.330815 
L 77.487977 359.409815 
L 77.61165 356.684151 
L 77.735322 358.696833 
L 77.982667 374.263007 
L 78.10634 371.680335 
L 78.230013 372.695614 
L 78.353685 368.663814 
L 78.477357 372.023954 
L 78.60103 370.837401 
L 78.724703 364.949758 
L 78.848375 374.271693 
L 78.972048 344.503466 
L 79.09572 377.45384 
L 79.219392 371.790824 
L 79.466737 383.145207 
L 79.59041 374.566222 
L 79.714082 394.355383 
L 79.961427 383.923538 
L 80.0851 394.941898 
L 80.208772 387.944986 
L 80.332445 394.171768 
L 80.456118 380.299569 
L 80.57979 399.066273 
L 80.703463 372.191612 
L 80.950807 404.533436 
L 81.198152 391.448048 
L 81.321825 406.451202 
L 81.445498 406.587478 
L 81.56917 401.743815 
L 81.816515 411.043059 
L 82.06386 413.757357 
L 82.187533 399.823262 
L 82.434877 424.413453 
L 82.682222 414.477864 
L 82.805895 424.900701 
L 82.929567 398.262958 
L 83.176913 423.860605 
L 83.300585 422.49994 
L 83.424257 414.608567 
L 83.54793 424.326661 
L 83.795275 420.121803 
L 83.918948 417.475592 
L 84.166292 425.615602 
L 84.289965 425.962584 
L 84.413637 421.324867 
L 84.660983 428.14614 
L 84.908327 433.599648 
L 85.032 428.4353 
L 85.155672 440.152763 
L 85.279345 435.988319 
L 85.403018 438.551227 
L 85.52669 436.479726 
L 85.650362 427.096368 
L 85.774035 439.156055 
L 85.897707 437.746564 
L 86.02138 439.065456 
L 86.268725 435.53041 
L 86.392398 428.019444 
L 86.763415 439.345915 
L 86.887087 426.287988 
L 87.01076 440.991211 
L 87.134433 432.091174 
L 87.258105 434.104721 
L 87.381777 443.204906 
L 87.50545 442.556307 
L 87.629122 435.382953 
L 87.752795 438.494996 
L 87.876467 435.845747 
L 88.00014 440.011345 
L 88.123812 424.888873 
L 88.247485 443.516312 
L 88.371157 430.761395 
L 88.618503 446.819303 
L 88.742175 445.141939 
L 88.865848 437.486052 
L 88.98952 441.86575 
L 89.113192 437.238058 
L 89.236865 441.113428 
L 89.360537 436.350661 
L 89.48421 441.472372 
L 89.607883 433.677923 
L 89.731555 443.248983 
L 89.855227 437.082547 
L 89.9789 440.078702 
L 90.102572 449.909865 
L 90.226245 448.682117 
L 90.597262 437.095525 
L 90.720935 441.392091 
L 90.844607 436.730473 
L 90.96828 439.14527 
L 91.091952 435.321071 
L 91.215625 442.28891 
L 91.339298 441.880354 
L 91.46297 451.11323 
L 91.586642 451.055798 
L 91.710315 451.39153 
L 91.833987 434.419732 
L 92.081333 446.134627 
L 92.205005 440.917464 
L 92.328677 449.866944 
L 92.45235 449.044928 
L 92.576022 441.668174 
L 92.699695 450.490443 
L 92.823367 449.504199 
L 92.94704 451.872366 
L 93.070712 450.892678 
L 93.194385 453.407654 
L 93.318057 452.748864 
L 93.44173 453.333301 
L 93.565403 450.88372 
L 93.689075 455.323053 
L 93.812748 454.653265 
L 93.93642 451.666663 
L 94.183765 456.842928 
L 94.307437 458.04378 
L 94.43111 454.991911 
L 94.678455 458.215157 
L 94.802127 458.344728 
L 94.9258 455.404137 
L 95.173145 460.822613 
L 95.296818 460.130404 
L 95.42049 462.7327 
L 95.544162 460.864453 
L 95.667835 460.744624 
L 95.91518 463.44054 
L 96.038852 463.021697 
L 96.162525 457.675128 
L 96.286198 463.955885 
L 96.40987 456.815001 
L 96.657215 463.320177 
L 96.780888 463.150526 
L 96.90456 455.082772 
L 97.028233 463.968829 
L 97.39925 460.520658 
L 97.522922 462.561967 
L 97.646595 459.887727 
L 97.770267 461.363225 
L 97.89394 465.971639 
L 98.017612 466.152682 
L 98.141285 465.625719 
L 98.264957 464.250607 
L 98.38863 466.20801 
L 98.512303 464.006141 
L 98.759647 465.334239 
L 98.88332 464.719576 
L 99.006992 464.718339 
L 99.130665 464.50284 
L 99.254337 462.270375 
L 99.37801 462.919711 
L 99.501682 464.9473 
L 99.625355 462.214194 
L 99.749027 465.010122 
L 99.8727 463.804492 
L 100.120045 465.664665 
L 100.243718 464.229331 
L 100.36739 465.143933 
L 100.491062 467.013171 
L 100.614735 465.658305 
L 100.738407 467.008788 
L 100.86208 466.981342 
L 101.109425 466.29836 
L 101.233097 466.864568 
L 101.480442 465.428928 
L 101.727788 466.633948 
L 101.85146 466.578132 
L 101.975133 468.013911 
L 102.098805 467.925988 
L 102.222477 467.212475 
L 102.34615 468.158825 
L 102.469822 468.018005 
L 102.593495 467.424853 
L 102.717167 468.022791 
L 102.84084 467.596143 
L 102.964512 468.468317 
L 103.088185 467.717713 
L 103.211857 469.014957 
L 103.33553 468.635237 
L 103.459203 469.140599 
L 103.582875 467.6893 
L 103.706547 470.231437 
L 103.83022 470.110058 
L 103.953892 466.973366 
L 104.201237 470.474611 
L 104.32491 469.481291 
L 104.448582 471.650436 
L 104.572255 470.765765 
L 104.695927 471.478796 
L 104.8196 470.565195 
L 104.943273 471.314712 
L 105.066945 471.064697 
L 105.31429 471.874737 
L 105.437962 471.613742 
L 105.561635 472.267591 
L 105.685307 471.6917 
L 105.80898 472.836535 
L 106.056325 472.643851 
L 106.179997 472.510142 
L 106.30367 471.104118 
L 106.551015 473.172544 
L 106.674688 472.217633 
L 106.922033 473.748933 
L 107.045705 472.707894 
L 107.29305 473.740646 
L 107.416722 473.47615 
L 107.540395 474.516819 
L 107.664067 474.298066 
L 107.78774 474.598169 
L 107.911412 474.168876 
L 108.035085 474.431405 
L 108.158757 473.603861 
L 108.28243 474.389543 
L 108.406103 474.368045 
L 108.529775 474.888935 
L 108.653447 474.526287 
L 108.77712 474.996687 
L 108.900792 474.741645 
L 109.024465 473.541886 
L 109.148137 475.091346 
L 109.27181 474.256096 
L 109.395482 475.007368 
L 109.519155 473.431488 
L 109.642827 474.655989 
L 109.7665 474.558574 
L 109.890173 475.159593 
L 110.013845 474.798042 
L 110.26119 475.777991 
L 110.384862 475.37246 
L 110.632207 475.407415 
L 110.75588 473.959697 
L 110.879552 475.522583 
L 111.003225 475.208488 
L 111.25057 476.210322 
L 111.374242 475.993331 
L 111.497915 475.139269 
L 111.621588 476.300825 
L 111.74526 475.156101 
L 111.992605 475.902701 
L 112.116277 475.770829 
L 112.363622 476.157677 
L 112.487295 476.131688 
L 112.73464 475.716651 
L 113.105657 476.214646 
L 113.22933 475.359021 
L 113.353003 476.34657 
L 113.600347 476.165856 
L 113.72402 475.438561 
L 113.847692 476.254032 
L 113.971365 475.630146 
L 114.095037 476.308788 
L 114.21871 475.906782 
L 114.342382 476.450129 
L 114.466055 476.369302 
L 114.589727 475.980718 
L 114.7134 476.307849 
L 114.837073 476.127785 
L 114.960745 476.467607 
L 115.084418 476.079976 
L 115.331762 476.686014 
L 115.950125 476.723498 
L 116.073797 476.598334 
L 116.321142 476.714702 
L 116.444815 476.690237 
L 116.568488 476.939387 
L 116.69216 476.751207 
L 116.815832 477.202682 
L 116.939505 477.019748 
L 117.18685 477.268019 
L 117.310522 477.207388 
L 117.434195 477.54394 
L 117.557867 477.114097 
L 117.68154 477.56389 
L 117.805212 477.463641 
L 117.928885 477.514859 
L 118.052557 477.246197 
L 118.17623 477.319823 
L 118.299903 477.692172 
L 118.547247 477.578865 
L 118.67092 477.779943 
L 118.794592 477.522316 
L 119.041937 477.76562 
L 119.289282 477.665753 
L 119.6603 477.83168 
L 119.907645 477.800525 
L 120.031318 477.620861 
L 120.278662 477.870613 
L 120.402335 477.872312 
L 120.526007 478.092005 
L 120.64968 477.95323 
L 120.897025 478.180614 
L 121.14437 478.145228 
L 121.268042 478.330093 
L 121.515388 478.104914 
L 121.762732 478.365502 
L 122.010077 478.119282 
L 122.13375 478.385781 
L 122.257422 478.173961 
L 122.381095 478.307166 
L 122.504767 477.7958 
L 122.62844 478.363448 
L 123.12313 478.186543 
L 123.246803 478.473269 
L 123.494147 478.362115 
L 123.61782 478.401911 
L 123.865165 478.265754 
L 124.359855 478.419727 
L 124.483527 477.93018 
L 124.6072 478.360953 
L 124.978217 478.308224 
L 125.225562 478.552107 
L 125.472907 478.400701 
L 125.59658 478.513295 
L 125.720253 478.344158 
L 125.967597 478.641358 
L 126.09127 478.631252 
L 126.214942 478.330134 
L 126.462287 478.531869 
L 126.709632 478.598384 
L 126.833305 478.650893 
L 126.956977 478.510133 
L 127.08065 478.635753 
L 127.451667 478.347738 
L 127.57534 478.546491 
L 127.699012 478.493334 
L 127.946357 478.584186 
L 128.193703 478.616242 
L 128.441047 478.649224 
L 129.183083 478.743439 
L 129.306755 478.630083 
L 129.5541 478.735452 
L 130.667152 478.77705 
L 131.903877 478.90926 
L 132.02755 478.833556 
L 132.274895 478.916199 
L 132.769585 478.84388 
L 132.893258 478.948567 
L 133.01693 478.877287 
L 133.387947 478.931341 
L 134.377327 479.036951 
L 134.501 478.954826 
L 134.748345 479.016871 
L 134.99569 478.971855 
L 135.366707 479.121487 
L 135.49038 479.025527 
L 135.737725 479.145658 
L 135.98507 479.077984 
L 136.232415 479.142106 
L 136.356088 479.078549 
L 136.727105 479.148226 
L 138.087502 479.153992 
L 138.334847 479.148649 
L 138.582192 479.160916 
L 139.076883 479.225645 
L 139.324228 479.207951 
L 139.818917 479.247852 
L 139.94259 479.201812 
L 140.189935 479.314761 
L 141.055642 479.268497 
L 141.42666 479.34853 
L 141.550332 479.270983 
L 141.797677 479.410229 
L 142.168695 479.371416 
L 142.787058 479.511527 
L 142.91073 479.385452 
L 143.281747 479.505057 
L 143.90011 479.600286 
L 144.271127 479.621545 
L 144.642145 479.669736 
L 144.765817 479.610188 
L 145.013162 479.649076 
L 145.755198 479.706544 
L 145.87887 479.6746 
L 146.002543 479.764707 
L 146.249887 479.726346 
L 147.85763 479.826257 
L 148.104975 479.917955 
L 148.475992 479.865629 
L 148.84701 479.891056 
L 149.094355 479.861758 
L 156.638377 480.183354 
L 157.875102 480.246113 
L 158.24612 480.194975 
L 159.2355 480.23789 
L 159.359172 480.159475 
L 159.73019 480.265768 
L 159.977535 480.213132 
L 160.348552 480.309483 
L 162.20364 480.343775 
L 162.450985 480.409681 
L 163.19302 480.398003 
L 163.440365 480.454635 
L 163.564037 480.387631 
L 163.68771 480.454725 
L 163.811382 480.393002 
L 163.935055 480.457699 
L 164.1824 480.416467 
L 164.800762 480.449727 
L 165.048107 480.471045 
L 167.15054 480.53375 
L 167.397885 480.550364 
L 167.892575 480.532629 
L 168.263592 480.61529 
L 168.758283 480.559013 
L 169.1293 480.632601 
L 169.62399 480.616245 
L 169.871335 480.651143 
L 169.995007 480.512679 
L 170.242352 480.623859 
L 170.366025 480.647153 
L 170.489697 480.545412 
L 170.61337 480.648459 
L 170.860715 480.636582 
L 171.355405 480.608021 
L 171.60275 480.63932 
L 171.726423 480.563292 
L 171.973768 480.677902 
L 172.963147 480.758493 
L 173.828855 480.822158 
L 174.199872 480.761394 
L 174.57089 480.805322 
L 175.436598 480.819826 
L 175.807615 480.890613 
L 176.05496 480.877644 
L 176.920667 480.854162 
L 177.168012 480.868447 
L 177.53903 480.899602 
L 177.786375 480.938629 
L 178.281065 480.906565 
L 179.146772 480.881657 
L 179.51779 480.945907 
L 179.888807 480.863705 
L 180.01248 480.973081 
L 180.259825 480.955265 
L 181.372877 480.966026 
L 181.743895 480.99126 
L 184.341017 481.074834 
L 195.718887 481.391394 
L 195.966232 481.386714 
L 199.058045 481.461834 
L 200.171097 481.509405 
L 204.25229 481.597816 
L 204.623308 481.590407 
L 207.467775 481.632259 
L 208.457155 481.662872 
L 210.930605 481.681459 
L 211.67264 481.727918 
L 218.10361 481.86431 
L 218.721972 481.930975 
L 219.340335 481.915155 
L 220.329715 481.966995 
L 223.05051 481.980012 
L 225.152942 482.054143 
L 225.647632 482.059072 
L 227.873738 482.132799 
L 228.121082 482.116699 
L 228.863117 482.166337 
L 230.96555 482.206063 
L 231.336568 482.225346 
L 233.686345 482.304652 
L 234.181035 482.315958 
L 234.799397 482.368225 
L 236.283467 482.365123 
L 240.36466 482.429971 
L 241.601385 482.438845 
L 242.34342 482.440032 
L 243.085455 482.498283 
L 243.580145 482.506969 
L 245.80625 482.557459 
L 247.29032 482.576677 
L 247.537665 482.579324 
L 248.403372 482.584559 
L 249.516425 482.615307 
L 252.113547 482.696269 
L 253.2266 482.712303 
L 253.968635 482.741692 
L 256.813102 482.779456 
L 257.802482 482.814596 
L 262.007347 482.87163 
L 263.61509 482.915118 
L 264.480797 482.916644 
L 265.222832 482.932775 
L 266.335885 482.936393 
L 338.189607 484.324297 
L 338.931643 484.328486 
L 339.673677 484.33295 
L 340.415712 484.336577 
L 341.28142 484.367399 
L 344.620577 484.412397 
L 347.836062 484.446769 
L 349.443805 484.43411 
L 350.556857 484.462641 
L 359.213932 484.578806 
L 360.450657 484.600789 
L 361.440038 484.609584 
L 364.53185 484.64368 
L 366.51061 484.657325 
L 369.47875 484.666104 
L 373.065252 484.687876 
L 444.67163 485.040071 
L 446.774062 485.047279 
L 458.399277 485.060414 
L 476.702808 485.088352 
L 489.68842 485.100986 
L 514.546592 485.115539 
L 535.941935 485.124261 
L 602.725085 485.142427 
L 647.98922 485.148345 
L 678.783672 485.150839 
L 678.783672 485.150839 
" style="fill:none;stroke:#1f77b4;stroke-linecap:square;stroke-width:3;"/>
   </g>
   <g id="line2d_16">
    <path clip-path="url(#p060c055ff3)" d="M 60.421172 33.38841 
L 64.873383 33.38841 
L 64.997055 180.344217 
L 69.449265 180.344217 
L 69.572937 139.785472 
L 69.69661 159.968063 
L 69.820283 212.272914 
L 74.272492 212.272914 
L 74.396165 250.04388 
L 78.848375 250.04388 
L 78.972048 297.24367 
L 83.424257 297.24367 
L 83.54793 327.072927 
L 88.00014 327.072926 
L 88.123812 352.74003 
L 92.576022 352.740031 
L 92.699695 369.069211 
L 97.151905 369.069211 
L 97.275577 382.886589 
L 101.727788 382.886589 
L 101.85146 391.130102 
L 106.30367 391.130102 
L 106.427342 400.145926 
L 110.879552 400.145926 
L 111.003225 409.279206 
L 115.455435 409.279206 
L 115.579107 424.568416 
L 120.031318 424.568416 
L 120.15499 316.355178 
L 120.278662 434.407999 
L 124.730872 434.407999 
L 124.854545 428.635105 
L 124.978217 443.421024 
L 129.430428 443.421025 
L 129.5541 459.910576 
L 134.00631 459.910576 
L 134.129982 463.913177 
L 138.582192 463.913177 
L 138.705865 477.470643 
L 143.158075 477.470643 
L 143.281747 479.444677 
L 147.733957 479.444677 
L 147.85763 480.610765 
L 152.30984 480.610765 
L 152.433513 480.898316 
L 156.885722 480.898316 
L 157.009395 481.242062 
L 225.52396 481.35002 
L 227.131702 481.358878 
L 289.709987 481.382226 
L 289.709987 481.382226 
" style="fill:none;stroke:#ff7f0e;stroke-linecap:square;stroke-width:3;"/>
   </g>
   <g id="line2d_17">
    <path clip-path="url(#p060c055ff3)" d="M 60.421172 81.56601 
L 64.873383 81.56601 
L 64.997055 168.71699 
L 69.449265 168.71699 
L 69.572937 193.735925 
L 74.025148 193.735925 
L 74.14882 259.98754 
L 78.60103 259.98754 
L 78.724703 280.140962 
L 83.176913 280.140962 
L 83.300585 325.305485 
L 87.752795 325.305485 
L 87.876467 385.74157 
L 92.328677 385.74157 
L 92.45235 415.030116 
L 96.90456 415.030116 
L 97.028233 409.35291 
L 101.480442 409.35291 
L 101.604115 442.851344 
L 106.056325 442.851344 
L 106.179997 461.532675 
L 110.632207 461.532675 
L 110.75588 466.965501 
L 115.20809 466.965501 
L 115.331762 473.622108 
L 119.783973 473.622108 
L 119.907645 474.964534 
L 124.359855 474.964534 
L 124.483527 476.448134 
L 133.51162 476.485034 
L 133.758965 476.736836 
L 138.087502 476.736836 
L 138.334847 476.916141 
L 151.81515 477.027129 
L 152.557185 477.04873 
L 160.966915 477.098596 
L 161.21426 477.223127 
L 165.542798 477.223127 
L 165.790143 477.074747 
L 170.11868 477.074747 
L 170.242352 477.435784 
L 174.694562 477.435784 
L 174.941907 477.662736 
L 179.270445 477.662736 
L 179.394117 478.454985 
L 183.846327 478.454985 
L 183.97 479.982494 
L 188.42221 479.982494 
L 188.545883 479.666954 
L 192.998092 479.666954 
L 193.121765 480.875813 
L 197.573975 480.875813 
L 197.82132 481.043155 
L 202.149857 481.043155 
L 202.397202 481.161322 
L 238.756917 481.262377 
L 239.993642 481.274282 
L 595.675752 481.38224 
L 595.675752 481.38224 
" style="fill:none;stroke:#2ca02c;stroke-linecap:square;stroke-width:3;"/>
   </g>
   <g id="line2d_18">
    <path clip-path="url(#p060c055ff3)" d="M 60.2975 501.248387 
L 678.66 501.248387 
" style="fill:none;stroke:#000000;stroke-dasharray:7.4,3.2;stroke-dashoffset:0;stroke-width:2;"/>
   </g>
   <g id="patch_3">
    <path d="M 60.2975 507.745 
L 60.2975 10.8 
" style="fill:none;stroke:#000000;stroke-linecap:square;stroke-linejoin:miter;stroke-width:0.8;"/>
   </g>
   <g id="patch_4">
    <path d="M 678.66 507.745 
L 678.66 10.8 
" style="fill:none;stroke:#000000;stroke-linecap:square;stroke-linejoin:miter;stroke-width:0.8;"/>
   </g>
   <g id="patch_5">
    <path d="M 60.2975 507.745 
L 678.66 507.745 
" style="fill:none;stroke:#000000;stroke-linecap:square;stroke-linejoin:miter;stroke-width:0.8;"/>
   </g>
   <g id="patch_6">
    <path d="M 60.2975 10.8 
L 678.66 10.8 
" style="fill:none;stroke:#000000;stroke-linecap:square;stroke-linejoin:miter;stroke-width:0.8;"/>
   </g>
   <g id="legend_1">
    <g id="patch_7">
     <path d="M 475.96125 170.91 
L 661.86 170.91 
Q 666.66 170.91 666.66 166.11 
L 666.66 27.6 
Q 666.66 22.8 661.86 22.8 
L 475.96125 22.8 
Q 471.16125 22.8 471.16125 27.6 
L 471.16125 166.11 
Q 471.16125 170.91 475.96125 170.91 
z
" style="fill:#ffffff;opacity:0.8;stroke:#cccccc;stroke-linejoin:miter;"/>
    </g>
    <g id="line2d_19">
     <path d="M 480.76125 42.23625 
L 528.76125 42.23625 
" style="fill:none;stroke:#1f77b4;stroke-linecap:square;stroke-width:3;"/>
    </g>
    <g id="line2d_20"/>
    <g id="text_17">
     <!-- COBYLA -->
     <g transform="translate(547.96125 50.63625)scale(0.24 -0.24)">
      <defs>
       <path d="M 4122 4306 
L 4122 3641 
Q 3803 3938 3442 4084 
Q 3081 4231 2675 4231 
Q 1875 4231 1450 3742 
Q 1025 3253 1025 2328 
Q 1025 1406 1450 917 
Q 1875 428 2675 428 
Q 3081 428 3442 575 
Q 3803 722 4122 1019 
L 4122 359 
Q 3791 134 3420 21 
Q 3050 -91 2638 -91 
Q 1578 -91 968 557 
Q 359 1206 359 2328 
Q 359 3453 968 4101 
Q 1578 4750 2638 4750 
Q 3056 4750 3426 4639 
Q 3797 4528 4122 4306 
z
" id="DejaVuSans-43" transform="scale(0.015625)"/>
       <path d="M 2522 4238 
Q 1834 4238 1429 3725 
Q 1025 3213 1025 2328 
Q 1025 1447 1429 934 
Q 1834 422 2522 422 
Q 3209 422 3611 934 
Q 4013 1447 4013 2328 
Q 4013 3213 3611 3725 
Q 3209 4238 2522 4238 
z
M 2522 4750 
Q 3503 4750 4090 4092 
Q 4678 3434 4678 2328 
Q 4678 1225 4090 567 
Q 3503 -91 2522 -91 
Q 1538 -91 948 565 
Q 359 1222 359 2328 
Q 359 3434 948 4092 
Q 1538 4750 2522 4750 
z
" id="DejaVuSans-4f" transform="scale(0.015625)"/>
       <path d="M 1259 2228 
L 1259 519 
L 2272 519 
Q 2781 519 3026 730 
Q 3272 941 3272 1375 
Q 3272 1813 3026 2020 
Q 2781 2228 2272 2228 
L 1259 2228 
z
M 1259 4147 
L 1259 2741 
L 2194 2741 
Q 2656 2741 2882 2914 
Q 3109 3088 3109 3444 
Q 3109 3797 2882 3972 
Q 2656 4147 2194 4147 
L 1259 4147 
z
M 628 4666 
L 2241 4666 
Q 2963 4666 3353 4366 
Q 3744 4066 3744 3513 
Q 3744 3084 3544 2831 
Q 3344 2578 2956 2516 
Q 3422 2416 3680 2098 
Q 3938 1781 3938 1306 
Q 3938 681 3513 340 
Q 3088 0 2303 0 
L 628 0 
L 628 4666 
z
" id="DejaVuSans-42" transform="scale(0.015625)"/>
       <path d="M -13 4666 
L 666 4666 
L 1959 2747 
L 3244 4666 
L 3922 4666 
L 2272 2222 
L 2272 0 
L 1638 0 
L 1638 2222 
L -13 4666 
z
" id="DejaVuSans-59" transform="scale(0.015625)"/>
       <path d="M 628 4666 
L 1259 4666 
L 1259 531 
L 3531 531 
L 3531 0 
L 628 0 
L 628 4666 
z
" id="DejaVuSans-4c" transform="scale(0.015625)"/>
       <path d="M 2188 4044 
L 1331 1722 
L 3047 1722 
L 2188 4044 
z
M 1831 4666 
L 2547 4666 
L 4325 0 
L 3669 0 
L 3244 1197 
L 1141 1197 
L 716 0 
L 50 0 
L 1831 4666 
z
" id="DejaVuSans-41" transform="scale(0.015625)"/>
      </defs>
      <use xlink:href="#DejaVuSans-43"/>
      <use x="69.824219" xlink:href="#DejaVuSans-4f"/>
      <use x="148.535156" xlink:href="#DejaVuSans-42"/>
      <use x="211.638672" xlink:href="#DejaVuSans-59"/>
      <use x="272.722656" xlink:href="#DejaVuSans-4c"/>
      <use x="330.685547" xlink:href="#DejaVuSans-41"/>
     </g>
    </g>
    <g id="line2d_21">
     <path d="M 480.76125 77.46375 
L 528.76125 77.46375 
" style="fill:none;stroke:#ff7f0e;stroke-linecap:square;stroke-width:3;"/>
    </g>
    <g id="line2d_22"/>
    <g id="text_18">
     <!-- SLSQP -->
     <g transform="translate(547.96125 85.86375)scale(0.24 -0.24)">
      <defs>
       <path d="M 3425 4513 
L 3425 3897 
Q 3066 4069 2747 4153 
Q 2428 4238 2131 4238 
Q 1616 4238 1336 4038 
Q 1056 3838 1056 3469 
Q 1056 3159 1242 3001 
Q 1428 2844 1947 2747 
L 2328 2669 
Q 3034 2534 3370 2195 
Q 3706 1856 3706 1288 
Q 3706 609 3251 259 
Q 2797 -91 1919 -91 
Q 1588 -91 1214 -16 
Q 841 59 441 206 
L 441 856 
Q 825 641 1194 531 
Q 1563 422 1919 422 
Q 2459 422 2753 634 
Q 3047 847 3047 1241 
Q 3047 1584 2836 1778 
Q 2625 1972 2144 2069 
L 1759 2144 
Q 1053 2284 737 2584 
Q 422 2884 422 3419 
Q 422 4038 858 4394 
Q 1294 4750 2059 4750 
Q 2388 4750 2728 4690 
Q 3069 4631 3425 4513 
z
" id="DejaVuSans-53" transform="scale(0.015625)"/>
       <path d="M 1259 4147 
L 1259 2394 
L 2053 2394 
Q 2494 2394 2734 2622 
Q 2975 2850 2975 3272 
Q 2975 3691 2734 3919 
Q 2494 4147 2053 4147 
L 1259 4147 
z
M 628 4666 
L 2053 4666 
Q 2838 4666 3239 4311 
Q 3641 3956 3641 3272 
Q 3641 2581 3239 2228 
Q 2838 1875 2053 1875 
L 1259 1875 
L 1259 0 
L 628 0 
L 628 4666 
z
" id="DejaVuSans-50" transform="scale(0.015625)"/>
      </defs>
      <use xlink:href="#DejaVuSans-53"/>
      <use x="63.476562" xlink:href="#DejaVuSans-4c"/>
      <use x="119.189453" xlink:href="#DejaVuSans-53"/>
      <use x="182.666016" xlink:href="#DejaVuSans-51"/>
      <use x="261.376953" xlink:href="#DejaVuSans-50"/>
     </g>
    </g>
    <g id="line2d_23">
     <path d="M 480.76125 112.69125 
L 528.76125 112.69125 
" style="fill:none;stroke:#2ca02c;stroke-linecap:square;stroke-width:3;"/>
    </g>
    <g id="line2d_24"/>
    <g id="text_19">
     <!-- L-BFGS-B -->
     <g transform="translate(547.96125 121.09125)scale(0.24 -0.24)">
      <defs>
       <path d="M 313 2009 
L 1997 2009 
L 1997 1497 
L 313 1497 
L 313 2009 
z
" id="DejaVuSans-2d" transform="scale(0.015625)"/>
       <path d="M 628 4666 
L 3309 4666 
L 3309 4134 
L 1259 4134 
L 1259 2759 
L 3109 2759 
L 3109 2228 
L 1259 2228 
L 1259 0 
L 628 0 
L 628 4666 
z
" id="DejaVuSans-46" transform="scale(0.015625)"/>
       <path d="M 3809 666 
L 3809 1919 
L 2778 1919 
L 2778 2438 
L 4434 2438 
L 4434 434 
Q 4069 175 3628 42 
Q 3188 -91 2688 -91 
Q 1594 -91 976 548 
Q 359 1188 359 2328 
Q 359 3472 976 4111 
Q 1594 4750 2688 4750 
Q 3144 4750 3555 4637 
Q 3966 4525 4313 4306 
L 4313 3634 
Q 3963 3931 3569 4081 
Q 3175 4231 2741 4231 
Q 1884 4231 1454 3753 
Q 1025 3275 1025 2328 
Q 1025 1384 1454 906 
Q 1884 428 2741 428 
Q 3075 428 3337 486 
Q 3600 544 3809 666 
z
" id="DejaVuSans-47" transform="scale(0.015625)"/>
      </defs>
      <use xlink:href="#DejaVuSans-4c"/>
      <use x="53.962891" xlink:href="#DejaVuSans-2d"/>
      <use x="86.421875" xlink:href="#DejaVuSans-42"/>
      <use x="155.025391" xlink:href="#DejaVuSans-46"/>
      <use x="212.544922" xlink:href="#DejaVuSans-47"/>
      <use x="290.035156" xlink:href="#DejaVuSans-53"/>
      <use x="353.511719" xlink:href="#DejaVuSans-2d"/>
      <use x="385.970703" xlink:href="#DejaVuSans-42"/>
     </g>
    </g>
    <g id="line2d_25">
     <path d="M 480.76125 147.91875 
L 528.76125 147.91875 
" style="fill:none;stroke:#000000;stroke-dasharray:7.4,3.2;stroke-dashoffset:0;stroke-width:2;"/>
    </g>
    <g id="line2d_26"/>
    <g id="text_20">
     <!-- HT -->
     <g transform="translate(547.96125 156.31875)scale(0.24 -0.24)">
      <defs>
       <path d="M 628 4666 
L 1259 4666 
L 1259 2753 
L 3553 2753 
L 3553 4666 
L 4184 4666 
L 4184 0 
L 3553 0 
L 3553 2222 
L 1259 2222 
L 1259 0 
L 628 0 
L 628 4666 
z
" id="DejaVuSans-48" transform="scale(0.015625)"/>
       <path d="M -19 4666 
L 3928 4666 
L 3928 4134 
L 2272 4134 
L 2272 0 
L 1638 0 
L 1638 4134 
L -19 4134 
L -19 4666 
z
" id="DejaVuSans-54" transform="scale(0.015625)"/>
      </defs>
      <use xlink:href="#DejaVuSans-48"/>
      <use x="75.195312" xlink:href="#DejaVuSans-54"/>
     </g>
    </g>
   </g>
  </g>
 </g>
 <defs>
  <clipPath id="p060c055ff3">
   <rect height="496.945" width="618.3625" x="60.2975" y="10.8"/>
  </clipPath>
 </defs>
</svg>
