<?xml version="1.0" encoding="utf-8" standalone="no"?>
<!DOCTYPE svg PUBLIC "-//W3C//DTD SVG 1.1//EN"
  "http://www.w3.org/Graphics/SVG/1.1/DTD/svg11.dtd">
<svg height="576pt" version="1.1" viewBox="0 0 720 576" width="720pt" xmlns="http://www.w3.org/2000/svg" xmlns:xlink="http://www.w3.org/1999/xlink">
 <metadata>
  <rdf:RDF xmlns:cc="http://creativecommons.org/ns#" xmlns:dc="http://purl.org/dc/elements/1.1/" xmlns:rdf="http://www.w3.org/1999/02/22-rdf-syntax-ns#">
   <cc:Work>
    <dc:type rdf:resource="http://purl.org/dc/dcmitype/StillImage"/>
    <dc:date>2021-07-27T16:56:02.783608</dc:date>
    <dc:format>image/svg+xml</dc:format>
    <dc:creator>
     <cc:Agent>
      <dc:title>Matplotlib v3.4.2, https://matplotlib.org/</dc:title>
     </cc:Agent>
    </dc:creator>
   </cc:Work>
  </rdf:RDF>
 </metadata>
 <defs>
  <style type="text/css">*{stroke-linecap:butt;stroke-linejoin:round;}</style>
 </defs>
 <g id="figure_1">
  <g id="patch_1">
   <path d="M 0 576 
L 720 576 
L 720 0 
L 0 0 
z
" style="fill:#ffffff;"/>
  </g>
  <g id="axes_1">
   <g id="patch_2">
    <path d="M 60.2975 507.745 
L 678.66 507.745 
L 678.66 10.8 
L 60.2975 10.8 
z
" style="fill:#ffffff;"/>
   </g>
   <g id="matplotlib.axis_1">
    <g id="xtick_1">
     <g id="line2d_1">
      <defs>
       <path d="M 0 0 
L 0 3.5 
" id="mf9e128031e" style="stroke:#000000;stroke-width:0.8;"/>
      </defs>
      <g>
       <use style="stroke:#000000;stroke-width:0.8;" x="60.2975" xlink:href="#mf9e128031e" y="507.745"/>
      </g>
     </g>
     <g id="text_1">
      <!-- 0 -->
      <g transform="translate(52.6625 532.98125)scale(0.24 -0.24)">
       <defs>
        <path d="M 2034 4250 
Q 1547 4250 1301 3770 
Q 1056 3291 1056 2328 
Q 1056 1369 1301 889 
Q 1547 409 2034 409 
Q 2525 409 2770 889 
Q 3016 1369 3016 2328 
Q 3016 3291 2770 3770 
Q 2525 4250 2034 4250 
z
M 2034 4750 
Q 2819 4750 3233 4129 
Q 3647 3509 3647 2328 
Q 3647 1150 3233 529 
Q 2819 -91 2034 -91 
Q 1250 -91 836 529 
Q 422 1150 422 2328 
Q 422 3509 836 4129 
Q 1250 4750 2034 4750 
z
" id="DejaVuSans-30" transform="scale(0.015625)"/>
       </defs>
       <use xlink:href="#DejaVuSans-30"/>
      </g>
     </g>
    </g>
    <g id="xtick_2">
     <g id="line2d_2">
      <g>
       <use style="stroke:#000000;stroke-width:0.8;" x="183.97" xlink:href="#mf9e128031e" y="507.745"/>
      </g>
     </g>
     <g id="text_2">
      <!-- 200 -->
      <g transform="translate(161.065 532.98125)scale(0.24 -0.24)">
       <defs>
        <path d="M 1228 531 
L 3431 531 
L 3431 0 
L 469 0 
L 469 531 
Q 828 903 1448 1529 
Q 2069 2156 2228 2338 
Q 2531 2678 2651 2914 
Q 2772 3150 2772 3378 
Q 2772 3750 2511 3984 
Q 2250 4219 1831 4219 
Q 1534 4219 1204 4116 
Q 875 4013 500 3803 
L 500 4441 
Q 881 4594 1212 4672 
Q 1544 4750 1819 4750 
Q 2544 4750 2975 4387 
Q 3406 4025 3406 3419 
Q 3406 3131 3298 2873 
Q 3191 2616 2906 2266 
Q 2828 2175 2409 1742 
Q 1991 1309 1228 531 
z
" id="DejaVuSans-32" transform="scale(0.015625)"/>
       </defs>
       <use xlink:href="#DejaVuSans-32"/>
       <use x="63.623047" xlink:href="#DejaVuSans-30"/>
       <use x="127.246094" xlink:href="#DejaVuSans-30"/>
      </g>
     </g>
    </g>
    <g id="xtick_3">
     <g id="line2d_3">
      <g>
       <use style="stroke:#000000;stroke-width:0.8;" x="307.6425" xlink:href="#mf9e128031e" y="507.745"/>
      </g>
     </g>
     <g id="text_3">
      <!-- 400 -->
      <g transform="translate(284.7375 532.98125)scale(0.24 -0.24)">
       <defs>
        <path d="M 2419 4116 
L 825 1625 
L 2419 1625 
L 2419 4116 
z
M 2253 4666 
L 3047 4666 
L 3047 1625 
L 3713 1625 
L 3713 1100 
L 3047 1100 
L 3047 0 
L 2419 0 
L 2419 1100 
L 313 1100 
L 313 1709 
L 2253 4666 
z
" id="DejaVuSans-34" transform="scale(0.015625)"/>
       </defs>
       <use xlink:href="#DejaVuSans-34"/>
       <use x="63.623047" xlink:href="#DejaVuSans-30"/>
       <use x="127.246094" xlink:href="#DejaVuSans-30"/>
      </g>
     </g>
    </g>
    <g id="xtick_4">
     <g id="line2d_4">
      <g>
       <use style="stroke:#000000;stroke-width:0.8;" x="431.315" xlink:href="#mf9e128031e" y="507.745"/>
      </g>
     </g>
     <g id="text_4">
      <!-- 600 -->
      <g transform="translate(408.41 532.98125)scale(0.24 -0.24)">
       <defs>
        <path d="M 2113 2584 
Q 1688 2584 1439 2293 
Q 1191 2003 1191 1497 
Q 1191 994 1439 701 
Q 1688 409 2113 409 
Q 2538 409 2786 701 
Q 3034 994 3034 1497 
Q 3034 2003 2786 2293 
Q 2538 2584 2113 2584 
z
M 3366 4563 
L 3366 3988 
Q 3128 4100 2886 4159 
Q 2644 4219 2406 4219 
Q 1781 4219 1451 3797 
Q 1122 3375 1075 2522 
Q 1259 2794 1537 2939 
Q 1816 3084 2150 3084 
Q 2853 3084 3261 2657 
Q 3669 2231 3669 1497 
Q 3669 778 3244 343 
Q 2819 -91 2113 -91 
Q 1303 -91 875 529 
Q 447 1150 447 2328 
Q 447 3434 972 4092 
Q 1497 4750 2381 4750 
Q 2619 4750 2861 4703 
Q 3103 4656 3366 4563 
z
" id="DejaVuSans-36" transform="scale(0.015625)"/>
       </defs>
       <use xlink:href="#DejaVuSans-36"/>
       <use x="63.623047" xlink:href="#DejaVuSans-30"/>
       <use x="127.246094" xlink:href="#DejaVuSans-30"/>
      </g>
     </g>
    </g>
    <g id="xtick_5">
     <g id="line2d_5">
      <g>
       <use style="stroke:#000000;stroke-width:0.8;" x="554.9875" xlink:href="#mf9e128031e" y="507.745"/>
      </g>
     </g>
     <g id="text_5">
      <!-- 800 -->
      <g transform="translate(532.0825 532.98125)scale(0.24 -0.24)">
       <defs>
        <path d="M 2034 2216 
Q 1584 2216 1326 1975 
Q 1069 1734 1069 1313 
Q 1069 891 1326 650 
Q 1584 409 2034 409 
Q 2484 409 2743 651 
Q 3003 894 3003 1313 
Q 3003 1734 2745 1975 
Q 2488 2216 2034 2216 
z
M 1403 2484 
Q 997 2584 770 2862 
Q 544 3141 544 3541 
Q 544 4100 942 4425 
Q 1341 4750 2034 4750 
Q 2731 4750 3128 4425 
Q 3525 4100 3525 3541 
Q 3525 3141 3298 2862 
Q 3072 2584 2669 2484 
Q 3125 2378 3379 2068 
Q 3634 1759 3634 1313 
Q 3634 634 3220 271 
Q 2806 -91 2034 -91 
Q 1263 -91 848 271 
Q 434 634 434 1313 
Q 434 1759 690 2068 
Q 947 2378 1403 2484 
z
M 1172 3481 
Q 1172 3119 1398 2916 
Q 1625 2713 2034 2713 
Q 2441 2713 2670 2916 
Q 2900 3119 2900 3481 
Q 2900 3844 2670 4047 
Q 2441 4250 2034 4250 
Q 1625 4250 1398 4047 
Q 1172 3844 1172 3481 
z
" id="DejaVuSans-38" transform="scale(0.015625)"/>
       </defs>
       <use xlink:href="#DejaVuSans-38"/>
       <use x="63.623047" xlink:href="#DejaVuSans-30"/>
       <use x="127.246094" xlink:href="#DejaVuSans-30"/>
      </g>
     </g>
    </g>
    <g id="xtick_6">
     <g id="line2d_6">
      <g>
       <use style="stroke:#000000;stroke-width:0.8;" x="678.66" xlink:href="#mf9e128031e" y="507.745"/>
      </g>
     </g>
     <g id="text_6">
      <!-- 1000 -->
      <g transform="translate(648.12 532.98125)scale(0.24 -0.24)">
       <defs>
        <path d="M 794 531 
L 1825 531 
L 1825 4091 
L 703 3866 
L 703 4441 
L 1819 4666 
L 2450 4666 
L 2450 531 
L 3481 531 
L 3481 0 
L 794 0 
L 794 531 
z
" id="DejaVuSans-31" transform="scale(0.015625)"/>
       </defs>
       <use xlink:href="#DejaVuSans-31"/>
       <use x="63.623047" xlink:href="#DejaVuSans-30"/>
       <use x="127.246094" xlink:href="#DejaVuSans-30"/>
       <use x="190.869141" xlink:href="#DejaVuSans-30"/>
      </g>
     </g>
    </g>
    <g id="text_7">
     <!-- iterations -->
     <g transform="translate(312.533125 560.20875)scale(0.24 -0.24)">
      <defs>
       <path d="M 603 3500 
L 1178 3500 
L 1178 0 
L 603 0 
L 603 3500 
z
M 603 4863 
L 1178 4863 
L 1178 4134 
L 603 4134 
L 603 4863 
z
" id="DejaVuSans-69" transform="scale(0.015625)"/>
       <path d="M 1172 4494 
L 1172 3500 
L 2356 3500 
L 2356 3053 
L 1172 3053 
L 1172 1153 
Q 1172 725 1289 603 
Q 1406 481 1766 481 
L 2356 481 
L 2356 0 
L 1766 0 
Q 1100 0 847 248 
Q 594 497 594 1153 
L 594 3053 
L 172 3053 
L 172 3500 
L 594 3500 
L 594 4494 
L 1172 4494 
z
" id="DejaVuSans-74" transform="scale(0.015625)"/>
       <path d="M 3597 1894 
L 3597 1613 
L 953 1613 
Q 991 1019 1311 708 
Q 1631 397 2203 397 
Q 2534 397 2845 478 
Q 3156 559 3463 722 
L 3463 178 
Q 3153 47 2828 -22 
Q 2503 -91 2169 -91 
Q 1331 -91 842 396 
Q 353 884 353 1716 
Q 353 2575 817 3079 
Q 1281 3584 2069 3584 
Q 2775 3584 3186 3129 
Q 3597 2675 3597 1894 
z
M 3022 2063 
Q 3016 2534 2758 2815 
Q 2500 3097 2075 3097 
Q 1594 3097 1305 2825 
Q 1016 2553 972 2059 
L 3022 2063 
z
" id="DejaVuSans-65" transform="scale(0.015625)"/>
       <path d="M 2631 2963 
Q 2534 3019 2420 3045 
Q 2306 3072 2169 3072 
Q 1681 3072 1420 2755 
Q 1159 2438 1159 1844 
L 1159 0 
L 581 0 
L 581 3500 
L 1159 3500 
L 1159 2956 
Q 1341 3275 1631 3429 
Q 1922 3584 2338 3584 
Q 2397 3584 2469 3576 
Q 2541 3569 2628 3553 
L 2631 2963 
z
" id="DejaVuSans-72" transform="scale(0.015625)"/>
       <path d="M 2194 1759 
Q 1497 1759 1228 1600 
Q 959 1441 959 1056 
Q 959 750 1161 570 
Q 1363 391 1709 391 
Q 2188 391 2477 730 
Q 2766 1069 2766 1631 
L 2766 1759 
L 2194 1759 
z
M 3341 1997 
L 3341 0 
L 2766 0 
L 2766 531 
Q 2569 213 2275 61 
Q 1981 -91 1556 -91 
Q 1019 -91 701 211 
Q 384 513 384 1019 
Q 384 1609 779 1909 
Q 1175 2209 1959 2209 
L 2766 2209 
L 2766 2266 
Q 2766 2663 2505 2880 
Q 2244 3097 1772 3097 
Q 1472 3097 1187 3025 
Q 903 2953 641 2809 
L 641 3341 
Q 956 3463 1253 3523 
Q 1550 3584 1831 3584 
Q 2591 3584 2966 3190 
Q 3341 2797 3341 1997 
z
" id="DejaVuSans-61" transform="scale(0.015625)"/>
       <path d="M 1959 3097 
Q 1497 3097 1228 2736 
Q 959 2375 959 1747 
Q 959 1119 1226 758 
Q 1494 397 1959 397 
Q 2419 397 2687 759 
Q 2956 1122 2956 1747 
Q 2956 2369 2687 2733 
Q 2419 3097 1959 3097 
z
M 1959 3584 
Q 2709 3584 3137 3096 
Q 3566 2609 3566 1747 
Q 3566 888 3137 398 
Q 2709 -91 1959 -91 
Q 1206 -91 779 398 
Q 353 888 353 1747 
Q 353 2609 779 3096 
Q 1206 3584 1959 3584 
z
" id="DejaVuSans-6f" transform="scale(0.015625)"/>
       <path d="M 3513 2113 
L 3513 0 
L 2938 0 
L 2938 2094 
Q 2938 2591 2744 2837 
Q 2550 3084 2163 3084 
Q 1697 3084 1428 2787 
Q 1159 2491 1159 1978 
L 1159 0 
L 581 0 
L 581 3500 
L 1159 3500 
L 1159 2956 
Q 1366 3272 1645 3428 
Q 1925 3584 2291 3584 
Q 2894 3584 3203 3211 
Q 3513 2838 3513 2113 
z
" id="DejaVuSans-6e" transform="scale(0.015625)"/>
       <path d="M 2834 3397 
L 2834 2853 
Q 2591 2978 2328 3040 
Q 2066 3103 1784 3103 
Q 1356 3103 1142 2972 
Q 928 2841 928 2578 
Q 928 2378 1081 2264 
Q 1234 2150 1697 2047 
L 1894 2003 
Q 2506 1872 2764 1633 
Q 3022 1394 3022 966 
Q 3022 478 2636 193 
Q 2250 -91 1575 -91 
Q 1294 -91 989 -36 
Q 684 19 347 128 
L 347 722 
Q 666 556 975 473 
Q 1284 391 1588 391 
Q 1994 391 2212 530 
Q 2431 669 2431 922 
Q 2431 1156 2273 1281 
Q 2116 1406 1581 1522 
L 1381 1569 
Q 847 1681 609 1914 
Q 372 2147 372 2553 
Q 372 3047 722 3315 
Q 1072 3584 1716 3584 
Q 2034 3584 2315 3537 
Q 2597 3491 2834 3397 
z
" id="DejaVuSans-73" transform="scale(0.015625)"/>
      </defs>
      <use xlink:href="#DejaVuSans-69"/>
      <use x="27.783203" xlink:href="#DejaVuSans-74"/>
      <use x="66.992188" xlink:href="#DejaVuSans-65"/>
      <use x="128.515625" xlink:href="#DejaVuSans-72"/>
      <use x="169.628906" xlink:href="#DejaVuSans-61"/>
      <use x="230.908203" xlink:href="#DejaVuSans-74"/>
      <use x="270.117188" xlink:href="#DejaVuSans-69"/>
      <use x="297.900391" xlink:href="#DejaVuSans-6f"/>
      <use x="359.082031" xlink:href="#DejaVuSans-6e"/>
      <use x="422.460938" xlink:href="#DejaVuSans-73"/>
     </g>
    </g>
   </g>
   <g id="matplotlib.axis_2">
    <g id="ytick_1">
     <g id="line2d_7">
      <defs>
       <path d="M 0 0 
L -3.5 0 
" id="m20dcd49cc8" style="stroke:#000000;stroke-width:0.8;"/>
      </defs>
      <g>
       <use style="stroke:#000000;stroke-width:0.8;" x="60.2975" xlink:href="#m20dcd49cc8" y="491.471"/>
      </g>
     </g>
     <g id="text_8">
      <!-- 0 -->
      <g transform="translate(38.0275 500.589125)scale(0.24 -0.24)">
       <use xlink:href="#DejaVuSans-30"/>
      </g>
     </g>
    </g>
    <g id="ytick_2">
     <g id="line2d_8">
      <g>
       <use style="stroke:#000000;stroke-width:0.8;" x="60.2975" xlink:href="#m20dcd49cc8" y="416.164992"/>
      </g>
     </g>
     <g id="text_9">
      <!-- 1 -->
      <g transform="translate(38.0275 425.283117)scale(0.24 -0.24)">
       <use xlink:href="#DejaVuSans-31"/>
      </g>
     </g>
    </g>
    <g id="ytick_3">
     <g id="line2d_9">
      <g>
       <use style="stroke:#000000;stroke-width:0.8;" x="60.2975" xlink:href="#m20dcd49cc8" y="340.858985"/>
      </g>
     </g>
     <g id="text_10">
      <!-- 2 -->
      <g transform="translate(38.0275 349.97711)scale(0.24 -0.24)">
       <use xlink:href="#DejaVuSans-32"/>
      </g>
     </g>
    </g>
    <g id="ytick_4">
     <g id="line2d_10">
      <g>
       <use style="stroke:#000000;stroke-width:0.8;" x="60.2975" xlink:href="#m20dcd49cc8" y="265.552978"/>
      </g>
     </g>
     <g id="text_11">
      <!-- 3 -->
      <g transform="translate(38.0275 274.671103)scale(0.24 -0.24)">
       <defs>
        <path d="M 2597 2516 
Q 3050 2419 3304 2112 
Q 3559 1806 3559 1356 
Q 3559 666 3084 287 
Q 2609 -91 1734 -91 
Q 1441 -91 1130 -33 
Q 819 25 488 141 
L 488 750 
Q 750 597 1062 519 
Q 1375 441 1716 441 
Q 2309 441 2620 675 
Q 2931 909 2931 1356 
Q 2931 1769 2642 2001 
Q 2353 2234 1838 2234 
L 1294 2234 
L 1294 2753 
L 1863 2753 
Q 2328 2753 2575 2939 
Q 2822 3125 2822 3475 
Q 2822 3834 2567 4026 
Q 2313 4219 1838 4219 
Q 1578 4219 1281 4162 
Q 984 4106 628 3988 
L 628 4550 
Q 988 4650 1302 4700 
Q 1616 4750 1894 4750 
Q 2613 4750 3031 4423 
Q 3450 4097 3450 3541 
Q 3450 3153 3228 2886 
Q 3006 2619 2597 2516 
z
" id="DejaVuSans-33" transform="scale(0.015625)"/>
       </defs>
       <use xlink:href="#DejaVuSans-33"/>
      </g>
     </g>
    </g>
    <g id="ytick_5">
     <g id="line2d_11">
      <g>
       <use style="stroke:#000000;stroke-width:0.8;" x="60.2975" xlink:href="#m20dcd49cc8" y="190.24697"/>
      </g>
     </g>
     <g id="text_12">
      <!-- 4 -->
      <g transform="translate(38.0275 199.365095)scale(0.24 -0.24)">
       <use xlink:href="#DejaVuSans-34"/>
      </g>
     </g>
    </g>
    <g id="ytick_6">
     <g id="line2d_12">
      <g>
       <use style="stroke:#000000;stroke-width:0.8;" x="60.2975" xlink:href="#m20dcd49cc8" y="114.940963"/>
      </g>
     </g>
     <g id="text_13">
      <!-- 5 -->
      <g transform="translate(38.0275 124.059088)scale(0.24 -0.24)">
       <defs>
        <path d="M 691 4666 
L 3169 4666 
L 3169 4134 
L 1269 4134 
L 1269 2991 
Q 1406 3038 1543 3061 
Q 1681 3084 1819 3084 
Q 2600 3084 3056 2656 
Q 3513 2228 3513 1497 
Q 3513 744 3044 326 
Q 2575 -91 1722 -91 
Q 1428 -91 1123 -41 
Q 819 9 494 109 
L 494 744 
Q 775 591 1075 516 
Q 1375 441 1709 441 
Q 2250 441 2565 725 
Q 2881 1009 2881 1497 
Q 2881 1984 2565 2268 
Q 2250 2553 1709 2553 
Q 1456 2553 1204 2497 
Q 953 2441 691 2322 
L 691 4666 
z
" id="DejaVuSans-35" transform="scale(0.015625)"/>
       </defs>
       <use xlink:href="#DejaVuSans-35"/>
      </g>
     </g>
    </g>
    <g id="ytick_7">
     <g id="line2d_13">
      <g>
       <use style="stroke:#000000;stroke-width:0.8;" x="60.2975" xlink:href="#m20dcd49cc8" y="39.634956"/>
      </g>
     </g>
     <g id="text_14">
      <!-- 6 -->
      <g transform="translate(38.0275 48.753081)scale(0.24 -0.24)">
       <use xlink:href="#DejaVuSans-36"/>
      </g>
     </g>
    </g>
    <g id="text_15">
     <!-- VQE energy -->
     <g transform="translate(29.03625 330.14)rotate(-90)scale(0.24 -0.24)">
      <defs>
       <path d="M 1831 0 
L 50 4666 
L 709 4666 
L 2188 738 
L 3669 4666 
L 4325 4666 
L 2547 0 
L 1831 0 
z
" id="DejaVuSans-56" transform="scale(0.015625)"/>
       <path d="M 2522 4238 
Q 1834 4238 1429 3725 
Q 1025 3213 1025 2328 
Q 1025 1447 1429 934 
Q 1834 422 2522 422 
Q 3209 422 3611 934 
Q 4013 1447 4013 2328 
Q 4013 3213 3611 3725 
Q 3209 4238 2522 4238 
z
M 3406 84 
L 4238 -825 
L 3475 -825 
L 2784 -78 
Q 2681 -84 2626 -87 
Q 2572 -91 2522 -91 
Q 1538 -91 948 567 
Q 359 1225 359 2328 
Q 359 3434 948 4092 
Q 1538 4750 2522 4750 
Q 3503 4750 4090 4092 
Q 4678 3434 4678 2328 
Q 4678 1516 4351 937 
Q 4025 359 3406 84 
z
" id="DejaVuSans-51" transform="scale(0.015625)"/>
       <path d="M 628 4666 
L 3578 4666 
L 3578 4134 
L 1259 4134 
L 1259 2753 
L 3481 2753 
L 3481 2222 
L 1259 2222 
L 1259 531 
L 3634 531 
L 3634 0 
L 628 0 
L 628 4666 
z
" id="DejaVuSans-45" transform="scale(0.015625)"/>
       <path id="DejaVuSans-20" transform="scale(0.015625)"/>
       <path d="M 2906 1791 
Q 2906 2416 2648 2759 
Q 2391 3103 1925 3103 
Q 1463 3103 1205 2759 
Q 947 2416 947 1791 
Q 947 1169 1205 825 
Q 1463 481 1925 481 
Q 2391 481 2648 825 
Q 2906 1169 2906 1791 
z
M 3481 434 
Q 3481 -459 3084 -895 
Q 2688 -1331 1869 -1331 
Q 1566 -1331 1297 -1286 
Q 1028 -1241 775 -1147 
L 775 -588 
Q 1028 -725 1275 -790 
Q 1522 -856 1778 -856 
Q 2344 -856 2625 -561 
Q 2906 -266 2906 331 
L 2906 616 
Q 2728 306 2450 153 
Q 2172 0 1784 0 
Q 1141 0 747 490 
Q 353 981 353 1791 
Q 353 2603 747 3093 
Q 1141 3584 1784 3584 
Q 2172 3584 2450 3431 
Q 2728 3278 2906 2969 
L 2906 3500 
L 3481 3500 
L 3481 434 
z
" id="DejaVuSans-67" transform="scale(0.015625)"/>
       <path d="M 2059 -325 
Q 1816 -950 1584 -1140 
Q 1353 -1331 966 -1331 
L 506 -1331 
L 506 -850 
L 844 -850 
Q 1081 -850 1212 -737 
Q 1344 -625 1503 -206 
L 1606 56 
L 191 3500 
L 800 3500 
L 1894 763 
L 2988 3500 
L 3597 3500 
L 2059 -325 
z
" id="DejaVuSans-79" transform="scale(0.015625)"/>
      </defs>
      <use xlink:href="#DejaVuSans-56"/>
      <use x="68.408203" xlink:href="#DejaVuSans-51"/>
      <use x="147.119141" xlink:href="#DejaVuSans-45"/>
      <use x="210.302734" xlink:href="#DejaVuSans-20"/>
      <use x="242.089844" xlink:href="#DejaVuSans-65"/>
      <use x="303.613281" xlink:href="#DejaVuSans-6e"/>
      <use x="366.992188" xlink:href="#DejaVuSans-65"/>
      <use x="428.515625" xlink:href="#DejaVuSans-72"/>
      <use x="467.878906" xlink:href="#DejaVuSans-67"/>
      <use x="531.355469" xlink:href="#DejaVuSans-79"/>
     </g>
    </g>
   </g>
   <g id="line2d_14">
    <path clip-path="url(#p41996af803)" d="M 60.915862 96.683286 
L 61.534225 33.388409 
L 62.152587 69.458164 
L 62.77095 48.030762 
L 63.389312 56.066162 
L 64.007675 55.505328 
L 64.626037 69.840121 
L 65.2444 106.570581 
L 65.862763 125.281289 
L 66.481125 108.057718 
L 67.099487 122.427169 
L 67.71785 125.347476 
L 68.336213 124.228045 
L 68.954575 124.548952 
L 69.572937 117.746935 
L 70.1913 121.988212 
L 70.809663 111.276125 
L 71.428025 123.015537 
L 72.046387 129.375117 
L 72.66475 80.97599 
L 73.283113 102.261242 
L 73.901475 82.591809 
L 74.519837 102.914558 
L 75.1382 116.351922 
L 75.756563 120.746085 
L 76.374925 121.912592 
L 76.993287 119.347693 
L 77.61165 103.704689 
L 78.230012 123.784912 
L 78.848375 133.730286 
L 79.466737 138.219839 
L 80.0851 130.301052 
L 80.703463 133.182347 
L 81.321825 130.068667 
L 81.940187 136.202933 
L 82.55855 147.618554 
L 83.176912 131.419669 
L 83.795275 82.399817 
L 84.413637 142.114864 
L 85.032 119.285122 
L 85.650362 121.778774 
L 86.268725 123.723291 
L 86.887087 133.275526 
L 87.50545 137.762031 
L 88.123812 131.673764 
L 88.742175 132.58745 
L 89.360537 135.356911 
L 89.9789 135.621914 
L 90.597262 155.022052 
L 91.215625 158.431928 
L 91.833987 145.808514 
L 92.45235 150.971509 
L 93.070712 143.373781 
L 93.689075 147.66131 
L 94.307437 135.328519 
L 94.9258 140.128811 
L 95.544162 119.172728 
L 96.162525 143.803711 
L 96.780887 143.693805 
L 97.39925 149.574925 
L 98.017612 129.321114 
L 98.635975 145.242427 
L 99.254337 148.645964 
L 99.8727 155.659313 
L 100.491062 165.22549 
L 101.109425 155.897952 
L 101.727787 139.36435 
L 102.34615 160.699787 
L 102.964512 151.371723 
L 103.582875 151.995739 
L 104.201237 164.515432 
L 104.8196 156.963869 
L 105.437962 166.767777 
L 106.056325 221.504573 
L 106.674687 161.041841 
L 107.29305 211.226651 
L 107.911412 181.675755 
L 108.529775 204.575584 
L 109.148137 200.508945 
L 109.7665 209.134497 
L 110.384862 203.656519 
L 111.003225 215.553143 
L 111.621587 219.28421 
L 112.23995 220.327867 
L 112.858312 213.511577 
L 113.476675 220.966923 
L 114.095037 223.271521 
L 114.7134 221.649508 
L 115.331762 212.916142 
L 115.950125 223.646534 
L 116.568487 223.945859 
L 117.18685 223.16166 
L 117.805212 183.865371 
L 118.423575 199.634811 
L 119.041937 174.779262 
L 119.6603 221.28454 
L 120.278662 226.069221 
L 120.897025 221.225929 
L 121.515387 217.778811 
L 122.13375 227.334277 
L 122.752112 228.050371 
L 123.370475 225.919943 
L 123.988837 234.52677 
L 124.6072 234.077212 
L 125.225562 235.904513 
L 125.843925 233.606955 
L 126.462287 237.685333 
L 127.08065 243.282737 
L 127.699012 182.90539 
L 128.317375 248.715773 
L 128.935737 231.301044 
L 129.5541 244.27989 
L 130.172462 221.745782 
L 130.790825 249.156823 
L 131.409187 240.218206 
L 132.02755 248.234694 
L 133.264275 237.531793 
L 133.882637 254.797351 
L 134.501 254.902172 
L 135.119362 241.72915 
L 135.737725 258.216982 
L 136.356087 226.71421 
L 136.97445 265.274886 
L 137.592812 238.481237 
L 138.211175 258.490834 
L 138.829537 247.566703 
L 139.4479 261.142706 
L 140.066262 233.725227 
L 140.684625 262.649502 
L 141.302987 261.226317 
L 141.92135 264.89687 
L 142.539712 244.332399 
L 143.158075 261.045399 
L 143.776437 257.154832 
L 144.3948 270.682315 
L 145.013162 253.704538 
L 145.631525 266.404892 
L 146.249887 271.136847 
L 146.86825 271.619376 
L 147.486612 268.484583 
L 148.104975 267.265282 
L 148.723337 279.016526 
L 149.3417 278.71243 
L 149.960062 273.074827 
L 150.578425 276.74358 
L 151.196787 247.061282 
L 151.81515 254.682456 
L 152.433512 249.409389 
L 153.051875 284.400911 
L 153.670237 262.394713 
L 154.2886 275.13937 
L 154.906962 241.576718 
L 155.525325 285.711272 
L 156.143687 235.053458 
L 156.76205 291.356148 
L 157.380412 257.311873 
L 157.998775 293.127648 
L 158.617137 279.191741 
L 159.2355 293.435562 
L 159.853862 287.841083 
L 160.472225 292.525753 
L 161.090587 245.383955 
L 161.70895 293.494085 
L 162.327312 256.471173 
L 162.945675 293.545677 
L 163.564037 254.963221 
L 164.1824 271.003715 
L 164.800762 258.736369 
L 165.419125 270.293165 
L 166.037487 269.877081 
L 166.65585 285.161973 
L 167.274212 280.139581 
L 167.892575 296.087198 
L 168.510937 303.072314 
L 169.1293 295.889162 
L 169.747662 296.02896 
L 170.366025 299.86226 
L 170.984387 305.060348 
L 171.60275 308.985607 
L 172.221112 306.303719 
L 172.839475 308.116678 
L 173.457837 274.839157 
L 174.0762 309.412723 
L 174.694562 283.873576 
L 175.312925 294.170672 
L 175.931287 284.47093 
L 176.54965 302.267316 
L 177.168012 293.712784 
L 177.786375 303.49485 
L 178.404737 279.352125 
L 179.0231 307.413355 
L 179.641462 287.82677 
L 180.259825 306.076906 
L 180.878187 280.95855 
L 181.49655 307.428386 
L 182.114912 291.647371 
L 182.733275 305.997684 
L 183.351637 295.740993 
L 183.97 308.331179 
L 184.588362 306.363471 
L 185.206725 298.083715 
L 185.825087 305.340757 
L 186.44345 306.730365 
L 187.061812 295.641437 
L 187.680175 302.31749 
L 188.298537 301.658615 
L 188.9169 303.841898 
L 189.535262 300.003127 
L 190.153625 309.029941 
L 190.771987 303.41325 
L 191.39035 307.422216 
L 192.008712 304.547582 
L 192.627075 310.070346 
L 193.245437 307.958722 
L 193.8638 310.604058 
L 194.482162 271.745859 
L 195.100525 306.278523 
L 195.718887 283.46182 
L 196.33725 315.478083 
L 196.955612 289.393424 
L 197.573975 306.482203 
L 198.192337 262.957003 
L 198.8107 314.706924 
L 199.429062 290.711672 
L 200.047425 314.754133 
L 200.665787 287.895182 
L 201.28415 309.837905 
L 201.902512 304.258756 
L 202.520875 296.722464 
L 203.139237 280.99958 
L 203.7576 313.57657 
L 204.375962 288.326801 
L 204.994325 298.573721 
L 205.612687 272.541996 
L 206.23105 306.954383 
L 206.849412 300.619405 
L 207.467775 318.221046 
L 208.086137 302.97401 
L 208.7045 315.3627 
L 209.322862 252.55707 
L 209.941225 318.449655 
L 210.559587 271.369953 
L 211.17795 318.661144 
L 211.796312 288.338349 
L 212.414675 318.554148 
L 213.033037 312.686446 
L 213.6514 320.172984 
L 214.269762 312.581994 
L 214.888125 320.991806 
L 215.506487 308.20622 
L 216.12485 309.46174 
L 216.743212 288.212566 
L 217.361575 316.92126 
L 217.979937 305.153514 
L 219.216662 319.073454 
L 219.835025 318.073195 
L 220.453387 321.552232 
L 221.690112 322.846102 
L 222.308475 316.879464 
L 223.5452 322.660809 
L 224.163562 323.926691 
L 224.781925 314.95821 
L 225.400287 323.46968 
L 226.01865 319.371305 
L 226.637012 323.362779 
L 227.255375 326.149857 
L 227.873737 325.379203 
L 228.4921 326.908227 
L 229.110462 327.337397 
L 229.728825 323.386403 
L 230.347187 328.913058 
L 230.96555 315.643202 
L 231.583912 328.283803 
L 232.202275 315.600733 
L 232.820637 328.685372 
L 233.439 319.294876 
L 234.057362 328.735924 
L 234.675725 318.283928 
L 235.294087 320.205113 
L 235.91245 323.646074 
L 236.530812 330.391695 
L 237.149175 323.384763 
L 237.767537 319.499969 
L 238.3859 332.544019 
L 239.004262 331.910477 
L 239.622625 331.74219 
L 240.240987 333.247932 
L 240.85935 329.734143 
L 241.477712 334.11439 
L 242.096075 331.714398 
L 242.714437 330.604154 
L 243.3328 332.319916 
L 243.951162 334.698518 
L 244.569525 329.699189 
L 245.187887 334.598255 
L 245.80625 326.831333 
L 246.424612 333.116033 
L 247.042975 333.827757 
L 247.661337 332.711625 
L 248.2797 331.16534 
L 248.898062 335.669656 
L 249.516425 318.273201 
L 250.134787 330.998823 
L 250.75315 332.889933 
L 251.371512 333.503352 
L 251.989875 325.92661 
L 252.608237 335.349707 
L 253.2266 341.133596 
L 253.844962 342.616751 
L 254.463325 342.167584 
L 255.081687 343.092195 
L 255.70005 342.450907 
L 256.318412 342.782351 
L 256.936775 341.76332 
L 257.555137 342.995285 
L 258.1735 341.488957 
L 258.791862 344.025565 
L 259.410225 348.627859 
L 260.028587 346.206398 
L 260.64695 342.16094 
L 261.265312 348.588216 
L 261.883675 344.740108 
L 262.502037 348.669086 
L 263.1204 343.640729 
L 263.738762 347.302302 
L 264.357125 342.111918 
L 264.975487 347.954206 
L 265.59385 344.853567 
L 266.212212 348.920053 
L 266.830575 341.118291 
L 267.448937 349.361828 
L 268.0673 344.241059 
L 268.685662 346.059745 
L 269.304025 344.884765 
L 269.922387 348.360844 
L 270.54075 342.936652 
L 271.159112 349.896749 
L 271.777475 343.757196 
L 272.395837 349.603812 
L 273.0142 345.326789 
L 273.632562 349.747483 
L 274.250925 345.260697 
L 274.869287 345.134486 
L 275.48765 348.688009 
L 276.106012 346.680689 
L 277.342737 351.47382 
L 277.9611 348.818166 
L 278.579462 350.41257 
L 279.197825 334.156277 
L 279.816187 353.425731 
L 280.43455 338.53316 
L 281.052912 353.216579 
L 281.671275 346.949979 
L 282.289637 352.887678 
L 282.908 349.994802 
L 283.526362 350.373261 
L 284.144725 349.279126 
L 284.763087 351.564043 
L 285.38145 340.75753 
L 285.999812 352.56855 
L 286.618175 354.714734 
L 287.8549 348.753114 
L 288.473262 352.354719 
L 289.091625 343.56644 
L 289.709987 353.762445 
L 290.32835 345.653749 
L 290.946712 353.548726 
L 291.565075 349.106026 
L 292.183437 353.335567 
L 292.8018 349.926193 
L 293.420162 353.449715 
L 294.038525 344.867122 
L 294.656887 353.735484 
L 295.27525 347.621178 
L 295.893612 354.44465 
L 296.511975 346.547474 
L 297.130337 350.982427 
L 297.7487 351.160791 
L 298.367062 353.695821 
L 298.985425 349.052034 
L 299.603787 354.727776 
L 300.22215 353.383833 
L 300.840512 354.886736 
L 301.458875 354.655147 
L 302.077237 355.171184 
L 302.6956 354.438222 
L 303.313962 354.758179 
L 303.932325 346.408822 
L 304.550687 354.041648 
L 305.16905 351.152429 
L 305.787412 353.986594 
L 306.405775 349.831071 
L 307.024137 354.437584 
L 307.6425 355.230372 
L 308.260862 351.578567 
L 308.879225 353.210447 
L 309.497587 354.131397 
L 310.11595 349.280111 
L 310.734312 353.218496 
L 311.352675 347.785126 
L 311.971037 357.236321 
L 312.5894 349.765088 
L 313.207762 357.28094 
L 313.826125 353.015433 
L 314.444487 356.072172 
L 315.06285 350.820734 
L 315.681212 356.411852 
L 316.299575 353.154459 
L 316.917937 357.818634 
L 317.5363 351.217547 
L 318.154662 359.543096 
L 318.773025 350.872624 
L 319.391387 359.787514 
L 320.00975 350.089032 
L 320.628112 354.205749 
L 321.246475 350.88518 
L 321.864837 358.455969 
L 322.4832 349.050423 
L 323.101562 361.131153 
L 323.719925 353.158616 
L 324.338287 361.545238 
L 324.95665 357.407531 
L 325.575012 358.16721 
L 326.193375 351.745217 
L 326.811737 361.241224 
L 327.4301 355.54896 
L 328.048462 360.483763 
L 328.666825 357.277528 
L 329.285187 361.038545 
L 329.90355 354.974429 
L 330.521912 361.69231 
L 331.140275 356.149311 
L 331.758637 361.299685 
L 332.377 358.551912 
L 332.995362 358.358654 
L 333.613725 353.855105 
L 334.232087 357.352293 
L 334.85045 352.268203 
L 335.468812 361.029441 
L 336.087175 351.64964 
L 336.705537 356.680465 
L 337.942262 359.060967 
L 338.560625 360.16471 
L 339.178987 362.759407 
L 339.79735 356.029285 
L 340.415712 362.472931 
L 341.034075 356.155857 
L 341.652437 362.577212 
L 342.2708 354.754226 
L 342.889162 359.000906 
L 343.507525 356.108801 
L 344.125887 360.52411 
L 344.74425 355.950153 
L 345.362612 360.233579 
L 345.980975 356.537131 
L 346.599337 361.464926 
L 347.2177 360.269744 
L 347.836062 361.616158 
L 348.454425 359.109097 
L 349.072787 360.958834 
L 349.69115 358.562218 
L 350.309512 360.09534 
L 350.927875 362.061485 
L 351.546237 362.950707 
L 352.1646 360.115661 
L 352.782962 360.374225 
L 353.401325 357.578061 
L 354.019687 359.988035 
L 354.63805 360.326698 
L 355.256412 362.379887 
L 355.874775 363.221839 
L 356.493137 363.239479 
L 357.1115 358.077303 
L 357.729862 362.757157 
L 358.348225 360.029373 
L 358.966587 361.089224 
L 359.58495 360.844436 
L 360.203312 362.904525 
L 360.821675 353.759051 
L 361.440037 361.871363 
L 362.0584 357.114811 
L 362.676762 361.510862 
L 363.295125 356.487046 
L 363.913487 362.192134 
L 364.53185 355.711974 
L 365.150212 361.955328 
L 365.768575 364.506933 
L 366.386937 365.844777 
L 367.0053 364.20295 
L 367.623662 365.639187 
L 368.242025 364.157279 
L 368.860387 362.261532 
L 369.47875 366.416489 
L 370.097112 365.725494 
L 370.715475 366.193978 
L 371.333837 363.91088 
L 371.9522 365.946469 
L 372.570562 365.203183 
L 373.188925 365.362278 
L 373.807287 367.10706 
L 374.42565 366.601544 
L 375.044012 366.58667 
L 375.662375 366.366705 
L 376.280737 366.860598 
L 376.8991 366.365751 
L 377.517462 366.489673 
L 378.135825 365.740568 
L 378.754187 366.565167 
L 379.37255 367.110838 
L 379.990912 366.52546 
L 380.609275 367.406706 
L 381.846 365.601506 
L 382.464362 367.950179 
L 383.082725 368.225763 
L 383.701087 365.515962 
L 384.31945 368.146826 
L 384.937812 367.713979 
L 385.556175 368.179756 
L 386.174537 370.330877 
L 386.7929 370.165931 
L 387.411262 367.988796 
L 388.029625 370.343434 
L 388.647987 369.759861 
L 389.26635 370.610405 
L 389.884712 370.179103 
L 390.503075 370.343415 
L 391.121437 367.337465 
L 391.7398 370.937927 
L 392.358162 369.441472 
L 392.976525 369.895983 
L 393.594887 368.233946 
L 394.21325 370.546593 
L 394.831612 369.665995 
L 395.449975 369.902225 
L 396.068337 368.990146 
L 396.6867 370.234825 
L 397.305062 368.997189 
L 397.923425 370.887748 
L 398.541787 370.02101 
L 399.16015 370.78832 
L 399.778512 370.200854 
L 400.396875 370.354524 
L 401.015237 369.044244 
L 401.6336 370.690162 
L 402.251962 370.513207 
L 402.870325 371.182687 
L 403.488687 369.628609 
L 404.10705 370.478654 
L 404.725412 370.067159 
L 405.343775 370.89987 
L 405.962137 371.269115 
L 406.5805 370.942089 
L 407.198862 370.799371 
L 407.817225 371.681903 
L 408.435587 371.902606 
L 409.05395 371.698099 
L 409.672312 372.171761 
L 410.290675 372.200406 
L 412.145762 370.431951 
L 412.764125 370.724385 
L 413.382487 371.485202 
L 414.00085 370.728455 
L 414.619212 372.76234 
L 415.237575 372.926746 
L 415.855937 370.816345 
L 416.4743 373.235827 
L 417.092662 371.534162 
L 417.711025 373.516057 
L 418.329387 371.827532 
L 418.94775 373.162897 
L 419.566112 371.621472 
L 420.184475 372.620811 
L 420.802837 375.178319 
L 421.4212 375.181026 
L 422.039562 373.228526 
L 422.657925 375.071003 
L 423.276287 371.807409 
L 423.89465 375.025917 
L 424.513012 373.106489 
L 425.131375 374.602653 
L 425.749737 374.717258 
L 426.3681 374.62095 
L 426.986462 373.761352 
L 427.604825 375.648455 
L 428.223187 374.358177 
L 428.84155 375.544742 
L 429.459912 372.743044 
L 430.078275 374.733285 
L 430.696637 373.718166 
L 431.315 375.443333 
L 431.933362 374.214678 
L 432.551725 375.7375 
L 433.170087 373.249838 
L 433.78845 375.422185 
L 434.406812 374.946526 
L 435.025175 374.837983 
L 435.643537 373.777324 
L 436.2619 374.850611 
L 436.880262 374.659205 
L 437.498625 375.212583 
L 438.116987 373.972107 
L 438.73535 374.894932 
L 439.353712 374.189423 
L 439.972075 375.816577 
L 440.590437 374.704608 
L 441.2088 376.078941 
L 441.827162 373.524151 
L 442.445525 375.858268 
L 443.063887 374.747781 
L 443.68225 375.605153 
L 444.300612 375.722306 
L 444.918975 376.123703 
L 445.537337 375.306159 
L 446.1557 375.919243 
L 446.774062 374.504236 
L 447.392425 376.194875 
L 448.010787 374.846043 
L 448.62915 376.189271 
L 449.247512 376.061829 
L 449.865875 376.493193 
L 450.484237 375.375059 
L 451.1026 376.290153 
L 451.720962 376.337486 
L 452.339325 375.759379 
L 452.957687 374.787357 
L 453.57605 375.927803 
L 454.194412 376.361569 
L 454.812775 376.336483 
L 455.431137 375.229533 
L 456.0495 376.024577 
L 456.667862 375.058716 
L 457.286225 375.565669 
L 457.904587 374.686679 
L 458.52295 376.392188 
L 459.141312 373.570032 
L 459.759675 375.437678 
L 460.378037 375.559252 
L 460.9964 376.893153 
L 461.614762 374.615079 
L 462.233125 376.431363 
L 462.851487 375.711886 
L 463.46985 376.569989 
L 464.088212 375.756335 
L 464.706575 376.454526 
L 465.324937 376.263616 
L 465.9433 376.745518 
L 466.561662 375.66151 
L 467.180025 376.611025 
L 467.798387 376.316839 
L 468.41675 376.16212 
L 469.035112 375.35977 
L 469.653475 376.87609 
L 470.8902 376.372721 
L 471.508562 376.775954 
L 472.126925 377.394448 
L 472.745287 377.254415 
L 473.982012 377.411228 
L 474.600375 376.583416 
L 475.218737 377.343714 
L 475.8371 376.949604 
L 476.455462 377.399409 
L 477.073825 377.229366 
L 477.692187 377.415515 
L 478.31055 377.023924 
L 478.928912 377.09569 
L 479.547275 377.454161 
L 480.165637 377.315857 
L 480.784 376.901694 
L 481.402362 377.308912 
L 482.020725 377.103511 
L 482.639087 377.444713 
L 483.25745 377.00004 
L 483.875812 377.18326 
L 484.494175 377.20128 
L 485.112537 377.36219 
L 485.7309 376.755921 
L 486.349262 377.475852 
L 486.967625 376.900169 
L 487.585987 377.45096 
L 488.20435 377.23235 
L 488.822712 377.449816 
L 489.441075 377.152176 
L 490.059437 377.340413 
L 490.6778 376.862781 
L 491.296162 377.638623 
L 491.914525 377.321287 
L 492.532887 377.728111 
L 493.15125 377.072405 
L 493.769612 377.437175 
L 495.006337 377.433843 
L 495.6247 377.764069 
L 496.243062 377.593117 
L 496.861425 377.605742 
L 497.479787 377.780528 
L 498.09815 377.748143 
L 499.334875 377.26742 
L 499.953237 377.737883 
L 500.5716 377.596511 
L 501.189962 377.600827 
L 501.808325 377.818143 
L 502.426687 377.804137 
L 503.04505 377.596932 
L 504.281775 377.765737 
L 504.900137 377.482302 
L 505.5185 377.528987 
L 506.136862 377.905853 
L 506.755225 377.447704 
L 507.373587 377.784957 
L 507.99195 377.588255 
L 509.847037 377.901595 
L 510.4654 377.773135 
L 511.083762 377.876967 
L 511.702125 377.802246 
L 512.320487 377.943415 
L 512.93885 377.79613 
L 514.793937 377.840205 
L 515.4123 377.682746 
L 516.030662 377.948412 
L 516.649025 377.334922 
L 517.267387 377.632505 
L 517.88575 377.503779 
L 518.504112 377.93184 
L 519.122475 377.703874 
L 519.740837 377.987978 
L 520.3592 377.614931 
L 520.977562 377.645639 
L 521.595925 377.88784 
L 522.214287 378.000148 
L 522.83265 377.687216 
L 524.069375 377.451376 
L 524.687737 377.99153 
L 525.3061 377.774938 
L 526.542825 377.984306 
L 528.397912 377.826837 
L 529.016275 377.673518 
L 529.634637 377.846788 
L 530.253 377.6523 
L 530.871362 378.2115 
L 531.489725 377.951483 
L 532.108087 378.176556 
L 532.72645 377.761603 
L 533.344812 378.020724 
L 533.963175 377.959152 
L 534.581537 378.124013 
L 535.1999 377.770354 
L 535.818262 378.073299 
L 537.054987 378.165263 
L 537.67335 377.83087 
L 538.291712 378.122602 
L 538.910075 377.913303 
L 539.528437 378.172767 
L 540.1468 377.888146 
L 540.765162 378.090959 
L 541.383525 378.031092 
L 543.238612 378.195033 
L 544.475337 378.039065 
L 545.0937 378.034876 
L 545.712062 378.151274 
L 546.948787 378.107463 
L 547.56715 378.261588 
L 548.185512 378.140784 
L 548.803875 378.270982 
L 550.0406 378.23228 
L 550.658962 378.294222 
L 551.277325 378.17702 
L 552.51405 378.296165 
L 553.132412 378.196321 
L 554.369137 378.241302 
L 555.605862 378.131337 
L 557.46095 378.249214 
L 558.079312 378.199527 
L 558.697675 378.298846 
L 559.316037 378.199042 
L 559.9344 378.278957 
L 560.552762 378.160323 
L 563.026212 378.279406 
L 563.644575 378.181617 
L 564.262937 378.312553 
L 564.8813 378.210027 
L 566.118025 378.27933 
L 567.973112 378.472298 
L 568.591475 378.377156 
L 569.209837 378.522796 
L 570.446562 378.606103 
L 572.920012 378.695386 
L 574.7751 378.670093 
L 575.393462 378.352804 
L 576.011825 378.778826 
L 576.630187 378.545197 
L 577.24855 378.75882 
L 579.103637 378.728948 
L 579.722 378.774954 
L 580.340362 378.659393 
L 580.958725 378.761344 
L 582.19545 378.722353 
L 583.432175 378.74978 
L 588.379075 378.73551 
L 588.997437 378.881113 
L 589.6158 378.781953 
L 592.707612 378.869933 
L 593.325975 378.793388 
L 593.944337 378.921727 
L 598.272875 378.936706 
L 598.891237 378.84415 
L 600.127962 378.974644 
L 602.601412 378.910957 
L 603.838137 378.943623 
L 619.2972 378.999626 
L 619.915562 378.892235 
L 621.152287 379.023081 
L 621.77065 379.028321 
L 622.389012 379.148268 
L 624.862462 379.061153 
L 625.480825 379.158218 
L 626.099187 379.040781 
L 626.71755 379.141053 
L 628.572637 379.048698 
L 629.809362 379.158363 
L 633.519537 379.153503 
L 645.886787 379.089742 
L 646.50515 379.169372 
L 648.360237 379.092605 
L 649.596962 379.119673 
L 653.9255 379.141765 
L 654.543862 379.084904 
L 655.162225 379.153364 
L 655.780587 379.100499 
L 657.017312 379.183897 
L 660.109125 379.169142 
L 662.582575 379.199627 
L 667.529475 379.184445 
L 679.278362 379.237223 
L 679.278362 379.237223 
" style="fill:none;stroke:#1f77b4;stroke-linecap:square;stroke-width:3;"/>
   </g>
   <g id="line2d_15">
    <path clip-path="url(#p41996af803)" d="M 60.915862 60.822169 
L 105.437962 60.822169 
L 106.056325 228.353864 
L 150.578425 228.353864 
L 151.196787 211.387271 
L 151.81515 301.05319 
L 196.33725 301.05319 
L 196.955612 349.815095 
L 241.477712 349.815095 
L 242.096075 369.48109 
L 286.618175 369.48109 
L 287.236537 376.755022 
L 331.758637 376.755022 
L 332.377 378.766198 
L 376.8991 378.766198 
L 377.517462 379.544123 
L 422.039562 379.544123 
L 422.657925 379.770755 
L 467.180025 379.770755 
L 467.798387 379.896571 
L 512.320487 379.896571 
L 512.93885 380.037599 
L 557.46095 380.037599 
L 558.079312 380.207781 
L 602.601412 380.207781 
L 603.219775 380.376979 
L 647.741875 380.376979 
L 648.360237 380.561978 
L 679.278362 380.561978 
L 679.278362 380.561978 
" style="fill:none;stroke:#ff7f0e;stroke-linecap:square;stroke-width:3;"/>
   </g>
   <g id="line2d_16">
    <path clip-path="url(#p41996af803)" d="M 60.915862 96.683286 
L 105.437962 96.683286 
L 106.056325 260.938587 
L 150.578425 260.938587 
L 151.196787 313.068989 
L 195.718887 313.068989 
L 196.33725 356.836749 
L 240.85935 356.836749 
L 241.477712 372.408147 
L 285.999812 372.408147 
L 286.618175 376.677686 
L 331.140275 376.677686 
L 331.758637 378.104214 
L 376.280737 378.104214 
L 376.8991 378.538369 
L 421.4212 378.538369 
L 422.039562 378.701316 
L 466.561662 378.701316 
L 467.180025 378.870566 
L 511.702125 378.870566 
L 512.320487 379.175486 
L 556.842587 379.175486 
L 557.46095 379.521934 
L 601.98305 379.521934 
L 602.601412 379.69644 
L 647.123512 379.69644 
L 647.741875 379.972647 
L 679.278362 379.972647 
L 679.278362 379.972647 
" style="fill:none;stroke:#2ca02c;stroke-linecap:square;stroke-width:3;"/>
   </g>
   <g id="line2d_17">
    <path clip-path="url(#p41996af803)" d="M 60.2975 485.156591 
L 678.66 485.156591 
" style="fill:none;stroke:#000000;stroke-dasharray:7.4,3.2;stroke-dashoffset:0;stroke-width:2;"/>
   </g>
   <g id="patch_3">
    <path d="M 60.2975 507.745 
L 60.2975 10.8 
" style="fill:none;stroke:#000000;stroke-linecap:square;stroke-linejoin:miter;stroke-width:0.8;"/>
   </g>
   <g id="patch_4">
    <path d="M 678.66 507.745 
L 678.66 10.8 
" style="fill:none;stroke:#000000;stroke-linecap:square;stroke-linejoin:miter;stroke-width:0.8;"/>
   </g>
   <g id="patch_5">
    <path d="M 60.2975 507.745 
L 678.66 507.745 
" style="fill:none;stroke:#000000;stroke-linecap:square;stroke-linejoin:miter;stroke-width:0.8;"/>
   </g>
   <g id="patch_6">
    <path d="M 60.2975 10.8 
L 678.66 10.8 
" style="fill:none;stroke:#000000;stroke-linecap:square;stroke-linejoin:miter;stroke-width:0.8;"/>
   </g>
   <g id="legend_1">
    <g id="patch_7">
     <path d="M 475.96125 170.91 
L 661.86 170.91 
Q 666.66 170.91 666.66 166.11 
L 666.66 27.6 
Q 666.66 22.8 661.86 22.8 
L 475.96125 22.8 
Q 471.16125 22.8 471.16125 27.6 
L 471.16125 166.11 
Q 471.16125 170.91 475.96125 170.91 
z
" style="fill:#ffffff;opacity:0.8;stroke:#cccccc;stroke-linejoin:miter;"/>
    </g>
    <g id="line2d_18">
     <path d="M 480.76125 42.23625 
L 528.76125 42.23625 
" style="fill:none;stroke:#1f77b4;stroke-linecap:square;stroke-width:3;"/>
    </g>
    <g id="line2d_19"/>
    <g id="text_16">
     <!-- COBYLA -->
     <g transform="translate(547.96125 50.63625)scale(0.24 -0.24)">
      <defs>
       <path d="M 4122 4306 
L 4122 3641 
Q 3803 3938 3442 4084 
Q 3081 4231 2675 4231 
Q 1875 4231 1450 3742 
Q 1025 3253 1025 2328 
Q 1025 1406 1450 917 
Q 1875 428 2675 428 
Q 3081 428 3442 575 
Q 3803 722 4122 1019 
L 4122 359 
Q 3791 134 3420 21 
Q 3050 -91 2638 -91 
Q 1578 -91 968 557 
Q 359 1206 359 2328 
Q 359 3453 968 4101 
Q 1578 4750 2638 4750 
Q 3056 4750 3426 4639 
Q 3797 4528 4122 4306 
z
" id="DejaVuSans-43" transform="scale(0.015625)"/>
       <path d="M 2522 4238 
Q 1834 4238 1429 3725 
Q 1025 3213 1025 2328 
Q 1025 1447 1429 934 
Q 1834 422 2522 422 
Q 3209 422 3611 934 
Q 4013 1447 4013 2328 
Q 4013 3213 3611 3725 
Q 3209 4238 2522 4238 
z
M 2522 4750 
Q 3503 4750 4090 4092 
Q 4678 3434 4678 2328 
Q 4678 1225 4090 567 
Q 3503 -91 2522 -91 
Q 1538 -91 948 565 
Q 359 1222 359 2328 
Q 359 3434 948 4092 
Q 1538 4750 2522 4750 
z
" id="DejaVuSans-4f" transform="scale(0.015625)"/>
       <path d="M 1259 2228 
L 1259 519 
L 2272 519 
Q 2781 519 3026 730 
Q 3272 941 3272 1375 
Q 3272 1813 3026 2020 
Q 2781 2228 2272 2228 
L 1259 2228 
z
M 1259 4147 
L 1259 2741 
L 2194 2741 
Q 2656 2741 2882 2914 
Q 3109 3088 3109 3444 
Q 3109 3797 2882 3972 
Q 2656 4147 2194 4147 
L 1259 4147 
z
M 628 4666 
L 2241 4666 
Q 2963 4666 3353 4366 
Q 3744 4066 3744 3513 
Q 3744 3084 3544 2831 
Q 3344 2578 2956 2516 
Q 3422 2416 3680 2098 
Q 3938 1781 3938 1306 
Q 3938 681 3513 340 
Q 3088 0 2303 0 
L 628 0 
L 628 4666 
z
" id="DejaVuSans-42" transform="scale(0.015625)"/>
       <path d="M -13 4666 
L 666 4666 
L 1959 2747 
L 3244 4666 
L 3922 4666 
L 2272 2222 
L 2272 0 
L 1638 0 
L 1638 2222 
L -13 4666 
z
" id="DejaVuSans-59" transform="scale(0.015625)"/>
       <path d="M 628 4666 
L 1259 4666 
L 1259 531 
L 3531 531 
L 3531 0 
L 628 0 
L 628 4666 
z
" id="DejaVuSans-4c" transform="scale(0.015625)"/>
       <path d="M 2188 4044 
L 1331 1722 
L 3047 1722 
L 2188 4044 
z
M 1831 4666 
L 2547 4666 
L 4325 0 
L 3669 0 
L 3244 1197 
L 1141 1197 
L 716 0 
L 50 0 
L 1831 4666 
z
" id="DejaVuSans-41" transform="scale(0.015625)"/>
      </defs>
      <use xlink:href="#DejaVuSans-43"/>
      <use x="69.824219" xlink:href="#DejaVuSans-4f"/>
      <use x="148.535156" xlink:href="#DejaVuSans-42"/>
      <use x="211.638672" xlink:href="#DejaVuSans-59"/>
      <use x="272.722656" xlink:href="#DejaVuSans-4c"/>
      <use x="330.685547" xlink:href="#DejaVuSans-41"/>
     </g>
    </g>
    <g id="line2d_20">
     <path d="M 480.76125 77.46375 
L 528.76125 77.46375 
" style="fill:none;stroke:#ff7f0e;stroke-linecap:square;stroke-width:3;"/>
    </g>
    <g id="line2d_21"/>
    <g id="text_17">
     <!-- SLSQP -->
     <g transform="translate(547.96125 85.86375)scale(0.24 -0.24)">
      <defs>
       <path d="M 3425 4513 
L 3425 3897 
Q 3066 4069 2747 4153 
Q 2428 4238 2131 4238 
Q 1616 4238 1336 4038 
Q 1056 3838 1056 3469 
Q 1056 3159 1242 3001 
Q 1428 2844 1947 2747 
L 2328 2669 
Q 3034 2534 3370 2195 
Q 3706 1856 3706 1288 
Q 3706 609 3251 259 
Q 2797 -91 1919 -91 
Q 1588 -91 1214 -16 
Q 841 59 441 206 
L 441 856 
Q 825 641 1194 531 
Q 1563 422 1919 422 
Q 2459 422 2753 634 
Q 3047 847 3047 1241 
Q 3047 1584 2836 1778 
Q 2625 1972 2144 2069 
L 1759 2144 
Q 1053 2284 737 2584 
Q 422 2884 422 3419 
Q 422 4038 858 4394 
Q 1294 4750 2059 4750 
Q 2388 4750 2728 4690 
Q 3069 4631 3425 4513 
z
" id="DejaVuSans-53" transform="scale(0.015625)"/>
       <path d="M 1259 4147 
L 1259 2394 
L 2053 2394 
Q 2494 2394 2734 2622 
Q 2975 2850 2975 3272 
Q 2975 3691 2734 3919 
Q 2494 4147 2053 4147 
L 1259 4147 
z
M 628 4666 
L 2053 4666 
Q 2838 4666 3239 4311 
Q 3641 3956 3641 3272 
Q 3641 2581 3239 2228 
Q 2838 1875 2053 1875 
L 1259 1875 
L 1259 0 
L 628 0 
L 628 4666 
z
" id="DejaVuSans-50" transform="scale(0.015625)"/>
      </defs>
      <use xlink:href="#DejaVuSans-53"/>
      <use x="63.476562" xlink:href="#DejaVuSans-4c"/>
      <use x="119.189453" xlink:href="#DejaVuSans-53"/>
      <use x="182.666016" xlink:href="#DejaVuSans-51"/>
      <use x="261.376953" xlink:href="#DejaVuSans-50"/>
     </g>
    </g>
    <g id="line2d_22">
     <path d="M 480.76125 112.69125 
L 528.76125 112.69125 
" style="fill:none;stroke:#2ca02c;stroke-linecap:square;stroke-width:3;"/>
    </g>
    <g id="line2d_23"/>
    <g id="text_18">
     <!-- L-BFGS-B -->
     <g transform="translate(547.96125 121.09125)scale(0.24 -0.24)">
      <defs>
       <path d="M 313 2009 
L 1997 2009 
L 1997 1497 
L 313 1497 
L 313 2009 
z
" id="DejaVuSans-2d" transform="scale(0.015625)"/>
       <path d="M 628 4666 
L 3309 4666 
L 3309 4134 
L 1259 4134 
L 1259 2759 
L 3109 2759 
L 3109 2228 
L 1259 2228 
L 1259 0 
L 628 0 
L 628 4666 
z
" id="DejaVuSans-46" transform="scale(0.015625)"/>
       <path d="M 3809 666 
L 3809 1919 
L 2778 1919 
L 2778 2438 
L 4434 2438 
L 4434 434 
Q 4069 175 3628 42 
Q 3188 -91 2688 -91 
Q 1594 -91 976 548 
Q 359 1188 359 2328 
Q 359 3472 976 4111 
Q 1594 4750 2688 4750 
Q 3144 4750 3555 4637 
Q 3966 4525 4313 4306 
L 4313 3634 
Q 3963 3931 3569 4081 
Q 3175 4231 2741 4231 
Q 1884 4231 1454 3753 
Q 1025 3275 1025 2328 
Q 1025 1384 1454 906 
Q 1884 428 2741 428 
Q 3075 428 3337 486 
Q 3600 544 3809 666 
z
" id="DejaVuSans-47" transform="scale(0.015625)"/>
      </defs>
      <use xlink:href="#DejaVuSans-4c"/>
      <use x="53.962891" xlink:href="#DejaVuSans-2d"/>
      <use x="86.421875" xlink:href="#DejaVuSans-42"/>
      <use x="155.025391" xlink:href="#DejaVuSans-46"/>
      <use x="212.544922" xlink:href="#DejaVuSans-47"/>
      <use x="290.035156" xlink:href="#DejaVuSans-53"/>
      <use x="353.511719" xlink:href="#DejaVuSans-2d"/>
      <use x="385.970703" xlink:href="#DejaVuSans-42"/>
     </g>
    </g>
    <g id="line2d_24">
     <path d="M 480.76125 147.91875 
L 528.76125 147.91875 
" style="fill:none;stroke:#000000;stroke-dasharray:7.4,3.2;stroke-dashoffset:0;stroke-width:2;"/>
    </g>
    <g id="line2d_25"/>
    <g id="text_19">
     <!-- HT -->
     <g transform="translate(547.96125 156.31875)scale(0.24 -0.24)">
      <defs>
       <path d="M 628 4666 
L 1259 4666 
L 1259 2753 
L 3553 2753 
L 3553 4666 
L 4184 4666 
L 4184 0 
L 3553 0 
L 3553 2222 
L 1259 2222 
L 1259 0 
L 628 0 
L 628 4666 
z
" id="DejaVuSans-48" transform="scale(0.015625)"/>
       <path d="M -19 4666 
L 3928 4666 
L 3928 4134 
L 2272 4134 
L 2272 0 
L 1638 0 
L 1638 4134 
L -19 4134 
L -19 4666 
z
" id="DejaVuSans-54" transform="scale(0.015625)"/>
      </defs>
      <use xlink:href="#DejaVuSans-48"/>
      <use x="75.195312" xlink:href="#DejaVuSans-54"/>
     </g>
    </g>
   </g>
  </g>
 </g>
 <defs>
  <clipPath id="p41996af803">
   <rect height="496.945" width="618.3625" x="60.2975" y="10.8"/>
  </clipPath>
 </defs>
</svg>
