<?xml version="1.0" encoding="utf-8" standalone="no"?>
<!DOCTYPE svg PUBLIC "-//W3C//DTD SVG 1.1//EN"
  "http://www.w3.org/Graphics/SVG/1.1/DTD/svg11.dtd">
<svg height="576pt" version="1.1" viewBox="0 0 720 576" width="720pt" xmlns="http://www.w3.org/2000/svg" xmlns:xlink="http://www.w3.org/1999/xlink">
 <metadata>
  <rdf:RDF xmlns:cc="http://creativecommons.org/ns#" xmlns:dc="http://purl.org/dc/elements/1.1/" xmlns:rdf="http://www.w3.org/1999/02/22-rdf-syntax-ns#">
   <cc:Work>
    <dc:type rdf:resource="http://purl.org/dc/dcmitype/StillImage"/>
    <dc:date>2021-07-30T13:08:50.402914</dc:date>
    <dc:format>image/svg+xml</dc:format>
    <dc:creator>
     <cc:Agent>
      <dc:title>Matplotlib v3.4.2, https://matplotlib.org/</dc:title>
     </cc:Agent>
    </dc:creator>
   </cc:Work>
  </rdf:RDF>
 </metadata>
 <defs>
  <style type="text/css">*{stroke-linecap:butt;stroke-linejoin:round;}</style>
 </defs>
 <g id="figure_1">
  <g id="patch_1">
   <path d="M 0 576 
L 720 576 
L 720 0 
L 0 0 
z
" style="fill:#ffffff;"/>
  </g>
  <g id="axes_1">
   <g id="patch_2">
    <path d="M 60.2975 507.745 
L 671.025 507.745 
L 671.025 14.405953 
L 60.2975 14.405953 
z
" style="fill:#ffffff;"/>
   </g>
   <g id="matplotlib.axis_1">
    <g id="xtick_1">
     <g id="line2d_1">
      <defs>
       <path d="M 0 0 
L 0 3.5 
" id="m9371a7a221" style="stroke:#000000;stroke-width:0.8;"/>
      </defs>
      <g>
       <use style="stroke:#000000;stroke-width:0.8;" x="60.2975" xlink:href="#m9371a7a221" y="507.745"/>
      </g>
     </g>
     <g id="text_1">
      <!-- 0 -->
      <g transform="translate(52.6625 532.98125)scale(0.24 -0.24)">
       <defs>
        <path d="M 2034 4250 
Q 1547 4250 1301 3770 
Q 1056 3291 1056 2328 
Q 1056 1369 1301 889 
Q 1547 409 2034 409 
Q 2525 409 2770 889 
Q 3016 1369 3016 2328 
Q 3016 3291 2770 3770 
Q 2525 4250 2034 4250 
z
M 2034 4750 
Q 2819 4750 3233 4129 
Q 3647 3509 3647 2328 
Q 3647 1150 3233 529 
Q 2819 -91 2034 -91 
Q 1250 -91 836 529 
Q 422 1150 422 2328 
Q 422 3509 836 4129 
Q 1250 4750 2034 4750 
z
" id="DejaVuSans-30" transform="scale(0.015625)"/>
       </defs>
       <use xlink:href="#DejaVuSans-30"/>
      </g>
     </g>
    </g>
    <g id="xtick_2">
     <g id="line2d_2">
      <g>
       <use style="stroke:#000000;stroke-width:0.8;" x="182.443" xlink:href="#m9371a7a221" y="507.745"/>
      </g>
     </g>
     <g id="text_2">
      <!-- 2000 -->
      <g transform="translate(151.903 532.98125)scale(0.24 -0.24)">
       <defs>
        <path d="M 1228 531 
L 3431 531 
L 3431 0 
L 469 0 
L 469 531 
Q 828 903 1448 1529 
Q 2069 2156 2228 2338 
Q 2531 2678 2651 2914 
Q 2772 3150 2772 3378 
Q 2772 3750 2511 3984 
Q 2250 4219 1831 4219 
Q 1534 4219 1204 4116 
Q 875 4013 500 3803 
L 500 4441 
Q 881 4594 1212 4672 
Q 1544 4750 1819 4750 
Q 2544 4750 2975 4387 
Q 3406 4025 3406 3419 
Q 3406 3131 3298 2873 
Q 3191 2616 2906 2266 
Q 2828 2175 2409 1742 
Q 1991 1309 1228 531 
z
" id="DejaVuSans-32" transform="scale(0.015625)"/>
       </defs>
       <use xlink:href="#DejaVuSans-32"/>
       <use x="63.623047" xlink:href="#DejaVuSans-30"/>
       <use x="127.246094" xlink:href="#DejaVuSans-30"/>
       <use x="190.869141" xlink:href="#DejaVuSans-30"/>
      </g>
     </g>
    </g>
    <g id="xtick_3">
     <g id="line2d_3">
      <g>
       <use style="stroke:#000000;stroke-width:0.8;" x="304.5885" xlink:href="#m9371a7a221" y="507.745"/>
      </g>
     </g>
     <g id="text_3">
      <!-- 4000 -->
      <g transform="translate(274.0485 532.98125)scale(0.24 -0.24)">
       <defs>
        <path d="M 2419 4116 
L 825 1625 
L 2419 1625 
L 2419 4116 
z
M 2253 4666 
L 3047 4666 
L 3047 1625 
L 3713 1625 
L 3713 1100 
L 3047 1100 
L 3047 0 
L 2419 0 
L 2419 1100 
L 313 1100 
L 313 1709 
L 2253 4666 
z
" id="DejaVuSans-34" transform="scale(0.015625)"/>
       </defs>
       <use xlink:href="#DejaVuSans-34"/>
       <use x="63.623047" xlink:href="#DejaVuSans-30"/>
       <use x="127.246094" xlink:href="#DejaVuSans-30"/>
       <use x="190.869141" xlink:href="#DejaVuSans-30"/>
      </g>
     </g>
    </g>
    <g id="xtick_4">
     <g id="line2d_4">
      <g>
       <use style="stroke:#000000;stroke-width:0.8;" x="426.734" xlink:href="#m9371a7a221" y="507.745"/>
      </g>
     </g>
     <g id="text_4">
      <!-- 6000 -->
      <g transform="translate(396.194 532.98125)scale(0.24 -0.24)">
       <defs>
        <path d="M 2113 2584 
Q 1688 2584 1439 2293 
Q 1191 2003 1191 1497 
Q 1191 994 1439 701 
Q 1688 409 2113 409 
Q 2538 409 2786 701 
Q 3034 994 3034 1497 
Q 3034 2003 2786 2293 
Q 2538 2584 2113 2584 
z
M 3366 4563 
L 3366 3988 
Q 3128 4100 2886 4159 
Q 2644 4219 2406 4219 
Q 1781 4219 1451 3797 
Q 1122 3375 1075 2522 
Q 1259 2794 1537 2939 
Q 1816 3084 2150 3084 
Q 2853 3084 3261 2657 
Q 3669 2231 3669 1497 
Q 3669 778 3244 343 
Q 2819 -91 2113 -91 
Q 1303 -91 875 529 
Q 447 1150 447 2328 
Q 447 3434 972 4092 
Q 1497 4750 2381 4750 
Q 2619 4750 2861 4703 
Q 3103 4656 3366 4563 
z
" id="DejaVuSans-36" transform="scale(0.015625)"/>
       </defs>
       <use xlink:href="#DejaVuSans-36"/>
       <use x="63.623047" xlink:href="#DejaVuSans-30"/>
       <use x="127.246094" xlink:href="#DejaVuSans-30"/>
       <use x="190.869141" xlink:href="#DejaVuSans-30"/>
      </g>
     </g>
    </g>
    <g id="xtick_5">
     <g id="line2d_5">
      <g>
       <use style="stroke:#000000;stroke-width:0.8;" x="548.8795" xlink:href="#m9371a7a221" y="507.745"/>
      </g>
     </g>
     <g id="text_5">
      <!-- 8000 -->
      <g transform="translate(518.3395 532.98125)scale(0.24 -0.24)">
       <defs>
        <path d="M 2034 2216 
Q 1584 2216 1326 1975 
Q 1069 1734 1069 1313 
Q 1069 891 1326 650 
Q 1584 409 2034 409 
Q 2484 409 2743 651 
Q 3003 894 3003 1313 
Q 3003 1734 2745 1975 
Q 2488 2216 2034 2216 
z
M 1403 2484 
Q 997 2584 770 2862 
Q 544 3141 544 3541 
Q 544 4100 942 4425 
Q 1341 4750 2034 4750 
Q 2731 4750 3128 4425 
Q 3525 4100 3525 3541 
Q 3525 3141 3298 2862 
Q 3072 2584 2669 2484 
Q 3125 2378 3379 2068 
Q 3634 1759 3634 1313 
Q 3634 634 3220 271 
Q 2806 -91 2034 -91 
Q 1263 -91 848 271 
Q 434 634 434 1313 
Q 434 1759 690 2068 
Q 947 2378 1403 2484 
z
M 1172 3481 
Q 1172 3119 1398 2916 
Q 1625 2713 2034 2713 
Q 2441 2713 2670 2916 
Q 2900 3119 2900 3481 
Q 2900 3844 2670 4047 
Q 2441 4250 2034 4250 
Q 1625 4250 1398 4047 
Q 1172 3844 1172 3481 
z
" id="DejaVuSans-38" transform="scale(0.015625)"/>
       </defs>
       <use xlink:href="#DejaVuSans-38"/>
       <use x="63.623047" xlink:href="#DejaVuSans-30"/>
       <use x="127.246094" xlink:href="#DejaVuSans-30"/>
       <use x="190.869141" xlink:href="#DejaVuSans-30"/>
      </g>
     </g>
    </g>
    <g id="xtick_6">
     <g id="line2d_6">
      <g>
       <use style="stroke:#000000;stroke-width:0.8;" x="671.025" xlink:href="#m9371a7a221" y="507.745"/>
      </g>
     </g>
     <g id="text_6">
      <!-- 10000 -->
      <g transform="translate(632.85 532.98125)scale(0.24 -0.24)">
       <defs>
        <path d="M 794 531 
L 1825 531 
L 1825 4091 
L 703 3866 
L 703 4441 
L 1819 4666 
L 2450 4666 
L 2450 531 
L 3481 531 
L 3481 0 
L 794 0 
L 794 531 
z
" id="DejaVuSans-31" transform="scale(0.015625)"/>
       </defs>
       <use xlink:href="#DejaVuSans-31"/>
       <use x="63.623047" xlink:href="#DejaVuSans-30"/>
       <use x="127.246094" xlink:href="#DejaVuSans-30"/>
       <use x="190.869141" xlink:href="#DejaVuSans-30"/>
       <use x="254.492188" xlink:href="#DejaVuSans-30"/>
      </g>
     </g>
    </g>
    <g id="text_7">
     <!-- iterations -->
     <g transform="translate(308.715625 560.20875)scale(0.24 -0.24)">
      <defs>
       <path d="M 603 3500 
L 1178 3500 
L 1178 0 
L 603 0 
L 603 3500 
z
M 603 4863 
L 1178 4863 
L 1178 4134 
L 603 4134 
L 603 4863 
z
" id="DejaVuSans-69" transform="scale(0.015625)"/>
       <path d="M 1172 4494 
L 1172 3500 
L 2356 3500 
L 2356 3053 
L 1172 3053 
L 1172 1153 
Q 1172 725 1289 603 
Q 1406 481 1766 481 
L 2356 481 
L 2356 0 
L 1766 0 
Q 1100 0 847 248 
Q 594 497 594 1153 
L 594 3053 
L 172 3053 
L 172 3500 
L 594 3500 
L 594 4494 
L 1172 4494 
z
" id="DejaVuSans-74" transform="scale(0.015625)"/>
       <path d="M 3597 1894 
L 3597 1613 
L 953 1613 
Q 991 1019 1311 708 
Q 1631 397 2203 397 
Q 2534 397 2845 478 
Q 3156 559 3463 722 
L 3463 178 
Q 3153 47 2828 -22 
Q 2503 -91 2169 -91 
Q 1331 -91 842 396 
Q 353 884 353 1716 
Q 353 2575 817 3079 
Q 1281 3584 2069 3584 
Q 2775 3584 3186 3129 
Q 3597 2675 3597 1894 
z
M 3022 2063 
Q 3016 2534 2758 2815 
Q 2500 3097 2075 3097 
Q 1594 3097 1305 2825 
Q 1016 2553 972 2059 
L 3022 2063 
z
" id="DejaVuSans-65" transform="scale(0.015625)"/>
       <path d="M 2631 2963 
Q 2534 3019 2420 3045 
Q 2306 3072 2169 3072 
Q 1681 3072 1420 2755 
Q 1159 2438 1159 1844 
L 1159 0 
L 581 0 
L 581 3500 
L 1159 3500 
L 1159 2956 
Q 1341 3275 1631 3429 
Q 1922 3584 2338 3584 
Q 2397 3584 2469 3576 
Q 2541 3569 2628 3553 
L 2631 2963 
z
" id="DejaVuSans-72" transform="scale(0.015625)"/>
       <path d="M 2194 1759 
Q 1497 1759 1228 1600 
Q 959 1441 959 1056 
Q 959 750 1161 570 
Q 1363 391 1709 391 
Q 2188 391 2477 730 
Q 2766 1069 2766 1631 
L 2766 1759 
L 2194 1759 
z
M 3341 1997 
L 3341 0 
L 2766 0 
L 2766 531 
Q 2569 213 2275 61 
Q 1981 -91 1556 -91 
Q 1019 -91 701 211 
Q 384 513 384 1019 
Q 384 1609 779 1909 
Q 1175 2209 1959 2209 
L 2766 2209 
L 2766 2266 
Q 2766 2663 2505 2880 
Q 2244 3097 1772 3097 
Q 1472 3097 1187 3025 
Q 903 2953 641 2809 
L 641 3341 
Q 956 3463 1253 3523 
Q 1550 3584 1831 3584 
Q 2591 3584 2966 3190 
Q 3341 2797 3341 1997 
z
" id="DejaVuSans-61" transform="scale(0.015625)"/>
       <path d="M 1959 3097 
Q 1497 3097 1228 2736 
Q 959 2375 959 1747 
Q 959 1119 1226 758 
Q 1494 397 1959 397 
Q 2419 397 2687 759 
Q 2956 1122 2956 1747 
Q 2956 2369 2687 2733 
Q 2419 3097 1959 3097 
z
M 1959 3584 
Q 2709 3584 3137 3096 
Q 3566 2609 3566 1747 
Q 3566 888 3137 398 
Q 2709 -91 1959 -91 
Q 1206 -91 779 398 
Q 353 888 353 1747 
Q 353 2609 779 3096 
Q 1206 3584 1959 3584 
z
" id="DejaVuSans-6f" transform="scale(0.015625)"/>
       <path d="M 3513 2113 
L 3513 0 
L 2938 0 
L 2938 2094 
Q 2938 2591 2744 2837 
Q 2550 3084 2163 3084 
Q 1697 3084 1428 2787 
Q 1159 2491 1159 1978 
L 1159 0 
L 581 0 
L 581 3500 
L 1159 3500 
L 1159 2956 
Q 1366 3272 1645 3428 
Q 1925 3584 2291 3584 
Q 2894 3584 3203 3211 
Q 3513 2838 3513 2113 
z
" id="DejaVuSans-6e" transform="scale(0.015625)"/>
       <path d="M 2834 3397 
L 2834 2853 
Q 2591 2978 2328 3040 
Q 2066 3103 1784 3103 
Q 1356 3103 1142 2972 
Q 928 2841 928 2578 
Q 928 2378 1081 2264 
Q 1234 2150 1697 2047 
L 1894 2003 
Q 2506 1872 2764 1633 
Q 3022 1394 3022 966 
Q 3022 478 2636 193 
Q 2250 -91 1575 -91 
Q 1294 -91 989 -36 
Q 684 19 347 128 
L 347 722 
Q 666 556 975 473 
Q 1284 391 1588 391 
Q 1994 391 2212 530 
Q 2431 669 2431 922 
Q 2431 1156 2273 1281 
Q 2116 1406 1581 1522 
L 1381 1569 
Q 847 1681 609 1914 
Q 372 2147 372 2553 
Q 372 3047 722 3315 
Q 1072 3584 1716 3584 
Q 2034 3584 2315 3537 
Q 2597 3491 2834 3397 
z
" id="DejaVuSans-73" transform="scale(0.015625)"/>
      </defs>
      <use xlink:href="#DejaVuSans-69"/>
      <use x="27.783203" xlink:href="#DejaVuSans-74"/>
      <use x="66.992188" xlink:href="#DejaVuSans-65"/>
      <use x="128.515625" xlink:href="#DejaVuSans-72"/>
      <use x="169.628906" xlink:href="#DejaVuSans-61"/>
      <use x="230.908203" xlink:href="#DejaVuSans-74"/>
      <use x="270.117188" xlink:href="#DejaVuSans-69"/>
      <use x="297.900391" xlink:href="#DejaVuSans-6f"/>
      <use x="359.082031" xlink:href="#DejaVuSans-6e"/>
      <use x="422.460938" xlink:href="#DejaVuSans-73"/>
     </g>
    </g>
   </g>
   <g id="matplotlib.axis_2">
    <g id="ytick_1">
     <g id="line2d_7">
      <defs>
       <path d="M 0 0 
L -3.5 0 
" id="m3c83914cf4" style="stroke:#000000;stroke-width:0.8;"/>
      </defs>
      <g>
       <use style="stroke:#000000;stroke-width:0.8;" x="60.2975" xlink:href="#m3c83914cf4" y="500.043011"/>
      </g>
     </g>
     <g id="text_8">
      <!-- 0 -->
      <g transform="translate(38.0275 509.161136)scale(0.24 -0.24)">
       <use xlink:href="#DejaVuSans-30"/>
      </g>
     </g>
    </g>
    <g id="ytick_2">
     <g id="line2d_8">
      <g>
       <use style="stroke:#000000;stroke-width:0.8;" x="60.2975" xlink:href="#m3c83914cf4" y="420.024637"/>
      </g>
     </g>
     <g id="text_9">
      <!-- 1 -->
      <g transform="translate(38.0275 429.142762)scale(0.24 -0.24)">
       <use xlink:href="#DejaVuSans-31"/>
      </g>
     </g>
    </g>
    <g id="ytick_3">
     <g id="line2d_9">
      <g>
       <use style="stroke:#000000;stroke-width:0.8;" x="60.2975" xlink:href="#m3c83914cf4" y="340.006262"/>
      </g>
     </g>
     <g id="text_10">
      <!-- 2 -->
      <g transform="translate(38.0275 349.124387)scale(0.24 -0.24)">
       <use xlink:href="#DejaVuSans-32"/>
      </g>
     </g>
    </g>
    <g id="ytick_4">
     <g id="line2d_10">
      <g>
       <use style="stroke:#000000;stroke-width:0.8;" x="60.2975" xlink:href="#m3c83914cf4" y="259.987888"/>
      </g>
     </g>
     <g id="text_11">
      <!-- 3 -->
      <g transform="translate(38.0275 269.106013)scale(0.24 -0.24)">
       <defs>
        <path d="M 2597 2516 
Q 3050 2419 3304 2112 
Q 3559 1806 3559 1356 
Q 3559 666 3084 287 
Q 2609 -91 1734 -91 
Q 1441 -91 1130 -33 
Q 819 25 488 141 
L 488 750 
Q 750 597 1062 519 
Q 1375 441 1716 441 
Q 2309 441 2620 675 
Q 2931 909 2931 1356 
Q 2931 1769 2642 2001 
Q 2353 2234 1838 2234 
L 1294 2234 
L 1294 2753 
L 1863 2753 
Q 2328 2753 2575 2939 
Q 2822 3125 2822 3475 
Q 2822 3834 2567 4026 
Q 2313 4219 1838 4219 
Q 1578 4219 1281 4162 
Q 984 4106 628 3988 
L 628 4550 
Q 988 4650 1302 4700 
Q 1616 4750 1894 4750 
Q 2613 4750 3031 4423 
Q 3450 4097 3450 3541 
Q 3450 3153 3228 2886 
Q 3006 2619 2597 2516 
z
" id="DejaVuSans-33" transform="scale(0.015625)"/>
       </defs>
       <use xlink:href="#DejaVuSans-33"/>
      </g>
     </g>
    </g>
    <g id="ytick_5">
     <g id="line2d_11">
      <g>
       <use style="stroke:#000000;stroke-width:0.8;" x="60.2975" xlink:href="#m3c83914cf4" y="179.969514"/>
      </g>
     </g>
     <g id="text_12">
      <!-- 4 -->
      <g transform="translate(38.0275 189.087639)scale(0.24 -0.24)">
       <use xlink:href="#DejaVuSans-34"/>
      </g>
     </g>
    </g>
    <g id="ytick_6">
     <g id="line2d_12">
      <g>
       <use style="stroke:#000000;stroke-width:0.8;" x="60.2975" xlink:href="#m3c83914cf4" y="99.95114"/>
      </g>
     </g>
     <g id="text_13">
      <!-- 5 -->
      <g transform="translate(38.0275 109.069265)scale(0.24 -0.24)">
       <defs>
        <path d="M 691 4666 
L 3169 4666 
L 3169 4134 
L 1269 4134 
L 1269 2991 
Q 1406 3038 1543 3061 
Q 1681 3084 1819 3084 
Q 2600 3084 3056 2656 
Q 3513 2228 3513 1497 
Q 3513 744 3044 326 
Q 2575 -91 1722 -91 
Q 1428 -91 1123 -41 
Q 819 9 494 109 
L 494 744 
Q 775 591 1075 516 
Q 1375 441 1709 441 
Q 2250 441 2565 725 
Q 2881 1009 2881 1497 
Q 2881 1984 2565 2268 
Q 2250 2553 1709 2553 
Q 1456 2553 1204 2497 
Q 953 2441 691 2322 
L 691 4666 
z
" id="DejaVuSans-35" transform="scale(0.015625)"/>
       </defs>
       <use xlink:href="#DejaVuSans-35"/>
      </g>
     </g>
    </g>
    <g id="ytick_7">
     <g id="line2d_13">
      <g>
       <use style="stroke:#000000;stroke-width:0.8;" x="60.2975" xlink:href="#m3c83914cf4" y="19.932766"/>
      </g>
     </g>
     <g id="text_14">
      <!-- 6 -->
      <g transform="translate(38.0275 29.050891)scale(0.24 -0.24)">
       <use xlink:href="#DejaVuSans-36"/>
      </g>
     </g>
    </g>
    <g id="text_15">
     <!-- VQE energy -->
     <g transform="translate(29.03625 331.942977)rotate(-90)scale(0.24 -0.24)">
      <defs>
       <path d="M 1831 0 
L 50 4666 
L 709 4666 
L 2188 738 
L 3669 4666 
L 4325 4666 
L 2547 0 
L 1831 0 
z
" id="DejaVuSans-56" transform="scale(0.015625)"/>
       <path d="M 2522 4238 
Q 1834 4238 1429 3725 
Q 1025 3213 1025 2328 
Q 1025 1447 1429 934 
Q 1834 422 2522 422 
Q 3209 422 3611 934 
Q 4013 1447 4013 2328 
Q 4013 3213 3611 3725 
Q 3209 4238 2522 4238 
z
M 3406 84 
L 4238 -825 
L 3475 -825 
L 2784 -78 
Q 2681 -84 2626 -87 
Q 2572 -91 2522 -91 
Q 1538 -91 948 567 
Q 359 1225 359 2328 
Q 359 3434 948 4092 
Q 1538 4750 2522 4750 
Q 3503 4750 4090 4092 
Q 4678 3434 4678 2328 
Q 4678 1516 4351 937 
Q 4025 359 3406 84 
z
" id="DejaVuSans-51" transform="scale(0.015625)"/>
       <path d="M 628 4666 
L 3578 4666 
L 3578 4134 
L 1259 4134 
L 1259 2753 
L 3481 2753 
L 3481 2222 
L 1259 2222 
L 1259 531 
L 3634 531 
L 3634 0 
L 628 0 
L 628 4666 
z
" id="DejaVuSans-45" transform="scale(0.015625)"/>
       <path id="DejaVuSans-20" transform="scale(0.015625)"/>
       <path d="M 2906 1791 
Q 2906 2416 2648 2759 
Q 2391 3103 1925 3103 
Q 1463 3103 1205 2759 
Q 947 2416 947 1791 
Q 947 1169 1205 825 
Q 1463 481 1925 481 
Q 2391 481 2648 825 
Q 2906 1169 2906 1791 
z
M 3481 434 
Q 3481 -459 3084 -895 
Q 2688 -1331 1869 -1331 
Q 1566 -1331 1297 -1286 
Q 1028 -1241 775 -1147 
L 775 -588 
Q 1028 -725 1275 -790 
Q 1522 -856 1778 -856 
Q 2344 -856 2625 -561 
Q 2906 -266 2906 331 
L 2906 616 
Q 2728 306 2450 153 
Q 2172 0 1784 0 
Q 1141 0 747 490 
Q 353 981 353 1791 
Q 353 2603 747 3093 
Q 1141 3584 1784 3584 
Q 2172 3584 2450 3431 
Q 2728 3278 2906 2969 
L 2906 3500 
L 3481 3500 
L 3481 434 
z
" id="DejaVuSans-67" transform="scale(0.015625)"/>
       <path d="M 2059 -325 
Q 1816 -950 1584 -1140 
Q 1353 -1331 966 -1331 
L 506 -1331 
L 506 -850 
L 844 -850 
Q 1081 -850 1212 -737 
Q 1344 -625 1503 -206 
L 1606 56 
L 191 3500 
L 800 3500 
L 1894 763 
L 2988 3500 
L 3597 3500 
L 2059 -325 
z
" id="DejaVuSans-79" transform="scale(0.015625)"/>
      </defs>
      <use xlink:href="#DejaVuSans-56"/>
      <use x="68.408203" xlink:href="#DejaVuSans-51"/>
      <use x="147.119141" xlink:href="#DejaVuSans-45"/>
      <use x="210.302734" xlink:href="#DejaVuSans-20"/>
      <use x="242.089844" xlink:href="#DejaVuSans-65"/>
      <use x="303.613281" xlink:href="#DejaVuSans-6e"/>
      <use x="366.992188" xlink:href="#DejaVuSans-65"/>
      <use x="428.515625" xlink:href="#DejaVuSans-72"/>
      <use x="467.878906" xlink:href="#DejaVuSans-67"/>
      <use x="531.355469" xlink:href="#DejaVuSans-79"/>
     </g>
    </g>
   </g>
   <g id="line2d_14">
    <path clip-path="url(#p1b6c86c297)" d="M 60.358573 47.006972 
L 60.541791 60.076053 
L 60.602864 36.830456 
L 60.663936 49.349236 
L 60.786082 67.864795 
L 60.847155 60.434002 
L 60.908228 63.543591 
L 60.9693 53.5041 
L 61.030373 56.115357 
L 61.091446 71.779215 
L 61.152518 61.816623 
L 61.213591 60.107679 
L 61.274664 61.285577 
L 61.396809 69.822542 
L 61.457882 65.816938 
L 61.518955 66.133184 
L 61.580028 70.051354 
L 61.763246 51.937227 
L 61.824319 70.866412 
L 61.885391 62.429252 
L 61.946464 71.442866 
L 62.007537 61.403146 
L 62.06861 77.756556 
L 62.129683 73.07988 
L 62.190755 69.834742 
L 62.251828 76.652989 
L 62.312901 60.962128 
L 62.373973 74.373257 
L 62.435046 53.086265 
L 62.557192 79.862518 
L 62.618265 79.698829 
L 62.74041 86.943693 
L 62.862555 82.707409 
L 62.923628 69.700066 
L 62.984701 89.933698 
L 63.045774 86.014214 
L 63.106847 70.456673 
L 63.290065 94.394127 
L 63.41221 88.787082 
L 63.595428 71.069586 
L 63.656501 92.024315 
L 63.717574 90.570376 
L 63.778647 83.316181 
L 63.83972 88.596669 
L 63.900792 98.423326 
L 63.961865 93.048784 
L 64.022938 91.318879 
L 64.084011 84.9966 
L 64.145083 88.71213 
L 64.328301 98.637674 
L 64.389374 98.522167 
L 64.450447 85.20593 
L 64.51152 87.362787 
L 64.694738 109.195567 
L 64.755811 103.82447 
L 64.816884 101.419824 
L 64.877956 101.537914 
L 64.939029 103.440067 
L 65.061174 112.026028 
L 65.122247 97.915618 
L 65.18332 99.310852 
L 65.244393 99.308108 
L 65.305465 97.824032 
L 65.366538 116.432813 
L 65.427611 101.743164 
L 65.488684 110.85123 
L 65.549757 103.558721 
L 65.732975 117.181669 
L 65.85512 89.271054 
L 65.977266 110.040902 
L 66.038338 110.317698 
L 66.160484 113.993517 
L 66.282629 112.460013 
L 66.343702 108.187604 
L 66.465848 120.343017 
L 66.526921 114.049167 
L 66.649066 120.111269 
L 66.710139 95.746164 
L 66.771211 110.039434 
L 66.832284 104.41658 
L 66.893357 117.832551 
L 66.95443 106.294575 
L 67.015502 111.466047 
L 67.076575 113.23333 
L 67.137648 128.400171 
L 67.198721 112.167514 
L 67.259794 130.218121 
L 67.320866 106.469073 
L 67.381939 123.516938 
L 67.443012 107.1338 
L 67.504085 125.41991 
L 67.565157 100.831622 
L 67.62623 128.189946 
L 67.687303 120.616489 
L 67.809448 132.749015 
L 67.870521 131.375161 
L 67.931594 119.865711 
L 67.992666 133.801191 
L 68.053739 129.940279 
L 68.114812 128.676862 
L 68.175885 115.232653 
L 68.236958 128.266871 
L 68.29803 115.619767 
L 68.481248 131.919468 
L 68.664467 117.257828 
L 68.725539 135.960607 
L 68.786612 134.780897 
L 68.847685 119.391521 
L 68.908758 131.646179 
L 69.030903 136.880654 
L 69.153049 128.932718 
L 69.214122 134.901157 
L 69.275194 109.680975 
L 69.336267 130.977098 
L 69.39734 120.313543 
L 69.458412 128.947481 
L 69.519485 102.614091 
L 69.580558 137.983606 
L 69.641631 131.786616 
L 69.702703 131.785225 
L 69.763776 111.923741 
L 69.824849 136.43903 
L 69.885922 134.531456 
L 70.008067 114.708242 
L 70.06914 134.256296 
L 70.130213 130.353664 
L 70.191285 134.916911 
L 70.252358 130.322322 
L 70.313431 138.617914 
L 70.374504 136.010593 
L 70.435576 135.27715 
L 70.496649 110.933432 
L 70.557722 134.825594 
L 70.618795 123.560559 
L 70.679868 133.894103 
L 70.74094 108.805753 
L 70.802013 137.408456 
L 70.863086 127.73733 
L 70.924159 136.524302 
L 70.985231 132.446449 
L 71.046304 135.155792 
L 71.107377 112.534515 
L 71.229522 135.405745 
L 71.351668 115.227365 
L 71.534886 137.617543 
L 71.595959 138.109584 
L 71.657032 136.498412 
L 71.718104 115.657089 
L 71.779177 139.250165 
L 71.84025 134.345606 
L 71.901322 134.507289 
L 71.962395 133.28946 
L 72.023468 138.504777 
L 72.084541 130.203584 
L 72.145613 138.544117 
L 72.206686 131.39437 
L 72.267759 139.053628 
L 72.328832 132.263343 
L 72.51205 148.703325 
L 72.573123 119.831132 
L 72.634196 151.481775 
L 72.695268 134.629082 
L 72.756341 139.898024 
L 72.817414 129.214199 
L 73.000632 152.406202 
L 73.18385 131.452533 
L 73.244923 133.946541 
L 73.305996 127.099411 
L 73.367069 141.209561 
L 73.428141 133.560065 
L 73.550287 146.486236 
L 73.61136 141.882299 
L 73.672432 134.382806 
L 73.733505 144.875184 
L 73.794578 142.904711 
L 73.85565 143.635087 
L 73.916723 135.514377 
L 73.977796 147.960399 
L 74.038869 138.05758 
L 74.28316 154.140051 
L 74.344233 144.711514 
L 74.405305 145.136357 
L 74.466378 144.453807 
L 74.527451 142.126852 
L 74.588523 151.877217 
L 74.649596 141.191921 
L 74.710669 156.122112 
L 74.771742 138.199501 
L 74.832814 152.667214 
L 74.893887 137.474577 
L 74.95496 149.022581 
L 75.016033 138.154654 
L 75.077106 149.642004 
L 75.138178 128.83375 
L 75.199251 151.027419 
L 75.260324 133.489746 
L 75.321397 150.284465 
L 75.382469 119.695387 
L 75.565687 153.129023 
L 75.62676 129.185799 
L 75.687833 149.267404 
L 75.748906 137.139776 
L 75.993197 156.294949 
L 76.05427 143.959562 
L 76.115342 156.551154 
L 76.176415 155.393261 
L 76.237488 148.927002 
L 76.298561 152.840252 
L 76.359633 152.255482 
L 76.420706 147.703444 
L 76.481779 155.191948 
L 76.542851 147.947954 
L 76.603924 155.838537 
L 76.664997 153.276284 
L 76.848215 159.586529 
L 76.909288 159.416325 
L 77.031433 151.151334 
L 77.275724 164.332718 
L 77.336797 159.660579 
L 77.520015 177.200813 
L 77.581088 177.07033 
L 77.764307 161.249794 
L 77.947525 178.687145 
L 78.008598 171.055928 
L 78.191816 184.730642 
L 78.252888 178.887755 
L 78.375034 186.690546 
L 78.436107 185.88033 
L 78.49718 179.463043 
L 78.558252 188.630665 
L 78.619325 185.867663 
L 78.680398 187.651555 
L 78.74147 195.191311 
L 78.802543 195.044685 
L 78.863616 195.339027 
L 78.924689 194.720301 
L 78.985761 181.378937 
L 79.046834 197.19699 
L 79.107907 195.573843 
L 79.230052 189.822853 
L 79.291125 192.963065 
L 79.352198 185.499899 
L 79.413271 187.055019 
L 79.474344 203.652933 
L 79.535416 193.704638 
L 79.596489 199.743736 
L 79.657562 197.902205 
L 79.718635 196.672343 
L 79.779707 203.227052 
L 79.84078 198.25086 
L 79.962925 203.889276 
L 80.023998 202.79033 
L 80.085071 192.715041 
L 80.268289 206.625836 
L 80.451508 190.957649 
L 80.634726 206.759234 
L 80.756871 208.441199 
L 80.817944 202.050248 
L 80.879017 210.698833 
L 80.940089 209.178773 
L 81.001162 210.884074 
L 81.062235 208.936453 
L 81.123308 210.67742 
L 81.184381 205.195756 
L 81.306526 212.989141 
L 81.428672 203.882323 
L 81.489744 216.468612 
L 81.550817 210.581179 
L 81.61189 215.853872 
L 81.672962 214.683335 
L 81.734035 211.125887 
L 81.795108 221.165317 
L 81.856181 215.701689 
L 81.917254 215.824478 
L 81.978326 210.682323 
L 82.222617 224.646571 
L 82.28369 215.91118 
L 82.405835 225.083399 
L 82.466908 223.944316 
L 82.527981 210.350191 
L 82.589054 220.130769 
L 82.650126 214.512259 
L 82.711199 226.901714 
L 82.772272 223.223439 
L 82.833345 224.861249 
L 82.894418 216.982105 
L 82.95549 225.975792 
L 83.016563 220.062505 
L 83.138709 229.028751 
L 83.199781 226.050548 
L 83.260854 211.83264 
L 83.444072 239.259076 
L 83.505145 230.647725 
L 83.566218 241.073192 
L 83.627291 225.026182 
L 83.688363 237.683401 
L 83.749436 236.212253 
L 83.810509 242.414717 
L 83.871582 231.274581 
L 83.932654 243.749027 
L 83.993727 230.80219 
L 84.0548 243.56656 
L 84.115872 243.126548 
L 84.176945 245.405624 
L 84.238018 229.195811 
L 84.299091 242.457736 
L 84.360163 237.88689 
L 84.421236 237.933077 
L 84.543382 247.781778 
L 84.7266 241.618624 
L 84.909818 254.034191 
L 84.970891 244.214502 
L 85.031964 255.817627 
L 85.154109 243.448549 
L 85.276255 256.171899 
L 85.337328 241.815718 
L 85.3984 252.61 
L 85.520546 247.500512 
L 85.581619 254.365176 
L 85.642691 247.761398 
L 85.764837 272.536559 
L 85.825909 266.369506 
L 85.886982 272.950831 
L 85.948055 263.156903 
L 86.009128 269.704612 
L 86.131273 261.576509 
L 86.253419 270.427915 
L 86.314492 269.740489 
L 86.375564 261.574472 
L 86.436637 278.309485 
L 86.49771 273.741319 
L 86.558783 268.626946 
L 86.619855 277.652693 
L 86.680928 269.51259 
L 86.742001 273.693646 
L 86.803073 281.543096 
L 86.925219 272.715214 
L 86.986292 282.120377 
L 87.047365 273.032707 
L 87.108437 280.983557 
L 87.16951 269.536344 
L 87.230583 279.115523 
L 87.291656 279.046028 
L 87.352728 278.060758 
L 87.413801 273.488802 
L 87.535946 286.122618 
L 87.658092 275.836746 
L 87.84131 285.93984 
L 88.024529 275.051606 
L 88.085601 284.687743 
L 88.146674 274.926016 
L 88.207747 290.155756 
L 88.26882 273.503941 
L 88.329892 286.966438 
L 88.390965 286.38083 
L 88.452038 289.966521 
L 88.51311 288.41972 
L 88.574183 286.709409 
L 88.635256 275.342777 
L 88.818474 289.588084 
L 88.879547 276.165979 
L 88.94062 284.841604 
L 89.001693 275.24504 
L 89.062765 287.755576 
L 89.123838 281.516385 
L 89.184911 286.646869 
L 89.245983 282.91366 
L 89.307056 287.544801 
L 89.368129 276.275235 
L 89.429202 289.111691 
L 89.490274 278.624986 
L 89.551347 288.902225 
L 89.61242 276.19501 
L 89.673493 290.896494 
L 89.734566 284.720664 
L 89.795638 291.942819 
L 89.856711 286.23516 
L 89.917784 287.067854 
L 89.978857 282.188198 
L 90.039929 290.285074 
L 90.101002 285.387796 
L 90.162075 289.559927 
L 90.223147 275.42356 
L 90.28422 289.559116 
L 90.345293 283.566358 
L 90.406366 291.449928 
L 90.589584 275.147704 
L 90.650657 291.411403 
L 90.71173 277.669518 
L 90.772802 287.110635 
L 90.833875 285.463928 
L 90.894948 291.360063 
L 90.95602 281.74133 
L 91.017093 288.521707 
L 91.078166 287.820196 
L 91.139239 288.807004 
L 91.200311 280.345694 
L 91.261384 287.401597 
L 91.322457 280.879226 
L 91.38353 289.789727 
L 91.444603 266.124983 
L 91.505675 288.706694 
L 91.566748 279.757309 
L 91.627821 291.197322 
L 91.688894 283.069797 
L 91.749966 287.167634 
L 91.811039 268.426038 
L 91.872112 292.901372 
L 91.933184 292.287455 
L 91.994257 288.297823 
L 92.05533 289.17021 
L 92.116403 297.582836 
L 92.177475 292.874744 
L 92.238548 296.390014 
L 92.299621 275.443246 
L 92.360694 294.426174 
L 92.421767 285.247314 
L 92.482839 295.583943 
L 92.543912 275.966583 
L 92.604985 291.29861 
L 92.666057 296.28872 
L 92.788203 280.626477 
L 92.971421 295.272825 
L 93.032494 301.612938 
L 93.15464 289.16109 
L 93.276785 300.040346 
L 93.337858 299.100778 
L 93.398931 286.777452 
L 93.460003 298.631608 
L 93.521076 297.044898 
L 93.582149 295.379751 
L 93.643222 296.534826 
L 93.704294 297.153479 
L 93.765367 294.030353 
L 93.948585 302.287808 
L 94.131804 301.05413 
L 94.192876 302.394331 
L 94.253949 299.65278 
L 94.315022 301.571645 
L 94.49824 307.185497 
L 94.559313 305.257266 
L 94.620385 305.833008 
L 94.681458 305.997189 
L 94.742531 305.511896 
L 94.803604 305.633983 
L 94.864677 306.425757 
L 94.925749 303.499123 
L 95.108968 309.800298 
L 95.17004 302.890819 
L 95.353259 311.968793 
L 95.414331 304.979866 
L 95.475404 311.738649 
L 95.536477 307.237964 
L 95.780768 316.012469 
L 95.841841 314.482207 
L 95.902913 312.44579 
L 95.963986 315.227006 
L 96.025059 313.578053 
L 96.147204 314.58623 
L 96.330422 318.363972 
L 96.391495 315.803781 
L 96.574714 323.460126 
L 96.635786 316.960935 
L 96.819005 323.807376 
L 96.880077 318.1373 
L 96.94115 322.799307 
L 97.002223 322.469963 
L 97.185441 327.523364 
L 97.246514 329.497264 
L 97.307586 329.138082 
L 97.368659 323.359419 
L 97.429732 328.253932 
L 97.490805 320.65103 
L 97.551878 324.98939 
L 97.61295 325.915877 
L 97.674023 330.613685 
L 97.735096 324.501564 
L 97.918314 332.791118 
L 97.979387 333.135375 
L 98.101532 337.034793 
L 98.162605 336.705635 
L 98.223678 332.344812 
L 98.284751 336.977263 
L 98.345823 333.232337 
L 98.406896 335.424745 
L 98.467969 331.947838 
L 98.529042 335.399475 
L 98.590114 333.014807 
L 98.773333 337.261121 
L 98.834405 336.192414 
L 98.895478 336.947514 
L 98.956551 336.022701 
L 99.017623 336.801145 
L 99.078696 331.172018 
L 99.139769 335.732326 
L 99.200842 339.656974 
L 99.261915 339.48725 
L 99.322987 339.071109 
L 99.38406 339.574204 
L 99.445133 344.814246 
L 99.506205 341.105025 
L 99.628351 342.764793 
L 99.811569 347.982485 
L 99.933715 343.107574 
L 99.994788 344.367903 
L 100.116933 347.589811 
L 100.178006 347.013384 
L 100.300151 343.040238 
L 100.48337 347.353804 
L 100.544442 345.161802 
L 100.605515 345.543642 
L 100.666588 350.702323 
L 100.72766 348.118204 
L 100.788733 343.66004 
L 100.910879 350.185469 
L 101.033024 347.706916 
L 101.094097 350.71277 
L 101.15517 349.85106 
L 101.216242 349.332232 
L 101.277315 347.771835 
L 101.338388 349.163801 
L 101.399461 344.537108 
L 101.460533 349.882208 
L 101.521606 340.899448 
L 101.582679 349.806191 
L 101.643752 347.966183 
L 101.704825 350.231959 
L 101.765897 344.353979 
L 101.82697 348.268676 
L 101.888043 345.206899 
L 102.132334 352.461572 
L 102.254479 352.066902 
L 102.376625 346.490374 
L 102.49877 354.995466 
L 102.559843 354.993933 
L 102.620916 350.605464 
L 102.681989 352.757296 
L 102.743061 354.906758 
L 102.804134 352.772339 
L 102.926279 359.701661 
L 102.987352 355.57843 
L 103.048425 360.045798 
L 103.109498 357.220314 
L 103.17057 358.853792 
L 103.231643 354.789111 
L 103.414862 360.748877 
L 103.475934 357.923698 
L 103.537007 360.555201 
L 103.59808 355.926305 
L 103.659153 360.997276 
L 103.720225 360.569147 
L 103.781298 361.86201 
L 103.964516 357.663017 
L 104.025589 361.29607 
L 104.086662 356.261619 
L 104.208807 361.071063 
L 104.26988 358.910686 
L 104.330953 364.172477 
L 104.392026 363.554143 
L 104.453098 364.365101 
L 104.575244 359.994405 
L 104.636316 361.601063 
L 104.758462 363.887704 
L 104.819535 361.871504 
L 104.880607 362.99178 
L 104.94168 362.774928 
L 105.002753 363.129425 
L 105.063826 359.682249 
L 105.124899 362.324058 
L 105.185971 362.491962 
L 105.247044 363.652913 
L 105.308117 357.833448 
L 105.36919 361.432963 
L 105.430262 360.149337 
L 105.613481 365.980366 
L 105.674553 362.55143 
L 105.735626 364.32208 
L 105.796699 364.762876 
L 105.857771 364.27677 
L 105.918844 359.8807 
L 106.102063 367.434731 
L 106.163135 365.018773 
L 106.224208 365.618706 
L 106.346353 366.982929 
L 106.407426 362.323152 
L 106.468499 366.232669 
L 106.529572 363.589527 
L 106.590644 366.73478 
L 106.651717 358.502867 
L 106.71279 366.351164 
L 106.773863 365.969481 
L 106.896008 359.88715 
L 107.079227 367.602785 
L 107.140299 362.737348 
L 107.201372 366.453561 
L 107.262445 364.797531 
L 107.323518 365.431823 
L 107.445663 368.440201 
L 107.506736 364.108111 
L 107.567808 365.24992 
L 107.628881 364.359359 
L 107.689954 367.215388 
L 107.751027 365.191482 
L 107.8121 367.419052 
L 107.873172 364.465122 
L 107.934245 367.307384 
L 107.995318 366.515152 
L 108.05639 367.6771 
L 108.117463 366.653364 
L 108.178536 368.341184 
L 108.239609 364.27094 
L 108.300681 366.864431 
L 108.361754 366.465828 
L 108.422827 366.501943 
L 108.4839 362.919909 
L 108.544973 366.082137 
L 108.606045 364.258034 
L 108.667118 366.600404 
L 108.728191 366.570722 
L 108.789264 366.645588 
L 108.850336 367.330757 
L 108.972482 364.256303 
L 109.033555 367.302422 
L 109.094627 364.170578 
L 109.1557 365.592396 
L 109.216773 369.086194 
L 109.277845 367.39258 
L 109.338918 368.872513 
L 109.399991 368.706298 
L 109.583209 365.256809 
L 109.8275 370.597886 
L 109.888573 370.875826 
L 109.949646 368.450401 
L 110.010718 368.674425 
L 110.132864 368.94971 
L 110.193937 366.482146 
L 110.255009 368.464759 
L 110.316082 368.598974 
L 110.377155 370.030547 
L 110.438228 366.677106 
L 110.499301 370.792054 
L 110.560373 367.429532 
L 110.621446 371.503734 
L 110.682519 370.753737 
L 110.804664 369.865586 
L 110.92681 373.498445 
L 110.987882 371.145603 
L 111.048955 373.899909 
L 111.110028 372.289538 
L 111.171101 370.483003 
L 111.354319 374.8476 
L 111.415392 366.25509 
L 111.476464 373.028849 
L 111.537537 367.218236 
L 111.659683 373.490539 
L 111.720755 373.165868 
L 111.781828 369.637609 
L 111.842901 373.403632 
L 111.903974 365.94986 
L 111.965046 373.271495 
L 112.026119 370.493253 
L 112.087192 372.980993 
L 112.148265 369.26714 
L 112.209338 372.517732 
L 112.27041 372.197129 
L 112.331483 372.113315 
L 112.392556 377.962023 
L 112.453629 375.653415 
L 112.514701 377.025817 
L 112.575774 375.603323 
L 112.636847 381.864437 
L 112.69792 380.325815 
L 112.820065 377.574334 
L 112.881138 383.715451 
L 112.942211 383.435308 
L 113.003283 379.286473 
L 113.064356 381.648268 
L 113.125429 381.946317 
L 113.186501 383.908363 
L 113.247574 382.508117 
L 113.36972 379.619411 
L 113.491865 383.894569 
L 113.614011 381.434045 
L 113.675083 385.62982 
L 113.736156 380.901267 
L 113.797229 384.345529 
L 113.858302 380.921369 
L 113.919375 386.138817 
L 113.980447 374.544014 
L 114.102593 385.512873 
L 114.163666 384.78074 
L 114.224738 381.158235 
L 114.285811 386.144382 
L 114.346884 383.376065 
L 114.407957 384.503329 
L 114.469029 378.376113 
L 114.530102 385.03883 
L 114.591175 383.920761 
L 114.652248 385.557029 
L 114.71332 383.204291 
L 114.774393 387.633241 
L 114.835466 385.033387 
L 114.896538 386.371673 
L 114.957611 384.337895 
L 115.018684 384.860286 
L 115.079757 385.208253 
L 115.140829 386.415129 
L 115.201902 382.44638 
L 115.324048 387.299191 
L 115.38512 386.943834 
L 115.446193 385.542459 
L 115.507266 387.293664 
L 115.568339 384.828883 
L 115.629412 384.913163 
L 115.690484 387.530482 
L 115.751557 386.260953 
L 115.81263 387.02026 
L 115.873703 384.614172 
L 115.934775 387.525141 
L 115.995848 384.691687 
L 116.056921 386.658115 
L 116.117994 388.303481 
L 116.179066 382.054904 
L 116.240139 386.3285 
L 116.301212 390.679344 
L 116.362285 389.829185 
L 116.423357 391.258712 
L 116.48443 390.73353 
L 116.545503 389.364118 
L 116.606575 389.698462 
L 116.667648 390.004403 
L 116.789794 387.445059 
L 116.850866 388.68009 
L 116.911939 385.989198 
L 116.973012 390.001291 
L 117.034085 385.995898 
L 117.15623 390.888936 
L 117.217303 388.916421 
L 117.278376 390.193873 
L 117.339449 390.180938 
L 117.400521 382.583149 
L 117.58374 391.567519 
L 117.644812 389.313766 
L 117.705885 391.079574 
L 117.766958 391.946123 
L 117.889103 386.828552 
L 117.950176 391.514366 
L 118.011249 389.70998 
L 118.072322 390.091459 
L 118.133394 385.728418 
L 118.194467 390.575933 
L 118.25554 390.422236 
L 118.316612 388.871238 
L 118.377685 393.534087 
L 118.438758 392.210768 
L 118.499831 386.390782 
L 118.560903 393.121905 
L 118.621976 391.458657 
L 118.683049 390.70927 
L 118.744122 392.806453 
L 118.805194 392.306385 
L 118.866267 386.201802 
L 118.92734 392.415015 
L 118.988413 389.526319 
L 119.049486 391.16277 
L 119.110558 388.345538 
L 119.232704 395.74478 
L 119.293777 393.160957 
L 119.354849 393.546552 
L 119.415922 396.082483 
L 119.476995 391.224689 
L 119.538068 395.980428 
L 119.59914 392.945981 
L 119.660213 393.400501 
L 119.721286 391.329777 
L 119.782359 392.711944 
L 119.843431 394.151622 
L 119.904504 393.943136 
L 119.965577 392.958148 
L 120.02665 395.441931 
L 120.087722 388.954858 
L 120.148795 393.557417 
L 120.209868 393.733422 
L 120.27094 395.376429 
L 120.332013 392.274173 
L 120.393086 394.569883 
L 120.454159 393.001525 
L 120.515231 394.571663 
L 120.576304 393.248948 
L 120.759523 397.80205 
L 120.820595 394.949398 
L 120.881668 397.486559 
L 120.942741 392.905258 
L 121.003814 396.203403 
L 121.064886 393.92799 
L 121.125959 398.033973 
L 121.187032 392.574336 
L 121.248105 396.543605 
L 121.309177 394.816105 
L 121.37025 396.503952 
L 121.431323 394.824904 
L 121.492396 398.169687 
L 121.553468 396.109895 
L 121.614541 396.561264 
L 121.675614 393.243082 
L 121.736687 396.616672 
L 121.797759 391.816102 
L 121.858832 398.686877 
L 121.919905 396.569609 
L 121.980977 398.178587 
L 122.04205 394.704815 
L 122.103123 397.402759 
L 122.164196 396.807833 
L 122.225268 399.533645 
L 122.286341 398.709256 
L 122.46956 398.554643 
L 122.530632 394.513581 
L 122.591705 398.543936 
L 122.652778 393.776006 
L 122.774923 400.391455 
L 122.835996 399.989752 
L 122.897069 399.589291 
L 123.019214 397.411741 
L 123.080287 400.520318 
L 123.14136 400.210868 
L 123.202433 399.986429 
L 123.263505 396.79941 
L 123.324578 399.457275 
L 123.385651 394.820372 
L 123.446724 399.213103 
L 123.507796 392.757069 
L 123.629942 399.952126 
L 123.752087 397.922927 
L 123.81316 400.47104 
L 123.874233 394.264463 
L 123.935305 396.028485 
L 124.057451 401.38842 
L 124.240669 396.643058 
L 124.301742 400.44644 
L 124.362815 399.429554 
L 124.423888 399.889321 
L 124.48496 397.716912 
L 124.546033 400.082943 
L 124.607106 396.552709 
L 124.668178 399.141449 
L 124.729251 403.044725 
L 124.790324 399.749871 
L 124.851397 403.753398 
L 124.91247 402.083162 
L 124.973542 397.171232 
L 125.034615 402.930861 
L 125.095688 397.683874 
L 125.156761 403.329961 
L 125.217833 400.547718 
L 125.278906 400.075433 
L 125.339979 403.240164 
L 125.401052 402.812997 
L 125.462124 397.56549 
L 125.58427 403.771321 
L 125.645342 398.115869 
L 125.706415 402.838064 
L 125.767488 400.350837 
L 126.011779 405.901044 
L 126.072852 402.247392 
L 126.133925 404.343422 
L 126.194997 403.582742 
L 126.25607 403.813566 
L 126.317143 403.717776 
L 126.439288 400.442394 
L 126.500361 405.441605 
L 126.561434 402.93848 
L 126.622507 406.006031 
L 126.683579 403.013559 
L 126.744652 404.893688 
L 126.805725 407.077649 
L 126.866798 404.413973 
L 126.92787 408.300396 
L 126.988943 407.219907 
L 127.050016 408.111504 
L 127.172161 405.52343 
L 127.233234 405.685556 
L 127.294307 406.776766 
L 127.355379 406.188192 
L 127.416452 404.195122 
L 127.599671 408.882711 
L 127.660743 407.332192 
L 127.721816 409.045049 
L 127.782889 403.327235 
L 127.843962 408.560602 
L 127.905034 407.254717 
L 127.966107 408.048963 
L 128.02718 404.839403 
L 128.210398 409.397669 
L 128.271471 406.868113 
L 128.332543 409.829586 
L 128.393616 406.304185 
L 128.454689 409.652031 
L 128.515762 409.376444 
L 128.576835 409.296285 
L 128.637907 404.913087 
L 128.69898 407.440997 
L 128.760053 404.740554 
L 128.821125 408.754541 
L 128.882198 405.256744 
L 129.004344 411.112647 
L 129.126489 406.670471 
L 129.248635 411.519797 
L 129.309708 406.827741 
L 129.37078 409.376535 
L 129.431853 408.903383 
L 129.492926 407.14882 
L 129.553999 411.580668 
L 129.615071 403.24083 
L 129.676144 412.452498 
L 129.737217 408.647216 
L 129.79829 411.92789 
L 129.859362 410.290991 
L 129.920435 412.002299 
L 129.981508 409.461107 
L 130.04258 412.090369 
L 130.103653 411.635686 
L 130.164726 412.35779 
L 130.225799 406.526043 
L 130.286872 412.862278 
L 130.347944 411.068153 
L 130.409017 412.249396 
L 130.47009 409.354193 
L 130.531162 411.931533 
L 130.592235 400.848561 
L 130.775453 412.356084 
L 130.958672 407.057585 
L 131.14189 412.330258 
L 131.325108 408.926997 
L 131.508327 411.421492 
L 131.630472 412.685892 
L 131.691545 411.798781 
L 131.752617 412.60243 
L 131.81369 409.689391 
L 131.874763 411.889719 
L 131.935836 410.498947 
L 131.996909 412.681434 
L 132.057981 409.21193 
L 132.119054 411.044118 
L 132.180127 410.481521 
L 132.241199 412.804946 
L 132.302272 410.195666 
L 132.363345 412.363768 
L 132.424418 411.844966 
L 132.48549 411.460973 
L 132.546563 407.632959 
L 132.607636 411.781004 
L 132.668709 409.940081 
L 132.790854 409.957742 
L 132.851927 409.933626 
L 132.974073 410.376966 
L 133.096218 412.881186 
L 133.279436 408.494762 
L 133.401582 413.553299 
L 133.462654 411.347918 
L 133.523727 408.1733 
L 133.706946 414.174998 
L 133.890164 407.816026 
L 133.951236 413.204316 
L 134.012309 410.10258 
L 134.195527 413.041279 
L 134.2566 414.001203 
L 134.378746 410.624549 
L 134.439819 412.309877 
L 134.561964 411.571765 
L 134.623037 408.395551 
L 134.68411 412.899017 
L 134.745182 408.788376 
L 134.806255 410.423052 
L 134.867328 410.131884 
L 135.050546 414.063945 
L 135.111619 408.921984 
L 135.172691 412.957777 
L 135.233764 412.423863 
L 135.294837 410.6435 
L 135.35591 416.538586 
L 135.416983 414.34406 
L 135.539128 412.328104 
L 135.600201 412.577179 
L 135.783419 415.410723 
L 135.844492 413.098943 
L 135.905564 414.382965 
L 135.966637 418.488685 
L 136.02771 417.837983 
L 136.088783 409.270416 
L 136.149856 416.774448 
L 136.210928 415.36533 
L 136.272001 415.226718 
L 136.333074 416.247794 
L 136.394147 415.699539 
L 136.455219 415.879815 
L 136.516292 417.16045 
L 136.577365 416.8478 
L 136.638438 416.261043 
L 136.69951 419.68312 
L 136.760583 417.566555 
L 136.821656 414.02442 
L 136.943801 419.787505 
L 137.004874 419.268998 
L 137.065947 416.378459 
L 137.12702 420.412966 
L 137.188092 416.595615 
L 137.249165 422.083819 
L 137.310238 412.26816 
L 137.37131 421.24503 
L 137.432383 421.071021 
L 137.554529 417.521472 
L 137.615601 420.315553 
L 137.676674 415.092757 
L 137.737747 421.497916 
L 137.79882 413.707018 
L 137.859893 420.409942 
L 137.920965 416.986231 
L 137.982038 421.35062 
L 138.165256 413.020386 
L 138.348475 420.916148 
L 138.409547 415.53271 
L 138.47062 423.854178 
L 138.531693 420.042991 
L 138.714911 424.119279 
L 138.775984 418.398023 
L 138.837057 421.296785 
L 138.898129 418.726523 
L 138.959202 423.476518 
L 139.020275 418.947004 
L 139.081347 423.028203 
L 139.14242 418.756705 
L 139.325638 424.455001 
L 139.386711 415.392073 
L 139.508857 424.864959 
L 139.56993 423.630597 
L 139.631002 418.49715 
L 139.692075 422.554693 
L 139.814221 424.058965 
L 139.936366 425.71075 
L 140.058512 422.713754 
L 140.180657 426.313939 
L 140.24173 422.692977 
L 140.302802 425.05286 
L 140.363875 423.312991 
L 140.424948 424.684259 
L 140.486021 426.592522 
L 140.608166 421.808174 
L 140.791384 425.77638 
L 140.974603 422.80019 
L 141.035675 427.151239 
L 141.096748 425.424199 
L 141.157821 426.737844 
L 141.218894 424.071418 
L 141.279967 428.150341 
L 141.341039 424.316461 
L 141.402112 426.095743 
L 141.58533 430.282378 
L 141.646403 430.32036 
L 141.829621 422.43563 
L 141.890694 431.735207 
L 141.951767 426.226371 
L 142.012839 430.348768 
L 142.073912 427.661621 
L 142.134985 428.910828 
L 142.196058 427.48603 
L 142.257131 432.493162 
L 142.318203 427.036158 
L 142.379276 432.661477 
L 142.440349 425.320002 
L 142.501421 429.866675 
L 142.562494 426.316155 
L 142.623567 433.223489 
L 142.68464 432.095905 
L 142.745712 432.085024 
L 142.806785 432.301406 
L 142.867858 430.252843 
L 142.928931 430.885665 
L 142.990004 430.282752 
L 143.051076 430.873133 
L 143.112149 434.326644 
L 143.173222 428.990183 
L 143.234295 430.698721 
L 143.295367 428.25693 
L 143.478586 433.479935 
L 143.661804 431.677295 
L 143.722876 433.02226 
L 143.783949 431.493377 
L 143.845022 433.826405 
L 143.906095 429.899355 
L 143.967168 434.113704 
L 144.02824 428.511399 
L 144.089313 432.500161 
L 144.150386 432.430167 
L 144.211458 434.971204 
L 144.272531 432.58586 
L 144.333604 433.992718 
L 144.394677 432.303379 
L 144.455749 434.228861 
L 144.516822 424.248975 
L 144.577895 432.54998 
L 144.638968 431.253104 
L 144.822186 435.050758 
L 144.883259 428.303708 
L 144.944332 432.591264 
L 145.005404 429.618607 
L 145.066477 435.849305 
L 145.12755 427.872413 
L 145.188623 434.892078 
L 145.249695 433.880125 
L 145.310768 433.655785 
L 145.371841 429.245934 
L 145.493986 435.784958 
L 145.555059 435.729837 
L 145.738277 430.772347 
L 145.79935 436.167209 
L 145.860423 432.496085 
L 145.982568 433.954013 
L 146.043641 433.848277 
L 146.165786 438.870471 
L 146.226859 433.881767 
L 146.287932 436.040878 
L 146.349005 434.941236 
L 146.410077 438.295403 
L 146.47115 437.623049 
L 146.532223 435.63263 
L 146.593296 436.62703 
L 146.654369 437.231093 
L 146.715441 435.54145 
L 146.89866 437.829718 
L 146.959732 434.776622 
L 147.020805 438.404969 
L 147.204023 432.697156 
L 147.387242 439.291455 
L 147.448314 432.521501 
L 147.509387 439.422876 
L 147.57046 438.405547 
L 147.631532 438.894752 
L 147.753678 436.526002 
L 147.814751 438.96836 
L 147.875823 438.334277 
L 148.059042 436.022428 
L 148.24226 439.453774 
L 148.303333 436.424523 
L 148.364406 438.978847 
L 148.425478 436.182396 
L 148.486551 436.971583 
L 148.547624 435.75737 
L 148.608697 437.090324 
L 148.669769 435.827705 
L 148.730842 438.033954 
L 148.791915 435.418672 
L 148.852987 439.900258 
L 148.91406 436.108826 
L 148.975133 438.571291 
L 149.036206 436.787985 
L 149.097279 439.350652 
L 149.158351 434.506655 
L 149.219424 439.356958 
L 149.280497 437.237558 
L 149.341569 437.435581 
L 149.402642 437.361289 
L 149.463715 438.233466 
L 149.524788 435.133814 
L 149.58586 438.268052 
L 149.646933 436.05056 
L 149.891224 439.790576 
L 150.074443 442.781548 
L 150.135515 442.005696 
L 150.257661 442.889996 
L 150.318734 441.25395 
L 150.379806 443.471034 
L 150.440879 442.208574 
L 150.501952 443.174675 
L 150.563024 441.157239 
L 150.624097 442.702359 
L 150.68517 441.899267 
L 150.746243 442.836317 
L 150.807316 442.413299 
L 150.868388 442.825055 
L 150.929461 440.70727 
L 150.990534 442.345813 
L 151.051606 443.284458 
L 151.173752 441.177876 
L 151.295898 442.888925 
L 151.35697 442.850953 
L 151.418043 442.374269 
L 151.479116 442.849495 
L 151.540188 442.044254 
L 151.601261 444.34127 
L 151.662334 442.99406 
L 151.723407 443.670392 
L 151.78448 442.414242 
L 151.845552 444.427819 
L 151.906625 441.317902 
L 151.967698 444.620796 
L 152.028771 443.507028 
L 152.089843 444.40538 
L 152.150916 442.311153 
L 152.211989 444.666793 
L 152.273061 443.527852 
L 152.334134 444.973397 
L 152.395207 443.596963 
L 152.45628 445.13821 
L 152.517353 444.489136 
L 152.578425 445.289456 
L 152.639498 444.600153 
L 152.761643 446.47853 
L 152.822716 444.425412 
L 152.883789 446.580667 
L 152.944862 445.788352 
L 153.005935 445.594152 
L 153.12808 447.19636 
L 153.189153 446.144265 
L 153.311298 448.687113 
L 153.372371 448.010904 
L 153.433444 448.996723 
L 153.494517 447.572859 
L 153.555589 449.873621 
L 153.616662 449.193288 
L 153.677735 449.591431 
L 153.738808 447.5485 
L 153.922026 450.724786 
L 153.983098 449.304714 
L 154.044171 450.935725 
L 154.105244 449.950682 
L 154.593826 453.41984 
L 154.654899 451.997064 
L 154.838117 455.757961 
L 154.89919 455.711785 
L 154.960262 455.947854 
L 155.021335 455.128528 
L 155.082408 455.157119 
L 155.143481 454.986447 
L 155.204554 455.656608 
L 155.265626 455.510712 
L 155.326699 453.805471 
L 155.387772 455.842998 
L 155.448845 454.29909 
L 155.57099 456.144956 
L 155.632063 455.949551 
L 155.754208 455.515587 
L 155.815281 455.658251 
L 155.876354 454.851917 
L 155.937427 455.929914 
L 155.998499 455.488708 
L 156.059572 453.624927 
L 156.24279 455.794707 
L 156.303863 455.321512 
L 156.364936 455.347392 
L 156.426009 456.13184 
L 156.487081 455.952415 
L 156.548154 455.785978 
L 156.609227 456.112988 
L 156.670299 455.649518 
L 156.792445 457.076283 
L 156.914591 455.774151 
L 156.975663 456.443045 
L 157.097809 455.499266 
L 157.219954 457.552138 
L 157.3421 455.593031 
L 157.464245 457.677304 
L 157.586391 457.399788 
L 157.647464 457.011055 
L 157.708536 457.021566 
L 157.769609 459.047672 
L 157.830682 457.857955 
L 157.891754 458.037107 
L 158.074973 459.299642 
L 158.136046 458.318325 
L 158.197118 458.796271 
L 158.258191 460.154705 
L 158.319264 459.853876 
L 158.380336 459.545858 
L 158.502482 461.541908 
L 158.563555 461.531584 
L 158.624628 459.26671 
L 158.6857 460.55908 
L 158.746773 460.285891 
L 158.929991 461.536333 
L 159.052137 460.792187 
L 159.113209 461.753819 
L 159.174282 461.487763 
L 159.235355 461.340441 
L 159.296428 461.45625 
L 159.357501 460.220968 
L 159.418573 461.876524 
L 159.479646 461.413414 
L 159.540719 460.99081 
L 159.662864 461.852999 
L 159.723937 460.389176 
L 159.78501 461.43132 
L 159.846083 461.147025 
L 159.907155 461.669966 
L 159.968228 459.624717 
L 160.029301 460.944364 
L 160.273592 461.572502 
L 160.45681 460.203293 
L 160.517883 461.458903 
L 160.578956 460.375907 
L 160.640028 461.371099 
L 160.701101 459.923052 
L 160.823246 461.762273 
L 160.884319 461.317609 
L 161.067538 462.72402 
L 161.189683 461.562914 
L 161.250756 462.534423 
L 161.311828 462.036924 
L 161.495047 462.550355 
L 161.678265 461.030388 
L 161.80041 462.499241 
L 161.861483 462.02365 
L 161.922556 463.023639 
L 161.983629 462.544778 
L 162.105774 463.266273 
L 162.166847 462.717674 
L 162.22792 463.86691 
L 162.288993 462.502833 
L 162.350065 464.043749 
L 162.411138 462.864749 
L 162.472211 464.318915 
L 162.533283 462.766528 
L 162.594356 464.224337 
L 162.655429 463.911331 
L 162.777575 463.082877 
L 162.960793 465.004429 
L 163.021865 463.802512 
L 163.082938 464.471755 
L 163.144011 463.867788 
L 163.205084 465.081379 
L 163.266157 463.233396 
L 163.327229 464.21873 
L 163.449375 464.87629 
L 163.510447 464.153781 
L 163.57152 464.914872 
L 163.632593 463.4428 
L 163.693666 464.687909 
L 163.754739 464.463818 
L 163.815811 464.817929 
L 163.876884 463.611229 
L 163.937957 464.59194 
L 163.99903 464.244832 
L 164.060102 465.348833 
L 164.121175 464.126612 
L 164.182248 464.522045 
L 164.24332 464.256511 
L 164.304393 465.335892 
L 164.365466 464.306846 
L 164.426539 465.386867 
L 164.487612 464.971305 
L 164.548684 464.87665 
L 164.609757 463.74419 
L 164.67083 464.783447 
L 164.731902 464.658917 
L 164.854048 465.252098 
L 164.915121 464.750964 
L 164.976194 463.209956 
L 165.037266 465.082959 
L 165.098339 464.369356 
L 165.159412 465.226206 
L 165.220484 464.077966 
L 165.281557 465.157249 
L 165.34263 465.030055 
L 165.403703 465.121128 
L 165.464776 464.095695 
L 165.525848 465.25711 
L 165.586921 464.797009 
L 165.709067 464.661536 
L 165.831212 465.332533 
L 165.892285 464.774084 
L 165.953358 464.929901 
L 166.136576 466.028775 
L 166.197649 465.98491 
L 166.258721 465.654493 
L 166.319794 464.385664 
L 166.380867 465.843756 
L 166.441939 464.125077 
L 166.625158 466.371861 
L 166.808376 464.255526 
L 166.869449 465.660706 
L 166.930521 463.954745 
L 166.991594 465.995395 
L 167.052667 465.112454 
L 167.11374 465.932948 
L 167.174813 464.980717 
L 167.235885 465.753719 
L 167.296958 465.224178 
L 167.358031 466.239163 
L 167.480176 465.385844 
L 167.541249 466.756366 
L 167.602322 466.632071 
L 167.78554 464.913038 
L 167.968758 466.497461 
L 168.029831 466.70305 
L 168.090904 466.532622 
L 168.151976 464.626957 
L 168.213049 467.046582 
L 168.274122 466.138371 
L 168.335195 467.01187 
L 168.396268 466.693307 
L 168.45734 466.825393 
L 168.518413 466.245208 
L 168.579486 466.575759 
L 168.640558 466.831327 
L 168.762704 466.310905 
L 168.823777 467.009698 
L 168.88485 466.109962 
L 168.945922 467.010444 
L 169.006995 465.931228 
L 169.068068 466.433853 
L 169.129141 466.700515 
L 169.373432 465.654947 
L 169.495577 466.651438 
L 169.55665 466.459305 
L 169.800941 467.4242 
L 169.862013 467.022757 
L 169.923086 467.168414 
L 170.045232 467.656684 
L 170.289523 467.659298 
L 170.350595 467.163477 
L 170.411668 467.578338 
L 170.472741 466.834023 
L 170.594887 467.903819 
L 170.778105 467.619564 
L 170.839178 467.942944 
L 170.961323 467.106414 
L 171.022396 467.825179 
L 171.083469 467.053163 
L 171.266687 468.020983 
L 171.388832 468.194109 
L 171.449905 467.917038 
L 171.510978 468.138724 
L 171.694196 467.86186 
L 171.755269 467.970003 
L 171.816342 467.489685 
L 171.877414 468.184236 
L 171.938487 468.101041 
L 172.121705 468.135753 
L 172.304924 467.525391 
L 172.488142 468.364465 
L 172.549215 468.041774 
L 172.610287 468.513053 
L 172.67136 468.046882 
L 172.732433 468.338641 
L 172.793506 468.506341 
L 172.976724 468.119958 
L 173.159942 468.489676 
L 173.221015 468.495751 
L 173.404233 468.216155 
L 173.587451 468.433659 
L 173.709597 468.508199 
L 173.953888 468.607161 
L 174.014961 468.038147 
L 174.076033 468.489841 
L 174.137106 468.477696 
L 174.381397 469.109558 
L 174.625688 469.631323 
L 174.686761 469.160169 
L 174.747834 469.714203 
L 174.808906 469.649514 
L 174.869979 469.332147 
L 174.931052 469.626366 
L 174.992124 469.364922 
L 175.053197 469.727231 
L 175.11427 469.606765 
L 175.175343 469.527051 
L 175.236416 469.953639 
L 175.297488 469.881537 
L 175.358561 469.922973 
L 175.419634 469.811726 
L 175.480706 470.205496 
L 175.541779 470.053893 
L 175.602852 470.205825 
L 175.663925 469.982901 
L 175.724998 470.094128 
L 175.847143 470.186235 
L 175.969289 469.640638 
L 176.030361 470.236709 
L 176.091434 469.538455 
L 176.152507 470.09118 
L 176.274652 469.953639 
L 176.335725 470.21082 
L 176.457871 469.725291 
L 176.518943 470.199684 
L 176.580016 469.913686 
L 176.641089 470.15802 
L 176.702161 469.718092 
L 176.88538 470.792433 
L 177.007525 470.643619 
L 177.068598 470.832798 
L 177.129671 470.686086 
L 177.190743 470.062552 
L 177.312889 470.829751 
L 177.373962 470.735227 
L 177.435035 470.554386 
L 177.496107 470.840504 
L 177.55718 470.411354 
L 177.618253 470.914046 
L 177.679326 470.555546 
L 177.740398 470.625148 
L 177.862544 471.266246 
L 177.923617 470.871408 
L 178.106835 471.60494 
L 178.167908 471.349237 
L 178.22898 471.499887 
L 178.351126 471.633693 
L 178.412198 471.225192 
L 178.473271 471.469278 
L 178.534344 471.628455 
L 178.595417 471.485617 
L 178.65649 471.521588 
L 178.717562 471.775908 
L 178.778635 471.660405 
L 178.839708 471.771375 
L 178.90078 471.455111 
L 178.961853 471.660679 
L 179.083999 471.768562 
L 179.145072 471.276917 
L 179.206144 471.487947 
L 179.267217 471.445425 
L 179.32829 471.853059 
L 179.389363 471.683966 
L 179.572581 471.452031 
L 179.633654 471.388249 
L 179.694726 471.734682 
L 179.755799 471.575586 
L 179.939017 472.008041 
L 180.122235 471.972849 
L 180.305454 471.972284 
L 180.366527 471.466555 
L 180.427599 471.924209 
L 180.488672 471.625014 
L 180.549745 471.837745 
L 180.610817 471.594301 
L 180.67189 472.123651 
L 180.732963 471.809816 
L 180.916181 472.077543 
L 181.0994 472.144845 
L 181.160472 472.0491 
L 181.221545 471.292482 
L 181.282618 472.025618 
L 181.343691 471.81617 
L 181.404763 471.99094 
L 181.465836 471.711822 
L 181.649054 472.106073 
L 181.710127 471.767102 
L 181.832272 472.382928 
L 181.893345 472.361968 
L 182.015491 472.357731 
L 182.076564 472.387227 
L 182.198709 472.017056 
L 182.381927 472.317676 
L 182.443 471.977927 
L 182.504073 472.378424 
L 182.565145 472.214457 
L 182.626218 472.301938 
L 182.687291 472.191817 
L 182.809437 472.460479 
L 182.931582 471.813325 
L 182.992655 472.450944 
L 183.053728 472.019459 
L 183.1148 472.485254 
L 183.175873 472.122013 
L 183.236946 472.503672 
L 183.298019 472.353718 
L 183.359091 472.434926 
L 183.420164 472.339714 
L 183.481237 472.00021 
L 183.542309 472.170646 
L 183.664455 472.452206 
L 183.725528 472.402982 
L 183.908746 472.150069 
L 184.030891 472.512303 
L 184.153037 472.300468 
L 184.275182 472.980671 
L 184.336255 472.879629 
L 184.397328 472.477222 
L 184.519474 473.006901 
L 184.580546 473.009801 
L 184.641619 472.777076 
L 184.702692 473.05787 
L 184.824837 472.731885 
L 184.88591 472.952421 
L 184.946983 472.898345 
L 185.008056 472.696967 
L 185.130201 472.970439 
L 185.191274 472.993624 
L 185.252346 472.889032 
L 185.313419 472.942 
L 185.374492 473.082222 
L 185.435565 472.871245 
L 185.496638 473.334658 
L 185.55771 473.237845 
L 185.618783 472.839213 
L 185.679856 473.161085 
L 185.740928 472.783595 
L 185.863074 473.373964 
L 185.924147 473.281891 
L 185.985219 472.637004 
L 186.107365 473.414048 
L 186.168438 473.249201 
L 186.229511 473.536303 
L 186.290583 473.470855 
L 186.351656 473.200647 
L 186.412729 473.289834 
L 186.473802 473.511042 
L 186.534874 473.434941 
L 186.718093 473.032022 
L 186.901311 473.415164 
L 187.084529 473.322895 
L 187.206675 473.542281 
L 187.32882 473.089691 
L 187.389893 473.519503 
L 187.450965 473.420169 
L 187.512038 473.463778 
L 187.573111 473.303742 
L 187.634184 473.389938 
L 187.817402 473.314305 
L 187.878475 473.453218 
L 187.939548 472.790041 
L 188.122766 473.823939 
L 188.244911 473.614235 
L 188.305984 473.958702 
L 188.367057 473.940134 
L 188.550275 473.792141 
L 188.611348 474.058176 
L 188.67242 473.886773 
L 188.855639 474.173311 
L 188.977784 473.858077 
L 189.038857 474.09368 
L 189.09993 474.038836 
L 189.161002 473.67676 
L 189.222075 473.890533 
L 189.405294 474.173498 
L 189.466366 474.121343 
L 189.588512 473.969607 
L 189.710657 474.117855 
L 189.893875 473.77081 
L 190.077094 474.264124 
L 190.138167 473.751687 
L 190.199239 474.223176 
L 190.260312 474.00671 
L 190.382457 474.397609 
L 190.44353 474.272638 
L 190.504603 473.785233 
L 190.626749 474.527277 
L 190.687821 474.465227 
L 190.871039 474.784781 
L 190.932112 474.674996 
L 190.993185 474.720024 
L 191.054258 474.811505 
L 191.115331 474.390925 
L 191.176403 474.637078 
L 191.237476 474.707981 
L 191.298549 474.618693 
L 191.359622 474.543718 
L 191.420694 474.901255 
L 191.603912 474.245363 
L 191.664985 474.807555 
L 191.726058 474.623422 
L 191.787131 474.830027 
L 191.848204 474.420917 
L 191.909276 474.59641 
L 191.970349 474.414001 
L 192.031422 474.857926 
L 192.092494 474.721978 
L 192.153567 474.740948 
L 192.21464 474.605097 
L 192.275713 474.662834 
L 192.397858 474.905846 
L 192.458931 474.809087 
L 192.581076 474.942397 
L 192.703222 474.747744 
L 192.764295 474.861081 
L 192.825368 474.970283 
L 193.008586 474.611673 
L 193.252877 474.964364 
L 193.313949 474.545754 
L 193.375022 474.897478 
L 193.436095 474.727252 
L 193.863604 474.884203 
L 193.924677 475.186834 
L 193.98575 475.12516 
L 194.107895 475.192881 
L 194.168968 474.718786 
L 194.230041 474.815783 
L 194.291113 475.065197 
L 194.352186 474.877188 
L 194.596477 475.156431 
L 194.779696 474.891535 
L 194.840768 475.073629 
L 194.901841 474.808923 
L 194.962914 475.347927 
L 195.023986 475.068708 
L 195.085059 475.301477 
L 195.207205 475.085766 
L 195.32935 475.374729 
L 195.512568 474.968412 
L 195.695787 475.339685 
L 195.75686 475.029545 
L 195.817932 475.347644 
L 195.879005 474.814925 
L 195.940078 475.25713 
L 196.00115 475.125239 
L 196.062223 475.324574 
L 196.123296 475.202454 
L 196.245442 475.468649 
L 196.306514 475.412796 
L 196.489733 475.193758 
L 196.550805 475.339417 
L 196.611878 474.887068 
L 196.672951 475.381803 
L 196.734023 474.915173 
L 196.795096 475.364879 
L 196.856169 475.155037 
L 197.039387 475.608754 
L 197.10046 475.692199 
L 197.222605 475.480604 
L 197.405824 475.703194 
L 197.466897 475.379118 
L 197.527969 475.634979 
L 197.589042 475.703758 
L 197.77226 475.451081 
L 197.894406 475.573732 
L 197.955479 475.089069 
L 198.016551 475.564199 
L 198.077624 475.429953 
L 198.138697 475.386953 
L 198.260842 475.557233 
L 198.321915 475.466793 
L 198.382988 475.608299 
L 198.44406 475.409723 
L 198.505133 475.5475 
L 198.749424 475.572703 
L 198.810497 475.30865 
L 198.87157 475.473965 
L 198.932642 475.535768 
L 198.993715 475.428996 
L 199.176934 475.771737 
L 199.238006 475.566962 
L 199.299079 475.716907 
L 199.360152 475.679441 
L 199.421224 475.778637 
L 199.482297 475.664224 
L 199.54337 475.81076 
L 199.604443 475.679361 
L 199.665516 475.561505 
L 199.726588 475.736185 
L 199.787661 475.538417 
L 199.848734 475.752081 
L 199.909807 475.181032 
L 199.970879 475.710042 
L 200.031952 475.479003 
L 200.093025 475.691384 
L 200.154097 475.51699 
L 200.337316 475.837438 
L 200.398389 475.540004 
L 200.459461 475.565086 
L 200.642679 475.824484 
L 200.764825 475.603645 
L 200.825898 475.743174 
L 200.886971 475.485979 
L 200.948043 475.804615 
L 201.009116 475.770962 
L 201.070189 475.846072 
L 201.131261 475.635847 
L 201.192334 475.736886 
L 201.31448 475.770819 
L 201.497698 475.414804 
L 201.619844 475.855412 
L 201.680916 475.786318 
L 201.741989 475.101323 
L 201.803062 475.647286 
L 201.864134 475.33237 
L 202.047353 475.696238 
L 202.169498 475.701132 
L 202.230571 475.618865 
L 202.352716 475.902828 
L 202.413789 475.863514 
L 202.474862 475.763592 
L 202.535935 475.856974 
L 202.65808 475.878474 
L 202.719153 475.402242 
L 202.780226 475.707993 
L 202.841298 475.944972 
L 202.902371 475.836044 
L 202.963444 475.678376 
L 203.024517 475.817391 
L 203.207735 475.458302 
L 203.268808 475.890613 
L 203.329881 475.680371 
L 203.390953 475.953184 
L 203.452026 475.78131 
L 203.513099 475.822502 
L 203.574171 475.729933 
L 203.940608 475.858025 
L 204.001681 475.913034 
L 204.062753 475.64523 
L 204.123826 475.972508 
L 204.184899 475.525601 
L 204.245972 475.855635 
L 204.307045 476.206396 
L 204.368117 476.068583 
L 204.42919 475.929126 
L 204.490263 476.147754 
L 204.551335 475.580326 
L 204.612408 476.05561 
L 204.673481 475.54995 
L 204.734554 476.14734 
L 204.795627 476.002859 
L 204.856699 476.132881 
L 204.917772 475.835392 
L 204.978845 476.153014 
L 205.039918 476.001391 
L 205.10099 476.145663 
L 205.162063 475.949656 
L 205.223136 476.078683 
L 205.284208 476.048986 
L 205.345281 476.212664 
L 205.406354 475.733786 
L 205.467427 476.10675 
L 205.5285 475.858153 
L 205.589572 476.010964 
L 205.650645 475.841097 
L 205.77279 476.134886 
L 205.956009 475.944739 
L 206.078154 476.07835 
L 206.139227 475.976584 
L 206.2003 476.120487 
L 206.261372 476.05498 
L 206.322445 476.0977 
L 206.383518 476.479661 
L 206.444591 476.303892 
L 206.505664 476.164791 
L 206.566736 476.371415 
L 206.627809 476.183012 
L 206.688882 476.436227 
L 206.749955 475.911285 
L 206.811027 476.427378 
L 206.8721 476.067117 
L 207.055318 476.404209 
L 207.116391 476.021407 
L 207.177464 476.424196 
L 207.238537 476.304089 
L 207.421755 476.521211 
L 207.604973 476.114314 
L 207.666046 476.384166 
L 207.727119 475.879998 
L 207.788191 476.586342 
L 207.849264 476.323174 
L 207.971409 476.589657 
L 208.032482 476.452214 
L 208.093555 476.441029 
L 208.154628 476.607535 
L 208.215701 475.972124 
L 208.276773 476.562501 
L 208.337846 476.483269 
L 208.459992 476.461883 
L 208.64321 476.63517 
L 208.704282 476.237411 
L 208.765355 476.562678 
L 208.826428 476.208857 
L 208.887501 476.607961 
L 208.948574 476.361051 
L 209.009646 476.421565 
L 209.070719 476.695493 
L 209.131792 476.541898 
L 209.253937 476.632801 
L 209.437156 476.221393 
L 209.620374 476.789356 
L 209.681446 476.225027 
L 209.742519 476.630063 
L 209.864665 476.744323 
L 209.925738 476.449965 
L 209.98681 476.764112 
L 210.047883 476.398401 
L 210.108956 476.553565 
L 210.170029 476.766112 
L 210.231101 476.683566 
L 210.292174 476.347098 
L 210.353247 476.807226 
L 210.414319 476.266929 
L 210.475392 476.741646 
L 210.536465 476.404167 
L 210.597538 476.75412 
L 210.658611 476.639669 
L 210.780756 476.510394 
L 210.963974 476.76647 
L 211.08612 476.656394 
L 211.269338 477.194133 
L 211.391483 477.189739 
L 211.452556 477.222936 
L 211.574702 477.083262 
L 211.696847 477.076096 
L 211.75792 476.820119 
L 211.818993 477.304304 
L 211.880066 477.039978 
L 211.941138 477.257959 
L 212.124356 476.926208 
L 212.185429 477.191558 
L 212.246502 476.819542 
L 212.307575 477.240015 
L 212.368648 476.82415 
L 212.42972 477.218568 
L 212.490793 476.85107 
L 212.551866 477.290983 
L 212.612938 477.016292 
L 212.674011 477.212517 
L 212.735084 477.088734 
L 212.796157 477.184898 
L 212.85723 476.808755 
L 212.979375 477.306898 
L 213.040448 477.18242 
L 213.10152 476.652734 
L 213.162593 477.311134 
L 213.223666 476.916825 
L 213.284739 477.139244 
L 213.345812 477.010778 
L 213.52903 477.389478 
L 213.590103 477.330015 
L 213.712248 477.210851 
L 213.773321 477.404224 
L 213.834394 476.992441 
L 213.895466 477.315765 
L 214.078685 477.061423 
L 214.322975 477.364908 
L 214.384048 477.415402 
L 214.506194 477.277556 
L 214.689412 477.165468 
L 214.750485 477.354426 
L 214.811557 476.928404 
L 214.87263 477.441398 
L 214.933703 476.922616 
L 214.994776 477.395544 
L 215.055849 477.134181 
L 215.177994 477.39797 
L 215.30014 477.255385 
L 215.361212 477.508371 
L 215.422285 477.483978 
L 215.544431 477.162244 
L 215.605503 477.47803 
L 215.666576 477.308775 
L 215.727649 477.482495 
L 215.849794 477.325433 
L 215.910867 477.489786 
L 215.97194 477.360575 
L 216.094085 477.377774 
L 216.155158 477.211819 
L 216.216231 477.368375 
L 216.277304 477.017646 
L 216.338376 477.427789 
L 216.399449 477.39925 
L 216.460522 477.376468 
L 216.521594 477.091277 
L 216.704813 477.538639 
L 216.888031 476.989576 
L 216.949104 477.499899 
L 217.010177 477.229597 
L 217.071249 477.499828 
L 217.132322 477.357858 
L 217.193395 477.52641 
L 217.254468 477.348503 
L 217.31554 477.38473 
L 217.559831 477.48692 
L 217.620904 477.289678 
L 217.681977 477.566929 
L 217.743049 477.400266 
L 218.048413 477.580396 
L 218.109486 477.31927 
L 218.170559 477.523656 
L 218.353777 477.351971 
L 218.41485 477.432131 
L 218.475923 477.589831 
L 218.536995 477.498803 
L 218.598068 477.491385 
L 218.781286 477.637353 
L 218.964505 477.556494 
L 219.08665 477.714858 
L 219.269868 477.613623 
L 219.453086 477.730743 
L 219.575232 477.673761 
L 219.697378 477.764536 
L 219.75845 477.648969 
L 219.819523 477.758409 
L 219.880596 477.659594 
L 219.941668 477.726622 
L 220.124887 477.748033 
L 220.18596 477.802234 
L 220.247032 477.633858 
L 220.308105 477.797907 
L 220.369178 477.694638 
L 220.552396 477.757209 
L 220.613469 477.796333 
L 220.674542 477.678371 
L 220.735614 477.774286 
L 220.979905 477.847818 
L 221.163123 477.867279 
L 221.224196 477.800506 
L 221.285269 477.894732 
L 221.407415 477.891814 
L 221.468487 477.78804 
L 221.52956 477.85664 
L 221.712778 478.039678 
L 221.834924 478.020109 
L 222.018142 477.968284 
L 222.079215 477.796355 
L 222.20136 478.070017 
L 222.262433 478.001908 
L 222.87316 478.291545 
L 222.934233 478.258813 
L 223.178524 478.627428 
L 223.361742 478.560769 
L 223.606034 478.592005 
L 223.728179 478.762193 
L 223.911397 478.54472 
L 224.033543 478.769633 
L 224.277834 478.730454 
L 224.399979 478.775722 
L 224.461052 478.72516 
L 224.522125 478.814154 
L 224.705343 478.811073 
L 225.071779 478.74339 
L 225.132852 478.823824 
L 225.193925 478.757975 
L 226.41538 478.878645 
L 226.476453 478.741336 
L 226.537526 478.877217 
L 227.08718 478.89787 
L 227.148253 478.879164 
L 227.270398 478.964134 
L 227.331471 478.845453 
L 227.392544 478.926729 
L 227.51469 478.986488 
L 227.575762 478.912175 
L 227.636835 479.025728 
L 227.697908 478.912288 
L 227.881126 478.963847 
L 228.247563 479.06534 
L 228.308635 478.991986 
L 228.369708 479.05314 
L 229.224727 479.071846 
L 229.346872 479.112776 
L 229.53009 478.977398 
L 229.774381 479.222178 
L 229.896527 479.039112 
L 230.079745 479.203381 
L 230.507254 479.183046 
L 230.690472 479.173062 
L 230.934764 479.290952 
L 231.240127 479.319875 
L 231.362273 479.126917 
L 231.423345 479.273055 
L 231.606564 479.30004 
L 231.911927 479.355532 
L 231.973 479.257388 
L 232.034073 479.302559 
L 232.156219 479.345059 
L 232.217291 479.1951 
L 232.278364 479.335692 
L 232.461582 479.429304 
L 232.644801 479.456039 
L 232.828019 479.443949 
L 233.133382 479.563285 
L 233.194455 479.460098 
L 233.255528 479.536517 
L 233.377674 479.495446 
L 233.560892 479.433578 
L 233.805183 479.674761 
L 234.171619 479.651227 
L 234.41591 479.641074 
L 234.599129 479.677181 
L 234.782347 479.781883 
L 234.965565 479.76228 
L 235.087711 479.797265 
L 235.148783 479.708868 
L 235.209856 479.877247 
L 235.270929 479.792129 
L 235.698438 479.867016 
L 235.881656 479.865541 
L 235.942729 479.903882 
L 236.003802 479.799267 
L 236.064875 479.895621 
L 236.431311 479.847488 
L 236.492384 479.903106 
L 236.553456 479.8352 
L 236.797748 479.902588 
L 236.980966 479.77793 
L 237.164184 479.954988 
L 237.408475 479.885819 
L 237.53062 479.947716 
L 237.591693 479.87033 
L 237.652766 479.931923 
L 238.019203 479.991932 
L 238.080275 479.866832 
L 238.141348 480.056265 
L 238.202421 479.973138 
L 238.62993 480.031234 
L 238.691003 479.936522 
L 238.752075 480.023198 
L 238.813148 480.124733 
L 238.874221 480.080954 
L 238.935294 480.046881 
L 239.118512 480.155148 
L 239.362803 480.150369 
L 239.423876 479.941373 
L 239.484949 480.125546 
L 239.607094 480.070375 
L 239.72924 480.145385 
L 239.912458 480.027368 
L 239.97353 480.19207 
L 240.034603 480.142755 
L 240.767476 480.220394 
L 240.828549 480.253424 
L 240.889622 480.151188 
L 240.950694 480.258923 
L 241.622495 480.198479 
L 241.805713 480.301559 
L 242.416441 480.275318 
L 242.538586 480.309396 
L 242.660731 480.261362 
L 242.905023 480.264819 
L 242.966095 480.173161 
L 243.027168 480.278544 
L 243.393604 480.398709 
L 243.454677 480.314197 
L 243.51575 480.374638 
L 243.882186 480.442038 
L 243.943259 480.196778 
L 244.004332 480.34667 
L 244.309696 480.497169 
L 244.431841 480.489305 
L 244.492914 480.572875 
L 244.553987 480.428213 
L 244.61506 480.535079 
L 244.798278 480.48344 
L 244.920423 480.550721 
L 246.202951 480.612333 
L 246.386169 480.643536 
L 246.874751 480.59686 
L 247.241188 480.585465 
L 247.363333 480.629568 
L 247.546552 480.622695 
L 247.607624 480.773409 
L 247.668697 480.697808 
L 247.790842 480.73536 
L 247.974061 480.854334 
L 248.218352 480.728337 
L 248.279425 480.839433 
L 248.340497 480.781793 
L 248.645861 480.903035 
L 248.951225 480.814985 
L 249.012297 480.876712 
L 249.07337 480.744826 
L 249.134443 480.913077 
L 249.195516 480.803238 
L 249.378734 480.864337 
L 249.867316 480.921043 
L 250.050534 480.876943 
L 250.233752 480.944607 
L 250.478044 480.90168 
L 252.188081 481.007208 
L 252.249153 480.8891 
L 252.432371 481.058868 
L 252.493444 480.9588 
L 252.554517 481.035307 
L 252.798808 481.113969 
L 252.859881 481.012973 
L 252.920953 481.079998 
L 253.165245 481.128216 
L 253.226317 481.043277 
L 253.28739 481.138754 
L 253.714899 480.991086 
L 253.898118 481.139416 
L 253.95919 480.971575 
L 254.020263 481.137462 
L 254.081336 481.013461 
L 254.264554 481.094559 
L 254.3867 481.093263 
L 254.447772 481.016633 
L 254.508845 481.076768 
L 254.63099 481.19392 
L 255.180645 481.131316 
L 255.363863 481.223184 
L 255.547082 481.143595 
L 255.7303 481.243194 
L 255.852445 481.220367 
L 255.974591 481.228957 
L 256.035664 481.161697 
L 256.096737 481.252472 
L 256.951755 481.26845 
L 257.196046 481.261156 
L 257.257119 481.157945 
L 257.318192 481.261289 
L 257.440337 481.237495 
L 257.623555 481.30109 
L 258.600719 481.28755 
L 259.516811 481.29012 
L 259.577883 481.208432 
L 259.638956 481.27401 
L 259.700029 481.317135 
L 259.822174 481.253451 
L 259.883247 481.326897 
L 259.94432 481.257362 
L 260.188611 481.314534 
L 260.371829 481.278266 
L 260.61612 481.300589 
L 260.738266 481.252252 
L 261.165775 481.33508 
L 261.532211 481.296507 
L 261.837575 481.405728 
L 261.959721 481.375866 
L 262.081866 481.465821 
L 262.204011 481.431393 
L 262.448303 481.476957 
L 262.509375 481.320477 
L 262.570448 481.415369 
L 263.303321 481.447715 
L 263.486539 481.436417 
L 265.257649 481.598041 
L 265.440867 481.429225 
L 265.563013 481.631341 
L 265.868377 481.63388 
L 266.295886 481.659979 
L 266.479104 481.755989 
L 266.540177 481.643296 
L 266.601249 481.731517 
L 266.784468 481.652079 
L 266.967686 481.777694 
L 267.150904 481.679178 
L 267.211977 481.769529 
L 267.27305 481.710247 
L 267.456268 481.735157 
L 267.517341 481.639395 
L 267.578414 481.732399 
L 267.639486 481.672467 
L 267.761632 481.770116 
L 267.883777 481.69347 
L 268.311286 481.754531 
L 268.61665 481.661436 
L 268.799869 481.805225 
L 268.860941 481.669206 
L 268.922014 481.803597 
L 268.983087 481.687757 
L 269.04416 481.783013 
L 269.288451 481.799495 
L 269.410596 481.765025 
L 269.532741 481.770489 
L 269.593814 481.678238 
L 269.654887 481.787504 
L 269.71596 481.726508 
L 270.021323 481.80004 
L 270.082396 481.679155 
L 270.143469 481.814305 
L 270.204542 481.753263 
L 270.448833 481.87485 
L 270.509906 481.884771 
L 270.570978 481.728343 
L 270.632051 481.869648 
L 270.754197 481.839733 
L 270.937415 481.97419 
L 271.181706 481.867347 
L 271.425997 482.004405 
L 271.670288 481.989812 
L 272.219943 482.007185 
L 272.281015 481.880529 
L 272.342088 481.971987 
L 272.769597 482.003381 
L 272.891743 481.939179 
L 273.136034 481.992014 
L 273.319252 482.007821 
L 275.640017 482.026751 
L 275.884308 482.022082 
L 275.94538 481.915243 
L 276.006453 482.051334 
L 276.067526 482.003663 
L 276.250744 482.025489 
L 276.311817 481.956463 
L 276.372889 482.032266 
L 276.861471 482.07208 
L 276.922544 481.904977 
L 276.983617 481.996421 
L 277.533272 482.082798 
L 277.899708 482.150771 
L 277.960781 482.149772 
L 278.021854 482.033687 
L 278.082926 482.120429 
L 278.205072 482.19371 
L 278.449363 482.168627 
L 278.693654 482.173143 
L 278.937945 482.212446 
L 278.999018 482.06972 
L 279.060091 482.190878 
L 279.121163 482.106791 
L 279.182236 482.184884 
L 279.4876 482.172659 
L 279.548673 482.26116 
L 279.609745 482.205704 
L 279.915109 482.244221 
L 279.976182 482.164509 
L 280.037255 482.25423 
L 280.1594 482.256457 
L 280.770128 482.288248 
L 280.8312 482.141026 
L 280.953346 482.281927 
L 281.380855 482.276373 
L 281.625146 482.290114 
L 281.686219 482.207022 
L 281.747292 482.31789 
L 281.808364 482.189547 
L 281.869437 482.290395 
L 282.113728 482.288417 
L 282.724456 482.310102 
L 282.785528 482.237583 
L 282.846601 482.324477 
L 283.396256 482.306337 
L 283.579474 482.350801 
L 283.640547 482.239306 
L 283.701619 482.290052 
L 284.068056 482.295942 
L 284.129129 482.119811 
L 284.312347 482.359771 
L 284.434493 482.339237 
L 284.495565 482.221888 
L 284.678784 482.382822 
L 284.800929 482.347588 
L 284.923074 482.450261 
L 284.984147 482.296531 
L 285.04522 482.435365 
L 285.228438 482.395216 
L 285.411656 482.439278 
L 285.533802 482.390949 
L 285.71702 482.43905 
L 286.449893 482.415201 
L 286.510966 482.422052 
L 286.572039 482.302623 
L 286.633111 482.427675 
L 286.694184 482.279088 
L 286.81633 482.442523 
L 287.121693 482.425301 
L 288.404221 482.442166 
L 288.465294 482.495556 
L 288.526367 482.382482 
L 288.58744 482.476667 
L 288.709585 482.48181 
L 288.892803 482.466471 
L 291.70215 482.565032 
L 291.885368 482.546036 
L 292.37395 482.567554 
L 292.496096 482.654936 
L 292.679314 482.513001 
L 292.801459 482.634444 
L 292.862532 482.631682 
L 292.923605 482.48619 
L 293.106823 482.650256 
L 293.412187 482.56913 
L 293.473259 482.670689 
L 293.534332 482.600712 
L 293.717551 482.616546 
L 293.778623 482.540721 
L 293.900769 482.66457 
L 294.389351 482.605478 
L 294.450423 482.692318 
L 294.511496 482.56333 
L 294.572569 482.711031 
L 294.633642 482.603018 
L 294.81686 482.67826 
L 295.000078 482.635489 
L 295.183296 482.703563 
L 295.244369 482.583659 
L 295.305442 482.666761 
L 296.038315 482.706877 
L 296.099388 482.649631 
L 296.16046 482.733071 
L 296.404752 482.706216 
L 296.832261 482.692552 
L 297.015479 482.738019 
L 297.198697 482.660486 
L 297.381915 482.722381 
L 297.687279 482.666207 
L 297.870497 482.766355 
L 297.93157 482.693396 
L 297.992643 482.755637 
L 298.236934 482.737305 
L 298.298007 482.662222 
L 298.35908 482.753475 
L 298.542298 482.638172 
L 298.725516 482.744834 
L 299.214098 482.743498 
L 299.458389 482.767905 
L 299.641607 482.712824 
L 299.824826 482.75117 
L 300.008044 482.708139 
L 300.191262 482.736529 
L 302.450954 482.84255 
L 302.695245 482.870696 
L 303.550263 482.956476 
L 303.733481 482.97243 
L 304.160991 483.008594 
L 304.5885 483.046275 
L 304.954937 483.025228 
L 305.2603 483.057896 
L 305.748882 483.053893 
L 307.458919 483.111831 
L 307.581065 483.108735 
L 307.947501 483.126526 
L 308.375011 483.096026 
L 308.680374 483.119369 
L 309.47432 483.110844 
L 309.779684 483.143217 
L 310.756848 483.153164 
L 313.321903 483.184309 
L 313.566194 483.202482 
L 313.810485 483.202436 
L 314.421213 483.20715 
L 315.093013 483.214581 
L 329.078673 483.439207 
L 329.261891 483.403696 
L 329.506182 483.418243 
L 329.872619 483.44761 
L 330.483346 483.433396 
L 332.498747 483.479797 
L 332.804111 483.470065 
L 334.086638 483.479786 
L 334.514148 483.464758 
L 335.247021 483.473343 
L 336.407403 483.506193 
L 336.957058 483.482235 
L 337.201348 483.503164 
L 339.949622 483.546869 
L 340.316059 483.545199 
L 340.987859 483.524361 
L 341.171077 483.561417 
L 341.354296 483.552786 
L 342.514678 483.5586 
L 343.858278 483.579937 
L 344.224715 483.59639 
L 344.591151 483.588564 
L 345.568315 483.595801 
L 346.056897 483.616799 
L 346.301188 483.612854 
L 347.828007 483.599103 
L 348.133371 483.621714 
L 348.744098 483.622674 
L 348.988389 483.624938 
L 349.721262 483.64274 
L 350.393063 483.651405 
L 352.286318 483.648219 
L 352.713827 483.651324 
L 354.1185 483.661251 
L 354.362791 483.666291 
L 360.653285 483.676551 
L 361.080794 483.688239 
L 361.935812 483.685297 
L 362.180103 483.697846 
L 362.424394 483.703993 
L 362.790831 483.702048 
L 363.401558 483.698419 
L 363.706922 483.697639 
L 364.623013 483.712738 
L 365.050522 483.696988 
L 365.478032 483.708821 
L 365.844468 483.70055 
L 366.699487 483.719772 
L 367.249142 483.706712 
L 367.798796 483.723869 
L 368.470596 483.735333 
L 374.028217 483.757702 
L 374.700017 483.755855 
L 376.287909 483.759289 
L 377.020781 483.783123 
L 377.997946 483.774001 
L 378.5476 483.781629 
L 381.112656 483.797701 
L 382.395184 483.813686 
L 383.128057 483.814566 
L 383.738784 483.828799 
L 386.059549 483.839803 
L 387.891731 483.8615 
L 389.601768 483.878041 
L 395.64797 483.910556 
L 397.663371 483.932484 
L 399.556626 483.927508 
L 402.3049 483.951118 
L 403.098846 483.942607 
L 403.709573 483.959495 
L 411.710104 483.995228 
L 413.664432 484.0068 
L 416.107342 484.01888 
L 417.939524 484.01967 
L 425.878982 484.045693 
L 427.161509 484.046846 
L 429.299056 484.055175 
L 438.582114 484.07515 
L 442.612915 484.096189 
L 443.83437 484.103601 
L 450.430227 484.118595 
L 452.567773 484.125253 
L 468.019179 484.161104 
L 469.668143 484.153073 
L 470.584235 484.161196 
L 482.737712 484.176134 
L 486.890659 484.1868 
L 505.151411 484.225482 
L 509.731867 484.229251 
L 556.696812 484.293592 
L 560.483322 484.29808 
L 646.901264 484.364602 
L 650.932065 484.370082 
L 657.46685 484.370644 
L 660.825851 484.376701 
L 664.490216 484.37785 
L 671.025 484.383318 
L 671.025 484.383318 
" style="fill:none;stroke:#1f77b4;stroke-linecap:square;stroke-width:3;"/>
   </g>
   <g id="line2d_15">
    <path clip-path="url(#p1b6c86c297)" d="M 60.358573 86.445587 
L 66.404775 86.445587 
L 66.526921 149.440614 
L 72.51205 149.440614 
L 72.634196 186.266102 
L 78.619325 186.266102 
L 78.74147 229.976007 
L 84.7266 229.976007 
L 84.848746 247.542464 
L 90.833875 247.542465 
L 90.95602 286.621914 
L 96.94115 286.621914 
L 97.063296 309.653572 
L 103.048425 309.653572 
L 103.17057 320.907932 
L 109.1557 320.907932 
L 109.277845 359.667073 
L 115.262975 359.667073 
L 115.324048 357.176214 
L 115.446193 394.907785 
L 121.431323 394.907785 
L 121.553468 418.899427 
L 127.538598 418.899427 
L 127.599671 421.713353 
L 127.721816 436.471057 
L 133.706946 436.471057 
L 133.768018 420.461508 
L 133.890164 446.312203 
L 139.875293 446.312203 
L 139.936366 444.022868 
L 140.058512 452.819408 
L 146.043641 452.819408 
L 146.165786 456.68608 
L 152.150916 456.68608 
L 152.273061 462.083036 
L 158.319264 462.041619 
L 158.441409 464.975768 
L 164.426539 464.975768 
L 164.487612 464.449347 
L 164.609757 466.532514 
L 170.594887 466.532514 
L 170.717032 467.121838 
L 176.702161 467.121838 
L 176.824307 468.410781 
L 182.809437 468.410781 
L 182.870509 468.133214 
L 182.992655 470.439555 
L 189.038857 470.519366 
L 189.161002 471.700614 
L 195.146132 471.700614 
L 195.268278 472.059969 
L 201.253407 472.059969 
L 201.375553 473.290275 
L 207.360682 473.290275 
L 207.421755 473.524957 
L 207.5439 474.226087 
L 213.52903 474.226087 
L 213.651175 475.121933 
L 219.636305 475.121933 
L 219.75845 476.424785 
L 225.804653 476.408858 
L 225.926798 477.19147 
L 231.911927 477.19147 
L 231.973 476.923256 
L 232.095146 477.905218 
L 238.080275 477.905218 
L 238.202421 478.366438 
L 244.18755 478.366438 
L 244.309696 479.195943 
L 250.294825 479.195943 
L 250.355898 479.040722 
L 250.478044 479.723644 
L 256.524246 479.817768 
L 256.646391 480.103562 
L 262.631521 480.103562 
L 262.753666 480.566581 
L 268.738796 480.566581 
L 268.860941 480.793494 
L 274.846071 480.793495 
L 274.968216 481.150992 
L 280.953346 481.150992 
L 281.075491 481.405482 
L 287.060621 481.405482 
L 287.182766 481.708993 
L 293.167896 481.708993 
L 293.290041 481.971411 
L 299.275171 481.971411 
L 299.397316 482.284508 
L 305.382446 482.284508 
L 305.504591 482.548978 
L 311.489721 482.548978 
L 311.611866 482.819901 
L 317.596996 482.819901 
L 317.719141 483.111444 
L 323.704271 483.111444 
L 323.826416 483.338148 
L 329.811546 483.338148 
L 329.933691 483.866833 
L 335.918821 483.866833 
L 336.040966 484.050014 
L 348.133371 484.088338 
L 348.316589 484.203233 
L 372.562471 484.311589 
L 372.867835 484.338892 
L 409.206121 484.448265 
L 409.877921 484.459034 
L 470.278871 484.5561 
L 470.645307 484.575667 
L 525.244346 484.678758 
L 525.977219 484.688973 
L 610.807269 484.795415 
L 612.273015 484.80016 
L 671.086073 484.832011 
L 671.086073 484.832011 
" style="fill:none;stroke:#ff7f0e;stroke-linecap:square;stroke-width:3;"/>
   </g>
   <g id="line2d_16">
    <path clip-path="url(#p1b6c86c297)" d="M 60.358573 48.896763 
L 66.404775 48.896763 
L 66.526921 123.542871 
L 72.51205 123.542871 
L 72.634196 88.01353 
L 78.619325 88.01353 
L 78.74147 178.758331 
L 84.7266 178.758331 
L 84.848746 218.519277 
L 90.833875 218.519277 
L 90.95602 256.717659 
L 96.94115 256.717659 
L 97.063296 298.801629 
L 103.048425 298.801628 
L 103.17057 340.579156 
L 109.1557 340.579156 
L 109.277845 373.582892 
L 115.262975 373.582892 
L 115.38512 402.117225 
L 121.37025 402.117225 
L 121.492396 422.847184 
L 127.477525 422.847184 
L 127.599671 435.667025 
L 133.5848 435.667025 
L 133.706946 445.332215 
L 139.692075 445.332215 
L 139.814221 454.212515 
L 145.79935 454.212515 
L 145.921495 459.809965 
L 151.906625 459.809965 
L 152.028771 463.396648 
L 158.0139 463.396648 
L 158.136046 466.435753 
L 164.121175 466.435753 
L 164.24332 469.66012 
L 170.22845 469.66012 
L 170.350595 473.439251 
L 176.335725 473.439251 
L 176.457871 475.180659 
L 182.443 475.180659 
L 182.565145 476.506645 
L 188.550275 476.506645 
L 188.67242 477.551706 
L 194.65755 477.551706 
L 194.779696 478.496836 
L 200.764825 478.496836 
L 200.886971 479.368391 
L 206.8721 479.368391 
L 206.994245 480.034203 
L 212.979375 480.034203 
L 213.10152 480.345082 
L 219.08665 480.345082 
L 219.208796 480.521532 
L 225.193925 480.521532 
L 225.377143 480.633592 
L 237.408475 480.721133 
L 237.591693 480.817838 
L 243.51575 480.817838 
L 243.637896 480.958318 
L 249.623025 480.958318 
L 249.745171 481.184029 
L 255.7303 481.184029 
L 255.852445 481.424641 
L 261.837575 481.424641 
L 261.959721 481.843116 
L 267.94485 481.843116 
L 268.066996 482.447403 
L 274.052125 482.447403 
L 274.174271 480.741291 
L 280.1594 480.741291 
L 280.281545 482.730439 
L 286.266675 482.730439 
L 286.388821 483.021865 
L 292.37395 483.021865 
L 292.496096 483.165576 
L 298.481225 483.165576 
L 298.60337 483.487005 
L 304.5885 483.487005 
L 304.771718 483.602921 
L 316.80305 483.69092 
L 316.986268 483.82402 
L 322.910325 483.82402 
L 323.093543 483.954487 
L 329.0176 483.954487 
L 329.139746 484.133887 
L 341.23215 484.229867 
L 341.415368 484.285278 
L 396.197625 484.392945 
L 396.991571 484.40159 
L 500.0213 484.505014 
L 500.6931 484.515379 
L 622.1668 484.619802 
L 622.655382 484.635688 
L 671.086073 484.73302 
L 671.086073 484.73302 
" style="fill:none;stroke:#2ca02c;stroke-linecap:square;stroke-width:3;"/>
   </g>
   <g id="line2d_17">
    <path clip-path="url(#p1b6c86c297)" d="M 60.2975 498.690602 
L 671.025 498.690602 
" style="fill:none;stroke:#000000;stroke-dasharray:7.4,3.2;stroke-dashoffset:0;stroke-width:2;"/>
   </g>
   <g id="patch_3">
    <path d="M 60.2975 507.745 
L 60.2975 14.405953 
" style="fill:none;stroke:#000000;stroke-linecap:square;stroke-linejoin:miter;stroke-width:0.8;"/>
   </g>
   <g id="patch_4">
    <path d="M 671.025 507.745 
L 671.025 14.405953 
" style="fill:none;stroke:#000000;stroke-linecap:square;stroke-linejoin:miter;stroke-width:0.8;"/>
   </g>
   <g id="patch_5">
    <path d="M 60.2975 507.745 
L 671.025 507.745 
" style="fill:none;stroke:#000000;stroke-linecap:square;stroke-linejoin:miter;stroke-width:0.8;"/>
   </g>
   <g id="patch_6">
    <path d="M 60.2975 14.405953 
L 671.025 14.405953 
" style="fill:none;stroke:#000000;stroke-linecap:square;stroke-linejoin:miter;stroke-width:0.8;"/>
   </g>
   <g id="legend_1">
    <g id="patch_7">
     <path d="M 468.32625 174.515953 
L 654.225 174.515953 
Q 659.025 174.515953 659.025 169.715953 
L 659.025 31.205953 
Q 659.025 26.405953 654.225 26.405953 
L 468.32625 26.405953 
Q 463.52625 26.405953 463.52625 31.205953 
L 463.52625 169.715953 
Q 463.52625 174.515953 468.32625 174.515953 
z
" style="fill:#ffffff;opacity:0.8;stroke:#cccccc;stroke-linejoin:miter;"/>
    </g>
    <g id="line2d_18">
     <path d="M 473.12625 45.842203 
L 521.12625 45.842203 
" style="fill:none;stroke:#1f77b4;stroke-linecap:square;stroke-width:3;"/>
    </g>
    <g id="line2d_19"/>
    <g id="text_16">
     <!-- COBYLA -->
     <g transform="translate(540.32625 54.242203)scale(0.24 -0.24)">
      <defs>
       <path d="M 4122 4306 
L 4122 3641 
Q 3803 3938 3442 4084 
Q 3081 4231 2675 4231 
Q 1875 4231 1450 3742 
Q 1025 3253 1025 2328 
Q 1025 1406 1450 917 
Q 1875 428 2675 428 
Q 3081 428 3442 575 
Q 3803 722 4122 1019 
L 4122 359 
Q 3791 134 3420 21 
Q 3050 -91 2638 -91 
Q 1578 -91 968 557 
Q 359 1206 359 2328 
Q 359 3453 968 4101 
Q 1578 4750 2638 4750 
Q 3056 4750 3426 4639 
Q 3797 4528 4122 4306 
z
" id="DejaVuSans-43" transform="scale(0.015625)"/>
       <path d="M 2522 4238 
Q 1834 4238 1429 3725 
Q 1025 3213 1025 2328 
Q 1025 1447 1429 934 
Q 1834 422 2522 422 
Q 3209 422 3611 934 
Q 4013 1447 4013 2328 
Q 4013 3213 3611 3725 
Q 3209 4238 2522 4238 
z
M 2522 4750 
Q 3503 4750 4090 4092 
Q 4678 3434 4678 2328 
Q 4678 1225 4090 567 
Q 3503 -91 2522 -91 
Q 1538 -91 948 565 
Q 359 1222 359 2328 
Q 359 3434 948 4092 
Q 1538 4750 2522 4750 
z
" id="DejaVuSans-4f" transform="scale(0.015625)"/>
       <path d="M 1259 2228 
L 1259 519 
L 2272 519 
Q 2781 519 3026 730 
Q 3272 941 3272 1375 
Q 3272 1813 3026 2020 
Q 2781 2228 2272 2228 
L 1259 2228 
z
M 1259 4147 
L 1259 2741 
L 2194 2741 
Q 2656 2741 2882 2914 
Q 3109 3088 3109 3444 
Q 3109 3797 2882 3972 
Q 2656 4147 2194 4147 
L 1259 4147 
z
M 628 4666 
L 2241 4666 
Q 2963 4666 3353 4366 
Q 3744 4066 3744 3513 
Q 3744 3084 3544 2831 
Q 3344 2578 2956 2516 
Q 3422 2416 3680 2098 
Q 3938 1781 3938 1306 
Q 3938 681 3513 340 
Q 3088 0 2303 0 
L 628 0 
L 628 4666 
z
" id="DejaVuSans-42" transform="scale(0.015625)"/>
       <path d="M -13 4666 
L 666 4666 
L 1959 2747 
L 3244 4666 
L 3922 4666 
L 2272 2222 
L 2272 0 
L 1638 0 
L 1638 2222 
L -13 4666 
z
" id="DejaVuSans-59" transform="scale(0.015625)"/>
       <path d="M 628 4666 
L 1259 4666 
L 1259 531 
L 3531 531 
L 3531 0 
L 628 0 
L 628 4666 
z
" id="DejaVuSans-4c" transform="scale(0.015625)"/>
       <path d="M 2188 4044 
L 1331 1722 
L 3047 1722 
L 2188 4044 
z
M 1831 4666 
L 2547 4666 
L 4325 0 
L 3669 0 
L 3244 1197 
L 1141 1197 
L 716 0 
L 50 0 
L 1831 4666 
z
" id="DejaVuSans-41" transform="scale(0.015625)"/>
      </defs>
      <use xlink:href="#DejaVuSans-43"/>
      <use x="69.824219" xlink:href="#DejaVuSans-4f"/>
      <use x="148.535156" xlink:href="#DejaVuSans-42"/>
      <use x="211.638672" xlink:href="#DejaVuSans-59"/>
      <use x="272.722656" xlink:href="#DejaVuSans-4c"/>
      <use x="330.685547" xlink:href="#DejaVuSans-41"/>
     </g>
    </g>
    <g id="line2d_20">
     <path d="M 473.12625 81.069703 
L 521.12625 81.069703 
" style="fill:none;stroke:#ff7f0e;stroke-linecap:square;stroke-width:3;"/>
    </g>
    <g id="line2d_21"/>
    <g id="text_17">
     <!-- SLSQP -->
     <g transform="translate(540.32625 89.469703)scale(0.24 -0.24)">
      <defs>
       <path d="M 3425 4513 
L 3425 3897 
Q 3066 4069 2747 4153 
Q 2428 4238 2131 4238 
Q 1616 4238 1336 4038 
Q 1056 3838 1056 3469 
Q 1056 3159 1242 3001 
Q 1428 2844 1947 2747 
L 2328 2669 
Q 3034 2534 3370 2195 
Q 3706 1856 3706 1288 
Q 3706 609 3251 259 
Q 2797 -91 1919 -91 
Q 1588 -91 1214 -16 
Q 841 59 441 206 
L 441 856 
Q 825 641 1194 531 
Q 1563 422 1919 422 
Q 2459 422 2753 634 
Q 3047 847 3047 1241 
Q 3047 1584 2836 1778 
Q 2625 1972 2144 2069 
L 1759 2144 
Q 1053 2284 737 2584 
Q 422 2884 422 3419 
Q 422 4038 858 4394 
Q 1294 4750 2059 4750 
Q 2388 4750 2728 4690 
Q 3069 4631 3425 4513 
z
" id="DejaVuSans-53" transform="scale(0.015625)"/>
       <path d="M 1259 4147 
L 1259 2394 
L 2053 2394 
Q 2494 2394 2734 2622 
Q 2975 2850 2975 3272 
Q 2975 3691 2734 3919 
Q 2494 4147 2053 4147 
L 1259 4147 
z
M 628 4666 
L 2053 4666 
Q 2838 4666 3239 4311 
Q 3641 3956 3641 3272 
Q 3641 2581 3239 2228 
Q 2838 1875 2053 1875 
L 1259 1875 
L 1259 0 
L 628 0 
L 628 4666 
z
" id="DejaVuSans-50" transform="scale(0.015625)"/>
      </defs>
      <use xlink:href="#DejaVuSans-53"/>
      <use x="63.476562" xlink:href="#DejaVuSans-4c"/>
      <use x="119.189453" xlink:href="#DejaVuSans-53"/>
      <use x="182.666016" xlink:href="#DejaVuSans-51"/>
      <use x="261.376953" xlink:href="#DejaVuSans-50"/>
     </g>
    </g>
    <g id="line2d_22">
     <path d="M 473.12625 116.297203 
L 521.12625 116.297203 
" style="fill:none;stroke:#2ca02c;stroke-linecap:square;stroke-width:3;"/>
    </g>
    <g id="line2d_23"/>
    <g id="text_18">
     <!-- L-BFGS-B -->
     <g transform="translate(540.32625 124.697203)scale(0.24 -0.24)">
      <defs>
       <path d="M 313 2009 
L 1997 2009 
L 1997 1497 
L 313 1497 
L 313 2009 
z
" id="DejaVuSans-2d" transform="scale(0.015625)"/>
       <path d="M 628 4666 
L 3309 4666 
L 3309 4134 
L 1259 4134 
L 1259 2759 
L 3109 2759 
L 3109 2228 
L 1259 2228 
L 1259 0 
L 628 0 
L 628 4666 
z
" id="DejaVuSans-46" transform="scale(0.015625)"/>
       <path d="M 3809 666 
L 3809 1919 
L 2778 1919 
L 2778 2438 
L 4434 2438 
L 4434 434 
Q 4069 175 3628 42 
Q 3188 -91 2688 -91 
Q 1594 -91 976 548 
Q 359 1188 359 2328 
Q 359 3472 976 4111 
Q 1594 4750 2688 4750 
Q 3144 4750 3555 4637 
Q 3966 4525 4313 4306 
L 4313 3634 
Q 3963 3931 3569 4081 
Q 3175 4231 2741 4231 
Q 1884 4231 1454 3753 
Q 1025 3275 1025 2328 
Q 1025 1384 1454 906 
Q 1884 428 2741 428 
Q 3075 428 3337 486 
Q 3600 544 3809 666 
z
" id="DejaVuSans-47" transform="scale(0.015625)"/>
      </defs>
      <use xlink:href="#DejaVuSans-4c"/>
      <use x="53.962891" xlink:href="#DejaVuSans-2d"/>
      <use x="86.421875" xlink:href="#DejaVuSans-42"/>
      <use x="155.025391" xlink:href="#DejaVuSans-46"/>
      <use x="212.544922" xlink:href="#DejaVuSans-47"/>
      <use x="290.035156" xlink:href="#DejaVuSans-53"/>
      <use x="353.511719" xlink:href="#DejaVuSans-2d"/>
      <use x="385.970703" xlink:href="#DejaVuSans-42"/>
     </g>
    </g>
    <g id="line2d_24">
     <path d="M 473.12625 151.524703 
L 521.12625 151.524703 
" style="fill:none;stroke:#000000;stroke-dasharray:7.4,3.2;stroke-dashoffset:0;stroke-width:2;"/>
    </g>
    <g id="line2d_25"/>
    <g id="text_19">
     <!-- HT -->
     <g transform="translate(540.32625 159.924703)scale(0.24 -0.24)">
      <defs>
       <path d="M 628 4666 
L 1259 4666 
L 1259 2753 
L 3553 2753 
L 3553 4666 
L 4184 4666 
L 4184 0 
L 3553 0 
L 3553 2222 
L 1259 2222 
L 1259 0 
L 628 0 
L 628 4666 
z
" id="DejaVuSans-48" transform="scale(0.015625)"/>
       <path d="M -19 4666 
L 3928 4666 
L 3928 4134 
L 2272 4134 
L 2272 0 
L 1638 0 
L 1638 4134 
L -19 4134 
L -19 4666 
z
" id="DejaVuSans-54" transform="scale(0.015625)"/>
      </defs>
      <use xlink:href="#DejaVuSans-48"/>
      <use x="75.195312" xlink:href="#DejaVuSans-54"/>
     </g>
    </g>
   </g>
  </g>
 </g>
 <defs>
  <clipPath id="p1b6c86c297">
   <rect height="493.339047" width="610.7275" x="60.2975" y="14.405953"/>
  </clipPath>
 </defs>
</svg>
