<?xml version="1.0" encoding="utf-8" standalone="no"?>
<!DOCTYPE svg PUBLIC "-//W3C//DTD SVG 1.1//EN"
  "http://www.w3.org/Graphics/SVG/1.1/DTD/svg11.dtd">
<svg height="576pt" version="1.1" viewBox="0 0 720 576" width="720pt" xmlns="http://www.w3.org/2000/svg" xmlns:xlink="http://www.w3.org/1999/xlink">
 <metadata>
  <rdf:RDF xmlns:cc="http://creativecommons.org/ns#" xmlns:dc="http://purl.org/dc/elements/1.1/" xmlns:rdf="http://www.w3.org/1999/02/22-rdf-syntax-ns#">
   <cc:Work>
    <dc:type rdf:resource="http://purl.org/dc/dcmitype/StillImage"/>
    <dc:date>2021-07-27T16:55:48.087045</dc:date>
    <dc:format>image/svg+xml</dc:format>
    <dc:creator>
     <cc:Agent>
      <dc:title>Matplotlib v3.4.2, https://matplotlib.org/</dc:title>
     </cc:Agent>
    </dc:creator>
   </cc:Work>
  </rdf:RDF>
 </metadata>
 <defs>
  <style type="text/css">*{stroke-linecap:butt;stroke-linejoin:round;}</style>
 </defs>
 <g id="figure_1">
  <g id="patch_1">
   <path d="M 0 576 
L 720 576 
L 720 0 
L 0 0 
z
" style="fill:#ffffff;"/>
  </g>
  <g id="axes_1">
   <g id="patch_2">
    <path d="M 60.2975 507.745 
L 678.66 507.745 
L 678.66 19.539245 
L 60.2975 19.539245 
z
" style="fill:#ffffff;"/>
   </g>
   <g id="matplotlib.axis_1">
    <g id="xtick_1">
     <g id="line2d_1">
      <defs>
       <path d="M 0 0 
L 0 3.5 
" id="meea7a5f9f4" style="stroke:#000000;stroke-width:0.8;"/>
      </defs>
      <g>
       <use style="stroke:#000000;stroke-width:0.8;" x="60.2975" xlink:href="#meea7a5f9f4" y="507.745"/>
      </g>
     </g>
     <g id="text_1">
      <!-- 0 -->
      <g transform="translate(52.6625 532.98125)scale(0.24 -0.24)">
       <defs>
        <path d="M 2034 4250 
Q 1547 4250 1301 3770 
Q 1056 3291 1056 2328 
Q 1056 1369 1301 889 
Q 1547 409 2034 409 
Q 2525 409 2770 889 
Q 3016 1369 3016 2328 
Q 3016 3291 2770 3770 
Q 2525 4250 2034 4250 
z
M 2034 4750 
Q 2819 4750 3233 4129 
Q 3647 3509 3647 2328 
Q 3647 1150 3233 529 
Q 2819 -91 2034 -91 
Q 1250 -91 836 529 
Q 422 1150 422 2328 
Q 422 3509 836 4129 
Q 1250 4750 2034 4750 
z
" id="DejaVuSans-30" transform="scale(0.015625)"/>
       </defs>
       <use xlink:href="#DejaVuSans-30"/>
      </g>
     </g>
    </g>
    <g id="xtick_2">
     <g id="line2d_2">
      <g>
       <use style="stroke:#000000;stroke-width:0.8;" x="183.97" xlink:href="#meea7a5f9f4" y="507.745"/>
      </g>
     </g>
     <g id="text_2">
      <!-- 200 -->
      <g transform="translate(161.065 532.98125)scale(0.24 -0.24)">
       <defs>
        <path d="M 1228 531 
L 3431 531 
L 3431 0 
L 469 0 
L 469 531 
Q 828 903 1448 1529 
Q 2069 2156 2228 2338 
Q 2531 2678 2651 2914 
Q 2772 3150 2772 3378 
Q 2772 3750 2511 3984 
Q 2250 4219 1831 4219 
Q 1534 4219 1204 4116 
Q 875 4013 500 3803 
L 500 4441 
Q 881 4594 1212 4672 
Q 1544 4750 1819 4750 
Q 2544 4750 2975 4387 
Q 3406 4025 3406 3419 
Q 3406 3131 3298 2873 
Q 3191 2616 2906 2266 
Q 2828 2175 2409 1742 
Q 1991 1309 1228 531 
z
" id="DejaVuSans-32" transform="scale(0.015625)"/>
       </defs>
       <use xlink:href="#DejaVuSans-32"/>
       <use x="63.623047" xlink:href="#DejaVuSans-30"/>
       <use x="127.246094" xlink:href="#DejaVuSans-30"/>
      </g>
     </g>
    </g>
    <g id="xtick_3">
     <g id="line2d_3">
      <g>
       <use style="stroke:#000000;stroke-width:0.8;" x="307.6425" xlink:href="#meea7a5f9f4" y="507.745"/>
      </g>
     </g>
     <g id="text_3">
      <!-- 400 -->
      <g transform="translate(284.7375 532.98125)scale(0.24 -0.24)">
       <defs>
        <path d="M 2419 4116 
L 825 1625 
L 2419 1625 
L 2419 4116 
z
M 2253 4666 
L 3047 4666 
L 3047 1625 
L 3713 1625 
L 3713 1100 
L 3047 1100 
L 3047 0 
L 2419 0 
L 2419 1100 
L 313 1100 
L 313 1709 
L 2253 4666 
z
" id="DejaVuSans-34" transform="scale(0.015625)"/>
       </defs>
       <use xlink:href="#DejaVuSans-34"/>
       <use x="63.623047" xlink:href="#DejaVuSans-30"/>
       <use x="127.246094" xlink:href="#DejaVuSans-30"/>
      </g>
     </g>
    </g>
    <g id="xtick_4">
     <g id="line2d_4">
      <g>
       <use style="stroke:#000000;stroke-width:0.8;" x="431.315" xlink:href="#meea7a5f9f4" y="507.745"/>
      </g>
     </g>
     <g id="text_4">
      <!-- 600 -->
      <g transform="translate(408.41 532.98125)scale(0.24 -0.24)">
       <defs>
        <path d="M 2113 2584 
Q 1688 2584 1439 2293 
Q 1191 2003 1191 1497 
Q 1191 994 1439 701 
Q 1688 409 2113 409 
Q 2538 409 2786 701 
Q 3034 994 3034 1497 
Q 3034 2003 2786 2293 
Q 2538 2584 2113 2584 
z
M 3366 4563 
L 3366 3988 
Q 3128 4100 2886 4159 
Q 2644 4219 2406 4219 
Q 1781 4219 1451 3797 
Q 1122 3375 1075 2522 
Q 1259 2794 1537 2939 
Q 1816 3084 2150 3084 
Q 2853 3084 3261 2657 
Q 3669 2231 3669 1497 
Q 3669 778 3244 343 
Q 2819 -91 2113 -91 
Q 1303 -91 875 529 
Q 447 1150 447 2328 
Q 447 3434 972 4092 
Q 1497 4750 2381 4750 
Q 2619 4750 2861 4703 
Q 3103 4656 3366 4563 
z
" id="DejaVuSans-36" transform="scale(0.015625)"/>
       </defs>
       <use xlink:href="#DejaVuSans-36"/>
       <use x="63.623047" xlink:href="#DejaVuSans-30"/>
       <use x="127.246094" xlink:href="#DejaVuSans-30"/>
      </g>
     </g>
    </g>
    <g id="xtick_5">
     <g id="line2d_5">
      <g>
       <use style="stroke:#000000;stroke-width:0.8;" x="554.9875" xlink:href="#meea7a5f9f4" y="507.745"/>
      </g>
     </g>
     <g id="text_5">
      <!-- 800 -->
      <g transform="translate(532.0825 532.98125)scale(0.24 -0.24)">
       <defs>
        <path d="M 2034 2216 
Q 1584 2216 1326 1975 
Q 1069 1734 1069 1313 
Q 1069 891 1326 650 
Q 1584 409 2034 409 
Q 2484 409 2743 651 
Q 3003 894 3003 1313 
Q 3003 1734 2745 1975 
Q 2488 2216 2034 2216 
z
M 1403 2484 
Q 997 2584 770 2862 
Q 544 3141 544 3541 
Q 544 4100 942 4425 
Q 1341 4750 2034 4750 
Q 2731 4750 3128 4425 
Q 3525 4100 3525 3541 
Q 3525 3141 3298 2862 
Q 3072 2584 2669 2484 
Q 3125 2378 3379 2068 
Q 3634 1759 3634 1313 
Q 3634 634 3220 271 
Q 2806 -91 2034 -91 
Q 1263 -91 848 271 
Q 434 634 434 1313 
Q 434 1759 690 2068 
Q 947 2378 1403 2484 
z
M 1172 3481 
Q 1172 3119 1398 2916 
Q 1625 2713 2034 2713 
Q 2441 2713 2670 2916 
Q 2900 3119 2900 3481 
Q 2900 3844 2670 4047 
Q 2441 4250 2034 4250 
Q 1625 4250 1398 4047 
Q 1172 3844 1172 3481 
z
" id="DejaVuSans-38" transform="scale(0.015625)"/>
       </defs>
       <use xlink:href="#DejaVuSans-38"/>
       <use x="63.623047" xlink:href="#DejaVuSans-30"/>
       <use x="127.246094" xlink:href="#DejaVuSans-30"/>
      </g>
     </g>
    </g>
    <g id="xtick_6">
     <g id="line2d_6">
      <g>
       <use style="stroke:#000000;stroke-width:0.8;" x="678.66" xlink:href="#meea7a5f9f4" y="507.745"/>
      </g>
     </g>
     <g id="text_6">
      <!-- 1000 -->
      <g transform="translate(648.12 532.98125)scale(0.24 -0.24)">
       <defs>
        <path d="M 794 531 
L 1825 531 
L 1825 4091 
L 703 3866 
L 703 4441 
L 1819 4666 
L 2450 4666 
L 2450 531 
L 3481 531 
L 3481 0 
L 794 0 
L 794 531 
z
" id="DejaVuSans-31" transform="scale(0.015625)"/>
       </defs>
       <use xlink:href="#DejaVuSans-31"/>
       <use x="63.623047" xlink:href="#DejaVuSans-30"/>
       <use x="127.246094" xlink:href="#DejaVuSans-30"/>
       <use x="190.869141" xlink:href="#DejaVuSans-30"/>
      </g>
     </g>
    </g>
    <g id="text_7">
     <!-- iterations -->
     <g transform="translate(312.533125 560.20875)scale(0.24 -0.24)">
      <defs>
       <path d="M 603 3500 
L 1178 3500 
L 1178 0 
L 603 0 
L 603 3500 
z
M 603 4863 
L 1178 4863 
L 1178 4134 
L 603 4134 
L 603 4863 
z
" id="DejaVuSans-69" transform="scale(0.015625)"/>
       <path d="M 1172 4494 
L 1172 3500 
L 2356 3500 
L 2356 3053 
L 1172 3053 
L 1172 1153 
Q 1172 725 1289 603 
Q 1406 481 1766 481 
L 2356 481 
L 2356 0 
L 1766 0 
Q 1100 0 847 248 
Q 594 497 594 1153 
L 594 3053 
L 172 3053 
L 172 3500 
L 594 3500 
L 594 4494 
L 1172 4494 
z
" id="DejaVuSans-74" transform="scale(0.015625)"/>
       <path d="M 3597 1894 
L 3597 1613 
L 953 1613 
Q 991 1019 1311 708 
Q 1631 397 2203 397 
Q 2534 397 2845 478 
Q 3156 559 3463 722 
L 3463 178 
Q 3153 47 2828 -22 
Q 2503 -91 2169 -91 
Q 1331 -91 842 396 
Q 353 884 353 1716 
Q 353 2575 817 3079 
Q 1281 3584 2069 3584 
Q 2775 3584 3186 3129 
Q 3597 2675 3597 1894 
z
M 3022 2063 
Q 3016 2534 2758 2815 
Q 2500 3097 2075 3097 
Q 1594 3097 1305 2825 
Q 1016 2553 972 2059 
L 3022 2063 
z
" id="DejaVuSans-65" transform="scale(0.015625)"/>
       <path d="M 2631 2963 
Q 2534 3019 2420 3045 
Q 2306 3072 2169 3072 
Q 1681 3072 1420 2755 
Q 1159 2438 1159 1844 
L 1159 0 
L 581 0 
L 581 3500 
L 1159 3500 
L 1159 2956 
Q 1341 3275 1631 3429 
Q 1922 3584 2338 3584 
Q 2397 3584 2469 3576 
Q 2541 3569 2628 3553 
L 2631 2963 
z
" id="DejaVuSans-72" transform="scale(0.015625)"/>
       <path d="M 2194 1759 
Q 1497 1759 1228 1600 
Q 959 1441 959 1056 
Q 959 750 1161 570 
Q 1363 391 1709 391 
Q 2188 391 2477 730 
Q 2766 1069 2766 1631 
L 2766 1759 
L 2194 1759 
z
M 3341 1997 
L 3341 0 
L 2766 0 
L 2766 531 
Q 2569 213 2275 61 
Q 1981 -91 1556 -91 
Q 1019 -91 701 211 
Q 384 513 384 1019 
Q 384 1609 779 1909 
Q 1175 2209 1959 2209 
L 2766 2209 
L 2766 2266 
Q 2766 2663 2505 2880 
Q 2244 3097 1772 3097 
Q 1472 3097 1187 3025 
Q 903 2953 641 2809 
L 641 3341 
Q 956 3463 1253 3523 
Q 1550 3584 1831 3584 
Q 2591 3584 2966 3190 
Q 3341 2797 3341 1997 
z
" id="DejaVuSans-61" transform="scale(0.015625)"/>
       <path d="M 1959 3097 
Q 1497 3097 1228 2736 
Q 959 2375 959 1747 
Q 959 1119 1226 758 
Q 1494 397 1959 397 
Q 2419 397 2687 759 
Q 2956 1122 2956 1747 
Q 2956 2369 2687 2733 
Q 2419 3097 1959 3097 
z
M 1959 3584 
Q 2709 3584 3137 3096 
Q 3566 2609 3566 1747 
Q 3566 888 3137 398 
Q 2709 -91 1959 -91 
Q 1206 -91 779 398 
Q 353 888 353 1747 
Q 353 2609 779 3096 
Q 1206 3584 1959 3584 
z
" id="DejaVuSans-6f" transform="scale(0.015625)"/>
       <path d="M 3513 2113 
L 3513 0 
L 2938 0 
L 2938 2094 
Q 2938 2591 2744 2837 
Q 2550 3084 2163 3084 
Q 1697 3084 1428 2787 
Q 1159 2491 1159 1978 
L 1159 0 
L 581 0 
L 581 3500 
L 1159 3500 
L 1159 2956 
Q 1366 3272 1645 3428 
Q 1925 3584 2291 3584 
Q 2894 3584 3203 3211 
Q 3513 2838 3513 2113 
z
" id="DejaVuSans-6e" transform="scale(0.015625)"/>
       <path d="M 2834 3397 
L 2834 2853 
Q 2591 2978 2328 3040 
Q 2066 3103 1784 3103 
Q 1356 3103 1142 2972 
Q 928 2841 928 2578 
Q 928 2378 1081 2264 
Q 1234 2150 1697 2047 
L 1894 2003 
Q 2506 1872 2764 1633 
Q 3022 1394 3022 966 
Q 3022 478 2636 193 
Q 2250 -91 1575 -91 
Q 1294 -91 989 -36 
Q 684 19 347 128 
L 347 722 
Q 666 556 975 473 
Q 1284 391 1588 391 
Q 1994 391 2212 530 
Q 2431 669 2431 922 
Q 2431 1156 2273 1281 
Q 2116 1406 1581 1522 
L 1381 1569 
Q 847 1681 609 1914 
Q 372 2147 372 2553 
Q 372 3047 722 3315 
Q 1072 3584 1716 3584 
Q 2034 3584 2315 3537 
Q 2597 3491 2834 3397 
z
" id="DejaVuSans-73" transform="scale(0.015625)"/>
      </defs>
      <use xlink:href="#DejaVuSans-69"/>
      <use x="27.783203" xlink:href="#DejaVuSans-74"/>
      <use x="66.992188" xlink:href="#DejaVuSans-65"/>
      <use x="128.515625" xlink:href="#DejaVuSans-72"/>
      <use x="169.628906" xlink:href="#DejaVuSans-61"/>
      <use x="230.908203" xlink:href="#DejaVuSans-74"/>
      <use x="270.117188" xlink:href="#DejaVuSans-69"/>
      <use x="297.900391" xlink:href="#DejaVuSans-6f"/>
      <use x="359.082031" xlink:href="#DejaVuSans-6e"/>
      <use x="422.460938" xlink:href="#DejaVuSans-73"/>
     </g>
    </g>
   </g>
   <g id="matplotlib.axis_2">
    <g id="ytick_1">
     <g id="line2d_7">
      <defs>
       <path d="M 0 0 
L -3.5 0 
" id="m6acc7bdc7a" style="stroke:#000000;stroke-width:0.8;"/>
      </defs>
      <g>
       <use style="stroke:#000000;stroke-width:0.8;" x="60.2975" xlink:href="#m6acc7bdc7a" y="486.869072"/>
      </g>
     </g>
     <g id="text_8">
      <!-- 0 -->
      <g transform="translate(38.0275 495.987197)scale(0.24 -0.24)">
       <use xlink:href="#DejaVuSans-30"/>
      </g>
     </g>
    </g>
    <g id="ytick_2">
     <g id="line2d_8">
      <g>
       <use style="stroke:#000000;stroke-width:0.8;" x="60.2975" xlink:href="#m6acc7bdc7a" y="409.044083"/>
      </g>
     </g>
     <g id="text_9">
      <!-- 1 -->
      <g transform="translate(38.0275 418.162208)scale(0.24 -0.24)">
       <use xlink:href="#DejaVuSans-31"/>
      </g>
     </g>
    </g>
    <g id="ytick_3">
     <g id="line2d_9">
      <g>
       <use style="stroke:#000000;stroke-width:0.8;" x="60.2975" xlink:href="#m6acc7bdc7a" y="331.219095"/>
      </g>
     </g>
     <g id="text_10">
      <!-- 2 -->
      <g transform="translate(38.0275 340.33722)scale(0.24 -0.24)">
       <use xlink:href="#DejaVuSans-32"/>
      </g>
     </g>
    </g>
    <g id="ytick_4">
     <g id="line2d_10">
      <g>
       <use style="stroke:#000000;stroke-width:0.8;" x="60.2975" xlink:href="#m6acc7bdc7a" y="253.394107"/>
      </g>
     </g>
     <g id="text_11">
      <!-- 3 -->
      <g transform="translate(38.0275 262.512232)scale(0.24 -0.24)">
       <defs>
        <path d="M 2597 2516 
Q 3050 2419 3304 2112 
Q 3559 1806 3559 1356 
Q 3559 666 3084 287 
Q 2609 -91 1734 -91 
Q 1441 -91 1130 -33 
Q 819 25 488 141 
L 488 750 
Q 750 597 1062 519 
Q 1375 441 1716 441 
Q 2309 441 2620 675 
Q 2931 909 2931 1356 
Q 2931 1769 2642 2001 
Q 2353 2234 1838 2234 
L 1294 2234 
L 1294 2753 
L 1863 2753 
Q 2328 2753 2575 2939 
Q 2822 3125 2822 3475 
Q 2822 3834 2567 4026 
Q 2313 4219 1838 4219 
Q 1578 4219 1281 4162 
Q 984 4106 628 3988 
L 628 4550 
Q 988 4650 1302 4700 
Q 1616 4750 1894 4750 
Q 2613 4750 3031 4423 
Q 3450 4097 3450 3541 
Q 3450 3153 3228 2886 
Q 3006 2619 2597 2516 
z
" id="DejaVuSans-33" transform="scale(0.015625)"/>
       </defs>
       <use xlink:href="#DejaVuSans-33"/>
      </g>
     </g>
    </g>
    <g id="ytick_5">
     <g id="line2d_11">
      <g>
       <use style="stroke:#000000;stroke-width:0.8;" x="60.2975" xlink:href="#m6acc7bdc7a" y="175.569118"/>
      </g>
     </g>
     <g id="text_12">
      <!-- 4 -->
      <g transform="translate(38.0275 184.687243)scale(0.24 -0.24)">
       <use xlink:href="#DejaVuSans-34"/>
      </g>
     </g>
    </g>
    <g id="ytick_6">
     <g id="line2d_12">
      <g>
       <use style="stroke:#000000;stroke-width:0.8;" x="60.2975" xlink:href="#m6acc7bdc7a" y="97.74413"/>
      </g>
     </g>
     <g id="text_13">
      <!-- 5 -->
      <g transform="translate(38.0275 106.862255)scale(0.24 -0.24)">
       <defs>
        <path d="M 691 4666 
L 3169 4666 
L 3169 4134 
L 1269 4134 
L 1269 2991 
Q 1406 3038 1543 3061 
Q 1681 3084 1819 3084 
Q 2600 3084 3056 2656 
Q 3513 2228 3513 1497 
Q 3513 744 3044 326 
Q 2575 -91 1722 -91 
Q 1428 -91 1123 -41 
Q 819 9 494 109 
L 494 744 
Q 775 591 1075 516 
Q 1375 441 1709 441 
Q 2250 441 2565 725 
Q 2881 1009 2881 1497 
Q 2881 1984 2565 2268 
Q 2250 2553 1709 2553 
Q 1456 2553 1204 2497 
Q 953 2441 691 2322 
L 691 4666 
z
" id="DejaVuSans-35" transform="scale(0.015625)"/>
       </defs>
       <use xlink:href="#DejaVuSans-35"/>
      </g>
     </g>
    </g>
    <g id="ytick_7">
     <g id="line2d_13">
      <g>
       <use style="stroke:#000000;stroke-width:0.8;" x="60.2975" xlink:href="#m6acc7bdc7a" y="19.919142"/>
      </g>
     </g>
     <g id="text_14">
      <!-- 6 -->
      <g transform="translate(38.0275 29.037267)scale(0.24 -0.24)">
       <use xlink:href="#DejaVuSans-36"/>
      </g>
     </g>
    </g>
    <g id="text_15">
     <!-- VQE energy -->
     <g transform="translate(29.03625 334.509622)rotate(-90)scale(0.24 -0.24)">
      <defs>
       <path d="M 1831 0 
L 50 4666 
L 709 4666 
L 2188 738 
L 3669 4666 
L 4325 4666 
L 2547 0 
L 1831 0 
z
" id="DejaVuSans-56" transform="scale(0.015625)"/>
       <path d="M 2522 4238 
Q 1834 4238 1429 3725 
Q 1025 3213 1025 2328 
Q 1025 1447 1429 934 
Q 1834 422 2522 422 
Q 3209 422 3611 934 
Q 4013 1447 4013 2328 
Q 4013 3213 3611 3725 
Q 3209 4238 2522 4238 
z
M 3406 84 
L 4238 -825 
L 3475 -825 
L 2784 -78 
Q 2681 -84 2626 -87 
Q 2572 -91 2522 -91 
Q 1538 -91 948 567 
Q 359 1225 359 2328 
Q 359 3434 948 4092 
Q 1538 4750 2522 4750 
Q 3503 4750 4090 4092 
Q 4678 3434 4678 2328 
Q 4678 1516 4351 937 
Q 4025 359 3406 84 
z
" id="DejaVuSans-51" transform="scale(0.015625)"/>
       <path d="M 628 4666 
L 3578 4666 
L 3578 4134 
L 1259 4134 
L 1259 2753 
L 3481 2753 
L 3481 2222 
L 1259 2222 
L 1259 531 
L 3634 531 
L 3634 0 
L 628 0 
L 628 4666 
z
" id="DejaVuSans-45" transform="scale(0.015625)"/>
       <path id="DejaVuSans-20" transform="scale(0.015625)"/>
       <path d="M 2906 1791 
Q 2906 2416 2648 2759 
Q 2391 3103 1925 3103 
Q 1463 3103 1205 2759 
Q 947 2416 947 1791 
Q 947 1169 1205 825 
Q 1463 481 1925 481 
Q 2391 481 2648 825 
Q 2906 1169 2906 1791 
z
M 3481 434 
Q 3481 -459 3084 -895 
Q 2688 -1331 1869 -1331 
Q 1566 -1331 1297 -1286 
Q 1028 -1241 775 -1147 
L 775 -588 
Q 1028 -725 1275 -790 
Q 1522 -856 1778 -856 
Q 2344 -856 2625 -561 
Q 2906 -266 2906 331 
L 2906 616 
Q 2728 306 2450 153 
Q 2172 0 1784 0 
Q 1141 0 747 490 
Q 353 981 353 1791 
Q 353 2603 747 3093 
Q 1141 3584 1784 3584 
Q 2172 3584 2450 3431 
Q 2728 3278 2906 2969 
L 2906 3500 
L 3481 3500 
L 3481 434 
z
" id="DejaVuSans-67" transform="scale(0.015625)"/>
       <path d="M 2059 -325 
Q 1816 -950 1584 -1140 
Q 1353 -1331 966 -1331 
L 506 -1331 
L 506 -850 
L 844 -850 
Q 1081 -850 1212 -737 
Q 1344 -625 1503 -206 
L 1606 56 
L 191 3500 
L 800 3500 
L 1894 763 
L 2988 3500 
L 3597 3500 
L 2059 -325 
z
" id="DejaVuSans-79" transform="scale(0.015625)"/>
      </defs>
      <use xlink:href="#DejaVuSans-56"/>
      <use x="68.408203" xlink:href="#DejaVuSans-51"/>
      <use x="147.119141" xlink:href="#DejaVuSans-45"/>
      <use x="210.302734" xlink:href="#DejaVuSans-20"/>
      <use x="242.089844" xlink:href="#DejaVuSans-65"/>
      <use x="303.613281" xlink:href="#DejaVuSans-6e"/>
      <use x="366.992188" xlink:href="#DejaVuSans-65"/>
      <use x="428.515625" xlink:href="#DejaVuSans-72"/>
      <use x="467.878906" xlink:href="#DejaVuSans-67"/>
      <use x="531.355469" xlink:href="#DejaVuSans-79"/>
     </g>
    </g>
   </g>
   <g id="line2d_14">
    <path clip-path="url(#pb216b27754)" d="M 60.915862 104.123129 
L 61.534225 41.730415 
L 62.152587 79.736261 
L 62.77095 73.41456 
L 63.389312 79.310482 
L 64.626037 101.519294 
L 65.2444 98.829307 
L 65.862763 99.353648 
L 66.481125 154.62652 
L 67.099487 156.373842 
L 67.71785 155.855949 
L 68.336213 154.00658 
L 68.954575 150.147905 
L 69.572937 161.377507 
L 70.1913 161.410371 
L 70.809663 161.882079 
L 71.428025 161.9115 
L 72.046387 168.257914 
L 72.66475 158.558015 
L 73.283113 156.782869 
L 73.901475 160.694168 
L 74.519837 160.27284 
L 75.1382 161.749968 
L 75.756563 153.642023 
L 76.374925 162.209978 
L 76.993287 143.490475 
L 77.61165 151.736473 
L 78.230012 167.242711 
L 78.848375 166.507752 
L 79.466737 172.150533 
L 80.0851 168.747848 
L 80.703463 169.752634 
L 81.321825 166.551934 
L 81.940187 165.311452 
L 82.55855 197.435291 
L 83.176912 177.670859 
L 83.795275 148.169548 
L 84.413637 165.494035 
L 85.032 179.049232 
L 85.650362 185.384285 
L 86.268725 187.079466 
L 86.887087 189.776242 
L 87.50545 159.766012 
L 88.123812 174.234708 
L 88.742175 149.078225 
L 89.360537 194.696012 
L 89.9789 195.64911 
L 90.597262 195.424696 
L 91.215625 194.000414 
L 91.833987 183.388345 
L 92.45235 176.449253 
L 93.070712 174.124572 
L 93.689075 197.728378 
L 94.307437 184.613492 
L 94.9258 180.624157 
L 95.544162 187.322083 
L 96.162525 195.91268 
L 96.780887 192.635493 
L 97.39925 190.777199 
L 98.017612 193.675664 
L 98.635975 185.167351 
L 99.254337 208.987066 
L 99.8727 185.952133 
L 100.491062 203.075476 
L 101.109425 201.939093 
L 102.34615 209.865707 
L 102.964512 210.01904 
L 103.582875 205.717554 
L 104.201237 209.0309 
L 104.8196 209.924583 
L 105.437962 217.264728 
L 106.056325 272.748404 
L 106.674687 205.272413 
L 107.29305 256.064491 
L 107.911412 223.633385 
L 108.529775 273.698567 
L 109.148137 221.837553 
L 109.7665 268.280831 
L 110.384862 287.38078 
L 111.003225 273.212971 
L 111.621587 300.833958 
L 112.23995 308.151391 
L 112.858312 347.2695 
L 113.476675 345.70528 
L 114.095037 340.948163 
L 114.7134 348.663021 
L 115.331762 350.292214 
L 115.950125 350.086583 
L 116.568487 305.435374 
L 117.18685 350.325317 
L 117.805212 351.773047 
L 118.423575 351.389035 
L 119.041937 313.201545 
L 119.6603 354.73066 
L 120.278662 333.549581 
L 120.897025 350.423587 
L 121.515387 316.870979 
L 122.13375 340.916386 
L 122.752112 303.747272 
L 123.370475 357.92594 
L 123.988837 358.955147 
L 124.6072 358.500942 
L 125.225562 338.704583 
L 125.843925 361.270262 
L 126.462287 356.258546 
L 127.08065 363.704116 
L 127.699012 323.258928 
L 128.317375 357.953565 
L 128.935737 316.132812 
L 129.5541 334.460061 
L 130.172462 304.095834 
L 130.790825 357.270617 
L 131.409187 357.897062 
L 132.02755 351.975806 
L 132.645912 359.757862 
L 133.264275 363.833389 
L 133.882637 329.638923 
L 134.501 356.54492 
L 135.119362 373.470669 
L 135.737725 374.504438 
L 136.356087 345.640277 
L 136.97445 377.061204 
L 137.592812 367.536897 
L 138.211175 372.723141 
L 138.829537 338.256523 
L 139.4479 377.195444 
L 140.066262 308.692957 
L 140.684625 365.12352 
L 141.302987 347.364589 
L 141.92135 370.230789 
L 142.539712 386.724707 
L 143.158075 353.955547 
L 143.776437 380.916934 
L 144.3948 378.180265 
L 145.013162 367.369308 
L 145.631525 386.586168 
L 146.249887 383.26396 
L 146.86825 386.167948 
L 147.486612 387.757876 
L 148.104975 386.77401 
L 148.723337 389.390084 
L 149.3417 389.529599 
L 149.960062 387.507594 
L 150.578425 387.624055 
L 151.196787 377.575034 
L 151.81515 385.725562 
L 152.433512 332.169501 
L 153.051875 371.52801 
L 153.670237 358.761337 
L 154.2886 377.692615 
L 154.906962 362.876042 
L 155.525325 381.949486 
L 156.143687 373.199637 
L 156.76205 387.568599 
L 157.380412 373.572062 
L 157.998775 386.947135 
L 158.617137 363.256621 
L 159.2355 389.87787 
L 159.853862 366.311427 
L 160.472225 388.316342 
L 161.090587 353.168686 
L 161.70895 366.308317 
L 162.327312 337.094822 
L 162.945675 388.761558 
L 163.564037 351.371977 
L 164.1824 389.891235 
L 164.800762 381.733229 
L 165.419125 389.321317 
L 166.037487 344.270567 
L 166.65585 391.042802 
L 167.274212 372.016552 
L 167.892575 393.582138 
L 168.510937 385.806578 
L 169.1293 392.089285 
L 169.747662 361.472092 
L 170.366025 391.781252 
L 170.984387 342.271425 
L 171.60275 379.738974 
L 172.221112 342.577375 
L 172.839475 382.345223 
L 173.457837 370.783362 
L 174.0762 379.391707 
L 174.694562 329.362737 
L 175.312925 393.306113 
L 175.931287 364.555387 
L 176.54965 390.455203 
L 177.168012 365.551094 
L 177.786375 391.908107 
L 178.404737 348.556276 
L 179.0231 375.866418 
L 179.641462 363.229373 
L 180.259825 387.342374 
L 180.878187 362.166714 
L 181.49655 392.30206 
L 182.114912 357.532948 
L 182.733275 385.143371 
L 183.351637 343.439292 
L 183.97 381.181624 
L 184.588362 366.33352 
L 185.206725 393.908951 
L 185.825087 384.162299 
L 186.44345 376.433368 
L 187.061812 376.701424 
L 187.680175 386.259303 
L 188.298537 379.159673 
L 188.9169 378.418602 
L 189.535262 336.479053 
L 190.153625 391.367852 
L 190.771987 375.241749 
L 191.39035 399.87888 
L 192.008712 365.752269 
L 192.627075 375.293958 
L 193.245437 348.793413 
L 193.8638 399.638229 
L 194.482162 376.898162 
L 195.100525 405.027984 
L 195.718887 370.85953 
L 196.33725 394.218578 
L 196.955612 343.297737 
L 197.573975 398.814976 
L 198.192337 405.792545 
L 198.8107 403.269592 
L 200.047425 409.256021 
L 200.665787 409.300389 
L 201.28415 408.639888 
L 201.902512 409.664381 
L 202.520875 403.883761 
L 203.139237 410.145537 
L 203.7576 398.456273 
L 204.375962 410.369487 
L 204.994325 396.272225 
L 205.612687 407.631293 
L 206.23105 396.690931 
L 206.849412 415.843741 
L 207.467775 407.027247 
L 208.086137 413.072199 
L 208.7045 413.139365 
L 209.322862 415.179049 
L 209.941225 416.418314 
L 210.559587 414.616292 
L 211.17795 411.119135 
L 211.796312 416.883947 
L 212.414675 414.219384 
L 213.033037 412.5708 
L 213.6514 412.099268 
L 214.269762 415.615508 
L 214.888125 404.174348 
L 215.506487 414.063875 
L 216.12485 416.522357 
L 216.743212 418.178653 
L 217.361575 416.363716 
L 217.979937 423.175988 
L 218.5983 412.439459 
L 219.216662 418.492468 
L 219.835025 418.195255 
L 220.453387 423.824027 
L 221.07175 416.087191 
L 221.690112 423.827475 
L 222.308475 408.28439 
L 222.926837 423.643126 
L 223.5452 413.051071 
L 224.163562 423.240357 
L 224.781925 420.276092 
L 225.400287 424.011528 
L 226.01865 420.991869 
L 226.637012 423.64607 
L 227.255375 424.150924 
L 227.873737 424.204084 
L 228.4921 409.420538 
L 229.110462 425.79518 
L 229.728825 417.801387 
L 230.347187 420.7338 
L 230.96555 410.08923 
L 231.583912 428.120313 
L 232.202275 416.822079 
L 232.820637 428.910293 
L 233.439 422.687036 
L 234.057362 427.902711 
L 234.675725 429.105907 
L 235.294087 428.833551 
L 235.91245 426.958849 
L 236.530812 429.818115 
L 237.149175 428.195239 
L 237.767537 427.78651 
L 238.3859 429.28288 
L 239.004262 428.073499 
L 239.622625 423.36037 
L 240.240987 426.48152 
L 240.85935 411.017136 
L 241.477712 417.284815 
L 242.096075 417.073481 
L 242.714437 432.068796 
L 243.3328 426.268772 
L 243.951162 430.884288 
L 244.569525 425.663967 
L 245.187887 431.568192 
L 245.80625 419.74333 
L 246.424612 432.20675 
L 247.042975 415.069444 
L 247.661337 431.876856 
L 248.2797 428.452549 
L 248.898062 432.278018 
L 249.516425 427.528736 
L 250.134787 432.769875 
L 250.75315 425.346796 
L 251.371512 432.989298 
L 251.989875 424.651447 
L 252.608237 428.338329 
L 253.2266 423.42224 
L 253.844962 432.451238 
L 254.463325 424.767648 
L 255.081687 432.721285 
L 255.70005 427.051031 
L 256.318412 425.058381 
L 256.936775 429.456099 
L 257.555137 424.425727 
L 258.1735 420.43287 
L 258.791862 427.269894 
L 259.410225 424.19972 
L 260.028587 432.031291 
L 260.64695 432.161161 
L 261.265312 431.664826 
L 261.883675 425.028046 
L 262.502037 428.995697 
L 263.1204 429.455621 
L 263.738762 426.699621 
L 264.357125 426.713923 
L 264.975487 432.926067 
L 265.59385 423.874827 
L 266.212212 432.400125 
L 266.830575 424.928056 
L 267.448937 431.61134 
L 268.0673 424.54661 
L 268.685662 432.708899 
L 269.304025 426.032774 
L 269.922387 431.935231 
L 270.54075 431.215335 
L 271.159112 432.743728 
L 271.777475 426.42673 
L 272.395837 433.473073 
L 273.0142 427.253929 
L 273.632562 433.864251 
L 274.250925 429.097698 
L 274.869287 432.891788 
L 275.48765 424.271192 
L 276.106012 430.568021 
L 276.724375 428.440291 
L 277.342737 432.513441 
L 277.9611 430.323063 
L 278.579462 432.413771 
L 279.197825 426.490251 
L 279.816187 432.839137 
L 281.052912 430.678971 
L 281.671275 434.99307 
L 282.289637 426.811209 
L 282.908 434.031311 
L 283.526362 435.042062 
L 284.144725 434.689442 
L 285.38145 435.499107 
L 285.999812 435.568384 
L 286.618175 435.391256 
L 287.236537 432.940474 
L 287.8549 436.37804 
L 289.091625 437.077022 
L 289.709987 434.774268 
L 290.32835 437.459386 
L 290.946712 434.500525 
L 291.565075 438.201814 
L 292.183437 437.572359 
L 292.8018 437.343838 
L 293.420162 439.804024 
L 294.038525 439.747796 
L 294.656887 441.260437 
L 295.27525 440.067069 
L 295.893612 439.199268 
L 296.511975 441.347058 
L 297.130337 438.174739 
L 297.7487 440.389453 
L 298.367062 441.255099 
L 298.985425 440.755535 
L 299.603787 440.559403 
L 300.22215 440.90409 
L 300.840512 439.936615 
L 301.458875 441.952777 
L 302.077237 442.430639 
L 302.6956 442.751048 
L 303.313962 441.778837 
L 303.932325 442.641673 
L 304.550687 445.258281 
L 305.16905 445.12113 
L 305.787412 442.583864 
L 306.405775 443.707371 
L 307.024137 443.526195 
L 307.6425 444.001483 
L 308.260862 446.069236 
L 308.879225 445.630459 
L 309.497587 442.92742 
L 310.11595 445.481518 
L 310.734312 440.844938 
L 311.352675 443.42369 
L 311.971037 442.587948 
L 312.5894 445.397156 
L 313.207762 435.063713 
L 313.826125 445.041702 
L 314.444487 444.881206 
L 315.06285 445.859777 
L 315.681212 442.475783 
L 316.299575 445.372063 
L 316.917937 444.142116 
L 317.5363 446.273837 
L 318.154662 444.337604 
L 318.773025 446.156609 
L 319.391387 445.041562 
L 320.00975 446.569641 
L 320.628112 445.488062 
L 321.246475 446.132563 
L 321.864837 446.577705 
L 322.4832 446.319938 
L 323.101562 446.749446 
L 323.719925 446.870937 
L 324.338287 446.006984 
L 324.95665 447.536094 
L 325.575012 446.981864 
L 326.193375 447.700903 
L 326.811737 445.911615 
L 327.4301 446.92289 
L 328.048462 446.513481 
L 328.666825 446.855351 
L 329.285187 446.483908 
L 329.90355 446.937364 
L 330.521912 445.021278 
L 331.140275 447.399863 
L 331.758637 447.003263 
L 332.377 447.295005 
L 332.995362 444.808125 
L 333.613725 444.449775 
L 334.232087 449.560822 
L 334.85045 447.082367 
L 335.468812 449.223036 
L 336.087175 449.602225 
L 336.705537 448.742494 
L 337.3239 449.471384 
L 337.942262 446.964721 
L 338.560625 450.103714 
L 339.178987 447.970743 
L 339.79735 449.476261 
L 340.415712 447.45349 
L 341.034075 448.303298 
L 341.652437 452.089708 
L 342.2708 451.371086 
L 342.889162 449.829949 
L 343.507525 451.0674 
L 344.125887 450.258578 
L 344.74425 452.260246 
L 345.362612 450.134542 
L 345.980975 451.244197 
L 346.599337 450.768267 
L 347.2177 450.982007 
L 347.836062 449.627287 
L 348.454425 451.062946 
L 349.072787 450.532101 
L 349.69115 451.807438 
L 350.309512 450.355498 
L 350.927875 451.077247 
L 351.546237 452.319533 
L 352.1646 451.519249 
L 352.782962 450.225764 
L 353.401325 450.976975 
L 354.019687 450.170382 
L 354.63805 451.871866 
L 356.493137 451.378705 
L 357.1115 451.864964 
L 357.729862 450.974738 
L 358.348225 451.45095 
L 358.966587 450.907842 
L 359.58495 451.916001 
L 360.203312 450.703174 
L 360.821675 452.003504 
L 361.440037 449.988584 
L 362.0584 451.248613 
L 362.676762 452.124771 
L 363.295125 451.97048 
L 363.913487 451.694743 
L 364.53185 452.393405 
L 365.150212 451.037675 
L 365.768575 452.144245 
L 366.386937 450.202418 
L 367.0053 452.36682 
L 367.623662 451.358564 
L 368.242025 451.199728 
L 368.860387 450.823772 
L 369.47875 452.477413 
L 370.097112 450.1878 
L 370.715475 451.663052 
L 371.333837 452.140083 
L 371.9522 451.466901 
L 372.570562 452.148877 
L 373.188925 452.35099 
L 373.807287 452.346329 
L 374.42565 451.918559 
L 375.044012 446.093554 
L 375.662375 451.919651 
L 376.280737 450.97788 
L 376.8991 452.191144 
L 377.517462 451.021557 
L 378.135825 452.000028 
L 378.754187 451.949663 
L 379.990912 449.889935 
L 380.609275 451.96794 
L 381.846 452.529921 
L 382.464362 451.172296 
L 383.082725 452.539166 
L 383.701087 452.460846 
L 384.937812 449.517045 
L 385.556175 451.8766 
L 386.174537 450.542535 
L 386.7929 452.766693 
L 387.411262 449.324392 
L 388.029625 452.954624 
L 388.647987 449.553464 
L 389.26635 452.719359 
L 389.884712 451.633016 
L 390.503075 452.642958 
L 391.121437 451.666858 
L 391.7398 452.706758 
L 392.358162 451.195214 
L 392.976525 452.630158 
L 393.594887 451.874254 
L 394.21325 453.779112 
L 394.831612 453.482939 
L 395.449975 453.359751 
L 396.068337 454.199085 
L 396.6867 454.703143 
L 397.305062 454.554764 
L 397.923425 453.933854 
L 398.541787 454.070455 
L 399.16015 453.692236 
L 399.778512 454.504294 
L 400.396875 454.763254 
L 401.6336 454.272218 
L 402.251962 454.620616 
L 402.870325 454.706377 
L 403.488687 454.465759 
L 404.10705 454.56717 
L 404.725412 454.813571 
L 405.343775 454.042448 
L 405.962137 454.978873 
L 406.5805 454.852286 
L 407.198862 454.968588 
L 407.817225 454.508134 
L 408.435587 454.842721 
L 409.05395 454.307674 
L 410.290675 455.369225 
L 410.909037 455.447175 
L 411.5274 454.275446 
L 412.145762 455.459171 
L 413.382487 455.440878 
L 414.00085 453.597168 
L 414.619212 455.343318 
L 415.237575 454.418731 
L 415.855937 455.445367 
L 416.4743 455.014333 
L 417.092662 455.580536 
L 417.711025 455.100814 
L 418.329387 455.378069 
L 418.94775 455.143663 
L 419.566112 455.563088 
L 420.184475 454.393539 
L 420.802837 455.515265 
L 421.4212 455.012742 
L 422.039562 455.411753 
L 422.657925 455.286863 
L 424.513012 456.244885 
L 425.131375 455.701338 
L 425.749737 455.947062 
L 426.3681 455.566947 
L 426.986462 455.802215 
L 427.604825 456.710602 
L 428.223187 456.698059 
L 428.84155 456.243265 
L 429.459912 456.48208 
L 430.696637 456.446056 
L 431.315 456.956178 
L 431.933362 456.904101 
L 432.551725 456.697505 
L 433.170087 457.339502 
L 433.78845 457.721839 
L 434.406812 457.750358 
L 435.025175 457.379529 
L 435.643537 457.804495 
L 436.2619 457.209134 
L 436.880262 457.768181 
L 437.498625 457.497926 
L 438.116987 457.706753 
L 438.73535 457.761565 
L 439.353712 457.671853 
L 439.972075 457.329414 
L 440.590437 457.707227 
L 441.2088 457.246338 
L 441.827162 457.679057 
L 442.445525 457.372459 
L 443.063887 457.626765 
L 443.68225 456.652204 
L 444.300612 457.837326 
L 444.918975 457.810103 
L 445.537337 457.531921 
L 446.1557 457.397669 
L 447.392425 457.829482 
L 448.010787 457.659411 
L 449.247512 457.798968 
L 449.865875 457.037718 
L 450.484237 457.767772 
L 451.1026 456.56867 
L 451.720962 457.753524 
L 452.339325 457.744032 
L 453.57605 457.40828 
L 454.194412 457.735027 
L 455.431137 457.808259 
L 456.0495 457.409022 
L 456.667862 457.317115 
L 457.904587 457.489932 
L 458.52295 457.380601 
L 459.141312 457.798698 
L 459.759675 457.351652 
L 460.378037 457.807838 
L 460.9964 457.531041 
L 461.614762 457.747081 
L 462.233125 457.821158 
L 462.851487 457.688291 
L 463.46985 457.958325 
L 464.088212 457.597844 
L 464.706575 457.537356 
L 465.324937 457.978959 
L 467.180025 457.767423 
L 469.035112 457.858046 
L 469.653475 457.290883 
L 470.271837 457.883536 
L 470.8902 457.042951 
L 471.508562 457.769588 
L 472.126925 457.444223 
L 472.745287 457.922585 
L 473.982012 458.196204 
L 474.600375 457.759307 
L 475.218737 458.149719 
L 475.8371 458.080737 
L 476.455462 458.260399 
L 477.692187 458.113541 
L 478.31055 457.678814 
L 478.928912 458.045245 
L 479.547275 457.464122 
L 480.784 458.67375 
L 481.402362 458.110403 
L 482.020725 458.327483 
L 482.639087 458.353743 
L 483.25745 458.557302 
L 483.875812 458.011314 
L 484.494175 458.3985 
L 485.112537 458.568149 
L 486.349262 458.557479 
L 486.967625 458.281754 
L 487.585987 458.179941 
L 488.20435 458.423082 
L 488.822712 458.488663 
L 490.059437 458.22376 
L 491.296162 458.633909 
L 492.532887 458.376118 
L 493.15125 457.686452 
L 493.769612 458.433012 
L 494.387975 457.872937 
L 495.006337 458.363892 
L 495.6247 458.602431 
L 496.243062 458.211948 
L 496.861425 458.277182 
L 497.479787 458.739616 
L 498.09815 458.326985 
L 498.716512 458.925594 
L 499.334875 458.515917 
L 499.953237 458.910167 
L 500.5716 458.566663 
L 501.808325 458.810337 
L 502.426687 458.865465 
L 503.04505 458.058026 
L 503.663412 458.648193 
L 504.281775 458.179922 
L 504.900137 458.93462 
L 505.5185 458.47949 
L 506.136862 458.965266 
L 506.755225 458.285383 
L 507.373587 458.866437 
L 507.99195 458.255518 
L 508.610312 458.98392 
L 509.228675 459.07324 
L 509.847037 458.901173 
L 510.4654 458.148816 
L 511.083762 458.992853 
L 511.702125 458.715148 
L 512.320487 458.704074 
L 512.93885 459.133757 
L 513.557212 459.094818 
L 514.175575 457.999063 
L 514.793937 459.14015 
L 515.4123 458.335395 
L 516.030662 458.985551 
L 516.649025 458.738056 
L 517.267387 459.210504 
L 517.88575 459.301601 
L 519.122475 458.963929 
L 519.740837 459.096481 
L 520.3592 459.076658 
L 521.595925 459.320544 
L 522.83265 459.240709 
L 523.451012 459.514831 
L 524.069375 458.931063 
L 524.687737 459.46408 
L 525.3061 459.040436 
L 525.924462 459.335704 
L 526.542825 458.679528 
L 527.161187 459.123006 
L 527.77955 458.584849 
L 528.397912 459.341482 
L 529.016275 459.212598 
L 530.253 459.202583 
L 531.489725 459.98902 
L 532.108087 459.769445 
L 532.72645 459.852805 
L 533.344812 459.813924 
L 534.581537 459.952148 
L 535.1999 459.451116 
L 535.818262 460.090067 
L 536.436625 459.999391 
L 537.054987 459.763919 
L 537.67335 459.831562 
L 538.291712 460.052821 
L 538.910075 459.004726 
L 539.528437 459.951166 
L 540.1468 458.343269 
L 540.765162 460.029425 
L 541.383525 459.58924 
L 542.001887 459.982959 
L 542.62025 459.35892 
L 543.238612 460.053183 
L 543.856975 460.341626 
L 545.0937 459.947634 
L 545.712062 460.214231 
L 546.330425 459.695964 
L 546.948787 460.358926 
L 547.56715 459.785741 
L 548.185512 460.246047 
L 548.803875 460.096675 
L 549.422237 460.460703 
L 550.0406 459.596124 
L 550.658962 460.214684 
L 551.277325 459.98354 
L 551.895687 459.922828 
L 553.132412 460.404131 
L 553.750775 460.158179 
L 554.369137 460.506899 
L 554.9875 459.986082 
L 555.605862 460.460696 
L 556.224225 460.47973 
L 557.46095 460.202716 
L 558.079312 460.624516 
L 558.697675 460.173589 
L 559.316037 460.605478 
L 559.9344 460.230816 
L 560.552762 460.514811 
L 561.171125 460.382571 
L 561.789487 460.43665 
L 562.40785 460.691841 
L 563.026212 460.386227 
L 563.644575 460.53857 
L 564.262937 460.545218 
L 564.8813 460.189977 
L 565.499662 460.532996 
L 566.118025 460.108339 
L 566.736387 460.682307 
L 567.35475 460.547252 
L 567.973112 460.561578 
L 568.591475 460.356827 
L 569.209837 460.648714 
L 569.8282 460.441909 
L 570.446562 460.610728 
L 571.064925 460.612957 
L 571.683287 460.480338 
L 572.30165 460.037295 
L 572.920012 460.534001 
L 573.538375 459.868884 
L 574.156737 460.699239 
L 574.7751 460.208218 
L 575.393462 460.643548 
L 576.011825 460.29457 
L 576.630187 460.38543 
L 577.24855 459.417157 
L 577.866912 460.507785 
L 578.485275 460.226404 
L 579.722 460.487328 
L 580.340362 460.476184 
L 580.958725 460.224236 
L 581.577087 460.710984 
L 582.19545 460.369839 
L 583.432175 460.575117 
L 584.050537 460.522318 
L 584.6689 459.976247 
L 585.905625 460.780553 
L 587.14235 460.196998 
L 587.760712 460.797789 
L 588.379075 459.905535 
L 588.997437 460.620662 
L 589.6158 460.005431 
L 590.234162 460.782738 
L 590.852525 460.414816 
L 592.08925 460.545165 
L 593.325975 460.749188 
L 593.944337 460.669572 
L 594.5627 460.363344 
L 595.181062 460.679772 
L 595.799425 460.476747 
L 596.417787 460.550288 
L 597.03615 460.835396 
L 598.272875 460.753069 
L 598.891237 460.846703 
L 599.5096 460.778155 
L 600.127962 460.919557 
L 601.364687 460.807377 
L 602.601412 461.045634 
L 604.4565 461.024898 
L 605.074862 460.734818 
L 605.693225 461.002935 
L 606.92995 461.126978 
L 607.548312 460.930832 
L 608.166675 461.089589 
L 618.678837 461.256642 
L 619.2972 460.9975 
L 620.533925 461.136546 
L 621.152287 461.114711 
L 623.007375 461.276501 
L 624.2441 461.217977 
L 629.809362 461.315775 
L 632.901175 461.22203 
L 633.519537 461.38403 
L 635.374625 461.259405 
L 635.992987 461.526001 
L 636.61135 461.543878 
L 637.229712 461.42593 
L 639.0848 461.5869 
L 639.703162 461.377025 
L 640.321525 461.522439 
L 641.55825 461.596932 
L 642.176612 461.380124 
L 643.413337 461.586327 
L 644.0317 461.58421 
L 644.650062 461.462552 
L 645.886787 461.670267 
L 646.50515 461.577911 
L 648.360237 461.617414 
L 649.596962 461.620255 
L 650.215325 461.716102 
L 650.833687 461.612914 
L 651.45205 461.743738 
L 652.070412 461.678947 
L 653.307137 461.754107 
L 654.543862 461.666429 
L 655.162225 461.781865 
L 655.780587 461.519338 
L 656.39895 461.773308 
L 657.635675 461.736233 
L 661.34585 461.832463 
L 661.964212 461.664729 
L 662.582575 461.792985 
L 665.056025 461.7762 
L 665.674387 461.570372 
L 666.29275 461.803338 
L 666.911112 461.726306 
L 668.7662 461.823898 
L 670.621287 461.794683 
L 671.23965 461.684066 
L 672.476375 461.831965 
L 673.094737 461.708167 
L 674.331462 461.896429 
L 675.568187 461.77257 
L 676.804912 461.914398 
L 679.278362 461.872983 
L 679.278362 461.872983 
" style="fill:none;stroke:#1f77b4;stroke-linecap:square;stroke-width:3;"/>
   </g>
   <g id="line2d_15">
    <path clip-path="url(#pb216b27754)" d="M 60.915862 141.98972 
L 105.437962 141.98972 
L 106.056325 260.156149 
L 150.578425 260.156149 
L 151.196787 66.874208 
L 151.81515 324.94471 
L 196.33725 324.94471 
L 196.955612 394.200645 
L 241.477712 394.200645 
L 242.096075 320.471109 
L 242.714437 433.886337 
L 287.236537 433.886337 
L 287.8549 444.240129 
L 332.377 444.240129 
L 332.995362 453.338701 
L 377.517462 453.338701 
L 378.135825 454.785024 
L 422.657925 454.785024 
L 423.276287 456.033506 
L 467.798387 456.033506 
L 468.41675 456.808523 
L 512.93885 456.808523 
L 513.557212 457.188395 
L 558.079312 457.188395 
L 558.697675 457.380208 
L 648.360237 457.490919 
L 649.596962 457.566595 
L 679.278362 457.566595 
L 679.278362 457.566595 
" style="fill:none;stroke:#ff7f0e;stroke-linecap:square;stroke-width:3;"/>
   </g>
   <g id="line2d_16">
    <path clip-path="url(#pb216b27754)" d="M 60.915862 104.123129 
L 105.437962 104.123129 
L 106.056325 263.420884 
L 150.578425 263.420884 
L 151.196787 335.343449 
L 195.718887 335.343449 
L 196.33725 370.153251 
L 240.85935 370.153251 
L 241.477712 433.635827 
L 285.999812 433.635827 
L 286.618175 446.13448 
L 331.140275 446.13448 
L 331.758637 452.001401 
L 376.280737 452.001401 
L 376.8991 454.233848 
L 421.4212 454.233848 
L 422.039562 456.145788 
L 466.561662 456.145788 
L 467.180025 457.068896 
L 511.702125 457.068896 
L 512.320487 457.360648 
L 556.842587 457.360648 
L 557.46095 457.49625 
L 679.278362 457.58711 
L 679.278362 457.58711 
" style="fill:none;stroke:#2ca02c;stroke-linecap:square;stroke-width:3;"/>
   </g>
   <g id="line2d_17">
    <path clip-path="url(#pb216b27754)" d="M 60.2975 485.553829 
L 678.66 485.553829 
" style="fill:none;stroke:#000000;stroke-dasharray:7.4,3.2;stroke-dashoffset:0;stroke-width:2;"/>
   </g>
   <g id="patch_3">
    <path d="M 60.2975 507.745 
L 60.2975 19.539245 
" style="fill:none;stroke:#000000;stroke-linecap:square;stroke-linejoin:miter;stroke-width:0.8;"/>
   </g>
   <g id="patch_4">
    <path d="M 678.66 507.745 
L 678.66 19.539245 
" style="fill:none;stroke:#000000;stroke-linecap:square;stroke-linejoin:miter;stroke-width:0.8;"/>
   </g>
   <g id="patch_5">
    <path d="M 60.2975 507.745 
L 678.66 507.745 
" style="fill:none;stroke:#000000;stroke-linecap:square;stroke-linejoin:miter;stroke-width:0.8;"/>
   </g>
   <g id="patch_6">
    <path d="M 60.2975 19.539245 
L 678.66 19.539245 
" style="fill:none;stroke:#000000;stroke-linecap:square;stroke-linejoin:miter;stroke-width:0.8;"/>
   </g>
   <g id="legend_1">
    <g id="patch_7">
     <path d="M 475.96125 179.649245 
L 661.86 179.649245 
Q 666.66 179.649245 666.66 174.849245 
L 666.66 36.339245 
Q 666.66 31.539245 661.86 31.539245 
L 475.96125 31.539245 
Q 471.16125 31.539245 471.16125 36.339245 
L 471.16125 174.849245 
Q 471.16125 179.649245 475.96125 179.649245 
z
" style="fill:#ffffff;opacity:0.8;stroke:#cccccc;stroke-linejoin:miter;"/>
    </g>
    <g id="line2d_18">
     <path d="M 480.76125 50.975495 
L 528.76125 50.975495 
" style="fill:none;stroke:#1f77b4;stroke-linecap:square;stroke-width:3;"/>
    </g>
    <g id="line2d_19"/>
    <g id="text_16">
     <!-- COBYLA -->
     <g transform="translate(547.96125 59.375495)scale(0.24 -0.24)">
      <defs>
       <path d="M 4122 4306 
L 4122 3641 
Q 3803 3938 3442 4084 
Q 3081 4231 2675 4231 
Q 1875 4231 1450 3742 
Q 1025 3253 1025 2328 
Q 1025 1406 1450 917 
Q 1875 428 2675 428 
Q 3081 428 3442 575 
Q 3803 722 4122 1019 
L 4122 359 
Q 3791 134 3420 21 
Q 3050 -91 2638 -91 
Q 1578 -91 968 557 
Q 359 1206 359 2328 
Q 359 3453 968 4101 
Q 1578 4750 2638 4750 
Q 3056 4750 3426 4639 
Q 3797 4528 4122 4306 
z
" id="DejaVuSans-43" transform="scale(0.015625)"/>
       <path d="M 2522 4238 
Q 1834 4238 1429 3725 
Q 1025 3213 1025 2328 
Q 1025 1447 1429 934 
Q 1834 422 2522 422 
Q 3209 422 3611 934 
Q 4013 1447 4013 2328 
Q 4013 3213 3611 3725 
Q 3209 4238 2522 4238 
z
M 2522 4750 
Q 3503 4750 4090 4092 
Q 4678 3434 4678 2328 
Q 4678 1225 4090 567 
Q 3503 -91 2522 -91 
Q 1538 -91 948 565 
Q 359 1222 359 2328 
Q 359 3434 948 4092 
Q 1538 4750 2522 4750 
z
" id="DejaVuSans-4f" transform="scale(0.015625)"/>
       <path d="M 1259 2228 
L 1259 519 
L 2272 519 
Q 2781 519 3026 730 
Q 3272 941 3272 1375 
Q 3272 1813 3026 2020 
Q 2781 2228 2272 2228 
L 1259 2228 
z
M 1259 4147 
L 1259 2741 
L 2194 2741 
Q 2656 2741 2882 2914 
Q 3109 3088 3109 3444 
Q 3109 3797 2882 3972 
Q 2656 4147 2194 4147 
L 1259 4147 
z
M 628 4666 
L 2241 4666 
Q 2963 4666 3353 4366 
Q 3744 4066 3744 3513 
Q 3744 3084 3544 2831 
Q 3344 2578 2956 2516 
Q 3422 2416 3680 2098 
Q 3938 1781 3938 1306 
Q 3938 681 3513 340 
Q 3088 0 2303 0 
L 628 0 
L 628 4666 
z
" id="DejaVuSans-42" transform="scale(0.015625)"/>
       <path d="M -13 4666 
L 666 4666 
L 1959 2747 
L 3244 4666 
L 3922 4666 
L 2272 2222 
L 2272 0 
L 1638 0 
L 1638 2222 
L -13 4666 
z
" id="DejaVuSans-59" transform="scale(0.015625)"/>
       <path d="M 628 4666 
L 1259 4666 
L 1259 531 
L 3531 531 
L 3531 0 
L 628 0 
L 628 4666 
z
" id="DejaVuSans-4c" transform="scale(0.015625)"/>
       <path d="M 2188 4044 
L 1331 1722 
L 3047 1722 
L 2188 4044 
z
M 1831 4666 
L 2547 4666 
L 4325 0 
L 3669 0 
L 3244 1197 
L 1141 1197 
L 716 0 
L 50 0 
L 1831 4666 
z
" id="DejaVuSans-41" transform="scale(0.015625)"/>
      </defs>
      <use xlink:href="#DejaVuSans-43"/>
      <use x="69.824219" xlink:href="#DejaVuSans-4f"/>
      <use x="148.535156" xlink:href="#DejaVuSans-42"/>
      <use x="211.638672" xlink:href="#DejaVuSans-59"/>
      <use x="272.722656" xlink:href="#DejaVuSans-4c"/>
      <use x="330.685547" xlink:href="#DejaVuSans-41"/>
     </g>
    </g>
    <g id="line2d_20">
     <path d="M 480.76125 86.202995 
L 528.76125 86.202995 
" style="fill:none;stroke:#ff7f0e;stroke-linecap:square;stroke-width:3;"/>
    </g>
    <g id="line2d_21"/>
    <g id="text_17">
     <!-- SLSQP -->
     <g transform="translate(547.96125 94.602995)scale(0.24 -0.24)">
      <defs>
       <path d="M 3425 4513 
L 3425 3897 
Q 3066 4069 2747 4153 
Q 2428 4238 2131 4238 
Q 1616 4238 1336 4038 
Q 1056 3838 1056 3469 
Q 1056 3159 1242 3001 
Q 1428 2844 1947 2747 
L 2328 2669 
Q 3034 2534 3370 2195 
Q 3706 1856 3706 1288 
Q 3706 609 3251 259 
Q 2797 -91 1919 -91 
Q 1588 -91 1214 -16 
Q 841 59 441 206 
L 441 856 
Q 825 641 1194 531 
Q 1563 422 1919 422 
Q 2459 422 2753 634 
Q 3047 847 3047 1241 
Q 3047 1584 2836 1778 
Q 2625 1972 2144 2069 
L 1759 2144 
Q 1053 2284 737 2584 
Q 422 2884 422 3419 
Q 422 4038 858 4394 
Q 1294 4750 2059 4750 
Q 2388 4750 2728 4690 
Q 3069 4631 3425 4513 
z
" id="DejaVuSans-53" transform="scale(0.015625)"/>
       <path d="M 1259 4147 
L 1259 2394 
L 2053 2394 
Q 2494 2394 2734 2622 
Q 2975 2850 2975 3272 
Q 2975 3691 2734 3919 
Q 2494 4147 2053 4147 
L 1259 4147 
z
M 628 4666 
L 2053 4666 
Q 2838 4666 3239 4311 
Q 3641 3956 3641 3272 
Q 3641 2581 3239 2228 
Q 2838 1875 2053 1875 
L 1259 1875 
L 1259 0 
L 628 0 
L 628 4666 
z
" id="DejaVuSans-50" transform="scale(0.015625)"/>
      </defs>
      <use xlink:href="#DejaVuSans-53"/>
      <use x="63.476562" xlink:href="#DejaVuSans-4c"/>
      <use x="119.189453" xlink:href="#DejaVuSans-53"/>
      <use x="182.666016" xlink:href="#DejaVuSans-51"/>
      <use x="261.376953" xlink:href="#DejaVuSans-50"/>
     </g>
    </g>
    <g id="line2d_22">
     <path d="M 480.76125 121.430495 
L 528.76125 121.430495 
" style="fill:none;stroke:#2ca02c;stroke-linecap:square;stroke-width:3;"/>
    </g>
    <g id="line2d_23"/>
    <g id="text_18">
     <!-- L-BFGS-B -->
     <g transform="translate(547.96125 129.830495)scale(0.24 -0.24)">
      <defs>
       <path d="M 313 2009 
L 1997 2009 
L 1997 1497 
L 313 1497 
L 313 2009 
z
" id="DejaVuSans-2d" transform="scale(0.015625)"/>
       <path d="M 628 4666 
L 3309 4666 
L 3309 4134 
L 1259 4134 
L 1259 2759 
L 3109 2759 
L 3109 2228 
L 1259 2228 
L 1259 0 
L 628 0 
L 628 4666 
z
" id="DejaVuSans-46" transform="scale(0.015625)"/>
       <path d="M 3809 666 
L 3809 1919 
L 2778 1919 
L 2778 2438 
L 4434 2438 
L 4434 434 
Q 4069 175 3628 42 
Q 3188 -91 2688 -91 
Q 1594 -91 976 548 
Q 359 1188 359 2328 
Q 359 3472 976 4111 
Q 1594 4750 2688 4750 
Q 3144 4750 3555 4637 
Q 3966 4525 4313 4306 
L 4313 3634 
Q 3963 3931 3569 4081 
Q 3175 4231 2741 4231 
Q 1884 4231 1454 3753 
Q 1025 3275 1025 2328 
Q 1025 1384 1454 906 
Q 1884 428 2741 428 
Q 3075 428 3337 486 
Q 3600 544 3809 666 
z
" id="DejaVuSans-47" transform="scale(0.015625)"/>
      </defs>
      <use xlink:href="#DejaVuSans-4c"/>
      <use x="53.962891" xlink:href="#DejaVuSans-2d"/>
      <use x="86.421875" xlink:href="#DejaVuSans-42"/>
      <use x="155.025391" xlink:href="#DejaVuSans-46"/>
      <use x="212.544922" xlink:href="#DejaVuSans-47"/>
      <use x="290.035156" xlink:href="#DejaVuSans-53"/>
      <use x="353.511719" xlink:href="#DejaVuSans-2d"/>
      <use x="385.970703" xlink:href="#DejaVuSans-42"/>
     </g>
    </g>
    <g id="line2d_24">
     <path d="M 480.76125 156.657995 
L 528.76125 156.657995 
" style="fill:none;stroke:#000000;stroke-dasharray:7.4,3.2;stroke-dashoffset:0;stroke-width:2;"/>
    </g>
    <g id="line2d_25"/>
    <g id="text_19">
     <!-- HT -->
     <g transform="translate(547.96125 165.057995)scale(0.24 -0.24)">
      <defs>
       <path d="M 628 4666 
L 1259 4666 
L 1259 2753 
L 3553 2753 
L 3553 4666 
L 4184 4666 
L 4184 0 
L 3553 0 
L 3553 2222 
L 1259 2222 
L 1259 0 
L 628 0 
L 628 4666 
z
" id="DejaVuSans-48" transform="scale(0.015625)"/>
       <path d="M -19 4666 
L 3928 4666 
L 3928 4134 
L 2272 4134 
L 2272 0 
L 1638 0 
L 1638 4134 
L -19 4134 
L -19 4666 
z
" id="DejaVuSans-54" transform="scale(0.015625)"/>
      </defs>
      <use xlink:href="#DejaVuSans-48"/>
      <use x="75.195312" xlink:href="#DejaVuSans-54"/>
     </g>
    </g>
   </g>
  </g>
 </g>
 <defs>
  <clipPath id="pb216b27754">
   <rect height="488.205755" width="618.3625" x="60.2975" y="19.539245"/>
  </clipPath>
 </defs>
</svg>
