<?xml version="1.0" encoding="utf-8" standalone="no"?>
<!DOCTYPE svg PUBLIC "-//W3C//DTD SVG 1.1//EN"
  "http://www.w3.org/Graphics/SVG/1.1/DTD/svg11.dtd">
<svg height="576pt" version="1.1" viewBox="0 0 720 576" width="720pt" xmlns="http://www.w3.org/2000/svg" xmlns:xlink="http://www.w3.org/1999/xlink">
 <metadata>
  <rdf:RDF xmlns:cc="http://creativecommons.org/ns#" xmlns:dc="http://purl.org/dc/elements/1.1/" xmlns:rdf="http://www.w3.org/1999/02/22-rdf-syntax-ns#">
   <cc:Work>
    <dc:type rdf:resource="http://purl.org/dc/dcmitype/StillImage"/>
    <dc:date>2021-08-02T14:52:38.695356</dc:date>
    <dc:format>image/svg+xml</dc:format>
    <dc:creator>
     <cc:Agent>
      <dc:title>Matplotlib v3.4.2, https://matplotlib.org/</dc:title>
     </cc:Agent>
    </dc:creator>
   </cc:Work>
  </rdf:RDF>
 </metadata>
 <defs>
  <style type="text/css">*{stroke-linecap:butt;stroke-linejoin:round;}</style>
 </defs>
 <g id="figure_1">
  <g id="patch_1">
   <path d="M 0 576 
L 720 576 
L 720 0 
L 0 0 
z
" style="fill:#ffffff;"/>
  </g>
  <g id="axes_1">
   <g id="patch_2">
    <path d="M 60.2975 507.745 
L 678.66 507.745 
L 678.66 17.607758 
L 60.2975 17.607758 
z
" style="fill:#ffffff;"/>
   </g>
   <g id="matplotlib.axis_1">
    <g id="xtick_1">
     <g id="line2d_1">
      <defs>
       <path d="M 0 0 
L 0 3.5 
" id="m3c24cef27b" style="stroke:#000000;stroke-width:0.8;"/>
      </defs>
      <g>
       <use style="stroke:#000000;stroke-width:0.8;" x="60.2975" xlink:href="#m3c24cef27b" y="507.745"/>
      </g>
     </g>
     <g id="text_1">
      <!-- 0 -->
      <g transform="translate(52.6625 532.98125)scale(0.24 -0.24)">
       <defs>
        <path d="M 2034 4250 
Q 1547 4250 1301 3770 
Q 1056 3291 1056 2328 
Q 1056 1369 1301 889 
Q 1547 409 2034 409 
Q 2525 409 2770 889 
Q 3016 1369 3016 2328 
Q 3016 3291 2770 3770 
Q 2525 4250 2034 4250 
z
M 2034 4750 
Q 2819 4750 3233 4129 
Q 3647 3509 3647 2328 
Q 3647 1150 3233 529 
Q 2819 -91 2034 -91 
Q 1250 -91 836 529 
Q 422 1150 422 2328 
Q 422 3509 836 4129 
Q 1250 4750 2034 4750 
z
" id="DejaVuSans-30" transform="scale(0.015625)"/>
       </defs>
       <use xlink:href="#DejaVuSans-30"/>
      </g>
     </g>
    </g>
    <g id="xtick_2">
     <g id="line2d_2">
      <g>
       <use style="stroke:#000000;stroke-width:0.8;" x="183.97" xlink:href="#m3c24cef27b" y="507.745"/>
      </g>
     </g>
     <g id="text_2">
      <!-- 200 -->
      <g transform="translate(161.065 532.98125)scale(0.24 -0.24)">
       <defs>
        <path d="M 1228 531 
L 3431 531 
L 3431 0 
L 469 0 
L 469 531 
Q 828 903 1448 1529 
Q 2069 2156 2228 2338 
Q 2531 2678 2651 2914 
Q 2772 3150 2772 3378 
Q 2772 3750 2511 3984 
Q 2250 4219 1831 4219 
Q 1534 4219 1204 4116 
Q 875 4013 500 3803 
L 500 4441 
Q 881 4594 1212 4672 
Q 1544 4750 1819 4750 
Q 2544 4750 2975 4387 
Q 3406 4025 3406 3419 
Q 3406 3131 3298 2873 
Q 3191 2616 2906 2266 
Q 2828 2175 2409 1742 
Q 1991 1309 1228 531 
z
" id="DejaVuSans-32" transform="scale(0.015625)"/>
       </defs>
       <use xlink:href="#DejaVuSans-32"/>
       <use x="63.623047" xlink:href="#DejaVuSans-30"/>
       <use x="127.246094" xlink:href="#DejaVuSans-30"/>
      </g>
     </g>
    </g>
    <g id="xtick_3">
     <g id="line2d_3">
      <g>
       <use style="stroke:#000000;stroke-width:0.8;" x="307.6425" xlink:href="#m3c24cef27b" y="507.745"/>
      </g>
     </g>
     <g id="text_3">
      <!-- 400 -->
      <g transform="translate(284.7375 532.98125)scale(0.24 -0.24)">
       <defs>
        <path d="M 2419 4116 
L 825 1625 
L 2419 1625 
L 2419 4116 
z
M 2253 4666 
L 3047 4666 
L 3047 1625 
L 3713 1625 
L 3713 1100 
L 3047 1100 
L 3047 0 
L 2419 0 
L 2419 1100 
L 313 1100 
L 313 1709 
L 2253 4666 
z
" id="DejaVuSans-34" transform="scale(0.015625)"/>
       </defs>
       <use xlink:href="#DejaVuSans-34"/>
       <use x="63.623047" xlink:href="#DejaVuSans-30"/>
       <use x="127.246094" xlink:href="#DejaVuSans-30"/>
      </g>
     </g>
    </g>
    <g id="xtick_4">
     <g id="line2d_4">
      <g>
       <use style="stroke:#000000;stroke-width:0.8;" x="431.315" xlink:href="#m3c24cef27b" y="507.745"/>
      </g>
     </g>
     <g id="text_4">
      <!-- 600 -->
      <g transform="translate(408.41 532.98125)scale(0.24 -0.24)">
       <defs>
        <path d="M 2113 2584 
Q 1688 2584 1439 2293 
Q 1191 2003 1191 1497 
Q 1191 994 1439 701 
Q 1688 409 2113 409 
Q 2538 409 2786 701 
Q 3034 994 3034 1497 
Q 3034 2003 2786 2293 
Q 2538 2584 2113 2584 
z
M 3366 4563 
L 3366 3988 
Q 3128 4100 2886 4159 
Q 2644 4219 2406 4219 
Q 1781 4219 1451 3797 
Q 1122 3375 1075 2522 
Q 1259 2794 1537 2939 
Q 1816 3084 2150 3084 
Q 2853 3084 3261 2657 
Q 3669 2231 3669 1497 
Q 3669 778 3244 343 
Q 2819 -91 2113 -91 
Q 1303 -91 875 529 
Q 447 1150 447 2328 
Q 447 3434 972 4092 
Q 1497 4750 2381 4750 
Q 2619 4750 2861 4703 
Q 3103 4656 3366 4563 
z
" id="DejaVuSans-36" transform="scale(0.015625)"/>
       </defs>
       <use xlink:href="#DejaVuSans-36"/>
       <use x="63.623047" xlink:href="#DejaVuSans-30"/>
       <use x="127.246094" xlink:href="#DejaVuSans-30"/>
      </g>
     </g>
    </g>
    <g id="xtick_5">
     <g id="line2d_5">
      <g>
       <use style="stroke:#000000;stroke-width:0.8;" x="554.9875" xlink:href="#m3c24cef27b" y="507.745"/>
      </g>
     </g>
     <g id="text_5">
      <!-- 800 -->
      <g transform="translate(532.0825 532.98125)scale(0.24 -0.24)">
       <defs>
        <path d="M 2034 2216 
Q 1584 2216 1326 1975 
Q 1069 1734 1069 1313 
Q 1069 891 1326 650 
Q 1584 409 2034 409 
Q 2484 409 2743 651 
Q 3003 894 3003 1313 
Q 3003 1734 2745 1975 
Q 2488 2216 2034 2216 
z
M 1403 2484 
Q 997 2584 770 2862 
Q 544 3141 544 3541 
Q 544 4100 942 4425 
Q 1341 4750 2034 4750 
Q 2731 4750 3128 4425 
Q 3525 4100 3525 3541 
Q 3525 3141 3298 2862 
Q 3072 2584 2669 2484 
Q 3125 2378 3379 2068 
Q 3634 1759 3634 1313 
Q 3634 634 3220 271 
Q 2806 -91 2034 -91 
Q 1263 -91 848 271 
Q 434 634 434 1313 
Q 434 1759 690 2068 
Q 947 2378 1403 2484 
z
M 1172 3481 
Q 1172 3119 1398 2916 
Q 1625 2713 2034 2713 
Q 2441 2713 2670 2916 
Q 2900 3119 2900 3481 
Q 2900 3844 2670 4047 
Q 2441 4250 2034 4250 
Q 1625 4250 1398 4047 
Q 1172 3844 1172 3481 
z
" id="DejaVuSans-38" transform="scale(0.015625)"/>
       </defs>
       <use xlink:href="#DejaVuSans-38"/>
       <use x="63.623047" xlink:href="#DejaVuSans-30"/>
       <use x="127.246094" xlink:href="#DejaVuSans-30"/>
      </g>
     </g>
    </g>
    <g id="xtick_6">
     <g id="line2d_6">
      <g>
       <use style="stroke:#000000;stroke-width:0.8;" x="678.66" xlink:href="#m3c24cef27b" y="507.745"/>
      </g>
     </g>
     <g id="text_6">
      <!-- 1000 -->
      <g transform="translate(648.12 532.98125)scale(0.24 -0.24)">
       <defs>
        <path d="M 794 531 
L 1825 531 
L 1825 4091 
L 703 3866 
L 703 4441 
L 1819 4666 
L 2450 4666 
L 2450 531 
L 3481 531 
L 3481 0 
L 794 0 
L 794 531 
z
" id="DejaVuSans-31" transform="scale(0.015625)"/>
       </defs>
       <use xlink:href="#DejaVuSans-31"/>
       <use x="63.623047" xlink:href="#DejaVuSans-30"/>
       <use x="127.246094" xlink:href="#DejaVuSans-30"/>
       <use x="190.869141" xlink:href="#DejaVuSans-30"/>
      </g>
     </g>
    </g>
    <g id="text_7">
     <!-- iterations -->
     <g transform="translate(312.533125 560.20875)scale(0.24 -0.24)">
      <defs>
       <path d="M 603 3500 
L 1178 3500 
L 1178 0 
L 603 0 
L 603 3500 
z
M 603 4863 
L 1178 4863 
L 1178 4134 
L 603 4134 
L 603 4863 
z
" id="DejaVuSans-69" transform="scale(0.015625)"/>
       <path d="M 1172 4494 
L 1172 3500 
L 2356 3500 
L 2356 3053 
L 1172 3053 
L 1172 1153 
Q 1172 725 1289 603 
Q 1406 481 1766 481 
L 2356 481 
L 2356 0 
L 1766 0 
Q 1100 0 847 248 
Q 594 497 594 1153 
L 594 3053 
L 172 3053 
L 172 3500 
L 594 3500 
L 594 4494 
L 1172 4494 
z
" id="DejaVuSans-74" transform="scale(0.015625)"/>
       <path d="M 3597 1894 
L 3597 1613 
L 953 1613 
Q 991 1019 1311 708 
Q 1631 397 2203 397 
Q 2534 397 2845 478 
Q 3156 559 3463 722 
L 3463 178 
Q 3153 47 2828 -22 
Q 2503 -91 2169 -91 
Q 1331 -91 842 396 
Q 353 884 353 1716 
Q 353 2575 817 3079 
Q 1281 3584 2069 3584 
Q 2775 3584 3186 3129 
Q 3597 2675 3597 1894 
z
M 3022 2063 
Q 3016 2534 2758 2815 
Q 2500 3097 2075 3097 
Q 1594 3097 1305 2825 
Q 1016 2553 972 2059 
L 3022 2063 
z
" id="DejaVuSans-65" transform="scale(0.015625)"/>
       <path d="M 2631 2963 
Q 2534 3019 2420 3045 
Q 2306 3072 2169 3072 
Q 1681 3072 1420 2755 
Q 1159 2438 1159 1844 
L 1159 0 
L 581 0 
L 581 3500 
L 1159 3500 
L 1159 2956 
Q 1341 3275 1631 3429 
Q 1922 3584 2338 3584 
Q 2397 3584 2469 3576 
Q 2541 3569 2628 3553 
L 2631 2963 
z
" id="DejaVuSans-72" transform="scale(0.015625)"/>
       <path d="M 2194 1759 
Q 1497 1759 1228 1600 
Q 959 1441 959 1056 
Q 959 750 1161 570 
Q 1363 391 1709 391 
Q 2188 391 2477 730 
Q 2766 1069 2766 1631 
L 2766 1759 
L 2194 1759 
z
M 3341 1997 
L 3341 0 
L 2766 0 
L 2766 531 
Q 2569 213 2275 61 
Q 1981 -91 1556 -91 
Q 1019 -91 701 211 
Q 384 513 384 1019 
Q 384 1609 779 1909 
Q 1175 2209 1959 2209 
L 2766 2209 
L 2766 2266 
Q 2766 2663 2505 2880 
Q 2244 3097 1772 3097 
Q 1472 3097 1187 3025 
Q 903 2953 641 2809 
L 641 3341 
Q 956 3463 1253 3523 
Q 1550 3584 1831 3584 
Q 2591 3584 2966 3190 
Q 3341 2797 3341 1997 
z
" id="DejaVuSans-61" transform="scale(0.015625)"/>
       <path d="M 1959 3097 
Q 1497 3097 1228 2736 
Q 959 2375 959 1747 
Q 959 1119 1226 758 
Q 1494 397 1959 397 
Q 2419 397 2687 759 
Q 2956 1122 2956 1747 
Q 2956 2369 2687 2733 
Q 2419 3097 1959 3097 
z
M 1959 3584 
Q 2709 3584 3137 3096 
Q 3566 2609 3566 1747 
Q 3566 888 3137 398 
Q 2709 -91 1959 -91 
Q 1206 -91 779 398 
Q 353 888 353 1747 
Q 353 2609 779 3096 
Q 1206 3584 1959 3584 
z
" id="DejaVuSans-6f" transform="scale(0.015625)"/>
       <path d="M 3513 2113 
L 3513 0 
L 2938 0 
L 2938 2094 
Q 2938 2591 2744 2837 
Q 2550 3084 2163 3084 
Q 1697 3084 1428 2787 
Q 1159 2491 1159 1978 
L 1159 0 
L 581 0 
L 581 3500 
L 1159 3500 
L 1159 2956 
Q 1366 3272 1645 3428 
Q 1925 3584 2291 3584 
Q 2894 3584 3203 3211 
Q 3513 2838 3513 2113 
z
" id="DejaVuSans-6e" transform="scale(0.015625)"/>
       <path d="M 2834 3397 
L 2834 2853 
Q 2591 2978 2328 3040 
Q 2066 3103 1784 3103 
Q 1356 3103 1142 2972 
Q 928 2841 928 2578 
Q 928 2378 1081 2264 
Q 1234 2150 1697 2047 
L 1894 2003 
Q 2506 1872 2764 1633 
Q 3022 1394 3022 966 
Q 3022 478 2636 193 
Q 2250 -91 1575 -91 
Q 1294 -91 989 -36 
Q 684 19 347 128 
L 347 722 
Q 666 556 975 473 
Q 1284 391 1588 391 
Q 1994 391 2212 530 
Q 2431 669 2431 922 
Q 2431 1156 2273 1281 
Q 2116 1406 1581 1522 
L 1381 1569 
Q 847 1681 609 1914 
Q 372 2147 372 2553 
Q 372 3047 722 3315 
Q 1072 3584 1716 3584 
Q 2034 3584 2315 3537 
Q 2597 3491 2834 3397 
z
" id="DejaVuSans-73" transform="scale(0.015625)"/>
      </defs>
      <use xlink:href="#DejaVuSans-69"/>
      <use x="27.783203" xlink:href="#DejaVuSans-74"/>
      <use x="66.992188" xlink:href="#DejaVuSans-65"/>
      <use x="128.515625" xlink:href="#DejaVuSans-72"/>
      <use x="169.628906" xlink:href="#DejaVuSans-61"/>
      <use x="230.908203" xlink:href="#DejaVuSans-74"/>
      <use x="270.117188" xlink:href="#DejaVuSans-69"/>
      <use x="297.900391" xlink:href="#DejaVuSans-6f"/>
      <use x="359.082031" xlink:href="#DejaVuSans-6e"/>
      <use x="422.460938" xlink:href="#DejaVuSans-73"/>
     </g>
    </g>
   </g>
   <g id="matplotlib.axis_2">
    <g id="ytick_1">
     <g id="line2d_7">
      <defs>
       <path d="M 0 0 
L -3.5 0 
" id="md721828727" style="stroke:#000000;stroke-width:0.8;"/>
      </defs>
      <g>
       <use style="stroke:#000000;stroke-width:0.8;" x="60.2975" xlink:href="#md721828727" y="493.897861"/>
      </g>
     </g>
     <g id="text_8">
      <!-- 0 -->
      <g transform="translate(38.0275 503.015986)scale(0.24 -0.24)">
       <use xlink:href="#DejaVuSans-30"/>
      </g>
     </g>
    </g>
    <g id="ytick_2">
     <g id="line2d_8">
      <g>
       <use style="stroke:#000000;stroke-width:0.8;" x="60.2975" xlink:href="#md721828727" y="426.187352"/>
      </g>
     </g>
     <g id="text_9">
      <!-- 1 -->
      <g transform="translate(38.0275 435.305477)scale(0.24 -0.24)">
       <use xlink:href="#DejaVuSans-31"/>
      </g>
     </g>
    </g>
    <g id="ytick_3">
     <g id="line2d_9">
      <g>
       <use style="stroke:#000000;stroke-width:0.8;" x="60.2975" xlink:href="#md721828727" y="358.476844"/>
      </g>
     </g>
     <g id="text_10">
      <!-- 2 -->
      <g transform="translate(38.0275 367.594969)scale(0.24 -0.24)">
       <use xlink:href="#DejaVuSans-32"/>
      </g>
     </g>
    </g>
    <g id="ytick_4">
     <g id="line2d_10">
      <g>
       <use style="stroke:#000000;stroke-width:0.8;" x="60.2975" xlink:href="#md721828727" y="290.766335"/>
      </g>
     </g>
     <g id="text_11">
      <!-- 3 -->
      <g transform="translate(38.0275 299.88446)scale(0.24 -0.24)">
       <defs>
        <path d="M 2597 2516 
Q 3050 2419 3304 2112 
Q 3559 1806 3559 1356 
Q 3559 666 3084 287 
Q 2609 -91 1734 -91 
Q 1441 -91 1130 -33 
Q 819 25 488 141 
L 488 750 
Q 750 597 1062 519 
Q 1375 441 1716 441 
Q 2309 441 2620 675 
Q 2931 909 2931 1356 
Q 2931 1769 2642 2001 
Q 2353 2234 1838 2234 
L 1294 2234 
L 1294 2753 
L 1863 2753 
Q 2328 2753 2575 2939 
Q 2822 3125 2822 3475 
Q 2822 3834 2567 4026 
Q 2313 4219 1838 4219 
Q 1578 4219 1281 4162 
Q 984 4106 628 3988 
L 628 4550 
Q 988 4650 1302 4700 
Q 1616 4750 1894 4750 
Q 2613 4750 3031 4423 
Q 3450 4097 3450 3541 
Q 3450 3153 3228 2886 
Q 3006 2619 2597 2516 
z
" id="DejaVuSans-33" transform="scale(0.015625)"/>
       </defs>
       <use xlink:href="#DejaVuSans-33"/>
      </g>
     </g>
    </g>
    <g id="ytick_5">
     <g id="line2d_11">
      <g>
       <use style="stroke:#000000;stroke-width:0.8;" x="60.2975" xlink:href="#md721828727" y="223.055827"/>
      </g>
     </g>
     <g id="text_12">
      <!-- 4 -->
      <g transform="translate(38.0275 232.173952)scale(0.24 -0.24)">
       <use xlink:href="#DejaVuSans-34"/>
      </g>
     </g>
    </g>
    <g id="ytick_6">
     <g id="line2d_12">
      <g>
       <use style="stroke:#000000;stroke-width:0.8;" x="60.2975" xlink:href="#md721828727" y="155.345319"/>
      </g>
     </g>
     <g id="text_13">
      <!-- 5 -->
      <g transform="translate(38.0275 164.463444)scale(0.24 -0.24)">
       <defs>
        <path d="M 691 4666 
L 3169 4666 
L 3169 4134 
L 1269 4134 
L 1269 2991 
Q 1406 3038 1543 3061 
Q 1681 3084 1819 3084 
Q 2600 3084 3056 2656 
Q 3513 2228 3513 1497 
Q 3513 744 3044 326 
Q 2575 -91 1722 -91 
Q 1428 -91 1123 -41 
Q 819 9 494 109 
L 494 744 
Q 775 591 1075 516 
Q 1375 441 1709 441 
Q 2250 441 2565 725 
Q 2881 1009 2881 1497 
Q 2881 1984 2565 2268 
Q 2250 2553 1709 2553 
Q 1456 2553 1204 2497 
Q 953 2441 691 2322 
L 691 4666 
z
" id="DejaVuSans-35" transform="scale(0.015625)"/>
       </defs>
       <use xlink:href="#DejaVuSans-35"/>
      </g>
     </g>
    </g>
    <g id="ytick_7">
     <g id="line2d_13">
      <g>
       <use style="stroke:#000000;stroke-width:0.8;" x="60.2975" xlink:href="#md721828727" y="87.63481"/>
      </g>
     </g>
     <g id="text_14">
      <!-- 6 -->
      <g transform="translate(38.0275 96.752935)scale(0.24 -0.24)">
       <use xlink:href="#DejaVuSans-36"/>
      </g>
     </g>
    </g>
    <g id="ytick_8">
     <g id="line2d_14">
      <g>
       <use style="stroke:#000000;stroke-width:0.8;" x="60.2975" xlink:href="#md721828727" y="19.924302"/>
      </g>
     </g>
     <g id="text_15">
      <!-- 7 -->
      <g transform="translate(38.0275 29.042427)scale(0.24 -0.24)">
       <defs>
        <path d="M 525 4666 
L 3525 4666 
L 3525 4397 
L 1831 0 
L 1172 0 
L 2766 4134 
L 525 4134 
L 525 4666 
z
" id="DejaVuSans-37" transform="scale(0.015625)"/>
       </defs>
       <use xlink:href="#DejaVuSans-37"/>
      </g>
     </g>
    </g>
    <g id="text_16">
     <!-- VQE energy -->
     <g transform="translate(29.03625 333.543879)rotate(-90)scale(0.24 -0.24)">
      <defs>
       <path d="M 1831 0 
L 50 4666 
L 709 4666 
L 2188 738 
L 3669 4666 
L 4325 4666 
L 2547 0 
L 1831 0 
z
" id="DejaVuSans-56" transform="scale(0.015625)"/>
       <path d="M 2522 4238 
Q 1834 4238 1429 3725 
Q 1025 3213 1025 2328 
Q 1025 1447 1429 934 
Q 1834 422 2522 422 
Q 3209 422 3611 934 
Q 4013 1447 4013 2328 
Q 4013 3213 3611 3725 
Q 3209 4238 2522 4238 
z
M 3406 84 
L 4238 -825 
L 3475 -825 
L 2784 -78 
Q 2681 -84 2626 -87 
Q 2572 -91 2522 -91 
Q 1538 -91 948 567 
Q 359 1225 359 2328 
Q 359 3434 948 4092 
Q 1538 4750 2522 4750 
Q 3503 4750 4090 4092 
Q 4678 3434 4678 2328 
Q 4678 1516 4351 937 
Q 4025 359 3406 84 
z
" id="DejaVuSans-51" transform="scale(0.015625)"/>
       <path d="M 628 4666 
L 3578 4666 
L 3578 4134 
L 1259 4134 
L 1259 2753 
L 3481 2753 
L 3481 2222 
L 1259 2222 
L 1259 531 
L 3634 531 
L 3634 0 
L 628 0 
L 628 4666 
z
" id="DejaVuSans-45" transform="scale(0.015625)"/>
       <path id="DejaVuSans-20" transform="scale(0.015625)"/>
       <path d="M 2906 1791 
Q 2906 2416 2648 2759 
Q 2391 3103 1925 3103 
Q 1463 3103 1205 2759 
Q 947 2416 947 1791 
Q 947 1169 1205 825 
Q 1463 481 1925 481 
Q 2391 481 2648 825 
Q 2906 1169 2906 1791 
z
M 3481 434 
Q 3481 -459 3084 -895 
Q 2688 -1331 1869 -1331 
Q 1566 -1331 1297 -1286 
Q 1028 -1241 775 -1147 
L 775 -588 
Q 1028 -725 1275 -790 
Q 1522 -856 1778 -856 
Q 2344 -856 2625 -561 
Q 2906 -266 2906 331 
L 2906 616 
Q 2728 306 2450 153 
Q 2172 0 1784 0 
Q 1141 0 747 490 
Q 353 981 353 1791 
Q 353 2603 747 3093 
Q 1141 3584 1784 3584 
Q 2172 3584 2450 3431 
Q 2728 3278 2906 2969 
L 2906 3500 
L 3481 3500 
L 3481 434 
z
" id="DejaVuSans-67" transform="scale(0.015625)"/>
       <path d="M 2059 -325 
Q 1816 -950 1584 -1140 
Q 1353 -1331 966 -1331 
L 506 -1331 
L 506 -850 
L 844 -850 
Q 1081 -850 1212 -737 
Q 1344 -625 1503 -206 
L 1606 56 
L 191 3500 
L 800 3500 
L 1894 763 
L 2988 3500 
L 3597 3500 
L 2059 -325 
z
" id="DejaVuSans-79" transform="scale(0.015625)"/>
      </defs>
      <use xlink:href="#DejaVuSans-56"/>
      <use x="68.408203" xlink:href="#DejaVuSans-51"/>
      <use x="147.119141" xlink:href="#DejaVuSans-45"/>
      <use x="210.302734" xlink:href="#DejaVuSans-20"/>
      <use x="242.089844" xlink:href="#DejaVuSans-65"/>
      <use x="303.613281" xlink:href="#DejaVuSans-6e"/>
      <use x="366.992188" xlink:href="#DejaVuSans-65"/>
      <use x="428.515625" xlink:href="#DejaVuSans-72"/>
      <use x="467.878906" xlink:href="#DejaVuSans-67"/>
      <use x="531.355469" xlink:href="#DejaVuSans-79"/>
     </g>
    </g>
   </g>
   <g id="line2d_15">
    <path clip-path="url(#p43fed19697)" d="M 60.915862 142.200183 
L 61.534225 71.518846 
L 62.152587 119.64107 
L 62.77095 111.258267 
L 63.389312 110.269816 
L 64.007675 124.462847 
L 64.626037 132.256385 
L 65.2444 131.575667 
L 65.862763 149.750922 
L 66.481125 191.354237 
L 67.099487 184.445795 
L 68.336213 159.420765 
L 68.954575 195.535525 
L 69.572937 164.252994 
L 70.1913 222.861849 
L 70.809663 196.848327 
L 71.428025 211.990197 
L 72.046387 223.213879 
L 72.66475 177.908431 
L 73.283113 200.222759 
L 73.901475 211.067249 
L 74.519837 233.187154 
L 75.1382 225.800165 
L 75.756563 234.430216 
L 76.374925 245.477531 
L 76.993287 290.004551 
L 78.230012 295.148535 
L 78.848375 274.100238 
L 79.466737 275.107184 
L 80.0851 300.653826 
L 80.703463 285.115881 
L 81.321825 306.813776 
L 81.940187 285.318849 
L 82.55855 308.164685 
L 83.176912 279.00023 
L 83.795275 318.455264 
L 84.413637 311.047278 
L 85.032 233.778861 
L 85.650362 313.024618 
L 86.268725 290.416033 
L 86.887087 308.677138 
L 87.50545 285.037218 
L 88.123812 316.389871 
L 88.742175 299.028913 
L 89.360537 342.824309 
L 89.9789 365.894029 
L 90.597262 371.454355 
L 91.215625 360.162734 
L 91.833987 368.471363 
L 92.45235 369.375463 
L 93.070712 376.305277 
L 93.689075 387.897939 
L 94.307437 385.09463 
L 94.9258 338.423366 
L 95.544162 368.364381 
L 96.162525 346.585703 
L 96.780887 372.755964 
L 97.39925 403.757626 
L 98.017612 412.015049 
L 98.635975 373.498107 
L 99.254337 403.840713 
L 99.8727 370.041111 
L 100.491062 401.797693 
L 101.109425 390.118096 
L 101.727787 388.569452 
L 102.34615 390.862131 
L 102.964512 410.217424 
L 103.582875 398.305704 
L 104.201237 413.988752 
L 104.8196 397.664275 
L 105.437962 405.242736 
L 106.056325 400.647071 
L 106.674687 418.840019 
L 107.29305 392.145597 
L 107.911412 405.792968 
L 108.529775 404.227822 
L 109.148137 406.552947 
L 109.7665 380.130672 
L 110.384862 408.656865 
L 111.003225 404.548916 
L 111.621587 421.192898 
L 112.23995 377.019443 
L 112.858312 418.48423 
L 113.476675 379.659726 
L 114.095037 403.573734 
L 114.7134 384.980717 
L 115.331762 422.205348 
L 115.950125 382.895245 
L 116.568487 402.177023 
L 117.18685 390.395647 
L 117.805212 407.402244 
L 118.423575 415.796841 
L 119.041937 413.738796 
L 119.6603 390.792662 
L 120.278662 404.62599 
L 120.897025 390.577308 
L 121.515387 413.735928 
L 122.13375 414.031406 
L 122.752112 419.414862 
L 123.370475 420.701881 
L 123.988837 427.370494 
L 124.6072 426.401338 
L 125.225562 425.962473 
L 125.843925 426.056218 
L 126.462287 422.887285 
L 127.08065 425.040288 
L 127.699012 423.452259 
L 128.317375 417.823579 
L 128.935737 424.154252 
L 129.5541 417.819254 
L 130.172462 424.177422 
L 130.790825 424.038504 
L 131.409187 428.495904 
L 132.02755 423.597172 
L 132.645912 415.40172 
L 133.264275 421.894139 
L 133.882637 422.478845 
L 134.501 427.618161 
L 135.119362 434.051655 
L 135.737725 429.387336 
L 136.356087 432.736395 
L 136.97445 428.834289 
L 137.592812 431.480135 
L 138.211175 424.922996 
L 138.829537 428.141289 
L 139.4479 422.255917 
L 140.066262 434.056527 
L 140.684625 432.50965 
L 141.302987 442.084271 
L 141.92135 433.93224 
L 142.539712 435.060363 
L 143.158075 437.506581 
L 143.776437 438.025703 
L 144.3948 441.268129 
L 145.013162 439.635483 
L 146.249887 437.830291 
L 146.86825 439.686085 
L 147.486612 433.745966 
L 148.104975 437.668716 
L 148.723337 444.596526 
L 149.3417 436.068807 
L 149.960062 446.929051 
L 150.578425 445.387893 
L 151.196787 433.001561 
L 151.81515 446.926975 
L 152.433512 431.60627 
L 153.051875 447.937284 
L 153.670237 447.407188 
L 154.2886 444.601509 
L 154.906962 444.775586 
L 155.525325 444.02682 
L 156.143687 442.866919 
L 156.76205 440.439428 
L 157.380412 434.279689 
L 157.998775 449.986179 
L 158.617137 450.634484 
L 159.2355 448.619267 
L 159.853862 449.920581 
L 160.472225 452.241467 
L 161.090587 447.809542 
L 161.70895 449.072115 
L 162.327312 443.170603 
L 162.945675 445.513246 
L 163.564037 450.28811 
L 164.1824 451.847417 
L 164.800762 442.396712 
L 166.037487 457.01629 
L 166.65585 458.861045 
L 167.274212 454.610941 
L 167.892575 459.294845 
L 168.510937 445.086707 
L 169.1293 456.039983 
L 169.747662 450.286881 
L 170.366025 456.960722 
L 170.984387 455.394644 
L 171.60275 458.048633 
L 172.221112 435.142689 
L 172.839475 455.714853 
L 173.457837 450.292157 
L 174.0762 457.697697 
L 174.694562 437.79857 
L 175.312925 463.844146 
L 175.931287 458.966489 
L 176.54965 458.835966 
L 177.168012 452.579982 
L 177.786375 462.178829 
L 178.404737 448.413498 
L 179.0231 462.158696 
L 179.641462 463.576672 
L 180.259825 466.328369 
L 180.878187 465.240217 
L 181.49655 468.653442 
L 182.114912 465.854966 
L 182.733275 467.36204 
L 183.351637 465.629622 
L 183.97 468.010236 
L 184.588362 465.599929 
L 185.206725 469.814975 
L 185.825087 469.975344 
L 187.061812 468.702356 
L 187.680175 463.80747 
L 188.298537 469.578588 
L 188.9169 469.041722 
L 189.535262 468.735476 
L 190.153625 469.146438 
L 190.771987 468.243622 
L 191.39035 473.534272 
L 192.008712 474.358038 
L 192.627075 474.561163 
L 193.245437 475.10628 
L 193.8638 472.692869 
L 194.482162 474.647604 
L 195.100525 474.006353 
L 195.718887 476.018285 
L 196.33725 474.727987 
L 196.955612 473.019017 
L 197.573975 475.512644 
L 198.192337 476.097266 
L 198.8107 474.486117 
L 199.429062 474.043543 
L 200.047425 475.503291 
L 200.665787 472.773027 
L 201.902512 476.706905 
L 202.520875 476.353615 
L 203.139237 475.663557 
L 203.7576 476.384823 
L 204.375962 475.229798 
L 204.994325 475.505254 
L 205.612687 477.602168 
L 206.23105 476.660949 
L 206.849412 477.761236 
L 207.467775 477.334552 
L 208.086137 477.852668 
L 208.7045 477.201848 
L 209.322862 472.312717 
L 209.941225 477.653838 
L 210.559587 475.95312 
L 211.17795 476.524796 
L 211.796312 478.198306 
L 212.414675 477.05502 
L 213.033037 476.605855 
L 213.6514 476.700798 
L 214.269762 472.534212 
L 214.888125 478.157847 
L 215.506487 475.259683 
L 216.743212 477.694899 
L 217.361575 477.057343 
L 217.979937 474.98572 
L 218.5983 477.637875 
L 219.216662 476.455926 
L 219.835025 478.710638 
L 220.453387 475.885527 
L 221.07175 478.25325 
L 221.690112 475.767516 
L 222.308475 478.433428 
L 222.926837 475.347134 
L 223.5452 477.444797 
L 224.163562 478.677846 
L 224.781925 478.304088 
L 225.400287 475.919235 
L 226.01865 477.810336 
L 226.637012 477.238392 
L 227.255375 478.090238 
L 227.873737 476.707189 
L 228.4921 478.336737 
L 229.110462 475.691489 
L 229.728825 476.749525 
L 230.347187 478.032129 
L 230.96555 479.958583 
L 231.583912 479.536899 
L 232.202275 479.67552 
L 232.820637 480.099713 
L 233.439 479.22693 
L 234.057362 479.746285 
L 234.675725 479.06099 
L 235.294087 479.863024 
L 235.91245 479.371714 
L 236.530812 479.695813 
L 237.149175 480.52148 
L 237.767537 480.204806 
L 238.3859 479.691672 
L 239.004262 480.712398 
L 239.622625 479.651838 
L 240.85935 480.806332 
L 241.477712 480.857742 
L 242.096075 479.762576 
L 243.3328 481.374662 
L 243.951162 480.598375 
L 244.569525 480.495484 
L 245.187887 481.317864 
L 245.80625 480.130728 
L 246.424612 481.05658 
L 247.042975 481.169027 
L 247.661337 480.754813 
L 248.2797 481.343881 
L 248.898062 481.311259 
L 249.516425 482.039165 
L 250.134787 482.162411 
L 250.75315 481.894542 
L 251.371512 482.061016 
L 251.989875 481.921041 
L 252.608237 481.925106 
L 253.2266 482.502515 
L 253.844962 482.501847 
L 254.463325 481.767925 
L 255.081687 482.216513 
L 255.70005 482.513884 
L 259.410225 482.192484 
L 260.028587 482.420507 
L 260.64695 482.022102 
L 261.265312 482.539619 
L 261.883675 481.532147 
L 262.502037 482.193 
L 263.1204 481.517575 
L 263.738762 482.580495 
L 264.357125 481.939401 
L 264.975487 482.49886 
L 265.59385 482.587974 
L 266.212212 482.391281 
L 266.830575 481.897777 
L 268.0673 482.583728 
L 268.685662 482.684121 
L 269.304025 481.550355 
L 269.922387 482.362605 
L 270.54075 481.781893 
L 271.159112 482.684442 
L 271.777475 482.70178 
L 272.395837 482.582194 
L 273.0142 482.210618 
L 273.632562 482.582775 
L 274.250925 482.6956 
L 274.869287 482.625735 
L 275.48765 482.063466 
L 276.106012 482.920776 
L 276.724375 482.252775 
L 277.342737 482.093864 
L 278.579462 482.809885 
L 279.816187 483.074484 
L 280.43455 482.223575 
L 281.052912 482.747685 
L 281.671275 482.453761 
L 282.908 482.763241 
L 283.526362 482.647945 
L 284.144725 482.833549 
L 284.763087 482.858098 
L 285.38145 482.702405 
L 285.999812 483.14806 
L 286.618175 482.973746 
L 287.236537 483.103019 
L 287.8549 482.252589 
L 288.473262 482.996801 
L 289.091625 483.287413 
L 290.32835 482.991062 
L 290.946712 483.026295 
L 291.565075 482.82585 
L 292.183437 483.02867 
L 292.8018 482.631925 
L 293.420162 483.116553 
L 294.038525 482.709836 
L 295.27525 482.873583 
L 295.893612 483.304149 
L 296.511975 483.077648 
L 297.130337 483.260931 
L 297.7487 482.468995 
L 298.367062 483.309292 
L 298.985425 483.290759 
L 299.603787 482.912594 
L 300.22215 483.212795 
L 301.458875 483.514943 
L 302.077237 483.269854 
L 303.932325 483.454548 
L 304.550687 483.503917 
L 305.16905 483.437249 
L 305.787412 483.632705 
L 306.405775 483.545515 
L 307.6425 483.643485 
L 310.11595 483.606611 
L 310.734312 483.347716 
L 311.352675 483.5812 
L 312.5894 483.695569 
L 313.207762 483.55111 
L 314.444487 483.722426 
L 316.299575 483.644597 
L 316.917937 483.941451 
L 317.5363 483.927419 
L 318.154662 483.766251 
L 319.391387 483.984641 
L 322.4832 483.947055 
L 323.101562 484.015878 
L 323.719925 483.840828 
L 324.338287 483.824233 
L 324.95665 483.999174 
L 325.575012 483.868233 
L 326.193375 483.986196 
L 327.4301 484.012134 
L 328.048462 483.83688 
L 328.666825 483.945285 
L 331.140275 483.906806 
L 333.613725 483.945922 
L 337.3239 483.973482 
L 337.942262 484.079262 
L 339.178987 483.925357 
L 339.79735 484.048265 
L 341.034075 484.055465 
L 351.546237 484.152466 
L 354.019687 484.127345 
L 358.966587 484.230321 
L 363.295125 484.354313 
L 372.570562 484.360912 
L 373.807287 484.417957 
L 379.990912 484.382295 
L 381.227637 484.46099 
L 383.701087 484.432427 
L 384.937812 484.472554 
L 386.174537 484.489746 
L 392.976525 484.54001 
L 398.541787 484.570997 
L 400.396875 484.55539 
L 401.6336 484.602414 
L 402.251962 484.509082 
L 403.488687 484.621433 
L 405.962137 484.61771 
L 409.05395 484.635054 
L 410.909037 484.601534 
L 412.764125 484.639368 
L 414.00085 484.627776 
L 425.749737 484.629352 
L 427.604825 484.658286 
L 449.865875 484.725793 
L 451.720962 484.697522 
L 455.431137 484.749236 
L 459.759675 484.740393 
L 466.561662 484.769909 
L 503.663412 484.842162 
L 506.136862 484.832783 
L 514.793937 484.871663 
L 518.504112 484.864973 
L 539.528437 484.902927 
L 543.856975 484.914491 
L 554.369137 484.921215 
L 679.278362 485.068874 
L 679.278362 485.068874 
" style="fill:none;stroke:#1f77b4;stroke-linecap:square;stroke-width:3;"/>
   </g>
   <g id="line2d_16">
    <path clip-path="url(#p43fed19697)" d="M 60.915862 90.894438 
L 83.176912 90.894437 
L 83.795275 251.708599 
L 106.056325 251.708599 
L 106.674687 382.79306 
L 128.935737 382.793061 
L 129.5541 403.275386 
L 151.81515 403.275386 
L 152.433512 470.796022 
L 174.694562 470.796022 
L 175.312925 473.44687 
L 175.931287 480.867278 
L 198.192337 480.867278 
L 198.8107 483.147188 
L 221.07175 483.147188 
L 221.690112 484.185864 
L 243.951162 484.185864 
L 244.569525 484.453868 
L 266.830575 484.453868 
L 267.448937 484.572781 
L 289.709987 484.572781 
L 290.32835 484.702762 
L 312.5894 484.702762 
L 313.207762 484.877592 
L 358.348225 484.944498 
L 359.58495 485.010505 
L 426.986462 485.109303 
L 428.223187 485.183161 
L 472.745287 485.284855 
L 473.982012 485.380032 
L 495.6247 485.380032 
L 496.243062 485.233884 
L 496.861425 485.399666 
L 634.756262 485.437758 
L 634.756262 485.437758 
" style="fill:none;stroke:#ff7f0e;stroke-linecap:square;stroke-width:3;"/>
   </g>
   <g id="line2d_17">
    <path clip-path="url(#p43fed19697)" d="M 60.915862 90.894438 
L 83.176912 90.894437 
L 83.795275 251.708591 
L 106.056325 251.708591 
L 106.674687 356.085798 
L 128.935737 356.085799 
L 129.5541 215.040021 
L 151.81515 215.040021 
L 152.433512 409.858556 
L 174.694562 409.858557 
L 175.312925 445.53354 
L 197.573975 445.53354 
L 198.192337 463.024097 
L 220.453387 463.024097 
L 221.07175 480.170487 
L 243.3328 480.170487 
L 243.951162 482.824465 
L 266.212212 482.824465 
L 266.830575 483.825954 
L 289.091625 483.825954 
L 289.709987 484.332083 
L 311.971037 484.332083 
L 312.5894 484.526486 
L 357.729862 484.629203 
L 358.966587 484.702257 
L 380.609275 484.702257 
L 381.227637 484.846221 
L 426.3681 484.922356 
L 427.604825 485.014687 
L 495.006337 485.123113 
L 496.243062 485.220198 
L 563.644575 485.294259 
L 564.8813 485.364529 
L 586.523987 485.364529 
L 587.760712 485.251923 
L 609.4034 485.251923 
L 610.021762 485.39492 
L 679.278362 485.432118 
L 679.278362 485.432118 
" style="fill:none;stroke:#2ca02c;stroke-linecap:square;stroke-width:3;"/>
   </g>
   <g id="line2d_18">
    <path clip-path="url(#p43fed19697)" d="M 60.915862 41.9862 
L 61.534225 39.886723 
L 62.152587 42.281787 
L 62.77095 41.600092 
L 64.007675 41.92609 
L 64.626037 41.801067 
L 65.2444 41.310263 
L 66.481125 41.388007 
L 67.099487 42.404725 
L 67.71785 41.473733 
L 68.954575 42.127246 
L 69.572937 42.059354 
L 70.1913 42.173008 
L 70.809663 41.681993 
L 71.428025 42.470479 
L 72.046387 41.985405 
L 72.66475 42.259933 
L 73.901475 41.705662 
L 74.519837 41.008587 
L 75.1382 41.952568 
L 75.756563 41.721121 
L 76.374925 42.360976 
L 76.993287 41.771215 
L 77.61165 44.852866 
L 78.230012 40.84545 
L 78.848375 41.532258 
L 80.0851 41.596426 
L 81.321825 41.29579 
L 81.940187 41.31857 
L 82.55855 41.604961 
L 83.176912 41.079242 
L 83.795275 43.693978 
L 84.413637 42.946403 
L 86.887087 42.917357 
L 87.50545 42.914438 
L 88.742175 43.2037 
L 89.360537 43.071695 
L 94.307437 43.544076 
L 94.9258 43.763477 
L 95.544162 43.724479 
L 98.635975 44.159529 
L 99.254337 44.166349 
L 101.727787 44.542313 
L 104.201237 44.990165 
L 104.8196 46.532982 
L 105.437962 45.009727 
L 106.056325 45.092269 
L 106.674687 44.923523 
L 107.29305 44.901919 
L 114.7134 46.028993 
L 117.805212 46.385829 
L 118.423575 46.643046 
L 119.041937 48.32685 
L 119.6603 46.689018 
L 121.515387 46.948164 
L 123.370475 47.149019 
L 124.6072 47.277837 
L 130.790825 48.246706 
L 131.409187 48.379104 
L 132.02755 50.128776 
L 132.645912 48.510938 
L 133.264275 48.581489 
L 133.882637 48.791891 
L 135.737725 49.014263 
L 136.356087 48.960005 
L 136.97445 49.160325 
L 138.211175 49.324957 
L 141.92135 50.095799 
L 142.539712 49.997039 
L 143.776437 50.18814 
L 144.3948 51.931123 
L 145.013162 50.456004 
L 146.249887 50.549678 
L 150.578425 51.565459 
L 151.196787 51.890532 
L 151.81515 51.804313 
L 153.051875 52.029546 
L 153.670237 54.201663 
L 154.2886 52.208151 
L 154.906962 52.309171 
L 155.525325 52.654894 
L 156.143687 52.538198 
L 158.617137 52.902145 
L 161.70895 53.641041 
L 164.800762 54.184673 
L 165.419125 54.382575 
L 166.037487 56.699524 
L 166.65585 54.651276 
L 167.274212 55.423688 
L 168.510937 55.095985 
L 169.1293 55.415068 
L 170.984387 55.774349 
L 172.221112 56.101737 
L 174.0762 56.378758 
L 174.694562 56.38479 
L 175.931287 56.859611 
L 176.54965 59.493855 
L 177.168012 57.255468 
L 177.786375 57.167255 
L 178.404737 57.382711 
L 179.641462 57.610152 
L 180.259825 57.888503 
L 180.878187 58.695012 
L 181.49655 58.465327 
L 182.114912 58.521135 
L 182.733275 58.7205 
L 183.97 58.882497 
L 185.825087 59.511378 
L 186.44345 62.519892 
L 187.061812 59.889088 
L 188.298537 60.411038 
L 189.535262 60.880098 
L 190.771987 60.756793 
L 191.39035 60.994123 
L 192.008712 60.96159 
L 192.627075 61.305743 
L 195.718887 62.169968 
L 196.955612 62.566084 
L 197.573975 65.736053 
L 198.192337 63.145115 
L 198.8107 63.493776 
L 199.429062 63.709851 
L 200.047425 64.118962 
L 200.665787 63.919278 
L 201.28415 64.126706 
L 202.520875 64.7892 
L 203.7576 65.151347 
L 204.375962 64.890371 
L 206.849412 66.023926 
L 207.467775 69.799667 
L 208.086137 66.611333 
L 209.322862 66.949123 
L 209.941225 67.950406 
L 210.559587 67.159647 
L 211.17795 67.356504 
L 212.414675 67.550692 
L 213.6514 68.191644 
L 216.12485 69.819481 
L 216.743212 74.713611 
L 217.361575 69.970814 
L 218.5983 70.575908 
L 219.835025 71.226711 
L 221.07175 71.800442 
L 221.690112 71.639375 
L 222.926837 71.985731 
L 223.5452 72.187147 
L 224.781925 72.99727 
L 226.01865 73.233705 
L 227.255375 73.972688 
L 228.4921 74.719739 
L 229.110462 79.524042 
L 229.728825 75.740915 
L 230.347187 75.711658 
L 230.96555 76.218907 
L 231.583912 75.862891 
L 234.057362 77.151772 
L 235.294087 78.165675 
L 235.91245 78.521509 
L 236.530812 79.12646 
L 237.149175 79.315283 
L 237.767537 79.333816 
L 238.3859 79.650424 
L 239.004262 85.206031 
L 239.622625 80.296804 
L 240.240987 80.246834 
L 241.477712 80.902381 
L 243.951162 81.826033 
L 247.042975 84.361029 
L 247.661337 84.708514 
L 248.2797 84.77494 
L 248.898062 85.429006 
L 249.516425 91.850201 
L 250.134787 86.325542 
L 250.75315 86.527484 
L 251.989875 87.40944 
L 252.608237 87.567842 
L 253.2266 87.196791 
L 253.844962 87.897843 
L 255.70005 89.283875 
L 256.318412 89.838549 
L 258.1735 90.694063 
L 258.791862 90.857147 
L 259.410225 91.146526 
L 260.028587 92.194082 
L 260.64695 99.963305 
L 261.265312 92.24335 
L 262.502037 93.832056 
L 263.1204 93.678269 
L 266.830575 96.947678 
L 267.448937 97.565546 
L 268.0673 97.699261 
L 268.685662 98.228063 
L 269.304025 98.281475 
L 269.922387 98.69622 
L 270.54075 98.925487 
L 271.159112 99.456285 
L 271.777475 100.209109 
L 272.395837 107.886742 
L 273.0142 101.022596 
L 273.632562 100.660628 
L 274.250925 101.32426 
L 274.869287 101.61169 
L 276.106012 102.818174 
L 276.724375 104.125687 
L 277.9611 104.588489 
L 279.197825 105.382017 
L 279.816187 105.682589 
L 281.052912 106.782639 
L 282.289637 108.342894 
L 282.908 117.088277 
L 283.526362 109.682216 
L 284.144725 109.786141 
L 284.763087 110.329608 
L 285.38145 110.364253 
L 285.999812 110.706872 
L 286.618175 111.292432 
L 287.236537 112.093741 
L 289.709987 113.650438 
L 290.946712 114.234642 
L 291.565075 115.219656 
L 292.183437 115.503559 
L 292.8018 116.507463 
L 293.420162 117.034388 
L 294.038525 117.864394 
L 294.656887 127.068817 
L 295.27525 118.867035 
L 295.893612 119.560299 
L 296.511975 119.737694 
L 297.7487 121.074807 
L 298.367062 121.907809 
L 298.985425 122.263109 
L 299.603787 122.9221 
L 300.22215 122.77706 
L 301.458875 124.21762 
L 302.6956 125.326039 
L 303.313962 126.208302 
L 304.550687 127.15759 
L 305.16905 136.330422 
L 305.787412 128.133225 
L 306.405775 129.071423 
L 307.024137 128.04768 
L 307.6425 129.069319 
L 308.260862 129.634889 
L 308.879225 130.687387 
L 309.497587 131.441208 
L 310.11595 131.99851 
L 310.734312 132.221428 
L 312.5894 133.995814 
L 314.444487 136.826665 
L 315.06285 146.931934 
L 315.681212 137.207133 
L 316.299575 138.402347 
L 316.917937 138.4672 
L 317.5363 139.079508 
L 318.154662 139.998503 
L 318.773025 139.729088 
L 319.391387 142.509366 
L 320.00975 141.223981 
L 321.246475 142.280229 
L 321.864837 142.538344 
L 322.4832 143.395542 
L 323.101562 143.671845 
L 323.719925 144.942129 
L 324.338287 145.230704 
L 326.193375 146.935077 
L 326.811737 155.531746 
L 327.4301 147.775288 
L 328.666825 148.975015 
L 330.521912 151.247275 
L 331.140275 151.680319 
L 331.758637 152.662503 
L 332.377 152.583159 
L 333.613725 153.61925 
L 334.232087 154.397108 
L 334.85045 154.979133 
L 335.468812 155.361446 
L 336.087175 156.402807 
L 336.705537 164.892358 
L 337.3239 156.970917 
L 337.942262 157.230919 
L 338.560625 158.252746 
L 339.178987 158.678201 
L 339.79735 158.333742 
L 340.415712 159.41947 
L 341.652437 160.38789 
L 342.2708 161.260401 
L 342.889162 160.997415 
L 344.125887 161.98777 
L 344.74425 161.885776 
L 345.362612 163.392068 
L 345.980975 163.586663 
L 346.599337 165.289181 
L 347.2177 173.312065 
L 347.836062 164.758397 
L 348.454425 166.150857 
L 349.072787 166.268463 
L 349.69115 166.927761 
L 350.309512 166.483624 
L 350.927875 167.620503 
L 352.1646 168.588365 
L 352.782962 168.507655 
L 353.401325 169.081628 
L 354.019687 168.430867 
L 354.63805 169.802723 
L 355.256412 170.068511 
L 355.874775 170.175813 
L 356.493137 171.027591 
L 357.1115 171.251251 
L 357.729862 171.764473 
L 358.348225 172.007385 
L 358.966587 172.626042 
L 359.58495 172.842003 
L 360.203312 172.909302 
L 360.821675 173.511223 
L 361.440037 177.867814 
L 362.0584 173.098399 
L 362.676762 174.254624 
L 363.295125 173.802521 
L 363.913487 174.46621 
L 364.53185 174.558766 
L 365.150212 175.007391 
L 365.768575 175.316282 
L 366.386937 175.046656 
L 367.0053 175.867281 
L 367.623662 178.220342 
L 368.242025 183.303778 
L 368.860387 177.04714 
L 369.47875 177.309499 
L 370.097112 177.988603 
L 370.715475 178.164602 
L 371.333837 177.142135 
L 371.9522 176.940905 
L 372.570562 177.802115 
L 373.188925 179.280309 
L 373.807287 178.093869 
L 374.42565 178.289349 
L 375.044012 178.297941 
L 375.662375 180.136053 
L 376.280737 179.289623 
L 376.8991 178.98737 
L 377.517462 179.315107 
L 378.135825 179.360491 
L 378.754187 179.259405 
L 379.37255 180.578124 
L 379.990912 179.83622 
L 380.609275 180.05667 
L 381.227637 179.918657 
L 381.846 180.106116 
L 382.464362 179.795561 
L 383.082725 179.772883 
L 383.701087 180.111297 
L 384.31945 181.11909 
L 384.937812 176.769631 
L 385.556175 181.349384 
L 386.174537 180.09372 
L 386.7929 180.649962 
L 387.411262 180.939897 
L 388.029625 180.763285 
L 388.647987 181.81111 
L 389.26635 180.850204 
L 389.884712 180.955805 
L 390.503075 179.994962 
L 391.121437 182.29983 
L 391.7398 181.664756 
L 392.358162 182.438525 
L 392.976525 181.26692 
L 393.594887 182.014725 
L 394.21325 181.150997 
L 394.831612 180.782751 
L 395.449975 182.252516 
L 396.068337 180.136486 
L 396.6867 182.063974 
L 397.305062 182.33901 
L 397.923425 182.263424 
L 398.541787 182.794806 
L 399.16015 179.743031 
L 399.778512 181.646436 
L 400.396875 182.205005 
L 401.015237 182.237752 
L 401.6336 180.57692 
L 402.251962 182.727934 
L 402.870325 183.315372 
L 403.488687 184.630836 
L 404.10705 182.845256 
L 404.725412 183.150713 
L 405.343775 176.443882 
L 405.962137 182.268996 
L 406.5805 182.847852 
L 407.198862 183.904101 
L 407.817225 183.408148 
L 408.435587 183.97523 
L 409.05395 179.903984 
L 410.290675 183.818003 
L 410.909037 180.284812 
L 411.5274 182.051935 
L 412.145762 182.191988 
L 412.764125 184.218942 
L 414.619212 184.66185 
L 415.237575 186.503017 
L 415.855937 184.861451 
L 416.4743 185.16765 
L 417.092662 184.279123 
L 417.711025 185.305864 
L 418.329387 185.493219 
L 418.94775 184.981866 
L 419.566112 184.944554 
L 420.184475 185.630929 
L 420.802837 185.669778 
L 421.4212 184.296812 
L 422.039562 185.748136 
L 422.657925 184.459455 
L 423.276287 186.208119 
L 423.89465 184.65597 
L 424.513012 186.000319 
L 425.131375 186.110804 
L 425.749737 186.747869 
L 426.3681 189.03509 
L 426.986462 187.155147 
L 427.604825 184.494567 
L 428.223187 186.813355 
L 428.84155 187.561807 
L 430.078275 187.440743 
L 430.696637 188.028196 
L 431.315 187.983534 
L 431.933362 188.310725 
L 432.551725 188.372187 
L 433.170087 185.641502 
L 433.78845 188.382035 
L 434.406812 186.740472 
L 435.025175 188.602373 
L 435.643537 188.807959 
L 436.2619 188.791046 
L 436.880262 188.485339 
L 437.498625 187.913577 
L 438.116987 189.393204 
L 438.73535 192.094338 
L 439.353712 189.174153 
L 439.972075 188.254281 
L 440.590437 186.992878 
L 441.2088 189.417239 
L 441.827162 188.960914 
L 442.445525 190.390312 
L 443.063887 189.981742 
L 443.68225 190.254415 
L 444.300612 190.870536 
L 444.918975 191.134466 
L 446.1557 191.330947 
L 446.774062 188.189946 
L 447.392425 191.598914 
L 448.010787 191.989057 
L 448.62915 192.093146 
L 449.247512 191.988952 
L 449.865875 192.635491 
L 450.484237 195.901996 
L 451.720962 190.412701 
L 452.339325 191.787494 
L 452.957687 190.388957 
L 453.57605 192.984695 
L 454.194412 192.550012 
L 454.812775 192.667047 
L 455.431137 193.808158 
L 456.0495 192.862426 
L 456.667862 193.949147 
L 457.286225 193.95835 
L 457.904587 190.712183 
L 458.52295 192.919369 
L 459.141312 194.209045 
L 459.759675 194.715891 
L 460.378037 195.053316 
L 460.9964 194.979671 
L 462.233125 195.974701 
L 462.851487 199.799829 
L 463.46985 196.465259 
L 464.088212 195.213379 
L 464.706575 197.06915 
L 465.9433 196.882166 
L 466.561662 196.520058 
L 467.180025 196.782299 
L 467.798387 194.965091 
L 468.41675 197.951298 
L 469.035112 194.723826 
L 469.653475 195.368884 
L 470.271837 198.3929 
L 470.8902 198.241072 
L 471.508562 198.934093 
L 472.126925 199.375812 
L 472.745287 199.293099 
L 473.36365 197.428226 
L 473.982012 199.275776 
L 475.218737 200.211528 
L 475.8371 204.244905 
L 476.455462 200.852352 
L 477.073825 200.414422 
L 477.692187 199.825177 
L 478.31055 200.995008 
L 478.928912 200.108183 
L 479.547275 202.526001 
L 480.165637 202.359816 
L 480.784 202.387848 
L 482.020725 202.820335 
L 482.639087 203.352907 
L 483.25745 203.16762 
L 483.875812 199.808552 
L 484.494175 201.390954 
L 485.112537 203.391353 
L 485.7309 204.082453 
L 486.349262 204.205735 
L 486.967625 202.156374 
L 487.585987 205.814709 
L 488.20435 211.363076 
L 488.822712 206.800126 
L 489.441075 206.264986 
L 490.059437 205.878355 
L 491.296162 206.171356 
L 491.914525 206.901406 
L 492.532887 208.462305 
L 493.15125 205.82964 
L 493.769612 208.46924 
L 495.006337 209.158404 
L 495.6247 208.965994 
L 496.243062 208.902484 
L 496.861425 209.390861 
L 497.479787 210.197007 
L 498.09815 209.9718 
L 498.716512 211.131093 
L 499.334875 206.12076 
L 499.953237 209.903034 
L 500.5716 210.593405 
L 501.189962 211.697111 
L 501.808325 216.281419 
L 502.426687 213.435074 
L 503.04505 213.226908 
L 503.663412 210.836627 
L 504.281775 210.667492 
L 504.900137 214.251403 
L 506.136862 214.723111 
L 506.755225 215.984389 
L 507.373587 215.567793 
L 507.99195 216.65267 
L 508.610312 223.966122 
L 509.228675 217.197906 
L 509.847037 217.472797 
L 510.4654 217.625022 
L 511.083762 217.070578 
L 511.702125 219.581416 
L 512.320487 215.654733 
L 512.93885 217.785934 
L 513.557212 219.180942 
L 514.175575 214.560253 
L 514.793937 220.112045 
L 515.4123 221.824027 
L 516.030662 221.400874 
L 516.649025 222.142716 
L 517.267387 221.638469 
L 517.88575 222.681271 
L 518.504112 222.418468 
L 519.122475 222.760975 
L 519.740837 224.501184 
L 520.3592 232.7501 
L 520.977562 225.456128 
L 521.595925 226.843345 
L 522.214287 225.326688 
L 522.83265 227.472408 
L 523.451012 229.184967 
L 524.069375 225.146857 
L 524.687737 225.524639 
L 525.3061 227.57972 
L 525.924462 231.442711 
L 526.542825 231.017535 
L 527.161187 229.694465 
L 527.77955 231.102352 
L 528.397912 230.882341 
L 529.016275 232.433361 
L 529.634637 225.81506 
L 530.253 234.117015 
L 530.871362 244.810167 
L 531.489725 232.854253 
L 532.108087 231.435085 
L 532.72645 235.872857 
L 533.344812 234.047095 
L 533.963175 235.446727 
L 534.581537 238.112315 
L 535.1999 237.606466 
L 536.436625 239.631955 
L 537.054987 239.25512 
L 537.67335 240.74908 
L 538.291712 240.341362 
L 538.910075 242.311236 
L 539.528437 242.80743 
L 540.1468 243.534804 
L 540.765162 242.390688 
L 541.383525 245.126971 
L 542.001887 256.588687 
L 542.62025 246.998054 
L 543.238612 246.938437 
L 543.856975 247.187213 
L 544.475337 242.810522 
L 545.0937 247.408102 
L 545.712062 249.340698 
L 546.330425 249.16327 
L 546.948787 245.931723 
L 547.56715 252.178783 
L 548.185512 252.603239 
L 548.803875 249.831338 
L 549.422237 253.494849 
L 550.0406 253.591905 
L 550.658962 255.3897 
L 551.277325 254.980956 
L 551.895687 257.438088 
L 552.51405 270.026784 
L 553.132412 254.625174 
L 553.750775 260.178113 
L 554.369137 261.278413 
L 554.9875 259.465854 
L 555.605862 262.669927 
L 556.224225 259.098153 
L 556.842587 260.151071 
L 557.46095 265.192046 
L 558.079312 263.857141 
L 558.697675 265.461736 
L 559.9344 265.892222 
L 560.552762 266.101069 
L 561.171125 267.327535 
L 561.789487 269.647546 
L 562.40785 269.160349 
L 563.026212 270.833241 
L 563.644575 281.415162 
L 564.262937 272.996103 
L 564.8813 267.312435 
L 565.499662 275.251255 
L 566.118025 272.627543 
L 566.736387 267.084567 
L 567.35475 273.506166 
L 567.973112 277.506683 
L 568.591475 279.303194 
L 569.209837 279.772913 
L 569.8282 277.241675 
L 570.446562 280.288562 
L 571.064925 276.128523 
L 571.683287 282.355633 
L 572.30165 294.37938 
L 572.920012 282.575772 
L 573.538375 284.587624 
L 574.156737 285.193707 
L 574.7751 282.059192 
L 575.393462 285.517955 
L 576.011825 286.542984 
L 576.630187 283.904984 
L 577.24855 285.958332 
L 577.866912 285.017213 
L 578.485275 286.785993 
L 579.103637 291.49917 
L 580.340362 288.648459 
L 580.958725 291.201221 
L 581.577087 290.549156 
L 582.19545 292.100867 
L 582.813812 291.294288 
L 583.432175 293.293012 
L 584.050537 294.274762 
L 584.6689 290.956619 
L 585.287262 290.595683 
L 585.905625 295.384479 
L 586.523987 295.602263 
L 587.14235 298.880323 
L 587.760712 304.201716 
L 588.379075 295.681856 
L 588.997437 295.826772 
L 589.6158 302.433441 
L 590.234162 299.273217 
L 590.852525 300.495089 
L 591.470887 300.578928 
L 592.08925 295.298174 
L 592.707612 294.316485 
L 593.325975 301.676804 
L 593.944337 297.370964 
L 594.5627 299.017298 
L 595.181062 301.3751 
L 595.799425 295.531462 
L 596.417787 299.463851 
L 597.03615 298.708333 
L 597.654512 304.184763 
L 598.272875 299.018888 
L 598.891237 302.73037 
L 599.5096 300.899682 
L 600.127962 303.198258 
L 600.746325 294.209328 
L 601.364687 303.149408 
L 601.98305 296.559935 
L 602.601412 301.098342 
L 603.219775 302.657701 
L 603.838137 302.07426 
L 604.4565 291.366165 
L 605.074862 296.161212 
L 605.693225 298.855754 
L 606.311587 303.192944 
L 606.92995 293.29596 
L 607.548312 294.708254 
L 608.166675 299.806747 
L 608.785037 298.12281 
L 609.4034 289.635126 
L 610.021762 300.196412 
L 610.640125 303.253278 
L 611.258487 294.659062 
L 611.87685 304.390918 
L 612.495212 301.276583 
L 613.113575 289.47584 
L 613.731937 301.062596 
L 614.3503 295.133365 
L 614.968662 296.413647 
L 615.587025 296.121537 
L 616.205387 297.588131 
L 616.82375 304.183335 
L 617.442112 302.262607 
L 618.060475 305.557883 
L 618.678837 303.298559 
L 619.2972 304.145994 
L 619.915562 297.756938 
L 620.533925 304.621879 
L 621.152287 295.497498 
L 621.77065 302.025408 
L 622.389012 301.489247 
L 623.007375 307.979959 
L 623.625737 309.325628 
L 624.2441 301.269814 
L 624.862462 299.193442 
L 625.480825 299.926657 
L 626.099187 306.563881 
L 626.71755 301.617337 
L 627.335912 306.031815 
L 627.954275 307.800075 
L 628.572637 295.553959 
L 629.191 304.070468 
L 629.809362 309.052897 
L 630.427725 310.021885 
L 631.046087 312.657993 
L 631.66445 298.975904 
L 632.282812 304.349102 
L 632.901175 301.719707 
L 633.519537 309.036491 
L 634.1379 306.651505 
L 635.374625 311.739984 
L 635.992987 307.520874 
L 636.61135 305.224441 
L 637.229712 300.697766 
L 637.848075 305.77595 
L 638.466437 312.168704 
L 639.0848 304.695713 
L 639.703162 300.645758 
L 640.321525 306.19116 
L 640.939887 310.166033 
L 641.55825 307.176397 
L 642.176612 308.628723 
L 642.794975 308.174458 
L 643.413337 309.640662 
L 644.0317 301.225958 
L 644.650062 307.104303 
L 645.268425 310.646358 
L 645.886787 312.354748 
L 646.50515 313.4319 
L 647.123512 316.130162 
L 647.741875 311.725354 
L 648.360237 315.551294 
L 648.9786 310.251389 
L 649.596962 313.587357 
L 650.215325 311.714445 
L 650.833687 307.616289 
L 651.45205 314.859961 
L 652.070412 316.145533 
L 652.688775 319.199734 
L 653.307137 316.357095 
L 653.9255 317.641232 
L 654.543862 309.033232 
L 655.162225 308.29275 
L 655.780587 314.270648 
L 656.39895 316.54524 
L 657.017312 315.385251 
L 657.635675 318.545286 
L 658.254037 317.558879 
L 658.8724 319.362652 
L 659.490762 322.613988 
L 660.109125 316.114649 
L 660.727487 318.538277 
L 661.34585 313.384587 
L 661.964212 318.752476 
L 662.582575 315.900247 
L 663.200937 319.130504 
L 663.8193 318.530164 
L 664.437662 309.427667 
L 665.056025 320.266878 
L 665.674387 314.094245 
L 666.29275 322.183976 
L 666.911112 324.19331 
L 667.529475 329.782998 
L 668.7662 318.680101 
L 669.384562 312.136048 
L 670.002925 321.431633 
L 670.621287 323.947439 
L 671.23965 320.33743 
L 671.858012 325.54881 
L 672.476375 322.843203 
L 673.094737 324.481279 
L 673.7131 327.627915 
L 674.331462 314.552325 
L 674.949825 328.632754 
L 675.568187 328.140663 
L 676.804912 319.36896 
L 677.423275 328.21595 
L 678.041637 321.99204 
L 678.66 327.07155 
L 679.278362 314.415833 
L 679.278362 314.415833 
" style="fill:none;stroke:#d62728;stroke-linecap:square;stroke-width:3;"/>
   </g>
   <g id="line2d_19">
    <path clip-path="url(#p43fed19697)" d="M 60.2975 426.187352 
L 678.66 426.187352 
" style="fill:none;stroke:#000000;stroke-dasharray:7.4,3.2;stroke-dashoffset:0;stroke-width:2;"/>
   </g>
   <g id="patch_3">
    <path d="M 60.2975 507.745 
L 60.2975 17.607758 
" style="fill:none;stroke:#000000;stroke-linecap:square;stroke-linejoin:miter;stroke-width:0.8;"/>
   </g>
   <g id="patch_4">
    <path d="M 678.66 507.745 
L 678.66 17.607758 
" style="fill:none;stroke:#000000;stroke-linecap:square;stroke-linejoin:miter;stroke-width:0.8;"/>
   </g>
   <g id="patch_5">
    <path d="M 60.2975 507.745 
L 678.66 507.745 
" style="fill:none;stroke:#000000;stroke-linecap:square;stroke-linejoin:miter;stroke-width:0.8;"/>
   </g>
   <g id="patch_6">
    <path d="M 60.2975 17.607758 
L 678.66 17.607758 
" style="fill:none;stroke:#000000;stroke-linecap:square;stroke-linejoin:miter;stroke-width:0.8;"/>
   </g>
   <g id="legend_1">
    <g id="patch_7">
     <path d="M 409.7775 212.945258 
L 661.86 212.945258 
Q 666.66 212.945258 666.66 208.145258 
L 666.66 34.407758 
Q 666.66 29.607758 661.86 29.607758 
L 409.7775 29.607758 
Q 404.9775 29.607758 404.9775 34.407758 
L 404.9775 208.145258 
Q 404.9775 212.945258 409.7775 212.945258 
z
" style="fill:#ffffff;opacity:0.8;stroke:#cccccc;stroke-linejoin:miter;"/>
    </g>
    <g id="line2d_20">
     <path d="M 414.5775 49.044008 
L 462.5775 49.044008 
" style="fill:none;stroke:#1f77b4;stroke-linecap:square;stroke-width:3;"/>
    </g>
    <g id="line2d_21"/>
    <g id="text_17">
     <!-- COBYLA -->
     <g transform="translate(481.7775 57.444008)scale(0.24 -0.24)">
      <defs>
       <path d="M 4122 4306 
L 4122 3641 
Q 3803 3938 3442 4084 
Q 3081 4231 2675 4231 
Q 1875 4231 1450 3742 
Q 1025 3253 1025 2328 
Q 1025 1406 1450 917 
Q 1875 428 2675 428 
Q 3081 428 3442 575 
Q 3803 722 4122 1019 
L 4122 359 
Q 3791 134 3420 21 
Q 3050 -91 2638 -91 
Q 1578 -91 968 557 
Q 359 1206 359 2328 
Q 359 3453 968 4101 
Q 1578 4750 2638 4750 
Q 3056 4750 3426 4639 
Q 3797 4528 4122 4306 
z
" id="DejaVuSans-43" transform="scale(0.015625)"/>
       <path d="M 2522 4238 
Q 1834 4238 1429 3725 
Q 1025 3213 1025 2328 
Q 1025 1447 1429 934 
Q 1834 422 2522 422 
Q 3209 422 3611 934 
Q 4013 1447 4013 2328 
Q 4013 3213 3611 3725 
Q 3209 4238 2522 4238 
z
M 2522 4750 
Q 3503 4750 4090 4092 
Q 4678 3434 4678 2328 
Q 4678 1225 4090 567 
Q 3503 -91 2522 -91 
Q 1538 -91 948 565 
Q 359 1222 359 2328 
Q 359 3434 948 4092 
Q 1538 4750 2522 4750 
z
" id="DejaVuSans-4f" transform="scale(0.015625)"/>
       <path d="M 1259 2228 
L 1259 519 
L 2272 519 
Q 2781 519 3026 730 
Q 3272 941 3272 1375 
Q 3272 1813 3026 2020 
Q 2781 2228 2272 2228 
L 1259 2228 
z
M 1259 4147 
L 1259 2741 
L 2194 2741 
Q 2656 2741 2882 2914 
Q 3109 3088 3109 3444 
Q 3109 3797 2882 3972 
Q 2656 4147 2194 4147 
L 1259 4147 
z
M 628 4666 
L 2241 4666 
Q 2963 4666 3353 4366 
Q 3744 4066 3744 3513 
Q 3744 3084 3544 2831 
Q 3344 2578 2956 2516 
Q 3422 2416 3680 2098 
Q 3938 1781 3938 1306 
Q 3938 681 3513 340 
Q 3088 0 2303 0 
L 628 0 
L 628 4666 
z
" id="DejaVuSans-42" transform="scale(0.015625)"/>
       <path d="M -13 4666 
L 666 4666 
L 1959 2747 
L 3244 4666 
L 3922 4666 
L 2272 2222 
L 2272 0 
L 1638 0 
L 1638 2222 
L -13 4666 
z
" id="DejaVuSans-59" transform="scale(0.015625)"/>
       <path d="M 628 4666 
L 1259 4666 
L 1259 531 
L 3531 531 
L 3531 0 
L 628 0 
L 628 4666 
z
" id="DejaVuSans-4c" transform="scale(0.015625)"/>
       <path d="M 2188 4044 
L 1331 1722 
L 3047 1722 
L 2188 4044 
z
M 1831 4666 
L 2547 4666 
L 4325 0 
L 3669 0 
L 3244 1197 
L 1141 1197 
L 716 0 
L 50 0 
L 1831 4666 
z
" id="DejaVuSans-41" transform="scale(0.015625)"/>
      </defs>
      <use xlink:href="#DejaVuSans-43"/>
      <use x="69.824219" xlink:href="#DejaVuSans-4f"/>
      <use x="148.535156" xlink:href="#DejaVuSans-42"/>
      <use x="211.638672" xlink:href="#DejaVuSans-59"/>
      <use x="272.722656" xlink:href="#DejaVuSans-4c"/>
      <use x="330.685547" xlink:href="#DejaVuSans-41"/>
     </g>
    </g>
    <g id="line2d_22">
     <path d="M 414.5775 84.271508 
L 462.5775 84.271508 
" style="fill:none;stroke:#ff7f0e;stroke-linecap:square;stroke-width:3;"/>
    </g>
    <g id="line2d_23"/>
    <g id="text_18">
     <!-- SLSQP -->
     <g transform="translate(481.7775 92.671508)scale(0.24 -0.24)">
      <defs>
       <path d="M 3425 4513 
L 3425 3897 
Q 3066 4069 2747 4153 
Q 2428 4238 2131 4238 
Q 1616 4238 1336 4038 
Q 1056 3838 1056 3469 
Q 1056 3159 1242 3001 
Q 1428 2844 1947 2747 
L 2328 2669 
Q 3034 2534 3370 2195 
Q 3706 1856 3706 1288 
Q 3706 609 3251 259 
Q 2797 -91 1919 -91 
Q 1588 -91 1214 -16 
Q 841 59 441 206 
L 441 856 
Q 825 641 1194 531 
Q 1563 422 1919 422 
Q 2459 422 2753 634 
Q 3047 847 3047 1241 
Q 3047 1584 2836 1778 
Q 2625 1972 2144 2069 
L 1759 2144 
Q 1053 2284 737 2584 
Q 422 2884 422 3419 
Q 422 4038 858 4394 
Q 1294 4750 2059 4750 
Q 2388 4750 2728 4690 
Q 3069 4631 3425 4513 
z
" id="DejaVuSans-53" transform="scale(0.015625)"/>
       <path d="M 1259 4147 
L 1259 2394 
L 2053 2394 
Q 2494 2394 2734 2622 
Q 2975 2850 2975 3272 
Q 2975 3691 2734 3919 
Q 2494 4147 2053 4147 
L 1259 4147 
z
M 628 4666 
L 2053 4666 
Q 2838 4666 3239 4311 
Q 3641 3956 3641 3272 
Q 3641 2581 3239 2228 
Q 2838 1875 2053 1875 
L 1259 1875 
L 1259 0 
L 628 0 
L 628 4666 
z
" id="DejaVuSans-50" transform="scale(0.015625)"/>
      </defs>
      <use xlink:href="#DejaVuSans-53"/>
      <use x="63.476562" xlink:href="#DejaVuSans-4c"/>
      <use x="119.189453" xlink:href="#DejaVuSans-53"/>
      <use x="182.666016" xlink:href="#DejaVuSans-51"/>
      <use x="261.376953" xlink:href="#DejaVuSans-50"/>
     </g>
    </g>
    <g id="line2d_24">
     <path d="M 414.5775 119.499008 
L 462.5775 119.499008 
" style="fill:none;stroke:#2ca02c;stroke-linecap:square;stroke-width:3;"/>
    </g>
    <g id="line2d_25"/>
    <g id="text_19">
     <!-- L-BFGS-B -->
     <g transform="translate(481.7775 127.899008)scale(0.24 -0.24)">
      <defs>
       <path d="M 313 2009 
L 1997 2009 
L 1997 1497 
L 313 1497 
L 313 2009 
z
" id="DejaVuSans-2d" transform="scale(0.015625)"/>
       <path d="M 628 4666 
L 3309 4666 
L 3309 4134 
L 1259 4134 
L 1259 2759 
L 3109 2759 
L 3109 2228 
L 1259 2228 
L 1259 0 
L 628 0 
L 628 4666 
z
" id="DejaVuSans-46" transform="scale(0.015625)"/>
       <path d="M 3809 666 
L 3809 1919 
L 2778 1919 
L 2778 2438 
L 4434 2438 
L 4434 434 
Q 4069 175 3628 42 
Q 3188 -91 2688 -91 
Q 1594 -91 976 548 
Q 359 1188 359 2328 
Q 359 3472 976 4111 
Q 1594 4750 2688 4750 
Q 3144 4750 3555 4637 
Q 3966 4525 4313 4306 
L 4313 3634 
Q 3963 3931 3569 4081 
Q 3175 4231 2741 4231 
Q 1884 4231 1454 3753 
Q 1025 3275 1025 2328 
Q 1025 1384 1454 906 
Q 1884 428 2741 428 
Q 3075 428 3337 486 
Q 3600 544 3809 666 
z
" id="DejaVuSans-47" transform="scale(0.015625)"/>
      </defs>
      <use xlink:href="#DejaVuSans-4c"/>
      <use x="53.962891" xlink:href="#DejaVuSans-2d"/>
      <use x="86.421875" xlink:href="#DejaVuSans-42"/>
      <use x="155.025391" xlink:href="#DejaVuSans-46"/>
      <use x="212.544922" xlink:href="#DejaVuSans-47"/>
      <use x="290.035156" xlink:href="#DejaVuSans-53"/>
      <use x="353.511719" xlink:href="#DejaVuSans-2d"/>
      <use x="385.970703" xlink:href="#DejaVuSans-42"/>
     </g>
    </g>
    <g id="line2d_26">
     <path d="M 414.5775 154.726508 
L 462.5775 154.726508 
" style="fill:none;stroke:#d62728;stroke-linecap:square;stroke-width:3;"/>
    </g>
    <g id="line2d_27"/>
    <g id="text_20">
     <!-- NELDER-MEAD -->
     <g transform="translate(481.7775 163.126508)scale(0.24 -0.24)">
      <defs>
       <path d="M 628 4666 
L 1478 4666 
L 3547 763 
L 3547 4666 
L 4159 4666 
L 4159 0 
L 3309 0 
L 1241 3903 
L 1241 0 
L 628 0 
L 628 4666 
z
" id="DejaVuSans-4e" transform="scale(0.015625)"/>
       <path d="M 1259 4147 
L 1259 519 
L 2022 519 
Q 2988 519 3436 956 
Q 3884 1394 3884 2338 
Q 3884 3275 3436 3711 
Q 2988 4147 2022 4147 
L 1259 4147 
z
M 628 4666 
L 1925 4666 
Q 3281 4666 3915 4102 
Q 4550 3538 4550 2338 
Q 4550 1131 3912 565 
Q 3275 0 1925 0 
L 628 0 
L 628 4666 
z
" id="DejaVuSans-44" transform="scale(0.015625)"/>
       <path d="M 2841 2188 
Q 3044 2119 3236 1894 
Q 3428 1669 3622 1275 
L 4263 0 
L 3584 0 
L 2988 1197 
Q 2756 1666 2539 1819 
Q 2322 1972 1947 1972 
L 1259 1972 
L 1259 0 
L 628 0 
L 628 4666 
L 2053 4666 
Q 2853 4666 3247 4331 
Q 3641 3997 3641 3322 
Q 3641 2881 3436 2590 
Q 3231 2300 2841 2188 
z
M 1259 4147 
L 1259 2491 
L 2053 2491 
Q 2509 2491 2742 2702 
Q 2975 2913 2975 3322 
Q 2975 3731 2742 3939 
Q 2509 4147 2053 4147 
L 1259 4147 
z
" id="DejaVuSans-52" transform="scale(0.015625)"/>
       <path d="M 628 4666 
L 1569 4666 
L 2759 1491 
L 3956 4666 
L 4897 4666 
L 4897 0 
L 4281 0 
L 4281 4097 
L 3078 897 
L 2444 897 
L 1241 4097 
L 1241 0 
L 628 0 
L 628 4666 
z
" id="DejaVuSans-4d" transform="scale(0.015625)"/>
      </defs>
      <use xlink:href="#DejaVuSans-4e"/>
      <use x="74.804688" xlink:href="#DejaVuSans-45"/>
      <use x="137.988281" xlink:href="#DejaVuSans-4c"/>
      <use x="193.701172" xlink:href="#DejaVuSans-44"/>
      <use x="270.703125" xlink:href="#DejaVuSans-45"/>
      <use x="333.886719" xlink:href="#DejaVuSans-52"/>
      <use x="399.369141" xlink:href="#DejaVuSans-2d"/>
      <use x="435.453125" xlink:href="#DejaVuSans-4d"/>
      <use x="521.732422" xlink:href="#DejaVuSans-45"/>
      <use x="584.916016" xlink:href="#DejaVuSans-41"/>
      <use x="653.324219" xlink:href="#DejaVuSans-44"/>
     </g>
    </g>
    <g id="line2d_28">
     <path d="M 414.5775 189.954008 
L 462.5775 189.954008 
" style="fill:none;stroke:#000000;stroke-dasharray:7.4,3.2;stroke-dashoffset:0;stroke-width:2;"/>
    </g>
    <g id="line2d_29"/>
    <g id="text_21">
     <!-- HT -->
     <g transform="translate(481.7775 198.354008)scale(0.24 -0.24)">
      <defs>
       <path d="M 628 4666 
L 1259 4666 
L 1259 2753 
L 3553 2753 
L 3553 4666 
L 4184 4666 
L 4184 0 
L 3553 0 
L 3553 2222 
L 1259 2222 
L 1259 0 
L 628 0 
L 628 4666 
z
" id="DejaVuSans-48" transform="scale(0.015625)"/>
       <path d="M -19 4666 
L 3928 4666 
L 3928 4134 
L 2272 4134 
L 2272 0 
L 1638 0 
L 1638 4134 
L -19 4134 
L -19 4666 
z
" id="DejaVuSans-54" transform="scale(0.015625)"/>
      </defs>
      <use xlink:href="#DejaVuSans-48"/>
      <use x="75.195312" xlink:href="#DejaVuSans-54"/>
     </g>
    </g>
   </g>
  </g>
 </g>
 <defs>
  <clipPath id="p43fed19697">
   <rect height="490.137242" width="618.3625" x="60.2975" y="17.607758"/>
  </clipPath>
 </defs>
</svg>
