<?xml version="1.0" encoding="utf-8" standalone="no"?>
<!DOCTYPE svg PUBLIC "-//W3C//DTD SVG 1.1//EN"
  "http://www.w3.org/Graphics/SVG/1.1/DTD/svg11.dtd">
<svg height="576pt" version="1.1" viewBox="0 0 720 576" width="720pt" xmlns="http://www.w3.org/2000/svg" xmlns:xlink="http://www.w3.org/1999/xlink">
 <metadata>
  <rdf:RDF xmlns:cc="http://creativecommons.org/ns#" xmlns:dc="http://purl.org/dc/elements/1.1/" xmlns:rdf="http://www.w3.org/1999/02/22-rdf-syntax-ns#">
   <cc:Work>
    <dc:type rdf:resource="http://purl.org/dc/dcmitype/StillImage"/>
    <dc:date>2021-07-30T13:16:47.096175</dc:date>
    <dc:format>image/svg+xml</dc:format>
    <dc:creator>
     <cc:Agent>
      <dc:title>Matplotlib v3.4.2, https://matplotlib.org/</dc:title>
     </cc:Agent>
    </dc:creator>
   </cc:Work>
  </rdf:RDF>
 </metadata>
 <defs>
  <style type="text/css">*{stroke-linecap:butt;stroke-linejoin:round;}</style>
 </defs>
 <g id="figure_1">
  <g id="patch_1">
   <path d="M 0 576 
L 720 576 
L 720 0 
L 0 0 
z
" style="fill:#ffffff;"/>
  </g>
  <g id="axes_1">
   <g id="patch_2">
    <path d="M 60.2975 507.745 
L 678.66 507.745 
L 678.66 10.8 
L 60.2975 10.8 
z
" style="fill:#ffffff;"/>
   </g>
   <g id="matplotlib.axis_1">
    <g id="xtick_1">
     <g id="line2d_1">
      <defs>
       <path d="M 0 0 
L 0 3.5 
" id="maebbbd596d" style="stroke:#000000;stroke-width:0.8;"/>
      </defs>
      <g>
       <use style="stroke:#000000;stroke-width:0.8;" x="60.2975" xlink:href="#maebbbd596d" y="507.745"/>
      </g>
     </g>
     <g id="text_1">
      <!-- 0 -->
      <g transform="translate(52.6625 532.98125)scale(0.24 -0.24)">
       <defs>
        <path d="M 2034 4250 
Q 1547 4250 1301 3770 
Q 1056 3291 1056 2328 
Q 1056 1369 1301 889 
Q 1547 409 2034 409 
Q 2525 409 2770 889 
Q 3016 1369 3016 2328 
Q 3016 3291 2770 3770 
Q 2525 4250 2034 4250 
z
M 2034 4750 
Q 2819 4750 3233 4129 
Q 3647 3509 3647 2328 
Q 3647 1150 3233 529 
Q 2819 -91 2034 -91 
Q 1250 -91 836 529 
Q 422 1150 422 2328 
Q 422 3509 836 4129 
Q 1250 4750 2034 4750 
z
" id="DejaVuSans-30" transform="scale(0.015625)"/>
       </defs>
       <use xlink:href="#DejaVuSans-30"/>
      </g>
     </g>
    </g>
    <g id="xtick_2">
     <g id="line2d_2">
      <g>
       <use style="stroke:#000000;stroke-width:0.8;" x="183.97" xlink:href="#maebbbd596d" y="507.745"/>
      </g>
     </g>
     <g id="text_2">
      <!-- 1000 -->
      <g transform="translate(153.43 532.98125)scale(0.24 -0.24)">
       <defs>
        <path d="M 794 531 
L 1825 531 
L 1825 4091 
L 703 3866 
L 703 4441 
L 1819 4666 
L 2450 4666 
L 2450 531 
L 3481 531 
L 3481 0 
L 794 0 
L 794 531 
z
" id="DejaVuSans-31" transform="scale(0.015625)"/>
       </defs>
       <use xlink:href="#DejaVuSans-31"/>
       <use x="63.623047" xlink:href="#DejaVuSans-30"/>
       <use x="127.246094" xlink:href="#DejaVuSans-30"/>
       <use x="190.869141" xlink:href="#DejaVuSans-30"/>
      </g>
     </g>
    </g>
    <g id="xtick_3">
     <g id="line2d_3">
      <g>
       <use style="stroke:#000000;stroke-width:0.8;" x="307.6425" xlink:href="#maebbbd596d" y="507.745"/>
      </g>
     </g>
     <g id="text_3">
      <!-- 2000 -->
      <g transform="translate(277.1025 532.98125)scale(0.24 -0.24)">
       <defs>
        <path d="M 1228 531 
L 3431 531 
L 3431 0 
L 469 0 
L 469 531 
Q 828 903 1448 1529 
Q 2069 2156 2228 2338 
Q 2531 2678 2651 2914 
Q 2772 3150 2772 3378 
Q 2772 3750 2511 3984 
Q 2250 4219 1831 4219 
Q 1534 4219 1204 4116 
Q 875 4013 500 3803 
L 500 4441 
Q 881 4594 1212 4672 
Q 1544 4750 1819 4750 
Q 2544 4750 2975 4387 
Q 3406 4025 3406 3419 
Q 3406 3131 3298 2873 
Q 3191 2616 2906 2266 
Q 2828 2175 2409 1742 
Q 1991 1309 1228 531 
z
" id="DejaVuSans-32" transform="scale(0.015625)"/>
       </defs>
       <use xlink:href="#DejaVuSans-32"/>
       <use x="63.623047" xlink:href="#DejaVuSans-30"/>
       <use x="127.246094" xlink:href="#DejaVuSans-30"/>
       <use x="190.869141" xlink:href="#DejaVuSans-30"/>
      </g>
     </g>
    </g>
    <g id="xtick_4">
     <g id="line2d_4">
      <g>
       <use style="stroke:#000000;stroke-width:0.8;" x="431.315" xlink:href="#maebbbd596d" y="507.745"/>
      </g>
     </g>
     <g id="text_4">
      <!-- 3000 -->
      <g transform="translate(400.775 532.98125)scale(0.24 -0.24)">
       <defs>
        <path d="M 2597 2516 
Q 3050 2419 3304 2112 
Q 3559 1806 3559 1356 
Q 3559 666 3084 287 
Q 2609 -91 1734 -91 
Q 1441 -91 1130 -33 
Q 819 25 488 141 
L 488 750 
Q 750 597 1062 519 
Q 1375 441 1716 441 
Q 2309 441 2620 675 
Q 2931 909 2931 1356 
Q 2931 1769 2642 2001 
Q 2353 2234 1838 2234 
L 1294 2234 
L 1294 2753 
L 1863 2753 
Q 2328 2753 2575 2939 
Q 2822 3125 2822 3475 
Q 2822 3834 2567 4026 
Q 2313 4219 1838 4219 
Q 1578 4219 1281 4162 
Q 984 4106 628 3988 
L 628 4550 
Q 988 4650 1302 4700 
Q 1616 4750 1894 4750 
Q 2613 4750 3031 4423 
Q 3450 4097 3450 3541 
Q 3450 3153 3228 2886 
Q 3006 2619 2597 2516 
z
" id="DejaVuSans-33" transform="scale(0.015625)"/>
       </defs>
       <use xlink:href="#DejaVuSans-33"/>
       <use x="63.623047" xlink:href="#DejaVuSans-30"/>
       <use x="127.246094" xlink:href="#DejaVuSans-30"/>
       <use x="190.869141" xlink:href="#DejaVuSans-30"/>
      </g>
     </g>
    </g>
    <g id="xtick_5">
     <g id="line2d_5">
      <g>
       <use style="stroke:#000000;stroke-width:0.8;" x="554.9875" xlink:href="#maebbbd596d" y="507.745"/>
      </g>
     </g>
     <g id="text_5">
      <!-- 4000 -->
      <g transform="translate(524.4475 532.98125)scale(0.24 -0.24)">
       <defs>
        <path d="M 2419 4116 
L 825 1625 
L 2419 1625 
L 2419 4116 
z
M 2253 4666 
L 3047 4666 
L 3047 1625 
L 3713 1625 
L 3713 1100 
L 3047 1100 
L 3047 0 
L 2419 0 
L 2419 1100 
L 313 1100 
L 313 1709 
L 2253 4666 
z
" id="DejaVuSans-34" transform="scale(0.015625)"/>
       </defs>
       <use xlink:href="#DejaVuSans-34"/>
       <use x="63.623047" xlink:href="#DejaVuSans-30"/>
       <use x="127.246094" xlink:href="#DejaVuSans-30"/>
       <use x="190.869141" xlink:href="#DejaVuSans-30"/>
      </g>
     </g>
    </g>
    <g id="xtick_6">
     <g id="line2d_6">
      <g>
       <use style="stroke:#000000;stroke-width:0.8;" x="678.66" xlink:href="#maebbbd596d" y="507.745"/>
      </g>
     </g>
     <g id="text_6">
      <!-- 5000 -->
      <g transform="translate(648.12 532.98125)scale(0.24 -0.24)">
       <defs>
        <path d="M 691 4666 
L 3169 4666 
L 3169 4134 
L 1269 4134 
L 1269 2991 
Q 1406 3038 1543 3061 
Q 1681 3084 1819 3084 
Q 2600 3084 3056 2656 
Q 3513 2228 3513 1497 
Q 3513 744 3044 326 
Q 2575 -91 1722 -91 
Q 1428 -91 1123 -41 
Q 819 9 494 109 
L 494 744 
Q 775 591 1075 516 
Q 1375 441 1709 441 
Q 2250 441 2565 725 
Q 2881 1009 2881 1497 
Q 2881 1984 2565 2268 
Q 2250 2553 1709 2553 
Q 1456 2553 1204 2497 
Q 953 2441 691 2322 
L 691 4666 
z
" id="DejaVuSans-35" transform="scale(0.015625)"/>
       </defs>
       <use xlink:href="#DejaVuSans-35"/>
       <use x="63.623047" xlink:href="#DejaVuSans-30"/>
       <use x="127.246094" xlink:href="#DejaVuSans-30"/>
       <use x="190.869141" xlink:href="#DejaVuSans-30"/>
      </g>
     </g>
    </g>
    <g id="text_7">
     <!-- iterations -->
     <g transform="translate(312.533125 560.20875)scale(0.24 -0.24)">
      <defs>
       <path d="M 603 3500 
L 1178 3500 
L 1178 0 
L 603 0 
L 603 3500 
z
M 603 4863 
L 1178 4863 
L 1178 4134 
L 603 4134 
L 603 4863 
z
" id="DejaVuSans-69" transform="scale(0.015625)"/>
       <path d="M 1172 4494 
L 1172 3500 
L 2356 3500 
L 2356 3053 
L 1172 3053 
L 1172 1153 
Q 1172 725 1289 603 
Q 1406 481 1766 481 
L 2356 481 
L 2356 0 
L 1766 0 
Q 1100 0 847 248 
Q 594 497 594 1153 
L 594 3053 
L 172 3053 
L 172 3500 
L 594 3500 
L 594 4494 
L 1172 4494 
z
" id="DejaVuSans-74" transform="scale(0.015625)"/>
       <path d="M 3597 1894 
L 3597 1613 
L 953 1613 
Q 991 1019 1311 708 
Q 1631 397 2203 397 
Q 2534 397 2845 478 
Q 3156 559 3463 722 
L 3463 178 
Q 3153 47 2828 -22 
Q 2503 -91 2169 -91 
Q 1331 -91 842 396 
Q 353 884 353 1716 
Q 353 2575 817 3079 
Q 1281 3584 2069 3584 
Q 2775 3584 3186 3129 
Q 3597 2675 3597 1894 
z
M 3022 2063 
Q 3016 2534 2758 2815 
Q 2500 3097 2075 3097 
Q 1594 3097 1305 2825 
Q 1016 2553 972 2059 
L 3022 2063 
z
" id="DejaVuSans-65" transform="scale(0.015625)"/>
       <path d="M 2631 2963 
Q 2534 3019 2420 3045 
Q 2306 3072 2169 3072 
Q 1681 3072 1420 2755 
Q 1159 2438 1159 1844 
L 1159 0 
L 581 0 
L 581 3500 
L 1159 3500 
L 1159 2956 
Q 1341 3275 1631 3429 
Q 1922 3584 2338 3584 
Q 2397 3584 2469 3576 
Q 2541 3569 2628 3553 
L 2631 2963 
z
" id="DejaVuSans-72" transform="scale(0.015625)"/>
       <path d="M 2194 1759 
Q 1497 1759 1228 1600 
Q 959 1441 959 1056 
Q 959 750 1161 570 
Q 1363 391 1709 391 
Q 2188 391 2477 730 
Q 2766 1069 2766 1631 
L 2766 1759 
L 2194 1759 
z
M 3341 1997 
L 3341 0 
L 2766 0 
L 2766 531 
Q 2569 213 2275 61 
Q 1981 -91 1556 -91 
Q 1019 -91 701 211 
Q 384 513 384 1019 
Q 384 1609 779 1909 
Q 1175 2209 1959 2209 
L 2766 2209 
L 2766 2266 
Q 2766 2663 2505 2880 
Q 2244 3097 1772 3097 
Q 1472 3097 1187 3025 
Q 903 2953 641 2809 
L 641 3341 
Q 956 3463 1253 3523 
Q 1550 3584 1831 3584 
Q 2591 3584 2966 3190 
Q 3341 2797 3341 1997 
z
" id="DejaVuSans-61" transform="scale(0.015625)"/>
       <path d="M 1959 3097 
Q 1497 3097 1228 2736 
Q 959 2375 959 1747 
Q 959 1119 1226 758 
Q 1494 397 1959 397 
Q 2419 397 2687 759 
Q 2956 1122 2956 1747 
Q 2956 2369 2687 2733 
Q 2419 3097 1959 3097 
z
M 1959 3584 
Q 2709 3584 3137 3096 
Q 3566 2609 3566 1747 
Q 3566 888 3137 398 
Q 2709 -91 1959 -91 
Q 1206 -91 779 398 
Q 353 888 353 1747 
Q 353 2609 779 3096 
Q 1206 3584 1959 3584 
z
" id="DejaVuSans-6f" transform="scale(0.015625)"/>
       <path d="M 3513 2113 
L 3513 0 
L 2938 0 
L 2938 2094 
Q 2938 2591 2744 2837 
Q 2550 3084 2163 3084 
Q 1697 3084 1428 2787 
Q 1159 2491 1159 1978 
L 1159 0 
L 581 0 
L 581 3500 
L 1159 3500 
L 1159 2956 
Q 1366 3272 1645 3428 
Q 1925 3584 2291 3584 
Q 2894 3584 3203 3211 
Q 3513 2838 3513 2113 
z
" id="DejaVuSans-6e" transform="scale(0.015625)"/>
       <path d="M 2834 3397 
L 2834 2853 
Q 2591 2978 2328 3040 
Q 2066 3103 1784 3103 
Q 1356 3103 1142 2972 
Q 928 2841 928 2578 
Q 928 2378 1081 2264 
Q 1234 2150 1697 2047 
L 1894 2003 
Q 2506 1872 2764 1633 
Q 3022 1394 3022 966 
Q 3022 478 2636 193 
Q 2250 -91 1575 -91 
Q 1294 -91 989 -36 
Q 684 19 347 128 
L 347 722 
Q 666 556 975 473 
Q 1284 391 1588 391 
Q 1994 391 2212 530 
Q 2431 669 2431 922 
Q 2431 1156 2273 1281 
Q 2116 1406 1581 1522 
L 1381 1569 
Q 847 1681 609 1914 
Q 372 2147 372 2553 
Q 372 3047 722 3315 
Q 1072 3584 1716 3584 
Q 2034 3584 2315 3537 
Q 2597 3491 2834 3397 
z
" id="DejaVuSans-73" transform="scale(0.015625)"/>
      </defs>
      <use xlink:href="#DejaVuSans-69"/>
      <use x="27.783203" xlink:href="#DejaVuSans-74"/>
      <use x="66.992188" xlink:href="#DejaVuSans-65"/>
      <use x="128.515625" xlink:href="#DejaVuSans-72"/>
      <use x="169.628906" xlink:href="#DejaVuSans-61"/>
      <use x="230.908203" xlink:href="#DejaVuSans-74"/>
      <use x="270.117188" xlink:href="#DejaVuSans-69"/>
      <use x="297.900391" xlink:href="#DejaVuSans-6f"/>
      <use x="359.082031" xlink:href="#DejaVuSans-6e"/>
      <use x="422.460938" xlink:href="#DejaVuSans-73"/>
     </g>
    </g>
   </g>
   <g id="matplotlib.axis_2">
    <g id="ytick_1">
     <g id="line2d_7">
      <defs>
       <path d="M 0 0 
L -3.5 0 
" id="m6ac08c52f5" style="stroke:#000000;stroke-width:0.8;"/>
      </defs>
      <g>
       <use style="stroke:#000000;stroke-width:0.8;" x="60.2975" xlink:href="#m6ac08c52f5" y="488.693162"/>
      </g>
     </g>
     <g id="text_8">
      <!-- 0 -->
      <g transform="translate(38.0275 497.811287)scale(0.24 -0.24)">
       <use xlink:href="#DejaVuSans-30"/>
      </g>
     </g>
    </g>
    <g id="ytick_2">
     <g id="line2d_8">
      <g>
       <use style="stroke:#000000;stroke-width:0.8;" x="60.2975" xlink:href="#m6ac08c52f5" y="415.457166"/>
      </g>
     </g>
     <g id="text_9">
      <!-- 1 -->
      <g transform="translate(38.0275 424.575291)scale(0.24 -0.24)">
       <use xlink:href="#DejaVuSans-31"/>
      </g>
     </g>
    </g>
    <g id="ytick_3">
     <g id="line2d_9">
      <g>
       <use style="stroke:#000000;stroke-width:0.8;" x="60.2975" xlink:href="#m6ac08c52f5" y="342.22117"/>
      </g>
     </g>
     <g id="text_10">
      <!-- 2 -->
      <g transform="translate(38.0275 351.339295)scale(0.24 -0.24)">
       <use xlink:href="#DejaVuSans-32"/>
      </g>
     </g>
    </g>
    <g id="ytick_4">
     <g id="line2d_10">
      <g>
       <use style="stroke:#000000;stroke-width:0.8;" x="60.2975" xlink:href="#m6ac08c52f5" y="268.985174"/>
      </g>
     </g>
     <g id="text_11">
      <!-- 3 -->
      <g transform="translate(38.0275 278.103299)scale(0.24 -0.24)">
       <use xlink:href="#DejaVuSans-33"/>
      </g>
     </g>
    </g>
    <g id="ytick_5">
     <g id="line2d_11">
      <g>
       <use style="stroke:#000000;stroke-width:0.8;" x="60.2975" xlink:href="#m6ac08c52f5" y="195.749177"/>
      </g>
     </g>
     <g id="text_12">
      <!-- 4 -->
      <g transform="translate(38.0275 204.867302)scale(0.24 -0.24)">
       <use xlink:href="#DejaVuSans-34"/>
      </g>
     </g>
    </g>
    <g id="ytick_6">
     <g id="line2d_12">
      <g>
       <use style="stroke:#000000;stroke-width:0.8;" x="60.2975" xlink:href="#m6ac08c52f5" y="122.513181"/>
      </g>
     </g>
     <g id="text_13">
      <!-- 5 -->
      <g transform="translate(38.0275 131.631306)scale(0.24 -0.24)">
       <use xlink:href="#DejaVuSans-35"/>
      </g>
     </g>
    </g>
    <g id="ytick_7">
     <g id="line2d_13">
      <g>
       <use style="stroke:#000000;stroke-width:0.8;" x="60.2975" xlink:href="#m6ac08c52f5" y="49.277185"/>
      </g>
     </g>
     <g id="text_14">
      <!-- 6 -->
      <g transform="translate(38.0275 58.39531)scale(0.24 -0.24)">
       <defs>
        <path d="M 2113 2584 
Q 1688 2584 1439 2293 
Q 1191 2003 1191 1497 
Q 1191 994 1439 701 
Q 1688 409 2113 409 
Q 2538 409 2786 701 
Q 3034 994 3034 1497 
Q 3034 2003 2786 2293 
Q 2538 2584 2113 2584 
z
M 3366 4563 
L 3366 3988 
Q 3128 4100 2886 4159 
Q 2644 4219 2406 4219 
Q 1781 4219 1451 3797 
Q 1122 3375 1075 2522 
Q 1259 2794 1537 2939 
Q 1816 3084 2150 3084 
Q 2853 3084 3261 2657 
Q 3669 2231 3669 1497 
Q 3669 778 3244 343 
Q 2819 -91 2113 -91 
Q 1303 -91 875 529 
Q 447 1150 447 2328 
Q 447 3434 972 4092 
Q 1497 4750 2381 4750 
Q 2619 4750 2861 4703 
Q 3103 4656 3366 4563 
z
" id="DejaVuSans-36" transform="scale(0.015625)"/>
       </defs>
       <use xlink:href="#DejaVuSans-36"/>
      </g>
     </g>
    </g>
    <g id="text_15">
     <!-- VQE energy -->
     <g transform="translate(29.03625 330.14)rotate(-90)scale(0.24 -0.24)">
      <defs>
       <path d="M 1831 0 
L 50 4666 
L 709 4666 
L 2188 738 
L 3669 4666 
L 4325 4666 
L 2547 0 
L 1831 0 
z
" id="DejaVuSans-56" transform="scale(0.015625)"/>
       <path d="M 2522 4238 
Q 1834 4238 1429 3725 
Q 1025 3213 1025 2328 
Q 1025 1447 1429 934 
Q 1834 422 2522 422 
Q 3209 422 3611 934 
Q 4013 1447 4013 2328 
Q 4013 3213 3611 3725 
Q 3209 4238 2522 4238 
z
M 3406 84 
L 4238 -825 
L 3475 -825 
L 2784 -78 
Q 2681 -84 2626 -87 
Q 2572 -91 2522 -91 
Q 1538 -91 948 567 
Q 359 1225 359 2328 
Q 359 3434 948 4092 
Q 1538 4750 2522 4750 
Q 3503 4750 4090 4092 
Q 4678 3434 4678 2328 
Q 4678 1516 4351 937 
Q 4025 359 3406 84 
z
" id="DejaVuSans-51" transform="scale(0.015625)"/>
       <path d="M 628 4666 
L 3578 4666 
L 3578 4134 
L 1259 4134 
L 1259 2753 
L 3481 2753 
L 3481 2222 
L 1259 2222 
L 1259 531 
L 3634 531 
L 3634 0 
L 628 0 
L 628 4666 
z
" id="DejaVuSans-45" transform="scale(0.015625)"/>
       <path id="DejaVuSans-20" transform="scale(0.015625)"/>
       <path d="M 2906 1791 
Q 2906 2416 2648 2759 
Q 2391 3103 1925 3103 
Q 1463 3103 1205 2759 
Q 947 2416 947 1791 
Q 947 1169 1205 825 
Q 1463 481 1925 481 
Q 2391 481 2648 825 
Q 2906 1169 2906 1791 
z
M 3481 434 
Q 3481 -459 3084 -895 
Q 2688 -1331 1869 -1331 
Q 1566 -1331 1297 -1286 
Q 1028 -1241 775 -1147 
L 775 -588 
Q 1028 -725 1275 -790 
Q 1522 -856 1778 -856 
Q 2344 -856 2625 -561 
Q 2906 -266 2906 331 
L 2906 616 
Q 2728 306 2450 153 
Q 2172 0 1784 0 
Q 1141 0 747 490 
Q 353 981 353 1791 
Q 353 2603 747 3093 
Q 1141 3584 1784 3584 
Q 2172 3584 2450 3431 
Q 2728 3278 2906 2969 
L 2906 3500 
L 3481 3500 
L 3481 434 
z
" id="DejaVuSans-67" transform="scale(0.015625)"/>
       <path d="M 2059 -325 
Q 1816 -950 1584 -1140 
Q 1353 -1331 966 -1331 
L 506 -1331 
L 506 -850 
L 844 -850 
Q 1081 -850 1212 -737 
Q 1344 -625 1503 -206 
L 1606 56 
L 191 3500 
L 800 3500 
L 1894 763 
L 2988 3500 
L 3597 3500 
L 2059 -325 
z
" id="DejaVuSans-79" transform="scale(0.015625)"/>
      </defs>
      <use xlink:href="#DejaVuSans-56"/>
      <use x="68.408203" xlink:href="#DejaVuSans-51"/>
      <use x="147.119141" xlink:href="#DejaVuSans-45"/>
      <use x="210.302734" xlink:href="#DejaVuSans-20"/>
      <use x="242.089844" xlink:href="#DejaVuSans-65"/>
      <use x="303.613281" xlink:href="#DejaVuSans-6e"/>
      <use x="366.992188" xlink:href="#DejaVuSans-65"/>
      <use x="428.515625" xlink:href="#DejaVuSans-72"/>
      <use x="467.878906" xlink:href="#DejaVuSans-67"/>
      <use x="531.355469" xlink:href="#DejaVuSans-79"/>
     </g>
    </g>
   </g>
   <g id="line2d_14">
    <path clip-path="url(#pe3299aa15b)" d="M 60.421172 33.388409 
L 60.668518 42.002921 
L 60.79219 41.191122 
L 61.039535 65.467591 
L 61.163207 58.666122 
L 61.28688 71.397528 
L 61.410553 46.778525 
L 61.657897 77.613722 
L 61.905242 66.786561 
L 62.028915 69.060067 
L 62.152587 81.103966 
L 62.27626 60.791035 
L 62.399932 68.312869 
L 62.523605 97.419438 
L 62.77095 82.145184 
L 63.018295 87.692378 
L 63.26564 81.282096 
L 63.512985 109.83138 
L 63.636657 85.497327 
L 63.76033 105.984042 
L 63.884003 100.819037 
L 64.007675 104.159782 
L 64.131348 87.814316 
L 64.378692 100.825859 
L 64.502365 97.164136 
L 64.626037 107.677234 
L 64.74971 84.032237 
L 64.873383 90.593858 
L 64.997055 111.597292 
L 65.120728 109.526683 
L 65.2444 98.075691 
L 65.368072 111.718688 
L 65.615417 95.561359 
L 65.73909 97.998133 
L 65.862763 104.93938 
L 65.986435 96.798473 
L 66.110107 110.855433 
L 66.357452 91.232438 
L 66.481125 111.90525 
L 66.72847 85.24781 
L 66.852142 82.987963 
L 66.975815 92.552816 
L 67.099487 91.863379 
L 67.346833 119.262061 
L 67.470505 122.831244 
L 67.71785 96.389481 
L 67.841522 105.79084 
L 67.965195 92.053746 
L 68.088867 105.700979 
L 68.21254 93.815051 
L 68.459885 115.831509 
L 68.583557 112.34001 
L 68.70723 123.632644 
L 68.830902 113.807916 
L 68.954575 119.800964 
L 69.078248 101.297705 
L 69.20192 106.416691 
L 69.325592 127.932828 
L 69.449265 116.502096 
L 69.572937 117.635071 
L 69.69661 116.322918 
L 69.820283 122.977504 
L 69.943955 122.938192 
L 70.067628 122.172339 
L 70.1913 103.526755 
L 70.314972 102.082288 
L 70.438645 103.904942 
L 70.68599 129.910363 
L 70.809663 129.657539 
L 70.933335 116.549934 
L 71.057007 126.836624 
L 71.304352 120.20017 
L 71.428025 116.038267 
L 71.551698 115.725407 
L 71.67537 134.801585 
L 71.799042 128.154425 
L 71.922715 131.533539 
L 72.046387 128.70067 
L 72.17006 137.077117 
L 72.293733 130.765128 
L 72.417405 144.493122 
L 72.541078 140.337329 
L 72.66475 126.142652 
L 72.788422 146.629019 
L 72.912095 141.259941 
L 73.035767 152.470736 
L 73.406785 145.150088 
L 73.530457 126.739785 
L 73.65413 161.079038 
L 73.777802 133.010089 
L 73.901475 166.10991 
L 74.14882 140.744805 
L 74.396165 181.798494 
L 74.519837 179.595698 
L 74.767183 150.220788 
L 74.890855 180.841279 
L 75.014527 153.047233 
L 75.1382 177.28708 
L 75.261872 157.987754 
L 75.509218 182.110926 
L 75.63289 179.059713 
L 75.756563 158.088594 
L 75.880235 178.211482 
L 76.003907 161.587493 
L 76.12758 182.186473 
L 76.251252 160.972852 
L 76.374925 168.823291 
L 76.498598 158.223501 
L 76.62227 180.276367 
L 76.745942 129.720268 
L 76.869615 179.777064 
L 76.993287 163.748232 
L 77.11696 171.240727 
L 77.240633 153.218634 
L 77.364305 185.227436 
L 77.487977 166.038401 
L 77.61165 181.677986 
L 77.982667 165.107016 
L 78.230013 181.014256 
L 78.353685 177.230926 
L 78.477357 166.209074 
L 78.60103 186.434795 
L 78.724703 154.466874 
L 78.848375 171.460168 
L 78.972048 159.421444 
L 79.09572 191.052338 
L 79.219392 165.452008 
L 79.343065 182.641923 
L 79.466737 161.919594 
L 79.59041 177.817497 
L 79.714082 175.42015 
L 79.837755 193.90506 
L 80.0851 184.507991 
L 80.208772 172.782159 
L 80.332445 183.05011 
L 80.456118 166.646134 
L 80.703463 183.941176 
L 80.827135 189.006052 
L 81.07448 175.899941 
L 81.198152 196.375341 
L 81.445498 193.527181 
L 81.56917 199.205582 
L 81.692842 144.793268 
L 81.816515 193.595368 
L 81.940187 160.46763 
L 82.06386 188.354051 
L 82.187533 174.6295 
L 82.55855 206.549115 
L 82.805895 183.625162 
L 82.929567 192.255558 
L 83.05324 213.143361 
L 83.176913 132.690698 
L 83.300585 213.844343 
L 83.424257 218.039073 
L 83.54793 215.010335 
L 83.671603 170.793578 
L 83.795275 213.369899 
L 83.918948 193.503029 
L 84.166292 221.157172 
L 84.289965 222.57724 
L 84.413637 208.352927 
L 84.660983 222.181894 
L 84.784655 221.413929 
L 84.908327 211.142725 
L 85.032 215.377155 
L 85.155672 204.076119 
L 85.279345 211.252719 
L 85.403018 174.349898 
L 85.52669 210.541583 
L 85.650362 177.11299 
L 85.774035 204.7324 
L 85.897707 206.94968 
L 86.02138 222.530959 
L 86.145052 174.366873 
L 86.268725 210.467746 
L 86.392398 189.949301 
L 86.51607 215.055815 
L 86.639742 195.832193 
L 86.763415 210.064416 
L 86.887087 192.76882 
L 87.134433 210.66232 
L 87.258105 209.033205 
L 87.381777 186.211675 
L 87.50545 220.378537 
L 87.629122 188.257079 
L 87.752795 202.528739 
L 87.876467 194.495601 
L 88.00014 223.493205 
L 88.123812 204.082412 
L 88.247485 214.393965 
L 88.371157 189.688019 
L 88.49483 218.457076 
L 88.618503 185.265833 
L 88.742175 210.027248 
L 88.865848 204.324479 
L 88.98952 211.639321 
L 89.113192 199.032596 
L 89.236865 210.891514 
L 89.360537 196.285892 
L 89.48421 231.171032 
L 89.607883 167.595154 
L 89.731555 211.533288 
L 89.855227 211.476998 
L 89.9789 223.223597 
L 90.102572 195.661179 
L 90.226245 220.591021 
L 90.349918 202.24855 
L 90.47359 223.020271 
L 90.720935 205.300524 
L 90.844607 224.401257 
L 90.96828 224.994208 
L 91.091952 198.273932 
L 91.46297 225.50618 
L 91.586642 205.990758 
L 91.833987 242.338033 
L 91.95766 221.196497 
L 92.205005 233.894811 
L 92.328677 191.02004 
L 92.45235 235.635806 
L 92.576022 220.47083 
L 92.699695 241.11753 
L 92.823367 183.651361 
L 92.94704 233.001752 
L 93.070712 199.813075 
L 93.194385 235.946848 
L 93.318057 207.933453 
L 93.44173 230.032019 
L 93.565403 211.489619 
L 93.689075 240.108855 
L 93.812748 185.269481 
L 93.93642 242.067664 
L 94.060092 201.784509 
L 94.307437 239.386494 
L 94.43111 237.132623 
L 94.554782 182.499853 
L 94.678455 239.947647 
L 94.802127 213.954118 
L 94.9258 233.150644 
L 95.049473 198.912947 
L 95.173145 229.23858 
L 95.296818 199.634665 
L 95.42049 228.403837 
L 95.544162 209.247249 
L 95.667835 231.194102 
L 95.791507 208.47389 
L 95.91518 241.246849 
L 96.038852 217.866708 
L 96.286198 245.320476 
L 96.40987 241.643485 
L 96.533542 247.900983 
L 96.657215 241.147427 
L 96.780888 246.831037 
L 96.90456 240.656476 
L 97.028233 247.57146 
L 97.151905 234.66294 
L 97.275577 248.387825 
L 97.39925 231.91052 
L 97.522922 242.242675 
L 97.646595 242.060671 
L 97.89394 245.585753 
L 98.017612 247.270687 
L 98.141285 243.622949 
L 98.264957 253.221394 
L 98.38863 246.065866 
L 98.512303 252.477135 
L 98.635975 250.622041 
L 98.759647 245.816152 
L 98.88332 258.108063 
L 99.254337 249.521691 
L 99.37801 260.499859 
L 99.501682 258.218676 
L 99.625355 260.249845 
L 99.749027 258.280369 
L 99.8727 268.436422 
L 99.996373 260.80652 
L 100.120045 275.129344 
L 100.243718 271.15413 
L 100.36739 271.235454 
L 100.491062 286.746041 
L 100.614735 265.074481 
L 100.738407 289.645836 
L 100.86208 260.226345 
L 100.985752 283.511922 
L 101.109425 274.131914 
L 101.233097 286.903134 
L 101.35677 269.172506 
L 101.480442 292.299247 
L 101.604115 286.598051 
L 101.727788 291.645659 
L 101.85146 284.530558 
L 102.34615 298.643332 
L 102.469822 291.90609 
L 102.717167 294.722334 
L 102.84084 285.263405 
L 102.964512 301.76758 
L 103.088185 292.820015 
L 103.211857 298.324221 
L 103.33553 290.545216 
L 103.459203 295.136623 
L 103.582875 291.130478 
L 103.706547 300.145619 
L 103.83022 287.84042 
L 103.953892 304.273696 
L 104.077565 299.424536 
L 104.201237 304.256286 
L 104.32491 291.643798 
L 104.448582 301.675702 
L 104.572255 299.641111 
L 104.695927 300.946594 
L 104.8196 290.48191 
L 104.943273 307.975057 
L 105.066945 288.370072 
L 105.190618 309.208482 
L 105.31429 291.419499 
L 105.437962 311.688646 
L 105.561635 301.118075 
L 105.80898 313.75695 
L 105.932652 309.414713 
L 106.056325 313.704978 
L 106.179997 301.998327 
L 106.30367 308.657316 
L 106.427342 308.676032 
L 106.551015 286.58604 
L 106.674688 311.558037 
L 106.79836 295.526977 
L 106.922033 312.659543 
L 107.045705 287.48043 
L 107.29305 309.416711 
L 107.416722 310.14421 
L 107.540395 309.687424 
L 107.664067 311.167237 
L 107.78774 308.065495 
L 107.911412 308.85674 
L 108.035085 310.91784 
L 108.28243 304.697016 
L 108.529775 316.433317 
L 108.77712 307.565867 
L 109.024465 317.641089 
L 109.148137 315.445305 
L 109.27181 322.005506 
L 109.395482 320.418917 
L 109.519155 316.978444 
L 109.642827 319.703662 
L 109.7665 307.18755 
L 109.890173 326.72522 
L 110.013845 327.679671 
L 110.137518 325.353397 
L 110.26119 317.067218 
L 110.384862 323.813602 
L 110.75588 317.334726 
L 111.003225 324.93362 
L 111.25057 329.732998 
L 111.497915 313.570901 
L 111.621588 329.539307 
L 111.74526 322.949842 
L 111.868932 308.980615 
L 112.116277 333.668628 
L 112.23995 317.416786 
L 112.363622 328.35772 
L 112.487295 318.347161 
L 112.858312 327.956219 
L 112.981985 325.98905 
L 113.22933 327.62185 
L 113.353003 328.223059 
L 113.476675 326.630336 
L 113.600347 334.844401 
L 113.72402 320.84093 
L 113.847692 331.534745 
L 113.971365 322.153303 
L 114.21871 332.220584 
L 114.342382 330.971005 
L 114.466055 332.51525 
L 114.589727 331.035445 
L 114.7134 315.135525 
L 114.837073 331.964854 
L 114.960745 331.274648 
L 115.084418 329.770499 
L 115.20809 331.052009 
L 115.455435 325.779162 
L 115.579107 325.660452 
L 116.073797 336.312506 
L 116.19747 323.945933 
L 116.321142 326.664053 
L 116.444815 322.077542 
L 116.568488 335.386969 
L 116.69216 327.154003 
L 116.939505 333.390319 
L 117.063177 327.830333 
L 117.18685 340.506428 
L 117.310522 331.147836 
L 117.557867 335.844155 
L 117.68154 323.642215 
L 117.805212 334.391152 
L 117.928885 318.740688 
L 118.052557 337.285571 
L 118.17623 325.197016 
L 118.299903 344.420133 
L 118.423575 336.006238 
L 118.547247 341.879562 
L 118.67092 338.455319 
L 118.918265 346.951578 
L 119.041937 345.32846 
L 119.16561 338.480265 
L 119.289282 343.97535 
L 119.412955 337.741564 
L 119.536627 346.661841 
L 119.6603 329.422632 
L 119.783973 342.753669 
L 119.907645 336.699277 
L 120.031318 342.264399 
L 120.15499 328.208852 
L 120.278662 342.060327 
L 120.402335 338.271483 
L 120.526007 346.104915 
L 120.64968 341.268607 
L 120.773352 343.287654 
L 120.897025 338.675178 
L 121.020697 349.958213 
L 121.14437 346.674769 
L 121.391715 348.259379 
L 121.63906 336.614567 
L 121.886405 348.071354 
L 122.010077 348.316774 
L 122.13375 325.796198 
L 122.257422 346.730646 
L 122.381095 338.621995 
L 122.504767 340.452771 
L 122.62844 338.389839 
L 122.752112 347.896291 
L 122.875785 341.329757 
L 123.12313 346.517868 
L 123.246803 348.327931 
L 123.370475 342.906118 
L 123.494147 347.338541 
L 123.61782 341.865075 
L 123.865165 350.044634 
L 123.988837 346.174057 
L 124.11251 332.363636 
L 124.236182 346.65551 
L 124.359855 325.488558 
L 124.483527 342.114942 
L 124.6072 340.357521 
L 124.730872 349.403981 
L 124.854545 334.58877 
L 124.978217 346.0122 
L 125.10189 335.408144 
L 125.225562 342.915766 
L 125.59658 332.418461 
L 125.720253 338.901836 
L 125.843925 317.172935 
L 125.967597 342.777045 
L 126.09127 328.414182 
L 126.214942 350.019738 
L 126.338615 333.386361 
L 126.462287 354.834445 
L 126.58596 344.664622 
L 126.709632 348.875924 
L 126.833305 346.562003 
L 126.956977 350.771655 
L 127.08065 338.959861 
L 127.204322 350.455365 
L 127.327995 332.092664 
L 127.451667 349.780885 
L 127.57534 334.292235 
L 127.699012 353.062364 
L 127.822685 329.70788 
L 127.946357 350.877979 
L 128.07003 334.448325 
L 128.193703 355.934492 
L 128.317375 343.568564 
L 128.688392 355.527067 
L 128.812065 339.628466 
L 128.935737 350.945691 
L 129.05941 349.046755 
L 129.183083 355.153826 
L 129.306755 351.981327 
L 129.430428 354.343739 
L 129.5541 351.521633 
L 129.801445 363.097404 
L 129.925117 360.059719 
L 130.04879 353.627926 
L 130.172462 354.418838 
L 130.296135 352.221438 
L 130.419807 360.587463 
L 130.54348 348.559126 
L 130.667152 364.124861 
L 130.790825 343.427419 
L 130.914497 358.613063 
L 131.03817 346.257985 
L 131.161842 358.756629 
L 131.285515 352.52348 
L 131.409187 360.464585 
L 131.53286 360.927944 
L 131.656532 363.906334 
L 131.780205 352.80683 
L 131.903877 358.540037 
L 132.02755 348.354864 
L 132.151222 363.547224 
L 132.274895 362.13142 
L 132.398568 357.038242 
L 132.52224 363.303594 
L 132.645913 362.748739 
L 132.769585 348.888384 
L 132.893258 357.699116 
L 133.01693 353.283522 
L 133.140602 361.400821 
L 133.264275 351.558035 
L 133.51162 365.265384 
L 133.635292 357.91397 
L 133.882637 366.173536 
L 134.00631 362.339454 
L 134.129982 365.506363 
L 134.253655 365.792999 
L 134.377327 359.595786 
L 134.501 366.373655 
L 134.624672 364.344393 
L 134.748345 364.423717 
L 134.872017 362.792826 
L 134.99569 367.135144 
L 135.119362 360.524267 
L 135.243035 367.456178 
L 135.366707 362.579632 
L 135.49038 364.512085 
L 135.614053 364.024536 
L 135.98507 367.90017 
L 136.108743 364.619853 
L 136.232415 366.189691 
L 136.356088 366.242437 
L 136.47976 366.673546 
L 136.603432 365.770255 
L 136.727105 369.434018 
L 136.97445 366.383542 
L 137.098122 361.140444 
L 137.221795 365.553881 
L 137.46914 376.827163 
L 137.716485 377.174433 
L 137.840157 376.130165 
L 137.96383 378.405569 
L 138.087502 373.15865 
L 138.211175 377.12173 
L 138.334847 375.711151 
L 138.705865 383.935651 
L 138.829537 385.062166 
L 139.076883 381.422983 
L 139.324228 383.910114 
L 139.4479 383.298949 
L 139.571573 377.672409 
L 139.695245 383.535176 
L 139.818917 380.729863 
L 139.94259 381.46125 
L 140.189935 385.626451 
L 140.313607 376.646555 
L 140.43728 380.679389 
L 140.560952 376.26106 
L 140.684625 387.845597 
L 140.808297 384.423773 
L 140.93197 387.521008 
L 141.055642 386.751064 
L 141.179315 386.932845 
L 141.302988 382.705742 
L 141.42666 384.559241 
L 141.550332 380.381794 
L 141.674005 388.218753 
L 141.797677 384.466334 
L 141.92135 387.913706 
L 142.045022 385.926345 
L 142.168695 387.562401 
L 142.292368 391.241282 
L 142.41604 391.09446 
L 142.539713 392.731729 
L 142.663385 391.634212 
L 142.787058 392.332607 
L 142.91073 392.256712 
L 143.158075 396.795873 
L 143.529092 404.742362 
L 143.776437 399.382241 
L 143.90011 403.681132 
L 144.147455 396.797184 
L 144.3948 406.914496 
L 144.518472 405.601318 
L 144.642145 406.381976 
L 144.765817 401.426926 
L 144.88949 402.498583 
L 145.013162 407.20297 
L 145.136835 406.312644 
L 145.260507 411.732339 
L 145.38418 411.336572 
L 145.507853 410.323066 
L 145.631525 411.023691 
L 145.755198 409.569139 
L 145.87887 409.447983 
L 146.002543 409.96933 
L 146.249887 406.362325 
L 146.497232 412.18252 
L 146.620905 411.919289 
L 146.744577 409.16627 
L 146.991922 417.661427 
L 147.115595 416.976322 
L 147.239267 410.568157 
L 147.36294 418.562342 
L 147.486612 415.572021 
L 147.733957 420.768244 
L 147.85763 420.837567 
L 147.981302 416.063491 
L 148.104975 420.809377 
L 148.228647 419.343943 
L 148.35232 422.08961 
L 148.475992 416.793928 
L 148.599665 419.427174 
L 148.723338 418.323701 
L 148.970683 421.435443 
L 149.218028 417.286358 
L 149.3417 421.909112 
L 149.465373 416.953283 
L 149.589045 421.937434 
L 149.712717 418.516973 
L 149.83639 422.192856 
L 149.960062 416.810437 
L 150.083735 421.027097 
L 150.207407 420.836298 
L 150.33108 419.778541 
L 150.454752 422.132827 
L 150.578425 421.939184 
L 150.702097 419.362526 
L 150.82577 420.173593 
L 150.949442 419.949924 
L 151.073115 422.786347 
L 151.32046 421.151241 
L 151.444132 419.029588 
L 151.567805 421.945979 
L 151.691477 420.920496 
L 151.81515 421.350547 
L 151.938822 419.553093 
L 152.062495 421.589256 
L 152.186168 417.88473 
L 152.30984 422.755842 
L 152.433513 414.908292 
L 152.557185 422.605642 
L 152.680858 418.236146 
L 152.80453 421.629325 
L 152.928202 420.643005 
L 153.175547 423.248638 
L 153.29922 422.432071 
L 153.422892 420.175641 
L 153.546565 421.709977 
L 153.670237 418.601804 
L 153.79391 422.99023 
L 153.917582 415.745136 
L 154.041255 422.216652 
L 154.164927 418.257659 
L 154.2886 420.275305 
L 154.412272 419.398631 
L 154.535945 422.301321 
L 154.659617 421.199797 
L 154.78329 422.606492 
L 154.906962 417.898817 
L 155.030635 422.903621 
L 155.27798 420.554662 
L 155.401653 414.069688 
L 155.525325 421.818265 
L 155.648998 416.936146 
L 155.896343 421.116181 
L 156.020015 419.826156 
L 156.143687 427.161317 
L 156.26736 422.261901 
L 156.391032 423.854681 
L 156.514705 423.272642 
L 156.638377 420.565678 
L 156.76205 427.402725 
L 156.885722 424.139492 
L 157.009395 426.032738 
L 157.133067 423.647198 
L 157.25674 425.625845 
L 157.380412 425.093569 
L 157.504085 425.165785 
L 157.627757 421.837826 
L 157.75143 426.345585 
L 157.875102 419.511106 
L 158.122447 426.662632 
L 158.24612 426.215548 
L 158.369792 424.308259 
L 158.617138 427.46263 
L 158.74081 426.000794 
L 158.864483 422.557054 
L 158.988155 425.796052 
L 159.111828 425.377047 
L 159.359172 427.418166 
L 159.606517 424.436819 
L 159.73019 426.302938 
L 159.853862 423.69819 
L 159.977535 426.131753 
L 160.101207 422.997367 
L 160.22488 427.100072 
L 160.472225 426.357478 
L 160.595897 425.181049 
L 160.71957 426.54195 
L 160.843242 424.709178 
L 161.090587 424.901726 
L 161.21426 426.649982 
L 161.337932 422.837428 
L 161.585277 426.320405 
L 161.70895 424.358535 
L 161.832622 426.807414 
L 161.956295 426.565704 
L 162.079968 422.163611 
L 162.20364 426.263458 
L 162.327313 422.274957 
L 162.450985 428.64121 
L 162.574658 422.24056 
L 162.69833 426.832362 
L 162.822002 427.088608 
L 162.945675 426.571242 
L 163.069347 427.827207 
L 163.316692 426.578458 
L 163.440365 427.500165 
L 163.68771 427.44172 
L 163.811382 424.142359 
L 163.935055 426.426105 
L 164.058727 424.430878 
L 164.1824 427.54307 
L 164.306072 427.540767 
L 164.429745 427.221899 
L 164.553417 428.248207 
L 164.67709 427.86761 
L 164.924435 428.472799 
L 165.048107 428.248661 
L 165.17178 426.826711 
L 165.295453 428.288343 
L 165.419125 427.810507 
L 165.542798 428.143431 
L 165.66647 427.38145 
L 165.790143 427.875765 
L 165.913815 429.38403 
L 166.16116 428.319082 
L 166.284832 428.729655 
L 166.408505 427.636637 
L 166.65585 429.149031 
L 166.779522 428.57281 
L 166.903195 430.047022 
L 167.026867 429.393587 
L 167.274212 430.102783 
L 167.397885 429.405001 
L 167.521557 429.753468 
L 167.64523 429.568179 
L 167.892575 427.418751 
L 168.016247 429.264125 
L 168.13992 427.3727 
L 168.263592 430.132633 
L 168.387265 429.62557 
L 168.510938 429.733344 
L 168.63461 429.046628 
L 168.758283 430.22929 
L 168.881955 429.532416 
L 169.005628 429.743398 
L 169.1293 429.299982 
L 169.376645 430.865969 
L 169.500317 430.506275 
L 169.62399 430.971657 
L 169.747662 430.481698 
L 169.871335 430.634303 
L 169.995007 431.102214 
L 170.11868 430.084837 
L 170.242352 430.814427 
L 170.366025 430.21035 
L 170.489697 430.389794 
L 170.61337 430.119166 
L 170.860715 430.818612 
L 170.984387 430.626884 
L 171.10806 429.651613 
L 171.355405 431.11856 
L 171.60275 430.653116 
L 171.726423 430.593102 
L 171.850095 431.42113 
L 171.973768 430.669302 
L 172.221113 431.105185 
L 172.344785 431.21505 
L 172.468457 431.093274 
L 172.59213 430.754116 
L 172.715802 431.757712 
L 172.839475 426.246998 
L 172.963147 431.210892 
L 173.08682 429.946475 
L 173.334165 432.512616 
L 173.457837 431.63789 
L 173.58151 434.165425 
L 173.705182 434.20907 
L 173.828855 433.761785 
L 173.952527 433.944091 
L 174.0762 433.358533 
L 174.199872 433.76231 
L 174.447217 433.55378 
L 174.57089 432.199283 
L 174.694562 433.968245 
L 174.818235 433.625233 
L 174.941907 434.070326 
L 175.06558 432.912966 
L 175.189253 434.406048 
L 175.312925 433.442486 
L 175.436598 434.517727 
L 175.56027 433.342224 
L 175.683943 433.935224 
L 175.807615 433.795429 
L 175.931287 433.424736 
L 176.05496 434.543678 
L 176.178632 434.009134 
L 176.302305 434.065263 
L 176.425977 434.395114 
L 176.54965 433.487701 
L 176.673322 434.26956 
L 176.796995 433.963648 
L 176.920667 434.571872 
L 177.04434 434.301932 
L 177.168012 434.309397 
L 177.291685 433.361388 
L 177.415357 433.894218 
L 177.53903 433.842165 
L 177.786375 434.349639 
L 177.910047 434.312171 
L 178.03372 433.359248 
L 178.157392 433.671777 
L 178.281065 435.647059 
L 178.404738 435.618621 
L 178.52841 434.301991 
L 178.652083 435.227288 
L 178.775755 434.513478 
L 178.899428 435.627853 
L 179.0231 434.214375 
L 179.146772 435.729555 
L 179.270445 435.419518 
L 179.394117 435.491083 
L 179.51779 434.597706 
L 179.641462 435.047963 
L 179.765135 436.120366 
L 179.888807 435.454716 
L 180.136152 437.274954 
L 180.259825 436.782797 
L 180.383497 437.294095 
L 180.50717 435.960642 
L 180.630842 437.041632 
L 180.754515 436.31599 
L 180.878187 437.264703 
L 181.00186 436.277069 
L 181.125532 437.254964 
L 181.249205 436.586637 
L 181.372877 437.326302 
L 181.49655 435.907995 
L 181.743895 436.709402 
L 181.867568 437.070989 
L 182.114913 436.99623 
L 182.238585 435.847718 
L 182.362257 437.217439 
L 182.48593 435.219321 
L 182.609602 437.04544 
L 182.733275 436.689456 
L 182.856947 437.231023 
L 182.98062 435.83605 
L 183.104292 437.158499 
L 183.227965 436.355462 
L 183.351637 436.665144 
L 183.47531 436.283154 
L 183.722655 437.357023 
L 183.846327 437.099366 
L 183.97 435.718339 
L 184.093672 437.225 
L 184.217345 435.893619 
L 184.46469 437.163695 
L 184.588362 436.823964 
L 184.835707 437.373637 
L 184.95938 436.610857 
L 185.083053 437.296816 
L 185.330398 437.051794 
L 185.45407 435.567121 
L 185.577742 437.313545 
L 185.701415 436.105163 
L 185.825087 436.812832 
L 185.94876 435.657128 
L 186.072432 437.52409 
L 186.196105 436.409466 
L 186.319777 437.252164 
L 186.44345 436.880435 
L 186.567122 437.402663 
L 186.814467 436.996108 
L 186.93814 436.3011 
L 187.061812 437.185741 
L 187.185485 436.604571 
L 187.43283 437.323491 
L 187.556502 437.437705 
L 187.680175 437.103827 
L 187.803847 437.490006 
L 187.92752 436.051851 
L 188.051192 437.376561 
L 188.174865 436.002206 
L 188.298538 436.892722 
L 188.42221 436.312078 
L 188.545883 437.57352 
L 188.669555 436.701707 
L 188.793228 437.351944 
L 188.9169 436.326573 
L 189.040572 437.322401 
L 189.164245 436.055335 
L 189.287917 436.757904 
L 189.41159 436.204496 
L 189.535262 437.412906 
L 189.658935 437.078738 
L 190.029952 437.164556 
L 190.277297 437.199155 
L 190.40097 435.980139 
L 190.524642 437.559107 
L 190.648315 437.208412 
L 190.771987 436.517333 
L 190.89566 437.038671 
L 191.019332 436.937087 
L 191.143005 436.454963 
L 191.266678 436.966122 
L 191.39035 436.620497 
L 191.514023 437.295216 
L 191.637695 436.353463 
L 191.761368 437.085708 
L 191.88504 436.664488 
L 192.008713 437.796552 
L 192.132385 437.525962 
L 192.256057 437.532379 
L 192.37973 437.322299 
L 192.503402 437.971631 
L 192.627075 437.236391 
L 192.750747 437.412956 
L 192.87442 436.476455 
L 192.998092 437.561143 
L 193.121765 436.998722 
L 193.245437 437.634182 
L 193.36911 437.268587 
L 193.492782 437.884026 
L 193.616455 437.402632 
L 193.740127 437.888668 
L 193.8638 437.810601 
L 194.111145 438.016199 
L 194.234817 437.948706 
L 194.35849 438.067413 
L 194.482163 437.784183 
L 194.605835 437.868419 
L 194.85318 438.391216 
L 195.100525 438.312646 
L 195.224198 438.148969 
L 195.34787 438.345622 
L 195.471542 438.283538 
L 195.595215 438.349138 
L 195.718887 437.707144 
L 195.84256 438.329334 
L 195.966232 437.707528 
L 196.213577 438.481746 
L 196.33725 438.475037 
L 196.460922 438.049265 
L 196.584595 438.49709 
L 196.708267 437.995748 
L 196.955612 438.544116 
L 197.079285 438.553608 
L 197.202957 438.404708 
L 197.32663 438.739069 
L 197.450302 438.520305 
L 197.573975 438.705245 
L 197.82132 438.430074 
L 197.944993 438.643079 
L 198.068665 438.630975 
L 198.192338 438.750546 
L 198.439683 438.55359 
L 198.8107 438.796825 
L 198.934372 438.635564 
L 199.058045 438.878446 
L 199.181717 438.654848 
L 199.30539 438.762361 
L 199.429062 438.563645 
L 199.552735 438.79964 
L 199.676407 438.204175 
L 199.923752 438.975685 
L 200.047425 439.006191 
L 200.171097 438.656782 
L 200.418442 438.965359 
L 201.160478 438.743216 
L 201.28415 439.240993 
L 201.407823 438.519728 
L 201.531495 439.220354 
L 201.655168 439.064873 
L 201.902513 439.483242 
L 202.026185 439.183865 
L 202.149857 439.676042 
L 202.27353 439.676639 
L 202.397202 439.153748 
L 202.644547 439.931972 
L 202.76822 439.967547 
L 203.015565 439.847436 
L 203.26291 440.424175 
L 203.386582 440.193902 
L 203.633927 440.523602 
L 203.881272 440.173875 
L 204.004945 440.407133 
L 204.128617 440.149818 
L 204.25229 440.362709 
L 204.375963 440.062317 
L 204.499635 440.183968 
L 204.623308 440.473557 
L 204.74698 440.377231 
L 204.870653 439.96895 
L 204.994325 440.45778 
L 205.365342 440.354718 
L 205.489015 440.373794 
L 205.612687 440.197047 
L 205.860032 440.484491 
L 205.983705 440.380848 
L 206.107377 440.494041 
L 206.23105 440.22059 
L 206.602067 440.684758 
L 207.096757 440.441778 
L 207.22043 440.57313 
L 207.344102 440.376626 
L 207.467775 440.522131 
L 207.591448 440.120395 
L 207.71512 440.676491 
L 207.838793 440.164421 
L 208.086138 440.852957 
L 208.20981 440.800184 
L 208.333483 440.358413 
L 208.457155 440.839762 
L 208.828172 440.571463 
L 208.951845 440.805432 
L 209.075517 440.413002 
L 209.19919 440.809249 
L 209.69388 440.754421 
L 209.941225 440.786763 
L 210.18857 440.622598 
L 210.312242 440.619406 
L 210.559587 441.221648 
L 210.68326 441.117672 
L 210.806933 441.276371 
L 210.930605 441.130137 
L 211.425295 441.259182 
L 211.548968 441.093719 
L 211.67264 441.337381 
L 211.796312 441.034965 
L 211.919985 441.306528 
L 212.043657 441.086656 
L 212.291002 441.460638 
L 212.414675 441.409423 
L 212.66202 441.535448 
L 212.909365 441.264157 
L 213.033037 441.689856 
L 213.15671 441.594774 
L 213.280382 441.235043 
L 213.527727 441.712572 
L 213.775072 441.451763 
L 213.898745 441.493953 
L 214.022417 441.39829 
L 214.14609 441.657737 
L 214.269763 441.409141 
L 214.393435 441.608446 
L 214.517108 441.528646 
L 214.64078 441.663984 
L 214.764453 441.55977 
L 214.888125 441.689216 
L 215.011798 441.424678 
L 215.13547 441.532466 
L 215.259142 441.35665 
L 215.382815 441.644724 
L 215.506487 441.063354 
L 215.63016 441.66582 
L 216.001177 441.566961 
L 216.12485 441.269229 
L 216.372195 441.424499 
L 216.495867 441.984851 
L 216.866885 441.76894 
L 217.361575 442.078859 
L 217.485248 441.799553 
L 217.60892 442.101864 
L 217.732593 441.637087 
L 217.856265 442.123256 
L 217.979938 441.99283 
L 218.227283 442.187361 
L 218.474627 442.02642 
L 218.5983 441.993254 
L 218.721972 442.203024 
L 218.969317 441.995434 
L 219.09299 442.075821 
L 219.216662 441.715115 
L 219.340335 442.070172 
L 219.464007 441.862246 
L 219.958697 442.259835 
L 220.206042 442.111378 
L 220.329715 442.073307 
L 220.453387 442.219763 
L 220.57706 442.012766 
L 220.700733 442.320345 
L 221.07175 442.071443 
L 221.195423 442.378879 
L 221.319095 442.186131 
L 221.442768 442.44509 
L 221.56644 442.411708 
L 221.690112 441.986525 
L 221.813785 442.260752 
L 221.937457 441.987094 
L 222.184802 442.497719 
L 222.308475 442.37442 
L 222.55582 442.532121 
L 222.803165 442.223718 
L 222.926837 441.784761 
L 223.05051 442.509248 
L 223.421527 442.501763 
L 223.5452 442.61801 
L 223.668872 442.368331 
L 223.792545 442.392096 
L 223.916217 442.546403 
L 224.03989 442.477189 
L 224.163563 442.246809 
L 224.287235 442.404802 
L 224.53458 442.926313 
L 224.658253 442.427173 
L 224.781925 442.679261 
L 224.905597 442.642429 
L 225.152942 442.852715 
L 225.400287 442.750726 
L 225.52396 442.821458 
L 225.647632 443.121109 
L 226.265995 442.951495 
L 226.389667 443.206227 
L 226.51334 443.120872 
L 226.760685 443.240467 
L 227.00803 443.295587 
L 227.131702 443.472461 
L 227.379048 442.992807 
L 227.750065 443.436338 
L 227.873738 443.355435 
L 227.99741 443.515887 
L 228.121082 443.09635 
L 228.4921 443.487752 
L 228.615772 443.315995 
L 228.739445 443.474688 
L 228.863117 443.144707 
L 229.110462 443.656154 
L 229.357807 443.317289 
L 229.48148 443.645766 
L 229.728825 443.607505 
L 229.852497 443.591644 
L 229.97617 443.843286 
L 230.099842 443.323225 
L 230.223515 443.996086 
L 230.347187 443.721983 
L 230.47086 443.811111 
L 230.594533 443.496618 
L 230.841878 444.002596 
L 230.96555 444.098163 
L 231.089223 443.861821 
L 231.212895 443.930298 
L 231.336568 444.380376 
L 231.46024 444.203675 
L 231.583912 444.358286 
L 231.831257 444.27105 
L 231.95493 444.453295 
L 232.078602 444.28964 
L 232.202275 444.471917 
L 232.820637 444.305326 
L 233.067982 444.484917 
L 233.191655 444.406628 
L 233.315327 444.195355 
L 233.439 444.466077 
L 233.562672 444.191496 
L 233.810017 444.570161 
L 234.552053 444.334565 
L 234.675725 444.553842 
L 234.799397 444.327092 
L 234.92307 444.603702 
L 235.046742 444.278211 
L 235.170415 444.452329 
L 235.294087 444.075328 
L 235.541432 444.37782 
L 235.665105 444.521713 
L 235.788777 444.333484 
L 235.91245 444.530902 
L 236.036122 443.69171 
L 236.159795 444.512853 
L 236.283467 444.550623 
L 236.40714 444.433621 
L 236.530812 444.555278 
L 236.90183 444.433059 
L 237.025502 444.585838 
L 237.149175 444.547846 
L 237.272848 444.845855 
L 237.39652 444.811568 
L 237.520193 444.606483 
L 237.643865 444.844682 
L 238.014882 444.645951 
L 238.138555 444.951373 
L 238.262227 444.734872 
L 238.3859 444.986157 
L 238.509572 444.541019 
L 238.756917 445.011813 
L 238.88059 444.941759 
L 239.004262 444.549183 
L 239.127935 444.938264 
L 239.251607 444.612854 
L 239.498952 445.047045 
L 239.622625 445.065681 
L 239.746297 444.920462 
L 239.993642 445.097425 
L 240.240987 444.774484 
L 240.36466 445.011217 
L 240.612005 445.049641 
L 240.735678 444.536249 
L 240.85935 444.991615 
L 240.983023 444.889059 
L 241.230367 445.075811 
L 241.477712 444.923857 
L 241.601385 445.067358 
L 241.725057 444.781583 
L 242.096075 445.140026 
L 242.219747 444.7403 
L 242.467092 445.035641 
L 242.714437 444.822456 
L 242.83811 445.210775 
L 242.961782 444.652905 
L 243.085455 445.080603 
L 243.3328 445.208487 
L 243.456472 444.993735 
L 243.580145 445.102208 
L 243.703818 444.718438 
L 243.951163 445.216126 
L 244.074835 444.927836 
L 244.32218 445.241551 
L 244.445853 445.094455 
L 244.569525 445.238649 
L 244.81687 445.010141 
L 245.064215 445.220977 
L 245.187887 445.018131 
L 245.31156 445.230131 
L 245.435232 444.946486 
L 245.558905 445.084005 
L 245.682577 444.991574 
L 245.80625 445.179869 
L 245.929922 444.904044 
L 246.053595 445.266298 
L 246.177267 445.102129 
L 246.30094 445.198704 
L 246.424612 444.979897 
L 246.548285 445.102606 
L 246.671957 445.005946 
L 246.79563 445.078985 
L 246.919302 444.981218 
L 247.042975 445.22504 
L 247.166648 445.078543 
L 247.29032 445.186729 
L 247.413993 445.089702 
L 247.661338 445.349148 
L 247.78501 445.190336 
L 248.032355 445.495845 
L 248.156027 445.18572 
L 248.2797 445.376106 
L 248.403372 445.264048 
L 248.527045 445.387358 
L 248.650717 445.148372 
L 248.77439 445.463703 
L 248.898062 445.381082 
L 249.021735 445.432831 
L 249.145407 445.236683 
L 249.26908 445.544214 
L 249.640097 445.205164 
L 249.76377 445.434697 
L 250.134787 445.3412 
L 250.382133 445.49412 
L 250.505805 445.193815 
L 251.000495 445.518307 
L 251.371512 445.304912 
L 251.495185 445.580678 
L 251.618857 445.360113 
L 251.866202 445.726783 
L 252.113547 445.597881 
L 252.484565 445.767263 
L 252.73191 445.644493 
L 253.2266 445.702212 
L 253.350272 445.523466 
L 253.72129 445.908988 
L 253.844963 445.499031 
L 253.968635 445.919409 
L 254.092308 445.472108 
L 254.463325 445.735306 
L 254.586997 445.623632 
L 254.71067 445.815151 
L 254.834342 445.597304 
L 255.20536 445.890373 
L 255.329032 445.448652 
L 255.452705 445.863225 
L 255.576377 445.442577 
L 255.823722 445.882593 
L 255.947395 445.886922 
L 256.071067 445.643258 
L 256.318412 445.787737 
L 256.813102 445.907862 
L 257.307793 445.940963 
L 257.926155 445.709978 
L 258.1735 445.920505 
L 258.297172 445.531006 
L 258.420845 445.846688 
L 258.544517 445.431139 
L 258.66819 445.821245 
L 258.791862 445.494279 
L 259.039207 445.817833 
L 259.286552 445.739513 
L 259.533897 445.800395 
L 259.65757 445.960787 
L 260.028587 445.746918 
L 260.15226 445.900937 
L 260.275933 445.581172 
L 260.523278 445.914118 
L 260.64695 446.004304 
L 260.894295 445.927992 
L 261.017967 446.06301 
L 261.14164 445.945548 
L 261.265312 446.23873 
L 261.388985 446.100741 
L 261.63633 446.182777 
L 261.760002 445.954975 
L 261.883675 446.177492 
L 262.007347 446.014869 
L 262.13102 446.251994 
L 262.378365 446.257707 
L 262.502037 446.338941 
L 262.62571 446.239133 
L 262.749382 445.937978 
L 262.873055 446.176368 
L 262.996727 445.908614 
L 263.1204 446.299257 
L 263.244072 446.01807 
L 263.491418 446.244204 
L 263.61509 446.232895 
L 263.738763 445.847895 
L 263.862435 446.315194 
L 263.986108 446.134136 
L 264.10978 446.207877 
L 264.233452 445.996651 
L 264.60447 446.261172 
L 264.728142 446.136322 
L 264.851815 446.294417 
L 264.975487 445.953488 
L 265.09916 446.291936 
L 265.222832 446.193541 
L 265.346505 446.300655 
L 265.470177 446.225316 
L 265.59385 446.349344 
L 265.841195 446.152134 
L 265.964867 446.097146 
L 266.212212 446.310208 
L 266.335885 446.288629 
L 266.459557 446.137899 
L 266.58323 446.343874 
L 266.830575 446.217736 
L 267.07792 446.35314 
L 267.201593 446.278196 
L 267.325265 446.428073 
L 267.448937 446.171197 
L 267.57261 446.346538 
L 267.943627 446.143328 
L 268.0673 446.327126 
L 268.438317 446.094295 
L 268.56199 446.476172 
L 268.685662 446.218894 
L 268.809335 446.430254 
L 269.05668 446.337058 
L 269.304025 446.462443 
L 269.427697 446.309703 
L 269.55137 446.340325 
L 269.675042 446.052165 
L 269.798715 446.329106 
L 269.922387 446.2758 
L 270.04606 446.399497 
L 270.169733 446.276965 
L 270.417078 446.502296 
L 270.664423 446.316155 
L 270.911767 446.42636 
L 271.03544 446.414413 
L 271.159112 446.256374 
L 271.406457 446.421048 
L 271.53013 446.428982 
L 271.653802 446.044789 
L 271.777475 446.312507 
L 271.901147 445.980803 
L 272.02482 446.464265 
L 272.148492 446.225539 
L 272.272165 446.518829 
L 272.395837 446.383321 
L 272.51951 446.518728 
L 272.643182 446.275508 
L 272.766855 446.444852 
L 272.890527 446.226705 
L 273.0142 446.467996 
L 273.137872 446.088218 
L 273.261545 446.40997 
L 273.385218 446.303249 
L 273.50889 446.57184 
L 273.632563 446.300277 
L 273.756235 446.533409 
L 274.127252 446.270985 
L 274.250925 446.490152 
L 274.374597 446.386063 
L 274.621942 446.53064 
L 274.745615 446.49045 
L 274.869287 446.290683 
L 274.99296 446.552909 
L 275.116632 446.176276 
L 275.240305 446.468197 
L 275.363977 446.351439 
L 275.48765 446.479125 
L 275.858667 446.384304 
L 276.106012 446.576999 
L 277.46641 446.607191 
L 277.590082 446.68575 
L 277.837427 446.605348 
L 278.579462 446.707038 
L 278.703135 446.604547 
L 279.074152 446.733431 
L 279.197825 446.549778 
L 279.321497 446.723457 
L 279.44517 446.602669 
L 279.692515 446.761093 
L 279.93986 446.556488 
L 280.187205 446.751645 
L 280.310878 446.766441 
L 280.43455 446.653777 
L 280.92924 446.789344 
L 281.91862 446.634307 
L 282.042292 446.770859 
L 282.41331 446.732552 
L 282.536982 446.810627 
L 282.660655 446.604835 
L 282.784327 446.817597 
L 283.031672 446.805365 
L 283.279018 446.860064 
L 283.526363 446.901842 
L 283.773708 447.046745 
L 284.144725 447.032376 
L 284.515742 447.04935 
L 284.639415 446.924267 
L 284.763087 447.092631 
L 285.38145 446.979975 
L 285.87614 447.249569 
L 286.247157 447.271104 
L 286.494503 447.292155 
L 286.989193 447.312405 
L 287.236537 447.296637 
L 287.8549 447.166347 
L 288.225917 447.355738 
L 288.596935 447.29272 
L 288.720607 447.385824 
L 288.84428 447.286086 
L 288.967952 447.333 
L 289.091625 447.260979 
L 289.215297 447.396078 
L 289.33897 447.320614 
L 289.586315 447.385253 
L 290.32835 447.370725 
L 290.452022 447.43367 
L 290.575695 447.32023 
L 291.070385 447.425165 
L 291.194057 447.457025 
L 291.31773 447.353741 
L 291.565075 447.401815 
L 291.936092 447.464514 
L 292.30711 447.448122 
L 292.678127 447.470236 
L 292.925472 447.457273 
L 293.543835 447.444628 
L 293.79118 447.510506 
L 294.409542 447.453746 
L 295.151577 447.479627 
L 295.27525 447.428028 
L 295.522595 447.474021 
L 295.646267 447.491649 
L 295.76994 447.362542 
L 295.893612 447.474538 
L 296.017285 447.435123 
L 296.26463 447.537446 
L 297.006665 447.400349 
L 297.130337 447.510618 
L 297.377682 447.533005 
L 297.7487 447.444226 
L 297.872372 447.555276 
L 297.996045 447.440319 
L 298.119717 447.513751 
L 298.24339 447.452336 
L 298.614407 447.556911 
L 298.73808 447.467113 
L 298.985425 447.545358 
L 299.109097 447.501709 
L 299.356442 447.637243 
L 300.22215 447.679684 
L 300.593167 447.681696 
L 300.71684 447.585723 
L 300.840512 447.681366 
L 301.087857 447.641883 
L 301.829892 447.729825 
L 301.953565 447.640927 
L 302.20091 447.708226 
L 303.066618 447.740272 
L 303.313963 447.686163 
L 304.17967 447.7378 
L 304.427015 447.712617 
L 306.529448 447.894933 
L 306.776792 447.854544 
L 308.260862 447.881109 
L 308.755552 447.911069 
L 309.002897 447.839039 
L 309.373915 447.846216 
L 312.960418 448.011828 
L 313.207763 448.086495 
L 313.331435 447.933107 
L 313.57878 448.061582 
L 313.949797 448.096916 
L 314.197142 448.065595 
L 314.939177 448.088362 
L 315.804885 448.133806 
L 315.928557 448.150429 
L 316.05223 448.045629 
L 316.175903 448.149959 
L 316.299575 448.02816 
L 316.423248 448.135384 
L 316.54692 448.061245 
L 316.670592 448.169858 
L 317.04161 448.021219 
L 317.288955 448.181273 
L 317.412627 448.106149 
L 317.783645 448.204366 
L 318.402007 448.148051 
L 318.773025 448.243334 
L 319.144043 448.218142 
L 319.638733 448.274662 
L 319.886077 448.235819 
L 320.628112 448.400635 
L 320.751785 448.289088 
L 321.122802 448.375738 
L 321.49382 448.352955 
L 321.98851 448.407749 
L 322.235855 448.470658 
L 325.203995 448.48494 
L 325.575013 448.530243 
L 326.069703 448.528941 
L 326.688065 448.442465 
L 326.93541 448.505445 
L 328.543153 448.576286 
L 328.666825 448.401238 
L 328.91417 448.581501 
L 329.779877 448.542935 
L 329.90355 448.420944 
L 330.027222 448.588304 
L 330.274567 448.575937 
L 330.769257 448.537853 
L 331.016602 448.614059 
L 331.263947 448.608972 
L 331.511292 448.543007 
L 331.634965 448.467162 
L 331.88231 448.642404 
L 333.119035 448.618911 
L 333.490052 448.640051 
L 333.613725 448.56817 
L 333.86107 448.648821 
L 334.479432 448.693594 
L 334.726777 448.814247 
L 334.85045 448.73511 
L 335.097795 448.830062 
L 337.694917 448.804333 
L 338.436953 448.832152 
L 338.80797 448.732377 
L 339.178988 448.869423 
L 339.30266 448.747729 
L 339.426333 448.841813 
L 339.550005 448.792743 
L 339.79735 448.851272 
L 340.044695 448.785771 
L 340.539385 448.888921 
L 340.910402 448.894049 
L 341.28142 448.92604 
L 341.77611 448.823394 
L 341.899783 448.90522 
L 342.023455 448.796807 
L 342.147128 448.898594 
L 342.2708 448.819782 
L 342.394473 448.917412 
L 342.518145 448.834045 
L 342.76549 448.879415 
L 343.136507 448.918592 
L 343.75487 448.819603 
L 344.125887 448.960219 
L 344.373232 448.952851 
L 345.115268 448.962389 
L 345.486285 449.041384 
L 345.73363 449.018995 
L 346.22832 449.093899 
L 346.475665 449.024286 
L 346.846682 449.066824 
L 346.970355 448.964542 
L 347.094027 449.081719 
L 347.341372 449.059428 
L 351.298892 449.207462 
L 351.546238 449.231273 
L 352.040928 449.251902 
L 352.1646 449.155796 
L 352.288273 449.253382 
L 352.411945 449.115522 
L 352.782962 449.291631 
L 353.15398 449.253014 
L 354.514377 449.342175 
L 354.63805 449.23952 
L 354.761723 449.341158 
L 354.885395 449.246254 
L 355.256413 449.337627 
L 355.874775 449.312799 
L 356.740482 449.324316 
L 356.987827 449.366139 
L 357.1115 449.245054 
L 357.358845 449.367804 
L 357.482517 449.433638 
L 357.60619 449.32696 
L 357.977207 449.401185 
L 361.192692 449.471237 
L 361.316365 449.350231 
L 361.440038 449.511088 
L 361.687383 449.455281 
L 363.171452 449.507608 
L 363.54247 449.433622 
L 363.666142 449.514465 
L 363.789815 449.423718 
L 364.03716 449.477017 
L 364.902868 449.537728 
L 365.02654 449.41337 
L 365.52123 449.61165 
L 367.0053 449.618361 
L 367.252645 449.59404 
L 367.376317 449.528465 
L 367.623662 449.65797 
L 367.747335 449.589881 
L 367.871008 449.670738 
L 367.99468 449.578231 
L 368.118353 449.67707 
L 368.242025 449.514515 
L 368.365698 449.659725 
L 368.48937 449.612197 
L 368.613043 449.703932 
L 368.98406 449.636546 
L 369.231405 449.631465 
L 369.355077 449.683887 
L 369.47875 449.610009 
L 369.602422 449.704172 
L 369.849767 449.670201 
L 372.323217 449.739031 
L 372.570562 449.719993 
L 372.94158 449.792599 
L 373.43627 449.743709 
L 373.559942 449.777092 
L 373.683615 449.678127 
L 374.054632 449.812947 
L 374.178305 449.679402 
L 374.42565 449.800989 
L 375.291358 449.814143 
L 375.786047 449.840465 
L 376.033392 449.811533 
L 376.528082 449.801305 
L 377.022772 449.833456 
L 377.39379 449.699933 
L 377.517462 449.82016 
L 377.641135 449.675192 
L 377.764808 449.849018 
L 377.88848 449.70366 
L 378.135825 449.850144 
L 378.506843 449.840026 
L 378.630515 449.734497 
L 378.754188 449.838861 
L 379.001532 449.827419 
L 379.37255 449.836898 
L 383.453742 449.931525 
L 383.701087 449.879363 
L 383.948432 450.013846 
L 384.31945 449.960494 
L 384.690468 449.980034 
L 384.81414 449.938763 
L 384.937813 450.042043 
L 385.185158 449.990011 
L 385.432502 450.016133 
L 385.556175 449.962886 
L 385.80352 449.977079 
L 386.174537 449.999078 
L 387.28759 449.996451 
L 387.534935 450.064845 
L 388.524315 450.007861 
L 388.647987 450.046736 
L 388.77166 449.962904 
L 388.895332 450.079107 
L 389.019005 450.005924 
L 389.142677 450.075545 
L 389.26635 449.918749 
L 389.390022 450.059329 
L 389.513695 449.961719 
L 389.76104 450.026014 
L 390.132057 450.067767 
L 390.379402 450.037221 
L 390.75042 450.04726 
L 391.121438 450.090952 
L 391.24511 449.991661 
L 391.492455 450.036027 
L 391.7398 450.009431 
L 392.358162 450.094586 
L 392.605507 450.060176 
L 393.347542 450.069503 
L 393.71856 450.033468 
L 394.089577 450.116414 
L 394.21325 450.021928 
L 394.336923 450.096911 
L 394.460595 449.970373 
L 394.70794 450.057206 
L 395.078958 450.091123 
L 395.449975 449.942847 
L 395.69732 450.071949 
L 396.315682 450.130487 
L 396.439355 450.018756 
L 396.563027 450.127708 
L 396.6867 450.009009 
L 396.934045 450.13034 
L 399.16015 450.061101 
L 399.407495 450.163912 
L 399.778512 450.125593 
L 400.025857 450.227361 
L 400.14953 450.116468 
L 400.520547 450.211945 
L 400.891565 450.159236 
L 401.015238 450.253804 
L 401.13891 450.173481 
L 401.262583 450.250461 
L 401.386255 450.162413 
L 401.6336 450.217719 
L 407.198862 450.27832 
L 407.446208 450.248921 
L 408.682932 450.288809 
L 409.05395 450.294912 
L 410.167002 450.310183 
L 410.53802 450.260048 
L 411.03271 450.288582 
L 411.403728 450.286368 
L 411.5274 450.218639 
L 411.651072 450.307166 
L 411.774745 450.242132 
L 412.02209 450.326138 
L 412.640452 450.260943 
L 413.01147 450.358418 
L 413.50616 450.31172 
L 413.877177 450.36307 
L 414.00085 450.278192 
L 414.248195 450.355948 
L 414.49554 450.305509 
L 414.742885 450.363322 
L 415.855937 450.343327 
L 416.103282 450.403084 
L 416.350627 450.340656 
L 416.597972 450.38514 
L 417.587353 450.374345 
L 417.95837 450.357377 
L 418.329387 450.364885 
L 419.566112 450.391269 
L 419.93713 450.288697 
L 420.060802 450.419342 
L 420.184475 450.303921 
L 420.43182 450.399617 
L 421.050183 450.391777 
L 421.297528 450.386725 
L 421.544872 450.39929 
L 422.039562 450.43277 
L 422.657925 450.355206 
L 422.781597 450.401282 
L 422.90527 450.324631 
L 423.028942 450.42251 
L 423.152615 450.312117 
L 423.39996 450.373788 
L 423.770977 450.409638 
L 424.018323 450.412812 
L 424.265668 450.42116 
L 427.975842 450.498868 
L 428.099515 450.326165 
L 428.223187 450.49126 
L 428.470532 450.522292 
L 428.717877 450.512078 
L 428.84155 450.413807 
L 429.088895 450.567095 
L 429.212567 450.514984 
L 429.459912 450.674165 
L 429.583585 450.574482 
L 429.83093 450.635705 
L 429.954602 450.664017 
L 430.078275 450.527835 
L 430.449293 450.676069 
L 430.82031 450.607779 
L 430.943983 450.685691 
L 431.067655 450.605851 
L 431.315 450.697043 
L 434.654157 450.716882 
L 435.148847 450.720842 
L 435.519865 450.707811 
L 435.643537 450.770162 
L 435.76721 450.698567 
L 435.890882 450.787538 
L 436.2619 450.725497 
L 436.385572 450.785796 
L 436.632917 450.750749 
L 439.353712 450.855756 
L 439.477385 450.728378 
L 439.72473 450.917362 
L 441.2088 450.870387 
L 441.456145 450.897243 
L 441.827162 450.888162 
L 442.321852 450.879358 
L 442.445525 450.749843 
L 442.69287 450.890551 
L 442.816542 450.843511 
L 443.063887 450.952487 
L 443.18756 450.851221 
L 443.311232 450.926185 
L 443.434905 450.82087 
L 443.68225 450.990433 
L 444.795302 450.951909 
L 445.042647 451.035556 
L 446.032027 451.077427 
L 446.279372 451.092051 
L 447.14508 451.013921 
L 447.392425 451.112845 
L 447.516098 451.135862 
L 447.63977 451.020094 
L 447.887115 451.157566 
L 449.12384 451.092087 
L 449.494857 451.205025 
L 449.61853 451.088002 
L 449.865875 451.181581 
L 450.484238 451.203657 
L 450.731583 451.195891 
L 451.1026 451.151744 
L 451.226272 451.251604 
L 451.349945 451.178957 
L 451.59729 451.24474 
L 452.957687 451.260813 
L 453.205032 451.348443 
L 453.328705 451.269751 
L 453.57605 451.406413 
L 454.07074 451.338331 
L 454.194412 451.404639 
L 454.318085 451.237687 
L 454.56543 451.36503 
L 460.749055 451.431817 
L 461.120072 451.496089 
L 461.243745 451.430156 
L 461.367417 451.503715 
L 461.49109 451.407246 
L 461.862107 451.531267 
L 461.98578 451.456496 
L 462.109452 451.514077 
L 462.233125 451.411394 
L 462.356797 451.507395 
L 462.48047 451.401125 
L 462.851487 451.561218 
L 463.098832 451.539063 
L 463.717195 451.54441 
L 464.830247 451.553062 
L 464.95392 451.445655 
L 465.077592 451.543196 
L 465.201265 451.306646 
L 465.44861 451.542753 
L 465.572282 451.542277 
L 465.695955 451.38068 
L 465.9433 451.51911 
L 467.551042 451.607836 
L 467.674715 451.510969 
L 467.92206 451.54799 
L 468.293077 451.634275 
L 468.91144 451.603753 
L 469.777147 451.673604 
L 469.90082 451.554546 
L 470.024493 451.643323 
L 470.148165 451.582673 
L 470.39551 451.657467 
L 470.766527 451.617394 
L 470.8902 451.568827 
L 471.137545 451.617591 
L 471.755907 451.664104 
L 472.37427 451.676426 
L 474.35303 451.624153 
L 474.476702 451.72047 
L 474.600375 451.588093 
L 474.724047 451.711235 
L 474.84772 451.621112 
L 475.095065 451.653944 
L 475.713427 451.707869 
L 476.702808 451.676425 
L 476.82648 451.59029 
L 476.950153 451.705596 
L 477.073825 451.614222 
L 477.32117 451.641733 
L 477.444842 451.688649 
L 477.568515 451.584568 
L 477.692187 451.703948 
L 477.81586 451.628893 
L 478.063205 451.686683 
L 478.434222 451.697495 
L 478.681567 451.667787 
L 480.041965 451.687462 
L 480.536655 451.670676 
L 480.907672 451.738438 
L 481.27869 451.672108 
L 481.402362 451.744499 
L 481.649707 451.691892 
L 489.070057 451.867695 
L 489.19373 451.77225 
L 489.317402 451.878526 
L 489.441075 451.785151 
L 489.68842 451.84452 
L 490.306782 451.901876 
L 490.554127 451.879551 
L 491.296162 451.88918 
L 491.419835 451.808475 
L 491.914525 451.961581 
L 492.903905 451.968164 
L 496.861425 451.968485 
L 497.232442 451.98927 
L 497.356115 451.921538 
L 497.479787 452.006124 
L 497.60346 451.895001 
L 497.974477 451.998725 
L 498.345495 452.002254 
L 500.942617 452.006836 
L 501.189962 451.992029 
L 501.437307 452.036627 
L 502.179342 452.124234 
L 502.303015 452.001903 
L 502.426687 452.138937 
L 502.797705 452.030091 
L 503.04505 452.096438 
L 503.416067 452.133433 
L 503.663412 452.062803 
L 504.281775 452.129808 
L 507.00257 452.112017 
L 507.373587 452.216607 
L 507.49726 452.124468 
L 507.868277 452.18621 
L 508.362967 452.205447 
L 509.599693 452.199616 
L 509.97071 452.15941 
L 515.783317 452.307414 
L 515.90699 452.175715 
L 516.030662 452.286848 
L 516.154335 452.188797 
L 516.278007 452.274586 
L 516.40168 452.185876 
L 516.649025 452.341629 
L 517.143715 452.181537 
L 517.267387 452.343405 
L 517.514732 452.31002 
L 517.762077 452.325054 
L 517.88575 452.25455 
L 518.009422 452.323589 
L 518.133095 452.240817 
L 518.38044 452.308873 
L 519.740837 452.348527 
L 519.988182 452.36666 
L 520.111855 452.265169 
L 520.3592 452.378986 
L 521.101235 452.233148 
L 521.224907 452.388895 
L 521.472252 452.350449 
L 521.719597 452.369294 
L 521.966942 452.312565 
L 522.214287 452.505495 
L 522.461632 452.424138 
L 522.708977 452.484526 
L 522.83265 452.432037 
L 523.079995 452.507976 
L 524.193047 452.547304 
L 524.31672 452.495203 
L 524.687737 452.582583 
L 526.048135 452.599919 
L 527.77955 452.635873 
L 527.903222 452.685508 
L 528.150567 452.626114 
L 529.139947 452.683921 
L 529.26362 452.617737 
L 529.387292 452.725129 
L 529.634637 452.724643 
L 530.74769 452.650897 
L 530.995035 452.68219 
L 531.613397 452.727976 
L 531.984415 452.66679 
L 532.355433 452.723844 
L 532.479105 452.643522 
L 532.72645 452.697576 
L 533.097467 452.727072 
L 533.344812 452.694866 
L 533.592157 452.701825 
L 533.71583 452.622005 
L 533.839502 452.756411 
L 533.963175 452.685817 
L 534.334192 452.75034 
L 534.457865 452.624965 
L 534.581537 452.752778 
L 534.952555 452.693525 
L 535.323572 452.731371 
L 535.69459 452.705593 
L 536.065607 452.753164 
L 536.931315 452.711416 
L 537.17866 452.775222 
L 538.910075 452.802035 
L 539.281092 452.852021 
L 539.404765 452.795891 
L 539.65211 452.83097 
L 540.765162 452.837718 
L 541.259852 452.860659 
L 541.507197 452.844614 
L 541.754542 452.859648 
L 542.249232 452.826146 
L 542.496577 452.85673 
L 542.62025 452.747713 
L 542.991267 452.870528 
L 543.11494 452.787613 
L 543.238612 452.851545 
L 543.362285 452.766726 
L 543.856975 452.890927 
L 544.10432 452.851537 
L 544.722682 452.868744 
L 545.835735 452.834113 
L 546.206752 452.896078 
L 547.443477 452.896736 
L 547.56715 452.757579 
L 547.690822 452.884804 
L 547.814495 452.836682 
L 548.06184 452.911314 
L 548.927547 452.932162 
L 549.05122 452.811281 
L 549.174892 452.923162 
L 549.298565 452.844326 
L 549.422237 452.90994 
L 549.54591 452.833255 
L 549.916927 452.91933 
L 550.287945 452.895971 
L 550.906307 452.946852 
L 551.02998 452.865239 
L 551.153652 452.928995 
L 551.277325 452.842258 
L 551.52467 452.886233 
L 551.648342 452.931533 
L 551.895687 452.899624 
L 552.885067 452.890589 
L 553.00874 452.783525 
L 553.132412 452.951579 
L 553.256085 452.870659 
L 553.379757 452.987417 
L 553.627102 452.983319 
L 555.358517 452.968329 
L 556.224225 453.008164 
L 556.842587 453.003942 
L 557.337277 453.033156 
L 557.584622 452.968607 
L 557.831967 453.042375 
L 558.079312 452.992362 
L 558.574002 452.991337 
L 559.068692 453.058254 
L 559.192365 452.963907 
L 559.43971 453.035458 
L 563.520902 453.114674 
L 563.644575 453.186886 
L 563.89192 453.082613 
L 564.139265 453.159079 
L 564.757627 453.184782 
L 564.8813 453.081317 
L 565.128645 453.145833 
L 566.118025 453.069366 
L 566.241697 453.181774 
L 566.36537 453.104097 
L 566.612715 453.183484 
L 567.107405 453.144598 
L 567.478422 453.173098 
L 567.84944 453.151827 
L 567.973112 453.227136 
L 568.34413 453.147714 
L 568.591475 453.204996 
L 569.209837 453.229013 
L 569.457182 453.187064 
L 569.951872 453.179386 
L 570.446562 453.203812 
L 571.435942 453.232628 
L 571.80696 453.132327 
L 572.177977 453.242406 
L 572.30165 453.15252 
L 572.425322 453.22733 
L 572.548995 453.155435 
L 572.79634 453.245039 
L 573.414702 453.260931 
L 573.538375 453.149083 
L 573.662047 453.266016 
L 573.909392 453.265062 
L 576.135497 453.292313 
L 576.25917 453.15886 
L 576.382842 453.289175 
L 576.506515 453.199604 
L 576.877533 453.318924 
L 578.979965 453.293984 
L 580.71138 453.354539 
L 580.958725 453.352243 
L 583.803193 453.385637 
L 584.421555 453.441289 
L 584.792573 453.431876 
L 586.64766 453.485198 
L 587.266022 453.502177 
L 587.760712 453.546655 
L 590.11049 453.659473 
L 590.357835 453.664046 
L 590.728853 453.701214 
L 590.976198 453.722444 
L 592.08925 453.735633 
L 592.58394 453.775617 
L 592.954957 453.801509 
L 594.06801 453.835164 
L 594.439027 453.839947 
L 595.05739 453.870158 
L 596.788805 453.875948 
L 597.03615 453.935096 
L 597.778185 453.961939 
L 598.767565 453.962886 
L 599.633272 453.938349 
L 600.00429 453.969961 
L 600.49898 453.973078 
L 600.99367 454.006521 
L 601.612032 453.997672 
L 604.4565 454.106086 
L 604.703845 454.089299 
L 605.198535 454.154102 
L 606.064242 454.165307 
L 607.91933 454.259016 
L 625.23348 454.640094 
L 625.480825 454.672193 
L 627.830602 454.70804 
L 629.438345 454.720266 
L 629.933035 454.738896 
L 630.304053 454.71407 
L 631.66445 454.758551 
L 632.530157 454.781788 
L 633.519537 454.790724 
L 633.890555 454.779222 
L 637.60073 454.905204 
L 637.848075 454.901929 
L 638.219092 454.89756 
L 638.961127 454.919305 
L 639.332145 454.96262 
L 639.826835 455.017189 
L 640.445197 454.989224 
L 641.06356 455.038027 
L 644.279045 455.033309 
L 644.402717 454.966189 
L 644.650062 455.062038 
L 645.02108 455.07984 
L 645.392097 455.117188 
L 646.01046 455.115171 
L 646.50515 455.151258 
L 646.752495 455.170079 
L 647.370857 455.15854 
L 648.854927 455.211205 
L 653.678155 455.257672 
L 654.049172 455.295932 
L 655.533242 455.33848 
L 656.151605 455.377514 
L 657.017313 455.368473 
L 657.38833 455.384549 
L 657.759347 455.333575 
L 658.130365 455.415146 
L 658.996072 455.432115 
L 660.35647 455.445305 
L 661.222177 455.469034 
L 662.82992 455.500964 
L 663.942972 455.47487 
L 664.561335 455.508369 
L 665.179697 455.490195 
L 666.045405 455.537432 
L 666.416422 455.503763 
L 666.78744 455.5438 
L 667.034785 455.526636 
L 669.75558 455.619401 
L 670.126598 455.597209 
L 671.115977 455.635268 
L 671.486995 455.631366 
L 672.600047 455.633272 
L 674.084117 455.631198 
L 674.578807 455.669477 
L 676.804913 455.72003 
L 677.17593 455.758836 
L 677.546947 455.735994 
L 678.16531 455.760421 
L 678.66 455.754038 
L 678.783672 455.756969 
L 678.783672 455.756969 
" style="fill:none;stroke:#1f77b4;stroke-linecap:square;stroke-width:3;"/>
   </g>
   <g id="line2d_15">
    <path clip-path="url(#pe3299aa15b)" d="M 60.421172 49.373595 
L 72.66475 49.373595 
L 72.788422 96.837198 
L 85.032 96.837198 
L 85.155672 120.304578 
L 97.39925 120.304578 
L 97.522922 155.589608 
L 109.7665 155.589608 
L 109.890173 143.051308 
L 110.013845 189.090338 
L 122.257422 189.090338 
L 122.381095 218.372366 
L 134.624672 218.372366 
L 134.748345 277.481965 
L 146.991922 277.481965 
L 147.115595 257.066004 
L 147.239267 305.957853 
L 159.482845 305.957853 
L 159.606517 309.164673 
L 159.73019 332.566302 
L 171.973768 332.566302 
L 172.09744 329.839487 
L 172.221113 350.948293 
L 184.46469 350.948292 
L 184.588362 356.83896 
L 196.83194 356.83896 
L 196.955612 349.411506 
L 197.079285 369.978873 
L 209.322862 369.978873 
L 209.446535 379.561152 
L 221.690112 379.561152 
L 221.813785 388.001155 
L 234.057363 388.001155 
L 234.181035 374.412672 
L 234.304708 395.546089 
L 246.548285 395.546089 
L 246.671957 381.278212 
L 246.79563 401.578735 
L 259.039207 401.578735 
L 259.16288 393.66528 
L 259.286552 403.613903 
L 271.53013 403.613903 
L 271.653802 404.705176 
L 283.89738 404.705176 
L 284.021052 405.609596 
L 284.144725 407.38416 
L 296.388303 407.384159 
L 296.511975 398.768265 
L 296.635648 409.226058 
L 308.879225 409.226057 
L 309.002897 409.350609 
L 309.12657 410.521736 
L 321.370147 410.521735 
L 321.49382 409.797936 
L 321.617492 411.650253 
L 333.86107 411.650253 
L 333.984742 413.1103 
L 346.22832 413.110299 
L 346.351992 410.905442 
L 346.475665 414.19779 
L 358.719243 414.197789 
L 358.842915 413.324452 
L 358.966588 415.165006 
L 371.210165 415.165005 
L 371.333838 414.119712 
L 371.45751 415.767256 
L 383.701087 415.767256 
L 383.82476 416.625227 
L 396.068337 416.625227 
L 396.19201 416.799943 
L 396.315682 417.210442 
L 408.682932 417.304426 
L 408.806605 417.714289 
L 421.050183 417.714288 
L 421.4212 418.244889 
L 433.541105 418.244889 
L 433.664778 418.905686 
L 445.908355 418.905686 
L 446.032027 419.239955 
L 458.275605 419.239954 
L 458.52295 419.432454 
L 470.766527 419.515822 
L 471.013872 419.752906 
L 483.25745 419.767111 
L 483.504795 419.919322 
L 507.99195 420.024499 
L 508.239295 420.225931 
L 520.3592 420.225931 
L 520.482872 420.558269 
L 532.72645 420.558268 
L 532.850122 420.921851 
L 545.0937 420.92185 
L 545.217372 421.595262 
L 557.46095 421.595262 
L 557.584622 422.299996 
L 569.8282 422.299995 
L 569.951872 421.668169 
L 570.075545 422.696004 
L 582.319122 422.696003 
L 582.442795 422.456243 
L 582.566467 423.093287 
L 594.810045 423.093286 
L 594.933717 422.823375 
L 595.05739 423.35145 
L 607.300967 423.35145 
L 607.42464 423.667923 
L 619.668217 423.667923 
L 619.915562 423.779321 
L 632.035467 423.77932 
L 632.282812 423.961323 
L 644.402717 423.961322 
L 644.650062 424.096984 
L 656.769968 424.096984 
L 657.017313 424.288452 
L 669.137218 424.288451 
L 669.26089 424.570732 
L 678.783672 424.570732 
L 678.783672 424.570732 
" style="fill:none;stroke:#ff7f0e;stroke-linecap:square;stroke-width:3;"/>
   </g>
   <g id="line2d_16">
    <path clip-path="url(#pe3299aa15b)" d="M 60.421172 57.493335 
L 72.66475 57.493335 
L 72.788422 125.703861 
L 85.032 125.703861 
L 85.155672 51.766659 
L 97.39925 51.766659 
L 97.522922 167.049886 
L 109.7665 167.049886 
L 109.890173 207.129021 
L 122.13375 207.129021 
L 122.257422 241.492076 
L 134.501 241.492076 
L 134.624672 282.042104 
L 146.86825 282.042104 
L 146.991922 301.521943 
L 159.2355 301.521943 
L 159.359172 310.358027 
L 171.60275 310.358027 
L 171.726423 315.880589 
L 183.97 315.880589 
L 184.093672 321.108876 
L 196.33725 321.108876 
L 196.460922 330.648432 
L 208.7045 330.648432 
L 208.828172 341.329678 
L 221.07175 341.329678 
L 221.195423 353.589152 
L 233.439 353.589152 
L 233.562672 363.359767 
L 245.80625 363.359767 
L 245.929922 374.560285 
L 258.1735 374.560285 
L 258.297172 389.332387 
L 270.54075 389.332387 
L 270.664423 401.972039 
L 282.908 401.972039 
L 283.031672 419.304383 
L 295.27525 419.304383 
L 295.398922 426.370622 
L 307.6425 426.370622 
L 307.766172 431.29785 
L 320.00975 431.29785 
L 320.133422 431.594946 
L 332.377 431.594946 
L 332.500673 434.459423 
L 344.74425 434.459423 
L 344.867923 436.039401 
L 357.1115 436.039401 
L 357.235172 437.620801 
L 369.47875 437.620801 
L 369.602422 438.670801 
L 381.846 438.670801 
L 381.969673 439.775543 
L 394.21325 439.775543 
L 394.336923 440.823384 
L 406.5805 440.823384 
L 406.704172 441.979675 
L 418.94775 441.979675 
L 419.071422 442.74606 
L 431.315 442.74606 
L 431.438672 443.331058 
L 443.68225 443.331058 
L 443.805923 443.979778 
L 456.0495 443.979778 
L 456.173172 444.847291 
L 468.41675 444.847291 
L 468.540422 445.588026 
L 480.784 445.588026 
L 480.907672 446.344923 
L 493.15125 446.344923 
L 493.274923 447.090075 
L 505.5185 447.090075 
L 505.642172 447.778505 
L 517.88575 447.778505 
L 518.009422 448.771726 
L 530.253 448.771726 
L 530.376672 449.811548 
L 542.62025 449.811548 
L 542.743922 450.445165 
L 554.9875 450.445165 
L 555.111172 451.147625 
L 567.35475 451.147625 
L 567.478422 451.491086 
L 579.722 451.491086 
L 579.969345 451.693712 
L 592.08925 451.693712 
L 592.336595 451.875464 
L 604.4565 451.875464 
L 604.703845 452.114511 
L 616.82375 452.114511 
L 617.071095 452.257808 
L 629.191 452.257808 
L 629.438345 452.393072 
L 641.55825 452.393072 
L 641.681922 452.702703 
L 653.9255 452.702703 
L 654.049172 453.003858 
L 666.29275 453.003858 
L 666.416422 453.642177 
L 678.66 453.642177 
L 678.783672 454.338878 
L 678.783672 454.338878 
" style="fill:none;stroke:#2ca02c;stroke-linecap:square;stroke-width:3;"/>
   </g>
   <g id="line2d_17">
    <path clip-path="url(#pe3299aa15b)" d="M 60.2975 485.156591 
L 678.66 485.156591 
" style="fill:none;stroke:#000000;stroke-dasharray:7.4,3.2;stroke-dashoffset:0;stroke-width:2;"/>
   </g>
   <g id="patch_3">
    <path d="M 60.2975 507.745 
L 60.2975 10.8 
" style="fill:none;stroke:#000000;stroke-linecap:square;stroke-linejoin:miter;stroke-width:0.8;"/>
   </g>
   <g id="patch_4">
    <path d="M 678.66 507.745 
L 678.66 10.8 
" style="fill:none;stroke:#000000;stroke-linecap:square;stroke-linejoin:miter;stroke-width:0.8;"/>
   </g>
   <g id="patch_5">
    <path d="M 60.2975 507.745 
L 678.66 507.745 
" style="fill:none;stroke:#000000;stroke-linecap:square;stroke-linejoin:miter;stroke-width:0.8;"/>
   </g>
   <g id="patch_6">
    <path d="M 60.2975 10.8 
L 678.66 10.8 
" style="fill:none;stroke:#000000;stroke-linecap:square;stroke-linejoin:miter;stroke-width:0.8;"/>
   </g>
   <g id="legend_1">
    <g id="patch_7">
     <path d="M 475.96125 170.91 
L 661.86 170.91 
Q 666.66 170.91 666.66 166.11 
L 666.66 27.6 
Q 666.66 22.8 661.86 22.8 
L 475.96125 22.8 
Q 471.16125 22.8 471.16125 27.6 
L 471.16125 166.11 
Q 471.16125 170.91 475.96125 170.91 
z
" style="fill:#ffffff;opacity:0.8;stroke:#cccccc;stroke-linejoin:miter;"/>
    </g>
    <g id="line2d_18">
     <path d="M 480.76125 42.23625 
L 528.76125 42.23625 
" style="fill:none;stroke:#1f77b4;stroke-linecap:square;stroke-width:3;"/>
    </g>
    <g id="line2d_19"/>
    <g id="text_16">
     <!-- COBYLA -->
     <g transform="translate(547.96125 50.63625)scale(0.24 -0.24)">
      <defs>
       <path d="M 4122 4306 
L 4122 3641 
Q 3803 3938 3442 4084 
Q 3081 4231 2675 4231 
Q 1875 4231 1450 3742 
Q 1025 3253 1025 2328 
Q 1025 1406 1450 917 
Q 1875 428 2675 428 
Q 3081 428 3442 575 
Q 3803 722 4122 1019 
L 4122 359 
Q 3791 134 3420 21 
Q 3050 -91 2638 -91 
Q 1578 -91 968 557 
Q 359 1206 359 2328 
Q 359 3453 968 4101 
Q 1578 4750 2638 4750 
Q 3056 4750 3426 4639 
Q 3797 4528 4122 4306 
z
" id="DejaVuSans-43" transform="scale(0.015625)"/>
       <path d="M 2522 4238 
Q 1834 4238 1429 3725 
Q 1025 3213 1025 2328 
Q 1025 1447 1429 934 
Q 1834 422 2522 422 
Q 3209 422 3611 934 
Q 4013 1447 4013 2328 
Q 4013 3213 3611 3725 
Q 3209 4238 2522 4238 
z
M 2522 4750 
Q 3503 4750 4090 4092 
Q 4678 3434 4678 2328 
Q 4678 1225 4090 567 
Q 3503 -91 2522 -91 
Q 1538 -91 948 565 
Q 359 1222 359 2328 
Q 359 3434 948 4092 
Q 1538 4750 2522 4750 
z
" id="DejaVuSans-4f" transform="scale(0.015625)"/>
       <path d="M 1259 2228 
L 1259 519 
L 2272 519 
Q 2781 519 3026 730 
Q 3272 941 3272 1375 
Q 3272 1813 3026 2020 
Q 2781 2228 2272 2228 
L 1259 2228 
z
M 1259 4147 
L 1259 2741 
L 2194 2741 
Q 2656 2741 2882 2914 
Q 3109 3088 3109 3444 
Q 3109 3797 2882 3972 
Q 2656 4147 2194 4147 
L 1259 4147 
z
M 628 4666 
L 2241 4666 
Q 2963 4666 3353 4366 
Q 3744 4066 3744 3513 
Q 3744 3084 3544 2831 
Q 3344 2578 2956 2516 
Q 3422 2416 3680 2098 
Q 3938 1781 3938 1306 
Q 3938 681 3513 340 
Q 3088 0 2303 0 
L 628 0 
L 628 4666 
z
" id="DejaVuSans-42" transform="scale(0.015625)"/>
       <path d="M -13 4666 
L 666 4666 
L 1959 2747 
L 3244 4666 
L 3922 4666 
L 2272 2222 
L 2272 0 
L 1638 0 
L 1638 2222 
L -13 4666 
z
" id="DejaVuSans-59" transform="scale(0.015625)"/>
       <path d="M 628 4666 
L 1259 4666 
L 1259 531 
L 3531 531 
L 3531 0 
L 628 0 
L 628 4666 
z
" id="DejaVuSans-4c" transform="scale(0.015625)"/>
       <path d="M 2188 4044 
L 1331 1722 
L 3047 1722 
L 2188 4044 
z
M 1831 4666 
L 2547 4666 
L 4325 0 
L 3669 0 
L 3244 1197 
L 1141 1197 
L 716 0 
L 50 0 
L 1831 4666 
z
" id="DejaVuSans-41" transform="scale(0.015625)"/>
      </defs>
      <use xlink:href="#DejaVuSans-43"/>
      <use x="69.824219" xlink:href="#DejaVuSans-4f"/>
      <use x="148.535156" xlink:href="#DejaVuSans-42"/>
      <use x="211.638672" xlink:href="#DejaVuSans-59"/>
      <use x="272.722656" xlink:href="#DejaVuSans-4c"/>
      <use x="330.685547" xlink:href="#DejaVuSans-41"/>
     </g>
    </g>
    <g id="line2d_20">
     <path d="M 480.76125 77.46375 
L 528.76125 77.46375 
" style="fill:none;stroke:#ff7f0e;stroke-linecap:square;stroke-width:3;"/>
    </g>
    <g id="line2d_21"/>
    <g id="text_17">
     <!-- SLSQP -->
     <g transform="translate(547.96125 85.86375)scale(0.24 -0.24)">
      <defs>
       <path d="M 3425 4513 
L 3425 3897 
Q 3066 4069 2747 4153 
Q 2428 4238 2131 4238 
Q 1616 4238 1336 4038 
Q 1056 3838 1056 3469 
Q 1056 3159 1242 3001 
Q 1428 2844 1947 2747 
L 2328 2669 
Q 3034 2534 3370 2195 
Q 3706 1856 3706 1288 
Q 3706 609 3251 259 
Q 2797 -91 1919 -91 
Q 1588 -91 1214 -16 
Q 841 59 441 206 
L 441 856 
Q 825 641 1194 531 
Q 1563 422 1919 422 
Q 2459 422 2753 634 
Q 3047 847 3047 1241 
Q 3047 1584 2836 1778 
Q 2625 1972 2144 2069 
L 1759 2144 
Q 1053 2284 737 2584 
Q 422 2884 422 3419 
Q 422 4038 858 4394 
Q 1294 4750 2059 4750 
Q 2388 4750 2728 4690 
Q 3069 4631 3425 4513 
z
" id="DejaVuSans-53" transform="scale(0.015625)"/>
       <path d="M 1259 4147 
L 1259 2394 
L 2053 2394 
Q 2494 2394 2734 2622 
Q 2975 2850 2975 3272 
Q 2975 3691 2734 3919 
Q 2494 4147 2053 4147 
L 1259 4147 
z
M 628 4666 
L 2053 4666 
Q 2838 4666 3239 4311 
Q 3641 3956 3641 3272 
Q 3641 2581 3239 2228 
Q 2838 1875 2053 1875 
L 1259 1875 
L 1259 0 
L 628 0 
L 628 4666 
z
" id="DejaVuSans-50" transform="scale(0.015625)"/>
      </defs>
      <use xlink:href="#DejaVuSans-53"/>
      <use x="63.476562" xlink:href="#DejaVuSans-4c"/>
      <use x="119.189453" xlink:href="#DejaVuSans-53"/>
      <use x="182.666016" xlink:href="#DejaVuSans-51"/>
      <use x="261.376953" xlink:href="#DejaVuSans-50"/>
     </g>
    </g>
    <g id="line2d_22">
     <path d="M 480.76125 112.69125 
L 528.76125 112.69125 
" style="fill:none;stroke:#2ca02c;stroke-linecap:square;stroke-width:3;"/>
    </g>
    <g id="line2d_23"/>
    <g id="text_18">
     <!-- L-BFGS-B -->
     <g transform="translate(547.96125 121.09125)scale(0.24 -0.24)">
      <defs>
       <path d="M 313 2009 
L 1997 2009 
L 1997 1497 
L 313 1497 
L 313 2009 
z
" id="DejaVuSans-2d" transform="scale(0.015625)"/>
       <path d="M 628 4666 
L 3309 4666 
L 3309 4134 
L 1259 4134 
L 1259 2759 
L 3109 2759 
L 3109 2228 
L 1259 2228 
L 1259 0 
L 628 0 
L 628 4666 
z
" id="DejaVuSans-46" transform="scale(0.015625)"/>
       <path d="M 3809 666 
L 3809 1919 
L 2778 1919 
L 2778 2438 
L 4434 2438 
L 4434 434 
Q 4069 175 3628 42 
Q 3188 -91 2688 -91 
Q 1594 -91 976 548 
Q 359 1188 359 2328 
Q 359 3472 976 4111 
Q 1594 4750 2688 4750 
Q 3144 4750 3555 4637 
Q 3966 4525 4313 4306 
L 4313 3634 
Q 3963 3931 3569 4081 
Q 3175 4231 2741 4231 
Q 1884 4231 1454 3753 
Q 1025 3275 1025 2328 
Q 1025 1384 1454 906 
Q 1884 428 2741 428 
Q 3075 428 3337 486 
Q 3600 544 3809 666 
z
" id="DejaVuSans-47" transform="scale(0.015625)"/>
      </defs>
      <use xlink:href="#DejaVuSans-4c"/>
      <use x="53.962891" xlink:href="#DejaVuSans-2d"/>
      <use x="86.421875" xlink:href="#DejaVuSans-42"/>
      <use x="155.025391" xlink:href="#DejaVuSans-46"/>
      <use x="212.544922" xlink:href="#DejaVuSans-47"/>
      <use x="290.035156" xlink:href="#DejaVuSans-53"/>
      <use x="353.511719" xlink:href="#DejaVuSans-2d"/>
      <use x="385.970703" xlink:href="#DejaVuSans-42"/>
     </g>
    </g>
    <g id="line2d_24">
     <path d="M 480.76125 147.91875 
L 528.76125 147.91875 
" style="fill:none;stroke:#000000;stroke-dasharray:7.4,3.2;stroke-dashoffset:0;stroke-width:2;"/>
    </g>
    <g id="line2d_25"/>
    <g id="text_19">
     <!-- HT -->
     <g transform="translate(547.96125 156.31875)scale(0.24 -0.24)">
      <defs>
       <path d="M 628 4666 
L 1259 4666 
L 1259 2753 
L 3553 2753 
L 3553 4666 
L 4184 4666 
L 4184 0 
L 3553 0 
L 3553 2222 
L 1259 2222 
L 1259 0 
L 628 0 
L 628 4666 
z
" id="DejaVuSans-48" transform="scale(0.015625)"/>
       <path d="M -19 4666 
L 3928 4666 
L 3928 4134 
L 2272 4134 
L 2272 0 
L 1638 0 
L 1638 4134 
L -19 4134 
L -19 4666 
z
" id="DejaVuSans-54" transform="scale(0.015625)"/>
      </defs>
      <use xlink:href="#DejaVuSans-48"/>
      <use x="75.195312" xlink:href="#DejaVuSans-54"/>
     </g>
    </g>
   </g>
  </g>
 </g>
 <defs>
  <clipPath id="pe3299aa15b">
   <rect height="496.945" width="618.3625" x="60.2975" y="10.8"/>
  </clipPath>
 </defs>
</svg>
