<?xml version="1.0" encoding="utf-8" standalone="no"?>
<!DOCTYPE svg PUBLIC "-//W3C//DTD SVG 1.1//EN"
  "http://www.w3.org/Graphics/SVG/1.1/DTD/svg11.dtd">
<svg height="576pt" version="1.1" viewBox="0 0 720 576" width="720pt" xmlns="http://www.w3.org/2000/svg" xmlns:xlink="http://www.w3.org/1999/xlink">
 <metadata>
  <rdf:RDF xmlns:cc="http://creativecommons.org/ns#" xmlns:dc="http://purl.org/dc/elements/1.1/" xmlns:rdf="http://www.w3.org/1999/02/22-rdf-syntax-ns#">
   <cc:Work>
    <dc:type rdf:resource="http://purl.org/dc/dcmitype/StillImage"/>
    <dc:date>2021-07-28T09:31:20.239577</dc:date>
    <dc:format>image/svg+xml</dc:format>
    <dc:creator>
     <cc:Agent>
      <dc:title>Matplotlib v3.4.2, https://matplotlib.org/</dc:title>
     </cc:Agent>
    </dc:creator>
   </cc:Work>
  </rdf:RDF>
 </metadata>
 <defs>
  <style type="text/css">*{stroke-linecap:butt;stroke-linejoin:round;}</style>
 </defs>
 <g id="figure_1">
  <g id="patch_1">
   <path d="M 0 576 
L 720 576 
L 720 0 
L 0 0 
z
" style="fill:#ffffff;"/>
  </g>
  <g id="axes_1">
   <g id="patch_2">
    <path d="M 60.2975 507.745 
L 678.66 507.745 
L 678.66 19.539245 
L 60.2975 19.539245 
z
" style="fill:#ffffff;"/>
   </g>
   <g id="matplotlib.axis_1">
    <g id="xtick_1">
     <g id="line2d_1">
      <defs>
       <path d="M 0 0 
L 0 3.5 
" id="mc1d7f509f3" style="stroke:#000000;stroke-width:0.8;"/>
      </defs>
      <g>
       <use style="stroke:#000000;stroke-width:0.8;" x="60.2975" xlink:href="#mc1d7f509f3" y="507.745"/>
      </g>
     </g>
     <g id="text_1">
      <!-- 0 -->
      <g transform="translate(52.6625 532.98125)scale(0.24 -0.24)">
       <defs>
        <path d="M 2034 4250 
Q 1547 4250 1301 3770 
Q 1056 3291 1056 2328 
Q 1056 1369 1301 889 
Q 1547 409 2034 409 
Q 2525 409 2770 889 
Q 3016 1369 3016 2328 
Q 3016 3291 2770 3770 
Q 2525 4250 2034 4250 
z
M 2034 4750 
Q 2819 4750 3233 4129 
Q 3647 3509 3647 2328 
Q 3647 1150 3233 529 
Q 2819 -91 2034 -91 
Q 1250 -91 836 529 
Q 422 1150 422 2328 
Q 422 3509 836 4129 
Q 1250 4750 2034 4750 
z
" id="DejaVuSans-30" transform="scale(0.015625)"/>
       </defs>
       <use xlink:href="#DejaVuSans-30"/>
      </g>
     </g>
    </g>
    <g id="xtick_2">
     <g id="line2d_2">
      <g>
       <use style="stroke:#000000;stroke-width:0.8;" x="183.97" xlink:href="#mc1d7f509f3" y="507.745"/>
      </g>
     </g>
     <g id="text_2">
      <!-- 1000 -->
      <g transform="translate(153.43 532.98125)scale(0.24 -0.24)">
       <defs>
        <path d="M 794 531 
L 1825 531 
L 1825 4091 
L 703 3866 
L 703 4441 
L 1819 4666 
L 2450 4666 
L 2450 531 
L 3481 531 
L 3481 0 
L 794 0 
L 794 531 
z
" id="DejaVuSans-31" transform="scale(0.015625)"/>
       </defs>
       <use xlink:href="#DejaVuSans-31"/>
       <use x="63.623047" xlink:href="#DejaVuSans-30"/>
       <use x="127.246094" xlink:href="#DejaVuSans-30"/>
       <use x="190.869141" xlink:href="#DejaVuSans-30"/>
      </g>
     </g>
    </g>
    <g id="xtick_3">
     <g id="line2d_3">
      <g>
       <use style="stroke:#000000;stroke-width:0.8;" x="307.6425" xlink:href="#mc1d7f509f3" y="507.745"/>
      </g>
     </g>
     <g id="text_3">
      <!-- 2000 -->
      <g transform="translate(277.1025 532.98125)scale(0.24 -0.24)">
       <defs>
        <path d="M 1228 531 
L 3431 531 
L 3431 0 
L 469 0 
L 469 531 
Q 828 903 1448 1529 
Q 2069 2156 2228 2338 
Q 2531 2678 2651 2914 
Q 2772 3150 2772 3378 
Q 2772 3750 2511 3984 
Q 2250 4219 1831 4219 
Q 1534 4219 1204 4116 
Q 875 4013 500 3803 
L 500 4441 
Q 881 4594 1212 4672 
Q 1544 4750 1819 4750 
Q 2544 4750 2975 4387 
Q 3406 4025 3406 3419 
Q 3406 3131 3298 2873 
Q 3191 2616 2906 2266 
Q 2828 2175 2409 1742 
Q 1991 1309 1228 531 
z
" id="DejaVuSans-32" transform="scale(0.015625)"/>
       </defs>
       <use xlink:href="#DejaVuSans-32"/>
       <use x="63.623047" xlink:href="#DejaVuSans-30"/>
       <use x="127.246094" xlink:href="#DejaVuSans-30"/>
       <use x="190.869141" xlink:href="#DejaVuSans-30"/>
      </g>
     </g>
    </g>
    <g id="xtick_4">
     <g id="line2d_4">
      <g>
       <use style="stroke:#000000;stroke-width:0.8;" x="431.315" xlink:href="#mc1d7f509f3" y="507.745"/>
      </g>
     </g>
     <g id="text_4">
      <!-- 3000 -->
      <g transform="translate(400.775 532.98125)scale(0.24 -0.24)">
       <defs>
        <path d="M 2597 2516 
Q 3050 2419 3304 2112 
Q 3559 1806 3559 1356 
Q 3559 666 3084 287 
Q 2609 -91 1734 -91 
Q 1441 -91 1130 -33 
Q 819 25 488 141 
L 488 750 
Q 750 597 1062 519 
Q 1375 441 1716 441 
Q 2309 441 2620 675 
Q 2931 909 2931 1356 
Q 2931 1769 2642 2001 
Q 2353 2234 1838 2234 
L 1294 2234 
L 1294 2753 
L 1863 2753 
Q 2328 2753 2575 2939 
Q 2822 3125 2822 3475 
Q 2822 3834 2567 4026 
Q 2313 4219 1838 4219 
Q 1578 4219 1281 4162 
Q 984 4106 628 3988 
L 628 4550 
Q 988 4650 1302 4700 
Q 1616 4750 1894 4750 
Q 2613 4750 3031 4423 
Q 3450 4097 3450 3541 
Q 3450 3153 3228 2886 
Q 3006 2619 2597 2516 
z
" id="DejaVuSans-33" transform="scale(0.015625)"/>
       </defs>
       <use xlink:href="#DejaVuSans-33"/>
       <use x="63.623047" xlink:href="#DejaVuSans-30"/>
       <use x="127.246094" xlink:href="#DejaVuSans-30"/>
       <use x="190.869141" xlink:href="#DejaVuSans-30"/>
      </g>
     </g>
    </g>
    <g id="xtick_5">
     <g id="line2d_5">
      <g>
       <use style="stroke:#000000;stroke-width:0.8;" x="554.9875" xlink:href="#mc1d7f509f3" y="507.745"/>
      </g>
     </g>
     <g id="text_5">
      <!-- 4000 -->
      <g transform="translate(524.4475 532.98125)scale(0.24 -0.24)">
       <defs>
        <path d="M 2419 4116 
L 825 1625 
L 2419 1625 
L 2419 4116 
z
M 2253 4666 
L 3047 4666 
L 3047 1625 
L 3713 1625 
L 3713 1100 
L 3047 1100 
L 3047 0 
L 2419 0 
L 2419 1100 
L 313 1100 
L 313 1709 
L 2253 4666 
z
" id="DejaVuSans-34" transform="scale(0.015625)"/>
       </defs>
       <use xlink:href="#DejaVuSans-34"/>
       <use x="63.623047" xlink:href="#DejaVuSans-30"/>
       <use x="127.246094" xlink:href="#DejaVuSans-30"/>
       <use x="190.869141" xlink:href="#DejaVuSans-30"/>
      </g>
     </g>
    </g>
    <g id="xtick_6">
     <g id="line2d_6">
      <g>
       <use style="stroke:#000000;stroke-width:0.8;" x="678.66" xlink:href="#mc1d7f509f3" y="507.745"/>
      </g>
     </g>
     <g id="text_6">
      <!-- 5000 -->
      <g transform="translate(648.12 532.98125)scale(0.24 -0.24)">
       <defs>
        <path d="M 691 4666 
L 3169 4666 
L 3169 4134 
L 1269 4134 
L 1269 2991 
Q 1406 3038 1543 3061 
Q 1681 3084 1819 3084 
Q 2600 3084 3056 2656 
Q 3513 2228 3513 1497 
Q 3513 744 3044 326 
Q 2575 -91 1722 -91 
Q 1428 -91 1123 -41 
Q 819 9 494 109 
L 494 744 
Q 775 591 1075 516 
Q 1375 441 1709 441 
Q 2250 441 2565 725 
Q 2881 1009 2881 1497 
Q 2881 1984 2565 2268 
Q 2250 2553 1709 2553 
Q 1456 2553 1204 2497 
Q 953 2441 691 2322 
L 691 4666 
z
" id="DejaVuSans-35" transform="scale(0.015625)"/>
       </defs>
       <use xlink:href="#DejaVuSans-35"/>
       <use x="63.623047" xlink:href="#DejaVuSans-30"/>
       <use x="127.246094" xlink:href="#DejaVuSans-30"/>
       <use x="190.869141" xlink:href="#DejaVuSans-30"/>
      </g>
     </g>
    </g>
    <g id="text_7">
     <!-- iterations -->
     <g transform="translate(312.533125 560.20875)scale(0.24 -0.24)">
      <defs>
       <path d="M 603 3500 
L 1178 3500 
L 1178 0 
L 603 0 
L 603 3500 
z
M 603 4863 
L 1178 4863 
L 1178 4134 
L 603 4134 
L 603 4863 
z
" id="DejaVuSans-69" transform="scale(0.015625)"/>
       <path d="M 1172 4494 
L 1172 3500 
L 2356 3500 
L 2356 3053 
L 1172 3053 
L 1172 1153 
Q 1172 725 1289 603 
Q 1406 481 1766 481 
L 2356 481 
L 2356 0 
L 1766 0 
Q 1100 0 847 248 
Q 594 497 594 1153 
L 594 3053 
L 172 3053 
L 172 3500 
L 594 3500 
L 594 4494 
L 1172 4494 
z
" id="DejaVuSans-74" transform="scale(0.015625)"/>
       <path d="M 3597 1894 
L 3597 1613 
L 953 1613 
Q 991 1019 1311 708 
Q 1631 397 2203 397 
Q 2534 397 2845 478 
Q 3156 559 3463 722 
L 3463 178 
Q 3153 47 2828 -22 
Q 2503 -91 2169 -91 
Q 1331 -91 842 396 
Q 353 884 353 1716 
Q 353 2575 817 3079 
Q 1281 3584 2069 3584 
Q 2775 3584 3186 3129 
Q 3597 2675 3597 1894 
z
M 3022 2063 
Q 3016 2534 2758 2815 
Q 2500 3097 2075 3097 
Q 1594 3097 1305 2825 
Q 1016 2553 972 2059 
L 3022 2063 
z
" id="DejaVuSans-65" transform="scale(0.015625)"/>
       <path d="M 2631 2963 
Q 2534 3019 2420 3045 
Q 2306 3072 2169 3072 
Q 1681 3072 1420 2755 
Q 1159 2438 1159 1844 
L 1159 0 
L 581 0 
L 581 3500 
L 1159 3500 
L 1159 2956 
Q 1341 3275 1631 3429 
Q 1922 3584 2338 3584 
Q 2397 3584 2469 3576 
Q 2541 3569 2628 3553 
L 2631 2963 
z
" id="DejaVuSans-72" transform="scale(0.015625)"/>
       <path d="M 2194 1759 
Q 1497 1759 1228 1600 
Q 959 1441 959 1056 
Q 959 750 1161 570 
Q 1363 391 1709 391 
Q 2188 391 2477 730 
Q 2766 1069 2766 1631 
L 2766 1759 
L 2194 1759 
z
M 3341 1997 
L 3341 0 
L 2766 0 
L 2766 531 
Q 2569 213 2275 61 
Q 1981 -91 1556 -91 
Q 1019 -91 701 211 
Q 384 513 384 1019 
Q 384 1609 779 1909 
Q 1175 2209 1959 2209 
L 2766 2209 
L 2766 2266 
Q 2766 2663 2505 2880 
Q 2244 3097 1772 3097 
Q 1472 3097 1187 3025 
Q 903 2953 641 2809 
L 641 3341 
Q 956 3463 1253 3523 
Q 1550 3584 1831 3584 
Q 2591 3584 2966 3190 
Q 3341 2797 3341 1997 
z
" id="DejaVuSans-61" transform="scale(0.015625)"/>
       <path d="M 1959 3097 
Q 1497 3097 1228 2736 
Q 959 2375 959 1747 
Q 959 1119 1226 758 
Q 1494 397 1959 397 
Q 2419 397 2687 759 
Q 2956 1122 2956 1747 
Q 2956 2369 2687 2733 
Q 2419 3097 1959 3097 
z
M 1959 3584 
Q 2709 3584 3137 3096 
Q 3566 2609 3566 1747 
Q 3566 888 3137 398 
Q 2709 -91 1959 -91 
Q 1206 -91 779 398 
Q 353 888 353 1747 
Q 353 2609 779 3096 
Q 1206 3584 1959 3584 
z
" id="DejaVuSans-6f" transform="scale(0.015625)"/>
       <path d="M 3513 2113 
L 3513 0 
L 2938 0 
L 2938 2094 
Q 2938 2591 2744 2837 
Q 2550 3084 2163 3084 
Q 1697 3084 1428 2787 
Q 1159 2491 1159 1978 
L 1159 0 
L 581 0 
L 581 3500 
L 1159 3500 
L 1159 2956 
Q 1366 3272 1645 3428 
Q 1925 3584 2291 3584 
Q 2894 3584 3203 3211 
Q 3513 2838 3513 2113 
z
" id="DejaVuSans-6e" transform="scale(0.015625)"/>
       <path d="M 2834 3397 
L 2834 2853 
Q 2591 2978 2328 3040 
Q 2066 3103 1784 3103 
Q 1356 3103 1142 2972 
Q 928 2841 928 2578 
Q 928 2378 1081 2264 
Q 1234 2150 1697 2047 
L 1894 2003 
Q 2506 1872 2764 1633 
Q 3022 1394 3022 966 
Q 3022 478 2636 193 
Q 2250 -91 1575 -91 
Q 1294 -91 989 -36 
Q 684 19 347 128 
L 347 722 
Q 666 556 975 473 
Q 1284 391 1588 391 
Q 1994 391 2212 530 
Q 2431 669 2431 922 
Q 2431 1156 2273 1281 
Q 2116 1406 1581 1522 
L 1381 1569 
Q 847 1681 609 1914 
Q 372 2147 372 2553 
Q 372 3047 722 3315 
Q 1072 3584 1716 3584 
Q 2034 3584 2315 3537 
Q 2597 3491 2834 3397 
z
" id="DejaVuSans-73" transform="scale(0.015625)"/>
      </defs>
      <use xlink:href="#DejaVuSans-69"/>
      <use x="27.783203" xlink:href="#DejaVuSans-74"/>
      <use x="66.992188" xlink:href="#DejaVuSans-65"/>
      <use x="128.515625" xlink:href="#DejaVuSans-72"/>
      <use x="169.628906" xlink:href="#DejaVuSans-61"/>
      <use x="230.908203" xlink:href="#DejaVuSans-74"/>
      <use x="270.117188" xlink:href="#DejaVuSans-69"/>
      <use x="297.900391" xlink:href="#DejaVuSans-6f"/>
      <use x="359.082031" xlink:href="#DejaVuSans-6e"/>
      <use x="422.460938" xlink:href="#DejaVuSans-73"/>
     </g>
    </g>
   </g>
   <g id="matplotlib.axis_2">
    <g id="ytick_1">
     <g id="line2d_7">
      <defs>
       <path d="M 0 0 
L -3.5 0 
" id="me8531144fe" style="stroke:#000000;stroke-width:0.8;"/>
      </defs>
      <g>
       <use style="stroke:#000000;stroke-width:0.8;" x="60.2975" xlink:href="#me8531144fe" y="486.869072"/>
      </g>
     </g>
     <g id="text_8">
      <!-- 0 -->
      <g transform="translate(38.0275 495.987197)scale(0.24 -0.24)">
       <use xlink:href="#DejaVuSans-30"/>
      </g>
     </g>
    </g>
    <g id="ytick_2">
     <g id="line2d_8">
      <g>
       <use style="stroke:#000000;stroke-width:0.8;" x="60.2975" xlink:href="#me8531144fe" y="409.044083"/>
      </g>
     </g>
     <g id="text_9">
      <!-- 1 -->
      <g transform="translate(38.0275 418.162208)scale(0.24 -0.24)">
       <use xlink:href="#DejaVuSans-31"/>
      </g>
     </g>
    </g>
    <g id="ytick_3">
     <g id="line2d_9">
      <g>
       <use style="stroke:#000000;stroke-width:0.8;" x="60.2975" xlink:href="#me8531144fe" y="331.219095"/>
      </g>
     </g>
     <g id="text_10">
      <!-- 2 -->
      <g transform="translate(38.0275 340.33722)scale(0.24 -0.24)">
       <use xlink:href="#DejaVuSans-32"/>
      </g>
     </g>
    </g>
    <g id="ytick_4">
     <g id="line2d_10">
      <g>
       <use style="stroke:#000000;stroke-width:0.8;" x="60.2975" xlink:href="#me8531144fe" y="253.394107"/>
      </g>
     </g>
     <g id="text_11">
      <!-- 3 -->
      <g transform="translate(38.0275 262.512232)scale(0.24 -0.24)">
       <use xlink:href="#DejaVuSans-33"/>
      </g>
     </g>
    </g>
    <g id="ytick_5">
     <g id="line2d_11">
      <g>
       <use style="stroke:#000000;stroke-width:0.8;" x="60.2975" xlink:href="#me8531144fe" y="175.569118"/>
      </g>
     </g>
     <g id="text_12">
      <!-- 4 -->
      <g transform="translate(38.0275 184.687243)scale(0.24 -0.24)">
       <use xlink:href="#DejaVuSans-34"/>
      </g>
     </g>
    </g>
    <g id="ytick_6">
     <g id="line2d_12">
      <g>
       <use style="stroke:#000000;stroke-width:0.8;" x="60.2975" xlink:href="#me8531144fe" y="97.74413"/>
      </g>
     </g>
     <g id="text_13">
      <!-- 5 -->
      <g transform="translate(38.0275 106.862255)scale(0.24 -0.24)">
       <use xlink:href="#DejaVuSans-35"/>
      </g>
     </g>
    </g>
    <g id="ytick_7">
     <g id="line2d_13">
      <g>
       <use style="stroke:#000000;stroke-width:0.8;" x="60.2975" xlink:href="#me8531144fe" y="19.919142"/>
      </g>
     </g>
     <g id="text_14">
      <!-- 6 -->
      <g transform="translate(38.0275 29.037267)scale(0.24 -0.24)">
       <defs>
        <path d="M 2113 2584 
Q 1688 2584 1439 2293 
Q 1191 2003 1191 1497 
Q 1191 994 1439 701 
Q 1688 409 2113 409 
Q 2538 409 2786 701 
Q 3034 994 3034 1497 
Q 3034 2003 2786 2293 
Q 2538 2584 2113 2584 
z
M 3366 4563 
L 3366 3988 
Q 3128 4100 2886 4159 
Q 2644 4219 2406 4219 
Q 1781 4219 1451 3797 
Q 1122 3375 1075 2522 
Q 1259 2794 1537 2939 
Q 1816 3084 2150 3084 
Q 2853 3084 3261 2657 
Q 3669 2231 3669 1497 
Q 3669 778 3244 343 
Q 2819 -91 2113 -91 
Q 1303 -91 875 529 
Q 447 1150 447 2328 
Q 447 3434 972 4092 
Q 1497 4750 2381 4750 
Q 2619 4750 2861 4703 
Q 3103 4656 3366 4563 
z
" id="DejaVuSans-36" transform="scale(0.015625)"/>
       </defs>
       <use xlink:href="#DejaVuSans-36"/>
      </g>
     </g>
    </g>
    <g id="text_15">
     <!-- VQE energy -->
     <g transform="translate(29.03625 334.509622)rotate(-90)scale(0.24 -0.24)">
      <defs>
       <path d="M 1831 0 
L 50 4666 
L 709 4666 
L 2188 738 
L 3669 4666 
L 4325 4666 
L 2547 0 
L 1831 0 
z
" id="DejaVuSans-56" transform="scale(0.015625)"/>
       <path d="M 2522 4238 
Q 1834 4238 1429 3725 
Q 1025 3213 1025 2328 
Q 1025 1447 1429 934 
Q 1834 422 2522 422 
Q 3209 422 3611 934 
Q 4013 1447 4013 2328 
Q 4013 3213 3611 3725 
Q 3209 4238 2522 4238 
z
M 3406 84 
L 4238 -825 
L 3475 -825 
L 2784 -78 
Q 2681 -84 2626 -87 
Q 2572 -91 2522 -91 
Q 1538 -91 948 567 
Q 359 1225 359 2328 
Q 359 3434 948 4092 
Q 1538 4750 2522 4750 
Q 3503 4750 4090 4092 
Q 4678 3434 4678 2328 
Q 4678 1516 4351 937 
Q 4025 359 3406 84 
z
" id="DejaVuSans-51" transform="scale(0.015625)"/>
       <path d="M 628 4666 
L 3578 4666 
L 3578 4134 
L 1259 4134 
L 1259 2753 
L 3481 2753 
L 3481 2222 
L 1259 2222 
L 1259 531 
L 3634 531 
L 3634 0 
L 628 0 
L 628 4666 
z
" id="DejaVuSans-45" transform="scale(0.015625)"/>
       <path id="DejaVuSans-20" transform="scale(0.015625)"/>
       <path d="M 2906 1791 
Q 2906 2416 2648 2759 
Q 2391 3103 1925 3103 
Q 1463 3103 1205 2759 
Q 947 2416 947 1791 
Q 947 1169 1205 825 
Q 1463 481 1925 481 
Q 2391 481 2648 825 
Q 2906 1169 2906 1791 
z
M 3481 434 
Q 3481 -459 3084 -895 
Q 2688 -1331 1869 -1331 
Q 1566 -1331 1297 -1286 
Q 1028 -1241 775 -1147 
L 775 -588 
Q 1028 -725 1275 -790 
Q 1522 -856 1778 -856 
Q 2344 -856 2625 -561 
Q 2906 -266 2906 331 
L 2906 616 
Q 2728 306 2450 153 
Q 2172 0 1784 0 
Q 1141 0 747 490 
Q 353 981 353 1791 
Q 353 2603 747 3093 
Q 1141 3584 1784 3584 
Q 2172 3584 2450 3431 
Q 2728 3278 2906 2969 
L 2906 3500 
L 3481 3500 
L 3481 434 
z
" id="DejaVuSans-67" transform="scale(0.015625)"/>
       <path d="M 2059 -325 
Q 1816 -950 1584 -1140 
Q 1353 -1331 966 -1331 
L 506 -1331 
L 506 -850 
L 844 -850 
Q 1081 -850 1212 -737 
Q 1344 -625 1503 -206 
L 1606 56 
L 191 3500 
L 800 3500 
L 1894 763 
L 2988 3500 
L 3597 3500 
L 2059 -325 
z
" id="DejaVuSans-79" transform="scale(0.015625)"/>
      </defs>
      <use xlink:href="#DejaVuSans-56"/>
      <use x="68.408203" xlink:href="#DejaVuSans-51"/>
      <use x="147.119141" xlink:href="#DejaVuSans-45"/>
      <use x="210.302734" xlink:href="#DejaVuSans-20"/>
      <use x="242.089844" xlink:href="#DejaVuSans-65"/>
      <use x="303.613281" xlink:href="#DejaVuSans-6e"/>
      <use x="366.992188" xlink:href="#DejaVuSans-65"/>
      <use x="428.515625" xlink:href="#DejaVuSans-72"/>
      <use x="467.878906" xlink:href="#DejaVuSans-67"/>
      <use x="531.355469" xlink:href="#DejaVuSans-79"/>
     </g>
    </g>
   </g>
   <g id="line2d_14">
    <path clip-path="url(#p676731e727)" d="M 60.421172 104.123129 
L 60.544845 41.730415 
L 60.668518 79.736261 
L 60.79219 73.41456 
L 61.039535 89.743918 
L 61.163207 101.519294 
L 61.28688 98.829307 
L 61.410553 99.353648 
L 61.534225 154.62652 
L 61.657897 156.373842 
L 61.78157 155.855949 
L 61.905242 154.00658 
L 62.028915 150.147905 
L 62.152587 161.377507 
L 62.27626 161.410371 
L 62.399932 161.882079 
L 62.523605 161.9115 
L 62.647278 168.257914 
L 62.894622 156.782869 
L 63.018295 160.694168 
L 63.141967 160.27284 
L 63.26564 161.749968 
L 63.389313 153.642023 
L 63.512985 162.209978 
L 63.636657 143.490475 
L 64.131348 172.150533 
L 64.25502 168.747848 
L 64.378692 169.752634 
L 64.626037 165.311452 
L 64.74971 197.435291 
L 64.997055 148.169548 
L 65.368072 185.384285 
L 65.615417 189.776242 
L 65.73909 159.766012 
L 65.862763 174.234708 
L 65.986435 149.078225 
L 66.110107 194.696012 
L 66.23378 195.64911 
L 66.357452 195.424696 
L 66.481125 194.000414 
L 66.72847 176.449253 
L 66.852142 174.124572 
L 66.975815 197.728378 
L 67.22316 180.624157 
L 67.470505 195.91268 
L 67.71785 190.777199 
L 67.841522 193.675664 
L 67.965195 185.167351 
L 68.088867 208.987066 
L 68.21254 185.952133 
L 68.336213 203.075476 
L 68.459885 201.939093 
L 68.70723 209.865707 
L 68.830902 210.01904 
L 68.954575 205.717554 
L 69.325592 217.264728 
L 69.449265 272.748404 
L 69.572937 205.272413 
L 69.69661 256.064491 
L 69.820283 223.633385 
L 69.943955 273.698567 
L 70.067628 221.837553 
L 70.314972 287.38078 
L 70.438645 273.212971 
L 70.809663 347.2695 
L 70.933335 345.70528 
L 71.057007 340.948163 
L 71.304352 350.292214 
L 71.428025 350.086583 
L 71.551698 305.435374 
L 71.67537 350.325317 
L 71.799042 351.773047 
L 71.922715 351.389035 
L 72.046387 313.201545 
L 72.17006 354.73066 
L 72.293733 333.549581 
L 72.417405 350.423587 
L 72.541078 316.870979 
L 72.66475 340.916386 
L 72.788422 303.747272 
L 72.912095 357.92594 
L 73.035767 358.955147 
L 73.15944 358.500942 
L 73.283113 338.704583 
L 73.406785 361.270262 
L 73.530457 356.258546 
L 73.65413 363.704116 
L 73.777802 323.258928 
L 73.901475 357.953565 
L 74.025148 316.132812 
L 74.14882 334.460061 
L 74.272492 304.095834 
L 74.396165 357.270617 
L 74.519837 357.897062 
L 74.64351 351.975806 
L 74.890855 363.833389 
L 75.014527 329.638923 
L 75.261872 373.470669 
L 75.385545 374.504438 
L 75.509218 345.640277 
L 75.63289 377.061204 
L 75.756563 367.536897 
L 75.880235 372.723141 
L 76.003907 338.256523 
L 76.12758 377.195444 
L 76.251252 308.692957 
L 76.374925 365.12352 
L 76.498598 347.364589 
L 76.745942 386.724707 
L 76.869615 353.955547 
L 76.993287 380.916934 
L 77.11696 378.180265 
L 77.240633 367.369308 
L 77.364305 386.586168 
L 77.487977 383.26396 
L 77.735322 387.757876 
L 77.858995 386.77401 
L 77.982667 389.390084 
L 78.10634 389.529599 
L 78.230013 387.507594 
L 78.353685 387.624055 
L 78.477357 377.575034 
L 78.60103 385.725562 
L 78.724703 332.169501 
L 78.848375 371.52801 
L 78.972048 358.761337 
L 79.09572 377.692615 
L 79.219392 362.876042 
L 79.343065 381.949486 
L 79.466737 373.199637 
L 79.59041 387.568599 
L 79.714082 373.572062 
L 79.837755 386.947135 
L 79.961427 363.256621 
L 80.0851 389.87787 
L 80.208772 366.311427 
L 80.332445 388.316342 
L 80.456118 353.168686 
L 80.57979 366.308317 
L 80.703463 337.094822 
L 80.827135 388.761558 
L 80.950807 351.371977 
L 81.07448 389.891235 
L 81.198152 381.733229 
L 81.321825 389.321317 
L 81.445498 344.270567 
L 81.56917 391.042802 
L 81.692842 372.016552 
L 81.816515 393.582138 
L 81.940187 385.806578 
L 82.06386 392.089285 
L 82.187533 361.472092 
L 82.311205 391.781252 
L 82.434877 342.271425 
L 82.55855 379.738974 
L 82.682222 342.577375 
L 82.805895 382.345223 
L 82.929567 370.783362 
L 83.05324 379.391707 
L 83.176913 329.362737 
L 83.300585 393.306113 
L 83.424257 364.555387 
L 83.54793 390.455203 
L 83.671603 365.551094 
L 83.795275 391.908107 
L 83.918948 348.556276 
L 84.04262 375.866418 
L 84.166292 363.229373 
L 84.289965 387.342374 
L 84.413637 362.166714 
L 84.53731 392.30206 
L 84.660983 357.532948 
L 84.784655 385.143371 
L 84.908327 343.439292 
L 85.032 381.181624 
L 85.155672 366.33352 
L 85.279345 393.908951 
L 85.52669 376.433368 
L 85.650362 376.701424 
L 85.774035 386.259303 
L 86.02138 378.418602 
L 86.145052 336.479053 
L 86.268725 391.367852 
L 86.392398 375.241749 
L 86.51607 399.87888 
L 86.639742 365.752269 
L 86.763415 375.293958 
L 86.887087 348.793413 
L 87.01076 399.638229 
L 87.134433 376.898162 
L 87.258105 405.027984 
L 87.381777 370.85953 
L 87.50545 394.218578 
L 87.629122 343.297737 
L 87.876467 405.792545 
L 88.00014 403.269592 
L 88.247485 409.256021 
L 88.371157 409.300389 
L 88.49483 408.639888 
L 88.618503 409.664381 
L 88.742175 403.883761 
L 88.865848 410.145537 
L 88.98952 398.456273 
L 89.113192 410.369487 
L 89.236865 396.272225 
L 89.360537 407.631293 
L 89.48421 396.690931 
L 89.607883 415.843741 
L 89.731555 407.027247 
L 89.855227 413.072199 
L 89.9789 413.139365 
L 90.226245 416.418314 
L 90.349918 414.616292 
L 90.47359 411.119135 
L 90.597262 416.883947 
L 90.844607 412.5708 
L 90.96828 412.099268 
L 91.091952 415.615508 
L 91.215625 404.174348 
L 91.46297 416.522357 
L 91.586642 418.178653 
L 91.710315 416.363716 
L 91.833987 423.175988 
L 91.95766 412.439459 
L 92.081333 418.492468 
L 92.205005 418.195255 
L 92.328677 423.824027 
L 92.45235 416.087191 
L 92.576022 423.827475 
L 92.699695 408.28439 
L 92.823367 423.643126 
L 92.94704 413.051071 
L 93.070712 423.240357 
L 93.194385 420.276092 
L 93.318057 424.011528 
L 93.44173 420.991869 
L 93.689075 424.150924 
L 93.812748 424.204084 
L 93.93642 409.420538 
L 94.060092 425.79518 
L 94.183765 417.801387 
L 94.307437 420.7338 
L 94.43111 410.08923 
L 94.554782 428.120313 
L 94.678455 416.822079 
L 94.802127 428.910293 
L 94.9258 422.687036 
L 95.173145 429.105907 
L 95.296818 428.833551 
L 95.42049 426.958849 
L 95.544162 429.818115 
L 95.791507 427.78651 
L 95.91518 429.28288 
L 96.038852 428.073499 
L 96.162525 423.36037 
L 96.286198 426.48152 
L 96.40987 411.017136 
L 96.533542 417.284815 
L 96.657215 417.073481 
L 96.780888 432.068796 
L 96.90456 426.268772 
L 97.028233 430.884288 
L 97.151905 425.663967 
L 97.275577 431.568192 
L 97.39925 419.74333 
L 97.522922 432.20675 
L 97.646595 415.069444 
L 97.770267 431.876856 
L 97.89394 428.452549 
L 98.017612 432.278018 
L 98.141285 427.528736 
L 98.264957 432.769875 
L 98.38863 425.346796 
L 98.512303 432.989298 
L 98.635975 424.651447 
L 98.759647 428.338329 
L 98.88332 423.42224 
L 99.006992 432.451238 
L 99.130665 424.767648 
L 99.254337 432.721285 
L 99.501682 425.058381 
L 99.625355 429.456099 
L 99.8727 420.43287 
L 99.996373 427.269894 
L 100.120045 424.19972 
L 100.243718 432.031291 
L 100.36739 432.161161 
L 100.491062 431.664826 
L 100.614735 425.028046 
L 100.86208 429.455621 
L 100.985752 426.699621 
L 101.109425 426.713923 
L 101.233097 432.926067 
L 101.35677 423.874827 
L 101.480442 432.400125 
L 101.604115 424.928056 
L 101.727788 431.61134 
L 101.85146 424.54661 
L 101.975133 432.708899 
L 102.098805 426.032774 
L 102.222477 431.935231 
L 102.34615 431.215335 
L 102.469822 432.743728 
L 102.593495 426.42673 
L 102.717167 433.473073 
L 102.84084 427.253929 
L 102.964512 433.864251 
L 103.088185 429.097698 
L 103.211857 432.891788 
L 103.33553 424.271192 
L 103.459203 430.568021 
L 103.582875 428.440291 
L 103.706547 432.513441 
L 103.83022 430.323063 
L 103.953892 432.413771 
L 104.077565 426.490251 
L 104.201237 432.839137 
L 104.448582 430.678971 
L 104.572255 434.99307 
L 104.695927 426.811209 
L 104.943273 435.042062 
L 105.066945 434.689442 
L 105.31429 435.499107 
L 105.437962 435.568384 
L 105.561635 435.391256 
L 105.685307 432.940474 
L 105.932652 436.763727 
L 106.056325 437.077022 
L 106.179997 434.774268 
L 106.30367 437.459386 
L 106.427342 434.500525 
L 106.551015 438.201814 
L 106.79836 437.343838 
L 106.922033 439.804024 
L 107.045705 439.747796 
L 107.169377 441.260437 
L 107.416722 439.199268 
L 107.540395 441.347058 
L 107.664067 438.174739 
L 107.911412 441.255099 
L 108.158757 440.559403 
L 108.28243 440.90409 
L 108.406103 439.936615 
L 108.653447 442.430639 
L 108.77712 442.751048 
L 108.900792 441.778837 
L 109.024465 442.641673 
L 109.148137 445.258281 
L 109.27181 445.12113 
L 109.395482 442.583864 
L 109.519155 443.707371 
L 109.642827 443.526195 
L 109.7665 444.001483 
L 109.890173 446.069236 
L 110.013845 445.630459 
L 110.137518 442.92742 
L 110.26119 445.481518 
L 110.384862 440.844938 
L 110.508535 443.42369 
L 110.632207 442.587948 
L 110.75588 445.397156 
L 110.879552 435.063713 
L 111.003225 445.041702 
L 111.126897 444.881206 
L 111.25057 445.859777 
L 111.374242 442.475783 
L 111.497915 445.372063 
L 111.621588 444.142116 
L 111.74526 446.273837 
L 111.868932 444.337604 
L 111.992605 446.156609 
L 112.116277 445.041562 
L 112.23995 446.569641 
L 112.363622 445.488062 
L 112.610967 446.577705 
L 112.73464 446.319938 
L 112.981985 446.870937 
L 113.105657 446.006984 
L 113.22933 447.536094 
L 113.353003 446.981864 
L 113.476675 447.700903 
L 113.600347 445.911615 
L 113.72402 446.92289 
L 113.847692 446.513481 
L 113.971365 446.855351 
L 114.095037 446.483908 
L 114.21871 446.937364 
L 114.342382 445.021278 
L 114.466055 447.399863 
L 114.589727 447.003263 
L 114.7134 447.295005 
L 114.960745 444.449775 
L 115.084418 449.560822 
L 115.20809 447.082367 
L 115.455435 449.602225 
L 115.579107 448.742494 
L 115.70278 449.471384 
L 115.826452 446.964721 
L 115.950125 450.103714 
L 116.073797 447.970743 
L 116.19747 449.476261 
L 116.321142 447.45349 
L 116.444815 448.303298 
L 116.568488 452.089708 
L 116.69216 451.371086 
L 116.815832 449.829949 
L 116.939505 451.0674 
L 117.063177 450.258578 
L 117.18685 452.260246 
L 117.310522 450.134542 
L 117.434195 451.244197 
L 117.557867 450.768267 
L 117.68154 450.982007 
L 117.805212 449.627287 
L 117.928885 451.062946 
L 118.052557 450.532101 
L 118.17623 451.807438 
L 118.299903 450.355498 
L 118.547247 452.319533 
L 118.794592 450.225764 
L 118.918265 450.976975 
L 119.041937 450.170382 
L 119.16561 451.871866 
L 119.536627 451.378705 
L 119.6603 451.864964 
L 119.783973 450.974738 
L 119.907645 451.45095 
L 120.031318 450.907842 
L 120.15499 451.916001 
L 120.278662 450.703174 
L 120.402335 452.003504 
L 120.526007 449.988584 
L 120.773352 452.124771 
L 121.020697 451.694743 
L 121.14437 452.393405 
L 121.268042 451.037675 
L 121.391715 452.144245 
L 121.515388 450.202418 
L 121.63906 452.36682 
L 121.886405 451.199728 
L 122.010077 450.823772 
L 122.13375 452.477413 
L 122.257422 450.1878 
L 122.504767 452.140083 
L 122.62844 451.466901 
L 122.875785 452.35099 
L 122.999457 452.346329 
L 123.12313 451.918559 
L 123.246803 446.093554 
L 123.370475 451.919651 
L 123.494147 450.97788 
L 123.61782 452.191144 
L 123.741492 451.021557 
L 123.865165 452.000028 
L 123.988837 451.949663 
L 124.236182 449.889935 
L 124.483527 452.279577 
L 124.6072 452.529921 
L 124.730872 451.172296 
L 124.854545 452.539166 
L 124.978217 452.460846 
L 125.225562 449.517045 
L 125.349235 451.8766 
L 125.472907 450.542535 
L 125.59658 452.766693 
L 125.720253 449.324392 
L 125.843925 452.954624 
L 125.967597 449.553464 
L 126.09127 452.719359 
L 126.214942 451.633016 
L 126.338615 452.642958 
L 126.462287 451.666858 
L 126.58596 452.706758 
L 126.709632 451.195214 
L 126.833305 452.630158 
L 126.956977 451.874254 
L 127.08065 453.779112 
L 127.327995 453.359751 
L 127.57534 454.703143 
L 127.699012 454.554764 
L 127.822685 453.933854 
L 127.946357 454.070455 
L 128.07003 453.692236 
L 128.317375 454.763254 
L 128.56472 454.272218 
L 128.812065 454.706377 
L 128.935737 454.465759 
L 129.05941 454.56717 
L 129.183083 454.813571 
L 129.306755 454.042448 
L 129.430428 454.978873 
L 129.5541 454.852286 
L 129.677773 454.968588 
L 129.801445 454.508134 
L 129.925117 454.842721 
L 130.04879 454.307674 
L 130.419807 455.447175 
L 130.54348 454.275446 
L 130.667152 455.459171 
L 130.914497 455.440878 
L 131.03817 453.597168 
L 131.161842 455.343318 
L 131.285515 454.418731 
L 131.409187 455.445367 
L 131.53286 455.014333 
L 131.656532 455.580536 
L 131.780205 455.100814 
L 131.903877 455.378069 
L 132.02755 455.143663 
L 132.151222 455.563088 
L 132.274895 454.393539 
L 132.398568 455.515265 
L 132.52224 455.012742 
L 132.645913 455.411753 
L 132.769585 455.286863 
L 133.140602 456.244885 
L 133.264275 455.701338 
L 133.387947 455.947062 
L 133.51162 455.566947 
L 133.635292 455.802215 
L 133.758965 456.710602 
L 133.882637 456.698059 
L 134.00631 456.243265 
L 134.253655 456.492576 
L 134.377327 456.446056 
L 134.501 456.956178 
L 134.624672 456.904101 
L 134.748345 456.697505 
L 134.99569 457.721839 
L 135.119362 457.750358 
L 135.243035 457.379529 
L 135.366707 457.804495 
L 135.49038 457.209134 
L 135.614053 457.768181 
L 135.737725 457.497926 
L 135.98507 457.761565 
L 136.108743 457.671853 
L 136.232415 457.329414 
L 136.356088 457.707227 
L 136.47976 457.246338 
L 136.603432 457.679057 
L 136.727105 457.372459 
L 136.850777 457.626765 
L 136.97445 456.652204 
L 137.098122 457.837326 
L 137.221795 457.810103 
L 137.46914 457.397669 
L 137.716485 457.829482 
L 137.840157 457.659411 
L 138.087502 457.798968 
L 138.211175 457.037718 
L 138.334847 457.767772 
L 138.45852 456.56867 
L 138.582192 457.753524 
L 138.705865 457.744032 
L 138.95321 457.40828 
L 139.200555 457.821324 
L 139.324228 457.808259 
L 139.571573 457.317115 
L 139.818917 457.489932 
L 139.94259 457.380601 
L 140.066262 457.798698 
L 140.189935 457.351652 
L 140.313607 457.807838 
L 140.43728 457.531041 
L 140.684625 457.821158 
L 140.808297 457.688291 
L 140.93197 457.958325 
L 141.179315 457.537356 
L 141.302988 457.978959 
L 141.674005 457.767423 
L 142.045022 457.858046 
L 142.168695 457.290883 
L 142.292368 457.883536 
L 142.41604 457.042951 
L 142.539713 457.769588 
L 142.663385 457.444223 
L 142.91073 458.081923 
L 143.034402 458.196204 
L 143.158075 457.759307 
L 143.281747 458.149719 
L 143.40542 458.080737 
L 143.529092 458.260399 
L 143.776437 458.113541 
L 143.90011 457.678814 
L 144.023782 458.045245 
L 144.147455 457.464122 
L 144.3948 458.67375 
L 144.518472 458.110403 
L 144.88949 458.557302 
L 145.013162 458.011314 
L 145.260507 458.568149 
L 145.507853 458.557479 
L 145.755198 458.179941 
L 146.002543 458.488663 
L 146.249887 458.22376 
L 146.497232 458.633909 
L 146.744577 458.376118 
L 146.86825 457.686452 
L 146.991922 458.433012 
L 147.115595 457.872937 
L 147.36294 458.602431 
L 147.486612 458.211948 
L 147.610285 458.277182 
L 147.733957 458.739616 
L 147.85763 458.326985 
L 147.981302 458.925594 
L 148.104975 458.515917 
L 148.228647 458.910167 
L 148.35232 458.566663 
L 148.599665 458.810337 
L 148.723338 458.865465 
L 148.84701 458.058026 
L 148.970683 458.648193 
L 149.094355 458.179922 
L 149.218028 458.93462 
L 149.3417 458.47949 
L 149.465373 458.965266 
L 149.589045 458.285383 
L 149.712717 458.866437 
L 149.83639 458.255518 
L 150.083735 459.07324 
L 150.207407 458.901173 
L 150.33108 458.148816 
L 150.454752 458.992853 
L 150.702097 458.704074 
L 150.82577 459.133757 
L 150.949442 459.094818 
L 151.073115 457.999063 
L 151.196787 459.14015 
L 151.32046 458.335395 
L 151.444132 458.985551 
L 151.567805 458.738056 
L 151.81515 459.301601 
L 152.062495 458.963929 
L 152.186168 459.096481 
L 152.30984 459.076658 
L 152.557185 459.320544 
L 152.80453 459.240709 
L 152.928202 459.514831 
L 153.051875 458.931063 
L 153.175547 459.46408 
L 153.29922 459.040436 
L 153.422892 459.335704 
L 153.546565 458.679528 
L 153.670237 459.123006 
L 153.79391 458.584849 
L 153.917582 459.341482 
L 154.164927 459.216948 
L 154.2886 459.202583 
L 154.535945 459.98902 
L 154.659617 459.769445 
L 155.030635 459.89552 
L 155.154307 459.952148 
L 155.27798 459.451116 
L 155.401653 460.090067 
L 155.525325 459.999391 
L 155.648998 459.763919 
L 155.77267 459.831562 
L 155.896343 460.052821 
L 156.020015 459.004726 
L 156.143687 459.951166 
L 156.26736 458.343269 
L 156.391032 460.029425 
L 156.514705 459.58924 
L 156.638377 459.982959 
L 156.76205 459.35892 
L 157.009395 460.341626 
L 157.25674 459.947634 
L 157.380412 460.214231 
L 157.504085 459.695964 
L 157.627757 460.358926 
L 157.75143 459.785741 
L 157.875102 460.246047 
L 157.998775 460.096675 
L 158.122447 460.460703 
L 158.24612 459.596124 
L 158.369792 460.214684 
L 158.617138 459.922828 
L 158.864483 460.404131 
L 158.988155 460.158179 
L 159.111828 460.506899 
L 159.2355 459.986082 
L 159.359172 460.460696 
L 159.482845 460.47973 
L 159.73019 460.202716 
L 159.853862 460.624516 
L 159.977535 460.173589 
L 160.101207 460.605478 
L 160.22488 460.230816 
L 160.348552 460.514811 
L 160.472225 460.382571 
L 160.595897 460.43665 
L 160.71957 460.691841 
L 160.843242 460.386227 
L 161.090587 460.545218 
L 161.21426 460.189977 
L 161.337932 460.532996 
L 161.461605 460.108339 
L 161.585277 460.682307 
L 161.956295 460.356827 
L 162.079968 460.648714 
L 162.20364 460.441909 
L 162.450985 460.612957 
L 162.574658 460.480338 
L 162.69833 460.037295 
L 162.822002 460.534001 
L 162.945675 459.868884 
L 163.069347 460.699239 
L 163.19302 460.208218 
L 163.316692 460.643548 
L 163.440365 460.29457 
L 163.564037 460.38543 
L 163.68771 459.417157 
L 163.811382 460.507785 
L 163.935055 460.226404 
L 164.1824 460.487328 
L 164.306072 460.476184 
L 164.429745 460.224236 
L 164.553417 460.710984 
L 164.67709 460.369839 
L 164.924435 460.575117 
L 165.048107 460.522318 
L 165.17178 459.976247 
L 165.419125 460.780553 
L 165.66647 460.196998 
L 165.790143 460.797789 
L 165.913815 459.905535 
L 166.037487 460.620662 
L 166.16116 460.005431 
L 166.284832 460.782738 
L 166.408505 460.414816 
L 166.65585 460.545165 
L 166.903195 460.749188 
L 167.026867 460.669572 
L 167.15054 460.363344 
L 167.274212 460.679772 
L 167.397885 460.476747 
L 167.521557 460.550288 
L 167.64523 460.835396 
L 167.892575 460.753069 
L 168.016247 460.846703 
L 168.13992 460.778155 
L 168.263592 460.919557 
L 168.510938 460.807377 
L 168.758283 461.045634 
L 169.1293 461.024898 
L 169.252972 460.734818 
L 169.500317 461.035344 
L 169.62399 461.126978 
L 169.747662 460.930832 
L 169.995007 461.097983 
L 171.973768 461.256642 
L 172.09744 460.9975 
L 172.344785 461.136546 
L 172.59213 461.205624 
L 172.839475 461.276501 
L 173.08682 461.217977 
L 174.199872 461.315775 
L 174.818235 461.22203 
L 175.06558 461.375865 
L 175.312925 461.259405 
L 175.56027 461.543878 
L 175.683943 461.42593 
L 176.05496 461.5869 
L 176.178632 461.377025 
L 176.425977 461.517914 
L 176.54965 461.596932 
L 176.673322 461.380124 
L 176.920667 461.586327 
L 177.04434 461.58421 
L 177.168012 461.462552 
L 177.415357 461.670267 
L 177.662702 461.614797 
L 177.786375 461.695751 
L 178.03372 461.600974 
L 179.270445 461.781865 
L 179.394117 461.519338 
L 179.51779 461.773308 
L 179.765135 461.736233 
L 180.50717 461.832463 
L 180.630842 461.664729 
L 180.878187 461.795039 
L 181.249205 461.7762 
L 181.372877 461.570372 
L 181.49655 461.803338 
L 181.620223 461.726306 
L 182.114913 461.826603 
L 182.362257 461.794683 
L 182.48593 461.684066 
L 182.733275 461.831965 
L 182.856947 461.708167 
L 183.104292 461.896429 
L 183.351637 461.77257 
L 183.598982 461.914398 
L 184.093672 461.872983 
L 184.46469 461.917264 
L 184.588362 461.571179 
L 184.712035 461.928014 
L 184.835707 461.807397 
L 184.95938 461.979329 
L 185.206725 461.931207 
L 185.45407 461.924369 
L 185.577742 461.793473 
L 185.701415 461.934238 
L 185.825087 461.795852 
L 185.94876 461.883043 
L 186.072432 461.827578 
L 186.319777 461.982875 
L 186.567122 461.832216 
L 186.93814 462.042193 
L 187.061812 461.853933 
L 187.185485 462.010909 
L 187.309157 461.816807 
L 187.43283 462.039693 
L 187.556502 461.810879 
L 187.803847 462.00298 
L 188.793228 461.991782 
L 190.40097 462.031094 
L 190.524642 461.845531 
L 190.648315 462.073832 
L 190.771987 461.98538 
L 190.89566 462.083139 
L 191.266678 461.967033 
L 191.637695 462.059273 
L 191.761368 461.969454 
L 191.88504 462.063965 
L 192.008713 461.92152 
L 192.132385 462.116436 
L 192.256057 461.944013 
L 192.37973 462.073835 
L 192.503402 461.893838 
L 192.627075 462.121145 
L 192.750747 461.934654 
L 192.87442 462.090945 
L 192.998092 461.915701 
L 193.121765 462.081688 
L 193.492782 461.967139 
L 193.740127 462.1036 
L 193.8638 462.137205 
L 193.987472 462.042605 
L 194.234817 462.076405 
L 194.35849 462.120715 
L 194.482163 461.984083 
L 194.605835 462.15859 
L 194.729508 462.031082 
L 194.85318 462.124571 
L 195.224198 462.039673 
L 195.34787 462.11445 
L 195.471542 461.996549 
L 195.595215 462.134979 
L 195.718887 462.069383 
L 196.089905 462.139674 
L 196.213577 462.034181 
L 196.33725 462.112332 
L 196.460922 461.999567 
L 196.83194 462.115981 
L 196.955612 462.043492 
L 197.079285 462.13439 
L 197.202957 462.04907 
L 197.573975 462.184712 
L 197.697648 462.068867 
L 197.82132 462.17716 
L 197.944993 461.996352 
L 198.068665 462.136788 
L 198.439683 462.093172 
L 198.563355 462.187948 
L 198.934372 462.041325 
L 199.058045 462.144574 
L 199.181717 462.083501 
L 199.30539 462.159684 
L 199.429062 462.021404 
L 199.676407 462.17283 
L 200.171097 462.172746 
L 200.418442 462.165589 
L 200.913132 462.215017 
L 201.160478 462.176508 
L 201.77884 462.204141 
L 233.439 462.450429 
L 234.181035 462.463116 
L 259.410225 462.553644 
L 260.399605 462.556801 
L 270.664423 462.573824 
L 272.51951 462.580586 
L 274.99296 462.584251 
L 278.703135 462.583643 
L 280.187205 462.593861 
L 283.773708 462.605661 
L 289.215297 462.613429 
L 290.699367 462.617085 
L 295.398922 462.626534 
L 322.4832 462.68377 
L 339.550005 462.709618 
L 386.7929 462.770524 
L 389.390022 462.775567 
L 403.11767 462.794974 
L 422.163235 462.808004 
L 429.954602 462.817767 
L 433.170087 462.818144 
L 550.658962 462.897917 
L 555.358517 462.899154 
L 600.746325 462.927273 
L 678.783672 462.95728 
L 678.783672 462.95728 
" style="fill:none;stroke:#1f77b4;stroke-linecap:square;stroke-width:3;"/>
   </g>
   <g id="line2d_15">
    <path clip-path="url(#p676731e727)" d="M 60.421172 141.98972 
L 69.325592 141.98972 
L 69.449265 260.156149 
L 78.353685 260.156149 
L 78.477357 66.874208 
L 78.60103 324.94471 
L 87.50545 324.94471 
L 87.629122 394.200645 
L 96.533542 394.200645 
L 96.657215 320.471109 
L 96.780888 433.886337 
L 105.685307 433.886337 
L 105.80898 444.240129 
L 114.7134 444.240129 
L 114.837073 453.338701 
L 123.741492 453.338701 
L 123.865165 454.785024 
L 132.769585 454.785024 
L 132.893258 456.033506 
L 141.797677 456.033506 
L 141.92135 456.808523 
L 150.82577 456.808523 
L 150.949442 457.188395 
L 159.853862 457.188395 
L 160.101207 457.380208 
L 177.910047 457.490919 
L 178.157392 457.566595 
L 277.219065 457.677158 
L 284.639415 457.679025 
L 367.49999 457.684689 
L 367.49999 457.684689 
" style="fill:none;stroke:#ff7f0e;stroke-linecap:square;stroke-width:3;"/>
   </g>
   <g id="line2d_16">
    <path clip-path="url(#p676731e727)" d="M 60.421172 104.123129 
L 69.325592 104.123129 
L 69.449265 263.420884 
L 78.353685 263.420884 
L 78.477357 335.343449 
L 87.381777 335.343449 
L 87.50545 370.153251 
L 96.40987 370.153251 
L 96.533542 433.635827 
L 105.437962 433.635827 
L 105.561635 446.13448 
L 114.466055 446.13448 
L 114.589727 452.001401 
L 123.494147 452.001401 
L 123.61782 454.233848 
L 132.52224 454.233848 
L 132.645913 456.145788 
L 141.550332 456.145788 
L 141.674005 457.068896 
L 150.578425 457.068896 
L 150.702097 457.360648 
L 159.606517 457.360648 
L 159.853862 457.49625 
L 186.690795 457.58711 
L 187.061812 457.638431 
L 340.168367 457.703343 
L 340.415712 457.884758 
L 349.19646 457.884758 
L 349.320132 424.308175 
L 358.224553 424.308175 
L 358.348225 457.891153 
L 376.280737 457.89825 
L 376.40441 325.678945 
L 385.30883 325.678945 
L 385.432502 457.898433 
L 403.365015 457.952959 
L 403.61236 458.112508 
L 421.4212 458.208933 
L 421.544872 455.790129 
L 430.449293 455.790129 
L 430.572965 458.562722 
L 439.477385 458.562722 
L 439.601057 459.171017 
L 448.505477 459.171017 
L 448.62915 460.937671 
L 457.53357 460.937671 
L 457.657242 461.528151 
L 475.589755 461.49123 
L 475.713427 462.319568 
L 484.617847 462.319568 
L 484.74152 461.794092 
L 493.64594 461.794092 
L 493.769612 462.679274 
L 502.674032 462.679274 
L 502.921378 462.805831 
L 520.730217 462.827647 
L 520.977562 462.942276 
L 601.98305 463.038732 
L 602.725085 463.061162 
L 647.123512 463.160597 
L 647.741875 463.185692 
L 678.783672 463.262437 
L 678.783672 463.262437 
" style="fill:none;stroke:#2ca02c;stroke-linecap:square;stroke-width:3;"/>
   </g>
   <g id="line2d_17">
    <path clip-path="url(#p676731e727)" d="M 60.2975 485.553829 
L 678.66 485.553829 
" style="fill:none;stroke:#000000;stroke-dasharray:7.4,3.2;stroke-dashoffset:0;stroke-width:2;"/>
   </g>
   <g id="patch_3">
    <path d="M 60.2975 507.745 
L 60.2975 19.539245 
" style="fill:none;stroke:#000000;stroke-linecap:square;stroke-linejoin:miter;stroke-width:0.8;"/>
   </g>
   <g id="patch_4">
    <path d="M 678.66 507.745 
L 678.66 19.539245 
" style="fill:none;stroke:#000000;stroke-linecap:square;stroke-linejoin:miter;stroke-width:0.8;"/>
   </g>
   <g id="patch_5">
    <path d="M 60.2975 507.745 
L 678.66 507.745 
" style="fill:none;stroke:#000000;stroke-linecap:square;stroke-linejoin:miter;stroke-width:0.8;"/>
   </g>
   <g id="patch_6">
    <path d="M 60.2975 19.539245 
L 678.66 19.539245 
" style="fill:none;stroke:#000000;stroke-linecap:square;stroke-linejoin:miter;stroke-width:0.8;"/>
   </g>
   <g id="legend_1">
    <g id="patch_7">
     <path d="M 475.96125 179.649245 
L 661.86 179.649245 
Q 666.66 179.649245 666.66 174.849245 
L 666.66 36.339245 
Q 666.66 31.539245 661.86 31.539245 
L 475.96125 31.539245 
Q 471.16125 31.539245 471.16125 36.339245 
L 471.16125 174.849245 
Q 471.16125 179.649245 475.96125 179.649245 
z
" style="fill:#ffffff;opacity:0.8;stroke:#cccccc;stroke-linejoin:miter;"/>
    </g>
    <g id="line2d_18">
     <path d="M 480.76125 50.975495 
L 528.76125 50.975495 
" style="fill:none;stroke:#1f77b4;stroke-linecap:square;stroke-width:3;"/>
    </g>
    <g id="line2d_19"/>
    <g id="text_16">
     <!-- COBYLA -->
     <g transform="translate(547.96125 59.375495)scale(0.24 -0.24)">
      <defs>
       <path d="M 4122 4306 
L 4122 3641 
Q 3803 3938 3442 4084 
Q 3081 4231 2675 4231 
Q 1875 4231 1450 3742 
Q 1025 3253 1025 2328 
Q 1025 1406 1450 917 
Q 1875 428 2675 428 
Q 3081 428 3442 575 
Q 3803 722 4122 1019 
L 4122 359 
Q 3791 134 3420 21 
Q 3050 -91 2638 -91 
Q 1578 -91 968 557 
Q 359 1206 359 2328 
Q 359 3453 968 4101 
Q 1578 4750 2638 4750 
Q 3056 4750 3426 4639 
Q 3797 4528 4122 4306 
z
" id="DejaVuSans-43" transform="scale(0.015625)"/>
       <path d="M 2522 4238 
Q 1834 4238 1429 3725 
Q 1025 3213 1025 2328 
Q 1025 1447 1429 934 
Q 1834 422 2522 422 
Q 3209 422 3611 934 
Q 4013 1447 4013 2328 
Q 4013 3213 3611 3725 
Q 3209 4238 2522 4238 
z
M 2522 4750 
Q 3503 4750 4090 4092 
Q 4678 3434 4678 2328 
Q 4678 1225 4090 567 
Q 3503 -91 2522 -91 
Q 1538 -91 948 565 
Q 359 1222 359 2328 
Q 359 3434 948 4092 
Q 1538 4750 2522 4750 
z
" id="DejaVuSans-4f" transform="scale(0.015625)"/>
       <path d="M 1259 2228 
L 1259 519 
L 2272 519 
Q 2781 519 3026 730 
Q 3272 941 3272 1375 
Q 3272 1813 3026 2020 
Q 2781 2228 2272 2228 
L 1259 2228 
z
M 1259 4147 
L 1259 2741 
L 2194 2741 
Q 2656 2741 2882 2914 
Q 3109 3088 3109 3444 
Q 3109 3797 2882 3972 
Q 2656 4147 2194 4147 
L 1259 4147 
z
M 628 4666 
L 2241 4666 
Q 2963 4666 3353 4366 
Q 3744 4066 3744 3513 
Q 3744 3084 3544 2831 
Q 3344 2578 2956 2516 
Q 3422 2416 3680 2098 
Q 3938 1781 3938 1306 
Q 3938 681 3513 340 
Q 3088 0 2303 0 
L 628 0 
L 628 4666 
z
" id="DejaVuSans-42" transform="scale(0.015625)"/>
       <path d="M -13 4666 
L 666 4666 
L 1959 2747 
L 3244 4666 
L 3922 4666 
L 2272 2222 
L 2272 0 
L 1638 0 
L 1638 2222 
L -13 4666 
z
" id="DejaVuSans-59" transform="scale(0.015625)"/>
       <path d="M 628 4666 
L 1259 4666 
L 1259 531 
L 3531 531 
L 3531 0 
L 628 0 
L 628 4666 
z
" id="DejaVuSans-4c" transform="scale(0.015625)"/>
       <path d="M 2188 4044 
L 1331 1722 
L 3047 1722 
L 2188 4044 
z
M 1831 4666 
L 2547 4666 
L 4325 0 
L 3669 0 
L 3244 1197 
L 1141 1197 
L 716 0 
L 50 0 
L 1831 4666 
z
" id="DejaVuSans-41" transform="scale(0.015625)"/>
      </defs>
      <use xlink:href="#DejaVuSans-43"/>
      <use x="69.824219" xlink:href="#DejaVuSans-4f"/>
      <use x="148.535156" xlink:href="#DejaVuSans-42"/>
      <use x="211.638672" xlink:href="#DejaVuSans-59"/>
      <use x="272.722656" xlink:href="#DejaVuSans-4c"/>
      <use x="330.685547" xlink:href="#DejaVuSans-41"/>
     </g>
    </g>
    <g id="line2d_20">
     <path d="M 480.76125 86.202995 
L 528.76125 86.202995 
" style="fill:none;stroke:#ff7f0e;stroke-linecap:square;stroke-width:3;"/>
    </g>
    <g id="line2d_21"/>
    <g id="text_17">
     <!-- SLSQP -->
     <g transform="translate(547.96125 94.602995)scale(0.24 -0.24)">
      <defs>
       <path d="M 3425 4513 
L 3425 3897 
Q 3066 4069 2747 4153 
Q 2428 4238 2131 4238 
Q 1616 4238 1336 4038 
Q 1056 3838 1056 3469 
Q 1056 3159 1242 3001 
Q 1428 2844 1947 2747 
L 2328 2669 
Q 3034 2534 3370 2195 
Q 3706 1856 3706 1288 
Q 3706 609 3251 259 
Q 2797 -91 1919 -91 
Q 1588 -91 1214 -16 
Q 841 59 441 206 
L 441 856 
Q 825 641 1194 531 
Q 1563 422 1919 422 
Q 2459 422 2753 634 
Q 3047 847 3047 1241 
Q 3047 1584 2836 1778 
Q 2625 1972 2144 2069 
L 1759 2144 
Q 1053 2284 737 2584 
Q 422 2884 422 3419 
Q 422 4038 858 4394 
Q 1294 4750 2059 4750 
Q 2388 4750 2728 4690 
Q 3069 4631 3425 4513 
z
" id="DejaVuSans-53" transform="scale(0.015625)"/>
       <path d="M 1259 4147 
L 1259 2394 
L 2053 2394 
Q 2494 2394 2734 2622 
Q 2975 2850 2975 3272 
Q 2975 3691 2734 3919 
Q 2494 4147 2053 4147 
L 1259 4147 
z
M 628 4666 
L 2053 4666 
Q 2838 4666 3239 4311 
Q 3641 3956 3641 3272 
Q 3641 2581 3239 2228 
Q 2838 1875 2053 1875 
L 1259 1875 
L 1259 0 
L 628 0 
L 628 4666 
z
" id="DejaVuSans-50" transform="scale(0.015625)"/>
      </defs>
      <use xlink:href="#DejaVuSans-53"/>
      <use x="63.476562" xlink:href="#DejaVuSans-4c"/>
      <use x="119.189453" xlink:href="#DejaVuSans-53"/>
      <use x="182.666016" xlink:href="#DejaVuSans-51"/>
      <use x="261.376953" xlink:href="#DejaVuSans-50"/>
     </g>
    </g>
    <g id="line2d_22">
     <path d="M 480.76125 121.430495 
L 528.76125 121.430495 
" style="fill:none;stroke:#2ca02c;stroke-linecap:square;stroke-width:3;"/>
    </g>
    <g id="line2d_23"/>
    <g id="text_18">
     <!-- L-BFGS-B -->
     <g transform="translate(547.96125 129.830495)scale(0.24 -0.24)">
      <defs>
       <path d="M 313 2009 
L 1997 2009 
L 1997 1497 
L 313 1497 
L 313 2009 
z
" id="DejaVuSans-2d" transform="scale(0.015625)"/>
       <path d="M 628 4666 
L 3309 4666 
L 3309 4134 
L 1259 4134 
L 1259 2759 
L 3109 2759 
L 3109 2228 
L 1259 2228 
L 1259 0 
L 628 0 
L 628 4666 
z
" id="DejaVuSans-46" transform="scale(0.015625)"/>
       <path d="M 3809 666 
L 3809 1919 
L 2778 1919 
L 2778 2438 
L 4434 2438 
L 4434 434 
Q 4069 175 3628 42 
Q 3188 -91 2688 -91 
Q 1594 -91 976 548 
Q 359 1188 359 2328 
Q 359 3472 976 4111 
Q 1594 4750 2688 4750 
Q 3144 4750 3555 4637 
Q 3966 4525 4313 4306 
L 4313 3634 
Q 3963 3931 3569 4081 
Q 3175 4231 2741 4231 
Q 1884 4231 1454 3753 
Q 1025 3275 1025 2328 
Q 1025 1384 1454 906 
Q 1884 428 2741 428 
Q 3075 428 3337 486 
Q 3600 544 3809 666 
z
" id="DejaVuSans-47" transform="scale(0.015625)"/>
      </defs>
      <use xlink:href="#DejaVuSans-4c"/>
      <use x="53.962891" xlink:href="#DejaVuSans-2d"/>
      <use x="86.421875" xlink:href="#DejaVuSans-42"/>
      <use x="155.025391" xlink:href="#DejaVuSans-46"/>
      <use x="212.544922" xlink:href="#DejaVuSans-47"/>
      <use x="290.035156" xlink:href="#DejaVuSans-53"/>
      <use x="353.511719" xlink:href="#DejaVuSans-2d"/>
      <use x="385.970703" xlink:href="#DejaVuSans-42"/>
     </g>
    </g>
    <g id="line2d_24">
     <path d="M 480.76125 156.657995 
L 528.76125 156.657995 
" style="fill:none;stroke:#000000;stroke-dasharray:7.4,3.2;stroke-dashoffset:0;stroke-width:2;"/>
    </g>
    <g id="line2d_25"/>
    <g id="text_19">
     <!-- HT -->
     <g transform="translate(547.96125 165.057995)scale(0.24 -0.24)">
      <defs>
       <path d="M 628 4666 
L 1259 4666 
L 1259 2753 
L 3553 2753 
L 3553 4666 
L 4184 4666 
L 4184 0 
L 3553 0 
L 3553 2222 
L 1259 2222 
L 1259 0 
L 628 0 
L 628 4666 
z
" id="DejaVuSans-48" transform="scale(0.015625)"/>
       <path d="M -19 4666 
L 3928 4666 
L 3928 4134 
L 2272 4134 
L 2272 0 
L 1638 0 
L 1638 4134 
L -19 4134 
L -19 4666 
z
" id="DejaVuSans-54" transform="scale(0.015625)"/>
      </defs>
      <use xlink:href="#DejaVuSans-48"/>
      <use x="75.195312" xlink:href="#DejaVuSans-54"/>
     </g>
    </g>
   </g>
  </g>
 </g>
 <defs>
  <clipPath id="p676731e727">
   <rect height="488.205755" width="618.3625" x="60.2975" y="19.539245"/>
  </clipPath>
 </defs>
</svg>
