<?xml version="1.0" encoding="utf-8" standalone="no"?>
<!DOCTYPE svg PUBLIC "-//W3C//DTD SVG 1.1//EN"
  "http://www.w3.org/Graphics/SVG/1.1/DTD/svg11.dtd">
<svg height="576pt" version="1.1" viewBox="0 0 720 576" width="720pt" xmlns="http://www.w3.org/2000/svg" xmlns:xlink="http://www.w3.org/1999/xlink">
 <metadata>
  <rdf:RDF xmlns:cc="http://creativecommons.org/ns#" xmlns:dc="http://purl.org/dc/elements/1.1/" xmlns:rdf="http://www.w3.org/1999/02/22-rdf-syntax-ns#">
   <cc:Work>
    <dc:type rdf:resource="http://purl.org/dc/dcmitype/StillImage"/>
    <dc:date>2021-07-30T13:00:14.297788</dc:date>
    <dc:format>image/svg+xml</dc:format>
    <dc:creator>
     <cc:Agent>
      <dc:title>Matplotlib v3.4.2, https://matplotlib.org/</dc:title>
     </cc:Agent>
    </dc:creator>
   </cc:Work>
  </rdf:RDF>
 </metadata>
 <defs>
  <style type="text/css">*{stroke-linecap:butt;stroke-linejoin:round;}</style>
 </defs>
 <g id="figure_1">
  <g id="patch_1">
   <path d="M 0 576 
L 720 576 
L 720 0 
L 0 0 
z
" style="fill:#ffffff;"/>
  </g>
  <g id="axes_1">
   <g id="patch_2">
    <path d="M 60.2975 507.745 
L 678.66 507.745 
L 678.66 10.8 
L 60.2975 10.8 
z
" style="fill:#ffffff;"/>
   </g>
   <g id="matplotlib.axis_1">
    <g id="xtick_1">
     <g id="line2d_1">
      <defs>
       <path d="M 0 0 
L 0 3.5 
" id="m46403340a6" style="stroke:#000000;stroke-width:0.8;"/>
      </defs>
      <g>
       <use style="stroke:#000000;stroke-width:0.8;" x="60.2975" xlink:href="#m46403340a6" y="507.745"/>
      </g>
     </g>
     <g id="text_1">
      <!-- 0 -->
      <g transform="translate(52.6625 532.98125)scale(0.24 -0.24)">
       <defs>
        <path d="M 2034 4250 
Q 1547 4250 1301 3770 
Q 1056 3291 1056 2328 
Q 1056 1369 1301 889 
Q 1547 409 2034 409 
Q 2525 409 2770 889 
Q 3016 1369 3016 2328 
Q 3016 3291 2770 3770 
Q 2525 4250 2034 4250 
z
M 2034 4750 
Q 2819 4750 3233 4129 
Q 3647 3509 3647 2328 
Q 3647 1150 3233 529 
Q 2819 -91 2034 -91 
Q 1250 -91 836 529 
Q 422 1150 422 2328 
Q 422 3509 836 4129 
Q 1250 4750 2034 4750 
z
" id="DejaVuSans-30" transform="scale(0.015625)"/>
       </defs>
       <use xlink:href="#DejaVuSans-30"/>
      </g>
     </g>
    </g>
    <g id="xtick_2">
     <g id="line2d_2">
      <g>
       <use style="stroke:#000000;stroke-width:0.8;" x="183.97" xlink:href="#m46403340a6" y="507.745"/>
      </g>
     </g>
     <g id="text_2">
      <!-- 1000 -->
      <g transform="translate(153.43 532.98125)scale(0.24 -0.24)">
       <defs>
        <path d="M 794 531 
L 1825 531 
L 1825 4091 
L 703 3866 
L 703 4441 
L 1819 4666 
L 2450 4666 
L 2450 531 
L 3481 531 
L 3481 0 
L 794 0 
L 794 531 
z
" id="DejaVuSans-31" transform="scale(0.015625)"/>
       </defs>
       <use xlink:href="#DejaVuSans-31"/>
       <use x="63.623047" xlink:href="#DejaVuSans-30"/>
       <use x="127.246094" xlink:href="#DejaVuSans-30"/>
       <use x="190.869141" xlink:href="#DejaVuSans-30"/>
      </g>
     </g>
    </g>
    <g id="xtick_3">
     <g id="line2d_3">
      <g>
       <use style="stroke:#000000;stroke-width:0.8;" x="307.6425" xlink:href="#m46403340a6" y="507.745"/>
      </g>
     </g>
     <g id="text_3">
      <!-- 2000 -->
      <g transform="translate(277.1025 532.98125)scale(0.24 -0.24)">
       <defs>
        <path d="M 1228 531 
L 3431 531 
L 3431 0 
L 469 0 
L 469 531 
Q 828 903 1448 1529 
Q 2069 2156 2228 2338 
Q 2531 2678 2651 2914 
Q 2772 3150 2772 3378 
Q 2772 3750 2511 3984 
Q 2250 4219 1831 4219 
Q 1534 4219 1204 4116 
Q 875 4013 500 3803 
L 500 4441 
Q 881 4594 1212 4672 
Q 1544 4750 1819 4750 
Q 2544 4750 2975 4387 
Q 3406 4025 3406 3419 
Q 3406 3131 3298 2873 
Q 3191 2616 2906 2266 
Q 2828 2175 2409 1742 
Q 1991 1309 1228 531 
z
" id="DejaVuSans-32" transform="scale(0.015625)"/>
       </defs>
       <use xlink:href="#DejaVuSans-32"/>
       <use x="63.623047" xlink:href="#DejaVuSans-30"/>
       <use x="127.246094" xlink:href="#DejaVuSans-30"/>
       <use x="190.869141" xlink:href="#DejaVuSans-30"/>
      </g>
     </g>
    </g>
    <g id="xtick_4">
     <g id="line2d_4">
      <g>
       <use style="stroke:#000000;stroke-width:0.8;" x="431.315" xlink:href="#m46403340a6" y="507.745"/>
      </g>
     </g>
     <g id="text_4">
      <!-- 3000 -->
      <g transform="translate(400.775 532.98125)scale(0.24 -0.24)">
       <defs>
        <path d="M 2597 2516 
Q 3050 2419 3304 2112 
Q 3559 1806 3559 1356 
Q 3559 666 3084 287 
Q 2609 -91 1734 -91 
Q 1441 -91 1130 -33 
Q 819 25 488 141 
L 488 750 
Q 750 597 1062 519 
Q 1375 441 1716 441 
Q 2309 441 2620 675 
Q 2931 909 2931 1356 
Q 2931 1769 2642 2001 
Q 2353 2234 1838 2234 
L 1294 2234 
L 1294 2753 
L 1863 2753 
Q 2328 2753 2575 2939 
Q 2822 3125 2822 3475 
Q 2822 3834 2567 4026 
Q 2313 4219 1838 4219 
Q 1578 4219 1281 4162 
Q 984 4106 628 3988 
L 628 4550 
Q 988 4650 1302 4700 
Q 1616 4750 1894 4750 
Q 2613 4750 3031 4423 
Q 3450 4097 3450 3541 
Q 3450 3153 3228 2886 
Q 3006 2619 2597 2516 
z
" id="DejaVuSans-33" transform="scale(0.015625)"/>
       </defs>
       <use xlink:href="#DejaVuSans-33"/>
       <use x="63.623047" xlink:href="#DejaVuSans-30"/>
       <use x="127.246094" xlink:href="#DejaVuSans-30"/>
       <use x="190.869141" xlink:href="#DejaVuSans-30"/>
      </g>
     </g>
    </g>
    <g id="xtick_5">
     <g id="line2d_5">
      <g>
       <use style="stroke:#000000;stroke-width:0.8;" x="554.9875" xlink:href="#m46403340a6" y="507.745"/>
      </g>
     </g>
     <g id="text_5">
      <!-- 4000 -->
      <g transform="translate(524.4475 532.98125)scale(0.24 -0.24)">
       <defs>
        <path d="M 2419 4116 
L 825 1625 
L 2419 1625 
L 2419 4116 
z
M 2253 4666 
L 3047 4666 
L 3047 1625 
L 3713 1625 
L 3713 1100 
L 3047 1100 
L 3047 0 
L 2419 0 
L 2419 1100 
L 313 1100 
L 313 1709 
L 2253 4666 
z
" id="DejaVuSans-34" transform="scale(0.015625)"/>
       </defs>
       <use xlink:href="#DejaVuSans-34"/>
       <use x="63.623047" xlink:href="#DejaVuSans-30"/>
       <use x="127.246094" xlink:href="#DejaVuSans-30"/>
       <use x="190.869141" xlink:href="#DejaVuSans-30"/>
      </g>
     </g>
    </g>
    <g id="xtick_6">
     <g id="line2d_6">
      <g>
       <use style="stroke:#000000;stroke-width:0.8;" x="678.66" xlink:href="#m46403340a6" y="507.745"/>
      </g>
     </g>
     <g id="text_6">
      <!-- 5000 -->
      <g transform="translate(648.12 532.98125)scale(0.24 -0.24)">
       <defs>
        <path d="M 691 4666 
L 3169 4666 
L 3169 4134 
L 1269 4134 
L 1269 2991 
Q 1406 3038 1543 3061 
Q 1681 3084 1819 3084 
Q 2600 3084 3056 2656 
Q 3513 2228 3513 1497 
Q 3513 744 3044 326 
Q 2575 -91 1722 -91 
Q 1428 -91 1123 -41 
Q 819 9 494 109 
L 494 744 
Q 775 591 1075 516 
Q 1375 441 1709 441 
Q 2250 441 2565 725 
Q 2881 1009 2881 1497 
Q 2881 1984 2565 2268 
Q 2250 2553 1709 2553 
Q 1456 2553 1204 2497 
Q 953 2441 691 2322 
L 691 4666 
z
" id="DejaVuSans-35" transform="scale(0.015625)"/>
       </defs>
       <use xlink:href="#DejaVuSans-35"/>
       <use x="63.623047" xlink:href="#DejaVuSans-30"/>
       <use x="127.246094" xlink:href="#DejaVuSans-30"/>
       <use x="190.869141" xlink:href="#DejaVuSans-30"/>
      </g>
     </g>
    </g>
    <g id="text_7">
     <!-- iterations -->
     <g transform="translate(312.533125 560.20875)scale(0.24 -0.24)">
      <defs>
       <path d="M 603 3500 
L 1178 3500 
L 1178 0 
L 603 0 
L 603 3500 
z
M 603 4863 
L 1178 4863 
L 1178 4134 
L 603 4134 
L 603 4863 
z
" id="DejaVuSans-69" transform="scale(0.015625)"/>
       <path d="M 1172 4494 
L 1172 3500 
L 2356 3500 
L 2356 3053 
L 1172 3053 
L 1172 1153 
Q 1172 725 1289 603 
Q 1406 481 1766 481 
L 2356 481 
L 2356 0 
L 1766 0 
Q 1100 0 847 248 
Q 594 497 594 1153 
L 594 3053 
L 172 3053 
L 172 3500 
L 594 3500 
L 594 4494 
L 1172 4494 
z
" id="DejaVuSans-74" transform="scale(0.015625)"/>
       <path d="M 3597 1894 
L 3597 1613 
L 953 1613 
Q 991 1019 1311 708 
Q 1631 397 2203 397 
Q 2534 397 2845 478 
Q 3156 559 3463 722 
L 3463 178 
Q 3153 47 2828 -22 
Q 2503 -91 2169 -91 
Q 1331 -91 842 396 
Q 353 884 353 1716 
Q 353 2575 817 3079 
Q 1281 3584 2069 3584 
Q 2775 3584 3186 3129 
Q 3597 2675 3597 1894 
z
M 3022 2063 
Q 3016 2534 2758 2815 
Q 2500 3097 2075 3097 
Q 1594 3097 1305 2825 
Q 1016 2553 972 2059 
L 3022 2063 
z
" id="DejaVuSans-65" transform="scale(0.015625)"/>
       <path d="M 2631 2963 
Q 2534 3019 2420 3045 
Q 2306 3072 2169 3072 
Q 1681 3072 1420 2755 
Q 1159 2438 1159 1844 
L 1159 0 
L 581 0 
L 581 3500 
L 1159 3500 
L 1159 2956 
Q 1341 3275 1631 3429 
Q 1922 3584 2338 3584 
Q 2397 3584 2469 3576 
Q 2541 3569 2628 3553 
L 2631 2963 
z
" id="DejaVuSans-72" transform="scale(0.015625)"/>
       <path d="M 2194 1759 
Q 1497 1759 1228 1600 
Q 959 1441 959 1056 
Q 959 750 1161 570 
Q 1363 391 1709 391 
Q 2188 391 2477 730 
Q 2766 1069 2766 1631 
L 2766 1759 
L 2194 1759 
z
M 3341 1997 
L 3341 0 
L 2766 0 
L 2766 531 
Q 2569 213 2275 61 
Q 1981 -91 1556 -91 
Q 1019 -91 701 211 
Q 384 513 384 1019 
Q 384 1609 779 1909 
Q 1175 2209 1959 2209 
L 2766 2209 
L 2766 2266 
Q 2766 2663 2505 2880 
Q 2244 3097 1772 3097 
Q 1472 3097 1187 3025 
Q 903 2953 641 2809 
L 641 3341 
Q 956 3463 1253 3523 
Q 1550 3584 1831 3584 
Q 2591 3584 2966 3190 
Q 3341 2797 3341 1997 
z
" id="DejaVuSans-61" transform="scale(0.015625)"/>
       <path d="M 1959 3097 
Q 1497 3097 1228 2736 
Q 959 2375 959 1747 
Q 959 1119 1226 758 
Q 1494 397 1959 397 
Q 2419 397 2687 759 
Q 2956 1122 2956 1747 
Q 2956 2369 2687 2733 
Q 2419 3097 1959 3097 
z
M 1959 3584 
Q 2709 3584 3137 3096 
Q 3566 2609 3566 1747 
Q 3566 888 3137 398 
Q 2709 -91 1959 -91 
Q 1206 -91 779 398 
Q 353 888 353 1747 
Q 353 2609 779 3096 
Q 1206 3584 1959 3584 
z
" id="DejaVuSans-6f" transform="scale(0.015625)"/>
       <path d="M 3513 2113 
L 3513 0 
L 2938 0 
L 2938 2094 
Q 2938 2591 2744 2837 
Q 2550 3084 2163 3084 
Q 1697 3084 1428 2787 
Q 1159 2491 1159 1978 
L 1159 0 
L 581 0 
L 581 3500 
L 1159 3500 
L 1159 2956 
Q 1366 3272 1645 3428 
Q 1925 3584 2291 3584 
Q 2894 3584 3203 3211 
Q 3513 2838 3513 2113 
z
" id="DejaVuSans-6e" transform="scale(0.015625)"/>
       <path d="M 2834 3397 
L 2834 2853 
Q 2591 2978 2328 3040 
Q 2066 3103 1784 3103 
Q 1356 3103 1142 2972 
Q 928 2841 928 2578 
Q 928 2378 1081 2264 
Q 1234 2150 1697 2047 
L 1894 2003 
Q 2506 1872 2764 1633 
Q 3022 1394 3022 966 
Q 3022 478 2636 193 
Q 2250 -91 1575 -91 
Q 1294 -91 989 -36 
Q 684 19 347 128 
L 347 722 
Q 666 556 975 473 
Q 1284 391 1588 391 
Q 1994 391 2212 530 
Q 2431 669 2431 922 
Q 2431 1156 2273 1281 
Q 2116 1406 1581 1522 
L 1381 1569 
Q 847 1681 609 1914 
Q 372 2147 372 2553 
Q 372 3047 722 3315 
Q 1072 3584 1716 3584 
Q 2034 3584 2315 3537 
Q 2597 3491 2834 3397 
z
" id="DejaVuSans-73" transform="scale(0.015625)"/>
      </defs>
      <use xlink:href="#DejaVuSans-69"/>
      <use x="27.783203" xlink:href="#DejaVuSans-74"/>
      <use x="66.992188" xlink:href="#DejaVuSans-65"/>
      <use x="128.515625" xlink:href="#DejaVuSans-72"/>
      <use x="169.628906" xlink:href="#DejaVuSans-61"/>
      <use x="230.908203" xlink:href="#DejaVuSans-74"/>
      <use x="270.117188" xlink:href="#DejaVuSans-69"/>
      <use x="297.900391" xlink:href="#DejaVuSans-6f"/>
      <use x="359.082031" xlink:href="#DejaVuSans-6e"/>
      <use x="422.460938" xlink:href="#DejaVuSans-73"/>
     </g>
    </g>
   </g>
   <g id="matplotlib.axis_2">
    <g id="ytick_1">
     <g id="line2d_7">
      <defs>
       <path d="M 0 0 
L -3.5 0 
" id="m8be358d66e" style="stroke:#000000;stroke-width:0.8;"/>
      </defs>
      <g>
       <use style="stroke:#000000;stroke-width:0.8;" x="60.2975" xlink:href="#m8be358d66e" y="493.467932"/>
      </g>
     </g>
     <g id="text_8">
      <!-- 0 -->
      <g transform="translate(38.0275 502.586057)scale(0.24 -0.24)">
       <use xlink:href="#DejaVuSans-30"/>
      </g>
     </g>
    </g>
    <g id="ytick_2">
     <g id="line2d_8">
      <g>
       <use style="stroke:#000000;stroke-width:0.8;" x="60.2975" xlink:href="#m8be358d66e" y="411.008908"/>
      </g>
     </g>
     <g id="text_9">
      <!-- 1 -->
      <g transform="translate(38.0275 420.127033)scale(0.24 -0.24)">
       <use xlink:href="#DejaVuSans-31"/>
      </g>
     </g>
    </g>
    <g id="ytick_3">
     <g id="line2d_9">
      <g>
       <use style="stroke:#000000;stroke-width:0.8;" x="60.2975" xlink:href="#m8be358d66e" y="328.549884"/>
      </g>
     </g>
     <g id="text_10">
      <!-- 2 -->
      <g transform="translate(38.0275 337.668009)scale(0.24 -0.24)">
       <use xlink:href="#DejaVuSans-32"/>
      </g>
     </g>
    </g>
    <g id="ytick_4">
     <g id="line2d_10">
      <g>
       <use style="stroke:#000000;stroke-width:0.8;" x="60.2975" xlink:href="#m8be358d66e" y="246.09086"/>
      </g>
     </g>
     <g id="text_11">
      <!-- 3 -->
      <g transform="translate(38.0275 255.208985)scale(0.24 -0.24)">
       <use xlink:href="#DejaVuSans-33"/>
      </g>
     </g>
    </g>
    <g id="ytick_5">
     <g id="line2d_11">
      <g>
       <use style="stroke:#000000;stroke-width:0.8;" x="60.2975" xlink:href="#m8be358d66e" y="163.631835"/>
      </g>
     </g>
     <g id="text_12">
      <!-- 4 -->
      <g transform="translate(38.0275 172.74996)scale(0.24 -0.24)">
       <use xlink:href="#DejaVuSans-34"/>
      </g>
     </g>
    </g>
    <g id="ytick_6">
     <g id="line2d_12">
      <g>
       <use style="stroke:#000000;stroke-width:0.8;" x="60.2975" xlink:href="#m8be358d66e" y="81.172811"/>
      </g>
     </g>
     <g id="text_13">
      <!-- 5 -->
      <g transform="translate(38.0275 90.290936)scale(0.24 -0.24)">
       <use xlink:href="#DejaVuSans-35"/>
      </g>
     </g>
    </g>
    <g id="text_14">
     <!-- VQE energy -->
     <g transform="translate(29.03625 330.14)rotate(-90)scale(0.24 -0.24)">
      <defs>
       <path d="M 1831 0 
L 50 4666 
L 709 4666 
L 2188 738 
L 3669 4666 
L 4325 4666 
L 2547 0 
L 1831 0 
z
" id="DejaVuSans-56" transform="scale(0.015625)"/>
       <path d="M 2522 4238 
Q 1834 4238 1429 3725 
Q 1025 3213 1025 2328 
Q 1025 1447 1429 934 
Q 1834 422 2522 422 
Q 3209 422 3611 934 
Q 4013 1447 4013 2328 
Q 4013 3213 3611 3725 
Q 3209 4238 2522 4238 
z
M 3406 84 
L 4238 -825 
L 3475 -825 
L 2784 -78 
Q 2681 -84 2626 -87 
Q 2572 -91 2522 -91 
Q 1538 -91 948 567 
Q 359 1225 359 2328 
Q 359 3434 948 4092 
Q 1538 4750 2522 4750 
Q 3503 4750 4090 4092 
Q 4678 3434 4678 2328 
Q 4678 1516 4351 937 
Q 4025 359 3406 84 
z
" id="DejaVuSans-51" transform="scale(0.015625)"/>
       <path d="M 628 4666 
L 3578 4666 
L 3578 4134 
L 1259 4134 
L 1259 2753 
L 3481 2753 
L 3481 2222 
L 1259 2222 
L 1259 531 
L 3634 531 
L 3634 0 
L 628 0 
L 628 4666 
z
" id="DejaVuSans-45" transform="scale(0.015625)"/>
       <path id="DejaVuSans-20" transform="scale(0.015625)"/>
       <path d="M 2906 1791 
Q 2906 2416 2648 2759 
Q 2391 3103 1925 3103 
Q 1463 3103 1205 2759 
Q 947 2416 947 1791 
Q 947 1169 1205 825 
Q 1463 481 1925 481 
Q 2391 481 2648 825 
Q 2906 1169 2906 1791 
z
M 3481 434 
Q 3481 -459 3084 -895 
Q 2688 -1331 1869 -1331 
Q 1566 -1331 1297 -1286 
Q 1028 -1241 775 -1147 
L 775 -588 
Q 1028 -725 1275 -790 
Q 1522 -856 1778 -856 
Q 2344 -856 2625 -561 
Q 2906 -266 2906 331 
L 2906 616 
Q 2728 306 2450 153 
Q 2172 0 1784 0 
Q 1141 0 747 490 
Q 353 981 353 1791 
Q 353 2603 747 3093 
Q 1141 3584 1784 3584 
Q 2172 3584 2450 3431 
Q 2728 3278 2906 2969 
L 2906 3500 
L 3481 3500 
L 3481 434 
z
" id="DejaVuSans-67" transform="scale(0.015625)"/>
       <path d="M 2059 -325 
Q 1816 -950 1584 -1140 
Q 1353 -1331 966 -1331 
L 506 -1331 
L 506 -850 
L 844 -850 
Q 1081 -850 1212 -737 
Q 1344 -625 1503 -206 
L 1606 56 
L 191 3500 
L 800 3500 
L 1894 763 
L 2988 3500 
L 3597 3500 
L 2059 -325 
z
" id="DejaVuSans-79" transform="scale(0.015625)"/>
      </defs>
      <use xlink:href="#DejaVuSans-56"/>
      <use x="68.408203" xlink:href="#DejaVuSans-51"/>
      <use x="147.119141" xlink:href="#DejaVuSans-45"/>
      <use x="210.302734" xlink:href="#DejaVuSans-20"/>
      <use x="242.089844" xlink:href="#DejaVuSans-65"/>
      <use x="303.613281" xlink:href="#DejaVuSans-6e"/>
      <use x="366.992188" xlink:href="#DejaVuSans-65"/>
      <use x="428.515625" xlink:href="#DejaVuSans-72"/>
      <use x="467.878906" xlink:href="#DejaVuSans-67"/>
      <use x="531.355469" xlink:href="#DejaVuSans-79"/>
     </g>
    </g>
   </g>
   <g id="line2d_13">
    <path clip-path="url(#p3b040e515c)" d="M 60.421172 43.826677 
L 60.544845 33.388409 
L 60.668518 54.661356 
L 60.79219 55.03424 
L 61.039535 45.433999 
L 61.410553 82.939191 
L 61.657897 47.979543 
L 61.905242 78.408033 
L 62.028915 79.251908 
L 62.152587 74.001796 
L 62.27626 90.877835 
L 62.399932 72.217176 
L 62.523605 101.478338 
L 62.647278 102.280697 
L 62.77095 98.137804 
L 62.894622 101.557581 
L 63.141967 93.673139 
L 63.389313 100.795803 
L 63.512985 143.175786 
L 63.636657 101.320282 
L 63.76033 99.54144 
L 63.884003 145.200281 
L 64.007675 144.078008 
L 64.131348 136.458464 
L 64.25502 145.912824 
L 64.378692 128.210206 
L 64.502365 137.732193 
L 64.626037 136.415811 
L 64.74971 129.078989 
L 64.873383 133.793957 
L 64.997055 165.871768 
L 65.120728 119.984776 
L 65.2444 170.001282 
L 65.491745 166.121593 
L 65.615417 168.300487 
L 65.73909 166.467295 
L 65.986435 180.22143 
L 66.110107 159.525647 
L 66.357452 175.575106 
L 66.481125 174.859258 
L 66.604798 178.800378 
L 66.72847 188.152413 
L 66.852142 166.047954 
L 67.099487 186.5259 
L 67.22316 176.837273 
L 67.346833 186.20203 
L 67.470505 181.118886 
L 67.594178 181.365042 
L 67.841522 199.678416 
L 67.965195 200.630747 
L 68.088867 172.502706 
L 68.21254 189.265112 
L 68.336213 164.398573 
L 68.459885 206.336198 
L 68.583557 182.173461 
L 68.830902 218.407819 
L 68.954575 214.482283 
L 69.20192 237.766272 
L 69.325592 228.50458 
L 69.449265 236.710444 
L 69.572937 193.274564 
L 69.69661 218.568476 
L 69.820283 220.852764 
L 69.943955 232.037815 
L 70.067628 219.294857 
L 70.1913 237.16082 
L 70.314972 229.581459 
L 70.438645 234.9227 
L 70.562318 221.66799 
L 70.68599 232.488279 
L 70.809663 220.102555 
L 71.057007 238.733621 
L 71.18068 234.078437 
L 71.304352 207.773943 
L 71.428025 233.906788 
L 71.551698 225.716953 
L 71.67537 230.021465 
L 71.799042 209.898904 
L 71.922715 243.754629 
L 72.046387 197.809789 
L 72.17006 233.955215 
L 72.293733 221.17153 
L 72.66475 243.803751 
L 72.788422 205.291153 
L 72.912095 236.30384 
L 73.035767 216.213823 
L 73.15944 241.428646 
L 73.283113 223.975408 
L 73.406785 234.26159 
L 73.530457 193.150975 
L 73.65413 250.732507 
L 73.777802 229.488614 
L 73.901475 251.578328 
L 74.025148 231.309729 
L 74.14882 247.233777 
L 74.272492 239.443561 
L 74.396165 254.586398 
L 74.519837 249.822839 
L 74.64351 251.066209 
L 74.767183 240.149932 
L 74.890855 253.554487 
L 75.014527 253.095051 
L 75.1382 258.64956 
L 75.385545 246.458745 
L 75.509218 261.549249 
L 75.63289 251.298713 
L 75.880235 263.091051 
L 76.003907 259.406284 
L 76.251252 266.134383 
L 76.374925 258.339497 
L 76.498598 263.349964 
L 76.62227 261.571654 
L 76.745942 266.926125 
L 76.869615 262.653262 
L 76.993287 262.919434 
L 77.240633 267.305155 
L 77.364305 261.595006 
L 77.487977 261.346702 
L 77.61165 263.027415 
L 77.735322 271.59049 
L 77.858995 272.09261 
L 77.982667 276.630222 
L 78.10634 266.54772 
L 78.230013 277.24153 
L 78.353685 275.688758 
L 78.477357 278.045091 
L 78.724703 272.107858 
L 78.848375 279.284733 
L 79.09572 277.384668 
L 79.343065 289.458022 
L 79.466737 284.727144 
L 79.59041 290.602338 
L 79.714082 284.666119 
L 79.961427 308.914152 
L 80.0851 306.258863 
L 80.208772 296.461116 
L 80.456118 307.502253 
L 80.57979 312.985526 
L 80.703463 311.495824 
L 80.827135 313.837054 
L 80.950807 312.264752 
L 81.07448 312.780853 
L 81.321825 332.654993 
L 81.445498 336.549945 
L 81.56917 312.637602 
L 81.692842 328.74527 
L 81.816515 324.171013 
L 82.06386 343.708811 
L 82.187533 338.60035 
L 82.311205 319.664143 
L 82.434877 346.256467 
L 82.682222 333.899548 
L 82.805895 337.881651 
L 83.05324 348.792605 
L 83.176913 343.994088 
L 83.300585 349.809679 
L 83.424257 347.115671 
L 83.54793 347.098883 
L 83.671603 357.036085 
L 83.795275 344.004008 
L 83.918948 362.053693 
L 84.04262 352.455744 
L 84.289965 368.843996 
L 84.413637 368.651037 
L 84.53731 375.228434 
L 84.660983 370.824748 
L 84.784655 360.597791 
L 84.908327 365.399429 
L 85.032 382.430253 
L 85.155672 373.498906 
L 85.403018 381.229535 
L 85.52669 379.758355 
L 85.650362 374.777455 
L 85.774035 351.225456 
L 86.268725 404.006318 
L 86.392398 377.240009 
L 86.51607 403.364624 
L 86.639742 400.833773 
L 86.763415 395.331483 
L 87.01076 419.795237 
L 87.258105 413.271491 
L 87.381777 418.405623 
L 87.629122 411.21471 
L 87.876467 418.435597 
L 88.00014 417.926146 
L 88.123812 415.650775 
L 88.247485 416.576137 
L 88.371157 405.121869 
L 88.49483 420.941222 
L 88.618503 387.530193 
L 88.742175 419.186758 
L 88.865848 403.676429 
L 88.98952 410.715417 
L 89.113192 408.175626 
L 89.360537 430.649399 
L 89.48421 416.880765 
L 89.607883 429.392469 
L 89.731555 430.291104 
L 89.855227 419.853031 
L 90.102572 434.485917 
L 90.226245 440.393389 
L 90.349918 429.769691 
L 90.47359 429.044237 
L 90.597262 424.739057 
L 90.720935 440.808028 
L 90.844607 421.807053 
L 90.96828 435.680352 
L 91.091952 422.772914 
L 91.339298 425.375051 
L 91.586642 438.112865 
L 91.710315 436.330204 
L 91.833987 431.59161 
L 91.95766 437.449306 
L 92.081333 434.016132 
L 92.328677 439.102438 
L 92.576022 423.936734 
L 92.699695 430.664203 
L 92.823367 418.897704 
L 92.94704 437.571642 
L 93.070712 411.570661 
L 93.318057 440.646278 
L 93.44173 439.784429 
L 93.565403 425.540447 
L 93.689075 442.179765 
L 93.812748 411.604441 
L 93.93642 440.784267 
L 94.060092 443.266657 
L 94.183765 441.522027 
L 94.307437 443.352693 
L 94.43111 446.871707 
L 94.678455 442.875754 
L 94.802127 443.381831 
L 94.9258 437.606965 
L 95.173145 445.168835 
L 95.296818 447.486939 
L 95.42049 447.706498 
L 95.544162 445.283262 
L 95.91518 449.393608 
L 96.038852 448.889167 
L 96.162525 452.281668 
L 96.286198 447.971381 
L 96.40987 450.813896 
L 96.533542 450.762143 
L 96.780888 460.464012 
L 97.028233 456.716234 
L 97.151905 451.706905 
L 97.39925 459.821617 
L 97.522922 462.705106 
L 97.646595 461.633898 
L 97.89394 457.972318 
L 98.017612 462.521391 
L 98.141285 460.59165 
L 98.38863 462.085381 
L 98.512303 460.482402 
L 98.88332 469.526867 
L 99.006992 467.812257 
L 99.130665 468.427186 
L 99.254337 468.164321 
L 99.501682 470.840358 
L 99.625355 468.932644 
L 99.749027 464.429736 
L 99.996373 473.684781 
L 100.120045 473.023784 
L 100.243718 472.638511 
L 100.36739 471.608898 
L 100.491062 471.534642 
L 100.614735 472.53346 
L 100.738407 466.462858 
L 100.86208 474.213515 
L 101.109425 472.597925 
L 101.233097 467.55002 
L 101.35677 473.34464 
L 101.480442 468.301531 
L 101.604115 472.467239 
L 101.727788 470.850582 
L 101.85146 475.26553 
L 101.975133 471.734896 
L 102.098805 472.808981 
L 102.222477 469.994168 
L 102.34615 475.207547 
L 102.469822 472.023406 
L 102.593495 473.499288 
L 102.717167 469.587967 
L 102.84084 474.456484 
L 103.088185 472.457322 
L 103.33553 474.907047 
L 103.459203 474.680629 
L 103.582875 473.992501 
L 103.706547 471.357148 
L 103.953892 474.046536 
L 104.077565 473.965354 
L 104.32491 475.540415 
L 104.448582 475.679728 
L 104.572255 474.127587 
L 104.695927 474.914167 
L 104.8196 474.476277 
L 104.943273 474.695465 
L 105.190618 475.698192 
L 105.31429 473.487696 
L 105.437962 475.13067 
L 105.561635 474.517173 
L 105.685307 474.595198 
L 106.056325 476.099955 
L 106.179997 475.753162 
L 106.30367 477.653968 
L 106.427342 477.568547 
L 106.551015 478.320005 
L 106.674688 477.587553 
L 106.79836 477.862882 
L 107.045705 478.663543 
L 107.169377 477.526742 
L 107.416722 477.981374 
L 107.664067 478.002088 
L 107.78774 477.272598 
L 107.911412 478.264544 
L 108.035085 477.520212 
L 108.158757 479.002435 
L 108.28243 478.507178 
L 108.406103 478.654441 
L 108.529775 477.578679 
L 108.653447 478.639291 
L 108.77712 478.603283 
L 109.024465 477.902917 
L 109.148137 478.209758 
L 109.27181 479.526705 
L 109.395482 478.101658 
L 109.642827 479.893939 
L 109.7665 479.575387 
L 110.013845 479.980504 
L 110.137518 479.080623 
L 110.26119 479.117224 
L 110.384862 480.003375 
L 110.508535 479.424504 
L 110.632207 480.083653 
L 110.75588 479.005673 
L 110.879552 479.509914 
L 111.003225 479.413173 
L 111.126897 479.477676 
L 111.25057 480.045721 
L 111.374242 479.895083 
L 111.497915 479.517886 
L 111.621588 480.088185 
L 111.74526 479.550206 
L 111.868932 479.779858 
L 111.992605 479.547444 
L 112.116277 480.097075 
L 112.23995 478.680184 
L 112.363622 479.738138 
L 112.487295 479.040478 
L 112.610967 480.572838 
L 112.73464 479.880129 
L 112.858312 480.249484 
L 112.981985 479.358809 
L 113.105657 480.405444 
L 113.22933 479.56748 
L 113.353003 480.345329 
L 113.476675 479.57402 
L 113.600347 480.648318 
L 113.72402 479.463162 
L 113.847692 480.742937 
L 113.971365 479.85807 
L 114.095037 480.516917 
L 114.21871 479.262672 
L 114.466055 480.800836 
L 114.589727 481.259588 
L 114.7134 480.98431 
L 114.837073 481.249733 
L 114.960745 481.110341 
L 115.084418 481.212374 
L 115.20809 481.079887 
L 115.331762 481.187454 
L 115.455435 481.46119 
L 115.579107 481.401803 
L 115.70278 480.968512 
L 115.950125 481.489299 
L 116.073797 481.525837 
L 116.19747 481.369876 
L 116.444815 481.614067 
L 116.568488 481.271259 
L 116.815832 481.686392 
L 116.939505 481.561247 
L 117.18685 481.632497 
L 117.310522 481.497909 
L 117.68154 481.685342 
L 117.805212 481.992139 
L 117.928885 481.951945 
L 118.052557 481.705258 
L 118.17623 481.720183 
L 118.299903 481.565763 
L 118.547247 481.827381 
L 118.67092 481.934668 
L 118.918265 481.852099 
L 119.041937 482.061229 
L 119.6603 481.76223 
L 119.783973 482.230745 
L 119.907645 482.1918 
L 120.031318 481.863781 
L 120.278662 482.261112 
L 120.526007 482.146221 
L 120.64968 482.36549 
L 120.773352 482.095116 
L 121.391715 482.293466 
L 121.515388 481.995149 
L 121.63906 482.490923 
L 121.762732 482.163017 
L 122.13375 482.459089 
L 122.257422 482.26376 
L 122.504767 482.586524 
L 122.752112 482.37838 
L 122.875785 482.554714 
L 122.999457 482.4466 
L 123.12313 482.549011 
L 123.246803 482.295607 
L 123.494147 482.453948 
L 123.61782 482.564928 
L 123.741492 482.146042 
L 123.988837 482.457062 
L 124.11251 482.657264 
L 124.236182 482.300827 
L 124.359855 482.547481 
L 124.483527 482.350017 
L 124.6072 482.642648 
L 124.730872 482.496309 
L 124.978217 482.667574 
L 125.225562 482.353772 
L 125.349235 482.610664 
L 125.472907 482.4793 
L 125.59658 482.687871 
L 125.720253 482.28176 
L 125.843925 482.596675 
L 125.967597 482.47022 
L 126.09127 482.559954 
L 126.214942 482.429462 
L 126.338615 482.642693 
L 126.462287 482.485939 
L 126.58596 482.712776 
L 126.833305 482.644986 
L 126.956977 482.705015 
L 127.08065 482.603681 
L 127.451667 482.71552 
L 127.946357 482.708664 
L 128.193703 482.786947 
L 128.317375 482.687156 
L 128.688392 482.78307 
L 128.812065 482.684887 
L 129.05941 482.786037 
L 129.306755 482.752167 
L 129.430428 482.811418 
L 129.677773 482.721905 
L 130.04879 482.788591 
L 130.296135 482.917793 
L 130.667152 482.977043 
L 131.161842 482.955002 
L 131.53286 483.032774 
L 134.872017 483.175436 
L 135.243035 483.096273 
L 135.861398 483.159303 
L 135.98507 483.101088 
L 136.232415 483.164178 
L 136.727105 483.169723 
L 137.46914 483.185927 
L 138.334847 483.214282 
L 139.4479 483.216046 
L 151.938822 483.549405 
L 158.74081 483.618288 
L 160.101207 483.649887 
L 161.337932 483.651308 
L 163.316692 483.698431 
L 165.048107 483.72632 
L 166.037487 483.749398 
L 169.995007 483.800615 
L 174.694562 483.876169 
L 176.05496 483.908059 
L 178.157392 483.938565 
L 181.743895 483.973681 
L 183.351637 484.000447 
L 216.12485 484.305114 
L 217.60892 484.304548 
L 328.048462 484.95339 
L 333.86107 484.968775 
L 339.550005 484.984764 
L 360.821675 485.03022 
L 381.103965 485.057967 
L 600.869997 485.150258 
L 678.783672 485.154 
L 678.783672 485.154 
" style="fill:none;stroke:#1f77b4;stroke-linecap:square;stroke-width:3;"/>
   </g>
   <g id="line2d_14">
    <path clip-path="url(#p3b040e515c)" d="M 60.421172 157.360418 
L 64.873383 157.360418 
L 64.997055 244.167417 
L 69.449265 244.167417 
L 69.572937 274.17606 
L 74.025148 274.17606 
L 74.14882 346.608411 
L 78.60103 346.608411 
L 78.724703 330.583281 
L 78.848375 375.643027 
L 83.300585 375.643027 
L 83.424257 385.216931 
L 87.876467 385.216931 
L 88.00014 391.796001 
L 92.45235 391.796001 
L 92.576022 395.731229 
L 97.028233 395.731229 
L 97.151905 397.3407 
L 101.604115 397.3407 
L 101.727788 398.223835 
L 106.179997 398.223835 
L 106.30367 398.50975 
L 110.75588 398.50975 
L 111.003225 398.710451 
L 115.331762 398.710451 
L 115.579107 398.89659 
L 129.05941 399.004553 
L 129.306755 399.089315 
L 133.635292 399.089315 
L 133.882637 399.329155 
L 138.211175 399.329155 
L 138.334847 399.587735 
L 142.787058 399.587735 
L 142.91073 400.046936 
L 147.36294 400.046936 
L 147.486612 400.797535 
L 151.938822 400.797535 
L 152.062495 400.447266 
L 152.186168 401.052409 
L 156.638377 401.052409 
L 156.885722 401.186137 
L 161.21426 401.186137 
L 161.461605 401.32568 
L 165.790143 401.32568 
L 165.913815 401.689977 
L 170.366025 401.689977 
L 170.489697 382.620328 
L 170.61337 402.19994 
L 175.06558 402.19994 
L 175.189253 378.038215 
L 175.312925 402.728676 
L 179.765135 402.728676 
L 179.888807 403.116558 
L 184.341017 403.116558 
L 184.46469 406.977595 
L 188.9169 406.977595 
L 189.040572 453.630199 
L 193.492782 453.630199 
L 193.616455 358.261261 
L 193.740127 461.621458 
L 198.192338 461.621458 
L 198.31601 354.559575 
L 198.439683 462.422402 
L 202.891892 462.422402 
L 203.015565 472.02716 
L 207.467775 472.02716 
L 207.591448 480.164941 
L 212.043657 480.164941 
L 212.16733 481.746912 
L 216.61954 481.746912 
L 216.743212 482.341633 
L 221.195423 482.341633 
L 221.319095 482.654088 
L 225.771305 482.654088 
L 226.01865 482.798836 
L 239.498952 482.904685 
L 239.86997 482.943927 
L 248.650717 483.047877 
L 249.021735 483.094472 
L 289.83366 483.19685 
L 289.83366 483.19685 
" style="fill:none;stroke:#ff7f0e;stroke-linecap:square;stroke-width:3;"/>
   </g>
   <g id="line2d_15">
    <path clip-path="url(#p3b040e515c)" d="M 60.421172 37.51782 
L 64.873383 37.51782 
L 64.997055 157.019771 
L 69.449265 157.019771 
L 69.572937 234.627752 
L 74.025148 234.627751 
L 74.14882 278.906558 
L 78.60103 278.906558 
L 78.724703 343.082317 
L 83.176913 343.082317 
L 83.300585 387.082546 
L 87.752795 387.082546 
L 87.876467 407.747128 
L 92.328677 407.747128 
L 92.45235 424.787278 
L 96.90456 424.787278 
L 97.028233 412.542426 
L 101.480442 412.542426 
L 101.604115 443.302792 
L 106.056325 443.302792 
L 106.179997 457.300624 
L 110.632207 457.300624 
L 110.75588 471.652632 
L 115.20809 471.652632 
L 115.331762 468.74265 
L 119.783973 468.74265 
L 119.907645 473.885749 
L 124.359855 473.885749 
L 124.483527 475.348596 
L 128.935737 475.348596 
L 129.05941 477.14396 
L 133.51162 477.14396 
L 133.635292 478.054237 
L 138.087502 478.054237 
L 138.211175 478.983153 
L 142.663385 478.983153 
L 142.787058 480.012983 
L 147.239267 480.012983 
L 147.36294 480.544715 
L 151.81515 480.544715 
L 151.938822 480.963393 
L 165.542798 481.055181 
L 166.16116 481.080485 
L 238.756917 481.10012 
L 238.88059 480.690012 
L 243.3328 480.690012 
L 243.456472 481.100945 
L 279.93986 481.035133 
L 280.187205 481.275597 
L 284.515742 481.275597 
L 284.763087 481.406682 
L 289.091625 481.406682 
L 289.215297 481.873106 
L 293.667507 481.873106 
L 293.79118 482.599298 
L 302.819272 482.621141 
L 302.942945 483.045346 
L 449.247512 483.14818 
L 449.371185 237.828463 
L 453.823395 237.828463 
L 453.947068 483.148182 
L 462.97516 483.148356 
L 463.098832 206.218253 
L 467.551042 206.218253 
L 467.674715 483.148355 
L 476.702808 483.148361 
L 476.82648 279.987111 
L 481.27869 279.98711 
L 481.402362 483.148361 
L 490.430455 483.148378 
L 490.554127 318.220861 
L 495.006337 318.220861 
L 495.13001 483.148379 
L 504.158102 483.148518 
L 504.281775 379.415779 
L 508.733985 379.415779 
L 508.857657 483.148522 
L 513.309867 483.148522 
L 513.43354 312.923881 
L 517.88575 312.923881 
L 518.009422 483.148522 
L 522.461632 483.148522 
L 522.585305 481.181232 
L 527.037515 481.181232 
L 527.161187 483.148563 
L 531.613397 483.148563 
L 531.73707 481.440893 
L 536.18928 481.440893 
L 536.312952 483.148563 
L 540.765162 483.148563 
L 540.888835 481.442302 
L 545.341045 481.442302 
L 545.464717 483.148563 
L 549.916927 483.148563 
L 550.0406 481.464145 
L 554.49281 481.464145 
L 554.616482 483.148563 
L 563.644575 483.148617 
L 563.768247 479.185021 
L 568.220457 479.185021 
L 568.34413 483.148629 
L 572.79634 483.148629 
L 572.920012 479.094982 
L 577.372223 479.094982 
L 577.495895 483.148629 
L 581.948105 483.148629 
L 582.071777 479.69611 
L 586.523987 479.69611 
L 586.64766 483.148629 
L 678.783672 483.173731 
L 678.783672 483.173731 
" style="fill:none;stroke:#2ca02c;stroke-linecap:square;stroke-width:3;"/>
   </g>
   <g id="line2d_16">
    <path clip-path="url(#p3b040e515c)" d="M 60.2975 493.19689 
L 678.66 493.19689 
" style="fill:none;stroke:#000000;stroke-dasharray:7.4,3.2;stroke-dashoffset:0;stroke-width:2;"/>
   </g>
   <g id="patch_3">
    <path d="M 60.2975 507.745 
L 60.2975 10.8 
" style="fill:none;stroke:#000000;stroke-linecap:square;stroke-linejoin:miter;stroke-width:0.8;"/>
   </g>
   <g id="patch_4">
    <path d="M 678.66 507.745 
L 678.66 10.8 
" style="fill:none;stroke:#000000;stroke-linecap:square;stroke-linejoin:miter;stroke-width:0.8;"/>
   </g>
   <g id="patch_5">
    <path d="M 60.2975 507.745 
L 678.66 507.745 
" style="fill:none;stroke:#000000;stroke-linecap:square;stroke-linejoin:miter;stroke-width:0.8;"/>
   </g>
   <g id="patch_6">
    <path d="M 60.2975 10.8 
L 678.66 10.8 
" style="fill:none;stroke:#000000;stroke-linecap:square;stroke-linejoin:miter;stroke-width:0.8;"/>
   </g>
   <g id="legend_1">
    <g id="patch_7">
     <path d="M 475.96125 170.91 
L 661.86 170.91 
Q 666.66 170.91 666.66 166.11 
L 666.66 27.6 
Q 666.66 22.8 661.86 22.8 
L 475.96125 22.8 
Q 471.16125 22.8 471.16125 27.6 
L 471.16125 166.11 
Q 471.16125 170.91 475.96125 170.91 
z
" style="fill:#ffffff;opacity:0.8;stroke:#cccccc;stroke-linejoin:miter;"/>
    </g>
    <g id="line2d_17">
     <path d="M 480.76125 42.23625 
L 528.76125 42.23625 
" style="fill:none;stroke:#1f77b4;stroke-linecap:square;stroke-width:3;"/>
    </g>
    <g id="line2d_18"/>
    <g id="text_15">
     <!-- COBYLA -->
     <g transform="translate(547.96125 50.63625)scale(0.24 -0.24)">
      <defs>
       <path d="M 4122 4306 
L 4122 3641 
Q 3803 3938 3442 4084 
Q 3081 4231 2675 4231 
Q 1875 4231 1450 3742 
Q 1025 3253 1025 2328 
Q 1025 1406 1450 917 
Q 1875 428 2675 428 
Q 3081 428 3442 575 
Q 3803 722 4122 1019 
L 4122 359 
Q 3791 134 3420 21 
Q 3050 -91 2638 -91 
Q 1578 -91 968 557 
Q 359 1206 359 2328 
Q 359 3453 968 4101 
Q 1578 4750 2638 4750 
Q 3056 4750 3426 4639 
Q 3797 4528 4122 4306 
z
" id="DejaVuSans-43" transform="scale(0.015625)"/>
       <path d="M 2522 4238 
Q 1834 4238 1429 3725 
Q 1025 3213 1025 2328 
Q 1025 1447 1429 934 
Q 1834 422 2522 422 
Q 3209 422 3611 934 
Q 4013 1447 4013 2328 
Q 4013 3213 3611 3725 
Q 3209 4238 2522 4238 
z
M 2522 4750 
Q 3503 4750 4090 4092 
Q 4678 3434 4678 2328 
Q 4678 1225 4090 567 
Q 3503 -91 2522 -91 
Q 1538 -91 948 565 
Q 359 1222 359 2328 
Q 359 3434 948 4092 
Q 1538 4750 2522 4750 
z
" id="DejaVuSans-4f" transform="scale(0.015625)"/>
       <path d="M 1259 2228 
L 1259 519 
L 2272 519 
Q 2781 519 3026 730 
Q 3272 941 3272 1375 
Q 3272 1813 3026 2020 
Q 2781 2228 2272 2228 
L 1259 2228 
z
M 1259 4147 
L 1259 2741 
L 2194 2741 
Q 2656 2741 2882 2914 
Q 3109 3088 3109 3444 
Q 3109 3797 2882 3972 
Q 2656 4147 2194 4147 
L 1259 4147 
z
M 628 4666 
L 2241 4666 
Q 2963 4666 3353 4366 
Q 3744 4066 3744 3513 
Q 3744 3084 3544 2831 
Q 3344 2578 2956 2516 
Q 3422 2416 3680 2098 
Q 3938 1781 3938 1306 
Q 3938 681 3513 340 
Q 3088 0 2303 0 
L 628 0 
L 628 4666 
z
" id="DejaVuSans-42" transform="scale(0.015625)"/>
       <path d="M -13 4666 
L 666 4666 
L 1959 2747 
L 3244 4666 
L 3922 4666 
L 2272 2222 
L 2272 0 
L 1638 0 
L 1638 2222 
L -13 4666 
z
" id="DejaVuSans-59" transform="scale(0.015625)"/>
       <path d="M 628 4666 
L 1259 4666 
L 1259 531 
L 3531 531 
L 3531 0 
L 628 0 
L 628 4666 
z
" id="DejaVuSans-4c" transform="scale(0.015625)"/>
       <path d="M 2188 4044 
L 1331 1722 
L 3047 1722 
L 2188 4044 
z
M 1831 4666 
L 2547 4666 
L 4325 0 
L 3669 0 
L 3244 1197 
L 1141 1197 
L 716 0 
L 50 0 
L 1831 4666 
z
" id="DejaVuSans-41" transform="scale(0.015625)"/>
      </defs>
      <use xlink:href="#DejaVuSans-43"/>
      <use x="69.824219" xlink:href="#DejaVuSans-4f"/>
      <use x="148.535156" xlink:href="#DejaVuSans-42"/>
      <use x="211.638672" xlink:href="#DejaVuSans-59"/>
      <use x="272.722656" xlink:href="#DejaVuSans-4c"/>
      <use x="330.685547" xlink:href="#DejaVuSans-41"/>
     </g>
    </g>
    <g id="line2d_19">
     <path d="M 480.76125 77.46375 
L 528.76125 77.46375 
" style="fill:none;stroke:#ff7f0e;stroke-linecap:square;stroke-width:3;"/>
    </g>
    <g id="line2d_20"/>
    <g id="text_16">
     <!-- SLSQP -->
     <g transform="translate(547.96125 85.86375)scale(0.24 -0.24)">
      <defs>
       <path d="M 3425 4513 
L 3425 3897 
Q 3066 4069 2747 4153 
Q 2428 4238 2131 4238 
Q 1616 4238 1336 4038 
Q 1056 3838 1056 3469 
Q 1056 3159 1242 3001 
Q 1428 2844 1947 2747 
L 2328 2669 
Q 3034 2534 3370 2195 
Q 3706 1856 3706 1288 
Q 3706 609 3251 259 
Q 2797 -91 1919 -91 
Q 1588 -91 1214 -16 
Q 841 59 441 206 
L 441 856 
Q 825 641 1194 531 
Q 1563 422 1919 422 
Q 2459 422 2753 634 
Q 3047 847 3047 1241 
Q 3047 1584 2836 1778 
Q 2625 1972 2144 2069 
L 1759 2144 
Q 1053 2284 737 2584 
Q 422 2884 422 3419 
Q 422 4038 858 4394 
Q 1294 4750 2059 4750 
Q 2388 4750 2728 4690 
Q 3069 4631 3425 4513 
z
" id="DejaVuSans-53" transform="scale(0.015625)"/>
       <path d="M 1259 4147 
L 1259 2394 
L 2053 2394 
Q 2494 2394 2734 2622 
Q 2975 2850 2975 3272 
Q 2975 3691 2734 3919 
Q 2494 4147 2053 4147 
L 1259 4147 
z
M 628 4666 
L 2053 4666 
Q 2838 4666 3239 4311 
Q 3641 3956 3641 3272 
Q 3641 2581 3239 2228 
Q 2838 1875 2053 1875 
L 1259 1875 
L 1259 0 
L 628 0 
L 628 4666 
z
" id="DejaVuSans-50" transform="scale(0.015625)"/>
      </defs>
      <use xlink:href="#DejaVuSans-53"/>
      <use x="63.476562" xlink:href="#DejaVuSans-4c"/>
      <use x="119.189453" xlink:href="#DejaVuSans-53"/>
      <use x="182.666016" xlink:href="#DejaVuSans-51"/>
      <use x="261.376953" xlink:href="#DejaVuSans-50"/>
     </g>
    </g>
    <g id="line2d_21">
     <path d="M 480.76125 112.69125 
L 528.76125 112.69125 
" style="fill:none;stroke:#2ca02c;stroke-linecap:square;stroke-width:3;"/>
    </g>
    <g id="line2d_22"/>
    <g id="text_17">
     <!-- L-BFGS-B -->
     <g transform="translate(547.96125 121.09125)scale(0.24 -0.24)">
      <defs>
       <path d="M 313 2009 
L 1997 2009 
L 1997 1497 
L 313 1497 
L 313 2009 
z
" id="DejaVuSans-2d" transform="scale(0.015625)"/>
       <path d="M 628 4666 
L 3309 4666 
L 3309 4134 
L 1259 4134 
L 1259 2759 
L 3109 2759 
L 3109 2228 
L 1259 2228 
L 1259 0 
L 628 0 
L 628 4666 
z
" id="DejaVuSans-46" transform="scale(0.015625)"/>
       <path d="M 3809 666 
L 3809 1919 
L 2778 1919 
L 2778 2438 
L 4434 2438 
L 4434 434 
Q 4069 175 3628 42 
Q 3188 -91 2688 -91 
Q 1594 -91 976 548 
Q 359 1188 359 2328 
Q 359 3472 976 4111 
Q 1594 4750 2688 4750 
Q 3144 4750 3555 4637 
Q 3966 4525 4313 4306 
L 4313 3634 
Q 3963 3931 3569 4081 
Q 3175 4231 2741 4231 
Q 1884 4231 1454 3753 
Q 1025 3275 1025 2328 
Q 1025 1384 1454 906 
Q 1884 428 2741 428 
Q 3075 428 3337 486 
Q 3600 544 3809 666 
z
" id="DejaVuSans-47" transform="scale(0.015625)"/>
      </defs>
      <use xlink:href="#DejaVuSans-4c"/>
      <use x="53.962891" xlink:href="#DejaVuSans-2d"/>
      <use x="86.421875" xlink:href="#DejaVuSans-42"/>
      <use x="155.025391" xlink:href="#DejaVuSans-46"/>
      <use x="212.544922" xlink:href="#DejaVuSans-47"/>
      <use x="290.035156" xlink:href="#DejaVuSans-53"/>
      <use x="353.511719" xlink:href="#DejaVuSans-2d"/>
      <use x="385.970703" xlink:href="#DejaVuSans-42"/>
     </g>
    </g>
    <g id="line2d_23">
     <path d="M 480.76125 147.91875 
L 528.76125 147.91875 
" style="fill:none;stroke:#000000;stroke-dasharray:7.4,3.2;stroke-dashoffset:0;stroke-width:2;"/>
    </g>
    <g id="line2d_24"/>
    <g id="text_18">
     <!-- HT -->
     <g transform="translate(547.96125 156.31875)scale(0.24 -0.24)">
      <defs>
       <path d="M 628 4666 
L 1259 4666 
L 1259 2753 
L 3553 2753 
L 3553 4666 
L 4184 4666 
L 4184 0 
L 3553 0 
L 3553 2222 
L 1259 2222 
L 1259 0 
L 628 0 
L 628 4666 
z
" id="DejaVuSans-48" transform="scale(0.015625)"/>
       <path d="M -19 4666 
L 3928 4666 
L 3928 4134 
L 2272 4134 
L 2272 0 
L 1638 0 
L 1638 4134 
L -19 4134 
L -19 4666 
z
" id="DejaVuSans-54" transform="scale(0.015625)"/>
      </defs>
      <use xlink:href="#DejaVuSans-48"/>
      <use x="75.195312" xlink:href="#DejaVuSans-54"/>
     </g>
    </g>
   </g>
  </g>
 </g>
 <defs>
  <clipPath id="p3b040e515c">
   <rect height="496.945" width="618.3625" x="60.2975" y="10.8"/>
  </clipPath>
 </defs>
</svg>
