<?xml version="1.0" encoding="utf-8" standalone="no"?>
<!DOCTYPE svg PUBLIC "-//W3C//DTD SVG 1.1//EN"
  "http://www.w3.org/Graphics/SVG/1.1/DTD/svg11.dtd">
<svg height="576pt" version="1.1" viewBox="0 0 720 576" width="720pt" xmlns="http://www.w3.org/2000/svg" xmlns:xlink="http://www.w3.org/1999/xlink">
 <metadata>
  <rdf:RDF xmlns:cc="http://creativecommons.org/ns#" xmlns:dc="http://purl.org/dc/elements/1.1/" xmlns:rdf="http://www.w3.org/1999/02/22-rdf-syntax-ns#">
   <cc:Work>
    <dc:type rdf:resource="http://purl.org/dc/dcmitype/StillImage"/>
    <dc:date>2021-07-30T13:15:03.588716</dc:date>
    <dc:format>image/svg+xml</dc:format>
    <dc:creator>
     <cc:Agent>
      <dc:title>Matplotlib v3.4.2, https://matplotlib.org/</dc:title>
     </cc:Agent>
    </dc:creator>
   </cc:Work>
  </rdf:RDF>
 </metadata>
 <defs>
  <style type="text/css">*{stroke-linecap:butt;stroke-linejoin:round;}</style>
 </defs>
 <g id="figure_1">
  <g id="patch_1">
   <path d="M 0 576 
L 720 576 
L 720 0 
L 0 0 
z
" style="fill:#ffffff;"/>
  </g>
  <g id="axes_1">
   <g id="patch_2">
    <path d="M 60.2975 507.745 
L 678.66 507.745 
L 678.66 10.8 
L 60.2975 10.8 
z
" style="fill:#ffffff;"/>
   </g>
   <g id="matplotlib.axis_1">
    <g id="xtick_1">
     <g id="line2d_1">
      <defs>
       <path d="M 0 0 
L 0 3.5 
" id="ma299e99a36" style="stroke:#000000;stroke-width:0.8;"/>
      </defs>
      <g>
       <use style="stroke:#000000;stroke-width:0.8;" x="60.2975" xlink:href="#ma299e99a36" y="507.745"/>
      </g>
     </g>
     <g id="text_1">
      <!-- 0 -->
      <g transform="translate(52.6625 532.98125)scale(0.24 -0.24)">
       <defs>
        <path d="M 2034 4250 
Q 1547 4250 1301 3770 
Q 1056 3291 1056 2328 
Q 1056 1369 1301 889 
Q 1547 409 2034 409 
Q 2525 409 2770 889 
Q 3016 1369 3016 2328 
Q 3016 3291 2770 3770 
Q 2525 4250 2034 4250 
z
M 2034 4750 
Q 2819 4750 3233 4129 
Q 3647 3509 3647 2328 
Q 3647 1150 3233 529 
Q 2819 -91 2034 -91 
Q 1250 -91 836 529 
Q 422 1150 422 2328 
Q 422 3509 836 4129 
Q 1250 4750 2034 4750 
z
" id="DejaVuSans-30" transform="scale(0.015625)"/>
       </defs>
       <use xlink:href="#DejaVuSans-30"/>
      </g>
     </g>
    </g>
    <g id="xtick_2">
     <g id="line2d_2">
      <g>
       <use style="stroke:#000000;stroke-width:0.8;" x="183.97" xlink:href="#ma299e99a36" y="507.745"/>
      </g>
     </g>
     <g id="text_2">
      <!-- 1000 -->
      <g transform="translate(153.43 532.98125)scale(0.24 -0.24)">
       <defs>
        <path d="M 794 531 
L 1825 531 
L 1825 4091 
L 703 3866 
L 703 4441 
L 1819 4666 
L 2450 4666 
L 2450 531 
L 3481 531 
L 3481 0 
L 794 0 
L 794 531 
z
" id="DejaVuSans-31" transform="scale(0.015625)"/>
       </defs>
       <use xlink:href="#DejaVuSans-31"/>
       <use x="63.623047" xlink:href="#DejaVuSans-30"/>
       <use x="127.246094" xlink:href="#DejaVuSans-30"/>
       <use x="190.869141" xlink:href="#DejaVuSans-30"/>
      </g>
     </g>
    </g>
    <g id="xtick_3">
     <g id="line2d_3">
      <g>
       <use style="stroke:#000000;stroke-width:0.8;" x="307.6425" xlink:href="#ma299e99a36" y="507.745"/>
      </g>
     </g>
     <g id="text_3">
      <!-- 2000 -->
      <g transform="translate(277.1025 532.98125)scale(0.24 -0.24)">
       <defs>
        <path d="M 1228 531 
L 3431 531 
L 3431 0 
L 469 0 
L 469 531 
Q 828 903 1448 1529 
Q 2069 2156 2228 2338 
Q 2531 2678 2651 2914 
Q 2772 3150 2772 3378 
Q 2772 3750 2511 3984 
Q 2250 4219 1831 4219 
Q 1534 4219 1204 4116 
Q 875 4013 500 3803 
L 500 4441 
Q 881 4594 1212 4672 
Q 1544 4750 1819 4750 
Q 2544 4750 2975 4387 
Q 3406 4025 3406 3419 
Q 3406 3131 3298 2873 
Q 3191 2616 2906 2266 
Q 2828 2175 2409 1742 
Q 1991 1309 1228 531 
z
" id="DejaVuSans-32" transform="scale(0.015625)"/>
       </defs>
       <use xlink:href="#DejaVuSans-32"/>
       <use x="63.623047" xlink:href="#DejaVuSans-30"/>
       <use x="127.246094" xlink:href="#DejaVuSans-30"/>
       <use x="190.869141" xlink:href="#DejaVuSans-30"/>
      </g>
     </g>
    </g>
    <g id="xtick_4">
     <g id="line2d_4">
      <g>
       <use style="stroke:#000000;stroke-width:0.8;" x="431.315" xlink:href="#ma299e99a36" y="507.745"/>
      </g>
     </g>
     <g id="text_4">
      <!-- 3000 -->
      <g transform="translate(400.775 532.98125)scale(0.24 -0.24)">
       <defs>
        <path d="M 2597 2516 
Q 3050 2419 3304 2112 
Q 3559 1806 3559 1356 
Q 3559 666 3084 287 
Q 2609 -91 1734 -91 
Q 1441 -91 1130 -33 
Q 819 25 488 141 
L 488 750 
Q 750 597 1062 519 
Q 1375 441 1716 441 
Q 2309 441 2620 675 
Q 2931 909 2931 1356 
Q 2931 1769 2642 2001 
Q 2353 2234 1838 2234 
L 1294 2234 
L 1294 2753 
L 1863 2753 
Q 2328 2753 2575 2939 
Q 2822 3125 2822 3475 
Q 2822 3834 2567 4026 
Q 2313 4219 1838 4219 
Q 1578 4219 1281 4162 
Q 984 4106 628 3988 
L 628 4550 
Q 988 4650 1302 4700 
Q 1616 4750 1894 4750 
Q 2613 4750 3031 4423 
Q 3450 4097 3450 3541 
Q 3450 3153 3228 2886 
Q 3006 2619 2597 2516 
z
" id="DejaVuSans-33" transform="scale(0.015625)"/>
       </defs>
       <use xlink:href="#DejaVuSans-33"/>
       <use x="63.623047" xlink:href="#DejaVuSans-30"/>
       <use x="127.246094" xlink:href="#DejaVuSans-30"/>
       <use x="190.869141" xlink:href="#DejaVuSans-30"/>
      </g>
     </g>
    </g>
    <g id="xtick_5">
     <g id="line2d_5">
      <g>
       <use style="stroke:#000000;stroke-width:0.8;" x="554.9875" xlink:href="#ma299e99a36" y="507.745"/>
      </g>
     </g>
     <g id="text_5">
      <!-- 4000 -->
      <g transform="translate(524.4475 532.98125)scale(0.24 -0.24)">
       <defs>
        <path d="M 2419 4116 
L 825 1625 
L 2419 1625 
L 2419 4116 
z
M 2253 4666 
L 3047 4666 
L 3047 1625 
L 3713 1625 
L 3713 1100 
L 3047 1100 
L 3047 0 
L 2419 0 
L 2419 1100 
L 313 1100 
L 313 1709 
L 2253 4666 
z
" id="DejaVuSans-34" transform="scale(0.015625)"/>
       </defs>
       <use xlink:href="#DejaVuSans-34"/>
       <use x="63.623047" xlink:href="#DejaVuSans-30"/>
       <use x="127.246094" xlink:href="#DejaVuSans-30"/>
       <use x="190.869141" xlink:href="#DejaVuSans-30"/>
      </g>
     </g>
    </g>
    <g id="xtick_6">
     <g id="line2d_6">
      <g>
       <use style="stroke:#000000;stroke-width:0.8;" x="678.66" xlink:href="#ma299e99a36" y="507.745"/>
      </g>
     </g>
     <g id="text_6">
      <!-- 5000 -->
      <g transform="translate(648.12 532.98125)scale(0.24 -0.24)">
       <defs>
        <path d="M 691 4666 
L 3169 4666 
L 3169 4134 
L 1269 4134 
L 1269 2991 
Q 1406 3038 1543 3061 
Q 1681 3084 1819 3084 
Q 2600 3084 3056 2656 
Q 3513 2228 3513 1497 
Q 3513 744 3044 326 
Q 2575 -91 1722 -91 
Q 1428 -91 1123 -41 
Q 819 9 494 109 
L 494 744 
Q 775 591 1075 516 
Q 1375 441 1709 441 
Q 2250 441 2565 725 
Q 2881 1009 2881 1497 
Q 2881 1984 2565 2268 
Q 2250 2553 1709 2553 
Q 1456 2553 1204 2497 
Q 953 2441 691 2322 
L 691 4666 
z
" id="DejaVuSans-35" transform="scale(0.015625)"/>
       </defs>
       <use xlink:href="#DejaVuSans-35"/>
       <use x="63.623047" xlink:href="#DejaVuSans-30"/>
       <use x="127.246094" xlink:href="#DejaVuSans-30"/>
       <use x="190.869141" xlink:href="#DejaVuSans-30"/>
      </g>
     </g>
    </g>
    <g id="text_7">
     <!-- iterations -->
     <g transform="translate(312.533125 560.20875)scale(0.24 -0.24)">
      <defs>
       <path d="M 603 3500 
L 1178 3500 
L 1178 0 
L 603 0 
L 603 3500 
z
M 603 4863 
L 1178 4863 
L 1178 4134 
L 603 4134 
L 603 4863 
z
" id="DejaVuSans-69" transform="scale(0.015625)"/>
       <path d="M 1172 4494 
L 1172 3500 
L 2356 3500 
L 2356 3053 
L 1172 3053 
L 1172 1153 
Q 1172 725 1289 603 
Q 1406 481 1766 481 
L 2356 481 
L 2356 0 
L 1766 0 
Q 1100 0 847 248 
Q 594 497 594 1153 
L 594 3053 
L 172 3053 
L 172 3500 
L 594 3500 
L 594 4494 
L 1172 4494 
z
" id="DejaVuSans-74" transform="scale(0.015625)"/>
       <path d="M 3597 1894 
L 3597 1613 
L 953 1613 
Q 991 1019 1311 708 
Q 1631 397 2203 397 
Q 2534 397 2845 478 
Q 3156 559 3463 722 
L 3463 178 
Q 3153 47 2828 -22 
Q 2503 -91 2169 -91 
Q 1331 -91 842 396 
Q 353 884 353 1716 
Q 353 2575 817 3079 
Q 1281 3584 2069 3584 
Q 2775 3584 3186 3129 
Q 3597 2675 3597 1894 
z
M 3022 2063 
Q 3016 2534 2758 2815 
Q 2500 3097 2075 3097 
Q 1594 3097 1305 2825 
Q 1016 2553 972 2059 
L 3022 2063 
z
" id="DejaVuSans-65" transform="scale(0.015625)"/>
       <path d="M 2631 2963 
Q 2534 3019 2420 3045 
Q 2306 3072 2169 3072 
Q 1681 3072 1420 2755 
Q 1159 2438 1159 1844 
L 1159 0 
L 581 0 
L 581 3500 
L 1159 3500 
L 1159 2956 
Q 1341 3275 1631 3429 
Q 1922 3584 2338 3584 
Q 2397 3584 2469 3576 
Q 2541 3569 2628 3553 
L 2631 2963 
z
" id="DejaVuSans-72" transform="scale(0.015625)"/>
       <path d="M 2194 1759 
Q 1497 1759 1228 1600 
Q 959 1441 959 1056 
Q 959 750 1161 570 
Q 1363 391 1709 391 
Q 2188 391 2477 730 
Q 2766 1069 2766 1631 
L 2766 1759 
L 2194 1759 
z
M 3341 1997 
L 3341 0 
L 2766 0 
L 2766 531 
Q 2569 213 2275 61 
Q 1981 -91 1556 -91 
Q 1019 -91 701 211 
Q 384 513 384 1019 
Q 384 1609 779 1909 
Q 1175 2209 1959 2209 
L 2766 2209 
L 2766 2266 
Q 2766 2663 2505 2880 
Q 2244 3097 1772 3097 
Q 1472 3097 1187 3025 
Q 903 2953 641 2809 
L 641 3341 
Q 956 3463 1253 3523 
Q 1550 3584 1831 3584 
Q 2591 3584 2966 3190 
Q 3341 2797 3341 1997 
z
" id="DejaVuSans-61" transform="scale(0.015625)"/>
       <path d="M 1959 3097 
Q 1497 3097 1228 2736 
Q 959 2375 959 1747 
Q 959 1119 1226 758 
Q 1494 397 1959 397 
Q 2419 397 2687 759 
Q 2956 1122 2956 1747 
Q 2956 2369 2687 2733 
Q 2419 3097 1959 3097 
z
M 1959 3584 
Q 2709 3584 3137 3096 
Q 3566 2609 3566 1747 
Q 3566 888 3137 398 
Q 2709 -91 1959 -91 
Q 1206 -91 779 398 
Q 353 888 353 1747 
Q 353 2609 779 3096 
Q 1206 3584 1959 3584 
z
" id="DejaVuSans-6f" transform="scale(0.015625)"/>
       <path d="M 3513 2113 
L 3513 0 
L 2938 0 
L 2938 2094 
Q 2938 2591 2744 2837 
Q 2550 3084 2163 3084 
Q 1697 3084 1428 2787 
Q 1159 2491 1159 1978 
L 1159 0 
L 581 0 
L 581 3500 
L 1159 3500 
L 1159 2956 
Q 1366 3272 1645 3428 
Q 1925 3584 2291 3584 
Q 2894 3584 3203 3211 
Q 3513 2838 3513 2113 
z
" id="DejaVuSans-6e" transform="scale(0.015625)"/>
       <path d="M 2834 3397 
L 2834 2853 
Q 2591 2978 2328 3040 
Q 2066 3103 1784 3103 
Q 1356 3103 1142 2972 
Q 928 2841 928 2578 
Q 928 2378 1081 2264 
Q 1234 2150 1697 2047 
L 1894 2003 
Q 2506 1872 2764 1633 
Q 3022 1394 3022 966 
Q 3022 478 2636 193 
Q 2250 -91 1575 -91 
Q 1294 -91 989 -36 
Q 684 19 347 128 
L 347 722 
Q 666 556 975 473 
Q 1284 391 1588 391 
Q 1994 391 2212 530 
Q 2431 669 2431 922 
Q 2431 1156 2273 1281 
Q 2116 1406 1581 1522 
L 1381 1569 
Q 847 1681 609 1914 
Q 372 2147 372 2553 
Q 372 3047 722 3315 
Q 1072 3584 1716 3584 
Q 2034 3584 2315 3537 
Q 2597 3491 2834 3397 
z
" id="DejaVuSans-73" transform="scale(0.015625)"/>
      </defs>
      <use xlink:href="#DejaVuSans-69"/>
      <use x="27.783203" xlink:href="#DejaVuSans-74"/>
      <use x="66.992188" xlink:href="#DejaVuSans-65"/>
      <use x="128.515625" xlink:href="#DejaVuSans-72"/>
      <use x="169.628906" xlink:href="#DejaVuSans-61"/>
      <use x="230.908203" xlink:href="#DejaVuSans-74"/>
      <use x="270.117188" xlink:href="#DejaVuSans-69"/>
      <use x="297.900391" xlink:href="#DejaVuSans-6f"/>
      <use x="359.082031" xlink:href="#DejaVuSans-6e"/>
      <use x="422.460938" xlink:href="#DejaVuSans-73"/>
     </g>
    </g>
   </g>
   <g id="matplotlib.axis_2">
    <g id="ytick_1">
     <g id="line2d_7">
      <defs>
       <path d="M 0 0 
L -3.5 0 
" id="m1eef77ddd3" style="stroke:#000000;stroke-width:0.8;"/>
      </defs>
      <g>
       <use style="stroke:#000000;stroke-width:0.8;" x="60.2975" xlink:href="#m1eef77ddd3" y="490.933722"/>
      </g>
     </g>
     <g id="text_8">
      <!-- 0 -->
      <g transform="translate(38.0275 500.051847)scale(0.24 -0.24)">
       <use xlink:href="#DejaVuSans-30"/>
      </g>
     </g>
    </g>
    <g id="ytick_2">
     <g id="line2d_8">
      <g>
       <use style="stroke:#000000;stroke-width:0.8;" x="60.2975" xlink:href="#m1eef77ddd3" y="422.035587"/>
      </g>
     </g>
     <g id="text_9">
      <!-- 1 -->
      <g transform="translate(38.0275 431.153712)scale(0.24 -0.24)">
       <use xlink:href="#DejaVuSans-31"/>
      </g>
     </g>
    </g>
    <g id="ytick_3">
     <g id="line2d_9">
      <g>
       <use style="stroke:#000000;stroke-width:0.8;" x="60.2975" xlink:href="#m1eef77ddd3" y="353.137452"/>
      </g>
     </g>
     <g id="text_10">
      <!-- 2 -->
      <g transform="translate(38.0275 362.255577)scale(0.24 -0.24)">
       <use xlink:href="#DejaVuSans-32"/>
      </g>
     </g>
    </g>
    <g id="ytick_4">
     <g id="line2d_10">
      <g>
       <use style="stroke:#000000;stroke-width:0.8;" x="60.2975" xlink:href="#m1eef77ddd3" y="284.239317"/>
      </g>
     </g>
     <g id="text_11">
      <!-- 3 -->
      <g transform="translate(38.0275 293.357442)scale(0.24 -0.24)">
       <use xlink:href="#DejaVuSans-33"/>
      </g>
     </g>
    </g>
    <g id="ytick_5">
     <g id="line2d_11">
      <g>
       <use style="stroke:#000000;stroke-width:0.8;" x="60.2975" xlink:href="#m1eef77ddd3" y="215.341182"/>
      </g>
     </g>
     <g id="text_12">
      <!-- 4 -->
      <g transform="translate(38.0275 224.459307)scale(0.24 -0.24)">
       <use xlink:href="#DejaVuSans-34"/>
      </g>
     </g>
    </g>
    <g id="ytick_6">
     <g id="line2d_12">
      <g>
       <use style="stroke:#000000;stroke-width:0.8;" x="60.2975" xlink:href="#m1eef77ddd3" y="146.443048"/>
      </g>
     </g>
     <g id="text_13">
      <!-- 5 -->
      <g transform="translate(38.0275 155.561173)scale(0.24 -0.24)">
       <use xlink:href="#DejaVuSans-35"/>
      </g>
     </g>
    </g>
    <g id="ytick_7">
     <g id="line2d_13">
      <g>
       <use style="stroke:#000000;stroke-width:0.8;" x="60.2975" xlink:href="#m1eef77ddd3" y="77.544913"/>
      </g>
     </g>
     <g id="text_14">
      <!-- 6 -->
      <g transform="translate(38.0275 86.663038)scale(0.24 -0.24)">
       <defs>
        <path d="M 2113 2584 
Q 1688 2584 1439 2293 
Q 1191 2003 1191 1497 
Q 1191 994 1439 701 
Q 1688 409 2113 409 
Q 2538 409 2786 701 
Q 3034 994 3034 1497 
Q 3034 2003 2786 2293 
Q 2538 2584 2113 2584 
z
M 3366 4563 
L 3366 3988 
Q 3128 4100 2886 4159 
Q 2644 4219 2406 4219 
Q 1781 4219 1451 3797 
Q 1122 3375 1075 2522 
Q 1259 2794 1537 2939 
Q 1816 3084 2150 3084 
Q 2853 3084 3261 2657 
Q 3669 2231 3669 1497 
Q 3669 778 3244 343 
Q 2819 -91 2113 -91 
Q 1303 -91 875 529 
Q 447 1150 447 2328 
Q 447 3434 972 4092 
Q 1497 4750 2381 4750 
Q 2619 4750 2861 4703 
Q 3103 4656 3366 4563 
z
" id="DejaVuSans-36" transform="scale(0.015625)"/>
       </defs>
       <use xlink:href="#DejaVuSans-36"/>
      </g>
     </g>
    </g>
    <g id="text_15">
     <!-- VQE energy -->
     <g transform="translate(29.03625 330.14)rotate(-90)scale(0.24 -0.24)">
      <defs>
       <path d="M 1831 0 
L 50 4666 
L 709 4666 
L 2188 738 
L 3669 4666 
L 4325 4666 
L 2547 0 
L 1831 0 
z
" id="DejaVuSans-56" transform="scale(0.015625)"/>
       <path d="M 2522 4238 
Q 1834 4238 1429 3725 
Q 1025 3213 1025 2328 
Q 1025 1447 1429 934 
Q 1834 422 2522 422 
Q 3209 422 3611 934 
Q 4013 1447 4013 2328 
Q 4013 3213 3611 3725 
Q 3209 4238 2522 4238 
z
M 3406 84 
L 4238 -825 
L 3475 -825 
L 2784 -78 
Q 2681 -84 2626 -87 
Q 2572 -91 2522 -91 
Q 1538 -91 948 567 
Q 359 1225 359 2328 
Q 359 3434 948 4092 
Q 1538 4750 2522 4750 
Q 3503 4750 4090 4092 
Q 4678 3434 4678 2328 
Q 4678 1516 4351 937 
Q 4025 359 3406 84 
z
" id="DejaVuSans-51" transform="scale(0.015625)"/>
       <path d="M 628 4666 
L 3578 4666 
L 3578 4134 
L 1259 4134 
L 1259 2753 
L 3481 2753 
L 3481 2222 
L 1259 2222 
L 1259 531 
L 3634 531 
L 3634 0 
L 628 0 
L 628 4666 
z
" id="DejaVuSans-45" transform="scale(0.015625)"/>
       <path id="DejaVuSans-20" transform="scale(0.015625)"/>
       <path d="M 2906 1791 
Q 2906 2416 2648 2759 
Q 2391 3103 1925 3103 
Q 1463 3103 1205 2759 
Q 947 2416 947 1791 
Q 947 1169 1205 825 
Q 1463 481 1925 481 
Q 2391 481 2648 825 
Q 2906 1169 2906 1791 
z
M 3481 434 
Q 3481 -459 3084 -895 
Q 2688 -1331 1869 -1331 
Q 1566 -1331 1297 -1286 
Q 1028 -1241 775 -1147 
L 775 -588 
Q 1028 -725 1275 -790 
Q 1522 -856 1778 -856 
Q 2344 -856 2625 -561 
Q 2906 -266 2906 331 
L 2906 616 
Q 2728 306 2450 153 
Q 2172 0 1784 0 
Q 1141 0 747 490 
Q 353 981 353 1791 
Q 353 2603 747 3093 
Q 1141 3584 1784 3584 
Q 2172 3584 2450 3431 
Q 2728 3278 2906 2969 
L 2906 3500 
L 3481 3500 
L 3481 434 
z
" id="DejaVuSans-67" transform="scale(0.015625)"/>
       <path d="M 2059 -325 
Q 1816 -950 1584 -1140 
Q 1353 -1331 966 -1331 
L 506 -1331 
L 506 -850 
L 844 -850 
Q 1081 -850 1212 -737 
Q 1344 -625 1503 -206 
L 1606 56 
L 191 3500 
L 800 3500 
L 1894 763 
L 2988 3500 
L 3597 3500 
L 2059 -325 
z
" id="DejaVuSans-79" transform="scale(0.015625)"/>
      </defs>
      <use xlink:href="#DejaVuSans-56"/>
      <use x="68.408203" xlink:href="#DejaVuSans-51"/>
      <use x="147.119141" xlink:href="#DejaVuSans-45"/>
      <use x="210.302734" xlink:href="#DejaVuSans-20"/>
      <use x="242.089844" xlink:href="#DejaVuSans-65"/>
      <use x="303.613281" xlink:href="#DejaVuSans-6e"/>
      <use x="366.992188" xlink:href="#DejaVuSans-65"/>
      <use x="428.515625" xlink:href="#DejaVuSans-72"/>
      <use x="467.878906" xlink:href="#DejaVuSans-67"/>
      <use x="531.355469" xlink:href="#DejaVuSans-79"/>
     </g>
    </g>
   </g>
   <g id="line2d_14">
    <path clip-path="url(#p0dd1092e55)" d="M 60.421172 119.847457 
L 60.544845 45.34637 
L 60.668518 125.948938 
L 60.79219 92.991358 
L 60.915863 129.096526 
L 61.039535 123.17432 
L 61.163207 99.031202 
L 61.28688 133.368987 
L 61.534225 110.36277 
L 61.657897 113.570129 
L 61.78157 106.799258 
L 61.905242 147.706097 
L 62.028915 150.075567 
L 62.152587 139.671069 
L 62.27626 157.65828 
L 62.399932 135.623034 
L 62.523605 159.696044 
L 62.647278 135.700525 
L 62.894622 149.138703 
L 63.018295 157.238758 
L 63.141967 155.805615 
L 63.26564 166.666215 
L 63.389313 164.150734 
L 63.636657 129.476898 
L 63.76033 135.559452 
L 63.884003 152.572818 
L 64.007675 150.751859 
L 64.131348 142.797872 
L 64.502365 216.786229 
L 64.626037 194.70156 
L 64.873383 203.354383 
L 64.997055 240.406176 
L 65.2444 226.927947 
L 65.491745 244.176249 
L 65.615417 183.825257 
L 65.73909 232.17766 
L 65.862763 225.706636 
L 66.110107 194.725992 
L 66.23378 234.512128 
L 66.357452 209.90843 
L 66.604798 248.561864 
L 66.852142 222.931557 
L 66.975815 236.828844 
L 67.099487 216.301233 
L 67.346833 251.540665 
L 67.470505 232.176431 
L 67.594178 282.311447 
L 67.841522 261.515123 
L 67.965195 275.693244 
L 68.088867 252.566316 
L 68.21254 260.558468 
L 68.336213 209.243106 
L 68.459885 265.493133 
L 68.583557 263.402356 
L 68.70723 273.917653 
L 68.830902 265.978099 
L 68.954575 276.290336 
L 69.078248 250.297874 
L 69.325592 291.369803 
L 69.572937 274.631869 
L 69.69661 276.396633 
L 69.820283 288.903296 
L 70.067628 263.686967 
L 70.314972 287.033498 
L 70.438645 284.190229 
L 70.562318 252.122826 
L 70.68599 267.958122 
L 70.809663 268.854581 
L 71.057007 306.293305 
L 71.304352 275.51809 
L 71.551698 291.943944 
L 71.67537 296.515106 
L 71.799042 276.305337 
L 71.922715 295.197694 
L 72.046387 237.022077 
L 72.293733 323.749941 
L 72.417405 313.324316 
L 72.541078 314.392087 
L 72.66475 321.488634 
L 72.788422 314.347727 
L 73.035767 322.575389 
L 73.15944 313.167806 
L 73.283113 317.855825 
L 73.406785 327.020587 
L 73.530457 323.183388 
L 73.777802 338.591739 
L 73.901475 342.766126 
L 74.025148 340.586727 
L 74.14882 328.69669 
L 74.272492 346.70059 
L 74.396165 343.430478 
L 74.519837 345.225124 
L 74.64351 330.757451 
L 74.767183 347.680134 
L 74.890855 330.344739 
L 75.014527 350.298047 
L 75.1382 327.13193 
L 75.261872 348.884588 
L 75.385545 327.621721 
L 75.509218 350.216186 
L 75.63289 337.536031 
L 75.880235 359.477863 
L 76.003907 359.074333 
L 76.12758 348.833512 
L 76.251252 359.518916 
L 76.374925 339.381041 
L 76.498598 357.32984 
L 76.62227 357.280412 
L 76.745942 349.17224 
L 76.869615 360.062521 
L 76.993287 351.541334 
L 77.11696 357.968171 
L 77.240633 358.138807 
L 77.364305 339.221514 
L 77.487977 358.087745 
L 77.61165 352.603797 
L 77.735322 352.845462 
L 77.858995 355.287734 
L 77.982667 362.64923 
L 78.10634 347.430112 
L 78.230013 357.453335 
L 78.353685 349.57525 
L 78.60103 357.743988 
L 78.724703 354.563817 
L 78.972048 361.931374 
L 79.09572 357.482135 
L 79.219392 363.851992 
L 79.343065 360.305479 
L 79.466737 361.236336 
L 79.59041 356.602996 
L 79.714082 363.557185 
L 79.961427 357.832118 
L 80.0851 356.690354 
L 80.208772 359.704186 
L 80.332445 352.740432 
L 80.57979 363.968888 
L 80.703463 362.254583 
L 80.827135 362.982727 
L 80.950807 366.095644 
L 81.198152 363.020194 
L 81.321825 366.499585 
L 81.56917 361.319183 
L 81.816515 368.083566 
L 81.940187 368.499122 
L 82.311205 366.336065 
L 82.55855 370.374226 
L 82.682222 364.580091 
L 82.805895 372.016314 
L 82.929567 372.218601 
L 83.05324 371.54182 
L 83.176913 374.479604 
L 83.300585 374.386491 
L 83.424257 368.135349 
L 83.54793 371.501116 
L 83.671603 378.998725 
L 83.795275 377.374088 
L 83.918948 377.309882 
L 84.289965 374.852945 
L 84.413637 372.444964 
L 84.660983 381.446116 
L 84.784655 378.036319 
L 85.032 381.002068 
L 85.155672 382.769741 
L 85.279345 381.124746 
L 85.403018 382.955853 
L 85.52669 381.110738 
L 85.774035 382.34132 
L 85.897707 383.085253 
L 86.145052 380.91017 
L 86.268725 383.576947 
L 86.392398 382.253959 
L 86.51607 384.459462 
L 86.639742 381.632858 
L 86.763415 383.710845 
L 86.887087 382.865189 
L 87.01076 383.188063 
L 87.134433 380.848972 
L 87.381777 388.479294 
L 87.50545 385.482341 
L 87.629122 389.956621 
L 87.752795 389.77263 
L 87.876467 391.074656 
L 88.00014 389.25809 
L 88.123812 389.725441 
L 88.247485 391.34736 
L 88.49483 388.799413 
L 88.618503 384.672108 
L 88.865848 389.998062 
L 88.98952 389.976681 
L 89.113192 388.110466 
L 89.236865 390.850838 
L 89.360537 389.598893 
L 89.48421 391.865641 
L 89.607883 390.130045 
L 89.731555 391.881427 
L 89.855227 389.12357 
L 89.9789 391.643696 
L 90.102572 391.495517 
L 90.349918 389.445179 
L 90.47359 391.77107 
L 90.597262 385.783296 
L 90.844607 391.687828 
L 90.96828 390.711707 
L 91.091952 393.078111 
L 91.339298 391.96276 
L 91.46297 392.279231 
L 91.586642 386.476565 
L 91.710315 392.053964 
L 91.833987 389.44316 
L 91.95766 391.883327 
L 92.081333 389.95789 
L 92.205005 393.423359 
L 92.328677 392.116466 
L 92.45235 392.93888 
L 92.576022 390.572991 
L 92.699695 393.603714 
L 92.823367 391.972665 
L 92.94704 392.761793 
L 93.070712 389.443593 
L 93.194385 393.949927 
L 93.318057 392.515599 
L 93.44173 392.910865 
L 93.565403 392.783129 
L 93.812748 394.265651 
L 93.93642 394.299522 
L 94.183765 395.427841 
L 94.43111 395.099236 
L 94.554782 395.080727 
L 94.678455 393.885905 
L 94.802127 395.414501 
L 94.9258 394.257466 
L 95.049473 394.819647 
L 95.173145 393.939562 
L 95.296818 395.01683 
L 95.42049 394.07331 
L 95.667835 395.820737 
L 95.791507 395.441008 
L 95.91518 395.796056 
L 96.038852 395.748419 
L 96.162525 394.192114 
L 96.286198 395.110537 
L 96.40987 397.165521 
L 96.657215 397.248047 
L 96.780888 396.46081 
L 96.90456 397.334518 
L 97.028233 397.103808 
L 97.151905 397.443516 
L 97.275577 396.569618 
L 97.39925 397.627545 
L 97.522922 396.513147 
L 97.770267 398.089656 
L 97.89394 398.278749 
L 98.017612 397.304838 
L 98.264957 398.644374 
L 98.512303 397.912111 
L 98.635975 398.296448 
L 98.759647 397.609864 
L 99.006992 398.401713 
L 99.254337 397.941291 
L 99.37801 397.783787 
L 99.501682 398.761827 
L 99.749027 398.038473 
L 99.8727 398.593011 
L 100.120045 398.585614 
L 100.243718 397.67429 
L 100.491062 398.924275 
L 100.614735 398.482259 
L 100.86208 399.303882 
L 100.985752 398.069679 
L 101.233097 399.817894 
L 101.35677 399.853619 
L 101.480442 399.321307 
L 101.727788 399.817598 
L 101.85146 399.727726 
L 101.975133 399.886422 
L 102.098805 399.605179 
L 102.222477 398.91737 
L 102.34615 399.78012 
L 102.469822 399.068858 
L 102.593495 399.98264 
L 102.717167 399.226574 
L 102.84084 400.084371 
L 102.964512 399.804054 
L 103.088185 399.940909 
L 103.211857 400.513443 
L 103.33553 400.408265 
L 103.459203 398.842345 
L 103.582875 400.290265 
L 103.706547 399.876474 
L 103.83022 400.407447 
L 104.077565 400.228364 
L 104.201237 399.357231 
L 104.32491 400.64871 
L 104.572255 400.622221 
L 104.695927 400.129172 
L 104.8196 400.345799 
L 104.943273 401.077804 
L 105.066945 401.048379 
L 105.190618 399.015003 
L 105.31429 400.799392 
L 105.437962 400.390816 
L 105.561635 400.631768 
L 105.685307 400.040493 
L 105.80898 401.319029 
L 105.932652 400.692571 
L 106.056325 401.144073 
L 106.179997 401.154423 
L 106.30367 401.017063 
L 106.551015 401.487012 
L 106.674688 400.321734 
L 106.79836 401.062622 
L 106.922033 400.640798 
L 107.045705 401.082202 
L 107.169377 400.637067 
L 107.29305 401.373751 
L 107.416722 401.268434 
L 107.540395 401.548476 
L 107.664067 400.351986 
L 107.78774 401.292568 
L 107.911412 400.851458 
L 108.035085 401.523479 
L 108.158757 400.881597 
L 108.28243 401.629551 
L 108.406103 400.359737 
L 108.529775 401.301639 
L 108.653447 401.275775 
L 108.77712 401.402438 
L 108.900792 400.773144 
L 109.024465 401.305898 
L 109.148137 400.830035 
L 109.27181 401.460314 
L 109.395482 401.262975 
L 109.519155 401.791245 
L 109.642827 401.297945 
L 109.7665 401.634185 
L 109.890173 400.978141 
L 110.137518 401.785864 
L 110.26119 401.52813 
L 110.384862 401.743874 
L 110.508535 401.572281 
L 110.632207 401.863803 
L 110.879552 401.764458 
L 111.003225 401.668764 
L 111.374242 401.914615 
L 111.497915 401.84213 
L 111.621588 402.01781 
L 111.74526 401.678778 
L 111.868932 401.932737 
L 111.992605 401.692232 
L 112.116277 402.103557 
L 112.23995 401.885572 
L 112.487295 402.244079 
L 112.610967 402.227772 
L 112.73464 401.872207 
L 112.858312 402.186984 
L 112.981985 402.016267 
L 113.105657 402.105971 
L 113.22933 401.817999 
L 113.353003 402.379384 
L 113.847692 402.197016 
L 114.095037 402.345493 
L 114.7134 402.208392 
L 114.837073 402.360876 
L 114.960745 402.123981 
L 115.084418 402.395901 
L 115.20809 402.328495 
L 115.455435 402.431136 
L 115.579107 402.354076 
L 115.826452 402.466127 
L 116.568488 402.53254 
L 117.434195 402.594416 
L 117.68154 402.52531 
L 118.052557 402.698544 
L 118.17623 402.639893 
L 118.547247 402.848698 
L 119.041937 402.827873 
L 119.536627 402.895768 
L 120.15499 402.855308 
L 120.278662 402.901953 
L 120.402335 402.822811 
L 120.526007 402.880771 
L 120.64968 402.759265 
L 120.897025 402.833309 
L 121.63906 402.984802 
L 122.13375 402.863702 
L 122.257422 403.000592 
L 122.381095 402.880496 
L 122.875785 403.078181 
L 123.246803 403.036338 
L 126.462287 403.072248 
L 126.58596 403.038941 
L 126.709632 403.125814 
L 126.956977 403.095696 
L 127.327995 403.148471 
L 128.193703 403.095973 
L 128.441047 403.147323 
L 128.688392 403.141812 
L 129.183083 403.167938 
L 129.677773 403.104451 
L 130.419807 403.193 
L 130.667152 403.168229 
L 134.377327 403.293487 
L 134.501 403.176177 
L 134.872017 403.348494 
L 135.119362 403.31984 
L 135.366707 403.365125 
L 137.46914 403.398595 
L 137.840157 403.42891 
L 167.397885 404.045371 
L 169.62399 404.050711 
L 171.60275 404.073611 
L 177.415357 404.133764 
L 179.51779 404.155381 
L 228.368427 404.28705 
L 242.961782 404.309249 
L 307.518827 404.367019 
L 505.5185 404.559169 
L 518.627785 404.577832 
L 537.054987 404.60685 
L 583.555848 404.705069 
L 598.02553 404.74575 
L 645.639442 404.930841 
L 678.783672 405.15114 
L 678.783672 405.15114 
" style="fill:none;stroke:#1f77b4;stroke-linecap:square;stroke-width:3;"/>
   </g>
   <g id="line2d_15">
    <path clip-path="url(#p0dd1092e55)" d="M 60.421172 33.388409 
L 64.873383 33.388409 
L 64.997055 171.725049 
L 69.449265 171.725049 
L 69.572937 244.662649 
L 74.025148 244.662649 
L 74.14882 303.208344 
L 78.60103 303.208344 
L 78.724703 326.301249 
L 83.176913 326.301249 
L 83.300585 342.252465 
L 87.752795 342.252465 
L 87.876467 365.412493 
L 92.328677 365.412493 
L 92.45235 369.370001 
L 96.90456 369.370001 
L 97.028233 385.399967 
L 101.480442 385.399967 
L 101.604115 389.392767 
L 106.056325 389.392767 
L 106.179997 390.853005 
L 110.632207 390.853005 
L 110.75588 392.115911 
L 115.20809 392.115912 
L 115.331762 392.896977 
L 119.783973 392.896977 
L 119.907645 393.230843 
L 124.359855 393.230843 
L 124.6072 393.413641 
L 128.935737 393.413641 
L 129.05941 393.711033 
L 133.51162 393.711033 
L 133.635292 394.152475 
L 138.087502 394.152475 
L 138.211175 394.668307 
L 142.663385 394.668307 
L 142.91073 394.908967 
L 147.36294 394.859096 
L 147.610285 395.062837 
L 151.938822 395.062837 
L 152.186168 395.241057 
L 156.514705 395.241057 
L 156.638377 395.91526 
L 161.090587 395.91526 
L 161.21426 393.969226 
L 161.337932 396.687054 
L 165.790143 396.687054 
L 165.913815 390.512453 
L 166.037487 397.219255 
L 170.61337 397.261067 
L 170.737042 398.211679 
L 175.189253 398.211679 
L 175.312925 400.159267 
L 179.765135 400.159267 
L 179.888807 402.650408 
L 184.341017 402.650408 
L 184.46469 402.490424 
L 184.588362 404.130739 
L 189.040572 404.130739 
L 189.164245 404.31471 
L 189.287917 404.749681 
L 193.740127 404.749681 
L 193.987472 404.885564 
L 198.31601 404.885564 
L 198.439683 405.157532 
L 202.891892 405.157532 
L 203.139237 405.399433 
L 207.467775 405.399433 
L 207.591448 405.807561 
L 212.043657 405.807561 
L 212.16733 406.07608 
L 216.61954 406.07608 
L 216.743212 406.341276 
L 221.195423 406.341276 
L 221.442768 406.51284 
L 225.771305 406.51284 
L 226.01865 406.675232 
L 230.347187 406.675232 
L 230.594533 406.864313 
L 234.92307 406.864313 
L 235.170415 407.107231 
L 239.498952 407.107231 
L 239.746297 407.297363 
L 244.074835 407.297363 
L 244.32218 407.457607 
L 248.650717 407.457607 
L 248.898062 407.598993 
L 253.2266 407.598993 
L 253.473945 407.833691 
L 257.802482 407.833691 
L 257.926155 408.155076 
L 262.378365 408.155076 
L 262.62571 408.384834 
L 271.53013 408.472104 
L 272.02482 408.501956 
L 289.83366 408.604148 
L 290.204678 408.6574 
L 298.985425 408.70722 
L 299.23277 408.7809 
L 303.561307 408.7809 
L 303.808652 409.030781 
L 308.13719 409.030781 
L 308.260862 408.898299 
L 308.384535 409.401842 
L 312.836745 409.401842 
L 312.960418 390.550967 
L 313.08409 409.59433 
L 317.5363 409.59433 
L 317.659972 409.894848 
L 322.112183 409.894848 
L 322.235855 410.507346 
L 326.688065 410.507346 
L 326.811737 409.692087 
L 326.93541 411.072995 
L 331.38762 411.072995 
L 331.511292 411.384752 
L 335.963503 411.384752 
L 336.087175 407.064551 
L 336.210847 412.376838 
L 340.663057 412.376838 
L 340.78673 410.938537 
L 340.910402 413.175731 
L 345.362613 413.175731 
L 345.486285 413.435342 
L 349.938495 413.435342 
L 350.062167 414.322527 
L 354.514377 414.322527 
L 354.63805 414.921804 
L 359.09026 414.921804 
L 359.337605 415.095379 
L 363.666142 415.095379 
L 363.913487 415.235638 
L 400.520547 415.326139 
L 400.520547 415.326139 
" style="fill:none;stroke:#ff7f0e;stroke-linecap:square;stroke-width:3;"/>
   </g>
   <g id="line2d_16">
    <path clip-path="url(#p0dd1092e55)" d="M 60.421172 33.388409 
L 64.873383 33.388409 
L 64.997055 171.725032 
L 69.449265 171.725032 
L 69.572937 237.507523 
L 74.025148 237.507522 
L 74.14882 292.751709 
L 78.60103 292.751709 
L 78.724703 318.276005 
L 83.176913 318.276005 
L 83.300585 331.997333 
L 87.752795 331.997333 
L 87.876467 346.149121 
L 92.328677 346.149121 
L 92.45235 362.067402 
L 96.90456 362.067402 
L 97.028233 377.129774 
L 101.480442 377.129774 
L 101.604115 383.068702 
L 106.056325 383.068702 
L 106.179997 385.773525 
L 110.632207 385.773525 
L 110.75588 387.682803 
L 115.20809 387.682804 
L 115.331762 389.286164 
L 119.783973 389.286164 
L 119.907645 390.718617 
L 124.359855 390.718617 
L 124.483527 391.974209 
L 128.935737 391.974209 
L 129.05941 393.294323 
L 133.51162 393.294323 
L 133.635292 393.786848 
L 138.087502 393.786848 
L 138.334847 393.964668 
L 142.663385 393.964668 
L 142.91073 394.07605 
L 147.239267 394.07605 
L 147.486612 394.247302 
L 151.81515 394.247302 
L 152.062495 394.370276 
L 170.11868 394.467487 
L 170.489697 394.510024 
L 179.270445 394.602465 
L 179.51779 394.691562 
L 197.573975 394.769713 
L 197.944993 394.82203 
L 206.72574 394.867892 
L 206.973085 394.950393 
L 211.301623 394.950393 
L 211.425295 380.797279 
L 215.877505 380.797279 
L 216.001177 395.005096 
L 220.453387 395.005096 
L 220.57706 348.030668 
L 225.02927 348.030668 
L 225.152942 395.005547 
L 229.605152 395.005547 
L 229.728825 353.607672 
L 234.181035 353.607672 
L 234.304708 395.005798 
L 238.756917 395.005798 
L 238.88059 357.17694 
L 243.3328 357.17694 
L 243.456472 395.005927 
L 247.908682 395.005927 
L 248.032355 364.412657 
L 252.484565 364.412657 
L 252.608237 395.006019 
L 257.060448 395.006019 
L 257.18412 375.863649 
L 261.63633 375.863649 
L 261.760002 395.006136 
L 266.212212 395.006136 
L 266.335885 378.526709 
L 270.788095 378.526709 
L 270.911767 395.006158 
L 275.363977 395.006158 
L 275.48765 387.88887 
L 279.93986 387.88887 
L 280.063533 395.007766 
L 284.515742 395.007766 
L 284.639415 391.21498 
L 289.091625 391.21498 
L 289.215297 395.009278 
L 293.667507 395.009278 
L 293.79118 393.170886 
L 298.24339 393.170886 
L 298.367062 395.010858 
L 302.819272 395.010858 
L 303.066618 395.263297 
L 311.971037 395.319926 
L 312.218382 395.547153 
L 316.54692 395.547153 
L 316.670592 396.440866 
L 325.698685 396.380398 
L 325.822358 397.628481 
L 330.274567 397.628481 
L 330.521912 397.775683 
L 334.85045 397.775683 
L 334.974123 398.367385 
L 339.426333 398.367385 
L 339.550005 320.922075 
L 344.002215 320.922075 
L 344.125887 399.38215 
L 348.578098 399.38215 
L 348.70177 397.749086 
L 353.15398 397.749086 
L 353.277652 402.364535 
L 357.729862 402.364535 
L 357.853535 286.166149 
L 362.305745 286.166149 
L 362.429417 402.604829 
L 366.881627 402.604829 
L 367.0053 403.720265 
L 371.45751 403.720265 
L 371.581183 404.247873 
L 376.033392 404.247873 
L 376.157065 404.800847 
L 380.609275 404.800847 
L 380.732947 405.28523 
L 385.185158 405.28523 
L 385.30883 405.650217 
L 389.76104 405.650217 
L 389.884712 405.927213 
L 394.336923 405.927213 
L 394.584268 406.048044 
L 412.640452 406.147561 
L 413.01147 406.19416 
L 421.792217 406.248599 
L 422.039562 406.325641 
L 426.3681 406.325641 
L 426.615445 406.557507 
L 430.943983 406.557507 
L 431.067655 406.817177 
L 435.519865 406.817177 
L 435.76721 407.023119 
L 440.095747 407.023119 
L 440.343093 407.255245 
L 444.67163 407.255245 
L 444.918975 407.446266 
L 449.247512 407.446266 
L 449.494857 407.578658 
L 453.823395 407.578658 
L 454.07074 407.774033 
L 458.399277 407.774033 
L 458.646622 408.003525 
L 462.97516 408.003525 
L 463.098832 408.278943 
L 467.551042 408.278943 
L 467.798387 408.409628 
L 495.006337 408.514388 
L 495.501027 408.547359 
L 504.158102 408.593335 
L 504.405447 408.668522 
L 513.309867 408.775245 
L 513.43354 364.812347 
L 517.88575 364.812347 
L 518.009422 408.798218 
L 522.461632 408.798218 
L 522.585305 358.646959 
L 527.037515 358.646959 
L 527.161187 408.798223 
L 536.18928 408.849026 
L 536.312952 280.000742 
L 540.765162 280.000742 
L 540.888835 408.871128 
L 545.341045 408.871128 
L 545.464717 214.051785 
L 549.916927 214.051785 
L 550.0406 408.871138 
L 554.49281 408.871138 
L 554.616482 218.280787 
L 559.068692 218.280787 
L 559.192365 408.871154 
L 568.220457 408.960284 
L 568.34413 141.978123 
L 572.79634 141.978123 
L 572.920012 408.973018 
L 577.372223 408.973018 
L 577.495895 122.624193 
L 581.948105 122.624193 
L 582.071777 408.973069 
L 591.09987 409.048367 
L 591.223543 405.332378 
L 595.675752 405.332378 
L 595.799425 409.762719 
L 600.251635 409.762719 
L 600.375307 328.84133 
L 604.827517 328.84133 
L 604.95119 409.848886 
L 609.4034 409.848886 
L 609.650745 409.67072 
L 613.979282 409.67072 
L 614.102955 410.256258 
L 618.555165 410.256258 
L 618.678837 410.749751 
L 623.131048 410.749751 
L 623.25472 411.709455 
L 627.70693 411.709455 
L 627.830602 412.233285 
L 632.282812 412.233285 
L 632.406485 413.024325 
L 636.858695 413.024325 
L 636.982368 413.520885 
L 641.434577 413.520885 
L 641.55825 413.003377 
L 646.01046 413.003377 
L 646.134132 414.46995 
L 650.586343 414.46995 
L 650.710015 414.941172 
L 655.162225 414.941172 
L 655.40957 415.162546 
L 664.31399 415.259443 
L 664.685007 415.299901 
L 678.783672 415.324248 
L 678.783672 415.324248 
" style="fill:none;stroke:#2ca02c;stroke-linecap:square;stroke-width:3;"/>
   </g>
   <g id="line2d_17">
    <path clip-path="url(#p0dd1092e55)" d="M 60.2975 485.156591 
L 678.66 485.156591 
" style="fill:none;stroke:#000000;stroke-dasharray:7.4,3.2;stroke-dashoffset:0;stroke-width:2;"/>
   </g>
   <g id="patch_3">
    <path d="M 60.2975 507.745 
L 60.2975 10.8 
" style="fill:none;stroke:#000000;stroke-linecap:square;stroke-linejoin:miter;stroke-width:0.8;"/>
   </g>
   <g id="patch_4">
    <path d="M 678.66 507.745 
L 678.66 10.8 
" style="fill:none;stroke:#000000;stroke-linecap:square;stroke-linejoin:miter;stroke-width:0.8;"/>
   </g>
   <g id="patch_5">
    <path d="M 60.2975 507.745 
L 678.66 507.745 
" style="fill:none;stroke:#000000;stroke-linecap:square;stroke-linejoin:miter;stroke-width:0.8;"/>
   </g>
   <g id="patch_6">
    <path d="M 60.2975 10.8 
L 678.66 10.8 
" style="fill:none;stroke:#000000;stroke-linecap:square;stroke-linejoin:miter;stroke-width:0.8;"/>
   </g>
   <g id="legend_1">
    <g id="patch_7">
     <path d="M 475.96125 170.91 
L 661.86 170.91 
Q 666.66 170.91 666.66 166.11 
L 666.66 27.6 
Q 666.66 22.8 661.86 22.8 
L 475.96125 22.8 
Q 471.16125 22.8 471.16125 27.6 
L 471.16125 166.11 
Q 471.16125 170.91 475.96125 170.91 
z
" style="fill:#ffffff;opacity:0.8;stroke:#cccccc;stroke-linejoin:miter;"/>
    </g>
    <g id="line2d_18">
     <path d="M 480.76125 42.23625 
L 528.76125 42.23625 
" style="fill:none;stroke:#1f77b4;stroke-linecap:square;stroke-width:3;"/>
    </g>
    <g id="line2d_19"/>
    <g id="text_16">
     <!-- COBYLA -->
     <g transform="translate(547.96125 50.63625)scale(0.24 -0.24)">
      <defs>
       <path d="M 4122 4306 
L 4122 3641 
Q 3803 3938 3442 4084 
Q 3081 4231 2675 4231 
Q 1875 4231 1450 3742 
Q 1025 3253 1025 2328 
Q 1025 1406 1450 917 
Q 1875 428 2675 428 
Q 3081 428 3442 575 
Q 3803 722 4122 1019 
L 4122 359 
Q 3791 134 3420 21 
Q 3050 -91 2638 -91 
Q 1578 -91 968 557 
Q 359 1206 359 2328 
Q 359 3453 968 4101 
Q 1578 4750 2638 4750 
Q 3056 4750 3426 4639 
Q 3797 4528 4122 4306 
z
" id="DejaVuSans-43" transform="scale(0.015625)"/>
       <path d="M 2522 4238 
Q 1834 4238 1429 3725 
Q 1025 3213 1025 2328 
Q 1025 1447 1429 934 
Q 1834 422 2522 422 
Q 3209 422 3611 934 
Q 4013 1447 4013 2328 
Q 4013 3213 3611 3725 
Q 3209 4238 2522 4238 
z
M 2522 4750 
Q 3503 4750 4090 4092 
Q 4678 3434 4678 2328 
Q 4678 1225 4090 567 
Q 3503 -91 2522 -91 
Q 1538 -91 948 565 
Q 359 1222 359 2328 
Q 359 3434 948 4092 
Q 1538 4750 2522 4750 
z
" id="DejaVuSans-4f" transform="scale(0.015625)"/>
       <path d="M 1259 2228 
L 1259 519 
L 2272 519 
Q 2781 519 3026 730 
Q 3272 941 3272 1375 
Q 3272 1813 3026 2020 
Q 2781 2228 2272 2228 
L 1259 2228 
z
M 1259 4147 
L 1259 2741 
L 2194 2741 
Q 2656 2741 2882 2914 
Q 3109 3088 3109 3444 
Q 3109 3797 2882 3972 
Q 2656 4147 2194 4147 
L 1259 4147 
z
M 628 4666 
L 2241 4666 
Q 2963 4666 3353 4366 
Q 3744 4066 3744 3513 
Q 3744 3084 3544 2831 
Q 3344 2578 2956 2516 
Q 3422 2416 3680 2098 
Q 3938 1781 3938 1306 
Q 3938 681 3513 340 
Q 3088 0 2303 0 
L 628 0 
L 628 4666 
z
" id="DejaVuSans-42" transform="scale(0.015625)"/>
       <path d="M -13 4666 
L 666 4666 
L 1959 2747 
L 3244 4666 
L 3922 4666 
L 2272 2222 
L 2272 0 
L 1638 0 
L 1638 2222 
L -13 4666 
z
" id="DejaVuSans-59" transform="scale(0.015625)"/>
       <path d="M 628 4666 
L 1259 4666 
L 1259 531 
L 3531 531 
L 3531 0 
L 628 0 
L 628 4666 
z
" id="DejaVuSans-4c" transform="scale(0.015625)"/>
       <path d="M 2188 4044 
L 1331 1722 
L 3047 1722 
L 2188 4044 
z
M 1831 4666 
L 2547 4666 
L 4325 0 
L 3669 0 
L 3244 1197 
L 1141 1197 
L 716 0 
L 50 0 
L 1831 4666 
z
" id="DejaVuSans-41" transform="scale(0.015625)"/>
      </defs>
      <use xlink:href="#DejaVuSans-43"/>
      <use x="69.824219" xlink:href="#DejaVuSans-4f"/>
      <use x="148.535156" xlink:href="#DejaVuSans-42"/>
      <use x="211.638672" xlink:href="#DejaVuSans-59"/>
      <use x="272.722656" xlink:href="#DejaVuSans-4c"/>
      <use x="330.685547" xlink:href="#DejaVuSans-41"/>
     </g>
    </g>
    <g id="line2d_20">
     <path d="M 480.76125 77.46375 
L 528.76125 77.46375 
" style="fill:none;stroke:#ff7f0e;stroke-linecap:square;stroke-width:3;"/>
    </g>
    <g id="line2d_21"/>
    <g id="text_17">
     <!-- SLSQP -->
     <g transform="translate(547.96125 85.86375)scale(0.24 -0.24)">
      <defs>
       <path d="M 3425 4513 
L 3425 3897 
Q 3066 4069 2747 4153 
Q 2428 4238 2131 4238 
Q 1616 4238 1336 4038 
Q 1056 3838 1056 3469 
Q 1056 3159 1242 3001 
Q 1428 2844 1947 2747 
L 2328 2669 
Q 3034 2534 3370 2195 
Q 3706 1856 3706 1288 
Q 3706 609 3251 259 
Q 2797 -91 1919 -91 
Q 1588 -91 1214 -16 
Q 841 59 441 206 
L 441 856 
Q 825 641 1194 531 
Q 1563 422 1919 422 
Q 2459 422 2753 634 
Q 3047 847 3047 1241 
Q 3047 1584 2836 1778 
Q 2625 1972 2144 2069 
L 1759 2144 
Q 1053 2284 737 2584 
Q 422 2884 422 3419 
Q 422 4038 858 4394 
Q 1294 4750 2059 4750 
Q 2388 4750 2728 4690 
Q 3069 4631 3425 4513 
z
" id="DejaVuSans-53" transform="scale(0.015625)"/>
       <path d="M 1259 4147 
L 1259 2394 
L 2053 2394 
Q 2494 2394 2734 2622 
Q 2975 2850 2975 3272 
Q 2975 3691 2734 3919 
Q 2494 4147 2053 4147 
L 1259 4147 
z
M 628 4666 
L 2053 4666 
Q 2838 4666 3239 4311 
Q 3641 3956 3641 3272 
Q 3641 2581 3239 2228 
Q 2838 1875 2053 1875 
L 1259 1875 
L 1259 0 
L 628 0 
L 628 4666 
z
" id="DejaVuSans-50" transform="scale(0.015625)"/>
      </defs>
      <use xlink:href="#DejaVuSans-53"/>
      <use x="63.476562" xlink:href="#DejaVuSans-4c"/>
      <use x="119.189453" xlink:href="#DejaVuSans-53"/>
      <use x="182.666016" xlink:href="#DejaVuSans-51"/>
      <use x="261.376953" xlink:href="#DejaVuSans-50"/>
     </g>
    </g>
    <g id="line2d_22">
     <path d="M 480.76125 112.69125 
L 528.76125 112.69125 
" style="fill:none;stroke:#2ca02c;stroke-linecap:square;stroke-width:3;"/>
    </g>
    <g id="line2d_23"/>
    <g id="text_18">
     <!-- L-BFGS-B -->
     <g transform="translate(547.96125 121.09125)scale(0.24 -0.24)">
      <defs>
       <path d="M 313 2009 
L 1997 2009 
L 1997 1497 
L 313 1497 
L 313 2009 
z
" id="DejaVuSans-2d" transform="scale(0.015625)"/>
       <path d="M 628 4666 
L 3309 4666 
L 3309 4134 
L 1259 4134 
L 1259 2759 
L 3109 2759 
L 3109 2228 
L 1259 2228 
L 1259 0 
L 628 0 
L 628 4666 
z
" id="DejaVuSans-46" transform="scale(0.015625)"/>
       <path d="M 3809 666 
L 3809 1919 
L 2778 1919 
L 2778 2438 
L 4434 2438 
L 4434 434 
Q 4069 175 3628 42 
Q 3188 -91 2688 -91 
Q 1594 -91 976 548 
Q 359 1188 359 2328 
Q 359 3472 976 4111 
Q 1594 4750 2688 4750 
Q 3144 4750 3555 4637 
Q 3966 4525 4313 4306 
L 4313 3634 
Q 3963 3931 3569 4081 
Q 3175 4231 2741 4231 
Q 1884 4231 1454 3753 
Q 1025 3275 1025 2328 
Q 1025 1384 1454 906 
Q 1884 428 2741 428 
Q 3075 428 3337 486 
Q 3600 544 3809 666 
z
" id="DejaVuSans-47" transform="scale(0.015625)"/>
      </defs>
      <use xlink:href="#DejaVuSans-4c"/>
      <use x="53.962891" xlink:href="#DejaVuSans-2d"/>
      <use x="86.421875" xlink:href="#DejaVuSans-42"/>
      <use x="155.025391" xlink:href="#DejaVuSans-46"/>
      <use x="212.544922" xlink:href="#DejaVuSans-47"/>
      <use x="290.035156" xlink:href="#DejaVuSans-53"/>
      <use x="353.511719" xlink:href="#DejaVuSans-2d"/>
      <use x="385.970703" xlink:href="#DejaVuSans-42"/>
     </g>
    </g>
    <g id="line2d_24">
     <path d="M 480.76125 147.91875 
L 528.76125 147.91875 
" style="fill:none;stroke:#000000;stroke-dasharray:7.4,3.2;stroke-dashoffset:0;stroke-width:2;"/>
    </g>
    <g id="line2d_25"/>
    <g id="text_19">
     <!-- HT -->
     <g transform="translate(547.96125 156.31875)scale(0.24 -0.24)">
      <defs>
       <path d="M 628 4666 
L 1259 4666 
L 1259 2753 
L 3553 2753 
L 3553 4666 
L 4184 4666 
L 4184 0 
L 3553 0 
L 3553 2222 
L 1259 2222 
L 1259 0 
L 628 0 
L 628 4666 
z
" id="DejaVuSans-48" transform="scale(0.015625)"/>
       <path d="M -19 4666 
L 3928 4666 
L 3928 4134 
L 2272 4134 
L 2272 0 
L 1638 0 
L 1638 4134 
L -19 4134 
L -19 4666 
z
" id="DejaVuSans-54" transform="scale(0.015625)"/>
      </defs>
      <use xlink:href="#DejaVuSans-48"/>
      <use x="75.195312" xlink:href="#DejaVuSans-54"/>
     </g>
    </g>
   </g>
  </g>
 </g>
 <defs>
  <clipPath id="p0dd1092e55">
   <rect height="496.945" width="618.3625" x="60.2975" y="10.8"/>
  </clipPath>
 </defs>
</svg>
