<?xml version="1.0" encoding="utf-8" standalone="no"?>
<!DOCTYPE svg PUBLIC "-//W3C//DTD SVG 1.1//EN"
  "http://www.w3.org/Graphics/SVG/1.1/DTD/svg11.dtd">
<svg height="576pt" version="1.1" viewBox="0 0 720 576" width="720pt" xmlns="http://www.w3.org/2000/svg" xmlns:xlink="http://www.w3.org/1999/xlink">
 <metadata>
  <rdf:RDF xmlns:cc="http://creativecommons.org/ns#" xmlns:dc="http://purl.org/dc/elements/1.1/" xmlns:rdf="http://www.w3.org/1999/02/22-rdf-syntax-ns#">
   <cc:Work>
    <dc:type rdf:resource="http://purl.org/dc/dcmitype/StillImage"/>
    <dc:date>2021-07-28T09:29:51.557595</dc:date>
    <dc:format>image/svg+xml</dc:format>
    <dc:creator>
     <cc:Agent>
      <dc:title>Matplotlib v3.4.2, https://matplotlib.org/</dc:title>
     </cc:Agent>
    </dc:creator>
   </cc:Work>
  </rdf:RDF>
 </metadata>
 <defs>
  <style type="text/css">*{stroke-linecap:butt;stroke-linejoin:round;}</style>
 </defs>
 <g id="figure_1">
  <g id="patch_1">
   <path d="M 0 576 
L 720 576 
L 720 0 
L 0 0 
z
" style="fill:#ffffff;"/>
  </g>
  <g id="axes_1">
   <g id="patch_2">
    <path d="M 60.2975 507.745 
L 678.66 507.745 
L 678.66 10.8 
L 60.2975 10.8 
z
" style="fill:#ffffff;"/>
   </g>
   <g id="matplotlib.axis_1">
    <g id="xtick_1">
     <g id="line2d_1">
      <defs>
       <path d="M 0 0 
L 0 3.5 
" id="m87bcfb90ec" style="stroke:#000000;stroke-width:0.8;"/>
      </defs>
      <g>
       <use style="stroke:#000000;stroke-width:0.8;" x="60.2975" xlink:href="#m87bcfb90ec" y="507.745"/>
      </g>
     </g>
     <g id="text_1">
      <!-- 0 -->
      <g transform="translate(52.6625 532.98125)scale(0.24 -0.24)">
       <defs>
        <path d="M 2034 4250 
Q 1547 4250 1301 3770 
Q 1056 3291 1056 2328 
Q 1056 1369 1301 889 
Q 1547 409 2034 409 
Q 2525 409 2770 889 
Q 3016 1369 3016 2328 
Q 3016 3291 2770 3770 
Q 2525 4250 2034 4250 
z
M 2034 4750 
Q 2819 4750 3233 4129 
Q 3647 3509 3647 2328 
Q 3647 1150 3233 529 
Q 2819 -91 2034 -91 
Q 1250 -91 836 529 
Q 422 1150 422 2328 
Q 422 3509 836 4129 
Q 1250 4750 2034 4750 
z
" id="DejaVuSans-30" transform="scale(0.015625)"/>
       </defs>
       <use xlink:href="#DejaVuSans-30"/>
      </g>
     </g>
    </g>
    <g id="xtick_2">
     <g id="line2d_2">
      <g>
       <use style="stroke:#000000;stroke-width:0.8;" x="183.97" xlink:href="#m87bcfb90ec" y="507.745"/>
      </g>
     </g>
     <g id="text_2">
      <!-- 1000 -->
      <g transform="translate(153.43 532.98125)scale(0.24 -0.24)">
       <defs>
        <path d="M 794 531 
L 1825 531 
L 1825 4091 
L 703 3866 
L 703 4441 
L 1819 4666 
L 2450 4666 
L 2450 531 
L 3481 531 
L 3481 0 
L 794 0 
L 794 531 
z
" id="DejaVuSans-31" transform="scale(0.015625)"/>
       </defs>
       <use xlink:href="#DejaVuSans-31"/>
       <use x="63.623047" xlink:href="#DejaVuSans-30"/>
       <use x="127.246094" xlink:href="#DejaVuSans-30"/>
       <use x="190.869141" xlink:href="#DejaVuSans-30"/>
      </g>
     </g>
    </g>
    <g id="xtick_3">
     <g id="line2d_3">
      <g>
       <use style="stroke:#000000;stroke-width:0.8;" x="307.6425" xlink:href="#m87bcfb90ec" y="507.745"/>
      </g>
     </g>
     <g id="text_3">
      <!-- 2000 -->
      <g transform="translate(277.1025 532.98125)scale(0.24 -0.24)">
       <defs>
        <path d="M 1228 531 
L 3431 531 
L 3431 0 
L 469 0 
L 469 531 
Q 828 903 1448 1529 
Q 2069 2156 2228 2338 
Q 2531 2678 2651 2914 
Q 2772 3150 2772 3378 
Q 2772 3750 2511 3984 
Q 2250 4219 1831 4219 
Q 1534 4219 1204 4116 
Q 875 4013 500 3803 
L 500 4441 
Q 881 4594 1212 4672 
Q 1544 4750 1819 4750 
Q 2544 4750 2975 4387 
Q 3406 4025 3406 3419 
Q 3406 3131 3298 2873 
Q 3191 2616 2906 2266 
Q 2828 2175 2409 1742 
Q 1991 1309 1228 531 
z
" id="DejaVuSans-32" transform="scale(0.015625)"/>
       </defs>
       <use xlink:href="#DejaVuSans-32"/>
       <use x="63.623047" xlink:href="#DejaVuSans-30"/>
       <use x="127.246094" xlink:href="#DejaVuSans-30"/>
       <use x="190.869141" xlink:href="#DejaVuSans-30"/>
      </g>
     </g>
    </g>
    <g id="xtick_4">
     <g id="line2d_4">
      <g>
       <use style="stroke:#000000;stroke-width:0.8;" x="431.315" xlink:href="#m87bcfb90ec" y="507.745"/>
      </g>
     </g>
     <g id="text_4">
      <!-- 3000 -->
      <g transform="translate(400.775 532.98125)scale(0.24 -0.24)">
       <defs>
        <path d="M 2597 2516 
Q 3050 2419 3304 2112 
Q 3559 1806 3559 1356 
Q 3559 666 3084 287 
Q 2609 -91 1734 -91 
Q 1441 -91 1130 -33 
Q 819 25 488 141 
L 488 750 
Q 750 597 1062 519 
Q 1375 441 1716 441 
Q 2309 441 2620 675 
Q 2931 909 2931 1356 
Q 2931 1769 2642 2001 
Q 2353 2234 1838 2234 
L 1294 2234 
L 1294 2753 
L 1863 2753 
Q 2328 2753 2575 2939 
Q 2822 3125 2822 3475 
Q 2822 3834 2567 4026 
Q 2313 4219 1838 4219 
Q 1578 4219 1281 4162 
Q 984 4106 628 3988 
L 628 4550 
Q 988 4650 1302 4700 
Q 1616 4750 1894 4750 
Q 2613 4750 3031 4423 
Q 3450 4097 3450 3541 
Q 3450 3153 3228 2886 
Q 3006 2619 2597 2516 
z
" id="DejaVuSans-33" transform="scale(0.015625)"/>
       </defs>
       <use xlink:href="#DejaVuSans-33"/>
       <use x="63.623047" xlink:href="#DejaVuSans-30"/>
       <use x="127.246094" xlink:href="#DejaVuSans-30"/>
       <use x="190.869141" xlink:href="#DejaVuSans-30"/>
      </g>
     </g>
    </g>
    <g id="xtick_5">
     <g id="line2d_5">
      <g>
       <use style="stroke:#000000;stroke-width:0.8;" x="554.9875" xlink:href="#m87bcfb90ec" y="507.745"/>
      </g>
     </g>
     <g id="text_5">
      <!-- 4000 -->
      <g transform="translate(524.4475 532.98125)scale(0.24 -0.24)">
       <defs>
        <path d="M 2419 4116 
L 825 1625 
L 2419 1625 
L 2419 4116 
z
M 2253 4666 
L 3047 4666 
L 3047 1625 
L 3713 1625 
L 3713 1100 
L 3047 1100 
L 3047 0 
L 2419 0 
L 2419 1100 
L 313 1100 
L 313 1709 
L 2253 4666 
z
" id="DejaVuSans-34" transform="scale(0.015625)"/>
       </defs>
       <use xlink:href="#DejaVuSans-34"/>
       <use x="63.623047" xlink:href="#DejaVuSans-30"/>
       <use x="127.246094" xlink:href="#DejaVuSans-30"/>
       <use x="190.869141" xlink:href="#DejaVuSans-30"/>
      </g>
     </g>
    </g>
    <g id="xtick_6">
     <g id="line2d_6">
      <g>
       <use style="stroke:#000000;stroke-width:0.8;" x="678.66" xlink:href="#m87bcfb90ec" y="507.745"/>
      </g>
     </g>
     <g id="text_6">
      <!-- 5000 -->
      <g transform="translate(648.12 532.98125)scale(0.24 -0.24)">
       <defs>
        <path d="M 691 4666 
L 3169 4666 
L 3169 4134 
L 1269 4134 
L 1269 2991 
Q 1406 3038 1543 3061 
Q 1681 3084 1819 3084 
Q 2600 3084 3056 2656 
Q 3513 2228 3513 1497 
Q 3513 744 3044 326 
Q 2575 -91 1722 -91 
Q 1428 -91 1123 -41 
Q 819 9 494 109 
L 494 744 
Q 775 591 1075 516 
Q 1375 441 1709 441 
Q 2250 441 2565 725 
Q 2881 1009 2881 1497 
Q 2881 1984 2565 2268 
Q 2250 2553 1709 2553 
Q 1456 2553 1204 2497 
Q 953 2441 691 2322 
L 691 4666 
z
" id="DejaVuSans-35" transform="scale(0.015625)"/>
       </defs>
       <use xlink:href="#DejaVuSans-35"/>
       <use x="63.623047" xlink:href="#DejaVuSans-30"/>
       <use x="127.246094" xlink:href="#DejaVuSans-30"/>
       <use x="190.869141" xlink:href="#DejaVuSans-30"/>
      </g>
     </g>
    </g>
    <g id="text_7">
     <!-- iterations -->
     <g transform="translate(312.533125 560.20875)scale(0.24 -0.24)">
      <defs>
       <path d="M 603 3500 
L 1178 3500 
L 1178 0 
L 603 0 
L 603 3500 
z
M 603 4863 
L 1178 4863 
L 1178 4134 
L 603 4134 
L 603 4863 
z
" id="DejaVuSans-69" transform="scale(0.015625)"/>
       <path d="M 1172 4494 
L 1172 3500 
L 2356 3500 
L 2356 3053 
L 1172 3053 
L 1172 1153 
Q 1172 725 1289 603 
Q 1406 481 1766 481 
L 2356 481 
L 2356 0 
L 1766 0 
Q 1100 0 847 248 
Q 594 497 594 1153 
L 594 3053 
L 172 3053 
L 172 3500 
L 594 3500 
L 594 4494 
L 1172 4494 
z
" id="DejaVuSans-74" transform="scale(0.015625)"/>
       <path d="M 3597 1894 
L 3597 1613 
L 953 1613 
Q 991 1019 1311 708 
Q 1631 397 2203 397 
Q 2534 397 2845 478 
Q 3156 559 3463 722 
L 3463 178 
Q 3153 47 2828 -22 
Q 2503 -91 2169 -91 
Q 1331 -91 842 396 
Q 353 884 353 1716 
Q 353 2575 817 3079 
Q 1281 3584 2069 3584 
Q 2775 3584 3186 3129 
Q 3597 2675 3597 1894 
z
M 3022 2063 
Q 3016 2534 2758 2815 
Q 2500 3097 2075 3097 
Q 1594 3097 1305 2825 
Q 1016 2553 972 2059 
L 3022 2063 
z
" id="DejaVuSans-65" transform="scale(0.015625)"/>
       <path d="M 2631 2963 
Q 2534 3019 2420 3045 
Q 2306 3072 2169 3072 
Q 1681 3072 1420 2755 
Q 1159 2438 1159 1844 
L 1159 0 
L 581 0 
L 581 3500 
L 1159 3500 
L 1159 2956 
Q 1341 3275 1631 3429 
Q 1922 3584 2338 3584 
Q 2397 3584 2469 3576 
Q 2541 3569 2628 3553 
L 2631 2963 
z
" id="DejaVuSans-72" transform="scale(0.015625)"/>
       <path d="M 2194 1759 
Q 1497 1759 1228 1600 
Q 959 1441 959 1056 
Q 959 750 1161 570 
Q 1363 391 1709 391 
Q 2188 391 2477 730 
Q 2766 1069 2766 1631 
L 2766 1759 
L 2194 1759 
z
M 3341 1997 
L 3341 0 
L 2766 0 
L 2766 531 
Q 2569 213 2275 61 
Q 1981 -91 1556 -91 
Q 1019 -91 701 211 
Q 384 513 384 1019 
Q 384 1609 779 1909 
Q 1175 2209 1959 2209 
L 2766 2209 
L 2766 2266 
Q 2766 2663 2505 2880 
Q 2244 3097 1772 3097 
Q 1472 3097 1187 3025 
Q 903 2953 641 2809 
L 641 3341 
Q 956 3463 1253 3523 
Q 1550 3584 1831 3584 
Q 2591 3584 2966 3190 
Q 3341 2797 3341 1997 
z
" id="DejaVuSans-61" transform="scale(0.015625)"/>
       <path d="M 1959 3097 
Q 1497 3097 1228 2736 
Q 959 2375 959 1747 
Q 959 1119 1226 758 
Q 1494 397 1959 397 
Q 2419 397 2687 759 
Q 2956 1122 2956 1747 
Q 2956 2369 2687 2733 
Q 2419 3097 1959 3097 
z
M 1959 3584 
Q 2709 3584 3137 3096 
Q 3566 2609 3566 1747 
Q 3566 888 3137 398 
Q 2709 -91 1959 -91 
Q 1206 -91 779 398 
Q 353 888 353 1747 
Q 353 2609 779 3096 
Q 1206 3584 1959 3584 
z
" id="DejaVuSans-6f" transform="scale(0.015625)"/>
       <path d="M 3513 2113 
L 3513 0 
L 2938 0 
L 2938 2094 
Q 2938 2591 2744 2837 
Q 2550 3084 2163 3084 
Q 1697 3084 1428 2787 
Q 1159 2491 1159 1978 
L 1159 0 
L 581 0 
L 581 3500 
L 1159 3500 
L 1159 2956 
Q 1366 3272 1645 3428 
Q 1925 3584 2291 3584 
Q 2894 3584 3203 3211 
Q 3513 2838 3513 2113 
z
" id="DejaVuSans-6e" transform="scale(0.015625)"/>
       <path d="M 2834 3397 
L 2834 2853 
Q 2591 2978 2328 3040 
Q 2066 3103 1784 3103 
Q 1356 3103 1142 2972 
Q 928 2841 928 2578 
Q 928 2378 1081 2264 
Q 1234 2150 1697 2047 
L 1894 2003 
Q 2506 1872 2764 1633 
Q 3022 1394 3022 966 
Q 3022 478 2636 193 
Q 2250 -91 1575 -91 
Q 1294 -91 989 -36 
Q 684 19 347 128 
L 347 722 
Q 666 556 975 473 
Q 1284 391 1588 391 
Q 1994 391 2212 530 
Q 2431 669 2431 922 
Q 2431 1156 2273 1281 
Q 2116 1406 1581 1522 
L 1381 1569 
Q 847 1681 609 1914 
Q 372 2147 372 2553 
Q 372 3047 722 3315 
Q 1072 3584 1716 3584 
Q 2034 3584 2315 3537 
Q 2597 3491 2834 3397 
z
" id="DejaVuSans-73" transform="scale(0.015625)"/>
      </defs>
      <use xlink:href="#DejaVuSans-69"/>
      <use x="27.783203" xlink:href="#DejaVuSans-74"/>
      <use x="66.992188" xlink:href="#DejaVuSans-65"/>
      <use x="128.515625" xlink:href="#DejaVuSans-72"/>
      <use x="169.628906" xlink:href="#DejaVuSans-61"/>
      <use x="230.908203" xlink:href="#DejaVuSans-74"/>
      <use x="270.117188" xlink:href="#DejaVuSans-69"/>
      <use x="297.900391" xlink:href="#DejaVuSans-6f"/>
      <use x="359.082031" xlink:href="#DejaVuSans-6e"/>
      <use x="422.460938" xlink:href="#DejaVuSans-73"/>
     </g>
    </g>
   </g>
   <g id="matplotlib.axis_2">
    <g id="ytick_1">
     <g id="line2d_7">
      <defs>
       <path d="M 0 0 
L -3.5 0 
" id="m647f627745" style="stroke:#000000;stroke-width:0.8;"/>
      </defs>
      <g>
       <use style="stroke:#000000;stroke-width:0.8;" x="60.2975" xlink:href="#m647f627745" y="489.093153"/>
      </g>
     </g>
     <g id="text_8">
      <!-- 0 -->
      <g transform="translate(38.0275 498.211278)scale(0.24 -0.24)">
       <use xlink:href="#DejaVuSans-30"/>
      </g>
     </g>
    </g>
    <g id="ytick_2">
     <g id="line2d_8">
      <g>
       <use style="stroke:#000000;stroke-width:0.8;" x="60.2975" xlink:href="#m647f627745" y="407.573948"/>
      </g>
     </g>
     <g id="text_9">
      <!-- 1 -->
      <g transform="translate(38.0275 416.692073)scale(0.24 -0.24)">
       <use xlink:href="#DejaVuSans-31"/>
      </g>
     </g>
    </g>
    <g id="ytick_3">
     <g id="line2d_9">
      <g>
       <use style="stroke:#000000;stroke-width:0.8;" x="60.2975" xlink:href="#m647f627745" y="326.054744"/>
      </g>
     </g>
     <g id="text_10">
      <!-- 2 -->
      <g transform="translate(38.0275 335.172869)scale(0.24 -0.24)">
       <use xlink:href="#DejaVuSans-32"/>
      </g>
     </g>
    </g>
    <g id="ytick_4">
     <g id="line2d_10">
      <g>
       <use style="stroke:#000000;stroke-width:0.8;" x="60.2975" xlink:href="#m647f627745" y="244.535539"/>
      </g>
     </g>
     <g id="text_11">
      <!-- 3 -->
      <g transform="translate(38.0275 253.653664)scale(0.24 -0.24)">
       <use xlink:href="#DejaVuSans-33"/>
      </g>
     </g>
    </g>
    <g id="ytick_5">
     <g id="line2d_11">
      <g>
       <use style="stroke:#000000;stroke-width:0.8;" x="60.2975" xlink:href="#m647f627745" y="163.016334"/>
      </g>
     </g>
     <g id="text_12">
      <!-- 4 -->
      <g transform="translate(38.0275 172.134459)scale(0.24 -0.24)">
       <use xlink:href="#DejaVuSans-34"/>
      </g>
     </g>
    </g>
    <g id="ytick_6">
     <g id="line2d_12">
      <g>
       <use style="stroke:#000000;stroke-width:0.8;" x="60.2975" xlink:href="#m647f627745" y="81.497129"/>
      </g>
     </g>
     <g id="text_13">
      <!-- 5 -->
      <g transform="translate(38.0275 90.615254)scale(0.24 -0.24)">
       <use xlink:href="#DejaVuSans-35"/>
      </g>
     </g>
    </g>
    <g id="text_14">
     <!-- VQE energy -->
     <g transform="translate(29.03625 330.14)rotate(-90)scale(0.24 -0.24)">
      <defs>
       <path d="M 1831 0 
L 50 4666 
L 709 4666 
L 2188 738 
L 3669 4666 
L 4325 4666 
L 2547 0 
L 1831 0 
z
" id="DejaVuSans-56" transform="scale(0.015625)"/>
       <path d="M 2522 4238 
Q 1834 4238 1429 3725 
Q 1025 3213 1025 2328 
Q 1025 1447 1429 934 
Q 1834 422 2522 422 
Q 3209 422 3611 934 
Q 4013 1447 4013 2328 
Q 4013 3213 3611 3725 
Q 3209 4238 2522 4238 
z
M 3406 84 
L 4238 -825 
L 3475 -825 
L 2784 -78 
Q 2681 -84 2626 -87 
Q 2572 -91 2522 -91 
Q 1538 -91 948 567 
Q 359 1225 359 2328 
Q 359 3434 948 4092 
Q 1538 4750 2522 4750 
Q 3503 4750 4090 4092 
Q 4678 3434 4678 2328 
Q 4678 1516 4351 937 
Q 4025 359 3406 84 
z
" id="DejaVuSans-51" transform="scale(0.015625)"/>
       <path d="M 628 4666 
L 3578 4666 
L 3578 4134 
L 1259 4134 
L 1259 2753 
L 3481 2753 
L 3481 2222 
L 1259 2222 
L 1259 531 
L 3634 531 
L 3634 0 
L 628 0 
L 628 4666 
z
" id="DejaVuSans-45" transform="scale(0.015625)"/>
       <path id="DejaVuSans-20" transform="scale(0.015625)"/>
       <path d="M 2906 1791 
Q 2906 2416 2648 2759 
Q 2391 3103 1925 3103 
Q 1463 3103 1205 2759 
Q 947 2416 947 1791 
Q 947 1169 1205 825 
Q 1463 481 1925 481 
Q 2391 481 2648 825 
Q 2906 1169 2906 1791 
z
M 3481 434 
Q 3481 -459 3084 -895 
Q 2688 -1331 1869 -1331 
Q 1566 -1331 1297 -1286 
Q 1028 -1241 775 -1147 
L 775 -588 
Q 1028 -725 1275 -790 
Q 1522 -856 1778 -856 
Q 2344 -856 2625 -561 
Q 2906 -266 2906 331 
L 2906 616 
Q 2728 306 2450 153 
Q 2172 0 1784 0 
Q 1141 0 747 490 
Q 353 981 353 1791 
Q 353 2603 747 3093 
Q 1141 3584 1784 3584 
Q 2172 3584 2450 3431 
Q 2728 3278 2906 2969 
L 2906 3500 
L 3481 3500 
L 3481 434 
z
" id="DejaVuSans-67" transform="scale(0.015625)"/>
       <path d="M 2059 -325 
Q 1816 -950 1584 -1140 
Q 1353 -1331 966 -1331 
L 506 -1331 
L 506 -850 
L 844 -850 
Q 1081 -850 1212 -737 
Q 1344 -625 1503 -206 
L 1606 56 
L 191 3500 
L 800 3500 
L 1894 763 
L 2988 3500 
L 3597 3500 
L 2059 -325 
z
" id="DejaVuSans-79" transform="scale(0.015625)"/>
      </defs>
      <use xlink:href="#DejaVuSans-56"/>
      <use x="68.408203" xlink:href="#DejaVuSans-51"/>
      <use x="147.119141" xlink:href="#DejaVuSans-45"/>
      <use x="210.302734" xlink:href="#DejaVuSans-20"/>
      <use x="242.089844" xlink:href="#DejaVuSans-65"/>
      <use x="303.613281" xlink:href="#DejaVuSans-6e"/>
      <use x="366.992188" xlink:href="#DejaVuSans-65"/>
      <use x="428.515625" xlink:href="#DejaVuSans-72"/>
      <use x="467.878906" xlink:href="#DejaVuSans-67"/>
      <use x="531.355469" xlink:href="#DejaVuSans-79"/>
     </g>
    </g>
   </g>
   <g id="line2d_13">
    <path clip-path="url(#p77d21965c5)" d="M 60.421172 100.657587 
L 60.668518 33.388409 
L 60.915863 95.644737 
L 61.039535 90.748067 
L 61.163207 80.004504 
L 61.410553 89.178716 
L 61.534225 117.539393 
L 61.657897 115.764521 
L 61.78157 116.968927 
L 61.905242 109.619747 
L 62.028915 110.986892 
L 62.152587 118.373909 
L 62.27626 107.216646 
L 62.399932 113.1454 
L 62.523605 113.476427 
L 62.647278 126.861423 
L 62.77095 73.68189 
L 63.018295 127.425551 
L 63.141967 108.629534 
L 63.26564 130.503359 
L 63.389313 104.665392 
L 63.512985 129.764532 
L 63.636657 106.776182 
L 63.884003 127.08861 
L 64.007675 116.232264 
L 64.131348 122.794093 
L 64.25502 120.97948 
L 64.378692 129.821963 
L 64.502365 129.376722 
L 64.626037 117.15309 
L 64.74971 130.583875 
L 64.873383 97.162598 
L 64.997055 130.085146 
L 65.120728 107.255742 
L 65.2444 109.431549 
L 65.368072 141.769929 
L 65.491745 129.716759 
L 65.615417 148.524486 
L 65.73909 126.333882 
L 65.862763 138.059113 
L 65.986435 115.657594 
L 66.110107 148.97411 
L 66.23378 149.258754 
L 66.357452 135.755893 
L 66.481125 137.414071 
L 66.72847 147.314233 
L 67.22316 122.055673 
L 67.470505 142.912951 
L 67.71785 131.437349 
L 67.841522 143.442326 
L 67.965195 143.329902 
L 68.088867 146.000685 
L 68.336213 137.838365 
L 68.459885 138.510138 
L 68.583557 148.652187 
L 68.70723 143.874295 
L 68.830902 147.486956 
L 68.954575 145.004816 
L 69.078248 150.792766 
L 69.20192 147.604227 
L 69.325592 149.830025 
L 69.449265 210.517151 
L 69.572937 172.002976 
L 69.69661 205.238233 
L 69.820283 182.932331 
L 69.943955 201.466086 
L 70.067628 181.707129 
L 70.314972 209.661546 
L 70.438645 207.26687 
L 70.562318 197.803476 
L 70.809663 214.078338 
L 70.933335 213.918119 
L 71.057007 209.981737 
L 71.18068 214.171435 
L 71.304352 209.220042 
L 71.428025 209.044187 
L 71.551698 203.65832 
L 71.67537 212.654945 
L 71.799042 163.857704 
L 71.922715 209.390571 
L 72.046387 210.291292 
L 72.17006 201.026566 
L 72.417405 214.435838 
L 72.541078 199.423064 
L 72.66475 216.754495 
L 72.788422 210.045328 
L 72.912095 217.277392 
L 73.035767 202.446133 
L 73.283113 221.991081 
L 73.406785 227.158201 
L 73.530457 216.408226 
L 73.65413 219.297092 
L 73.777802 189.954519 
L 74.025148 234.605425 
L 74.14882 217.09366 
L 74.272492 237.12049 
L 74.396165 235.994729 
L 74.519837 202.350667 
L 74.64351 238.433102 
L 74.767183 233.30403 
L 74.890855 242.133666 
L 75.014527 227.954641 
L 75.1382 241.373968 
L 75.261872 205.044035 
L 75.385545 239.908698 
L 75.63289 232.990469 
L 75.880235 242.534314 
L 76.003907 235.819958 
L 76.12758 239.402168 
L 76.251252 236.824956 
L 76.374925 244.502198 
L 76.498598 224.96051 
L 76.62227 245.069915 
L 76.745942 240.655043 
L 76.993287 246.045162 
L 77.11696 244.365284 
L 77.240633 249.926177 
L 77.364305 245.447869 
L 77.61165 248.690511 
L 77.735322 249.105508 
L 77.858995 250.383609 
L 77.982667 246.295135 
L 78.230013 250.962051 
L 78.353685 253.929693 
L 78.477357 199.497208 
L 78.60103 255.126923 
L 78.724703 215.37889 
L 78.848375 253.72688 
L 78.972048 240.371463 
L 79.09572 240.556964 
L 79.219392 229.385823 
L 79.343065 255.883095 
L 79.466737 247.66964 
L 79.59041 254.7905 
L 79.714082 247.900632 
L 79.961427 258.691284 
L 80.0851 258.534473 
L 80.208772 227.581384 
L 80.332445 255.184003 
L 80.456118 226.224942 
L 80.57979 249.153876 
L 80.703463 244.026628 
L 80.827135 259.014566 
L 80.950807 252.343947 
L 81.07448 264.313924 
L 81.198152 253.477755 
L 81.321825 252.483442 
L 81.445498 259.198832 
L 81.56917 252.34829 
L 81.692842 238.139991 
L 81.816515 264.638492 
L 82.06386 254.857144 
L 82.187533 262.049433 
L 82.434877 231.878941 
L 82.55855 261.71909 
L 82.682222 259.514061 
L 82.929567 260.351338 
L 83.05324 263.698097 
L 83.176913 224.960094 
L 83.300585 259.528067 
L 83.424257 234.96138 
L 83.54793 259.215909 
L 83.671603 238.314665 
L 83.918948 270.766697 
L 84.04262 269.505944 
L 84.166292 277.088528 
L 84.53731 248.932463 
L 84.660983 254.640834 
L 84.784655 266.814702 
L 84.908327 257.951281 
L 85.155672 275.271271 
L 85.279345 277.556121 
L 85.403018 266.563382 
L 85.52669 275.10118 
L 85.650362 258.208646 
L 85.774035 268.993489 
L 85.897707 261.493161 
L 86.145052 276.111548 
L 86.268725 269.450122 
L 86.392398 281.543266 
L 86.51607 277.814987 
L 86.639742 284.406719 
L 86.763415 279.541618 
L 86.887087 262.638454 
L 87.01076 285.852637 
L 87.134433 243.972452 
L 87.258105 283.702433 
L 87.381777 260.286828 
L 87.50545 284.595132 
L 87.629122 255.16103 
L 87.752795 285.365615 
L 87.876467 267.3998 
L 88.00014 285.815229 
L 88.123812 280.948635 
L 88.247485 263.052335 
L 88.49483 275.96144 
L 88.618503 268.678762 
L 88.742175 283.608564 
L 88.865848 242.573766 
L 88.98952 285.265822 
L 89.113192 288.688969 
L 89.236865 287.871851 
L 89.360537 282.770828 
L 89.48421 288.818341 
L 89.607883 258.645797 
L 89.731555 281.965902 
L 89.855227 282.230625 
L 89.9789 280.022464 
L 90.102572 267.821668 
L 90.226245 279.952152 
L 90.349918 256.014025 
L 90.47359 284.048728 
L 90.597262 273.207882 
L 90.720935 288.739732 
L 90.844607 276.409307 
L 90.96828 290.004927 
L 91.091952 279.473711 
L 91.215625 292.387866 
L 91.339298 288.246271 
L 91.46297 290.869571 
L 91.586642 256.89802 
L 91.710315 289.401505 
L 91.833987 263.700199 
L 91.95766 286.589559 
L 92.081333 271.747842 
L 92.205005 292.041234 
L 92.328677 271.618609 
L 92.45235 291.513742 
L 92.699695 277.788523 
L 92.823367 277.687602 
L 92.94704 291.932231 
L 93.070712 260.364298 
L 93.194385 283.290827 
L 93.318057 268.561467 
L 93.44173 288.545036 
L 93.565403 269.170457 
L 93.812748 289.676966 
L 93.93642 288.215638 
L 94.060092 283.64083 
L 94.183765 289.567458 
L 94.307437 258.484471 
L 94.43111 291.434682 
L 94.554782 266.201104 
L 94.678455 282.565652 
L 94.802127 282.457347 
L 94.9258 280.998288 
L 95.049473 269.373083 
L 95.173145 286.460362 
L 95.296818 277.694291 
L 95.42049 290.406298 
L 95.667835 291.900214 
L 95.791507 291.421052 
L 95.91518 289.810899 
L 96.038852 291.042617 
L 96.162525 284.638226 
L 96.286198 285.31664 
L 96.533542 290.153716 
L 96.657215 290.762922 
L 96.90456 295.713224 
L 97.028233 294.879115 
L 97.151905 292.705477 
L 97.275577 297.290649 
L 97.39925 283.023872 
L 97.522922 296.553185 
L 97.646595 294.352878 
L 97.770267 297.30836 
L 98.141285 292.751127 
L 98.38863 297.498563 
L 98.512303 294.268983 
L 98.759647 301.285267 
L 98.88332 300.896488 
L 99.006992 298.380408 
L 99.130665 312.346172 
L 99.254337 311.735919 
L 99.625355 300.58645 
L 99.749027 308.48793 
L 99.8727 305.735241 
L 99.996373 310.371937 
L 100.243718 306.652295 
L 100.491062 312.573454 
L 100.614735 307.403138 
L 100.86208 312.915795 
L 100.985752 311.644509 
L 101.109425 314.349002 
L 101.233097 313.885045 
L 101.35677 311.51021 
L 101.480442 314.104708 
L 101.604115 309.60058 
L 101.727788 313.85191 
L 101.85146 311.972066 
L 101.975133 314.042069 
L 102.098805 313.075592 
L 102.222477 313.445939 
L 102.469822 309.945678 
L 102.593495 310.674773 
L 102.717167 317.529745 
L 102.84084 315.732321 
L 102.964512 317.555193 
L 103.088185 315.270599 
L 103.211857 317.340326 
L 103.33553 315.101421 
L 103.459203 317.427067 
L 103.706547 326.450774 
L 103.83022 324.582701 
L 104.077565 326.24804 
L 104.201237 323.314438 
L 104.32491 325.001713 
L 104.448582 322.014685 
L 104.695927 326.129627 
L 104.943273 323.411232 
L 105.190618 333.463103 
L 105.31429 316.794533 
L 105.561635 336.894807 
L 105.80898 337.747401 
L 105.932652 334.505318 
L 106.056325 337.531377 
L 106.179997 335.145936 
L 106.30367 328.885764 
L 106.427342 333.219457 
L 106.551015 321.858726 
L 106.79836 338.269289 
L 106.922033 333.336494 
L 107.169377 340.632281 
L 107.416722 333.6667 
L 107.664067 338.013363 
L 107.78774 324.407999 
L 108.158757 349.191313 
L 108.28243 346.520944 
L 108.406103 347.802889 
L 108.529775 353.714087 
L 108.653447 352.779726 
L 109.024465 361.226638 
L 109.148137 360.386257 
L 109.27181 354.602414 
L 109.395482 360.347212 
L 109.519155 346.395101 
L 109.642827 355.911121 
L 109.7665 353.193987 
L 109.890173 357.98329 
L 110.013845 350.505051 
L 110.137518 363.686313 
L 110.26119 361.802665 
L 110.384862 361.964946 
L 110.508535 359.516789 
L 110.632207 363.468316 
L 110.879552 360.222773 
L 111.003225 360.928687 
L 111.126897 364.62514 
L 111.25057 350.946368 
L 111.497915 370.780445 
L 111.621588 370.150025 
L 111.74526 366.435481 
L 111.868932 372.162533 
L 111.992605 369.279368 
L 112.116277 369.916772 
L 112.23995 361.202681 
L 112.363622 373.743297 
L 112.487295 367.366974 
L 112.610967 371.498412 
L 112.73464 354.377439 
L 112.981985 377.20428 
L 113.105657 377.638173 
L 113.22933 367.477755 
L 113.476675 378.199481 
L 113.600347 377.083643 
L 113.72402 378.127618 
L 113.971365 375.92428 
L 114.095037 377.585644 
L 114.21871 364.596909 
L 114.342382 379.9864 
L 114.589727 371.300455 
L 114.7134 373.350145 
L 114.837073 380.39951 
L 114.960745 371.530221 
L 115.084418 379.311309 
L 115.20809 379.857619 
L 115.331762 381.251783 
L 115.579107 388.542652 
L 115.70278 376.622829 
L 115.826452 389.030105 
L 115.950125 378.687026 
L 116.073797 388.822044 
L 116.19747 385.474726 
L 116.444815 389.312762 
L 116.568488 388.178308 
L 116.69216 381.123194 
L 116.815832 385.428003 
L 116.939505 378.979904 
L 117.18685 398.175679 
L 117.434195 386.225376 
L 117.557867 398.435533 
L 117.68154 398.862463 
L 117.928885 387.382826 
L 118.052557 393.259418 
L 118.17623 386.032589 
L 118.423575 401.627646 
L 118.547247 397.813325 
L 118.67092 402.771551 
L 118.794592 402.031708 
L 118.918265 392.881132 
L 119.041937 404.190896 
L 119.16561 398.270545 
L 119.289282 405.130791 
L 119.412955 397.242531 
L 119.536627 402.989093 
L 119.6603 394.811312 
L 119.783973 401.936377 
L 119.907645 396.387897 
L 120.031318 402.551445 
L 120.15499 403.146435 
L 120.278662 405.36063 
L 120.402335 402.2427 
L 120.526007 403.382115 
L 120.64968 389.041327 
L 120.773352 403.785473 
L 120.897025 396.277914 
L 121.020697 403.795299 
L 121.14437 400.092221 
L 121.268042 403.41007 
L 121.391715 397.412348 
L 121.515388 405.298479 
L 121.63906 399.856838 
L 121.762732 404.807937 
L 121.886405 389.002743 
L 122.010077 401.408079 
L 122.13375 399.698372 
L 122.257422 405.404882 
L 122.381095 391.577499 
L 122.504767 405.375267 
L 122.752112 399.20054 
L 122.875785 399.82421 
L 122.999457 401.427856 
L 123.12313 406.851328 
L 123.246803 404.298158 
L 123.370475 394.455731 
L 123.494147 406.645036 
L 123.61782 397.927791 
L 123.741492 405.591261 
L 123.865165 400.501415 
L 123.988837 407.427367 
L 124.11251 400.859095 
L 124.236182 406.929361 
L 124.359855 405.118515 
L 124.483527 407.511527 
L 124.854545 400.741098 
L 124.978217 409.784946 
L 125.10189 403.294876 
L 125.225562 408.796374 
L 125.349235 404.936669 
L 125.472907 411.501469 
L 125.59658 408.878319 
L 125.720253 409.864945 
L 125.843925 404.281512 
L 125.967597 406.715287 
L 126.09127 403.395446 
L 126.214942 407.755642 
L 126.338615 402.575701 
L 126.462287 408.682031 
L 126.58596 401.365725 
L 126.709632 410.657037 
L 126.833305 399.307886 
L 126.956977 407.083265 
L 127.08065 403.214932 
L 127.204322 410.734205 
L 127.327995 401.302255 
L 127.451667 404.828813 
L 127.57534 402.684055 
L 127.699012 409.273458 
L 127.822685 408.761147 
L 127.946357 410.560849 
L 128.07003 403.817361 
L 128.193703 410.16031 
L 128.317375 403.607001 
L 128.441047 407.962919 
L 128.56472 404.089605 
L 128.688392 407.694824 
L 128.812065 403.142702 
L 128.935737 410.320669 
L 129.05941 403.704328 
L 129.306755 411.910455 
L 129.430428 410.659869 
L 129.5541 412.69029 
L 129.677773 409.439133 
L 129.801445 412.84345 
L 129.925117 412.980718 
L 130.172462 410.439188 
L 130.296135 413.16816 
L 130.419807 411.723589 
L 130.54348 413.804225 
L 130.667152 410.721723 
L 130.790825 414.263395 
L 130.914497 414.553754 
L 131.03817 414.371448 
L 131.161842 413.868843 
L 131.285515 413.928711 
L 131.409187 409.762819 
L 131.53286 413.671091 
L 131.656532 412.195464 
L 131.903877 414.208687 
L 132.02755 414.707323 
L 132.151222 413.666075 
L 132.274895 413.988353 
L 132.398568 411.680738 
L 132.645913 414.985116 
L 132.769585 413.645737 
L 133.01693 415.778971 
L 133.140602 413.614609 
L 133.387947 415.25128 
L 133.635292 414.667437 
L 133.758965 416.811025 
L 134.00631 416.985928 
L 134.129982 415.708982 
L 134.253655 416.738499 
L 134.377327 414.563322 
L 134.624672 416.918123 
L 134.748345 415.621326 
L 134.99569 416.415861 
L 135.119362 414.483554 
L 135.243035 418.154375 
L 135.366707 415.779764 
L 135.49038 416.161716 
L 135.737725 418.0535 
L 135.861398 415.816203 
L 136.108743 419.722845 
L 136.232415 419.701385 
L 136.356088 417.8862 
L 136.47976 418.760452 
L 136.603432 416.923453 
L 136.727105 420.094749 
L 136.850777 417.345159 
L 136.97445 420.207506 
L 137.098122 417.567395 
L 137.221795 420.001263 
L 137.345467 419.229065 
L 137.46914 419.370688 
L 137.592812 418.965839 
L 137.716485 419.366911 
L 137.840157 418.822992 
L 137.96383 419.935098 
L 138.087502 419.427783 
L 138.334847 419.780734 
L 138.45852 419.586458 
L 138.582192 416.999704 
L 138.705865 419.544827 
L 138.829537 419.253741 
L 138.95321 419.964971 
L 139.076883 418.812987 
L 139.200555 420.566279 
L 139.571573 419.229859 
L 139.695245 420.314002 
L 139.818917 417.118701 
L 139.94259 420.411117 
L 140.066262 417.209645 
L 140.189935 419.8137 
L 140.313607 419.658283 
L 140.43728 420.500471 
L 140.560952 419.577066 
L 140.684625 419.970275 
L 140.808297 419.565658 
L 140.93197 421.029395 
L 141.055642 418.225066 
L 141.179315 421.568622 
L 141.302988 418.808461 
L 141.42666 421.638268 
L 141.550332 420.863928 
L 141.674005 421.762626 
L 141.797677 420.000892 
L 141.92135 421.428844 
L 142.045022 421.465039 
L 142.168695 421.216268 
L 142.292368 418.994012 
L 142.41604 420.767399 
L 142.539713 419.978154 
L 142.663385 421.462951 
L 142.787058 421.302585 
L 143.034402 419.829877 
L 143.158075 421.538907 
L 143.281747 421.523946 
L 143.40542 421.037145 
L 143.529092 421.324738 
L 143.652765 421.949726 
L 143.776437 420.419367 
L 143.90011 420.69613 
L 144.023782 419.18987 
L 144.147455 421.855802 
L 144.271127 420.669612 
L 144.3948 420.883367 
L 144.518472 419.780174 
L 144.642145 421.835887 
L 144.765817 420.904939 
L 144.88949 420.884588 
L 145.013162 422.096234 
L 145.136835 422.03513 
L 145.38418 422.134079 
L 145.631525 421.664814 
L 145.755198 422.228177 
L 145.87887 422.045917 
L 146.002543 422.273823 
L 146.126215 421.366763 
L 146.249887 422.078508 
L 146.37356 421.637741 
L 146.497232 422.421252 
L 146.620905 422.324572 
L 146.744577 422.623517 
L 146.86825 421.697873 
L 146.991922 422.733618 
L 147.115595 422.037093 
L 147.239267 422.473938 
L 147.36294 422.369651 
L 147.486612 422.43014 
L 147.610285 422.808965 
L 147.733957 422.609796 
L 147.85763 422.872388 
L 147.981302 422.569356 
L 148.104975 422.802771 
L 148.228647 422.568784 
L 148.35232 422.910189 
L 148.599665 422.351449 
L 148.723338 422.654717 
L 148.84701 422.491526 
L 148.970683 422.980186 
L 149.218028 422.527403 
L 149.465373 422.871682 
L 149.589045 422.716819 
L 149.960062 422.766813 
L 150.083735 422.60351 
L 150.207407 422.98314 
L 150.33108 422.594342 
L 150.454752 422.946811 
L 150.702097 423.034096 
L 150.82577 423.108537 
L 150.949442 422.897458 
L 151.073115 422.147519 
L 151.196787 423.099114 
L 151.32046 422.476564 
L 151.444132 423.469693 
L 151.567805 422.741595 
L 151.691477 423.736337 
L 151.938822 423.61694 
L 152.062495 423.841702 
L 152.186168 423.774605 
L 152.433513 424.045813 
L 152.557185 423.664228 
L 152.680858 424.019504 
L 152.80453 423.831654 
L 152.928202 424.153792 
L 153.051875 423.697016 
L 153.670237 423.925568 
L 153.79391 423.599347 
L 153.917582 424.141772 
L 154.164927 423.817378 
L 154.412272 424.047525 
L 154.535945 424.022296 
L 154.659617 424.651315 
L 154.78329 424.56064 
L 154.906962 424.683744 
L 155.030635 424.195906 
L 155.154307 424.18922 
L 155.401653 425.149374 
L 155.77267 424.63547 
L 155.896343 425.040844 
L 156.020015 424.462769 
L 156.143687 424.998553 
L 156.26736 424.77061 
L 156.514705 425.451807 
L 156.638377 425.402781 
L 156.76205 424.914646 
L 157.133067 425.503096 
L 157.380412 425.224329 
L 157.504085 425.730746 
L 157.627757 425.405874 
L 157.75143 425.760323 
L 157.875102 425.685677 
L 157.998775 424.93617 
L 158.24612 425.566576 
L 158.369792 425.421388 
L 158.493465 425.519971 
L 158.617138 425.1914 
L 158.864483 425.631461 
L 158.988155 425.220074 
L 159.111828 425.746848 
L 159.2355 424.885685 
L 159.482845 426.035358 
L 159.606517 425.798653 
L 159.73019 426.415172 
L 159.853862 426.038136 
L 159.977535 426.755976 
L 160.348552 426.465251 
L 160.472225 426.061861 
L 160.595897 426.154112 
L 160.71957 426.394222 
L 160.843242 426.293314 
L 160.966915 426.803787 
L 161.21426 426.388682 
L 161.337932 426.70475 
L 161.461605 426.191107 
L 161.956295 427.69285 
L 162.079968 427.583859 
L 162.20364 427.827098 
L 162.327313 427.757355 
L 162.450985 428.420853 
L 162.574658 428.358277 
L 162.69833 427.806055 
L 162.822002 428.244369 
L 162.945675 427.510674 
L 163.19302 428.554628 
L 163.316692 428.499173 
L 163.440365 428.206892 
L 163.564037 428.45383 
L 163.68771 427.784338 
L 163.811382 428.613903 
L 163.935055 427.936941 
L 164.058727 428.498298 
L 164.1824 428.059713 
L 164.306072 428.556813 
L 164.429745 428.527051 
L 164.553417 428.673013 
L 164.67709 428.049281 
L 164.800762 428.544662 
L 164.924435 427.673218 
L 165.048107 428.685874 
L 165.17178 428.665896 
L 165.295453 428.878159 
L 165.419125 428.409521 
L 165.542798 428.999504 
L 165.913815 429.040336 
L 166.16116 428.716638 
L 166.284832 429.153452 
L 166.408505 428.66124 
L 166.779522 429.371085 
L 166.903195 429.123216 
L 167.026867 429.296401 
L 167.15054 429.267892 
L 167.274212 428.791649 
L 167.397885 429.72501 
L 167.64523 429.35055 
L 168.016247 430.076416 
L 168.13992 429.643174 
L 168.263592 430.015321 
L 168.387265 429.71904 
L 168.510938 429.714007 
L 168.63461 429.516272 
L 168.758283 429.782844 
L 168.881955 429.599632 
L 169.005628 429.913133 
L 169.1293 429.559249 
L 169.252972 429.965582 
L 169.376645 429.700949 
L 169.500317 430.205831 
L 169.62399 429.138839 
L 169.747662 430.285102 
L 169.871335 430.037506 
L 170.11868 430.343963 
L 170.489697 430.132162 
L 170.61337 429.490371 
L 170.737042 430.296932 
L 170.860715 429.655931 
L 171.10806 430.147313 
L 171.231732 430.431834 
L 171.355405 429.921017 
L 171.479077 430.474906 
L 171.726423 430.257754 
L 171.850095 430.075873 
L 171.973768 430.238291 
L 172.09744 429.746172 
L 172.221113 430.323719 
L 172.468457 430.471869 
L 172.715802 430.10675 
L 172.963147 430.533932 
L 173.08682 429.724081 
L 173.210492 430.507742 
L 173.457837 430.280406 
L 173.705182 430.386779 
L 173.828855 430.143636 
L 174.0762 430.683132 
L 174.199872 430.700711 
L 174.57089 429.672387 
L 174.694562 430.526679 
L 174.818235 430.549029 
L 175.06558 430.308124 
L 175.189253 430.56333 
L 175.312925 430.518069 
L 175.436598 430.295571 
L 175.56027 430.532305 
L 176.05496 430.02926 
L 176.178632 430.369923 
L 176.302305 430.230995 
L 176.425977 430.663155 
L 176.673322 430.633483 
L 176.796995 430.429075 
L 176.920667 430.569623 
L 177.04434 430.195188 
L 177.291685 430.765212 
L 177.415357 430.596832 
L 177.53903 430.956182 
L 177.786375 430.630708 
L 177.910047 430.936766 
L 178.03372 430.587407 
L 178.157392 430.842323 
L 178.281065 429.748374 
L 178.404738 430.807637 
L 178.652083 430.899306 
L 178.775755 430.635732 
L 178.899428 431.095537 
L 179.0231 430.730571 
L 179.146772 430.880682 
L 179.270445 430.519778 
L 179.51779 431.140904 
L 179.641462 430.996417 
L 179.765135 430.605841 
L 179.888807 430.631428 
L 180.01248 431.014163 
L 180.136152 430.974193 
L 180.259825 431.350793 
L 180.383497 430.633723 
L 180.50717 431.87386 
L 180.754515 431.061873 
L 180.878187 431.690167 
L 181.00186 431.495991 
L 181.125532 431.729099 
L 181.249205 431.348972 
L 181.49655 431.907739 
L 181.620223 431.348414 
L 181.743895 431.313822 
L 181.867568 431.678566 
L 181.99124 431.196955 
L 182.114913 431.904541 
L 182.238585 431.331223 
L 182.362257 431.489672 
L 182.48593 431.892725 
L 182.609602 431.689471 
L 182.733275 432.008658 
L 182.856947 431.726835 
L 182.98062 432.040067 
L 183.104292 431.790711 
L 183.227965 431.795336 
L 183.351637 431.926854 
L 183.47531 431.655252 
L 183.722655 432.509411 
L 183.846327 432.400463 
L 183.97 431.883162 
L 184.217345 432.713397 
L 184.341017 432.716744 
L 184.46469 432.288216 
L 184.588362 432.67943 
L 184.712035 432.016825 
L 184.835707 432.700932 
L 184.95938 431.907874 
L 185.206725 432.968419 
L 185.330398 433.007577 
L 185.577742 432.701346 
L 185.701415 432.483452 
L 185.825087 432.797422 
L 185.94876 432.371861 
L 186.196105 432.91884 
L 186.319777 432.866546 
L 186.44345 432.620319 
L 186.567122 432.682595 
L 186.690795 432.574109 
L 186.93814 432.845952 
L 187.185485 432.505861 
L 187.309157 432.997092 
L 187.556502 432.637002 
L 187.680175 433.148148 
L 187.92752 432.742735 
L 188.298538 433.203282 
L 188.42221 432.863111 
L 188.545883 432.993059 
L 188.669555 432.888736 
L 188.793228 433.245389 
L 188.9169 432.522972 
L 189.040572 433.282486 
L 189.164245 432.94456 
L 189.287917 433.276664 
L 189.41159 432.35848 
L 189.535262 433.091943 
L 189.658935 432.490636 
L 189.782607 433.17796 
L 189.90628 432.517437 
L 190.029952 433.083536 
L 190.153625 432.535642 
L 190.277297 433.216786 
L 190.524642 432.98534 
L 190.648315 432.504061 
L 190.771987 433.20912 
L 190.89566 432.308992 
L 191.019332 433.21278 
L 191.143005 433.032936 
L 191.266678 433.096802 
L 191.39035 432.786137 
L 191.514023 432.991084 
L 191.637695 432.664434 
L 191.761368 433.359442 
L 192.008713 432.959106 
L 192.132385 433.257539 
L 192.37973 433.102052 
L 192.503402 433.333018 
L 192.627075 432.53774 
L 192.750747 433.359868 
L 192.87442 432.927301 
L 192.998092 433.371719 
L 193.121765 433.005125 
L 193.245437 433.194946 
L 193.36911 432.64286 
L 193.492782 433.271359 
L 193.616455 432.728669 
L 193.740127 433.201622 
L 193.987472 433.258133 
L 194.111145 432.662496 
L 194.234817 433.334429 
L 194.35849 432.735885 
L 194.482163 433.291354 
L 194.729508 433.305183 
L 194.85318 432.994204 
L 194.976853 433.391275 
L 195.100525 433.178905 
L 195.224198 433.251048 
L 195.34787 432.938759 
L 195.471542 433.253104 
L 195.595215 433.094963 
L 195.718887 433.256149 
L 195.84256 432.729694 
L 195.966232 433.201007 
L 196.089905 432.514595 
L 196.213577 433.385474 
L 196.460922 432.931411 
L 196.708267 433.15914 
L 197.079285 433.373448 
L 197.202957 433.152575 
L 197.450302 433.373562 
L 197.697648 433.005077 
L 197.82132 433.329597 
L 197.944993 433.217887 
L 198.068665 433.273107 
L 198.192338 433.464052 
L 198.439683 433.365899 
L 198.563355 433.464788 
L 198.8107 433.360647 
L 198.934372 433.683315 
L 199.058045 433.642286 
L 199.181717 433.818718 
L 199.552735 433.840929 
L 199.676407 433.983127 
L 199.80008 433.819061 
L 200.047425 434.082835 
L 200.171097 433.809178 
L 200.29477 433.947385 
L 200.418442 433.803736 
L 200.542115 434.147689 
L 200.78946 434.07041 
L 200.913132 434.166364 
L 201.036805 434.048393 
L 201.28415 434.262658 
L 201.407823 434.32211 
L 201.531495 434.188358 
L 201.655168 434.385491 
L 201.902513 434.287717 
L 202.149857 434.427512 
L 202.397202 434.230721 
L 202.520875 434.455067 
L 202.644547 434.25286 
L 203.015565 434.492878 
L 203.139237 434.658145 
L 203.386582 434.386108 
L 203.510255 434.693137 
L 203.633927 434.601439 
L 203.881272 434.895839 
L 204.375963 434.845601 
L 204.623308 434.683581 
L 204.74698 434.943815 
L 204.870653 434.793062 
L 205.117998 434.897156 
L 206.23105 435.055965 
L 206.354722 434.970175 
L 206.602067 435.328233 
L 206.72574 435.224939 
L 206.973085 435.330125 
L 207.22043 435.400206 
L 207.467775 435.432074 
L 207.591448 435.359345 
L 207.71512 435.449452 
L 208.086138 435.198807 
L 208.20981 435.438668 
L 208.333483 435.150384 
L 208.580827 435.483968 
L 208.828172 435.409454 
L 208.951845 435.555992 
L 209.19919 435.509521 
L 209.817552 435.38324 
L 210.064897 435.622423 
L 210.559587 435.475111 
L 210.806933 435.540118 
L 210.930605 435.575231 
L 211.054278 435.343432 
L 211.17795 435.575087 
L 211.548968 435.425155 
L 211.67264 435.617263 
L 211.796312 435.462804 
L 211.919985 435.644647 
L 212.043657 435.475555 
L 212.16733 435.689806 
L 212.538347 435.478958 
L 212.66202 435.691159 
L 213.15671 435.567436 
L 213.280382 435.74967 
L 213.404055 435.625452 
L 213.6514 435.780554 
L 213.898745 435.705944 
L 214.14609 435.786455 
L 214.393435 435.686608 
L 214.517108 435.645495 
L 214.64078 435.855483 
L 214.764453 435.728936 
L 214.888125 435.834351 
L 215.13547 435.832593 
L 215.382815 435.815274 
L 215.506487 435.7293 
L 215.63016 435.844508 
L 215.753832 435.696503 
L 216.001177 435.912522 
L 216.248522 435.874194 
L 216.372195 435.878502 
L 216.495867 435.705061 
L 216.866885 435.904143 
L 216.990557 435.789753 
L 217.237902 435.876001 
L 217.361575 435.879172 
L 217.485248 435.723838 
L 217.60892 435.911423 
L 217.732593 435.79708 
L 218.227283 435.972952 
L 218.474627 435.858179 
L 218.5983 435.97328 
L 218.721972 435.703193 
L 218.845645 435.991419 
L 218.969317 435.888203 
L 219.09299 435.958373 
L 219.340335 435.941789 
L 220.57706 435.984288 
L 220.700733 435.866267 
L 220.824405 435.931383 
L 220.948078 435.802685 
L 221.07175 436.000314 
L 221.319095 435.935802 
L 221.56644 436.015629 
L 221.937457 435.770923 
L 222.06113 436.010723 
L 222.184802 435.907594 
L 222.308475 436.061736 
L 222.432147 435.892467 
L 222.55582 436.002612 
L 222.679492 435.921825 
L 222.926837 435.982377 
L 223.792545 436.120373 
L 224.03989 435.961362 
L 224.163563 436.166738 
L 224.410908 436.082139 
L 224.905597 436.206157 
L 226.01865 436.222762 
L 226.142322 435.998998 
L 226.265995 436.218651 
L 226.389667 436.073936 
L 226.637012 436.232017 
L 226.760685 436.185492 
L 226.884357 436.293351 
L 227.379048 436.120056 
L 227.50272 436.213531 
L 227.626393 436.13804 
L 227.873738 436.269367 
L 228.368427 436.166422 
L 228.739445 436.336592 
L 228.863117 436.242988 
L 228.98679 436.316282 
L 229.110462 436.030557 
L 229.234135 436.28097 
L 229.357807 436.211819 
L 229.48148 436.317518 
L 229.605152 436.232106 
L 229.852497 436.28362 
L 231.95493 436.36573 
L 232.078602 436.125296 
L 232.325947 436.371803 
L 232.696965 436.373458 
L 232.820637 436.066054 
L 233.067982 436.275418 
L 233.315327 436.383947 
L 233.810017 436.206578 
L 233.93369 436.390489 
L 234.057363 436.331892 
L 234.304708 436.353943 
L 235.41776 436.434218 
L 235.541432 436.225569 
L 235.788777 436.398348 
L 241.106695 436.527726 
L 241.477712 436.532496 
L 241.725057 436.574818 
L 242.096075 436.600618 
L 243.085455 436.667879 
L 243.703818 436.702332 
L 244.445853 436.696669 
L 254.463325 436.7292 
L 254.71067 436.760778 
L 256.318412 436.788882 
L 259.039207 436.82564 
L 260.523278 436.875175 
L 260.894295 436.834383 
L 261.265312 436.904532 
L 263.367745 436.937291 
L 264.357125 436.975967 
L 264.851815 436.934061 
L 265.346505 437.003532 
L 265.964867 436.981491 
L 266.830575 437.026099 
L 267.201593 437.039247 
L 268.0673 437.044156 
L 268.438317 437.065415 
L 268.809335 437.022599 
L 269.180352 437.072619 
L 269.427697 437.046857 
L 271.777475 437.123549 
L 272.766855 437.125591 
L 275.240305 437.170543 
L 276.229685 437.161176 
L 276.97172 437.182595 
L 280.063533 437.183692 
L 281.794947 437.195954 
L 282.042292 437.179718 
L 282.784327 437.203068 
L 283.155345 437.157016 
L 283.773708 437.190523 
L 285.010432 437.230122 
L 285.257777 437.220249 
L 285.752467 437.21943 
L 288.967952 437.245764 
L 289.091625 437.164699 
L 289.33897 437.22529 
L 289.709987 437.255999 
L 290.081005 437.212969 
L 290.452022 437.272415 
L 290.946712 437.253535 
L 294.409542 437.281524 
L 295.151577 437.289886 
L 295.522595 437.254586 
L 295.893612 437.302018 
L 311.10533 437.408114 
L 311.971037 437.419396 
L 356.864155 437.638575 
L 357.977207 437.623695 
L 359.461277 437.6409 
L 360.945347 437.652864 
L 364.408177 437.654882 
L 367.0053 437.67109 
L 369.107732 437.673783 
L 372.817907 437.670083 
L 373.683615 437.687257 
L 376.651755 437.689461 
L 386.545555 437.73104 
L 387.163917 437.731333 
L 389.390022 437.73496 
L 394.336923 437.738192 
L 397.18139 437.765527 
L 398.294443 437.759288 
L 401.386255 437.770417 
L 405.714792 437.762021 
L 408.188243 437.778273 
L 417.46368 437.803139 
L 423.523632 437.821803 
L 435.148847 437.853759 
L 443.558578 437.878073 
L 467.056353 437.9375 
L 476.33179 437.962248 
L 481.402362 437.970682 
L 503.04505 438.010177 
L 534.828882 438.052405 
L 585.65828 438.141535 
L 593.820665 438.160903 
L 608.290347 438.184874 
L 668.889873 438.289828 
L 671.610667 438.296049 
L 678.783672 438.308948 
L 678.783672 438.308948 
" style="fill:none;stroke:#1f77b4;stroke-linecap:square;stroke-width:3;"/>
   </g>
   <g id="line2d_14">
    <path clip-path="url(#p77d21965c5)" d="M 60.421172 56.899043 
L 69.325592 56.899043 
L 69.449265 225.3308 
L 78.353685 225.3308 
L 78.477357 312.879649 
L 87.381777 312.879649 
L 87.50545 381.645816 
L 96.40987 381.645816 
L 96.533542 413.582521 
L 105.437962 413.582521 
L 105.561635 421.219727 
L 114.466055 421.219727 
L 114.589727 423.67601 
L 123.494147 423.67601 
L 123.61782 425.966691 
L 132.52224 425.966691 
L 132.645913 426.562478 
L 141.550332 426.562478 
L 141.674005 427.639181 
L 150.578425 427.639181 
L 150.702097 428.042158 
L 159.606517 428.042158 
L 159.853862 428.280063 
L 168.63461 428.280063 
L 168.758283 428.55837 
L 177.662702 428.55837 
L 177.786375 428.944864 
L 186.690795 428.944864 
L 186.814467 358.650139 
L 186.93814 429.604948 
L 195.84256 429.604948 
L 195.966232 374.149251 
L 196.089905 430.127167 
L 204.994325 430.127167 
L 205.117998 430.779106 
L 214.022417 430.779106 
L 214.14609 432.290401 
L 223.05051 432.290401 
L 223.174182 435.959781 
L 232.078602 435.959781 
L 232.202275 437.60674 
L 241.106695 437.60674 
L 241.230367 438.584757 
L 250.134787 438.584757 
L 250.25846 439.098999 
L 259.16288 439.098999 
L 259.286552 439.54609 
L 268.190972 439.54609 
L 268.438317 439.665043 
L 277.219065 439.665043 
L 277.46641 439.800332 
L 295.27525 439.887824 
L 295.646267 439.939438 
L 313.331435 440.044854 
L 313.57878 440.257957 
L 322.359528 440.257957 
L 322.606873 440.489449 
L 331.38762 440.489449 
L 331.634965 440.674663 
L 340.415712 440.674663 
L 340.663057 440.823389 
L 448.876495 440.929184 
L 448.876495 440.929184 
" style="fill:none;stroke:#ff7f0e;stroke-linecap:square;stroke-width:3;"/>
   </g>
   <g id="line2d_15">
    <path clip-path="url(#p77d21965c5)" d="M 60.421172 56.899043 
L 69.325592 56.899043 
L 69.449265 225.330756 
L 78.353685 225.330756 
L 78.477357 302.639326 
L 87.381777 302.639326 
L 87.50545 344.26096 
L 96.40987 344.26096 
L 96.533542 405.420228 
L 105.437962 405.420228 
L 105.561635 413.817281 
L 114.466055 413.817281 
L 114.589727 422.094026 
L 123.494147 422.094026 
L 123.61782 423.962401 
L 132.52224 423.962401 
L 132.645913 426.18469 
L 141.550332 426.18469 
L 141.674005 427.74902 
L 150.578425 427.74902 
L 150.702097 428.627515 
L 159.606517 428.627515 
L 159.73019 429.657553 
L 168.63461 429.657553 
L 168.758283 430.117385 
L 177.662702 430.117385 
L 177.786375 431.393289 
L 186.690795 431.393289 
L 186.814467 432.637355 
L 195.718887 432.637355 
L 195.84256 435.013947 
L 204.74698 435.013947 
L 204.870653 434.706136 
L 213.775072 434.706136 
L 213.898745 437.7143 
L 222.803165 437.7143 
L 222.926837 438.394136 
L 231.831257 438.394136 
L 231.95493 439.288061 
L 240.85935 439.288061 
L 240.983023 439.595967 
L 249.887442 439.595967 
L 250.134787 439.822945 
L 267.943627 439.84381 
L 268.190972 439.954023 
L 295.027905 440.048942 
L 295.27525 440.129811 
L 313.08409 440.192561 
L 313.331435 440.367077 
L 331.140275 440.445725 
L 331.38762 440.531656 
L 340.168367 440.531656 
L 340.415712 440.656877 
L 349.19646 440.656877 
L 349.443805 440.774976 
L 376.280737 440.882391 
L 378.135825 440.890236 
L 678.783672 440.929396 
L 678.783672 440.929396 
" style="fill:none;stroke:#2ca02c;stroke-linecap:square;stroke-width:3;"/>
   </g>
   <g id="line2d_16">
    <path clip-path="url(#p77d21965c5)" d="M 60.2975 485.156591 
L 678.66 485.156591 
" style="fill:none;stroke:#000000;stroke-dasharray:7.4,3.2;stroke-dashoffset:0;stroke-width:2;"/>
   </g>
   <g id="patch_3">
    <path d="M 60.2975 507.745 
L 60.2975 10.8 
" style="fill:none;stroke:#000000;stroke-linecap:square;stroke-linejoin:miter;stroke-width:0.8;"/>
   </g>
   <g id="patch_4">
    <path d="M 678.66 507.745 
L 678.66 10.8 
" style="fill:none;stroke:#000000;stroke-linecap:square;stroke-linejoin:miter;stroke-width:0.8;"/>
   </g>
   <g id="patch_5">
    <path d="M 60.2975 507.745 
L 678.66 507.745 
" style="fill:none;stroke:#000000;stroke-linecap:square;stroke-linejoin:miter;stroke-width:0.8;"/>
   </g>
   <g id="patch_6">
    <path d="M 60.2975 10.8 
L 678.66 10.8 
" style="fill:none;stroke:#000000;stroke-linecap:square;stroke-linejoin:miter;stroke-width:0.8;"/>
   </g>
   <g id="legend_1">
    <g id="patch_7">
     <path d="M 475.96125 170.91 
L 661.86 170.91 
Q 666.66 170.91 666.66 166.11 
L 666.66 27.6 
Q 666.66 22.8 661.86 22.8 
L 475.96125 22.8 
Q 471.16125 22.8 471.16125 27.6 
L 471.16125 166.11 
Q 471.16125 170.91 475.96125 170.91 
z
" style="fill:#ffffff;opacity:0.8;stroke:#cccccc;stroke-linejoin:miter;"/>
    </g>
    <g id="line2d_17">
     <path d="M 480.76125 42.23625 
L 528.76125 42.23625 
" style="fill:none;stroke:#1f77b4;stroke-linecap:square;stroke-width:3;"/>
    </g>
    <g id="line2d_18"/>
    <g id="text_15">
     <!-- COBYLA -->
     <g transform="translate(547.96125 50.63625)scale(0.24 -0.24)">
      <defs>
       <path d="M 4122 4306 
L 4122 3641 
Q 3803 3938 3442 4084 
Q 3081 4231 2675 4231 
Q 1875 4231 1450 3742 
Q 1025 3253 1025 2328 
Q 1025 1406 1450 917 
Q 1875 428 2675 428 
Q 3081 428 3442 575 
Q 3803 722 4122 1019 
L 4122 359 
Q 3791 134 3420 21 
Q 3050 -91 2638 -91 
Q 1578 -91 968 557 
Q 359 1206 359 2328 
Q 359 3453 968 4101 
Q 1578 4750 2638 4750 
Q 3056 4750 3426 4639 
Q 3797 4528 4122 4306 
z
" id="DejaVuSans-43" transform="scale(0.015625)"/>
       <path d="M 2522 4238 
Q 1834 4238 1429 3725 
Q 1025 3213 1025 2328 
Q 1025 1447 1429 934 
Q 1834 422 2522 422 
Q 3209 422 3611 934 
Q 4013 1447 4013 2328 
Q 4013 3213 3611 3725 
Q 3209 4238 2522 4238 
z
M 2522 4750 
Q 3503 4750 4090 4092 
Q 4678 3434 4678 2328 
Q 4678 1225 4090 567 
Q 3503 -91 2522 -91 
Q 1538 -91 948 565 
Q 359 1222 359 2328 
Q 359 3434 948 4092 
Q 1538 4750 2522 4750 
z
" id="DejaVuSans-4f" transform="scale(0.015625)"/>
       <path d="M 1259 2228 
L 1259 519 
L 2272 519 
Q 2781 519 3026 730 
Q 3272 941 3272 1375 
Q 3272 1813 3026 2020 
Q 2781 2228 2272 2228 
L 1259 2228 
z
M 1259 4147 
L 1259 2741 
L 2194 2741 
Q 2656 2741 2882 2914 
Q 3109 3088 3109 3444 
Q 3109 3797 2882 3972 
Q 2656 4147 2194 4147 
L 1259 4147 
z
M 628 4666 
L 2241 4666 
Q 2963 4666 3353 4366 
Q 3744 4066 3744 3513 
Q 3744 3084 3544 2831 
Q 3344 2578 2956 2516 
Q 3422 2416 3680 2098 
Q 3938 1781 3938 1306 
Q 3938 681 3513 340 
Q 3088 0 2303 0 
L 628 0 
L 628 4666 
z
" id="DejaVuSans-42" transform="scale(0.015625)"/>
       <path d="M -13 4666 
L 666 4666 
L 1959 2747 
L 3244 4666 
L 3922 4666 
L 2272 2222 
L 2272 0 
L 1638 0 
L 1638 2222 
L -13 4666 
z
" id="DejaVuSans-59" transform="scale(0.015625)"/>
       <path d="M 628 4666 
L 1259 4666 
L 1259 531 
L 3531 531 
L 3531 0 
L 628 0 
L 628 4666 
z
" id="DejaVuSans-4c" transform="scale(0.015625)"/>
       <path d="M 2188 4044 
L 1331 1722 
L 3047 1722 
L 2188 4044 
z
M 1831 4666 
L 2547 4666 
L 4325 0 
L 3669 0 
L 3244 1197 
L 1141 1197 
L 716 0 
L 50 0 
L 1831 4666 
z
" id="DejaVuSans-41" transform="scale(0.015625)"/>
      </defs>
      <use xlink:href="#DejaVuSans-43"/>
      <use x="69.824219" xlink:href="#DejaVuSans-4f"/>
      <use x="148.535156" xlink:href="#DejaVuSans-42"/>
      <use x="211.638672" xlink:href="#DejaVuSans-59"/>
      <use x="272.722656" xlink:href="#DejaVuSans-4c"/>
      <use x="330.685547" xlink:href="#DejaVuSans-41"/>
     </g>
    </g>
    <g id="line2d_19">
     <path d="M 480.76125 77.46375 
L 528.76125 77.46375 
" style="fill:none;stroke:#ff7f0e;stroke-linecap:square;stroke-width:3;"/>
    </g>
    <g id="line2d_20"/>
    <g id="text_16">
     <!-- SLSQP -->
     <g transform="translate(547.96125 85.86375)scale(0.24 -0.24)">
      <defs>
       <path d="M 3425 4513 
L 3425 3897 
Q 3066 4069 2747 4153 
Q 2428 4238 2131 4238 
Q 1616 4238 1336 4038 
Q 1056 3838 1056 3469 
Q 1056 3159 1242 3001 
Q 1428 2844 1947 2747 
L 2328 2669 
Q 3034 2534 3370 2195 
Q 3706 1856 3706 1288 
Q 3706 609 3251 259 
Q 2797 -91 1919 -91 
Q 1588 -91 1214 -16 
Q 841 59 441 206 
L 441 856 
Q 825 641 1194 531 
Q 1563 422 1919 422 
Q 2459 422 2753 634 
Q 3047 847 3047 1241 
Q 3047 1584 2836 1778 
Q 2625 1972 2144 2069 
L 1759 2144 
Q 1053 2284 737 2584 
Q 422 2884 422 3419 
Q 422 4038 858 4394 
Q 1294 4750 2059 4750 
Q 2388 4750 2728 4690 
Q 3069 4631 3425 4513 
z
" id="DejaVuSans-53" transform="scale(0.015625)"/>
       <path d="M 1259 4147 
L 1259 2394 
L 2053 2394 
Q 2494 2394 2734 2622 
Q 2975 2850 2975 3272 
Q 2975 3691 2734 3919 
Q 2494 4147 2053 4147 
L 1259 4147 
z
M 628 4666 
L 2053 4666 
Q 2838 4666 3239 4311 
Q 3641 3956 3641 3272 
Q 3641 2581 3239 2228 
Q 2838 1875 2053 1875 
L 1259 1875 
L 1259 0 
L 628 0 
L 628 4666 
z
" id="DejaVuSans-50" transform="scale(0.015625)"/>
      </defs>
      <use xlink:href="#DejaVuSans-53"/>
      <use x="63.476562" xlink:href="#DejaVuSans-4c"/>
      <use x="119.189453" xlink:href="#DejaVuSans-53"/>
      <use x="182.666016" xlink:href="#DejaVuSans-51"/>
      <use x="261.376953" xlink:href="#DejaVuSans-50"/>
     </g>
    </g>
    <g id="line2d_21">
     <path d="M 480.76125 112.69125 
L 528.76125 112.69125 
" style="fill:none;stroke:#2ca02c;stroke-linecap:square;stroke-width:3;"/>
    </g>
    <g id="line2d_22"/>
    <g id="text_17">
     <!-- L-BFGS-B -->
     <g transform="translate(547.96125 121.09125)scale(0.24 -0.24)">
      <defs>
       <path d="M 313 2009 
L 1997 2009 
L 1997 1497 
L 313 1497 
L 313 2009 
z
" id="DejaVuSans-2d" transform="scale(0.015625)"/>
       <path d="M 628 4666 
L 3309 4666 
L 3309 4134 
L 1259 4134 
L 1259 2759 
L 3109 2759 
L 3109 2228 
L 1259 2228 
L 1259 0 
L 628 0 
L 628 4666 
z
" id="DejaVuSans-46" transform="scale(0.015625)"/>
       <path d="M 3809 666 
L 3809 1919 
L 2778 1919 
L 2778 2438 
L 4434 2438 
L 4434 434 
Q 4069 175 3628 42 
Q 3188 -91 2688 -91 
Q 1594 -91 976 548 
Q 359 1188 359 2328 
Q 359 3472 976 4111 
Q 1594 4750 2688 4750 
Q 3144 4750 3555 4637 
Q 3966 4525 4313 4306 
L 4313 3634 
Q 3963 3931 3569 4081 
Q 3175 4231 2741 4231 
Q 1884 4231 1454 3753 
Q 1025 3275 1025 2328 
Q 1025 1384 1454 906 
Q 1884 428 2741 428 
Q 3075 428 3337 486 
Q 3600 544 3809 666 
z
" id="DejaVuSans-47" transform="scale(0.015625)"/>
      </defs>
      <use xlink:href="#DejaVuSans-4c"/>
      <use x="53.962891" xlink:href="#DejaVuSans-2d"/>
      <use x="86.421875" xlink:href="#DejaVuSans-42"/>
      <use x="155.025391" xlink:href="#DejaVuSans-46"/>
      <use x="212.544922" xlink:href="#DejaVuSans-47"/>
      <use x="290.035156" xlink:href="#DejaVuSans-53"/>
      <use x="353.511719" xlink:href="#DejaVuSans-2d"/>
      <use x="385.970703" xlink:href="#DejaVuSans-42"/>
     </g>
    </g>
    <g id="line2d_23">
     <path d="M 480.76125 147.91875 
L 528.76125 147.91875 
" style="fill:none;stroke:#000000;stroke-dasharray:7.4,3.2;stroke-dashoffset:0;stroke-width:2;"/>
    </g>
    <g id="line2d_24"/>
    <g id="text_18">
     <!-- HT -->
     <g transform="translate(547.96125 156.31875)scale(0.24 -0.24)">
      <defs>
       <path d="M 628 4666 
L 1259 4666 
L 1259 2753 
L 3553 2753 
L 3553 4666 
L 4184 4666 
L 4184 0 
L 3553 0 
L 3553 2222 
L 1259 2222 
L 1259 0 
L 628 0 
L 628 4666 
z
" id="DejaVuSans-48" transform="scale(0.015625)"/>
       <path d="M -19 4666 
L 3928 4666 
L 3928 4134 
L 2272 4134 
L 2272 0 
L 1638 0 
L 1638 4134 
L -19 4134 
L -19 4666 
z
" id="DejaVuSans-54" transform="scale(0.015625)"/>
      </defs>
      <use xlink:href="#DejaVuSans-48"/>
      <use x="75.195312" xlink:href="#DejaVuSans-54"/>
     </g>
    </g>
   </g>
  </g>
 </g>
 <defs>
  <clipPath id="p77d21965c5">
   <rect height="496.945" width="618.3625" x="60.2975" y="10.8"/>
  </clipPath>
 </defs>
</svg>
