<?xml version="1.0" encoding="utf-8" standalone="no"?>
<!DOCTYPE svg PUBLIC "-//W3C//DTD SVG 1.1//EN"
  "http://www.w3.org/Graphics/SVG/1.1/DTD/svg11.dtd">
<svg height="576pt" version="1.1" viewBox="0 0 720 576" width="720pt" xmlns="http://www.w3.org/2000/svg" xmlns:xlink="http://www.w3.org/1999/xlink">
 <metadata>
  <rdf:RDF xmlns:cc="http://creativecommons.org/ns#" xmlns:dc="http://purl.org/dc/elements/1.1/" xmlns:rdf="http://www.w3.org/1999/02/22-rdf-syntax-ns#">
   <cc:Work>
    <dc:type rdf:resource="http://purl.org/dc/dcmitype/StillImage"/>
    <dc:date>2021-07-31T19:10:01.623106</dc:date>
    <dc:format>image/svg+xml</dc:format>
    <dc:creator>
     <cc:Agent>
      <dc:title>Matplotlib v3.4.2, https://matplotlib.org/</dc:title>
     </cc:Agent>
    </dc:creator>
   </cc:Work>
  </rdf:RDF>
 </metadata>
 <defs>
  <style type="text/css">*{stroke-linecap:butt;stroke-linejoin:round;}</style>
 </defs>
 <g id="figure_1">
  <g id="patch_1">
   <path d="M 0 576 
L 720 576 
L 720 0 
L 0 0 
z
" style="fill:#ffffff;"/>
  </g>
  <g id="axes_1">
   <g id="patch_2">
    <path d="M 60.2975 507.745 
L 671.025 507.745 
L 671.025 14.607063 
L 60.2975 14.607063 
z
" style="fill:#ffffff;"/>
   </g>
   <g id="matplotlib.axis_1">
    <g id="xtick_1">
     <g id="line2d_1">
      <defs>
       <path d="M 0 0 
L 0 3.5 
" id="mca74d05b64" style="stroke:#000000;stroke-width:0.8;"/>
      </defs>
      <g>
       <use style="stroke:#000000;stroke-width:0.8;" x="60.2975" xlink:href="#mca74d05b64" y="507.745"/>
      </g>
     </g>
     <g id="text_1">
      <!-- 0 -->
      <g transform="translate(52.6625 532.98125)scale(0.24 -0.24)">
       <defs>
        <path d="M 2034 4250 
Q 1547 4250 1301 3770 
Q 1056 3291 1056 2328 
Q 1056 1369 1301 889 
Q 1547 409 2034 409 
Q 2525 409 2770 889 
Q 3016 1369 3016 2328 
Q 3016 3291 2770 3770 
Q 2525 4250 2034 4250 
z
M 2034 4750 
Q 2819 4750 3233 4129 
Q 3647 3509 3647 2328 
Q 3647 1150 3233 529 
Q 2819 -91 2034 -91 
Q 1250 -91 836 529 
Q 422 1150 422 2328 
Q 422 3509 836 4129 
Q 1250 4750 2034 4750 
z
" id="DejaVuSans-30" transform="scale(0.015625)"/>
       </defs>
       <use xlink:href="#DejaVuSans-30"/>
      </g>
     </g>
    </g>
    <g id="xtick_2">
     <g id="line2d_2">
      <g>
       <use style="stroke:#000000;stroke-width:0.8;" x="182.443" xlink:href="#mca74d05b64" y="507.745"/>
      </g>
     </g>
     <g id="text_2">
      <!-- 2000 -->
      <g transform="translate(151.903 532.98125)scale(0.24 -0.24)">
       <defs>
        <path d="M 1228 531 
L 3431 531 
L 3431 0 
L 469 0 
L 469 531 
Q 828 903 1448 1529 
Q 2069 2156 2228 2338 
Q 2531 2678 2651 2914 
Q 2772 3150 2772 3378 
Q 2772 3750 2511 3984 
Q 2250 4219 1831 4219 
Q 1534 4219 1204 4116 
Q 875 4013 500 3803 
L 500 4441 
Q 881 4594 1212 4672 
Q 1544 4750 1819 4750 
Q 2544 4750 2975 4387 
Q 3406 4025 3406 3419 
Q 3406 3131 3298 2873 
Q 3191 2616 2906 2266 
Q 2828 2175 2409 1742 
Q 1991 1309 1228 531 
z
" id="DejaVuSans-32" transform="scale(0.015625)"/>
       </defs>
       <use xlink:href="#DejaVuSans-32"/>
       <use x="63.623047" xlink:href="#DejaVuSans-30"/>
       <use x="127.246094" xlink:href="#DejaVuSans-30"/>
       <use x="190.869141" xlink:href="#DejaVuSans-30"/>
      </g>
     </g>
    </g>
    <g id="xtick_3">
     <g id="line2d_3">
      <g>
       <use style="stroke:#000000;stroke-width:0.8;" x="304.5885" xlink:href="#mca74d05b64" y="507.745"/>
      </g>
     </g>
     <g id="text_3">
      <!-- 4000 -->
      <g transform="translate(274.0485 532.98125)scale(0.24 -0.24)">
       <defs>
        <path d="M 2419 4116 
L 825 1625 
L 2419 1625 
L 2419 4116 
z
M 2253 4666 
L 3047 4666 
L 3047 1625 
L 3713 1625 
L 3713 1100 
L 3047 1100 
L 3047 0 
L 2419 0 
L 2419 1100 
L 313 1100 
L 313 1709 
L 2253 4666 
z
" id="DejaVuSans-34" transform="scale(0.015625)"/>
       </defs>
       <use xlink:href="#DejaVuSans-34"/>
       <use x="63.623047" xlink:href="#DejaVuSans-30"/>
       <use x="127.246094" xlink:href="#DejaVuSans-30"/>
       <use x="190.869141" xlink:href="#DejaVuSans-30"/>
      </g>
     </g>
    </g>
    <g id="xtick_4">
     <g id="line2d_4">
      <g>
       <use style="stroke:#000000;stroke-width:0.8;" x="426.734" xlink:href="#mca74d05b64" y="507.745"/>
      </g>
     </g>
     <g id="text_4">
      <!-- 6000 -->
      <g transform="translate(396.194 532.98125)scale(0.24 -0.24)">
       <defs>
        <path d="M 2113 2584 
Q 1688 2584 1439 2293 
Q 1191 2003 1191 1497 
Q 1191 994 1439 701 
Q 1688 409 2113 409 
Q 2538 409 2786 701 
Q 3034 994 3034 1497 
Q 3034 2003 2786 2293 
Q 2538 2584 2113 2584 
z
M 3366 4563 
L 3366 3988 
Q 3128 4100 2886 4159 
Q 2644 4219 2406 4219 
Q 1781 4219 1451 3797 
Q 1122 3375 1075 2522 
Q 1259 2794 1537 2939 
Q 1816 3084 2150 3084 
Q 2853 3084 3261 2657 
Q 3669 2231 3669 1497 
Q 3669 778 3244 343 
Q 2819 -91 2113 -91 
Q 1303 -91 875 529 
Q 447 1150 447 2328 
Q 447 3434 972 4092 
Q 1497 4750 2381 4750 
Q 2619 4750 2861 4703 
Q 3103 4656 3366 4563 
z
" id="DejaVuSans-36" transform="scale(0.015625)"/>
       </defs>
       <use xlink:href="#DejaVuSans-36"/>
       <use x="63.623047" xlink:href="#DejaVuSans-30"/>
       <use x="127.246094" xlink:href="#DejaVuSans-30"/>
       <use x="190.869141" xlink:href="#DejaVuSans-30"/>
      </g>
     </g>
    </g>
    <g id="xtick_5">
     <g id="line2d_5">
      <g>
       <use style="stroke:#000000;stroke-width:0.8;" x="548.8795" xlink:href="#mca74d05b64" y="507.745"/>
      </g>
     </g>
     <g id="text_5">
      <!-- 8000 -->
      <g transform="translate(518.3395 532.98125)scale(0.24 -0.24)">
       <defs>
        <path d="M 2034 2216 
Q 1584 2216 1326 1975 
Q 1069 1734 1069 1313 
Q 1069 891 1326 650 
Q 1584 409 2034 409 
Q 2484 409 2743 651 
Q 3003 894 3003 1313 
Q 3003 1734 2745 1975 
Q 2488 2216 2034 2216 
z
M 1403 2484 
Q 997 2584 770 2862 
Q 544 3141 544 3541 
Q 544 4100 942 4425 
Q 1341 4750 2034 4750 
Q 2731 4750 3128 4425 
Q 3525 4100 3525 3541 
Q 3525 3141 3298 2862 
Q 3072 2584 2669 2484 
Q 3125 2378 3379 2068 
Q 3634 1759 3634 1313 
Q 3634 634 3220 271 
Q 2806 -91 2034 -91 
Q 1263 -91 848 271 
Q 434 634 434 1313 
Q 434 1759 690 2068 
Q 947 2378 1403 2484 
z
M 1172 3481 
Q 1172 3119 1398 2916 
Q 1625 2713 2034 2713 
Q 2441 2713 2670 2916 
Q 2900 3119 2900 3481 
Q 2900 3844 2670 4047 
Q 2441 4250 2034 4250 
Q 1625 4250 1398 4047 
Q 1172 3844 1172 3481 
z
" id="DejaVuSans-38" transform="scale(0.015625)"/>
       </defs>
       <use xlink:href="#DejaVuSans-38"/>
       <use x="63.623047" xlink:href="#DejaVuSans-30"/>
       <use x="127.246094" xlink:href="#DejaVuSans-30"/>
       <use x="190.869141" xlink:href="#DejaVuSans-30"/>
      </g>
     </g>
    </g>
    <g id="xtick_6">
     <g id="line2d_6">
      <g>
       <use style="stroke:#000000;stroke-width:0.8;" x="671.025" xlink:href="#mca74d05b64" y="507.745"/>
      </g>
     </g>
     <g id="text_6">
      <!-- 10000 -->
      <g transform="translate(632.85 532.98125)scale(0.24 -0.24)">
       <defs>
        <path d="M 794 531 
L 1825 531 
L 1825 4091 
L 703 3866 
L 703 4441 
L 1819 4666 
L 2450 4666 
L 2450 531 
L 3481 531 
L 3481 0 
L 794 0 
L 794 531 
z
" id="DejaVuSans-31" transform="scale(0.015625)"/>
       </defs>
       <use xlink:href="#DejaVuSans-31"/>
       <use x="63.623047" xlink:href="#DejaVuSans-30"/>
       <use x="127.246094" xlink:href="#DejaVuSans-30"/>
       <use x="190.869141" xlink:href="#DejaVuSans-30"/>
       <use x="254.492188" xlink:href="#DejaVuSans-30"/>
      </g>
     </g>
    </g>
    <g id="text_7">
     <!-- iterations -->
     <g transform="translate(308.715625 560.20875)scale(0.24 -0.24)">
      <defs>
       <path d="M 603 3500 
L 1178 3500 
L 1178 0 
L 603 0 
L 603 3500 
z
M 603 4863 
L 1178 4863 
L 1178 4134 
L 603 4134 
L 603 4863 
z
" id="DejaVuSans-69" transform="scale(0.015625)"/>
       <path d="M 1172 4494 
L 1172 3500 
L 2356 3500 
L 2356 3053 
L 1172 3053 
L 1172 1153 
Q 1172 725 1289 603 
Q 1406 481 1766 481 
L 2356 481 
L 2356 0 
L 1766 0 
Q 1100 0 847 248 
Q 594 497 594 1153 
L 594 3053 
L 172 3053 
L 172 3500 
L 594 3500 
L 594 4494 
L 1172 4494 
z
" id="DejaVuSans-74" transform="scale(0.015625)"/>
       <path d="M 3597 1894 
L 3597 1613 
L 953 1613 
Q 991 1019 1311 708 
Q 1631 397 2203 397 
Q 2534 397 2845 478 
Q 3156 559 3463 722 
L 3463 178 
Q 3153 47 2828 -22 
Q 2503 -91 2169 -91 
Q 1331 -91 842 396 
Q 353 884 353 1716 
Q 353 2575 817 3079 
Q 1281 3584 2069 3584 
Q 2775 3584 3186 3129 
Q 3597 2675 3597 1894 
z
M 3022 2063 
Q 3016 2534 2758 2815 
Q 2500 3097 2075 3097 
Q 1594 3097 1305 2825 
Q 1016 2553 972 2059 
L 3022 2063 
z
" id="DejaVuSans-65" transform="scale(0.015625)"/>
       <path d="M 2631 2963 
Q 2534 3019 2420 3045 
Q 2306 3072 2169 3072 
Q 1681 3072 1420 2755 
Q 1159 2438 1159 1844 
L 1159 0 
L 581 0 
L 581 3500 
L 1159 3500 
L 1159 2956 
Q 1341 3275 1631 3429 
Q 1922 3584 2338 3584 
Q 2397 3584 2469 3576 
Q 2541 3569 2628 3553 
L 2631 2963 
z
" id="DejaVuSans-72" transform="scale(0.015625)"/>
       <path d="M 2194 1759 
Q 1497 1759 1228 1600 
Q 959 1441 959 1056 
Q 959 750 1161 570 
Q 1363 391 1709 391 
Q 2188 391 2477 730 
Q 2766 1069 2766 1631 
L 2766 1759 
L 2194 1759 
z
M 3341 1997 
L 3341 0 
L 2766 0 
L 2766 531 
Q 2569 213 2275 61 
Q 1981 -91 1556 -91 
Q 1019 -91 701 211 
Q 384 513 384 1019 
Q 384 1609 779 1909 
Q 1175 2209 1959 2209 
L 2766 2209 
L 2766 2266 
Q 2766 2663 2505 2880 
Q 2244 3097 1772 3097 
Q 1472 3097 1187 3025 
Q 903 2953 641 2809 
L 641 3341 
Q 956 3463 1253 3523 
Q 1550 3584 1831 3584 
Q 2591 3584 2966 3190 
Q 3341 2797 3341 1997 
z
" id="DejaVuSans-61" transform="scale(0.015625)"/>
       <path d="M 1959 3097 
Q 1497 3097 1228 2736 
Q 959 2375 959 1747 
Q 959 1119 1226 758 
Q 1494 397 1959 397 
Q 2419 397 2687 759 
Q 2956 1122 2956 1747 
Q 2956 2369 2687 2733 
Q 2419 3097 1959 3097 
z
M 1959 3584 
Q 2709 3584 3137 3096 
Q 3566 2609 3566 1747 
Q 3566 888 3137 398 
Q 2709 -91 1959 -91 
Q 1206 -91 779 398 
Q 353 888 353 1747 
Q 353 2609 779 3096 
Q 1206 3584 1959 3584 
z
" id="DejaVuSans-6f" transform="scale(0.015625)"/>
       <path d="M 3513 2113 
L 3513 0 
L 2938 0 
L 2938 2094 
Q 2938 2591 2744 2837 
Q 2550 3084 2163 3084 
Q 1697 3084 1428 2787 
Q 1159 2491 1159 1978 
L 1159 0 
L 581 0 
L 581 3500 
L 1159 3500 
L 1159 2956 
Q 1366 3272 1645 3428 
Q 1925 3584 2291 3584 
Q 2894 3584 3203 3211 
Q 3513 2838 3513 2113 
z
" id="DejaVuSans-6e" transform="scale(0.015625)"/>
       <path d="M 2834 3397 
L 2834 2853 
Q 2591 2978 2328 3040 
Q 2066 3103 1784 3103 
Q 1356 3103 1142 2972 
Q 928 2841 928 2578 
Q 928 2378 1081 2264 
Q 1234 2150 1697 2047 
L 1894 2003 
Q 2506 1872 2764 1633 
Q 3022 1394 3022 966 
Q 3022 478 2636 193 
Q 2250 -91 1575 -91 
Q 1294 -91 989 -36 
Q 684 19 347 128 
L 347 722 
Q 666 556 975 473 
Q 1284 391 1588 391 
Q 1994 391 2212 530 
Q 2431 669 2431 922 
Q 2431 1156 2273 1281 
Q 2116 1406 1581 1522 
L 1381 1569 
Q 847 1681 609 1914 
Q 372 2147 372 2553 
Q 372 3047 722 3315 
Q 1072 3584 1716 3584 
Q 2034 3584 2315 3537 
Q 2597 3491 2834 3397 
z
" id="DejaVuSans-73" transform="scale(0.015625)"/>
      </defs>
      <use xlink:href="#DejaVuSans-69"/>
      <use x="27.783203" xlink:href="#DejaVuSans-74"/>
      <use x="66.992188" xlink:href="#DejaVuSans-65"/>
      <use x="128.515625" xlink:href="#DejaVuSans-72"/>
      <use x="169.628906" xlink:href="#DejaVuSans-61"/>
      <use x="230.908203" xlink:href="#DejaVuSans-74"/>
      <use x="270.117188" xlink:href="#DejaVuSans-69"/>
      <use x="297.900391" xlink:href="#DejaVuSans-6f"/>
      <use x="359.082031" xlink:href="#DejaVuSans-6e"/>
      <use x="422.460938" xlink:href="#DejaVuSans-73"/>
     </g>
    </g>
   </g>
   <g id="matplotlib.axis_2">
    <g id="ytick_1">
     <g id="line2d_7">
      <defs>
       <path d="M 0 0 
L -3.5 0 
" id="mea47e85a44" style="stroke:#000000;stroke-width:0.8;"/>
      </defs>
      <g>
       <use style="stroke:#000000;stroke-width:0.8;" x="60.2975" xlink:href="#mea47e85a44" y="491.144596"/>
      </g>
     </g>
     <g id="text_8">
      <!-- 0 -->
      <g transform="translate(38.0275 500.262721)scale(0.24 -0.24)">
       <use xlink:href="#DejaVuSans-30"/>
      </g>
     </g>
    </g>
    <g id="ytick_2">
     <g id="line2d_8">
      <g>
       <use style="stroke:#000000;stroke-width:0.8;" x="60.2975" xlink:href="#mea47e85a44" y="412.609203"/>
      </g>
     </g>
     <g id="text_9">
      <!-- 1 -->
      <g transform="translate(38.0275 421.727328)scale(0.24 -0.24)">
       <use xlink:href="#DejaVuSans-31"/>
      </g>
     </g>
    </g>
    <g id="ytick_3">
     <g id="line2d_9">
      <g>
       <use style="stroke:#000000;stroke-width:0.8;" x="60.2975" xlink:href="#mea47e85a44" y="334.07381"/>
      </g>
     </g>
     <g id="text_10">
      <!-- 2 -->
      <g transform="translate(38.0275 343.191935)scale(0.24 -0.24)">
       <use xlink:href="#DejaVuSans-32"/>
      </g>
     </g>
    </g>
    <g id="ytick_4">
     <g id="line2d_10">
      <g>
       <use style="stroke:#000000;stroke-width:0.8;" x="60.2975" xlink:href="#mea47e85a44" y="255.538417"/>
      </g>
     </g>
     <g id="text_11">
      <!-- 3 -->
      <g transform="translate(38.0275 264.656542)scale(0.24 -0.24)">
       <defs>
        <path d="M 2597 2516 
Q 3050 2419 3304 2112 
Q 3559 1806 3559 1356 
Q 3559 666 3084 287 
Q 2609 -91 1734 -91 
Q 1441 -91 1130 -33 
Q 819 25 488 141 
L 488 750 
Q 750 597 1062 519 
Q 1375 441 1716 441 
Q 2309 441 2620 675 
Q 2931 909 2931 1356 
Q 2931 1769 2642 2001 
Q 2353 2234 1838 2234 
L 1294 2234 
L 1294 2753 
L 1863 2753 
Q 2328 2753 2575 2939 
Q 2822 3125 2822 3475 
Q 2822 3834 2567 4026 
Q 2313 4219 1838 4219 
Q 1578 4219 1281 4162 
Q 984 4106 628 3988 
L 628 4550 
Q 988 4650 1302 4700 
Q 1616 4750 1894 4750 
Q 2613 4750 3031 4423 
Q 3450 4097 3450 3541 
Q 3450 3153 3228 2886 
Q 3006 2619 2597 2516 
z
" id="DejaVuSans-33" transform="scale(0.015625)"/>
       </defs>
       <use xlink:href="#DejaVuSans-33"/>
      </g>
     </g>
    </g>
    <g id="ytick_5">
     <g id="line2d_11">
      <g>
       <use style="stroke:#000000;stroke-width:0.8;" x="60.2975" xlink:href="#mea47e85a44" y="177.003024"/>
      </g>
     </g>
     <g id="text_12">
      <!-- 4 -->
      <g transform="translate(38.0275 186.121149)scale(0.24 -0.24)">
       <use xlink:href="#DejaVuSans-34"/>
      </g>
     </g>
    </g>
    <g id="ytick_6">
     <g id="line2d_12">
      <g>
       <use style="stroke:#000000;stroke-width:0.8;" x="60.2975" xlink:href="#mea47e85a44" y="98.467631"/>
      </g>
     </g>
     <g id="text_13">
      <!-- 5 -->
      <g transform="translate(38.0275 107.585756)scale(0.24 -0.24)">
       <defs>
        <path d="M 691 4666 
L 3169 4666 
L 3169 4134 
L 1269 4134 
L 1269 2991 
Q 1406 3038 1543 3061 
Q 1681 3084 1819 3084 
Q 2600 3084 3056 2656 
Q 3513 2228 3513 1497 
Q 3513 744 3044 326 
Q 2575 -91 1722 -91 
Q 1428 -91 1123 -41 
Q 819 9 494 109 
L 494 744 
Q 775 591 1075 516 
Q 1375 441 1709 441 
Q 2250 441 2565 725 
Q 2881 1009 2881 1497 
Q 2881 1984 2565 2268 
Q 2250 2553 1709 2553 
Q 1456 2553 1204 2497 
Q 953 2441 691 2322 
L 691 4666 
z
" id="DejaVuSans-35" transform="scale(0.015625)"/>
       </defs>
       <use xlink:href="#DejaVuSans-35"/>
      </g>
     </g>
    </g>
    <g id="ytick_7">
     <g id="line2d_13">
      <g>
       <use style="stroke:#000000;stroke-width:0.8;" x="60.2975" xlink:href="#mea47e85a44" y="19.932237"/>
      </g>
     </g>
     <g id="text_14">
      <!-- 6 -->
      <g transform="translate(38.0275 29.050362)scale(0.24 -0.24)">
       <use xlink:href="#DejaVuSans-36"/>
      </g>
     </g>
    </g>
    <g id="text_15">
     <!-- VQE energy -->
     <g transform="translate(29.03625 332.043532)rotate(-90)scale(0.24 -0.24)">
      <defs>
       <path d="M 1831 0 
L 50 4666 
L 709 4666 
L 2188 738 
L 3669 4666 
L 4325 4666 
L 2547 0 
L 1831 0 
z
" id="DejaVuSans-56" transform="scale(0.015625)"/>
       <path d="M 2522 4238 
Q 1834 4238 1429 3725 
Q 1025 3213 1025 2328 
Q 1025 1447 1429 934 
Q 1834 422 2522 422 
Q 3209 422 3611 934 
Q 4013 1447 4013 2328 
Q 4013 3213 3611 3725 
Q 3209 4238 2522 4238 
z
M 3406 84 
L 4238 -825 
L 3475 -825 
L 2784 -78 
Q 2681 -84 2626 -87 
Q 2572 -91 2522 -91 
Q 1538 -91 948 567 
Q 359 1225 359 2328 
Q 359 3434 948 4092 
Q 1538 4750 2522 4750 
Q 3503 4750 4090 4092 
Q 4678 3434 4678 2328 
Q 4678 1516 4351 937 
Q 4025 359 3406 84 
z
" id="DejaVuSans-51" transform="scale(0.015625)"/>
       <path d="M 628 4666 
L 3578 4666 
L 3578 4134 
L 1259 4134 
L 1259 2753 
L 3481 2753 
L 3481 2222 
L 1259 2222 
L 1259 531 
L 3634 531 
L 3634 0 
L 628 0 
L 628 4666 
z
" id="DejaVuSans-45" transform="scale(0.015625)"/>
       <path id="DejaVuSans-20" transform="scale(0.015625)"/>
       <path d="M 2906 1791 
Q 2906 2416 2648 2759 
Q 2391 3103 1925 3103 
Q 1463 3103 1205 2759 
Q 947 2416 947 1791 
Q 947 1169 1205 825 
Q 1463 481 1925 481 
Q 2391 481 2648 825 
Q 2906 1169 2906 1791 
z
M 3481 434 
Q 3481 -459 3084 -895 
Q 2688 -1331 1869 -1331 
Q 1566 -1331 1297 -1286 
Q 1028 -1241 775 -1147 
L 775 -588 
Q 1028 -725 1275 -790 
Q 1522 -856 1778 -856 
Q 2344 -856 2625 -561 
Q 2906 -266 2906 331 
L 2906 616 
Q 2728 306 2450 153 
Q 2172 0 1784 0 
Q 1141 0 747 490 
Q 353 981 353 1791 
Q 353 2603 747 3093 
Q 1141 3584 1784 3584 
Q 2172 3584 2450 3431 
Q 2728 3278 2906 2969 
L 2906 3500 
L 3481 3500 
L 3481 434 
z
" id="DejaVuSans-67" transform="scale(0.015625)"/>
       <path d="M 2059 -325 
Q 1816 -950 1584 -1140 
Q 1353 -1331 966 -1331 
L 506 -1331 
L 506 -850 
L 844 -850 
Q 1081 -850 1212 -737 
Q 1344 -625 1503 -206 
L 1606 56 
L 191 3500 
L 800 3500 
L 1894 763 
L 2988 3500 
L 3597 3500 
L 2059 -325 
z
" id="DejaVuSans-79" transform="scale(0.015625)"/>
      </defs>
      <use xlink:href="#DejaVuSans-56"/>
      <use x="68.408203" xlink:href="#DejaVuSans-51"/>
      <use x="147.119141" xlink:href="#DejaVuSans-45"/>
      <use x="210.302734" xlink:href="#DejaVuSans-20"/>
      <use x="242.089844" xlink:href="#DejaVuSans-65"/>
      <use x="303.613281" xlink:href="#DejaVuSans-6e"/>
      <use x="366.992188" xlink:href="#DejaVuSans-65"/>
      <use x="428.515625" xlink:href="#DejaVuSans-72"/>
      <use x="467.878906" xlink:href="#DejaVuSans-67"/>
      <use x="531.355469" xlink:href="#DejaVuSans-79"/>
     </g>
    </g>
   </g>
   <g id="line2d_14">
    <path clip-path="url(#p3443c9e959)" d="M 60.358573 48.520472 
L 60.419646 48.107533 
L 60.480718 43.941352 
L 60.541791 47.921839 
L 60.663936 37.022424 
L 60.786082 78.802986 
L 60.847155 76.284573 
L 60.908228 69.766407 
L 61.091446 80.218374 
L 61.152518 71.355493 
L 61.213591 80.471245 
L 61.274664 61.196702 
L 61.335737 69.468553 
L 61.518955 87.628955 
L 61.580028 89.423273 
L 61.641101 87.069246 
L 61.763246 103.941662 
L 62.007537 70.667627 
L 62.129683 107.704886 
L 62.190755 108.761717 
L 62.435046 91.378837 
L 62.74041 121.967057 
L 62.801483 123.27898 
L 62.862555 110.769958 
L 62.923628 111.480953 
L 62.984701 127.986193 
L 63.045774 97.925688 
L 63.106847 114.067688 
L 63.228992 138.900453 
L 63.351138 128.054536 
L 63.41221 138.76876 
L 63.534356 111.00809 
L 63.717574 137.130816 
L 63.778647 133.479563 
L 63.83972 141.647225 
L 63.900792 135.83576 
L 64.022938 130.015127 
L 64.206156 105.109271 
L 64.389374 163.711096 
L 64.450447 161.559941 
L 64.633665 148.45467 
L 64.694738 164.052336 
L 64.755811 141.226757 
L 64.816884 149.485614 
L 64.877956 143.999016 
L 64.939029 146.650251 
L 65.000102 158.694859 
L 65.061174 156.177215 
L 65.18332 116.621274 
L 65.244393 156.243238 
L 65.305465 128.909801 
L 65.427611 154.751287 
L 65.549757 150.269635 
L 65.610829 159.385935 
L 65.85512 123.861649 
L 65.977266 162.451293 
L 66.099411 143.856504 
L 66.160484 166.438499 
L 66.221557 158.728709 
L 66.282629 159.103561 
L 66.343702 158.33536 
L 66.404775 155.375131 
L 66.587993 166.428256 
L 66.649066 166.375076 
L 66.710139 164.248423 
L 66.771211 164.701621 
L 66.95443 170.04391 
L 67.015502 198.822502 
L 67.076575 163.901775 
L 67.137648 190.138096 
L 67.198721 196.820986 
L 67.259794 193.887877 
L 67.443012 166.449191 
L 67.504085 189.168291 
L 67.565157 157.955613 
L 67.62623 209.701427 
L 67.687303 196.197886 
L 67.748375 209.776664 
L 67.809448 205.585046 
L 67.870521 209.74384 
L 67.931594 196.353534 
L 67.992666 208.146779 
L 68.053739 184.248007 
L 68.114812 212.771405 
L 68.175885 174.957191 
L 68.236958 210.984743 
L 68.29803 203.453356 
L 68.359103 212.570546 
L 68.542321 185.435024 
L 68.603394 204.996518 
L 68.664467 187.477652 
L 68.725539 214.138713 
L 68.786612 203.552837 
L 68.847685 213.277609 
L 68.908758 161.875641 
L 68.969831 201.369384 
L 69.091976 212.619691 
L 69.153049 172.857822 
L 69.214122 207.123537 
L 69.275194 196.737248 
L 69.39734 216.054267 
L 69.458412 203.973454 
L 69.519485 205.621351 
L 69.580558 210.441019 
L 69.641631 176.130441 
L 69.702703 221.773164 
L 69.763776 196.649179 
L 69.885922 225.638966 
L 70.008067 222.716921 
L 70.06914 223.396242 
L 70.130213 194.022023 
L 70.191285 213.427719 
L 70.313431 228.453359 
L 70.374504 226.592926 
L 70.435576 223.421972 
L 70.496649 201.915962 
L 70.557722 224.309365 
L 70.618795 224.026518 
L 70.679868 228.344959 
L 70.74094 218.026376 
L 70.802013 223.825192 
L 70.863086 221.370696 
L 70.924159 223.971549 
L 70.985231 209.115977 
L 71.046304 215.849955 
L 71.107377 211.566064 
L 71.290595 226.562211 
L 71.351668 225.26038 
L 71.41274 216.039217 
L 71.473813 228.554427 
L 71.534886 226.405523 
L 71.595959 226.274409 
L 71.657032 229.775968 
L 71.718104 210.671015 
L 71.779177 229.457963 
L 71.84025 219.456349 
L 71.901322 223.220239 
L 71.962395 207.31046 
L 72.145613 230.614636 
L 72.206686 223.750227 
L 72.328832 233.376206 
L 72.450977 216.000771 
L 72.51205 242.096404 
L 72.573123 214.541289 
L 72.634196 238.085038 
L 72.695268 225.963341 
L 72.756341 238.526854 
L 72.817414 234.715455 
L 72.878486 234.355377 
L 73.061705 244.589378 
L 73.122777 243.617841 
L 73.18385 239.522428 
L 73.244923 244.1774 
L 73.305996 242.965778 
L 73.428141 240.228504 
L 73.61136 244.846781 
L 73.672432 221.182123 
L 73.733505 236.783698 
L 73.916723 213.366244 
L 73.977796 242.568455 
L 74.038869 233.656529 
L 74.099941 239.470279 
L 74.28316 216.991864 
L 74.344233 224.921355 
L 74.405305 215.648307 
L 74.588523 247.58957 
L 74.771742 219.061535 
L 74.95496 248.83967 
L 75.016033 214.46493 
L 75.077106 237.495981 
L 75.138178 252.761932 
L 75.199251 250.481806 
L 75.260324 213.699265 
L 75.321397 251.073273 
L 75.382469 239.411917 
L 75.443542 253.540484 
L 75.504615 242.623142 
L 75.565687 255.544615 
L 75.62676 226.100285 
L 75.687833 241.883878 
L 75.748906 242.541261 
L 75.809978 246.979428 
L 75.871051 218.13637 
L 75.932124 236.793449 
L 75.993197 258.223854 
L 76.05427 253.750897 
L 76.115342 253.39545 
L 76.176415 247.469768 
L 76.237488 221.590826 
L 76.420706 262.75502 
L 76.481779 260.460498 
L 76.542851 261.197216 
L 76.603924 250.261769 
L 76.664997 257.915435 
L 76.787143 256.281515 
L 76.970361 259.81427 
L 77.031433 259.647074 
L 77.153579 246.57744 
L 77.275724 262.044746 
L 77.336797 230.667655 
L 77.39787 261.087998 
L 77.458943 259.565914 
L 77.581088 256.246688 
L 77.642161 257.376462 
L 77.703234 244.278437 
L 77.886452 257.162325 
L 77.947525 242.567137 
L 78.008598 261.698052 
L 78.06967 255.948379 
L 78.130743 256.037289 
L 78.191816 257.979934 
L 78.313961 247.787922 
L 78.375034 259.951021 
L 78.436107 255.2172 
L 78.49718 251.204513 
L 78.558252 267.863544 
L 78.619325 261.108053 
L 78.680398 240.059414 
L 78.74147 263.205805 
L 78.802543 244.79225 
L 78.863616 259.054977 
L 78.924689 244.210809 
L 78.985761 269.579589 
L 79.046834 252.518062 
L 79.16898 270.159151 
L 79.230052 268.480939 
L 79.413271 241.544795 
L 79.596489 275.057516 
L 79.657562 257.884304 
L 79.718635 276.250589 
L 79.779707 267.840676 
L 79.84078 277.422226 
L 79.901853 276.484857 
L 79.962925 275.859437 
L 80.146144 236.707904 
L 80.207217 268.962226 
L 80.268289 242.268661 
L 80.329362 282.819638 
L 80.390435 270.403306 
L 80.451508 281.059891 
L 80.51258 234.408715 
L 80.573653 264.697973 
L 80.634726 262.104213 
L 80.695798 281.062268 
L 80.756871 247.690097 
L 80.817944 288.212722 
L 80.879017 248.231913 
L 80.940089 286.329288 
L 81.001162 240.596177 
L 81.062235 287.816211 
L 81.123308 258.916738 
L 81.245453 289.884168 
L 81.367599 279.611281 
L 81.428672 289.994234 
L 81.489744 242.112555 
L 81.550817 283.611732 
L 81.61189 254.938558 
L 81.672962 274.695602 
L 81.734035 244.21604 
L 81.795108 269.108309 
L 81.856181 268.876014 
L 81.917254 281.936905 
L 81.978326 253.975082 
L 82.100472 286.121758 
L 82.161545 288.167354 
L 82.222617 271.157513 
L 82.28369 286.978308 
L 82.344763 244.581345 
L 82.405835 289.586197 
L 82.466908 246.828754 
L 82.527981 291.550214 
L 82.589054 247.713021 
L 82.650126 281.179626 
L 82.711199 273.201161 
L 82.772272 278.671829 
L 82.833345 272.996661 
L 82.894418 283.94887 
L 82.95549 277.972843 
L 83.016563 281.383922 
L 83.077636 277.459877 
L 83.199781 288.386183 
L 83.382999 276.089032 
L 83.444072 302.802694 
L 83.505145 297.908698 
L 83.566218 298.887799 
L 83.627291 310.29299 
L 83.688363 307.107825 
L 83.810509 314.978908 
L 83.871582 306.668517 
L 83.932654 275.627773 
L 83.993727 302.486394 
L 84.0548 277.545621 
L 84.238018 313.671935 
L 84.421236 280.468317 
L 84.482309 324.98903 
L 84.543382 315.547734 
L 84.604455 317.747394 
L 84.665527 289.328587 
L 84.7266 322.799823 
L 84.787673 305.626227 
L 84.970891 327.246623 
L 85.031964 299.687127 
L 85.093036 322.448154 
L 85.154109 311.066046 
L 85.215182 313.455364 
L 85.276255 294.228201 
L 85.337328 318.276379 
L 85.3984 295.334499 
L 85.459473 325.210234 
L 85.520546 292.452023 
L 85.581619 317.77479 
L 85.642691 312.054433 
L 85.703764 330.434545 
L 85.886982 296.909476 
L 85.948055 326.230046 
L 86.009128 292.039961 
L 86.0702 324.146882 
L 86.131273 307.690615 
L 86.192346 318.187694 
L 86.253419 308.908013 
L 86.314492 329.828872 
L 86.375564 285.79165 
L 86.436637 327.219128 
L 86.49771 299.584633 
L 86.558783 326.493232 
L 86.619855 311.320811 
L 86.680928 311.8534 
L 86.742001 305.67939 
L 86.803073 331.309531 
L 86.864146 317.337677 
L 86.925219 323.386791 
L 86.986292 317.170001 
L 87.047365 329.511605 
L 87.108437 288.787133 
L 87.16951 319.078277 
L 87.230583 303.655943 
L 87.291656 329.81146 
L 87.352728 271.239354 
L 87.413801 334.138479 
L 87.474874 316.096606 
L 87.597019 318.585945 
L 87.780237 343.695613 
L 87.84131 333.720233 
L 87.902383 342.384644 
L 87.963456 304.098032 
L 88.024529 319.600354 
L 88.085601 311.754678 
L 88.146674 328.222371 
L 88.207747 293.550565 
L 88.26882 341.010472 
L 88.329892 316.044023 
L 88.51311 339.005667 
L 88.574183 289.78642 
L 88.696329 347.004776 
L 88.757402 343.298871 
L 88.818474 318.834128 
L 88.879547 330.267352 
L 89.001693 343.109242 
L 89.062765 300.005563 
L 89.123838 341.1458 
L 89.184911 311.850928 
L 89.245983 336.800018 
L 89.307056 304.373111 
L 89.368129 345.102916 
L 89.429202 342.150845 
L 89.490274 347.003312 
L 89.551347 308.888489 
L 89.61242 346.648473 
L 89.673493 326.384981 
L 89.734566 332.129743 
L 89.795638 309.762823 
L 89.856711 342.938634 
L 89.917784 338.119552 
L 89.978857 346.769827 
L 90.039929 318.541542 
L 90.101002 320.814051 
L 90.223147 353.235472 
L 90.406366 320.229691 
L 90.467439 349.989658 
L 90.528511 341.254373 
L 90.589584 342.775887 
L 90.650657 332.804246 
L 90.71173 343.592709 
L 90.772802 313.368319 
L 90.833875 342.171417 
L 90.894948 328.089726 
L 91.078166 353.591516 
L 91.139239 346.6475 
L 91.200311 354.238833 
L 91.261384 319.9016 
L 91.322457 350.312517 
L 91.38353 328.51166 
L 91.444603 350.094556 
L 91.505675 323.78963 
L 91.566748 345.150695 
L 91.688894 350.460514 
L 91.749966 350.374483 
L 91.811039 349.297117 
L 91.872112 356.477367 
L 91.933184 351.233688 
L 91.994257 354.410753 
L 92.05533 350.366572 
L 92.238548 359.348548 
L 92.299621 352.64773 
L 92.421767 363.214332 
L 92.482839 361.265757 
L 92.543912 354.522539 
L 92.72713 365.641424 
L 92.910348 347.8775 
L 93.093567 363.88092 
L 93.15464 361.232921 
L 93.215712 364.065747 
L 93.276785 352.26139 
L 93.460003 368.907954 
L 93.521076 354.603506 
L 93.643222 369.287216 
L 93.704294 369.414349 
L 93.887512 362.471587 
L 94.009658 370.133635 
L 94.070731 363.857974 
L 94.131804 372.486148 
L 94.192876 372.118688 
L 94.376094 365.731402 
L 94.49824 373.356134 
L 94.559313 372.540409 
L 94.620385 373.065301 
L 94.742531 358.248942 
L 94.803604 374.121976 
L 94.864677 373.593877 
L 94.925749 374.055574 
L 94.986822 361.36433 
L 95.047895 375.58844 
L 95.108968 361.4952 
L 95.17004 371.724304 
L 95.231113 360.394714 
L 95.292186 375.716999 
L 95.353259 366.254249 
L 95.414331 374.671672 
L 95.475404 373.90431 
L 95.597549 370.216986 
L 95.658622 374.043943 
L 95.719695 356.879871 
L 95.780768 369.567476 
L 95.841841 370.487053 
L 95.902913 376.195478 
L 96.086131 365.739667 
L 96.26935 376.294694 
L 96.330422 370.410785 
L 96.391495 376.655814 
L 96.452568 374.229122 
L 96.513641 372.592818 
L 96.574714 373.272808 
L 96.635786 381.111126 
L 96.696859 372.433136 
L 96.757932 381.988053 
L 96.819005 370.650397 
L 96.880077 381.569918 
L 96.94115 379.731542 
L 97.002223 374.199486 
L 97.063296 374.368239 
L 97.246514 380.792974 
L 97.307586 367.91881 
L 97.368659 381.951435 
L 97.429732 379.940529 
L 97.490805 382.545711 
L 97.551878 382.282345 
L 97.674023 379.120438 
L 97.735096 381.109622 
L 97.796168 368.775684 
L 97.857241 377.140509 
L 98.040459 385.219103 
L 98.162605 379.085692 
L 98.223678 384.320308 
L 98.284751 381.981156 
L 98.345823 383.397042 
L 98.406896 390.264377 
L 98.467969 386.852304 
L 98.529042 388.878092 
L 98.590114 387.186431 
L 98.773333 394.986192 
L 98.834405 395.432655 
L 98.895478 378.225915 
L 98.956551 390.282481 
L 99.017623 384.616391 
L 99.139769 395.915914 
L 99.261915 391.196092 
L 99.322987 391.34724 
L 99.506205 400.254006 
L 99.567278 400.014536 
L 99.628351 390.923382 
L 99.689424 397.290112 
L 99.750496 389.860156 
L 99.933715 399.626001 
L 99.994788 390.081731 
L 100.05586 397.765618 
L 100.116933 399.823402 
L 100.178006 399.024741 
L 100.239079 386.682046 
L 100.300151 397.151383 
L 100.361224 396.385237 
L 100.422297 393.842876 
L 100.544442 398.921064 
L 100.605515 391.972406 
L 100.666588 397.705661 
L 100.72766 391.531687 
L 100.788733 394.152983 
L 100.849806 400.725939 
L 100.910879 396.505214 
L 100.971952 395.706621 
L 101.094097 401.189257 
L 101.15517 395.062475 
L 101.216242 395.151542 
L 101.277315 400.466343 
L 101.460533 375.9624 
L 101.582679 399.50147 
L 101.643752 397.108972 
L 101.82697 392.104935 
L 101.949116 402.252283 
L 102.010188 400.892847 
L 102.071261 389.320131 
L 102.132334 402.739406 
L 102.193407 399.499426 
L 102.315552 403.150516 
L 102.376625 402.569809 
L 102.437697 392.836472 
L 102.49877 402.913674 
L 102.559843 391.512178 
L 102.620916 402.1279 
L 102.681989 394.098085 
L 102.743061 403.448798 
L 102.804134 395.932891 
L 103.048425 408.56005 
L 103.231643 405.580374 
L 103.292716 407.369219 
L 103.353789 406.185268 
L 103.414862 397.684755 
L 103.475934 407.454264 
L 103.537007 406.346884 
L 103.59808 403.806308 
L 103.720225 409.874149 
L 103.903444 401.389247 
L 103.964516 410.128371 
L 104.025589 406.097826 
L 104.086662 411.192643 
L 104.147734 391.057039 
L 104.208807 408.182721 
L 104.26988 400.67721 
L 104.330953 408.055935 
L 104.392026 407.68524 
L 104.453098 403.22365 
L 104.514171 411.146207 
L 104.575244 411.026853 
L 104.636316 399.239683 
L 104.697389 413.004887 
L 104.758462 409.871316 
L 104.819535 404.023015 
L 104.94168 411.185661 
L 105.063826 403.202807 
L 105.124899 405.274114 
L 105.185971 414.152013 
L 105.247044 413.354125 
L 105.308117 411.704534 
L 105.36919 405.443416 
L 105.430262 407.968082 
L 105.491335 408.344585 
L 105.552408 414.597034 
L 105.613481 395.3198 
L 105.735626 413.313051 
L 105.796699 412.737311 
L 105.857771 405.083214 
L 105.918844 414.946318 
L 105.979917 410.550276 
L 106.04099 410.624817 
L 106.102063 401.703745 
L 106.163135 414.728844 
L 106.224208 407.782544 
L 106.285281 412.767783 
L 106.346353 402.184738 
L 106.407426 407.347472 
L 106.468499 412.672089 
L 106.529572 409.412592 
L 106.651717 414.90519 
L 106.773863 408.741263 
L 106.834936 416.393594 
L 106.896008 414.115509 
L 106.957081 402.310054 
L 107.018154 413.947899 
L 107.079227 410.781127 
L 107.140299 411.762542 
L 107.201372 409.952528 
L 107.262445 414.271918 
L 107.323518 413.086049 
L 107.445663 403.721587 
L 107.506736 419.760569 
L 107.567808 419.737247 
L 107.689954 409.726815 
L 107.751027 417.339998 
L 107.8121 412.145967 
L 107.873172 416.069036 
L 107.934245 414.42992 
L 107.995318 414.204566 
L 108.05639 418.569385 
L 108.117463 411.469411 
L 108.178536 413.753808 
L 108.239609 418.26301 
L 108.300681 404.197907 
L 108.361754 420.115631 
L 108.422827 402.40475 
L 108.4839 420.664589 
L 108.544973 412.388816 
L 108.606045 421.760288 
L 108.667118 418.670619 
L 108.728191 417.875631 
L 108.850336 420.1298 
L 108.911409 403.428224 
L 108.972482 416.065708 
L 109.033555 412.593036 
L 109.094627 417.133566 
L 109.1557 412.288992 
L 109.277845 422.334768 
L 109.338918 421.827592 
L 109.522137 413.457905 
L 109.583209 418.799148 
L 109.644282 408.58314 
L 109.705355 422.568928 
L 109.766427 414.310965 
L 109.8275 421.02207 
L 109.888573 406.63901 
L 109.949646 423.281765 
L 110.010718 413.324328 
L 110.071791 422.503562 
L 110.132864 413.23661 
L 110.193937 428.05334 
L 110.255009 408.208506 
L 110.316082 428.768387 
L 110.377155 418.521411 
L 110.438228 428.471461 
L 110.499301 415.106131 
L 110.560373 427.630799 
L 110.621446 419.774868 
L 110.682519 424.856406 
L 110.743592 418.280339 
L 110.804664 426.529984 
L 110.865737 418.315906 
L 110.92681 427.92382 
L 110.987882 426.952478 
L 111.048955 428.53292 
L 111.110028 425.32776 
L 111.232174 431.16214 
L 111.293246 430.646182 
L 111.354319 428.436291 
L 111.415392 428.652813 
L 111.476464 415.999715 
L 111.537537 422.931211 
L 111.59861 420.51188 
L 111.781828 433.067929 
L 111.965046 422.897474 
L 112.026119 434.210978 
L 112.087192 414.835404 
L 112.148265 428.53369 
L 112.209338 419.320753 
L 112.27041 433.842949 
L 112.331483 431.634061 
L 112.392556 435.426764 
L 112.453629 427.836139 
L 112.514701 433.58015 
L 112.69792 428.138359 
L 112.758992 433.541794 
L 112.942211 418.647825 
L 113.003283 433.273939 
L 113.064356 427.426874 
L 113.125429 433.857835 
L 113.186501 423.195928 
L 113.247574 434.230297 
L 113.308647 425.027862 
L 113.36972 434.55873 
L 113.430792 429.259673 
L 113.491865 431.480636 
L 113.552938 421.320128 
L 113.614011 434.492315 
L 113.675083 425.915854 
L 113.858302 434.37827 
L 113.919375 424.680319 
L 113.980447 428.629942 
L 114.04152 426.597312 
L 114.163666 431.66482 
L 114.224738 430.673387 
L 114.285811 422.458177 
L 114.346884 431.548718 
L 114.407957 421.339781 
L 114.591175 435.462848 
L 114.652248 423.221682 
L 114.71332 436.028785 
L 114.774393 423.23577 
L 114.835466 430.88097 
L 114.896538 425.538779 
L 114.957611 435.108182 
L 115.018684 428.274242 
L 115.079757 433.938963 
L 115.140829 420.063087 
L 115.201902 433.665622 
L 115.262975 431.148764 
L 115.324048 428.535855 
L 115.446193 433.236258 
L 115.507266 426.806652 
L 115.568339 435.921503 
L 115.629412 430.074416 
L 115.690484 434.108031 
L 115.751557 428.397812 
L 115.81263 434.969726 
L 115.873703 428.187866 
L 115.934775 434.678857 
L 115.995848 433.173923 
L 116.056921 431.502908 
L 116.117994 434.359897 
L 116.179066 432.81216 
L 116.240139 424.486207 
L 116.301212 432.244264 
L 116.362285 424.14288 
L 116.423357 436.454651 
L 116.48443 429.292575 
L 116.545503 434.869709 
L 116.606575 425.060477 
L 116.667648 430.502834 
L 116.728721 424.894918 
L 116.789794 433.577686 
L 116.850866 432.668571 
L 116.911939 431.556934 
L 116.973012 435.434523 
L 117.034085 433.088108 
L 117.217303 436.815399 
L 117.278376 434.661052 
L 117.339449 436.254701 
L 117.400521 437.859959 
L 117.461594 437.444935 
L 117.522667 437.34615 
L 117.644812 435.270826 
L 117.705885 436.774391 
L 117.766958 433.937918 
L 117.828031 438.730814 
L 117.889103 437.019017 
L 117.950176 438.802902 
L 118.011249 434.901413 
L 118.072322 439.083531 
L 118.133394 438.792393 
L 118.194467 438.194139 
L 118.377685 439.635736 
L 118.438758 439.907979 
L 118.499831 430.992619 
L 118.683049 441.015763 
L 118.744122 437.064163 
L 118.805194 440.672993 
L 118.866267 438.035326 
L 118.92734 440.35706 
L 119.110558 436.35704 
L 119.171631 441.009111 
L 119.232704 440.04485 
L 119.293777 441.280091 
L 119.476995 438.182095 
L 119.660213 444.638529 
L 119.782359 443.243326 
L 119.843431 444.753434 
L 119.904504 444.741293 
L 120.087722 441.491799 
L 120.148795 443.833111 
L 120.209868 442.318442 
L 120.27094 442.542472 
L 120.332013 444.407767 
L 120.393086 444.134304 
L 120.454159 442.759175 
L 120.515231 444.258056 
L 120.576304 439.038474 
L 120.637377 444.552326 
L 120.69845 442.942246 
L 120.942741 448.457644 
L 121.064886 447.517814 
L 121.125959 448.779724 
L 121.187032 442.472615 
L 121.248105 448.649964 
L 121.309177 447.815352 
L 121.37025 447.707565 
L 121.431323 446.161274 
L 121.492396 448.821914 
L 121.553468 444.721201 
L 121.614541 447.752028 
L 121.675614 446.905084 
L 121.736687 448.695686 
L 121.797759 447.933599 
L 121.858832 448.786199 
L 121.919905 446.319269 
L 121.980977 449.092453 
L 122.04205 448.464316 
L 122.103123 447.641497 
L 122.164196 444.74787 
L 122.225268 448.863232 
L 122.286341 444.57314 
L 122.347414 447.474878 
L 122.408487 444.695087 
L 122.46956 449.413913 
L 122.530632 443.880299 
L 122.591705 448.008057 
L 122.652778 448.804991 
L 122.713851 448.358093 
L 122.774923 447.744262 
L 122.835996 448.608804 
L 122.897069 446.852001 
L 122.958142 449.02281 
L 123.019214 446.878656 
L 123.080287 449.120488 
L 123.14136 444.544484 
L 123.202433 448.161233 
L 123.263505 447.541923 
L 123.385651 449.575517 
L 123.446724 449.26176 
L 123.568869 449.633415 
L 123.691014 448.830334 
L 123.874233 445.520918 
L 123.935305 449.872761 
L 123.996378 448.192604 
L 124.057451 449.486971 
L 124.118524 446.932578 
L 124.240669 450.977899 
L 124.301742 450.70188 
L 124.362815 447.833384 
L 124.423888 450.041799 
L 124.546033 450.841863 
L 124.729251 448.187404 
L 124.790324 448.278375 
L 124.973542 451.265384 
L 125.034615 450.963455 
L 125.095688 448.404891 
L 125.156761 451.463516 
L 125.217833 448.475983 
L 125.278906 451.111605 
L 125.339979 450.8931 
L 125.401052 450.835919 
L 125.462124 448.913375 
L 125.645342 451.795068 
L 125.706415 449.908684 
L 125.767488 450.835939 
L 125.828561 449.711099 
L 125.889634 451.250333 
L 125.950706 449.113952 
L 126.011779 450.547597 
L 126.072852 451.506643 
L 126.194997 448.21908 
L 126.25607 449.62403 
L 126.378215 452.711913 
L 126.439288 448.708868 
L 126.500361 450.657811 
L 126.561434 449.332095 
L 126.622507 452.419722 
L 126.683579 450.259196 
L 126.866798 452.521803 
L 126.92787 450.590038 
L 126.988943 451.364746 
L 127.233234 452.636521 
L 127.294307 451.402876 
L 127.355379 452.44397 
L 127.416452 448.423288 
L 127.538598 452.663347 
L 127.660743 449.942785 
L 127.721816 451.417809 
L 127.782889 451.406645 
L 127.843962 451.853374 
L 127.905034 450.659636 
L 127.966107 453.050768 
L 128.02718 451.992938 
L 128.088253 452.621082 
L 128.149325 452.45569 
L 128.393616 448.221002 
L 128.576835 452.731943 
L 128.637907 451.176273 
L 128.69898 451.886247 
L 128.821125 453.216055 
L 128.882198 451.29476 
L 128.943271 452.460571 
L 129.004344 453.503159 
L 129.126489 449.179477 
L 129.187562 452.610402 
L 129.248635 452.296208 
L 129.309708 452.349224 
L 129.37078 450.982734 
L 129.431853 452.016019 
L 129.492926 450.967771 
L 129.553999 452.777799 
L 129.615071 448.701665 
L 129.676144 453.179698 
L 129.737217 452.482152 
L 129.920435 453.469579 
L 129.981508 454.284026 
L 130.04258 452.387568 
L 130.103653 452.829916 
L 130.164726 453.225376 
L 130.225799 451.817556 
L 130.286872 452.568597 
L 130.347944 455.137414 
L 130.409017 455.036497 
L 130.47009 453.762361 
L 130.531162 454.942987 
L 130.592235 451.085735 
L 130.775453 455.052086 
L 130.836526 452.486939 
L 130.897599 453.521919 
L 130.958672 452.419545 
L 131.019745 455.081297 
L 131.080817 452.796341 
L 131.14189 453.321877 
L 131.202963 454.556573 
L 131.264036 453.863624 
L 131.325108 451.681863 
L 131.508327 455.103311 
L 131.569399 454.885312 
L 131.691545 451.71725 
L 131.752617 454.609503 
L 131.81369 453.895788 
L 131.996909 453.502309 
L 132.119054 454.25776 
L 132.180127 453.699858 
L 132.241199 454.200949 
L 132.302272 452.231215 
L 132.48549 454.501313 
L 132.546563 453.313153 
L 132.668709 455.143926 
L 132.729782 455.03647 
L 132.913 453.223687 
L 132.974073 454.218178 
L 133.035145 453.562407 
L 133.157291 455.465577 
L 133.218364 453.956792 
L 133.279436 449.691265 
L 133.340509 454.743748 
L 133.401582 453.721114 
L 133.462654 455.233588 
L 133.523727 452.459701 
L 133.645873 455.487678 
L 133.706946 455.18097 
L 133.768018 455.278215 
L 133.829091 455.554423 
L 134.012309 451.05318 
L 134.073382 455.088926 
L 134.134455 451.732633 
L 134.195527 454.266123 
L 134.378746 453.78373 
L 134.439819 455.018511 
L 134.500891 451.275336 
L 134.561964 454.635601 
L 134.623037 452.843675 
L 134.806255 455.504899 
L 134.867328 452.135668 
L 134.928401 455.19495 
L 134.989473 454.43047 
L 135.050546 454.87562 
L 135.233764 451.951205 
L 135.416983 455.12671 
L 135.600201 453.273598 
L 135.722346 456.287474 
L 135.844492 454.335336 
L 135.905564 456.156164 
L 135.966637 454.995995 
L 136.088783 457.241183 
L 136.149856 456.349774 
L 136.210928 453.934958 
L 136.272001 457.536874 
L 136.333074 455.730575 
L 136.516292 457.250173 
L 136.577365 455.33402 
L 136.638438 457.029444 
L 136.69951 456.163767 
L 136.760583 456.967258 
L 136.821656 453.489626 
L 136.882728 457.161293 
L 136.943801 455.113472 
L 137.004874 456.434393 
L 137.065947 455.253217 
L 137.12702 456.919333 
L 137.188092 454.167399 
L 137.249165 456.575123 
L 137.310238 455.724208 
L 137.432383 455.139838 
L 137.554529 457.52412 
L 137.615601 457.284296 
L 137.676674 455.921881 
L 137.737747 456.568332 
L 137.79882 456.578578 
L 137.920965 458.263474 
L 137.982038 457.46075 
L 138.043111 456.539482 
L 138.104184 457.406337 
L 138.287402 454.450816 
L 138.47062 458.676735 
L 138.531693 454.68036 
L 138.592765 457.991383 
L 138.653838 456.286714 
L 138.714911 458.081765 
L 138.775984 455.551062 
L 138.837057 458.014319 
L 138.898129 456.366649 
L 138.959202 457.655407 
L 139.020275 456.358231 
L 139.081347 456.797097 
L 139.14242 458.76815 
L 139.203493 457.905562 
L 139.264566 456.346165 
L 139.325638 458.332532 
L 139.386711 458.188088 
L 139.447784 458.036606 
L 139.508857 453.746131 
L 139.56993 457.840043 
L 139.631002 457.515833 
L 139.692075 458.501516 
L 139.753148 455.431258 
L 139.814221 457.665027 
L 139.875293 458.142293 
L 139.997439 457.106348 
L 140.058512 458.684034 
L 140.24173 455.073839 
L 140.302802 457.628157 
L 140.363875 457.073598 
L 140.547094 458.296544 
L 140.730312 455.732336 
L 140.791384 457.901391 
L 140.852457 457.078877 
L 140.91353 457.978455 
L 140.974603 455.33153 
L 141.035675 458.663816 
L 141.096748 457.162533 
L 141.157821 458.451121 
L 141.218894 455.202837 
L 141.341039 458.628187 
L 141.402112 458.229584 
L 141.463185 454.860583 
L 141.524258 458.036476 
L 141.58533 455.041045 
L 141.646403 457.484365 
L 141.707476 454.554721 
L 141.768549 458.708227 
L 141.829621 455.110243 
L 141.890694 458.453764 
L 141.951767 455.734315 
L 142.012839 458.24171 
L 142.073912 458.074678 
L 142.134985 457.857044 
L 142.196058 458.66375 
L 142.257131 458.287465 
L 142.318203 457.817465 
L 142.440349 458.913789 
L 142.501421 458.625385 
L 142.562494 455.243231 
L 142.623567 458.367098 
L 142.68464 455.00707 
L 142.867858 459.69343 
L 142.928931 457.325487 
L 142.990004 459.435912 
L 143.051076 457.312474 
L 143.112149 459.291548 
L 143.173222 458.838701 
L 143.234295 459.140418 
L 143.295367 458.351372 
L 143.35644 459.638689 
L 143.417513 457.271575 
L 143.478586 459.052464 
L 143.539658 457.427026 
L 143.600731 458.46213 
L 143.661804 458.725227 
L 143.722876 459.517495 
L 143.783949 457.177708 
L 143.845022 459.31941 
L 143.906095 456.215176 
L 143.967168 459.347787 
L 144.02824 456.929468 
L 144.089313 458.732425 
L 144.150386 456.164993 
L 144.272531 459.915653 
L 144.333604 459.417369 
L 144.516822 459.800462 
L 144.577895 459.058773 
L 144.638968 459.93891 
L 144.700041 459.405982 
L 144.761113 459.895291 
L 144.822186 459.410096 
L 144.944332 460.078982 
L 145.249695 459.556023 
L 145.310768 459.027979 
L 145.493986 460.520435 
L 145.555059 459.436311 
L 145.616132 460.111236 
L 145.677205 459.485912 
L 145.738277 460.683316 
L 145.79935 459.901194 
L 145.860423 460.486533 
L 145.921495 459.620484 
L 145.982568 459.956566 
L 146.043641 460.544352 
L 146.104714 460.290028 
L 146.165786 460.509183 
L 146.226859 460.40973 
L 146.287932 460.447126 
L 146.349005 460.025196 
L 146.410077 460.372757 
L 146.47115 460.601037 
L 146.532223 460.072733 
L 146.593296 460.680743 
L 146.654369 460.283174 
L 146.715441 460.069589 
L 146.837587 460.654627 
L 146.89866 460.170548 
L 146.959732 460.459567 
L 147.081878 460.207356 
L 147.14295 460.898824 
L 147.204023 460.382727 
L 147.326169 461.552855 
L 147.387242 459.847804 
L 147.448314 461.354181 
L 147.509387 461.240619 
L 147.57046 461.192721 
L 147.631532 460.14036 
L 147.814751 461.600819 
L 147.875823 460.306596 
L 148.059042 461.998127 
L 148.181187 461.591707 
L 148.24226 461.926375 
L 148.303333 461.748653 
L 148.364406 461.366133 
L 148.425478 461.778576 
L 148.486551 461.226071 
L 148.547624 461.768988 
L 148.608697 461.665408 
L 148.669769 461.798859 
L 148.730842 460.832842 
L 148.791915 461.905656 
L 148.852987 461.398097 
L 148.91406 462.0609 
L 148.975133 461.489865 
L 149.036206 462.112449 
L 149.097279 461.151495 
L 149.158351 461.58451 
L 149.219424 461.94474 
L 149.280497 461.869915 
L 149.341569 461.645818 
L 149.463715 462.512517 
L 149.524788 462.247618 
L 149.58586 462.451045 
L 149.646933 462.425853 
L 149.708006 462.668055 
L 149.769079 462.610796 
L 149.891224 462.223043 
L 149.952297 463.186681 
L 150.01337 462.989031 
L 150.074443 462.886788 
L 150.196588 463.235662 
L 150.318734 462.283851 
L 150.379806 462.921981 
L 150.440879 462.026971 
L 150.563024 463.174337 
L 150.624097 463.002964 
L 150.68517 461.941609 
L 150.746243 462.738443 
L 150.868388 463.073594 
L 150.929461 462.721697 
L 150.990534 462.925359 
L 151.051606 462.955544 
L 151.234825 463.773793 
L 151.295898 463.552854 
L 151.35697 463.871301 
L 151.418043 463.543806 
L 151.479116 463.822129 
L 151.662334 463.012068 
L 151.723407 463.597667 
L 151.78448 463.483669 
L 151.845552 463.461722 
L 151.906625 462.81438 
L 151.967698 463.734016 
L 152.028771 463.155426 
L 152.089843 463.824327 
L 152.150916 462.547188 
L 152.273061 463.865709 
L 152.334134 463.596324 
L 152.395207 462.401925 
L 152.45628 463.836461 
L 152.517353 463.178796 
L 152.639498 464.227046 
L 152.761643 463.990428 
L 152.822716 464.154386 
L 153.005935 463.681282 
L 153.067007 463.879268 
L 153.12808 462.937486 
L 153.311298 464.225075 
L 153.494517 463.837186 
L 153.555589 464.084095 
L 153.616662 463.422391 
L 153.677735 463.969763 
L 153.738808 462.848814 
L 153.922026 464.225315 
L 153.983098 463.902802 
L 154.044171 464.132938 
L 154.105244 464.216242 
L 154.166317 463.994295 
L 154.22739 463.062125 
L 154.288462 463.996836 
L 154.349535 463.861645 
L 154.410608 463.793781 
L 154.47168 463.48929 
L 154.532753 464.279026 
L 154.593826 464.126206 
L 154.654899 463.962034 
L 154.715972 463.338162 
L 154.838117 464.264519 
L 154.89919 464.025243 
L 154.960262 464.231342 
L 155.265626 463.94681 
L 155.387772 464.291675 
L 155.448845 463.77145 
L 155.509917 464.149714 
L 155.693135 463.382922 
L 155.815281 464.221339 
L 155.876354 464.203696 
L 156.059572 463.545619 
L 156.120645 464.185775 
L 156.181717 463.74951 
L 156.24279 463.981979 
L 156.303863 463.644924 
L 156.426009 464.402867 
L 156.487081 463.824441 
L 156.548154 463.967306 
L 156.609227 463.881196 
L 156.731372 464.188087 
L 156.792445 463.765014 
L 156.914591 464.388141 
L 156.975663 464.291827 
L 157.036736 463.780959 
L 157.097809 464.270273 
L 157.158882 464.207958 
L 157.219954 463.923056 
L 157.281027 464.13682 
L 157.3421 464.021553 
L 157.403172 463.572248 
L 157.464245 464.412515 
L 157.525318 462.72335 
L 157.586391 464.190329 
L 157.647464 463.830175 
L 157.891754 464.693646 
L 157.952827 464.551005 
L 158.0139 463.663374 
L 158.136046 464.544428 
L 158.197118 464.322106 
L 158.258191 464.629641 
L 158.319264 464.285494 
L 158.380336 464.62107 
L 158.441409 464.27374 
L 158.502482 464.618226 
L 158.563555 464.388213 
L 158.6857 464.583512 
L 158.868919 464.164817 
L 158.929991 464.525864 
L 158.991064 464.184997 
L 159.052137 464.814581 
L 159.113209 463.97094 
L 159.174282 464.70583 
L 159.235355 463.801713 
L 159.296428 464.417357 
L 159.357501 464.197746 
L 159.418573 464.583928 
L 159.479646 463.897668 
L 159.540719 464.428686 
L 159.601791 464.290615 
L 159.662864 464.899633 
L 159.723937 464.412697 
L 159.78501 464.556521 
L 159.846083 463.888928 
L 160.029301 464.887086 
L 160.090373 465.065497 
L 160.212519 464.605725 
L 160.334665 465.216861 
L 160.45681 464.378385 
L 160.578956 465.391827 
L 160.640028 465.153705 
L 160.701101 465.427824 
L 160.762174 465.143823 
L 160.823246 465.222428 
L 160.884319 465.203499 
L 160.945392 464.969828 
L 161.006465 465.132603 
L 161.067538 463.738448 
L 161.12861 465.230569 
L 161.189683 464.851311 
L 161.250756 465.218797 
L 161.433974 464.106069 
L 161.55612 465.518949 
L 161.617192 465.441222 
L 161.739338 465.201902 
L 161.80041 465.454005 
L 161.861483 465.437455 
L 161.922556 464.594322 
L 161.983629 465.561832 
L 162.044702 465.267467 
L 162.22792 465.879496 
L 162.288993 465.138657 
L 162.350065 465.801354 
L 162.411138 465.305061 
L 162.472211 465.813715 
L 162.533283 465.418616 
L 162.594356 465.882801 
L 162.655429 465.790721 
L 162.716502 465.597754 
L 162.777575 464.712414 
L 162.838647 466.078762 
L 162.89972 465.724983 
L 162.960793 465.773979 
L 163.021865 465.531736 
L 163.082938 465.977762 
L 163.144011 465.939605 
L 163.266157 465.555957 
L 163.327229 465.971065 
L 163.388302 465.872113 
L 163.449375 465.671686 
L 163.510447 465.693277 
L 163.57152 465.779763 
L 163.632593 464.910339 
L 163.815811 466.175037 
L 163.876884 466.095271 
L 163.99903 465.054182 
L 164.060102 465.820757 
L 164.121175 465.723493 
L 164.182248 465.949914 
L 164.24332 465.432191 
L 164.426539 466.199051 
L 164.487612 465.365753 
L 164.548684 465.837991 
L 164.609757 466.626202 
L 164.67083 466.078034 
L 164.854048 466.847282 
L 164.915121 466.749676 
L 164.976194 466.571204 
L 165.098339 466.965767 
L 165.220484 466.388836 
L 165.281557 466.97283 
L 165.34263 466.475217 
L 165.403703 466.987841 
L 165.586921 465.930729 
L 165.770139 467.027691 
L 165.831212 466.257222 
L 165.892285 467.07482 
L 165.953358 465.943411 
L 166.01443 466.677405 
L 166.075503 466.567128 
L 166.136576 466.985254 
L 166.197649 466.875693 
L 166.258721 466.881856 
L 166.319794 466.07946 
L 166.380867 466.959956 
L 166.441939 466.541823 
L 166.503012 467.020576 
L 166.564085 465.847079 
L 166.686231 467.044301 
L 166.930521 466.535605 
L 167.11374 466.998561 
L 167.174813 465.694296 
L 167.235885 466.977132 
L 167.296958 465.946638 
L 167.358031 466.99959 
L 167.419104 466.17092 
L 167.541249 467.302317 
L 167.602322 466.867314 
L 167.724467 467.575566 
L 167.907686 466.919705 
L 168.090904 467.329634 
L 168.151976 466.743737 
L 168.335195 467.779839 
L 168.518413 467.166953 
L 168.701631 467.887607 
L 168.762704 467.022207 
L 168.823777 467.842614 
L 168.88485 467.076299 
L 169.006995 467.862468 
L 169.068068 467.636805 
L 169.129141 467.775807 
L 169.190213 467.757406 
L 169.251286 467.097034 
L 169.312359 467.872517 
L 169.373432 466.940818 
L 169.434504 467.776183 
L 169.495577 467.186966 
L 169.55665 467.865122 
L 169.617723 467.735666 
L 169.739868 467.188194 
L 169.800941 467.652135 
L 169.862013 467.605879 
L 169.923086 467.644672 
L 169.984159 467.382654 
L 170.045232 467.684524 
L 170.106305 467.555139 
L 170.167377 467.462223 
L 170.22845 467.811106 
L 170.289523 467.502984 
L 170.350595 467.553303 
L 170.411668 467.793737 
L 170.472741 466.658888 
L 170.594887 467.802029 
L 170.655959 467.699237 
L 170.717032 467.256193 
L 170.778105 467.729328 
L 170.839178 467.100899 
L 170.90025 467.96407 
L 170.961323 467.109262 
L 171.144541 468.196779 
L 171.205614 468.131092 
L 171.32776 467.398126 
L 171.388832 468.222778 
L 171.449905 466.496409 
L 171.510978 467.929435 
L 171.57205 467.74767 
L 171.633123 467.957188 
L 171.694196 467.053323 
L 171.816342 468.057735 
L 171.938487 467.539136 
L 171.99956 468.136304 
L 172.060632 467.868056 
L 172.121705 468.22919 
L 172.182778 467.209002 
L 172.243851 468.004577 
L 172.304924 467.670981 
L 172.365996 468.326869 
L 172.427069 467.630211 
L 172.488142 468.073591 
L 172.610287 468.187631 
L 172.67136 467.700705 
L 172.732433 468.362046 
L 172.793506 468.148001 
L 172.854578 468.343846 
L 172.915651 468.175397 
L 173.098869 467.876257 
L 173.159942 467.469888 
L 173.34316 468.130624 
L 173.404233 467.504394 
L 173.587451 468.238812 
L 173.648524 467.63327 
L 173.709597 468.24687 
L 173.770669 467.861566 
L 173.831742 468.298389 
L 173.892815 467.923276 
L 173.953888 468.248389 
L 174.137106 467.209745 
L 174.320324 468.429153 
L 174.381397 468.646139 
L 174.44247 468.274113 
L 174.503543 468.389022 
L 174.564615 468.402855 
L 174.686761 468.957022 
L 174.747834 468.710065 
L 174.808906 468.934887 
L 174.992124 468.361001 
L 175.053197 468.730643 
L 175.11427 468.04937 
L 175.175343 468.879137 
L 175.236416 468.329819 
L 175.297488 468.909363 
L 175.358561 468.2224 
L 175.419634 468.65731 
L 175.480706 468.625166 
L 175.541779 468.905124 
L 175.602852 468.317153 
L 175.663925 468.798626 
L 175.724998 468.447079 
L 175.78607 468.894187 
L 175.847143 468.221208 
L 175.908216 468.677628 
L 175.969289 468.1987 
L 176.152507 468.992631 
L 176.21358 468.512053 
L 176.274652 468.989741 
L 176.335725 467.495493 
L 176.396798 468.909004 
L 176.457871 467.525262 
L 176.518943 468.783086 
L 176.580016 468.517765 
L 176.641089 468.368632 
L 176.702161 467.645859 
L 176.763234 468.941211 
L 176.824307 467.984848 
L 176.88538 468.864596 
L 176.946453 468.307305 
L 177.007525 468.796567 
L 177.068598 468.201786 
L 177.129671 468.69874 
L 177.190743 468.154362 
L 177.251816 469.029913 
L 177.312889 468.854566 
L 177.373962 468.805918 
L 177.55718 468.248884 
L 177.618253 468.841594 
L 177.679326 468.283147 
L 177.740398 469.007576 
L 177.801471 468.067022 
L 177.862544 468.77001 
L 177.923617 468.705613 
L 177.984689 468.96635 
L 178.045762 468.468458 
L 178.106835 468.514184 
L 178.167908 468.825033 
L 178.22898 468.638922 
L 178.290053 468.347763 
L 178.473271 468.876758 
L 178.534344 468.643308 
L 178.595417 468.707525 
L 178.65649 468.889331 
L 178.717562 468.766648 
L 178.778635 468.150272 
L 178.839708 468.797599 
L 178.90078 468.357552 
L 178.961853 468.844529 
L 179.022926 468.295637 
L 179.206144 469.116953 
L 179.267217 468.980304 
L 179.32829 469.021432 
L 179.450435 468.978554 
L 179.633654 469.32483 
L 179.694726 469.211459 
L 179.816872 469.410386 
L 179.877945 469.358077 
L 180.061163 469.437587 
L 180.122235 469.460203 
L 180.305454 469.190625 
L 180.366527 469.337786 
L 180.427599 469.088152 
L 180.488672 469.367684 
L 180.549745 469.249433 
L 180.610817 469.252366 
L 180.67189 469.400706 
L 180.732963 469.332747 
L 180.794036 469.219928 
L 180.855109 469.457692 
L 180.916181 469.07599 
L 180.977254 469.311995 
L 181.160472 469.376303 
L 181.282618 469.268068 
L 181.465836 469.349227 
L 181.526909 469.226585 
L 181.587982 469.437382 
L 181.649054 469.204801 
L 181.710127 469.533859 
L 181.7712 469.356104 
L 182.076564 469.416558 
L 182.137636 469.422606 
L 182.198709 469.615202 
L 182.259782 469.454784 
L 182.320854 469.463129 
L 182.381927 469.726271 
L 182.443 469.609053 
L 182.504073 469.654887 
L 182.565145 469.556296 
L 182.687291 469.685209 
L 183.053728 469.693137 
L 183.1148 469.505531 
L 183.359091 470.21183 
L 183.420164 470.106409 
L 183.481237 470.370343 
L 183.542309 470.213592 
L 183.664455 470.381168 
L 183.725528 470.268804 
L 183.786601 470.402014 
L 183.847673 469.914582 
L 183.908746 470.454594 
L 183.969819 470.361918 
L 184.091964 470.146934 
L 184.275182 470.518771 
L 184.397328 470.57677 
L 184.458401 470.218095 
L 184.519474 470.573263 
L 184.580546 470.18214 
L 184.641619 470.488222 
L 184.702692 470.439142 
L 184.824837 470.706095 
L 184.88591 470.643202 
L 185.069128 470.628478 
L 185.252346 470.629271 
L 185.313419 470.478413 
L 185.374492 470.608237 
L 185.435565 470.591121 
L 185.496638 470.716647 
L 185.55771 470.417799 
L 185.618783 470.611811 
L 185.740928 470.740209 
L 185.802001 470.504881 
L 185.863074 470.6799 
L 185.985219 470.816062 
L 186.107365 470.635196 
L 186.168438 470.669693 
L 186.229511 470.755807 
L 186.290583 470.33614 
L 186.473802 470.948828 
L 186.534874 470.593579 
L 186.595947 470.957372 
L 186.65702 470.944471 
L 186.779165 470.777972 
L 186.840238 470.896519 
L 187.023456 471.261614 
L 187.145602 471.098327 
L 187.32882 471.304391 
L 187.512038 471.267634 
L 187.695256 471.359325 
L 187.756329 471.052458 
L 187.817402 471.232397 
L 187.939548 471.436698 
L 188.00062 471.244004 
L 188.061693 471.311481 
L 188.122766 471.499273 
L 188.183839 471.360438 
L 188.244911 471.514321 
L 188.305984 471.452804 
L 188.489202 471.374632 
L 188.550275 471.552095 
L 188.611348 471.408517 
L 188.67242 471.340625 
L 188.733493 471.397033 
L 188.794566 471.607955 
L 188.855639 471.362682 
L 188.916712 471.603912 
L 188.977784 471.328386 
L 189.038857 471.497908 
L 189.09993 471.299899 
L 189.161002 471.621801 
L 189.222075 471.532421 
L 189.405294 471.607681 
L 189.649585 471.486991 
L 189.710657 471.354614 
L 189.832803 471.6701 
L 189.954948 471.525464 
L 190.016021 471.60876 
L 190.077094 471.120936 
L 190.138167 471.526749 
L 190.382457 471.736154 
L 190.44353 471.577259 
L 190.504603 471.664026 
L 190.565676 471.573171 
L 190.626749 471.818724 
L 190.687821 471.692506 
L 190.809967 471.706209 
L 190.871039 471.802184 
L 190.932112 471.716523 
L 191.115331 471.715471 
L 191.176403 471.563943 
L 191.237476 471.94291 
L 191.298549 471.715082 
L 191.54284 471.947245 
L 191.726058 471.869758 
L 191.787131 472.100309 
L 191.848204 471.994157 
L 192.275713 472.078096 
L 192.336786 472.133232 
L 192.397858 471.961573 
L 192.458931 472.191743 
L 192.520004 472.011676 
L 192.581076 472.037461 
L 192.703222 472.251195 
L 192.88644 471.985518 
L 193.069659 472.18763 
L 193.191804 472.207224 
L 193.252877 471.850049 
L 193.313949 472.183126 
L 193.375022 471.879259 
L 193.497168 472.265831 
L 193.558241 472.22862 
L 193.619313 471.903704 
L 193.680386 472.134033 
L 193.741459 472.027499 
L 193.802531 472.29704 
L 193.863604 472.271826 
L 194.291113 472.277907 
L 194.352186 472.197325 
L 194.413259 472.301528 
L 194.474332 471.907253 
L 194.535405 472.263485 
L 194.596477 472.247217 
L 194.65755 472.303146 
L 194.840768 472.022098 
L 194.962914 472.406366 
L 195.023986 472.372881 
L 195.146132 472.395938 
L 195.207205 472.207058 
L 195.268278 472.264701 
L 195.512568 472.346629 
L 195.573641 472.19138 
L 195.634714 472.321131 
L 195.695787 472.467702 
L 195.879005 472.271749 
L 195.940078 472.482366 
L 196.00115 472.404877 
L 196.062223 472.268528 
L 196.123296 472.424232 
L 196.184369 472.149996 
L 196.245442 472.277263 
L 196.672951 472.452656 
L 197.039387 472.440537 
L 197.10046 472.555532 
L 197.161533 472.348087 
L 197.222605 472.511983 
L 197.405824 472.415362 
L 197.466897 472.613747 
L 197.527969 472.476984 
L 197.650115 472.441661 
L 197.833333 472.691742 
L 197.955479 472.652595 
L 198.016551 472.352099 
L 198.138697 472.653329 
L 198.19977 472.555823 
L 198.260842 472.644775 
L 198.321915 472.682908 
L 198.382988 472.472995 
L 198.44406 472.6099 
L 198.505133 472.459089 
L 198.688352 472.750054 
L 198.810497 472.833133 
L 198.87157 472.592295 
L 198.932642 472.770197 
L 198.993715 472.573506 
L 199.054788 472.808277 
L 199.115861 472.709638 
L 199.299079 472.833948 
L 199.421224 472.682046 
L 199.482297 472.831591 
L 199.54337 472.686688 
L 199.604443 472.777144 
L 199.665516 472.788682 
L 199.726588 472.599192 
L 199.787661 472.827863 
L 199.848734 472.769929 
L 199.909807 472.688222 
L 199.970879 472.737332 
L 200.031952 472.867014 
L 200.093025 472.686065 
L 200.154097 472.800608 
L 200.21517 472.690201 
L 200.337316 472.847566 
L 200.459461 472.774483 
L 200.642679 472.797532 
L 200.825898 472.757102 
L 201.009116 472.768366 
L 201.253407 472.756508 
L 201.31448 472.885207 
L 201.375553 472.826263 
L 201.436625 472.582886 
L 201.619844 472.90757 
L 201.741989 472.877802 
L 201.803062 472.760828 
L 201.864134 472.865775 
L 201.98628 472.947669 
L 202.047353 472.69715 
L 202.108426 472.871359 
L 202.291644 473.065944 
L 202.352716 473.003359 
L 202.413789 473.115401 
L 202.474862 473.028587 
L 202.535935 472.906011 
L 202.597008 473.090904 
L 202.65808 472.84496 
L 202.719153 473.004441 
L 203.268808 473.121982 
L 203.329881 473.255037 
L 203.513099 472.93988 
L 203.696317 473.290619 
L 203.75739 473.14106 
L 203.818463 473.255283 
L 203.940608 473.254097 
L 204.001681 473.09863 
L 204.062753 473.326325 
L 204.123826 473.125068 
L 204.184899 473.301081 
L 204.490263 473.188941 
L 204.551335 473.267247 
L 204.612408 473.147581 
L 204.673481 473.3292 
L 204.734554 473.132825 
L 204.795627 473.300097 
L 204.856699 473.193354 
L 204.917772 473.336184 
L 204.978845 473.019397 
L 205.039918 473.280241 
L 205.10099 473.103086 
L 205.162063 473.250358 
L 205.223136 473.142402 
L 205.284208 473.20995 
L 205.5285 473.162898 
L 205.711718 473.271217 
L 205.833863 473.067155 
L 206.078154 473.44938 
L 206.261372 473.372381 
L 206.383518 473.639835 
L 206.627809 473.588784 
L 206.688882 473.323869 
L 206.811027 473.667491 
L 207.055318 473.543174 
L 207.116391 473.684984 
L 207.177464 473.627894 
L 207.238537 473.581264 
L 207.299609 473.366288 
L 207.360682 473.692808 
L 207.421755 473.585604 
L 207.482827 473.709145 
L 207.5439 473.4496 
L 207.604973 473.688068 
L 207.666046 473.465027 
L 207.727119 473.616458 
L 207.910337 473.652003 
L 208.154628 473.402166 
L 208.337846 473.594474 
L 208.459992 473.693081 
L 208.521064 473.521406 
L 208.704282 473.762099 
L 208.765355 473.567042 
L 208.826428 473.813295 
L 208.887501 473.561153 
L 208.948574 473.735381 
L 209.009646 473.672468 
L 209.070719 473.824277 
L 209.131792 473.591892 
L 209.192864 473.76641 
L 209.253937 473.947938 
L 209.31501 473.829356 
L 209.376083 473.609847 
L 209.437156 474.083714 
L 209.498228 473.831595 
L 209.681446 473.93679 
L 209.742519 473.668256 
L 209.803592 474.109125 
L 209.864665 473.863903 
L 210.047883 474.186395 
L 210.292174 474.069502 
L 210.841829 474.229623 
L 211.025047 474.098751 
L 211.147193 474.216607 
L 211.208265 474.047924 
L 211.269338 474.159634 
L 211.391483 474.211622 
L 211.452556 474.030335 
L 211.513629 474.179313 
L 211.696847 474.019988 
L 211.75792 474.129695 
L 211.880066 474.260571 
L 212.063284 473.850089 
L 212.124356 474.206211 
L 212.185429 473.984959 
L 212.42972 474.268478 
L 212.490793 474.215942 
L 212.612938 474.35296 
L 212.674011 474.204854 
L 212.735084 474.292126 
L 212.85723 474.377476 
L 212.918302 474.118078 
L 212.979375 474.385719 
L 213.040448 473.990921 
L 213.10152 474.196431 
L 213.162593 474.179898 
L 213.223666 474.422905 
L 213.284739 474.195214 
L 213.345812 474.315436 
L 213.406884 474.443286 
L 213.467957 474.377883 
L 213.712248 474.418741 
L 213.773321 474.258581 
L 213.834394 474.337919 
L 213.895466 474.268628 
L 214.078685 474.438985 
L 214.139757 474.427781 
L 214.20083 474.280346 
L 214.384048 474.541219 
L 214.445121 474.524065 
L 214.506194 474.331488 
L 214.567267 474.470462 
L 214.628339 474.344578 
L 214.689412 474.408903 
L 214.750485 474.393601 
L 214.811557 474.496972 
L 214.87263 474.176939 
L 215.055849 474.555859 
L 215.30014 474.387722 
L 215.422285 474.629509 
L 215.483358 474.541598 
L 215.544431 474.680111 
L 215.605503 474.559306 
L 215.727649 474.575579 
L 215.788722 474.530963 
L 215.849794 474.667186 
L 215.910867 474.616567 
L 216.094085 474.59255 
L 216.582667 474.432644 
L 216.704813 474.660277 
L 216.765886 474.674243 
L 216.826958 474.286148 
L 217.010177 474.726764 
L 217.254468 474.624372 
L 217.31554 474.67153 
L 217.437686 474.565529 
L 217.620904 474.823356 
L 217.681977 474.610144 
L 217.804122 474.923514 
L 217.926268 474.74392 
L 218.109486 474.991436 
L 218.170559 474.824238 
L 218.231631 475.021185 
L 218.41485 474.686748 
L 218.598068 474.988216 
L 218.781286 474.748295 
L 218.964505 475.048211 
L 219.025577 474.90478 
L 219.08665 475.07825 
L 219.147723 474.874361 
L 219.208796 474.97151 
L 219.269868 474.987571 
L 219.330941 475.129233 
L 219.392014 474.972744 
L 219.453086 475.085026 
L 219.514159 475.065128 
L 219.575232 475.175027 
L 219.636305 475.078862 
L 219.697378 475.101162 
L 219.75845 474.763805 
L 219.819523 475.121331 
L 219.880596 474.961285 
L 219.941668 475.140894 
L 220.002741 475.086385 
L 220.063814 475.137419 
L 220.124887 474.919519 
L 220.18596 475.089096 
L 220.247032 474.998805 
L 220.43025 475.172313 
L 220.491323 474.897932 
L 220.552396 475.136578 
L 220.613469 474.976241 
L 220.918833 475.100527 
L 220.979905 474.995785 
L 221.040978 475.139361 
L 221.102051 474.880285 
L 221.163123 475.015239 
L 221.224196 475.309882 
L 221.285269 475.283526 
L 221.346342 475.215732 
L 221.407415 475.277257 
L 221.834924 475.123977 
L 221.895997 475.326345 
L 221.957069 475.126262 
L 222.018142 475.291634 
L 222.140287 475.3981 
L 222.20136 475.158642 
L 222.262433 475.286375 
L 222.384579 475.475996 
L 222.567797 475.105894 
L 222.62887 475.46288 
L 222.689942 475.239417 
L 222.751015 475.434066 
L 222.812088 475.382218 
L 222.87316 475.312231 
L 222.934233 475.580223 
L 222.995306 475.531459 
L 223.178524 475.272656 
L 223.239597 475.573939 
L 223.30067 475.365227 
L 223.361742 475.565071 
L 223.422815 475.451915 
L 223.483888 475.548528 
L 223.544961 475.31654 
L 223.606034 475.567863 
L 223.667106 475.348907 
L 223.728179 475.548899 
L 223.789252 475.414846 
L 223.850324 475.472506 
L 223.911397 475.343212 
L 223.97247 475.517807 
L 224.033543 475.087133 
L 224.155688 475.551949 
L 224.216761 475.537826 
L 224.277834 475.373993 
L 224.338907 475.571922 
L 224.399979 475.387176 
L 224.461052 475.651874 
L 224.522125 475.497939 
L 224.64427 475.668477 
L 224.705343 475.568258 
L 224.888561 475.582345 
L 224.949634 475.597456 
L 225.010707 475.423901 
L 225.071779 475.670098 
L 225.132852 475.449746 
L 225.193925 475.583619 
L 225.316071 475.558608 
L 225.377143 475.381944 
L 225.438216 475.615081 
L 225.499289 475.532766 
L 225.560361 475.62735 
L 225.621434 475.448597 
L 225.682507 475.706698 
L 225.74358 475.5609 
L 225.804653 475.696502 
L 225.865725 475.465879 
L 225.926798 475.553697 
L 226.048944 475.619354 
L 226.110016 475.51545 
L 226.232162 475.721292 
L 226.354307 475.680311 
L 226.41538 475.722411 
L 226.476453 475.369174 
L 226.537526 475.670243 
L 226.598598 475.513068 
L 226.659671 475.710647 
L 226.720744 475.523271 
L 226.781816 475.683613 
L 226.903962 475.675872 
L 226.965035 475.473919 
L 227.026108 475.695946 
L 227.08718 475.464944 
L 227.148253 475.648125 
L 227.51469 475.796766 
L 227.575762 475.565251 
L 227.636835 475.759001 
L 227.697908 475.679032 
L 227.758981 475.788722 
L 227.820053 475.51577 
L 227.881126 475.802534 
L 227.942199 475.705571 
L 228.18649 475.792241 
L 228.308635 475.64751 
L 228.369708 475.823226 
L 228.430781 475.616399 
L 228.491853 475.797279 
L 228.675072 475.647169 
L 228.736145 475.773945 
L 228.797217 475.58286 
L 228.85829 475.808087 
L 228.919363 475.548788 
L 228.980435 475.748533 
L 229.041508 475.538053 
L 229.102581 475.700951 
L 229.224727 475.836319 
L 229.285799 475.456847 
L 229.346872 475.784779 
L 229.407945 475.570154 
L 229.469018 475.744639 
L 229.53009 475.551283 
L 229.591163 475.703173 
L 229.713308 475.756531 
L 229.835454 475.919798 
L 229.896527 475.629113 
L 229.9576 475.88105 
L 230.018672 475.625266 
L 230.20189 476.089152 
L 230.324036 476.108562 
L 230.385109 476.011363 
L 230.446182 476.157147 
L 230.507254 475.868244 
L 230.568327 476.184172 
L 230.6294 475.981755 
L 230.751545 476.120744 
L 231.179055 476.030535 
L 231.240127 475.905593 
L 231.423345 476.161021 
L 231.606564 476.077736 
L 231.667637 476.190918 
L 231.728709 475.854469 
L 231.789782 476.134076 
L 231.850855 475.952806 
L 231.911927 476.048503 
L 232.034073 476.233456 
L 232.095146 476.09085 
L 232.156219 476.290546 
L 232.217291 475.95591 
L 232.278364 476.191976 
L 232.339437 476.069319 
L 232.522655 476.283688 
L 232.583728 476.039436 
L 232.644801 476.21944 
L 232.705873 476.01855 
L 232.766946 476.26088 
L 232.828019 475.969416 
L 232.889092 476.25987 
L 232.950164 476.115695 
L 233.011237 476.297535 
L 233.07231 476.083921 
L 233.133382 476.221639 
L 233.316601 476.143916 
L 233.499819 476.372958 
L 233.683037 476.131538 
L 233.866256 476.376566 
L 234.049474 476.187905 
L 234.110546 476.32809 
L 234.171619 476.049344 
L 234.293765 476.35681 
L 234.41591 476.303978 
L 234.599129 476.37268 
L 234.782347 476.268989 
L 234.904492 476.389217 
L 235.026638 476.197066 
L 235.148783 476.3381 
L 235.270929 476.36916 
L 235.332001 476.40019 
L 235.51522 476.141158 
L 235.576293 476.361308 
L 235.637365 476.23641 
L 235.820583 476.395622 
L 236.003802 476.330281 
L 236.064875 476.453398 
L 236.125947 476.336303 
L 236.309166 476.384706 
L 236.492384 476.236746 
L 236.553456 476.411258 
L 236.736675 476.124842 
L 236.797748 476.401278 
L 236.85882 476.278649 
L 237.042038 476.383207 
L 237.103111 476.207185 
L 237.164184 476.438802 
L 237.225257 476.033992 
L 237.28633 476.323471 
L 237.347402 476.517922 
L 237.408475 476.482411 
L 237.713839 476.266931 
L 237.774912 476.483167 
L 237.835984 476.328424 
L 238.019203 476.545714 
L 238.141348 476.497314 
L 238.263493 476.479778 
L 238.324566 476.317631 
L 238.385639 476.495067 
L 238.446712 476.27987 
L 238.507785 476.481821 
L 238.568857 476.355434 
L 238.62993 476.480876 
L 238.691003 476.393215 
L 238.752075 476.467889 
L 238.813148 476.289819 
L 238.874221 476.539736 
L 238.935294 476.396335 
L 238.996367 476.520626 
L 239.057439 476.36168 
L 239.118512 476.454193 
L 239.423876 476.435609 
L 239.484949 476.542467 
L 239.546021 476.29709 
L 239.607094 476.432315 
L 239.72924 476.54872 
L 239.912458 476.319777 
L 240.095676 476.578714 
L 240.156749 476.462905 
L 240.217822 476.5666 
L 240.40104 476.478454 
L 240.462112 476.610399 
L 240.645331 476.306019 
L 240.767476 476.535444 
L 241.194986 476.505677 
L 241.256058 476.32697 
L 241.378204 476.574332 
L 241.622495 476.602372 
L 241.805713 476.660063 
L 241.866786 476.67932 
L 241.927859 476.562501 
L 242.050004 476.661281 
L 242.477513 476.699807 
L 242.660731 476.580737 
L 242.782877 476.68066 
L 243.027168 476.58321 
L 243.210386 476.68404 
L 243.393604 476.614884 
L 243.576823 476.729057 
L 243.760041 476.670799 
L 244.004332 476.792378 
L 244.676132 476.797808 
L 245.103641 476.887951 
L 245.28686 476.919693 
L 245.470078 476.96413 
L 245.836515 476.955365 
L 246.019733 477.005555 
L 246.264024 476.976805 
L 246.813678 477.02131 
L 247.180115 477.181113 
L 247.30226 477.179321 
L 254.447772 477.535288 
L 254.569918 477.557397 
L 254.753136 477.522452 
L 255.0585 477.585745 
L 255.241718 477.570739 
L 255.486009 477.515243 
L 255.7303 477.546966 
L 256.341027 477.584029 
L 257.379264 477.627478 
L 257.50141 477.723485 
L 257.623555 477.722216 
L 258.112137 477.769102 
L 258.295356 477.735259 
L 258.356428 477.775904 
L 258.417501 477.674862 
L 258.478574 477.766309 
L 259.211447 477.736183 
L 259.455738 477.796948 
L 259.700029 477.794844 
L 260.188611 477.810563 
L 260.555047 477.831468 
L 260.738266 477.787365 
L 260.860411 477.773665 
L 261.28792 477.852733 
L 261.410066 477.874613 
L 261.898648 477.902837 
L 262.692593 477.920388 
L 263.05903 477.901656 
L 263.242248 477.98687 
L 263.303321 477.838376 
L 263.364394 477.971779 
L 263.608685 478.023385 
L 264.036194 477.974652 
L 264.280485 478.07488 
L 264.707994 478.138568 
L 264.952285 478.15019 
L 265.013358 478.05009 
L 265.074431 478.090985 
L 267.639486 478.336986 
L 267.700559 478.273626 
L 267.761632 478.36287 
L 268.311286 478.325913 
L 268.372359 478.375626 
L 268.433432 478.272695 
L 268.494505 478.330914 
L 269.227378 478.367977 
L 269.471669 478.360185 
L 270.326687 478.391152 
L 270.38776 478.522127 
L 270.448833 478.491093 
L 270.570978 478.523597 
L 270.815269 478.511682 
L 271.120633 478.477126 
L 271.303851 478.557588 
L 271.425997 478.557726 
L 271.548142 478.591986 
L 271.853506 478.54147 
L 272.036724 478.6188 
L 272.342088 478.590013 
L 272.891743 478.612319 
L 273.074961 478.6547 
L 273.685689 478.628049 
L 273.868907 478.676743 
L 274.174271 478.600807 
L 274.357489 478.699636 
L 275.212507 478.69687 
L 275.456798 478.71843 
L 275.701089 478.71174 
L 276.006453 478.743388 
L 276.311817 478.704158 
L 276.495035 478.730648 
L 276.678253 478.767928 
L 276.739326 478.699374 
L 276.800399 478.7652 
L 277.71649 478.697862 
L 277.960781 478.800193 
L 278.38829 478.785199 
L 278.571508 478.849101 
L 278.999018 478.821422 
L 280.342618 478.888244 
L 280.647982 478.891422 
L 280.953346 478.904103 
L 286.999548 479.202608 
L 287.427057 479.193485 
L 287.549203 479.21659 
L 287.854567 479.236605 
L 288.526367 479.211005 
L 288.58744 479.128999 
L 288.648512 479.246831 
L 288.709585 479.18417 
L 288.953876 479.25837 
L 289.320312 479.193283 
L 289.503531 479.240418 
L 289.564604 479.155717 
L 289.625676 479.245265 
L 290.480695 479.384992 
L 290.541767 479.218886 
L 290.60284 479.371977 
L 290.786059 479.311229 
L 290.969277 479.356442 
L 291.396786 479.323946 
L 291.641077 479.378613 
L 292.862532 479.410257 
L 293.656478 479.421827 
L 293.839696 479.362836 
L 294.083987 479.505642 
L 294.572569 479.493466 
L 295.000078 479.506297 
L 295.061151 479.43579 
L 295.122224 479.515928 
L 295.305442 479.447105 
L 295.48866 479.522561 
L 295.610806 479.458574 
L 295.794024 479.549839 
L 296.038315 479.491592 
L 296.465824 479.542517 
L 297.015479 479.525287 
L 297.137625 479.598269 
L 300.740917 479.757148 
L 300.801989 479.635052 
L 300.863062 479.761258 
L 301.168426 479.738885 
L 301.351644 479.748939 
L 301.412717 479.687826 
L 301.47379 479.759202 
L 302.14559 479.741175 
L 302.695245 479.81869 
L 302.878463 479.730554 
L 303.061681 479.801006 
L 303.2449 479.788684 
L 304.405282 479.884937 
L 304.5885 479.823067 
L 304.771718 479.892232 
L 305.077082 479.868611 
L 305.382446 479.856095 
L 306.848192 479.945399 
L 307.03141 479.963417 
L 307.214628 479.969856 
L 307.458919 479.963647 
L 307.581065 479.989669 
L 307.70321 480.006953 
L 307.947501 479.990967 
L 308.130719 480.01745 
L 308.436083 480.039319 
L 308.619302 479.959877 
L 308.80252 480.025159 
L 309.107884 479.956234 
L 309.352174 480.136472 
L 310.14612 480.115582 
L 310.329339 480.140847 
L 314.299067 480.24294 
L 314.36014 480.168421 
L 314.421213 480.24806 
L 314.726577 480.20447 
L 314.909795 480.258198 
L 315.154086 480.246349 
L 318.513087 480.337758 
L 318.879524 480.347385 
L 319.24596 480.297752 
L 319.429178 480.347967 
L 319.673469 480.356033 
L 319.795615 480.402397 
L 319.978833 480.339948 
L 320.162051 480.399451 
L 320.406342 480.414572 
L 320.589561 480.431809 
L 321.933161 480.385787 
L 322.116379 480.417181 
L 322.421743 480.36361 
L 322.604961 480.443791 
L 322.78818 480.39144 
L 323.032471 480.420022 
L 325.414308 480.462656 
L 325.658599 480.492416 
L 325.841817 480.445412 
L 326.147181 480.491788 
L 326.330399 480.434845 
L 326.513617 480.498468 
L 326.696836 480.450202 
L 326.880054 480.500903 
L 327.063272 480.456847 
L 327.612927 480.522596 
L 327.796145 480.472923 
L 328.101509 480.518867 
L 328.590091 480.50459 
L 328.773309 480.507204 
L 329.0176 480.542914 
L 331.704801 480.577402 
L 331.888019 480.668416 
L 331.949092 480.591474 
L 332.010165 480.67017 
L 332.254456 480.635446 
L 332.926256 480.660904 
L 333.170547 480.68343 
L 341.598587 480.904006 
L 341.781805 480.979241 
L 341.842878 480.888334 
L 341.90395 480.961255 
L 342.209314 480.938175 
L 342.514678 480.973867 
L 342.575751 480.910564 
L 342.636823 480.985911 
L 342.881114 480.947481 
L 343.125405 480.98596 
L 343.308624 480.946367 
L 343.552915 480.951528 
L 343.858278 480.985262 
L 344.285788 480.949837 
L 344.530079 481.014252 
L 345.018661 481.007592 
L 345.324024 481.016591 
L 345.507243 480.979665 
L 345.751534 481.035236 
L 346.11797 480.996802 
L 346.484407 481.002959 
L 346.667625 481.028684 
L 346.728698 480.958055 
L 346.78977 481.0223 
L 347.095134 481.047494 
L 347.400498 481.035491 
L 348.805171 481.061833 
L 349.171608 481.088597 
L 349.538044 481.081752 
L 350.270917 481.115148 
L 350.515208 481.042514 
L 350.576281 481.134786 
L 350.637354 481.093278 
L 351.064863 481.126559 
L 351.248081 481.12251 
L 351.919881 481.172205 
L 352.1031 481.126446 
L 352.408463 481.163791 
L 352.652754 481.142375 
L 352.897045 481.181553 
L 353.202409 481.145417 
L 353.385627 481.186639 
L 353.4467 481.092029 
L 353.507773 481.190085 
L 353.690991 481.105935 
L 353.874209 481.191753 
L 354.54601 481.160962 
L 354.729228 481.185671 
L 354.851373 481.174611 
L 355.828537 481.195226 
L 356.133901 481.237042 
L 356.56141 481.245151 
L 356.683556 481.257571 
L 357.294283 481.281196 
L 357.477502 481.213493 
L 357.66072 481.273399 
L 357.843938 481.201301 
L 358.027156 481.265224 
L 358.088229 481.182893 
L 358.149302 481.26801 
L 358.271447 481.272459 
L 358.576811 481.239892 
L 358.760029 481.292773 
L 359.492902 481.271004 
L 359.676121 481.241667 
L 359.920412 481.287919 
L 360.470066 481.268239 
L 361.202939 481.29493 
L 361.386158 481.272028 
L 361.569376 481.313287 
L 361.752594 481.283418 
L 361.996885 481.304743 
L 363.035122 481.30246 
L 363.279413 481.301607 
L 363.584777 481.312944 
L 364.073359 481.274545 
L 364.378722 481.317491 
L 364.439795 481.26179 
L 364.500868 481.332895 
L 364.928377 481.275004 
L 365.111595 481.304509 
L 365.233741 481.314472 
L 365.416959 481.282773 
L 365.66125 481.317074 
L 366.821632 481.341988 
L 366.882705 481.263711 
L 366.943778 481.314279 
L 373.478562 481.344488 
L 373.66178 481.370853 
L 373.783926 481.387968 
L 373.967144 481.451979 
L 374.455726 481.456786 
L 375.982545 481.515712 
L 380.563001 481.638366 
L 380.99051 481.658269 
L 381.540165 481.681368 
L 382.150892 481.681847 
L 382.517329 481.721062 
L 383.066984 481.738303 
L 384.227366 481.753195 
L 385.20453 481.779125 
L 385.570966 481.824372 
L 386.548131 481.843705 
L 387.158858 481.859466 
L 387.708513 481.869808 
L 388.380313 481.899074 
L 390.273568 481.927707 
L 390.76215 481.908799 
L 391.128587 481.91711 
L 391.678242 481.938593 
L 392.166824 481.938142 
L 395.342607 481.963369 
L 395.831189 481.957661 
L 396.74728 481.985508 
L 400.289499 482.084342 
L 400.594863 482.07405 
L 400.839154 482.105733 
L 401.510954 482.120115 
L 402.854555 482.146124 
L 405.724974 482.19325 
L 406.274629 482.195442 
L 406.641065 482.223207 
L 407.19072 482.232184 
L 407.679302 482.244163 
L 407.86252 482.221386 
L 408.167884 482.243616 
L 409.816848 482.261775 
L 410.30543 482.291987 
L 411.160449 482.300349 
L 411.587958 482.310492 
L 413.786577 482.355024 
L 414.397305 482.360492 
L 414.946959 482.372082 
L 415.374469 482.370058 
L 416.718069 482.386324 
L 417.023433 482.366791 
L 417.512015 482.379192 
L 418.06167 482.390934 
L 421.481744 482.438327 
L 422.031398 482.442716 
L 424.657527 482.503687 
L 424.901818 482.49447 
L 425.3904 482.499748 
L 425.634691 482.514497 
L 426.184345 482.489926 
L 426.611855 482.514046 
L 427.466873 482.531986 
L 428.321892 482.541851 
L 428.627255 482.530705 
L 428.993692 482.554421 
L 439.925714 482.697003 
L 440.71966 482.677392 
L 441.025024 482.704757 
L 444.017588 482.721604 
L 444.322952 482.739319 
L 445.361189 482.747931 
L 447.804099 482.75577 
L 450.308082 482.776673 
L 450.857736 482.77997 
L 451.712755 482.785199 
L 462.217268 482.852552 
L 463.744087 482.862401 
L 464.232669 482.859352 
L 466.186997 482.883645 
L 472.172126 482.906749 
L 473.637872 482.924193 
L 474.187527 482.929485 
L 475.531127 482.946122 
L 476.569364 482.968308 
L 477.668674 482.974878 
L 478.340474 482.972344 
L 479.867293 482.988592 
L 480.905529 482.992475 
L 481.638402 483.013906 
L 508.571485 483.158864 
L 508.876849 483.13184 
L 509.182213 483.160754 
L 510.159377 483.158925 
L 510.770104 483.171663 
L 566.346306 483.556047 
L 566.590598 483.55743 
L 567.262398 483.552262 
L 567.934198 483.566334 
L 568.300635 483.56437 
L 569.522089 483.569911 
L 571.720709 483.576639 
L 572.331436 483.57989 
L 574.468982 483.594728 
L 576.606529 483.597994 
L 577.827984 483.601618 
L 582.897022 483.636168 
L 589.73717 483.700624 
L 590.470043 483.70094 
L 599.814174 483.790441 
L 601.52421 483.805104 
L 607.020758 483.826173 
L 607.692558 483.838374 
L 610.685123 483.856151 
L 611.479069 483.863684 
L 612.578378 483.869946 
L 625.953311 483.934753 
L 629.678748 483.95265 
L 635.541732 483.977776 
L 636.396751 483.982268 
L 648.550228 484.058004 
L 671.025 484.184676 
L 671.025 484.184676 
" style="fill:none;stroke:#1f77b4;stroke-linecap:square;stroke-width:3;"/>
   </g>
   <g id="line2d_15">
    <path clip-path="url(#p3443c9e959)" d="M 60.358573 47.538756 
L 66.95443 47.538756 
L 67.076575 82.399504 
L 73.61136 82.399504 
L 73.733505 73.812461 
L 80.268289 73.812461 
L 80.390435 107.396301 
L 86.925219 107.396301 
L 87.047365 137.78703 
L 93.582149 137.78703 
L 93.704294 89.025638 
L 100.239079 89.025638 
L 100.361224 175.595809 
L 106.896008 175.595809 
L 107.018154 199.214447 
L 113.552938 199.214447 
L 113.675083 224.942331 
L 120.209868 224.942331 
L 120.332013 254.57949 
L 126.866798 254.57949 
L 126.988943 287.790789 
L 133.523727 287.790789 
L 133.645873 262.842031 
L 140.180657 262.842031 
L 140.302802 320.139209 
L 146.837587 320.139209 
L 146.959732 343.362045 
L 153.494517 343.362045 
L 153.616662 369.335684 
L 160.151446 369.335684 
L 160.273592 386.602168 
L 166.808376 386.602168 
L 166.930521 396.537678 
L 173.465306 396.537678 
L 173.587451 405.350297 
L 180.122235 405.350297 
L 180.244381 417.967357 
L 186.779165 417.967357 
L 186.901311 431.570291 
L 193.436095 431.570291 
L 193.558241 450.184224 
L 200.093025 450.184224 
L 200.21517 461.619636 
L 206.749955 461.619636 
L 206.8721 465.817253 
L 213.406884 465.817253 
L 213.52903 467.931295 
L 220.063814 467.931295 
L 220.18596 469.755352 
L 226.720744 469.755352 
L 226.842889 470.105172 
L 233.377674 470.105172 
L 233.499819 470.601588 
L 240.034603 470.601588 
L 240.156749 470.794288 
L 246.691533 470.794288 
L 246.813678 471.044415 
L 253.348463 471.044415 
L 253.470608 471.382041 
L 260.005393 471.382041 
L 260.127538 471.5851 
L 266.662322 471.5851 
L 266.784468 471.753725 
L 273.319252 471.753725 
L 273.441397 471.97625 
L 279.976182 471.97625 
L 280.098327 472.204071 
L 286.633111 472.204071 
L 286.755257 472.473297 
L 293.290041 472.473297 
L 293.412187 473.388871 
L 299.946971 473.388871 
L 300.069117 473.884761 
L 306.603901 473.884761 
L 306.726046 475.322889 
L 313.26083 475.322889 
L 313.382976 476.596688 
L 319.91776 476.596688 
L 320.039906 477.470015 
L 326.57469 477.470015 
L 326.696836 477.826879 
L 333.23162 477.826879 
L 333.353765 478.539865 
L 339.88855 478.539865 
L 340.010695 478.769008 
L 346.545479 478.769008 
L 346.667625 479.010104 
L 353.202409 479.010104 
L 353.324555 479.265385 
L 373.173198 479.345372 
L 373.356417 479.406344 
L 386.487058 479.489927 
L 386.670276 479.557972 
L 406.457847 479.659523 
L 406.763211 479.687987 
L 433.085566 479.763044 
L 433.329857 479.800874 
L 473.027145 479.906601 
L 473.332508 479.931485 
L 506.311793 480.030348 
L 506.861448 480.043667 
L 652.764248 480.149337 
L 653.619266 480.157424 
L 671.086073 480.173011 
L 671.086073 480.173011 
" style="fill:none;stroke:#ff7f0e;stroke-linecap:square;stroke-width:3;"/>
   </g>
   <g id="line2d_16">
    <path clip-path="url(#p3443c9e959)" d="M 60.358573 47.538756 
L 66.95443 47.538756 
L 67.076575 82.399498 
L 73.61136 82.399499 
L 73.672432 58.530477 
L 73.794578 109.75776 
L 80.329362 109.75776 
L 80.451508 155.39755 
L 86.986292 155.39755 
L 87.047365 59.952063 
L 87.230583 192.379163 
L 93.765367 192.379163 
L 93.887512 223.092838 
L 100.422297 223.092837 
L 100.544442 245.894025 
L 107.079227 245.894025 
L 107.201372 308.037057 
L 113.736156 308.037057 
L 113.797229 297.72182 
L 113.919375 338.194747 
L 120.454159 338.194747 
L 120.515231 282.823184 
L 120.637377 359.503458 
L 127.172161 359.503458 
L 127.233234 329.451063 
L 127.355379 380.116395 
L 133.890164 380.116395 
L 133.951236 358.410961 
L 134.073382 395.171206 
L 140.608166 395.171206 
L 140.91353 415.068287 
L 147.326169 415.068287 
L 147.387242 419.228497 
L 147.509387 433.896085 
L 154.044171 433.896085 
L 154.105244 384.64906 
L 154.22739 451.637571 
L 160.762174 451.637571 
L 160.823246 450.565933 
L 160.945392 461.599518 
L 167.480176 461.599518 
L 167.541249 447.883312 
L 167.663395 466.038616 
L 174.198179 466.038616 
L 174.259252 450.946412 
L 174.381397 468.463769 
L 180.916181 468.463769 
L 180.977254 467.832918 
L 181.0994 469.557985 
L 187.634184 469.557985 
L 187.695256 467.911301 
L 187.817402 469.985668 
L 194.352186 469.985668 
L 194.413259 469.461136 
L 194.535405 470.482633 
L 201.070189 470.482633 
L 201.192334 470.773925 
L 207.727119 470.773925 
L 207.849264 471.316873 
L 214.384048 471.316873 
L 214.506194 471.980602 
L 221.040978 471.980602 
L 221.163123 472.926085 
L 227.697908 472.926085 
L 227.820053 473.834143 
L 234.354838 473.834143 
L 234.476983 475.283899 
L 241.011767 475.283899 
L 241.133913 475.719921 
L 247.668697 475.719921 
L 247.790842 477.429528 
L 254.325627 477.429528 
L 254.3867 477.545654 
L 254.508845 478.245282 
L 261.043629 478.245282 
L 261.165775 478.461196 
L 267.700559 478.461196 
L 267.822704 478.77187 
L 274.418562 478.716108 
L 274.540707 479.174541 
L 281.136564 479.23543 
L 281.319782 479.347207 
L 294.450423 479.392163 
L 294.633642 479.513745 
L 307.764283 479.575673 
L 307.947501 479.667437 
L 327.735072 479.772545 
L 327.918291 479.822107 
L 341.048932 479.890185 
L 341.23215 479.941354 
L 367.676651 480.050526 
L 368.165233 480.065911 
L 447.559808 480.166066 
L 448.109463 480.180306 
L 507.472176 480.28906 
L 508.082903 480.301081 
L 587.355333 480.410582 
L 588.760006 480.415555 
L 660.58156 480.505179 
L 660.886924 480.532561 
L 671.086073 480.580281 
L 671.086073 480.580281 
" style="fill:none;stroke:#2ca02c;stroke-linecap:square;stroke-width:3;"/>
   </g>
   <g id="line2d_17">
    <path clip-path="url(#p3443c9e959)" d="M 60.2975 489.817252 
L 671.025 489.817252 
" style="fill:none;stroke:#000000;stroke-dasharray:7.4,3.2;stroke-dashoffset:0;stroke-width:2;"/>
   </g>
   <g id="patch_3">
    <path d="M 60.2975 507.745 
L 60.2975 14.607063 
" style="fill:none;stroke:#000000;stroke-linecap:square;stroke-linejoin:miter;stroke-width:0.8;"/>
   </g>
   <g id="patch_4">
    <path d="M 671.025 507.745 
L 671.025 14.607063 
" style="fill:none;stroke:#000000;stroke-linecap:square;stroke-linejoin:miter;stroke-width:0.8;"/>
   </g>
   <g id="patch_5">
    <path d="M 60.2975 507.745 
L 671.025 507.745 
" style="fill:none;stroke:#000000;stroke-linecap:square;stroke-linejoin:miter;stroke-width:0.8;"/>
   </g>
   <g id="patch_6">
    <path d="M 60.2975 14.607063 
L 671.025 14.607063 
" style="fill:none;stroke:#000000;stroke-linecap:square;stroke-linejoin:miter;stroke-width:0.8;"/>
   </g>
   <g id="legend_1">
    <g id="patch_7">
     <path d="M 468.32625 174.717063 
L 654.225 174.717063 
Q 659.025 174.717063 659.025 169.917063 
L 659.025 31.407063 
Q 659.025 26.607063 654.225 26.607063 
L 468.32625 26.607063 
Q 463.52625 26.607063 463.52625 31.407063 
L 463.52625 169.917063 
Q 463.52625 174.717063 468.32625 174.717063 
z
" style="fill:#ffffff;opacity:0.8;stroke:#cccccc;stroke-linejoin:miter;"/>
    </g>
    <g id="line2d_18">
     <path d="M 473.12625 46.043313 
L 521.12625 46.043313 
" style="fill:none;stroke:#1f77b4;stroke-linecap:square;stroke-width:3;"/>
    </g>
    <g id="line2d_19"/>
    <g id="text_16">
     <!-- COBYLA -->
     <g transform="translate(540.32625 54.443313)scale(0.24 -0.24)">
      <defs>
       <path d="M 4122 4306 
L 4122 3641 
Q 3803 3938 3442 4084 
Q 3081 4231 2675 4231 
Q 1875 4231 1450 3742 
Q 1025 3253 1025 2328 
Q 1025 1406 1450 917 
Q 1875 428 2675 428 
Q 3081 428 3442 575 
Q 3803 722 4122 1019 
L 4122 359 
Q 3791 134 3420 21 
Q 3050 -91 2638 -91 
Q 1578 -91 968 557 
Q 359 1206 359 2328 
Q 359 3453 968 4101 
Q 1578 4750 2638 4750 
Q 3056 4750 3426 4639 
Q 3797 4528 4122 4306 
z
" id="DejaVuSans-43" transform="scale(0.015625)"/>
       <path d="M 2522 4238 
Q 1834 4238 1429 3725 
Q 1025 3213 1025 2328 
Q 1025 1447 1429 934 
Q 1834 422 2522 422 
Q 3209 422 3611 934 
Q 4013 1447 4013 2328 
Q 4013 3213 3611 3725 
Q 3209 4238 2522 4238 
z
M 2522 4750 
Q 3503 4750 4090 4092 
Q 4678 3434 4678 2328 
Q 4678 1225 4090 567 
Q 3503 -91 2522 -91 
Q 1538 -91 948 565 
Q 359 1222 359 2328 
Q 359 3434 948 4092 
Q 1538 4750 2522 4750 
z
" id="DejaVuSans-4f" transform="scale(0.015625)"/>
       <path d="M 1259 2228 
L 1259 519 
L 2272 519 
Q 2781 519 3026 730 
Q 3272 941 3272 1375 
Q 3272 1813 3026 2020 
Q 2781 2228 2272 2228 
L 1259 2228 
z
M 1259 4147 
L 1259 2741 
L 2194 2741 
Q 2656 2741 2882 2914 
Q 3109 3088 3109 3444 
Q 3109 3797 2882 3972 
Q 2656 4147 2194 4147 
L 1259 4147 
z
M 628 4666 
L 2241 4666 
Q 2963 4666 3353 4366 
Q 3744 4066 3744 3513 
Q 3744 3084 3544 2831 
Q 3344 2578 2956 2516 
Q 3422 2416 3680 2098 
Q 3938 1781 3938 1306 
Q 3938 681 3513 340 
Q 3088 0 2303 0 
L 628 0 
L 628 4666 
z
" id="DejaVuSans-42" transform="scale(0.015625)"/>
       <path d="M -13 4666 
L 666 4666 
L 1959 2747 
L 3244 4666 
L 3922 4666 
L 2272 2222 
L 2272 0 
L 1638 0 
L 1638 2222 
L -13 4666 
z
" id="DejaVuSans-59" transform="scale(0.015625)"/>
       <path d="M 628 4666 
L 1259 4666 
L 1259 531 
L 3531 531 
L 3531 0 
L 628 0 
L 628 4666 
z
" id="DejaVuSans-4c" transform="scale(0.015625)"/>
       <path d="M 2188 4044 
L 1331 1722 
L 3047 1722 
L 2188 4044 
z
M 1831 4666 
L 2547 4666 
L 4325 0 
L 3669 0 
L 3244 1197 
L 1141 1197 
L 716 0 
L 50 0 
L 1831 4666 
z
" id="DejaVuSans-41" transform="scale(0.015625)"/>
      </defs>
      <use xlink:href="#DejaVuSans-43"/>
      <use x="69.824219" xlink:href="#DejaVuSans-4f"/>
      <use x="148.535156" xlink:href="#DejaVuSans-42"/>
      <use x="211.638672" xlink:href="#DejaVuSans-59"/>
      <use x="272.722656" xlink:href="#DejaVuSans-4c"/>
      <use x="330.685547" xlink:href="#DejaVuSans-41"/>
     </g>
    </g>
    <g id="line2d_20">
     <path d="M 473.12625 81.270813 
L 521.12625 81.270813 
" style="fill:none;stroke:#ff7f0e;stroke-linecap:square;stroke-width:3;"/>
    </g>
    <g id="line2d_21"/>
    <g id="text_17">
     <!-- L-BFGS-B -->
     <g transform="translate(540.32625 89.670813)scale(0.24 -0.24)">
      <defs>
       <path d="M 313 2009 
L 1997 2009 
L 1997 1497 
L 313 1497 
L 313 2009 
z
" id="DejaVuSans-2d" transform="scale(0.015625)"/>
       <path d="M 628 4666 
L 3309 4666 
L 3309 4134 
L 1259 4134 
L 1259 2759 
L 3109 2759 
L 3109 2228 
L 1259 2228 
L 1259 0 
L 628 0 
L 628 4666 
z
" id="DejaVuSans-46" transform="scale(0.015625)"/>
       <path d="M 3809 666 
L 3809 1919 
L 2778 1919 
L 2778 2438 
L 4434 2438 
L 4434 434 
Q 4069 175 3628 42 
Q 3188 -91 2688 -91 
Q 1594 -91 976 548 
Q 359 1188 359 2328 
Q 359 3472 976 4111 
Q 1594 4750 2688 4750 
Q 3144 4750 3555 4637 
Q 3966 4525 4313 4306 
L 4313 3634 
Q 3963 3931 3569 4081 
Q 3175 4231 2741 4231 
Q 1884 4231 1454 3753 
Q 1025 3275 1025 2328 
Q 1025 1384 1454 906 
Q 1884 428 2741 428 
Q 3075 428 3337 486 
Q 3600 544 3809 666 
z
" id="DejaVuSans-47" transform="scale(0.015625)"/>
       <path d="M 3425 4513 
L 3425 3897 
Q 3066 4069 2747 4153 
Q 2428 4238 2131 4238 
Q 1616 4238 1336 4038 
Q 1056 3838 1056 3469 
Q 1056 3159 1242 3001 
Q 1428 2844 1947 2747 
L 2328 2669 
Q 3034 2534 3370 2195 
Q 3706 1856 3706 1288 
Q 3706 609 3251 259 
Q 2797 -91 1919 -91 
Q 1588 -91 1214 -16 
Q 841 59 441 206 
L 441 856 
Q 825 641 1194 531 
Q 1563 422 1919 422 
Q 2459 422 2753 634 
Q 3047 847 3047 1241 
Q 3047 1584 2836 1778 
Q 2625 1972 2144 2069 
L 1759 2144 
Q 1053 2284 737 2584 
Q 422 2884 422 3419 
Q 422 4038 858 4394 
Q 1294 4750 2059 4750 
Q 2388 4750 2728 4690 
Q 3069 4631 3425 4513 
z
" id="DejaVuSans-53" transform="scale(0.015625)"/>
      </defs>
      <use xlink:href="#DejaVuSans-4c"/>
      <use x="53.962891" xlink:href="#DejaVuSans-2d"/>
      <use x="86.421875" xlink:href="#DejaVuSans-42"/>
      <use x="155.025391" xlink:href="#DejaVuSans-46"/>
      <use x="212.544922" xlink:href="#DejaVuSans-47"/>
      <use x="290.035156" xlink:href="#DejaVuSans-53"/>
      <use x="353.511719" xlink:href="#DejaVuSans-2d"/>
      <use x="385.970703" xlink:href="#DejaVuSans-42"/>
     </g>
    </g>
    <g id="line2d_22">
     <path d="M 473.12625 116.498313 
L 521.12625 116.498313 
" style="fill:none;stroke:#2ca02c;stroke-linecap:square;stroke-width:3;"/>
    </g>
    <g id="line2d_23"/>
    <g id="text_18">
     <!-- SLSQP -->
     <g transform="translate(540.32625 124.898313)scale(0.24 -0.24)">
      <defs>
       <path d="M 1259 4147 
L 1259 2394 
L 2053 2394 
Q 2494 2394 2734 2622 
Q 2975 2850 2975 3272 
Q 2975 3691 2734 3919 
Q 2494 4147 2053 4147 
L 1259 4147 
z
M 628 4666 
L 2053 4666 
Q 2838 4666 3239 4311 
Q 3641 3956 3641 3272 
Q 3641 2581 3239 2228 
Q 2838 1875 2053 1875 
L 1259 1875 
L 1259 0 
L 628 0 
L 628 4666 
z
" id="DejaVuSans-50" transform="scale(0.015625)"/>
      </defs>
      <use xlink:href="#DejaVuSans-53"/>
      <use x="63.476562" xlink:href="#DejaVuSans-4c"/>
      <use x="119.189453" xlink:href="#DejaVuSans-53"/>
      <use x="182.666016" xlink:href="#DejaVuSans-51"/>
      <use x="261.376953" xlink:href="#DejaVuSans-50"/>
     </g>
    </g>
    <g id="line2d_24">
     <path d="M 473.12625 151.725813 
L 521.12625 151.725813 
" style="fill:none;stroke:#000000;stroke-dasharray:7.4,3.2;stroke-dashoffset:0;stroke-width:2;"/>
    </g>
    <g id="line2d_25"/>
    <g id="text_19">
     <!-- HT -->
     <g transform="translate(540.32625 160.125813)scale(0.24 -0.24)">
      <defs>
       <path d="M 628 4666 
L 1259 4666 
L 1259 2753 
L 3553 2753 
L 3553 4666 
L 4184 4666 
L 4184 0 
L 3553 0 
L 3553 2222 
L 1259 2222 
L 1259 0 
L 628 0 
L 628 4666 
z
" id="DejaVuSans-48" transform="scale(0.015625)"/>
       <path d="M -19 4666 
L 3928 4666 
L 3928 4134 
L 2272 4134 
L 2272 0 
L 1638 0 
L 1638 4134 
L -19 4134 
L -19 4666 
z
" id="DejaVuSans-54" transform="scale(0.015625)"/>
      </defs>
      <use xlink:href="#DejaVuSans-48"/>
      <use x="75.195312" xlink:href="#DejaVuSans-54"/>
     </g>
    </g>
   </g>
  </g>
 </g>
 <defs>
  <clipPath id="p3443c9e959">
   <rect height="493.137937" width="610.7275" x="60.2975" y="14.607063"/>
  </clipPath>
 </defs>
</svg>
