<?xml version="1.0" encoding="utf-8" standalone="no"?>
<!DOCTYPE svg PUBLIC "-//W3C//DTD SVG 1.1//EN"
  "http://www.w3.org/Graphics/SVG/1.1/DTD/svg11.dtd">
<svg height="576pt" version="1.1" viewBox="0 0 720 576" width="720pt" xmlns="http://www.w3.org/2000/svg" xmlns:xlink="http://www.w3.org/1999/xlink">
 <metadata>
  <rdf:RDF xmlns:cc="http://creativecommons.org/ns#" xmlns:dc="http://purl.org/dc/elements/1.1/" xmlns:rdf="http://www.w3.org/1999/02/22-rdf-syntax-ns#">
   <cc:Work>
    <dc:type rdf:resource="http://purl.org/dc/dcmitype/StillImage"/>
    <dc:date>2021-07-30T13:09:14.870280</dc:date>
    <dc:format>image/svg+xml</dc:format>
    <dc:creator>
     <cc:Agent>
      <dc:title>Matplotlib v3.4.2, https://matplotlib.org/</dc:title>
     </cc:Agent>
    </dc:creator>
   </cc:Work>
  </rdf:RDF>
 </metadata>
 <defs>
  <style type="text/css">*{stroke-linecap:butt;stroke-linejoin:round;}</style>
 </defs>
 <g id="figure_1">
  <g id="patch_1">
   <path d="M 0 576 
L 720 576 
L 720 0 
L 0 0 
z
" style="fill:#ffffff;"/>
  </g>
  <g id="axes_1">
   <g id="patch_2">
    <path d="M 60.2975 507.745 
L 678.66 507.745 
L 678.66 14.405953 
L 60.2975 14.405953 
z
" style="fill:#ffffff;"/>
   </g>
   <g id="matplotlib.axis_1">
    <g id="xtick_1">
     <g id="line2d_1">
      <defs>
       <path d="M 0 0 
L 0 3.5 
" id="mf6dd3d1732" style="stroke:#000000;stroke-width:0.8;"/>
      </defs>
      <g>
       <use style="stroke:#000000;stroke-width:0.8;" x="60.2975" xlink:href="#mf6dd3d1732" y="507.745"/>
      </g>
     </g>
     <g id="text_1">
      <!-- 0 -->
      <g transform="translate(52.6625 532.98125)scale(0.24 -0.24)">
       <defs>
        <path d="M 2034 4250 
Q 1547 4250 1301 3770 
Q 1056 3291 1056 2328 
Q 1056 1369 1301 889 
Q 1547 409 2034 409 
Q 2525 409 2770 889 
Q 3016 1369 3016 2328 
Q 3016 3291 2770 3770 
Q 2525 4250 2034 4250 
z
M 2034 4750 
Q 2819 4750 3233 4129 
Q 3647 3509 3647 2328 
Q 3647 1150 3233 529 
Q 2819 -91 2034 -91 
Q 1250 -91 836 529 
Q 422 1150 422 2328 
Q 422 3509 836 4129 
Q 1250 4750 2034 4750 
z
" id="DejaVuSans-30" transform="scale(0.015625)"/>
       </defs>
       <use xlink:href="#DejaVuSans-30"/>
      </g>
     </g>
    </g>
    <g id="xtick_2">
     <g id="line2d_2">
      <g>
       <use style="stroke:#000000;stroke-width:0.8;" x="183.97" xlink:href="#mf6dd3d1732" y="507.745"/>
      </g>
     </g>
     <g id="text_2">
      <!-- 1000 -->
      <g transform="translate(153.43 532.98125)scale(0.24 -0.24)">
       <defs>
        <path d="M 794 531 
L 1825 531 
L 1825 4091 
L 703 3866 
L 703 4441 
L 1819 4666 
L 2450 4666 
L 2450 531 
L 3481 531 
L 3481 0 
L 794 0 
L 794 531 
z
" id="DejaVuSans-31" transform="scale(0.015625)"/>
       </defs>
       <use xlink:href="#DejaVuSans-31"/>
       <use x="63.623047" xlink:href="#DejaVuSans-30"/>
       <use x="127.246094" xlink:href="#DejaVuSans-30"/>
       <use x="190.869141" xlink:href="#DejaVuSans-30"/>
      </g>
     </g>
    </g>
    <g id="xtick_3">
     <g id="line2d_3">
      <g>
       <use style="stroke:#000000;stroke-width:0.8;" x="307.6425" xlink:href="#mf6dd3d1732" y="507.745"/>
      </g>
     </g>
     <g id="text_3">
      <!-- 2000 -->
      <g transform="translate(277.1025 532.98125)scale(0.24 -0.24)">
       <defs>
        <path d="M 1228 531 
L 3431 531 
L 3431 0 
L 469 0 
L 469 531 
Q 828 903 1448 1529 
Q 2069 2156 2228 2338 
Q 2531 2678 2651 2914 
Q 2772 3150 2772 3378 
Q 2772 3750 2511 3984 
Q 2250 4219 1831 4219 
Q 1534 4219 1204 4116 
Q 875 4013 500 3803 
L 500 4441 
Q 881 4594 1212 4672 
Q 1544 4750 1819 4750 
Q 2544 4750 2975 4387 
Q 3406 4025 3406 3419 
Q 3406 3131 3298 2873 
Q 3191 2616 2906 2266 
Q 2828 2175 2409 1742 
Q 1991 1309 1228 531 
z
" id="DejaVuSans-32" transform="scale(0.015625)"/>
       </defs>
       <use xlink:href="#DejaVuSans-32"/>
       <use x="63.623047" xlink:href="#DejaVuSans-30"/>
       <use x="127.246094" xlink:href="#DejaVuSans-30"/>
       <use x="190.869141" xlink:href="#DejaVuSans-30"/>
      </g>
     </g>
    </g>
    <g id="xtick_4">
     <g id="line2d_4">
      <g>
       <use style="stroke:#000000;stroke-width:0.8;" x="431.315" xlink:href="#mf6dd3d1732" y="507.745"/>
      </g>
     </g>
     <g id="text_4">
      <!-- 3000 -->
      <g transform="translate(400.775 532.98125)scale(0.24 -0.24)">
       <defs>
        <path d="M 2597 2516 
Q 3050 2419 3304 2112 
Q 3559 1806 3559 1356 
Q 3559 666 3084 287 
Q 2609 -91 1734 -91 
Q 1441 -91 1130 -33 
Q 819 25 488 141 
L 488 750 
Q 750 597 1062 519 
Q 1375 441 1716 441 
Q 2309 441 2620 675 
Q 2931 909 2931 1356 
Q 2931 1769 2642 2001 
Q 2353 2234 1838 2234 
L 1294 2234 
L 1294 2753 
L 1863 2753 
Q 2328 2753 2575 2939 
Q 2822 3125 2822 3475 
Q 2822 3834 2567 4026 
Q 2313 4219 1838 4219 
Q 1578 4219 1281 4162 
Q 984 4106 628 3988 
L 628 4550 
Q 988 4650 1302 4700 
Q 1616 4750 1894 4750 
Q 2613 4750 3031 4423 
Q 3450 4097 3450 3541 
Q 3450 3153 3228 2886 
Q 3006 2619 2597 2516 
z
" id="DejaVuSans-33" transform="scale(0.015625)"/>
       </defs>
       <use xlink:href="#DejaVuSans-33"/>
       <use x="63.623047" xlink:href="#DejaVuSans-30"/>
       <use x="127.246094" xlink:href="#DejaVuSans-30"/>
       <use x="190.869141" xlink:href="#DejaVuSans-30"/>
      </g>
     </g>
    </g>
    <g id="xtick_5">
     <g id="line2d_5">
      <g>
       <use style="stroke:#000000;stroke-width:0.8;" x="554.9875" xlink:href="#mf6dd3d1732" y="507.745"/>
      </g>
     </g>
     <g id="text_5">
      <!-- 4000 -->
      <g transform="translate(524.4475 532.98125)scale(0.24 -0.24)">
       <defs>
        <path d="M 2419 4116 
L 825 1625 
L 2419 1625 
L 2419 4116 
z
M 2253 4666 
L 3047 4666 
L 3047 1625 
L 3713 1625 
L 3713 1100 
L 3047 1100 
L 3047 0 
L 2419 0 
L 2419 1100 
L 313 1100 
L 313 1709 
L 2253 4666 
z
" id="DejaVuSans-34" transform="scale(0.015625)"/>
       </defs>
       <use xlink:href="#DejaVuSans-34"/>
       <use x="63.623047" xlink:href="#DejaVuSans-30"/>
       <use x="127.246094" xlink:href="#DejaVuSans-30"/>
       <use x="190.869141" xlink:href="#DejaVuSans-30"/>
      </g>
     </g>
    </g>
    <g id="xtick_6">
     <g id="line2d_6">
      <g>
       <use style="stroke:#000000;stroke-width:0.8;" x="678.66" xlink:href="#mf6dd3d1732" y="507.745"/>
      </g>
     </g>
     <g id="text_6">
      <!-- 5000 -->
      <g transform="translate(648.12 532.98125)scale(0.24 -0.24)">
       <defs>
        <path d="M 691 4666 
L 3169 4666 
L 3169 4134 
L 1269 4134 
L 1269 2991 
Q 1406 3038 1543 3061 
Q 1681 3084 1819 3084 
Q 2600 3084 3056 2656 
Q 3513 2228 3513 1497 
Q 3513 744 3044 326 
Q 2575 -91 1722 -91 
Q 1428 -91 1123 -41 
Q 819 9 494 109 
L 494 744 
Q 775 591 1075 516 
Q 1375 441 1709 441 
Q 2250 441 2565 725 
Q 2881 1009 2881 1497 
Q 2881 1984 2565 2268 
Q 2250 2553 1709 2553 
Q 1456 2553 1204 2497 
Q 953 2441 691 2322 
L 691 4666 
z
" id="DejaVuSans-35" transform="scale(0.015625)"/>
       </defs>
       <use xlink:href="#DejaVuSans-35"/>
       <use x="63.623047" xlink:href="#DejaVuSans-30"/>
       <use x="127.246094" xlink:href="#DejaVuSans-30"/>
       <use x="190.869141" xlink:href="#DejaVuSans-30"/>
      </g>
     </g>
    </g>
    <g id="text_7">
     <!-- iterations -->
     <g transform="translate(312.533125 560.20875)scale(0.24 -0.24)">
      <defs>
       <path d="M 603 3500 
L 1178 3500 
L 1178 0 
L 603 0 
L 603 3500 
z
M 603 4863 
L 1178 4863 
L 1178 4134 
L 603 4134 
L 603 4863 
z
" id="DejaVuSans-69" transform="scale(0.015625)"/>
       <path d="M 1172 4494 
L 1172 3500 
L 2356 3500 
L 2356 3053 
L 1172 3053 
L 1172 1153 
Q 1172 725 1289 603 
Q 1406 481 1766 481 
L 2356 481 
L 2356 0 
L 1766 0 
Q 1100 0 847 248 
Q 594 497 594 1153 
L 594 3053 
L 172 3053 
L 172 3500 
L 594 3500 
L 594 4494 
L 1172 4494 
z
" id="DejaVuSans-74" transform="scale(0.015625)"/>
       <path d="M 3597 1894 
L 3597 1613 
L 953 1613 
Q 991 1019 1311 708 
Q 1631 397 2203 397 
Q 2534 397 2845 478 
Q 3156 559 3463 722 
L 3463 178 
Q 3153 47 2828 -22 
Q 2503 -91 2169 -91 
Q 1331 -91 842 396 
Q 353 884 353 1716 
Q 353 2575 817 3079 
Q 1281 3584 2069 3584 
Q 2775 3584 3186 3129 
Q 3597 2675 3597 1894 
z
M 3022 2063 
Q 3016 2534 2758 2815 
Q 2500 3097 2075 3097 
Q 1594 3097 1305 2825 
Q 1016 2553 972 2059 
L 3022 2063 
z
" id="DejaVuSans-65" transform="scale(0.015625)"/>
       <path d="M 2631 2963 
Q 2534 3019 2420 3045 
Q 2306 3072 2169 3072 
Q 1681 3072 1420 2755 
Q 1159 2438 1159 1844 
L 1159 0 
L 581 0 
L 581 3500 
L 1159 3500 
L 1159 2956 
Q 1341 3275 1631 3429 
Q 1922 3584 2338 3584 
Q 2397 3584 2469 3576 
Q 2541 3569 2628 3553 
L 2631 2963 
z
" id="DejaVuSans-72" transform="scale(0.015625)"/>
       <path d="M 2194 1759 
Q 1497 1759 1228 1600 
Q 959 1441 959 1056 
Q 959 750 1161 570 
Q 1363 391 1709 391 
Q 2188 391 2477 730 
Q 2766 1069 2766 1631 
L 2766 1759 
L 2194 1759 
z
M 3341 1997 
L 3341 0 
L 2766 0 
L 2766 531 
Q 2569 213 2275 61 
Q 1981 -91 1556 -91 
Q 1019 -91 701 211 
Q 384 513 384 1019 
Q 384 1609 779 1909 
Q 1175 2209 1959 2209 
L 2766 2209 
L 2766 2266 
Q 2766 2663 2505 2880 
Q 2244 3097 1772 3097 
Q 1472 3097 1187 3025 
Q 903 2953 641 2809 
L 641 3341 
Q 956 3463 1253 3523 
Q 1550 3584 1831 3584 
Q 2591 3584 2966 3190 
Q 3341 2797 3341 1997 
z
" id="DejaVuSans-61" transform="scale(0.015625)"/>
       <path d="M 1959 3097 
Q 1497 3097 1228 2736 
Q 959 2375 959 1747 
Q 959 1119 1226 758 
Q 1494 397 1959 397 
Q 2419 397 2687 759 
Q 2956 1122 2956 1747 
Q 2956 2369 2687 2733 
Q 2419 3097 1959 3097 
z
M 1959 3584 
Q 2709 3584 3137 3096 
Q 3566 2609 3566 1747 
Q 3566 888 3137 398 
Q 2709 -91 1959 -91 
Q 1206 -91 779 398 
Q 353 888 353 1747 
Q 353 2609 779 3096 
Q 1206 3584 1959 3584 
z
" id="DejaVuSans-6f" transform="scale(0.015625)"/>
       <path d="M 3513 2113 
L 3513 0 
L 2938 0 
L 2938 2094 
Q 2938 2591 2744 2837 
Q 2550 3084 2163 3084 
Q 1697 3084 1428 2787 
Q 1159 2491 1159 1978 
L 1159 0 
L 581 0 
L 581 3500 
L 1159 3500 
L 1159 2956 
Q 1366 3272 1645 3428 
Q 1925 3584 2291 3584 
Q 2894 3584 3203 3211 
Q 3513 2838 3513 2113 
z
" id="DejaVuSans-6e" transform="scale(0.015625)"/>
       <path d="M 2834 3397 
L 2834 2853 
Q 2591 2978 2328 3040 
Q 2066 3103 1784 3103 
Q 1356 3103 1142 2972 
Q 928 2841 928 2578 
Q 928 2378 1081 2264 
Q 1234 2150 1697 2047 
L 1894 2003 
Q 2506 1872 2764 1633 
Q 3022 1394 3022 966 
Q 3022 478 2636 193 
Q 2250 -91 1575 -91 
Q 1294 -91 989 -36 
Q 684 19 347 128 
L 347 722 
Q 666 556 975 473 
Q 1284 391 1588 391 
Q 1994 391 2212 530 
Q 2431 669 2431 922 
Q 2431 1156 2273 1281 
Q 2116 1406 1581 1522 
L 1381 1569 
Q 847 1681 609 1914 
Q 372 2147 372 2553 
Q 372 3047 722 3315 
Q 1072 3584 1716 3584 
Q 2034 3584 2315 3537 
Q 2597 3491 2834 3397 
z
" id="DejaVuSans-73" transform="scale(0.015625)"/>
      </defs>
      <use xlink:href="#DejaVuSans-69"/>
      <use x="27.783203" xlink:href="#DejaVuSans-74"/>
      <use x="66.992188" xlink:href="#DejaVuSans-65"/>
      <use x="128.515625" xlink:href="#DejaVuSans-72"/>
      <use x="169.628906" xlink:href="#DejaVuSans-61"/>
      <use x="230.908203" xlink:href="#DejaVuSans-74"/>
      <use x="270.117188" xlink:href="#DejaVuSans-69"/>
      <use x="297.900391" xlink:href="#DejaVuSans-6f"/>
      <use x="359.082031" xlink:href="#DejaVuSans-6e"/>
      <use x="422.460938" xlink:href="#DejaVuSans-73"/>
     </g>
    </g>
   </g>
   <g id="matplotlib.axis_2">
    <g id="ytick_1">
     <g id="line2d_7">
      <defs>
       <path d="M 0 0 
L -3.5 0 
" id="m2eb459977b" style="stroke:#000000;stroke-width:0.8;"/>
      </defs>
      <g>
       <use style="stroke:#000000;stroke-width:0.8;" x="60.2975" xlink:href="#m2eb459977b" y="500.043011"/>
      </g>
     </g>
     <g id="text_8">
      <!-- 0 -->
      <g transform="translate(38.0275 509.161136)scale(0.24 -0.24)">
       <use xlink:href="#DejaVuSans-30"/>
      </g>
     </g>
    </g>
    <g id="ytick_2">
     <g id="line2d_8">
      <g>
       <use style="stroke:#000000;stroke-width:0.8;" x="60.2975" xlink:href="#m2eb459977b" y="420.024637"/>
      </g>
     </g>
     <g id="text_9">
      <!-- 1 -->
      <g transform="translate(38.0275 429.142762)scale(0.24 -0.24)">
       <use xlink:href="#DejaVuSans-31"/>
      </g>
     </g>
    </g>
    <g id="ytick_3">
     <g id="line2d_9">
      <g>
       <use style="stroke:#000000;stroke-width:0.8;" x="60.2975" xlink:href="#m2eb459977b" y="340.006262"/>
      </g>
     </g>
     <g id="text_10">
      <!-- 2 -->
      <g transform="translate(38.0275 349.124387)scale(0.24 -0.24)">
       <use xlink:href="#DejaVuSans-32"/>
      </g>
     </g>
    </g>
    <g id="ytick_4">
     <g id="line2d_10">
      <g>
       <use style="stroke:#000000;stroke-width:0.8;" x="60.2975" xlink:href="#m2eb459977b" y="259.987888"/>
      </g>
     </g>
     <g id="text_11">
      <!-- 3 -->
      <g transform="translate(38.0275 269.106013)scale(0.24 -0.24)">
       <use xlink:href="#DejaVuSans-33"/>
      </g>
     </g>
    </g>
    <g id="ytick_5">
     <g id="line2d_11">
      <g>
       <use style="stroke:#000000;stroke-width:0.8;" x="60.2975" xlink:href="#m2eb459977b" y="179.969514"/>
      </g>
     </g>
     <g id="text_12">
      <!-- 4 -->
      <g transform="translate(38.0275 189.087639)scale(0.24 -0.24)">
       <use xlink:href="#DejaVuSans-34"/>
      </g>
     </g>
    </g>
    <g id="ytick_6">
     <g id="line2d_12">
      <g>
       <use style="stroke:#000000;stroke-width:0.8;" x="60.2975" xlink:href="#m2eb459977b" y="99.95114"/>
      </g>
     </g>
     <g id="text_13">
      <!-- 5 -->
      <g transform="translate(38.0275 109.069265)scale(0.24 -0.24)">
       <use xlink:href="#DejaVuSans-35"/>
      </g>
     </g>
    </g>
    <g id="ytick_7">
     <g id="line2d_13">
      <g>
       <use style="stroke:#000000;stroke-width:0.8;" x="60.2975" xlink:href="#m2eb459977b" y="19.932766"/>
      </g>
     </g>
     <g id="text_14">
      <!-- 6 -->
      <g transform="translate(38.0275 29.050891)scale(0.24 -0.24)">
       <defs>
        <path d="M 2113 2584 
Q 1688 2584 1439 2293 
Q 1191 2003 1191 1497 
Q 1191 994 1439 701 
Q 1688 409 2113 409 
Q 2538 409 2786 701 
Q 3034 994 3034 1497 
Q 3034 2003 2786 2293 
Q 2538 2584 2113 2584 
z
M 3366 4563 
L 3366 3988 
Q 3128 4100 2886 4159 
Q 2644 4219 2406 4219 
Q 1781 4219 1451 3797 
Q 1122 3375 1075 2522 
Q 1259 2794 1537 2939 
Q 1816 3084 2150 3084 
Q 2853 3084 3261 2657 
Q 3669 2231 3669 1497 
Q 3669 778 3244 343 
Q 2819 -91 2113 -91 
Q 1303 -91 875 529 
Q 447 1150 447 2328 
Q 447 3434 972 4092 
Q 1497 4750 2381 4750 
Q 2619 4750 2861 4703 
Q 3103 4656 3366 4563 
z
" id="DejaVuSans-36" transform="scale(0.015625)"/>
       </defs>
       <use xlink:href="#DejaVuSans-36"/>
      </g>
     </g>
    </g>
    <g id="text_15">
     <!-- VQE energy -->
     <g transform="translate(29.03625 331.942977)rotate(-90)scale(0.24 -0.24)">
      <defs>
       <path d="M 1831 0 
L 50 4666 
L 709 4666 
L 2188 738 
L 3669 4666 
L 4325 4666 
L 2547 0 
L 1831 0 
z
" id="DejaVuSans-56" transform="scale(0.015625)"/>
       <path d="M 2522 4238 
Q 1834 4238 1429 3725 
Q 1025 3213 1025 2328 
Q 1025 1447 1429 934 
Q 1834 422 2522 422 
Q 3209 422 3611 934 
Q 4013 1447 4013 2328 
Q 4013 3213 3611 3725 
Q 3209 4238 2522 4238 
z
M 3406 84 
L 4238 -825 
L 3475 -825 
L 2784 -78 
Q 2681 -84 2626 -87 
Q 2572 -91 2522 -91 
Q 1538 -91 948 567 
Q 359 1225 359 2328 
Q 359 3434 948 4092 
Q 1538 4750 2522 4750 
Q 3503 4750 4090 4092 
Q 4678 3434 4678 2328 
Q 4678 1516 4351 937 
Q 4025 359 3406 84 
z
" id="DejaVuSans-51" transform="scale(0.015625)"/>
       <path d="M 628 4666 
L 3578 4666 
L 3578 4134 
L 1259 4134 
L 1259 2753 
L 3481 2753 
L 3481 2222 
L 1259 2222 
L 1259 531 
L 3634 531 
L 3634 0 
L 628 0 
L 628 4666 
z
" id="DejaVuSans-45" transform="scale(0.015625)"/>
       <path id="DejaVuSans-20" transform="scale(0.015625)"/>
       <path d="M 2906 1791 
Q 2906 2416 2648 2759 
Q 2391 3103 1925 3103 
Q 1463 3103 1205 2759 
Q 947 2416 947 1791 
Q 947 1169 1205 825 
Q 1463 481 1925 481 
Q 2391 481 2648 825 
Q 2906 1169 2906 1791 
z
M 3481 434 
Q 3481 -459 3084 -895 
Q 2688 -1331 1869 -1331 
Q 1566 -1331 1297 -1286 
Q 1028 -1241 775 -1147 
L 775 -588 
Q 1028 -725 1275 -790 
Q 1522 -856 1778 -856 
Q 2344 -856 2625 -561 
Q 2906 -266 2906 331 
L 2906 616 
Q 2728 306 2450 153 
Q 2172 0 1784 0 
Q 1141 0 747 490 
Q 353 981 353 1791 
Q 353 2603 747 3093 
Q 1141 3584 1784 3584 
Q 2172 3584 2450 3431 
Q 2728 3278 2906 2969 
L 2906 3500 
L 3481 3500 
L 3481 434 
z
" id="DejaVuSans-67" transform="scale(0.015625)"/>
       <path d="M 2059 -325 
Q 1816 -950 1584 -1140 
Q 1353 -1331 966 -1331 
L 506 -1331 
L 506 -850 
L 844 -850 
Q 1081 -850 1212 -737 
Q 1344 -625 1503 -206 
L 1606 56 
L 191 3500 
L 800 3500 
L 1894 763 
L 2988 3500 
L 3597 3500 
L 2059 -325 
z
" id="DejaVuSans-79" transform="scale(0.015625)"/>
      </defs>
      <use xlink:href="#DejaVuSans-56"/>
      <use x="68.408203" xlink:href="#DejaVuSans-51"/>
      <use x="147.119141" xlink:href="#DejaVuSans-45"/>
      <use x="210.302734" xlink:href="#DejaVuSans-20"/>
      <use x="242.089844" xlink:href="#DejaVuSans-65"/>
      <use x="303.613281" xlink:href="#DejaVuSans-6e"/>
      <use x="366.992188" xlink:href="#DejaVuSans-65"/>
      <use x="428.515625" xlink:href="#DejaVuSans-72"/>
      <use x="467.878906" xlink:href="#DejaVuSans-67"/>
      <use x="531.355469" xlink:href="#DejaVuSans-79"/>
     </g>
    </g>
   </g>
   <g id="line2d_14">
    <path clip-path="url(#pd567c92080)" d="M 60.421172 47.006972 
L 60.544845 55.39754 
L 60.668518 55.758437 
L 60.79219 60.076053 
L 60.915863 36.830456 
L 61.28688 67.864795 
L 61.410553 60.434002 
L 61.534225 63.543591 
L 61.657897 53.5041 
L 61.78157 56.115357 
L 61.905242 71.779215 
L 62.152587 60.107679 
L 62.27626 61.285577 
L 62.523605 69.822542 
L 62.647278 65.816938 
L 62.77095 66.133184 
L 62.894622 70.051354 
L 63.018295 65.702064 
L 63.26564 51.937227 
L 63.389313 70.866412 
L 63.512985 62.429252 
L 63.636657 71.442866 
L 63.76033 61.403146 
L 63.884003 77.756556 
L 64.131348 69.834742 
L 64.25502 76.652989 
L 64.378692 60.962128 
L 64.502365 74.373257 
L 64.626037 53.086265 
L 64.873383 79.862518 
L 64.997055 79.698829 
L 65.2444 86.943693 
L 65.491745 82.707409 
L 65.615417 69.700066 
L 65.73909 89.933698 
L 65.862763 86.014214 
L 65.986435 70.456673 
L 66.110107 84.440291 
L 66.23378 78.012281 
L 66.357452 94.394127 
L 66.481125 92.915683 
L 66.72847 81.630128 
L 66.975815 71.069586 
L 67.099487 92.024315 
L 67.22316 90.570376 
L 67.346833 83.316181 
L 67.594178 98.423326 
L 67.965195 84.9966 
L 68.21254 91.324175 
L 68.336213 90.137968 
L 68.459885 98.637674 
L 68.583557 98.522167 
L 68.70723 85.20593 
L 68.830902 87.362787 
L 69.20192 109.195567 
L 69.449265 101.419824 
L 69.572937 101.537914 
L 69.69661 103.440067 
L 69.943955 112.026028 
L 70.067628 97.915618 
L 70.1913 99.310852 
L 70.314972 99.308108 
L 70.438645 97.824032 
L 70.562318 116.432813 
L 70.68599 101.743164 
L 70.809663 110.85123 
L 70.933335 103.558721 
L 71.304352 117.181669 
L 71.551698 89.271054 
L 71.67537 109.120972 
L 71.922715 110.317698 
L 72.17006 113.993517 
L 72.417405 112.460013 
L 72.541078 108.187604 
L 72.66475 119.479543 
L 72.788422 120.343017 
L 72.912095 114.049167 
L 73.035767 119.610579 
L 73.15944 120.111269 
L 73.283113 95.746164 
L 73.406785 110.039434 
L 73.530457 104.41658 
L 73.65413 117.832551 
L 73.777802 106.294575 
L 74.025148 113.23333 
L 74.14882 128.400171 
L 74.272492 112.167514 
L 74.396165 130.218121 
L 74.519837 106.469073 
L 74.64351 123.516938 
L 74.767183 107.1338 
L 74.890855 125.41991 
L 75.014527 100.831622 
L 75.1382 128.189946 
L 75.261872 120.616489 
L 75.385545 131.821125 
L 75.509218 132.749015 
L 75.63289 131.375161 
L 75.756563 119.865711 
L 75.880235 133.801191 
L 76.12758 128.676862 
L 76.251252 115.232653 
L 76.374925 128.266871 
L 76.498598 115.619767 
L 76.62227 129.099147 
L 76.745942 123.091052 
L 76.869615 131.919468 
L 76.993287 123.637478 
L 77.11696 127.996387 
L 77.240633 117.257828 
L 77.364305 135.960607 
L 77.487977 134.780897 
L 77.61165 119.391521 
L 77.858995 133.717943 
L 77.982667 136.880654 
L 78.230013 128.932718 
L 78.353685 134.901157 
L 78.477357 109.680975 
L 78.60103 130.977098 
L 78.724703 120.313543 
L 78.848375 128.947481 
L 78.972048 102.614091 
L 79.09572 137.983606 
L 79.219392 131.786616 
L 79.343065 131.785225 
L 79.466737 111.923741 
L 79.59041 136.43903 
L 79.714082 134.531456 
L 79.837755 127.70273 
L 79.961427 114.708242 
L 80.0851 134.256296 
L 80.208772 130.353664 
L 80.332445 134.916911 
L 80.456118 130.322322 
L 80.57979 138.617914 
L 80.827135 135.27715 
L 80.950807 110.933432 
L 81.07448 134.825594 
L 81.198152 123.560559 
L 81.321825 133.894103 
L 81.445498 108.805753 
L 81.56917 137.408456 
L 81.692842 127.73733 
L 81.816515 136.524302 
L 81.940187 132.446449 
L 82.06386 135.155792 
L 82.187533 112.534515 
L 82.311205 134.276301 
L 82.434877 135.405745 
L 82.682222 115.227365 
L 82.805895 126.58252 
L 82.929567 124.60999 
L 83.05324 137.617543 
L 83.176913 138.109584 
L 83.300585 136.498412 
L 83.424257 115.657089 
L 83.54793 139.250165 
L 83.671603 134.345606 
L 83.795275 134.507289 
L 83.918948 133.28946 
L 84.04262 138.504777 
L 84.166292 130.203584 
L 84.289965 138.544117 
L 84.413637 131.39437 
L 84.53731 139.053628 
L 84.660983 132.263343 
L 84.784655 141.745955 
L 84.908327 139.471213 
L 85.032 148.703325 
L 85.155672 119.831132 
L 85.279345 151.481775 
L 85.403018 134.629082 
L 85.52669 139.898024 
L 85.650362 129.214199 
L 85.774035 138.020912 
L 85.897707 134.069016 
L 86.02138 152.406202 
L 86.145052 138.827959 
L 86.268725 140.585904 
L 86.392398 131.452533 
L 86.51607 133.946541 
L 86.639742 127.099411 
L 86.763415 141.209561 
L 86.887087 133.560065 
L 87.134433 146.486236 
L 87.381777 134.382806 
L 87.50545 144.875184 
L 87.629122 142.904711 
L 87.752795 143.635087 
L 87.876467 135.514377 
L 88.00014 147.960399 
L 88.123812 138.05758 
L 88.247485 141.679407 
L 88.371157 141.67447 
L 88.618503 154.140051 
L 88.742175 144.711514 
L 88.865848 145.136357 
L 88.98952 144.453807 
L 89.113192 142.126852 
L 89.236865 151.877217 
L 89.360537 141.191921 
L 89.48421 156.122112 
L 89.607883 138.199501 
L 89.731555 152.667214 
L 89.855227 137.474577 
L 89.9789 149.022581 
L 90.102572 138.154654 
L 90.226245 149.642004 
L 90.349918 128.83375 
L 90.47359 151.027419 
L 90.597262 133.489746 
L 90.720935 150.284465 
L 90.844607 119.695387 
L 90.96828 146.154282 
L 91.091952 142.68383 
L 91.215625 153.129023 
L 91.339298 129.185799 
L 91.46297 149.267404 
L 91.586642 137.139776 
L 91.710315 142.648427 
L 91.833987 154.951642 
L 92.081333 156.294949 
L 92.205005 143.959562 
L 92.328677 156.551154 
L 92.45235 155.393261 
L 92.576022 148.927002 
L 92.699695 152.840252 
L 92.823367 152.255482 
L 92.94704 147.703444 
L 93.070712 155.191948 
L 93.194385 147.947954 
L 93.318057 155.838537 
L 93.44173 153.276284 
L 93.812748 159.586529 
L 93.93642 159.416325 
L 94.183765 151.151334 
L 94.678455 164.332718 
L 94.802127 159.660579 
L 94.9258 168.438688 
L 95.049473 166.236759 
L 95.173145 177.200813 
L 95.296818 177.07033 
L 95.42049 164.155906 
L 95.544162 174.590168 
L 95.667835 161.249794 
L 95.791507 170.261836 
L 95.91518 171.015741 
L 96.038852 178.687145 
L 96.162525 171.055928 
L 96.40987 183.742141 
L 96.533542 184.730642 
L 96.657215 178.887755 
L 96.780888 186.141906 
L 96.90456 186.690546 
L 97.028233 185.88033 
L 97.151905 179.463043 
L 97.275577 188.630665 
L 97.39925 185.867663 
L 97.522922 187.651555 
L 97.646595 195.191311 
L 97.770267 195.044685 
L 97.89394 195.339027 
L 98.017612 194.720301 
L 98.141285 181.378937 
L 98.264957 197.19699 
L 98.512303 192.755291 
L 98.635975 189.822853 
L 98.759647 192.963065 
L 98.88332 185.499899 
L 99.006992 187.055019 
L 99.130665 203.652933 
L 99.254337 193.704638 
L 99.37801 199.743736 
L 99.625355 196.672343 
L 99.749027 203.227052 
L 99.8727 198.25086 
L 100.120045 203.889276 
L 100.243718 202.79033 
L 100.36739 192.715041 
L 100.491062 204.451845 
L 100.614735 200.192995 
L 100.738407 206.625836 
L 100.86208 197.319939 
L 100.985752 204.3706 
L 101.109425 190.957649 
L 101.35677 206.562612 
L 101.480442 206.759234 
L 101.727788 208.441199 
L 101.85146 202.050248 
L 101.975133 210.698833 
L 102.098805 209.178773 
L 102.222477 210.884074 
L 102.34615 208.936453 
L 102.469822 210.67742 
L 102.593495 205.195756 
L 102.717167 212.59729 
L 102.84084 212.989141 
L 103.088185 203.882323 
L 103.211857 216.468612 
L 103.33553 210.581179 
L 103.459203 215.853872 
L 103.582875 214.683335 
L 103.706547 211.125887 
L 103.83022 221.165317 
L 103.953892 215.701689 
L 104.077565 215.824478 
L 104.201237 210.682323 
L 104.32491 215.363278 
L 104.448582 214.699048 
L 104.695927 224.646571 
L 104.8196 215.91118 
L 105.066945 225.083399 
L 105.190618 223.944316 
L 105.31429 210.350191 
L 105.437962 220.130769 
L 105.561635 214.512259 
L 105.685307 226.901714 
L 105.80898 223.223439 
L 105.932652 224.861249 
L 106.056325 216.982105 
L 106.179997 225.975792 
L 106.30367 220.062505 
L 106.551015 229.028751 
L 106.674688 226.050548 
L 106.79836 211.83264 
L 107.045705 239.182571 
L 107.169377 239.259076 
L 107.29305 230.647725 
L 107.416722 241.073192 
L 107.540395 225.026182 
L 107.664067 237.683401 
L 107.78774 236.212253 
L 107.911412 242.414717 
L 108.035085 231.274581 
L 108.158757 243.749027 
L 108.28243 230.80219 
L 108.406103 243.56656 
L 108.529775 243.126548 
L 108.653447 245.405624 
L 108.77712 229.195811 
L 108.900792 242.457736 
L 109.024465 237.88689 
L 109.148137 237.933077 
L 109.395482 247.781778 
L 109.519155 244.964003 
L 109.642827 246.820196 
L 109.7665 241.618624 
L 110.137518 254.034191 
L 110.26119 244.214502 
L 110.384862 255.817627 
L 110.508535 243.640929 
L 110.632207 243.448549 
L 110.879552 256.171899 
L 111.003225 241.815718 
L 111.126897 252.61 
L 111.25057 247.872567 
L 111.374242 247.500512 
L 111.497915 254.365176 
L 111.621588 247.761398 
L 111.868932 272.536559 
L 111.992605 266.369506 
L 112.116277 272.950831 
L 112.23995 263.156903 
L 112.363622 269.704612 
L 112.610967 261.576509 
L 112.73464 264.471429 
L 112.858312 270.427915 
L 112.981985 269.740489 
L 113.105657 261.574472 
L 113.22933 278.309485 
L 113.476675 268.626946 
L 113.600347 277.652693 
L 113.72402 269.51259 
L 113.971365 281.543096 
L 114.21871 272.715214 
L 114.342382 282.120377 
L 114.466055 273.032707 
L 114.589727 280.983557 
L 114.7134 269.536344 
L 114.837073 279.115523 
L 114.960745 279.046028 
L 115.084418 278.060758 
L 115.20809 273.488802 
L 115.455435 286.122618 
L 115.579107 276.050996 
L 115.70278 275.836746 
L 115.826452 282.356498 
L 115.950125 278.313072 
L 116.073797 285.93984 
L 116.444815 275.051606 
L 116.568488 284.687743 
L 116.69216 274.926016 
L 116.815832 290.155756 
L 116.939505 273.503941 
L 117.063177 286.966438 
L 117.18685 286.38083 
L 117.310522 289.966521 
L 117.557867 286.709409 
L 117.68154 275.342777 
L 117.805212 286.580257 
L 117.928885 280.179147 
L 118.052557 289.588084 
L 118.17623 276.165979 
L 118.299903 284.841604 
L 118.423575 275.24504 
L 118.547247 287.755576 
L 118.67092 281.516385 
L 118.794592 286.646869 
L 118.918265 282.91366 
L 119.041937 287.544801 
L 119.16561 276.275235 
L 119.289282 289.111691 
L 119.412955 278.624986 
L 119.536627 288.902225 
L 119.6603 276.19501 
L 119.783973 290.896494 
L 119.907645 284.720664 
L 120.031318 291.942819 
L 120.15499 286.23516 
L 120.278662 287.067854 
L 120.402335 282.188198 
L 120.526007 290.285074 
L 120.64968 285.387796 
L 120.773352 289.559927 
L 120.897025 275.42356 
L 121.020697 289.559116 
L 121.14437 283.566358 
L 121.268042 291.449928 
L 121.391715 282.021601 
L 121.515388 287.694259 
L 121.63906 275.147704 
L 121.762732 291.411403 
L 121.886405 277.669518 
L 122.010077 287.110635 
L 122.13375 285.463928 
L 122.257422 291.360063 
L 122.381095 281.74133 
L 122.504767 288.521707 
L 122.62844 287.820196 
L 122.752112 288.807004 
L 122.875785 280.345694 
L 122.999457 287.401597 
L 123.12313 280.879226 
L 123.246803 289.789727 
L 123.370475 266.124983 
L 123.494147 288.706694 
L 123.61782 279.757309 
L 123.741492 291.197322 
L 123.865165 283.069797 
L 123.988837 287.167634 
L 124.11251 268.426038 
L 124.236182 292.901372 
L 124.359855 292.287455 
L 124.483527 288.297823 
L 124.6072 289.17021 
L 124.730872 297.582836 
L 124.854545 292.874744 
L 124.978217 296.390014 
L 125.10189 275.443246 
L 125.225562 294.426174 
L 125.349235 285.247314 
L 125.472907 295.583943 
L 125.59658 275.966583 
L 125.843925 296.28872 
L 126.09127 280.626477 
L 126.338615 294.221121 
L 126.462287 295.272825 
L 126.58596 301.612938 
L 126.833305 289.16109 
L 127.08065 300.040346 
L 127.204322 299.100778 
L 127.327995 286.777452 
L 127.451667 298.631608 
L 127.699012 295.379751 
L 127.946357 297.153479 
L 128.07003 294.030353 
L 128.193703 300.106514 
L 128.317375 299.400838 
L 128.441047 302.287808 
L 128.688392 301.140609 
L 128.812065 301.05413 
L 128.935737 302.394331 
L 129.05941 299.65278 
L 129.5541 307.185497 
L 129.677773 305.257266 
L 129.925117 305.997189 
L 130.04879 305.511896 
L 130.172462 305.633983 
L 130.296135 306.425757 
L 130.419807 303.499123 
L 130.54348 306.18526 
L 130.667152 305.875825 
L 130.790825 309.800298 
L 130.914497 302.890819 
L 131.03817 310.158492 
L 131.161842 306.636037 
L 131.285515 311.968793 
L 131.409187 304.979866 
L 131.53286 311.738649 
L 131.656532 307.237964 
L 131.780205 309.088016 
L 131.903877 313.419852 
L 132.02755 311.608138 
L 132.151222 316.012469 
L 132.398568 312.44579 
L 132.52224 315.227006 
L 132.645913 313.578053 
L 132.769585 313.87369 
L 132.893258 314.58623 
L 133.140602 318.092535 
L 133.264275 318.363972 
L 133.387947 315.803781 
L 133.635292 321.51348 
L 133.758965 323.460126 
L 133.882637 316.960935 
L 134.00631 322.462554 
L 134.129982 320.535039 
L 134.253655 323.807376 
L 134.377327 318.1373 
L 134.501 322.799307 
L 134.624672 322.469963 
L 134.748345 323.636265 
L 134.99569 327.523364 
L 135.119362 329.497264 
L 135.243035 329.138082 
L 135.366707 323.359419 
L 135.49038 328.253932 
L 135.614053 320.65103 
L 135.98507 330.613685 
L 136.108743 324.501564 
L 136.232415 329.806877 
L 136.356088 326.04015 
L 136.47976 332.791118 
L 136.603432 333.135375 
L 136.850777 337.034793 
L 136.97445 336.705635 
L 137.098122 332.344812 
L 137.221795 336.977263 
L 137.345467 333.232337 
L 137.46914 335.424745 
L 137.592812 331.947838 
L 137.716485 335.399475 
L 137.840157 333.014807 
L 138.087502 336.918626 
L 138.211175 337.261121 
L 138.334847 336.192414 
L 138.45852 336.947514 
L 138.582192 336.022701 
L 138.705865 336.801145 
L 138.829537 331.172018 
L 139.076883 339.656974 
L 139.200555 339.48725 
L 139.324228 339.071109 
L 139.4479 339.574204 
L 139.571573 344.814246 
L 139.695245 341.105025 
L 139.94259 342.764793 
L 140.066262 345.867567 
L 140.189935 345.796326 
L 140.313607 347.982485 
L 140.560952 343.107574 
L 140.93197 347.589811 
L 141.055642 347.013384 
L 141.302988 343.040238 
L 141.550332 346.451671 
L 141.674005 347.353804 
L 141.797677 345.161802 
L 141.92135 345.543642 
L 142.045022 350.702323 
L 142.292368 343.66004 
L 142.41604 350.103401 
L 142.539713 350.185469 
L 142.787058 347.706916 
L 142.91073 350.71277 
L 143.281747 347.771835 
L 143.40542 349.163801 
L 143.529092 344.537108 
L 143.652765 349.882208 
L 143.776437 340.899448 
L 143.90011 349.806191 
L 144.023782 347.966183 
L 144.147455 350.231959 
L 144.271127 344.353979 
L 144.3948 348.268676 
L 144.518472 345.206899 
L 144.765817 349.48626 
L 144.88949 348.722449 
L 145.013162 352.461572 
L 145.260507 352.066902 
L 145.38418 350.420989 
L 145.507853 346.490374 
L 145.755198 354.995466 
L 145.87887 354.993933 
L 146.002543 350.605464 
L 146.249887 354.906758 
L 146.37356 352.772339 
L 146.497232 359.099212 
L 146.620905 359.701661 
L 146.744577 355.57843 
L 146.86825 360.045798 
L 146.991922 357.220314 
L 147.115595 358.853792 
L 147.239267 354.789111 
L 147.36294 358.582527 
L 147.486612 358.499673 
L 147.610285 360.748877 
L 147.733957 357.923698 
L 147.85763 360.555201 
L 147.981302 355.926305 
L 148.104975 360.997276 
L 148.228647 360.569147 
L 148.35232 361.86201 
L 148.475992 359.998447 
L 148.599665 360.020017 
L 148.723338 357.663017 
L 148.84701 361.29607 
L 148.970683 356.261619 
L 149.094355 361.015991 
L 149.218028 361.071063 
L 149.3417 358.910686 
L 149.465373 364.172477 
L 149.589045 363.554143 
L 149.712717 364.365101 
L 149.960062 359.994405 
L 150.33108 363.887704 
L 150.454752 361.871504 
L 150.578425 362.99178 
L 150.702097 362.774928 
L 150.82577 363.129425 
L 150.949442 359.682249 
L 151.073115 362.324058 
L 151.196787 362.491962 
L 151.32046 363.652913 
L 151.444132 357.833448 
L 151.567805 361.432963 
L 151.691477 360.149337 
L 151.81515 363.001673 
L 151.938822 361.056091 
L 152.062495 365.980366 
L 152.186168 362.55143 
L 152.433513 364.762876 
L 152.557185 364.27677 
L 152.680858 359.8807 
L 152.928202 366.708414 
L 153.051875 367.434731 
L 153.175547 365.018773 
L 153.546565 366.982929 
L 153.670237 362.323152 
L 153.79391 366.232669 
L 153.917582 363.589527 
L 154.041255 366.73478 
L 154.164927 358.502867 
L 154.2886 366.351164 
L 154.412272 365.969481 
L 154.535945 363.91065 
L 154.659617 359.88715 
L 154.78329 366.136752 
L 154.906962 365.803338 
L 155.030635 367.602785 
L 155.154307 362.737348 
L 155.27798 366.453561 
L 155.401653 364.797531 
L 155.525325 365.431823 
L 155.77267 368.440201 
L 155.896343 364.108111 
L 156.020015 365.24992 
L 156.143687 364.359359 
L 156.26736 367.215388 
L 156.391032 365.191482 
L 156.514705 367.419052 
L 156.638377 364.465122 
L 156.76205 367.307384 
L 156.885722 366.515152 
L 157.009395 367.6771 
L 157.133067 366.653364 
L 157.25674 368.341184 
L 157.380412 364.27094 
L 157.504085 366.864431 
L 157.627757 366.465828 
L 157.75143 366.501943 
L 157.875102 362.919909 
L 157.998775 366.082137 
L 158.122447 364.258034 
L 158.24612 366.600404 
L 158.493465 366.645588 
L 158.617138 367.330757 
L 158.864483 364.256303 
L 158.988155 367.302422 
L 159.111828 364.170578 
L 159.2355 365.592396 
L 159.359172 369.086194 
L 159.482845 367.39258 
L 159.606517 368.872513 
L 159.73019 368.706298 
L 159.853862 366.847381 
L 159.977535 366.679774 
L 160.101207 365.256809 
L 160.22488 367.304503 
L 160.348552 365.904357 
L 160.595897 370.597886 
L 160.71957 370.875826 
L 160.843242 368.450401 
L 161.21426 368.94971 
L 161.337932 366.482146 
L 161.461605 368.464759 
L 161.585277 368.598974 
L 161.70895 370.030547 
L 161.832622 366.677106 
L 161.956295 370.792054 
L 162.079968 367.429532 
L 162.20364 371.503734 
L 162.574658 369.865586 
L 162.69833 371.066342 
L 162.822002 373.498445 
L 162.945675 371.145603 
L 163.069347 373.899909 
L 163.316692 370.483003 
L 163.440365 373.415546 
L 163.564037 372.49762 
L 163.68771 374.8476 
L 163.811382 366.25509 
L 163.935055 373.028849 
L 164.058727 367.218236 
L 164.1824 373.003673 
L 164.306072 373.490539 
L 164.429745 373.165868 
L 164.553417 369.637609 
L 164.67709 373.403632 
L 164.800762 365.94986 
L 164.924435 373.271495 
L 165.048107 370.493253 
L 165.17178 372.980993 
L 165.295453 369.26714 
L 165.419125 372.517732 
L 165.66647 372.113315 
L 165.790143 377.962023 
L 165.913815 375.653415 
L 166.037487 377.025817 
L 166.16116 375.603323 
L 166.284832 381.864437 
L 166.65585 377.574334 
L 166.779522 383.715451 
L 166.903195 383.435308 
L 167.026867 379.286473 
L 167.274212 381.946317 
L 167.397885 383.908363 
L 167.768902 379.619411 
L 168.016247 383.894569 
L 168.13992 381.635514 
L 168.263592 381.434045 
L 168.387265 385.62982 
L 168.510938 380.901267 
L 168.63461 384.345529 
L 168.758283 380.921369 
L 168.881955 386.138817 
L 169.005628 374.544014 
L 169.252972 385.512873 
L 169.376645 384.78074 
L 169.500317 381.158235 
L 169.62399 386.144382 
L 169.747662 383.376065 
L 169.871335 384.503329 
L 169.995007 378.376113 
L 170.11868 385.03883 
L 170.242352 383.920761 
L 170.366025 385.557029 
L 170.489697 383.204291 
L 170.61337 387.633241 
L 170.737042 385.033387 
L 170.860715 386.371673 
L 170.984387 384.337895 
L 171.231732 385.208253 
L 171.355405 386.415129 
L 171.479077 382.44638 
L 171.726423 387.299191 
L 171.850095 386.943834 
L 171.973768 385.542459 
L 172.09744 387.293664 
L 172.221113 384.828883 
L 172.344785 384.913163 
L 172.468457 387.530482 
L 172.59213 386.260953 
L 172.715802 387.02026 
L 172.839475 384.614172 
L 172.963147 387.525141 
L 173.08682 384.691687 
L 173.334165 388.303481 
L 173.457837 382.054904 
L 173.705182 390.679344 
L 173.828855 389.829185 
L 173.952527 391.258712 
L 174.0762 390.73353 
L 174.199872 389.364118 
L 174.447217 390.004403 
L 174.694562 387.445059 
L 174.818235 388.68009 
L 174.941907 385.989198 
L 175.06558 390.001291 
L 175.189253 385.995898 
L 175.436598 390.888936 
L 175.56027 388.916421 
L 175.683943 390.193873 
L 175.807615 390.180938 
L 175.931287 382.583149 
L 176.05496 389.942048 
L 176.178632 386.957896 
L 176.302305 391.567519 
L 176.425977 389.313766 
L 176.673322 391.946123 
L 176.920667 386.828552 
L 177.04434 391.514366 
L 177.168012 389.70998 
L 177.291685 390.091459 
L 177.415357 385.728418 
L 177.53903 390.575933 
L 177.662702 390.422236 
L 177.786375 388.871238 
L 177.910047 393.534087 
L 178.03372 392.210768 
L 178.157392 386.390782 
L 178.281065 393.121905 
L 178.52841 390.70927 
L 178.652083 392.806453 
L 178.775755 392.306385 
L 178.899428 386.201802 
L 179.0231 392.415015 
L 179.146772 389.526319 
L 179.270445 391.16277 
L 179.394117 388.345538 
L 179.641462 395.74478 
L 179.765135 393.160957 
L 179.888807 393.546552 
L 180.01248 396.082483 
L 180.136152 391.224689 
L 180.259825 395.980428 
L 180.383497 392.945981 
L 180.50717 393.400501 
L 180.630842 391.329777 
L 180.878187 394.151622 
L 181.00186 393.943136 
L 181.125532 392.958148 
L 181.249205 395.441931 
L 181.372877 388.954858 
L 181.49655 393.557417 
L 181.620223 393.733422 
L 181.743895 395.376429 
L 181.867568 392.274173 
L 181.99124 394.569883 
L 182.114913 393.001525 
L 182.238585 394.571663 
L 182.362257 393.248948 
L 182.609602 397.340037 
L 182.733275 397.80205 
L 182.856947 394.949398 
L 182.98062 397.486559 
L 183.104292 392.905258 
L 183.227965 396.203403 
L 183.351637 393.92799 
L 183.47531 398.033973 
L 183.598982 392.574336 
L 183.722655 396.543605 
L 183.846327 394.816105 
L 183.97 396.503952 
L 184.093672 394.824904 
L 184.217345 398.169687 
L 184.341017 396.109895 
L 184.46469 396.561264 
L 184.588362 393.243082 
L 184.712035 396.616672 
L 184.835707 391.816102 
L 184.95938 398.686877 
L 185.083053 396.569609 
L 185.206725 398.178587 
L 185.330398 394.704815 
L 185.45407 397.402759 
L 185.577742 396.807833 
L 185.701415 399.533645 
L 185.825087 398.709256 
L 186.196105 398.554643 
L 186.319777 394.513581 
L 186.44345 398.543936 
L 186.567122 393.776006 
L 186.814467 400.391455 
L 187.061812 399.589291 
L 187.309157 397.411741 
L 187.43283 400.520318 
L 187.680175 399.986429 
L 187.803847 396.79941 
L 187.92752 399.457275 
L 188.051192 394.820372 
L 188.174865 399.213103 
L 188.298538 392.757069 
L 188.545883 399.952126 
L 188.793228 397.922927 
L 188.9169 400.47104 
L 189.040572 394.264463 
L 189.164245 396.028485 
L 189.287917 401.328604 
L 189.41159 401.38842 
L 189.535262 397.750675 
L 189.658935 400.201562 
L 189.782607 396.643058 
L 189.90628 400.44644 
L 190.029952 399.429554 
L 190.153625 399.889321 
L 190.277297 397.716912 
L 190.40097 400.082943 
L 190.524642 396.552709 
L 190.771987 403.044725 
L 190.89566 399.749871 
L 191.019332 403.753398 
L 191.143005 402.083162 
L 191.266678 397.171232 
L 191.39035 402.930861 
L 191.514023 397.683874 
L 191.637695 403.329961 
L 191.88504 400.075433 
L 192.008713 403.240164 
L 192.132385 402.812997 
L 192.256057 397.56549 
L 192.503402 403.771321 
L 192.627075 398.115869 
L 192.750747 402.838064 
L 192.87442 400.350837 
L 193.245437 404.890492 
L 193.36911 405.901044 
L 193.492782 402.247392 
L 193.616455 404.343422 
L 193.740127 403.582742 
L 193.8638 403.813566 
L 193.987472 403.717776 
L 194.234817 400.442394 
L 194.35849 405.441605 
L 194.482163 402.93848 
L 194.605835 406.006031 
L 194.729508 403.013559 
L 194.976853 407.077649 
L 195.100525 404.413973 
L 195.224198 408.300396 
L 195.34787 407.219907 
L 195.471542 408.111504 
L 195.718887 405.52343 
L 195.84256 405.685556 
L 195.966232 406.776766 
L 196.089905 406.188192 
L 196.213577 404.195122 
L 196.33725 407.748344 
L 196.460922 408.033525 
L 196.584595 408.882711 
L 196.708267 407.332192 
L 196.83194 409.045049 
L 196.955612 403.327235 
L 197.079285 408.560602 
L 197.202957 407.254717 
L 197.32663 408.048963 
L 197.450302 404.839403 
L 197.573975 408.173375 
L 197.697648 407.297443 
L 197.82132 409.397669 
L 197.944993 406.868113 
L 198.068665 409.829586 
L 198.192338 406.304185 
L 198.31601 409.652031 
L 198.563355 409.296285 
L 198.687027 404.913087 
L 198.8107 407.440997 
L 198.934372 404.740554 
L 199.058045 408.754541 
L 199.181717 405.256744 
L 199.429062 411.112647 
L 199.676407 406.670471 
L 199.80008 408.017946 
L 199.923752 411.519797 
L 200.047425 406.827741 
L 200.171097 409.376535 
L 200.29477 408.903383 
L 200.418442 407.14882 
L 200.542115 411.580668 
L 200.665787 403.24083 
L 200.78946 412.452498 
L 200.913132 408.647216 
L 201.036805 411.92789 
L 201.160478 410.290991 
L 201.28415 412.002299 
L 201.407823 409.461107 
L 201.531495 412.090369 
L 201.655168 411.635686 
L 201.77884 412.35779 
L 201.902513 406.526043 
L 202.026185 412.862278 
L 202.149857 411.068153 
L 202.27353 412.249396 
L 202.397202 409.354193 
L 202.520875 411.931533 
L 202.644547 400.848561 
L 202.76822 410.444475 
L 202.891892 409.408171 
L 203.015565 412.356084 
L 203.139237 408.432286 
L 203.26291 411.010581 
L 203.386582 407.057585 
L 203.633927 412.02649 
L 203.7576 412.330258 
L 204.128617 408.926997 
L 204.375963 411.349326 
L 204.499635 411.421492 
L 204.74698 412.685892 
L 204.870653 411.798781 
L 204.994325 412.60243 
L 205.117998 409.689391 
L 205.24167 411.889719 
L 205.365342 410.498947 
L 205.489015 412.681434 
L 205.612687 409.21193 
L 205.73636 411.044118 
L 205.860032 410.481521 
L 205.983705 412.804946 
L 206.107377 410.195666 
L 206.23105 412.363768 
L 206.478395 411.460973 
L 206.602067 407.632959 
L 206.72574 411.781004 
L 206.849412 409.940081 
L 206.973085 409.887522 
L 207.22043 409.933626 
L 207.467775 410.376966 
L 207.71512 412.881186 
L 208.086138 408.494762 
L 208.333483 413.553299 
L 208.580827 408.1733 
L 208.828172 413.968932 
L 208.951845 414.174998 
L 209.075517 409.197476 
L 209.19919 413.020745 
L 209.322862 407.816026 
L 209.446535 413.204316 
L 209.570207 410.10258 
L 209.817552 412.730738 
L 209.941225 413.041279 
L 210.064897 414.001203 
L 210.18857 412.917827 
L 210.312242 410.624549 
L 210.435915 412.309877 
L 210.68326 411.571765 
L 210.806933 408.395551 
L 210.930605 412.899017 
L 211.054278 408.788376 
L 211.17795 410.423052 
L 211.301623 410.131884 
L 211.425295 412.378376 
L 211.548968 411.043766 
L 211.67264 414.063945 
L 211.796312 408.921984 
L 211.919985 412.957777 
L 212.043657 412.423863 
L 212.16733 410.6435 
L 212.291002 416.538586 
L 212.538347 412.385344 
L 212.66202 412.328104 
L 212.785692 412.577179 
L 212.909365 414.393294 
L 213.033037 413.817955 
L 213.15671 415.410723 
L 213.280382 413.098943 
L 213.404055 414.382965 
L 213.527727 418.488685 
L 213.6514 417.837983 
L 213.775072 409.270416 
L 213.898745 416.774448 
L 214.14609 415.226718 
L 214.269763 416.247794 
L 214.393435 415.699539 
L 214.517108 415.879815 
L 214.64078 417.16045 
L 214.888125 416.261043 
L 215.011798 419.68312 
L 215.259142 414.02442 
L 215.506487 419.787505 
L 215.63016 419.268998 
L 215.753832 416.378459 
L 215.877505 420.412966 
L 216.001177 416.595615 
L 216.12485 422.083819 
L 216.248522 412.26816 
L 216.372195 421.24503 
L 216.495867 421.071021 
L 216.743212 417.521472 
L 216.866885 420.315553 
L 216.990557 415.092757 
L 217.11423 421.497916 
L 217.237902 413.707018 
L 217.361575 420.409942 
L 217.485248 416.986231 
L 217.60892 421.35062 
L 217.732593 416.779349 
L 217.856265 420.31066 
L 217.979938 413.020386 
L 218.10361 419.242401 
L 218.227283 416.873375 
L 218.350955 420.916148 
L 218.474627 415.53271 
L 218.5983 423.854178 
L 218.721972 420.042991 
L 218.845645 421.967993 
L 218.969317 420.411604 
L 219.09299 424.119279 
L 219.216662 418.398023 
L 219.340335 421.296785 
L 219.464007 418.726523 
L 219.58768 423.476518 
L 219.711352 418.947004 
L 219.835025 423.028203 
L 219.958697 418.756705 
L 220.08237 422.486358 
L 220.206042 421.857265 
L 220.329715 424.455001 
L 220.453387 415.392073 
L 220.700733 424.864959 
L 220.824405 423.630597 
L 220.948078 418.49715 
L 221.195423 422.984029 
L 221.56644 425.71075 
L 221.813785 422.713754 
L 222.06113 426.313939 
L 222.184802 422.692977 
L 222.308475 425.05286 
L 222.432147 423.312991 
L 222.679492 426.592522 
L 222.926837 421.808174 
L 223.05051 424.00048 
L 223.174182 422.326142 
L 223.297855 425.77638 
L 223.668872 422.80019 
L 223.792545 427.151239 
L 223.916217 425.424199 
L 224.03989 426.737844 
L 224.163563 424.071418 
L 224.287235 428.150341 
L 224.410908 424.316461 
L 224.658253 429.251695 
L 224.781925 427.999088 
L 224.905597 430.282378 
L 225.02927 430.32036 
L 225.152942 425.774188 
L 225.276615 427.415594 
L 225.400287 422.43563 
L 225.52396 431.735207 
L 225.647632 426.226371 
L 225.771305 430.348768 
L 225.894977 427.661621 
L 226.01865 428.910828 
L 226.142322 427.48603 
L 226.265995 432.493162 
L 226.389667 427.036158 
L 226.51334 432.661477 
L 226.637012 425.320002 
L 226.760685 429.866675 
L 226.884357 426.316155 
L 227.00803 433.223489 
L 227.131702 432.095905 
L 227.255375 432.085024 
L 227.379048 432.301406 
L 227.50272 430.252843 
L 227.626393 430.885665 
L 227.750065 430.282752 
L 227.873738 430.873133 
L 227.99741 434.326644 
L 228.121082 428.990183 
L 228.244755 430.698721 
L 228.368427 428.25693 
L 228.4921 430.733619 
L 228.615772 430.898608 
L 228.739445 433.479935 
L 229.110462 431.677295 
L 229.234135 433.02226 
L 229.357807 431.493377 
L 229.48148 433.826405 
L 229.605152 429.899355 
L 229.728825 434.113704 
L 229.852497 428.511399 
L 229.97617 432.500161 
L 230.099842 432.430167 
L 230.223515 434.971204 
L 230.347187 432.58586 
L 230.47086 433.992718 
L 230.594533 432.303379 
L 230.718205 434.228861 
L 230.841878 424.248975 
L 230.96555 432.54998 
L 231.089223 431.253104 
L 231.212895 433.583737 
L 231.336568 433.744878 
L 231.46024 435.050758 
L 231.583912 428.303708 
L 231.707585 432.591264 
L 231.831257 429.618607 
L 231.95493 435.849305 
L 232.078602 427.872413 
L 232.202275 434.892078 
L 232.44962 433.655785 
L 232.573292 429.245934 
L 232.820637 435.784958 
L 232.94431 435.729837 
L 233.067982 432.825582 
L 233.191655 433.194312 
L 233.315327 430.772347 
L 233.439 436.167209 
L 233.562672 432.496085 
L 233.810017 433.954013 
L 233.93369 433.848277 
L 234.057363 438.633203 
L 234.181035 438.870471 
L 234.304708 433.881767 
L 234.42838 436.040878 
L 234.552053 434.941236 
L 234.675725 438.295403 
L 234.799397 437.623049 
L 234.92307 435.63263 
L 235.170415 437.231093 
L 235.294087 435.54145 
L 235.41776 437.36658 
L 235.541432 437.273624 
L 235.665105 437.829718 
L 235.788777 434.776622 
L 235.91245 438.404969 
L 236.036122 433.907097 
L 236.159795 437.454959 
L 236.283467 432.697156 
L 236.40714 436.66781 
L 236.530812 433.538541 
L 236.654485 439.291455 
L 236.778157 432.521501 
L 236.90183 439.422876 
L 237.025502 438.405547 
L 237.149175 438.894752 
L 237.272848 436.696653 
L 237.39652 436.526002 
L 237.520193 438.96836 
L 237.767538 437.737818 
L 237.89121 438.051163 
L 238.014882 436.022428 
L 238.262227 439.405266 
L 238.3859 439.453774 
L 238.509572 436.424523 
L 238.633245 438.978847 
L 238.756917 436.182396 
L 238.88059 436.971583 
L 239.004262 435.75737 
L 239.127935 437.090324 
L 239.251607 435.827705 
L 239.37528 438.033954 
L 239.498952 435.418672 
L 239.622625 439.900258 
L 239.746297 436.108826 
L 239.86997 438.571291 
L 239.993642 436.787985 
L 240.117315 439.350652 
L 240.240987 434.506655 
L 240.36466 439.356958 
L 240.488333 437.237558 
L 240.612005 437.435581 
L 240.735678 437.361289 
L 240.85935 438.233466 
L 240.983023 435.133814 
L 241.106695 438.268052 
L 241.230367 436.05056 
L 241.601385 439.712272 
L 241.725057 439.790576 
L 241.84873 441.407809 
L 241.972402 441.470872 
L 242.096075 442.781548 
L 242.219747 442.005696 
L 242.467092 442.889996 
L 242.590765 441.25395 
L 242.714437 443.471034 
L 242.83811 442.208574 
L 242.961782 443.174675 
L 243.085455 441.157239 
L 243.209127 442.702359 
L 243.3328 441.899267 
L 243.456472 442.836317 
L 243.580145 442.413299 
L 243.703818 442.825055 
L 243.82749 440.70727 
L 244.074835 443.284458 
L 244.32218 441.177876 
L 244.569525 442.888925 
L 244.693197 442.850953 
L 244.81687 442.374269 
L 244.940542 442.849495 
L 245.064215 442.044254 
L 245.187887 444.34127 
L 245.31156 442.99406 
L 245.435232 443.670392 
L 245.558905 442.414242 
L 245.682577 444.427819 
L 245.80625 441.317902 
L 245.929922 444.620796 
L 246.053595 443.507028 
L 246.177267 444.40538 
L 246.30094 442.311153 
L 246.424612 444.666793 
L 246.548285 443.527852 
L 246.671957 444.973397 
L 246.79563 443.596963 
L 246.919302 445.13821 
L 247.042975 444.489136 
L 247.166648 445.289456 
L 247.29032 444.600153 
L 247.537665 446.47853 
L 247.661338 444.425412 
L 247.78501 446.580667 
L 248.032355 445.594152 
L 248.2797 447.19636 
L 248.403372 446.144265 
L 248.650717 448.687113 
L 248.77439 448.010904 
L 248.898062 448.996723 
L 249.021735 447.572859 
L 249.145407 449.873621 
L 249.26908 449.193288 
L 249.392752 449.591431 
L 249.516425 447.5485 
L 249.76377 450.581771 
L 249.887442 450.724786 
L 250.011115 449.304714 
L 250.134787 450.935725 
L 250.25846 449.950682 
L 250.505805 450.397065 
L 250.629478 451.51117 
L 250.75315 451.066419 
L 251.000495 452.459737 
L 251.124167 452.081709 
L 251.24784 453.41984 
L 251.371512 451.997064 
L 251.495185 454.434592 
L 251.618857 454.392396 
L 251.74253 455.757961 
L 251.866202 455.711785 
L 251.989875 455.947854 
L 252.113547 455.128528 
L 252.23722 455.157119 
L 252.360892 454.986447 
L 252.484565 455.656608 
L 252.608237 455.510712 
L 252.73191 453.805471 
L 252.855582 455.842998 
L 252.979255 454.29909 
L 253.2266 456.144956 
L 253.597618 455.515587 
L 253.72129 455.658251 
L 253.844963 454.851917 
L 253.968635 455.929914 
L 254.092308 455.488708 
L 254.21598 453.624927 
L 254.339652 455.393987 
L 254.463325 455.035615 
L 254.586997 455.794707 
L 254.71067 455.321512 
L 254.834342 455.347392 
L 254.958015 456.13184 
L 255.20536 455.785978 
L 255.329032 456.112988 
L 255.452705 455.649518 
L 255.70005 457.076283 
L 255.947395 455.774151 
L 256.071067 456.443045 
L 256.318412 455.499266 
L 256.565757 457.552138 
L 256.813102 455.593031 
L 257.060448 457.677304 
L 257.18412 457.386161 
L 257.307793 457.399788 
L 257.431465 457.011055 
L 257.555138 457.021566 
L 257.67881 459.047672 
L 257.802482 457.857955 
L 257.926155 458.037107 
L 258.049827 459.004584 
L 258.1735 458.413593 
L 258.297172 459.299642 
L 258.420845 458.318325 
L 258.544517 458.796271 
L 258.66819 460.154705 
L 258.915535 459.545858 
L 259.039207 460.073301 
L 259.16288 461.541908 
L 259.286552 461.531584 
L 259.410225 459.26671 
L 259.533897 460.55908 
L 259.65757 460.285891 
L 259.781242 461.285486 
L 259.904915 461.227108 
L 260.028587 461.536333 
L 260.275933 460.792187 
L 260.399605 461.753819 
L 260.64695 461.340441 
L 260.770623 461.45625 
L 260.894295 460.220968 
L 261.017967 461.876524 
L 261.265312 460.99081 
L 261.512657 461.852999 
L 261.63633 460.389176 
L 261.760002 461.43132 
L 261.883675 461.147025 
L 262.007347 461.669966 
L 262.13102 459.624717 
L 262.254692 460.944364 
L 262.378365 461.058435 
L 262.502037 461.383809 
L 262.62571 461.226175 
L 262.749382 461.572502 
L 262.873055 461.108334 
L 262.996727 461.382133 
L 263.1204 460.203293 
L 263.244072 461.458903 
L 263.367745 460.375907 
L 263.491418 461.371099 
L 263.61509 459.923052 
L 263.862435 461.762273 
L 263.986108 461.317609 
L 264.10978 462.448891 
L 264.233452 462.005007 
L 264.357125 462.72402 
L 264.480797 462.37117 
L 264.60447 461.562914 
L 264.728142 462.534423 
L 264.851815 462.036924 
L 264.975487 462.176794 
L 265.09916 462.107287 
L 265.222832 462.550355 
L 265.470177 461.770889 
L 265.59385 461.030388 
L 265.841195 462.499241 
L 265.964867 462.02365 
L 266.08854 463.023639 
L 266.212212 462.544778 
L 266.335885 462.734689 
L 266.459557 463.266273 
L 266.58323 462.717674 
L 266.706903 463.86691 
L 266.830575 462.502833 
L 266.954248 464.043749 
L 267.07792 462.864749 
L 267.201593 464.318915 
L 267.325265 462.766528 
L 267.448937 464.224337 
L 267.819955 463.082877 
L 267.943627 464.106835 
L 268.0673 464.169806 
L 268.190972 465.004429 
L 268.314645 463.802512 
L 268.438317 464.471755 
L 268.56199 463.867788 
L 268.685662 465.081379 
L 268.809335 463.233396 
L 269.05668 464.786227 
L 269.180352 464.87629 
L 269.304025 464.153781 
L 269.427697 464.914872 
L 269.55137 463.4428 
L 269.675042 464.687909 
L 269.798715 464.463818 
L 269.922387 464.817929 
L 270.04606 463.611229 
L 270.169733 464.59194 
L 270.293405 464.244832 
L 270.417078 465.348833 
L 270.54075 464.126612 
L 270.664423 464.522045 
L 270.788095 464.256511 
L 270.911767 465.335892 
L 271.03544 464.306846 
L 271.159112 465.386867 
L 271.406457 464.87665 
L 271.53013 463.74419 
L 271.653802 464.783447 
L 271.777475 464.658917 
L 271.901147 464.817947 
L 272.02482 465.252098 
L 272.148492 464.750964 
L 272.272165 463.209956 
L 272.395837 465.082959 
L 272.51951 464.369356 
L 272.643182 465.226206 
L 272.766855 464.077966 
L 272.890527 465.157249 
L 273.0142 465.030055 
L 273.137872 465.121128 
L 273.261545 464.095695 
L 273.385218 465.25711 
L 273.632563 464.691092 
L 273.756235 464.661536 
L 273.879908 464.833431 
L 274.00358 465.332533 
L 274.127252 464.774084 
L 274.250925 464.929901 
L 274.374597 465.302957 
L 274.49827 466.036957 
L 274.745615 465.98491 
L 274.869287 465.654493 
L 274.99296 464.385664 
L 275.116632 465.843756 
L 275.240305 464.125077 
L 275.48765 465.809309 
L 275.611322 466.371861 
L 275.734995 464.651774 
L 275.858667 465.9893 
L 275.98234 464.255526 
L 276.106012 465.660706 
L 276.229685 463.954745 
L 276.353357 465.995395 
L 276.47703 465.112454 
L 276.600703 465.932948 
L 276.724375 464.980717 
L 276.848048 465.753719 
L 276.97172 465.224178 
L 277.095393 466.239163 
L 277.219065 465.401012 
L 277.342737 465.385844 
L 277.46641 466.756366 
L 277.590082 466.632071 
L 277.713755 466.012186 
L 277.837427 466.290375 
L 277.9611 464.913038 
L 278.084772 466.199743 
L 278.208445 465.406211 
L 278.45579 466.70305 
L 278.579462 466.532622 
L 278.703135 464.626957 
L 278.826807 467.046582 
L 278.95048 466.138371 
L 279.074152 467.01187 
L 279.197825 466.693307 
L 279.321497 466.825393 
L 279.44517 466.245208 
L 279.692515 466.831327 
L 279.93986 466.310905 
L 280.063533 467.009698 
L 280.187205 466.109962 
L 280.310878 467.010444 
L 280.43455 465.931228 
L 280.681895 466.700515 
L 280.92924 466.116314 
L 281.176585 465.654947 
L 281.42393 466.651438 
L 281.547602 466.459305 
L 281.671275 466.899535 
L 281.794947 466.904671 
L 282.042292 467.4242 
L 282.165965 467.022757 
L 282.289637 467.168414 
L 282.41331 467.657822 
L 283.031672 467.659298 
L 283.155345 467.163477 
L 283.279018 467.578338 
L 283.40269 466.834023 
L 283.650035 467.903819 
L 283.773708 467.72519 
L 283.89738 467.791237 
L 284.021052 467.619564 
L 284.144725 467.942944 
L 284.39207 467.106414 
L 284.515742 467.825179 
L 284.639415 467.053163 
L 284.763087 467.801427 
L 284.88676 467.42144 
L 285.134105 468.178883 
L 285.257777 468.194109 
L 285.38145 467.917038 
L 285.505122 468.138724 
L 285.628795 467.982502 
L 285.752467 468.023759 
L 285.87614 467.86186 
L 285.999812 467.970003 
L 286.123485 467.489685 
L 286.247157 468.184236 
L 286.494503 468.07457 
L 286.741848 468.135753 
L 286.86552 467.82249 
L 286.989193 468.085984 
L 287.112865 467.525391 
L 287.236537 468.082855 
L 287.36021 468.03037 
L 287.483882 468.364465 
L 287.607555 468.041774 
L 287.731227 468.513053 
L 287.8549 468.046882 
L 288.102245 468.506341 
L 288.34959 468.266133 
L 288.473262 468.119958 
L 288.720607 468.459204 
L 288.967952 468.495751 
L 289.091625 468.305112 
L 289.215297 468.328776 
L 289.33897 468.216155 
L 289.586315 468.442349 
L 289.957333 468.508199 
L 290.452022 468.607161 
L 290.575695 468.038147 
L 290.699367 468.489841 
L 290.82304 468.477696 
L 291.070385 469.038244 
L 291.194057 468.83567 
L 291.441402 469.216163 
L 291.565075 469.184179 
L 291.688747 469.288771 
L 291.81242 469.631323 
L 291.936092 469.160169 
L 292.059765 469.714203 
L 292.183437 469.649514 
L 292.30711 469.332147 
L 292.430782 469.626366 
L 292.554455 469.364922 
L 292.678127 469.727231 
L 292.925472 469.527051 
L 293.049145 469.953639 
L 293.420163 469.811726 
L 293.543835 470.205496 
L 293.667507 470.053893 
L 293.79118 470.205825 
L 293.914852 469.982901 
L 294.28587 470.186235 
L 294.533215 469.640638 
L 294.656887 470.236709 
L 294.78056 469.538455 
L 294.904232 470.09118 
L 295.151577 469.953639 
L 295.27525 470.21082 
L 295.522595 469.725291 
L 295.646267 470.199684 
L 295.76994 469.913686 
L 295.893612 470.15802 
L 296.017285 469.718092 
L 296.26463 470.632039 
L 296.388303 470.792433 
L 296.635648 470.643619 
L 296.75932 470.832798 
L 296.882993 470.686086 
L 297.006665 470.062552 
L 297.25401 470.829751 
L 297.501355 470.554386 
L 297.625027 470.840504 
L 297.7487 470.411354 
L 297.872372 470.914046 
L 297.996045 470.555546 
L 298.119717 470.625148 
L 298.24339 471.239079 
L 298.367062 471.266246 
L 298.490735 470.871408 
L 298.73808 471.544923 
L 298.861752 471.60494 
L 298.985425 471.349237 
L 299.356442 471.633693 
L 299.480115 471.225192 
L 299.72746 471.628455 
L 299.851133 471.485617 
L 299.974805 471.521588 
L 300.098478 471.775908 
L 300.22215 471.660405 
L 300.345822 471.771375 
L 300.469495 471.455111 
L 300.71684 471.794385 
L 300.840512 471.768562 
L 300.964185 471.276917 
L 301.087857 471.487947 
L 301.21153 471.445425 
L 301.335202 471.853059 
L 301.70622 471.464841 
L 301.953565 471.388249 
L 302.077237 471.734682 
L 302.20091 471.575586 
L 302.571927 472.008041 
L 302.6956 471.947825 
L 302.942945 471.972849 
L 303.19029 471.903377 
L 303.313963 471.972284 
L 303.437635 471.466555 
L 303.561307 471.924209 
L 303.68498 471.625014 
L 303.808652 471.837745 
L 303.932325 471.594301 
L 304.055997 472.123651 
L 304.17967 471.809816 
L 304.303342 472.03313 
L 304.427015 471.946915 
L 304.67436 472.11333 
L 304.921705 472.144845 
L 305.045377 472.0491 
L 305.16905 471.292482 
L 305.292722 472.025618 
L 305.416395 471.81617 
L 305.540067 471.99094 
L 305.66374 471.711822 
L 305.787412 471.981705 
L 305.911085 471.762681 
L 306.034757 472.106073 
L 306.15843 471.767102 
L 306.405775 472.382928 
L 307.024137 472.22397 
L 307.14781 472.017056 
L 307.271482 472.253106 
L 307.395155 472.100321 
L 307.518827 472.317676 
L 307.6425 471.977927 
L 307.766172 472.378424 
L 307.889845 472.214457 
L 308.013517 472.301938 
L 308.13719 472.191817 
L 308.384535 472.460479 
L 308.63188 471.813325 
L 308.755552 472.450944 
L 308.879225 472.019459 
L 309.002897 472.485254 
L 309.12657 472.122013 
L 309.250242 472.503672 
L 309.373915 472.353718 
L 309.497588 472.434926 
L 309.62126 472.339714 
L 309.744933 472.00021 
L 310.11595 472.452206 
L 310.239622 472.402982 
L 310.363295 472.22293 
L 310.486967 472.369562 
L 310.61064 472.150069 
L 310.857985 472.512303 
L 311.10533 472.300468 
L 311.352675 472.980671 
L 311.476347 472.879629 
L 311.60002 472.477222 
L 311.723692 472.989254 
L 311.971037 473.009801 
L 312.09471 472.777076 
L 312.218382 473.05787 
L 312.465727 472.731885 
L 312.5894 472.952421 
L 312.713072 472.898345 
L 312.836745 472.696967 
L 312.960418 472.974598 
L 313.455107 472.942 
L 313.57878 473.082222 
L 313.702452 472.871245 
L 313.826125 473.334658 
L 313.949797 473.237845 
L 314.07347 472.839213 
L 314.197142 473.161085 
L 314.320815 472.783595 
L 314.56816 473.373964 
L 314.691832 473.281891 
L 314.815505 472.637004 
L 315.06285 473.414048 
L 315.186522 473.249201 
L 315.310195 473.536303 
L 315.433867 473.470855 
L 315.55754 473.200647 
L 315.928557 473.434941 
L 316.05223 473.233894 
L 316.175903 473.374225 
L 316.299575 473.032022 
L 316.54692 473.337419 
L 316.670592 473.415164 
L 316.917937 473.331382 
L 317.165282 473.424267 
L 317.288955 473.542281 
L 317.5363 473.089691 
L 317.659972 473.519503 
L 317.783645 473.420169 
L 317.907317 473.463778 
L 318.03099 473.303742 
L 318.154662 473.389938 
L 318.278335 473.316007 
L 318.649353 473.453218 
L 318.773025 472.790041 
L 319.02037 473.757981 
L 319.144043 473.823939 
L 319.391388 473.614235 
L 319.51506 473.958702 
L 320.00975 473.792141 
L 320.133422 474.058176 
L 320.257095 473.886773 
L 320.50444 474.131045 
L 320.628112 474.173311 
L 320.875457 473.858077 
L 320.99913 474.09368 
L 321.122802 474.038836 
L 321.246475 473.67676 
L 321.617492 474.210787 
L 321.864838 474.121343 
L 322.112183 473.969607 
L 322.359528 474.117855 
L 322.4832 473.883515 
L 322.606873 473.986355 
L 322.730545 473.77081 
L 323.101562 474.264124 
L 323.225235 473.751687 
L 323.348907 474.223176 
L 323.47258 474.00671 
L 323.719925 474.397609 
L 323.843597 474.272638 
L 323.96727 473.785233 
L 324.214615 474.527277 
L 324.338287 474.465227 
L 324.709305 474.784781 
L 324.832977 474.674996 
L 325.080322 474.811505 
L 325.203995 474.390925 
L 325.45134 474.707981 
L 325.698685 474.543718 
L 325.822358 474.901255 
L 325.94603 474.498008 
L 326.069703 474.626982 
L 326.193375 474.245363 
L 326.317048 474.807555 
L 326.44072 474.623422 
L 326.564392 474.830027 
L 326.688065 474.420917 
L 326.811737 474.59641 
L 326.93541 474.414001 
L 327.059082 474.857926 
L 327.4301 474.605097 
L 327.677445 474.830265 
L 327.801117 474.905846 
L 327.92479 474.809087 
L 328.172135 474.942397 
L 328.543153 474.861081 
L 328.666825 474.970283 
L 329.037843 474.611673 
L 329.161515 474.756945 
L 329.285188 474.674539 
L 329.532533 474.964364 
L 329.656205 474.545754 
L 329.779877 474.897478 
L 329.90355 474.727252 
L 330.645585 474.941358 
L 330.769257 474.884203 
L 330.89293 475.186834 
L 331.140275 475.104315 
L 331.263947 475.192881 
L 331.38762 474.718786 
L 331.511292 474.815783 
L 331.634965 475.065197 
L 331.758638 474.877188 
L 332.253328 475.156431 
L 332.377 474.94933 
L 332.500673 475.134533 
L 332.624345 474.891535 
L 332.748018 475.073629 
L 332.87169 474.808923 
L 332.995362 475.347927 
L 333.119035 475.068708 
L 333.242707 475.301477 
L 333.490052 475.085766 
L 333.737397 475.374729 
L 333.984742 475.139747 
L 334.108415 474.968412 
L 334.232087 475.251308 
L 334.35576 475.102677 
L 334.479432 475.339685 
L 334.603105 475.029545 
L 334.726777 475.347644 
L 334.85045 474.814925 
L 334.974123 475.25713 
L 335.097795 475.125239 
L 335.221468 475.324574 
L 335.34514 475.202454 
L 335.716158 475.412796 
L 336.087175 475.193758 
L 336.210847 475.339417 
L 336.33452 474.887068 
L 336.458192 475.381803 
L 336.581865 474.915173 
L 336.705537 475.364879 
L 336.82921 475.155037 
L 336.952882 475.411401 
L 337.076555 475.323138 
L 337.3239 475.692199 
L 337.571245 475.480604 
L 337.694917 475.638882 
L 337.81859 475.609117 
L 337.942262 475.703194 
L 338.065935 475.379118 
L 338.31328 475.703758 
L 338.436953 475.512181 
L 338.560625 475.63738 
L 338.684298 475.451081 
L 338.931643 475.573732 
L 339.055315 475.089069 
L 339.178988 475.564199 
L 339.426333 475.386953 
L 339.673677 475.557233 
L 339.79735 475.466793 
L 339.921022 475.608299 
L 340.044695 475.409723 
L 340.29204 475.569677 
L 340.539385 475.616309 
L 340.663057 475.572703 
L 340.78673 475.30865 
L 341.034075 475.535768 
L 341.157747 475.428996 
L 341.28142 475.688255 
L 341.405092 475.6506 
L 341.528765 475.771737 
L 341.652438 475.566962 
L 341.77611 475.716907 
L 341.899783 475.679441 
L 342.023455 475.778637 
L 342.147128 475.664224 
L 342.2708 475.81076 
L 342.518145 475.561505 
L 342.641818 475.736185 
L 342.76549 475.538417 
L 342.889162 475.752081 
L 343.012835 475.181032 
L 343.136507 475.710042 
L 343.26018 475.479003 
L 343.383852 475.691384 
L 343.507525 475.51699 
L 343.75487 475.744856 
L 343.878542 475.837438 
L 344.002215 475.540004 
L 344.24956 475.689916 
L 344.496905 475.824484 
L 344.74425 475.603645 
L 344.867923 475.743174 
L 344.991595 475.485979 
L 345.115268 475.804615 
L 345.609958 475.736886 
L 345.857303 475.770819 
L 345.980975 475.66471 
L 346.104647 475.717647 
L 346.22832 475.414804 
L 346.475665 475.855412 
L 346.599337 475.786318 
L 346.72301 475.101323 
L 346.846682 475.647286 
L 346.970355 475.33237 
L 347.094027 475.644607 
L 347.341372 475.696238 
L 347.588717 475.701132 
L 347.71239 475.618865 
L 347.959735 475.902828 
L 348.454425 475.813926 
L 348.578098 475.878474 
L 348.70177 475.402242 
L 348.949115 475.944972 
L 349.19646 475.678376 
L 349.320132 475.817391 
L 349.567477 475.729552 
L 349.69115 475.458302 
L 349.814822 475.890613 
L 349.938495 475.680371 
L 350.062167 475.953184 
L 350.18584 475.78131 
L 350.309512 475.822502 
L 350.556857 475.733451 
L 350.804202 475.750019 
L 351.051547 475.83932 
L 351.298892 475.913034 
L 351.422565 475.64523 
L 351.546238 475.972508 
L 351.66991 475.525601 
L 351.917255 476.206396 
L 352.1646 475.929126 
L 352.288273 476.147754 
L 352.411945 475.580326 
L 352.535618 476.05561 
L 352.65929 475.54995 
L 352.782962 476.14734 
L 352.906635 476.002859 
L 353.030307 476.132881 
L 353.15398 475.835392 
L 353.277652 476.153014 
L 353.401325 476.001391 
L 353.524997 476.145663 
L 353.64867 475.949656 
L 354.019687 476.212664 
L 354.14336 475.733786 
L 354.267032 476.10675 
L 354.390705 475.858153 
L 354.514377 476.010964 
L 354.63805 475.841097 
L 354.761723 476.131278 
L 355.13274 476.130543 
L 355.256413 475.944739 
L 355.503758 476.07835 
L 355.62743 475.976584 
L 355.751103 476.120487 
L 355.998447 476.0977 
L 356.12212 476.479661 
L 356.369465 476.164791 
L 356.493137 476.371415 
L 356.61681 476.183012 
L 356.740482 476.436227 
L 356.864155 475.911285 
L 356.987827 476.427378 
L 357.1115 476.067117 
L 357.235172 476.356568 
L 357.358845 476.277183 
L 357.482517 476.404209 
L 357.60619 476.021407 
L 357.729862 476.424196 
L 357.853535 476.304089 
L 357.977207 476.452576 
L 358.10088 476.342577 
L 358.224553 476.521211 
L 358.348225 476.356841 
L 358.471898 476.40123 
L 358.59557 476.114314 
L 358.719243 476.384166 
L 358.842915 475.879998 
L 358.966588 476.586342 
L 359.09026 476.323174 
L 359.461277 476.452214 
L 359.58495 476.441029 
L 359.708622 476.607535 
L 359.832295 475.972124 
L 359.955967 476.562501 
L 360.203312 476.412672 
L 360.698002 476.63517 
L 360.821675 476.237411 
L 360.945347 476.562678 
L 361.06902 476.208857 
L 361.192692 476.607961 
L 361.316365 476.361051 
L 361.440038 476.421565 
L 361.56371 476.695493 
L 361.687383 476.541898 
L 361.934728 476.632801 
L 362.0584 476.553363 
L 362.182073 476.653222 
L 362.305745 476.221393 
L 362.55309 476.614299 
L 362.676762 476.789356 
L 362.800435 476.225027 
L 363.04778 476.671744 
L 363.171452 476.744323 
L 363.295125 476.449965 
L 363.418797 476.764112 
L 363.54247 476.398401 
L 363.789815 476.766112 
L 363.913487 476.683566 
L 364.03716 476.347098 
L 364.160832 476.807226 
L 364.284505 476.266929 
L 364.408177 476.741646 
L 364.53185 476.404167 
L 364.655523 476.75412 
L 365.02654 476.510394 
L 365.150213 476.733097 
L 365.273885 476.662094 
L 365.397558 476.76647 
L 365.644903 476.656394 
L 365.768575 477.052814 
L 365.892247 476.991317 
L 366.01592 477.194133 
L 366.263265 477.189739 
L 366.386937 477.222936 
L 366.634282 477.083262 
L 366.881627 477.076096 
L 367.0053 476.820119 
L 367.128972 477.304304 
L 367.252645 477.039978 
L 367.376317 477.257959 
L 367.49999 477.016516 
L 367.623662 477.111573 
L 367.747335 476.926208 
L 367.871008 477.191558 
L 367.99468 476.819542 
L 368.118353 477.240015 
L 368.242025 476.82415 
L 368.365698 477.218568 
L 368.48937 476.85107 
L 368.613043 477.290983 
L 368.736715 477.016292 
L 368.860388 477.212517 
L 368.98406 477.088734 
L 369.107732 477.184898 
L 369.231405 476.808755 
L 369.355077 477.314112 
L 369.47875 477.306898 
L 369.602422 477.18242 
L 369.726095 476.652734 
L 369.849767 477.311134 
L 369.97344 476.916825 
L 370.097112 477.139244 
L 370.220785 477.010778 
L 370.344457 477.156948 
L 370.46813 477.115321 
L 370.591802 477.389478 
L 370.96282 477.210851 
L 371.086492 477.404224 
L 371.210165 476.992441 
L 371.333838 477.315765 
L 371.45751 477.179158 
L 371.581183 477.282491 
L 371.704855 477.061423 
L 371.828528 477.182517 
L 371.9522 477.060976 
L 372.199545 477.364908 
L 372.323217 477.415402 
L 372.570562 477.277556 
L 372.94158 477.165468 
L 373.065252 477.354426 
L 373.188925 476.928404 
L 373.312597 477.441398 
L 373.43627 476.922616 
L 373.559942 477.395544 
L 373.683615 477.134181 
L 373.93096 477.39797 
L 374.178305 477.255385 
L 374.301977 477.508371 
L 374.549323 477.391041 
L 374.672995 477.162244 
L 374.796668 477.47803 
L 374.92034 477.308775 
L 375.044013 477.482495 
L 375.167685 477.306297 
L 375.291358 477.325433 
L 375.41503 477.489786 
L 375.662375 477.384287 
L 375.786047 477.377774 
L 375.90972 477.211819 
L 376.033392 477.368375 
L 376.157065 477.017646 
L 376.280737 477.427789 
L 376.528082 477.376468 
L 376.651755 477.091277 
L 376.775427 477.46323 
L 376.8991 477.253834 
L 377.022772 477.538639 
L 377.39379 476.989576 
L 377.517462 477.499899 
L 377.641135 477.229597 
L 377.764808 477.499828 
L 377.88848 477.357858 
L 378.012153 477.52641 
L 378.135825 477.348503 
L 378.506843 477.431508 
L 378.630515 477.335445 
L 378.754188 477.48692 
L 378.87786 477.289678 
L 379.001532 477.566929 
L 379.125205 477.400266 
L 379.37255 477.455244 
L 379.619895 477.509212 
L 379.743567 477.580396 
L 379.86724 477.31927 
L 379.990912 477.523656 
L 380.36193 477.351971 
L 380.732947 477.498803 
L 380.85662 477.491385 
L 381.103965 477.61277 
L 381.474983 477.636145 
L 381.598655 477.556494 
L 381.846 477.714858 
L 382.217017 477.613623 
L 382.34069 477.706622 
L 382.464362 477.617638 
L 382.588035 477.730743 
L 382.83538 477.673761 
L 383.082725 477.764536 
L 383.206397 477.648969 
L 383.33007 477.758409 
L 383.453742 477.659594 
L 383.82476 477.745034 
L 384.072105 477.802234 
L 384.195777 477.633858 
L 384.31945 477.797907 
L 384.443123 477.694638 
L 384.566795 477.774134 
L 384.690468 477.699049 
L 384.937813 477.796333 
L 385.061485 477.678371 
L 385.30883 477.769645 
L 385.80352 477.877324 
L 385.927192 477.784441 
L 386.050865 477.867279 
L 386.174537 477.800506 
L 386.421882 477.910869 
L 386.7929 477.85664 
L 387.163917 478.039678 
L 387.411262 478.020109 
L 387.78228 477.968284 
L 387.905953 477.796355 
L 388.153298 478.070017 
L 388.400643 478.040879 
L 388.524315 477.994732 
L 388.647987 478.192672 
L 388.77166 478.116704 
L 389.019005 478.286463 
L 389.142677 478.17966 
L 389.390022 478.331254 
L 389.637367 478.258813 
L 389.884712 478.482366 
L 391.492455 478.72495 
L 391.616128 478.54472 
L 391.863473 478.769633 
L 392.358162 478.730454 
L 392.605507 478.775722 
L 392.72918 478.72516 
L 392.976525 478.769524 
L 393.71856 478.782563 
L 393.965905 478.74339 
L 394.089577 478.823824 
L 394.336923 478.763586 
L 394.70794 478.844763 
L 394.955285 478.838689 
L 395.449975 478.85531 
L 395.573647 478.750372 
L 395.944665 478.807437 
L 396.6867 478.878645 
L 396.810372 478.741336 
L 397.057717 478.892213 
L 397.67608 478.900099 
L 398.047098 478.89787 
L 398.17077 478.879164 
L 398.418115 478.964134 
L 398.541787 478.845453 
L 398.912805 478.986488 
L 399.036477 478.912175 
L 399.16015 479.025728 
L 399.283822 478.912288 
L 399.531167 478.979529 
L 400.025857 478.994453 
L 400.273202 479.030205 
L 400.64422 479.05314 
L 402.375635 479.071846 
L 402.62298 479.112776 
L 402.746652 479.022271 
L 402.870325 479.118419 
L 402.993997 478.977398 
L 403.241342 479.080736 
L 403.488687 479.222178 
L 403.736032 479.039112 
L 403.983377 479.226203 
L 404.849085 479.17558 
L 406.5805 479.266634 
L 406.704172 479.126917 
L 406.951517 479.256241 
L 408.311915 479.345059 
L 408.435587 479.1951 
L 408.682932 479.418161 
L 408.806605 479.349903 
L 409.05395 479.474602 
L 409.424967 479.418225 
L 410.785365 479.495446 
L 411.156383 479.433578 
L 411.651072 479.674761 
L 412.393107 479.651227 
L 412.887797 479.641074 
L 413.258815 479.677181 
L 413.629832 479.781883 
L 414.00085 479.76228 
L 414.248195 479.797265 
L 414.371868 479.708868 
L 414.49554 479.877247 
L 414.742885 479.812265 
L 415.113902 479.91844 
L 415.608592 479.833714 
L 415.855937 479.865541 
L 415.97961 479.903882 
L 416.103282 479.799267 
L 416.350627 479.877474 
L 416.721645 479.855281 
L 416.845317 479.920502 
L 417.092662 479.903106 
L 417.340008 479.860009 
L 417.587353 479.900518 
L 417.95837 479.901902 
L 418.082043 479.77793 
L 418.205715 479.906949 
L 418.329387 479.811525 
L 418.45306 479.954988 
L 418.94775 479.885819 
L 419.195095 479.947716 
L 419.318767 479.87033 
L 419.813457 480.039387 
L 420.184475 479.991932 
L 420.308147 479.866832 
L 420.43182 480.056265 
L 420.679165 479.99262 
L 421.173855 480.021031 
L 422.039562 480.046881 
L 422.163235 480.157184 
L 422.286907 480.03871 
L 422.534252 480.173473 
L 422.90527 480.150369 
L 423.028942 479.941373 
L 423.152615 480.125546 
L 423.39996 480.070375 
L 423.647305 480.145385 
L 424.018323 480.027368 
L 424.141995 480.19207 
L 424.38934 480.141732 
L 424.513013 480.231507 
L 424.760357 480.130532 
L 424.88403 480.223766 
L 425.131375 480.21457 
L 425.502392 480.129855 
L 425.749737 480.220394 
L 425.87341 480.253424 
L 425.997082 480.151188 
L 426.244427 480.25302 
L 427.481153 480.198479 
L 427.728498 480.295127 
L 429.33624 480.309396 
L 429.583585 480.261362 
L 430.078275 480.264819 
L 430.201947 480.173161 
L 430.449293 480.312529 
L 432.057035 480.442038 
L 432.180707 480.196778 
L 432.428052 480.397754 
L 432.922742 480.497169 
L 433.170087 480.489305 
L 433.29376 480.572875 
L 433.417432 480.428213 
L 433.664778 480.504011 
L 434.035795 480.585109 
L 434.654157 480.483812 
L 434.901502 480.571829 
L 435.643537 480.549753 
L 435.76721 480.606002 
L 435.890882 480.458808 
L 436.014555 480.583786 
L 436.138227 480.515535 
L 436.2619 480.589484 
L 436.385572 480.483484 
L 436.632917 480.566209 
L 437.127608 480.643536 
L 437.869642 480.598814 
L 438.488005 480.655048 
L 438.859022 480.585465 
L 439.106367 480.629568 
L 439.477385 480.622695 
L 439.601057 480.773409 
L 439.848402 480.675354 
L 440.343093 480.854334 
L 440.590438 480.811268 
L 440.71411 480.836572 
L 440.837783 480.728337 
L 440.961455 480.839433 
L 441.2088 480.81971 
L 442.19818 480.850619 
L 442.569197 480.744826 
L 442.69287 480.913077 
L 442.816542 480.803238 
L 443.063887 480.839928 
L 444.053268 480.922896 
L 445.66101 480.974968 
L 446.032027 480.996016 
L 446.526717 480.963536 
L 446.897735 481.034802 
L 447.268753 480.945666 
L 447.516098 480.972643 
L 447.763442 481.010913 
L 448.258132 481.002197 
L 448.62915 481.001192 
L 449.000167 480.8891 
L 449.247512 481.045322 
L 449.371185 481.058868 
L 449.494857 480.9588 
L 449.742202 481.068816 
L 450.236893 481.012973 
L 450.484238 481.123037 
L 450.731583 481.115205 
L 451.720962 481.120203 
L 452.462997 480.971575 
L 452.58667 481.137462 
L 452.710342 481.013461 
L 452.957687 481.112405 
L 453.57605 481.076768 
L 453.823395 481.19392 
L 454.936447 481.131316 
L 455.06012 481.228375 
L 455.183792 481.15328 
L 455.307465 481.223184 
L 455.55481 481.207983 
L 455.802155 481.192037 
L 455.925827 481.159413 
L 456.173172 481.19406 
L 456.54419 481.228957 
L 456.667863 481.161697 
L 456.915208 481.245797 
L 457.286225 481.240845 
L 457.409897 481.117354 
L 457.657242 481.236461 
L 458.02826 481.227234 
L 458.399277 481.069296 
L 458.646622 481.289799 
L 459.141312 481.157945 
L 459.264985 481.261289 
L 459.51233 481.237495 
L 459.759675 481.277802 
L 460.378038 481.285935 
L 461.614762 481.254581 
L 462.109452 481.314663 
L 462.851487 481.218872 
L 463.098832 481.279218 
L 464.95392 481.272912 
L 465.201265 481.26096 
L 465.44861 481.278266 
L 465.9433 481.300589 
L 466.190645 481.252252 
L 467.056353 481.33508 
L 467.798387 481.296507 
L 468.41675 481.405728 
L 468.664095 481.375866 
L 468.91144 481.465821 
L 469.158785 481.431393 
L 469.653475 481.476957 
L 469.777147 481.320477 
L 470.024493 481.422843 
L 470.39551 481.477813 
L 470.519182 481.353513 
L 470.766527 481.428492 
L 471.013872 481.49098 
L 471.261217 481.461624 
L 472.126925 481.445757 
L 473.36365 481.61687 
L 473.487323 481.515807 
L 473.734668 481.575572 
L 475.34241 481.598041 
L 475.466082 481.531005 
L 475.589755 481.623587 
L 475.713427 481.429225 
L 475.960772 481.631341 
L 476.579135 481.63388 
L 477.444842 481.659979 
L 477.81586 481.755989 
L 477.939532 481.643296 
L 478.186877 481.692475 
L 478.80524 481.777694 
L 478.928912 481.682284 
L 479.052585 481.758112 
L 479.176257 481.679178 
L 479.29993 481.769529 
L 479.670947 481.6891 
L 479.79462 481.735157 
L 479.918293 481.639395 
L 480.041965 481.732399 
L 480.165638 481.672467 
L 480.412982 481.770116 
L 480.660327 481.69347 
L 481.526035 481.754531 
L 481.897052 481.732603 
L 482.26807 481.765682 
L 482.391742 481.678122 
L 482.515415 481.805225 
L 482.639087 481.669206 
L 482.76276 481.803597 
L 482.886432 481.687757 
L 483.133778 481.810772 
L 483.628467 481.745463 
L 483.999485 481.770489 
L 484.123157 481.678238 
L 484.24683 481.787504 
L 484.494175 481.767228 
L 484.988865 481.80004 
L 485.112537 481.679155 
L 485.23621 481.814305 
L 485.483555 481.81273 
L 485.978245 481.884771 
L 486.101917 481.728343 
L 486.349263 481.854387 
L 486.472935 481.839733 
L 486.596608 481.956146 
L 486.72028 481.87868 
L 486.967625 481.931458 
L 487.091297 481.854017 
L 487.21497 481.976466 
L 487.338642 481.867347 
L 487.462315 481.939301 
L 487.585987 481.853576 
L 487.833332 482.004405 
L 488.328022 481.989812 
L 489.441075 482.007185 
L 489.564748 481.880529 
L 489.812093 481.982303 
L 490.554127 482.003381 
L 490.801472 481.939179 
L 491.17249 482.020977 
L 491.66718 482.007821 
L 496.366735 482.026751 
L 496.861425 482.022082 
L 496.985097 481.915243 
L 497.10877 482.051334 
L 497.356115 482.042774 
L 498.840185 482.07208 
L 498.963857 481.904977 
L 499.334875 482.050178 
L 500.5716 482.068501 
L 500.942617 482.150771 
L 501.06629 482.149772 
L 501.189962 482.033687 
L 501.56098 482.19371 
L 501.931997 482.146844 
L 502.797705 482.202732 
L 502.921378 482.117892 
L 503.04505 482.212446 
L 503.168723 482.06972 
L 503.292395 482.190878 
L 503.416067 482.106791 
L 503.787085 482.251126 
L 503.910757 482.117172 
L 504.03443 482.237808 
L 504.158102 482.172659 
L 504.281775 482.26116 
L 504.652792 482.191908 
L 504.776465 482.268799 
L 505.147482 482.164509 
L 505.394827 482.209712 
L 505.765845 482.236 
L 505.889517 482.196567 
L 506.01319 482.27422 
L 506.260535 482.247553 
L 506.50788 482.262133 
L 507.99195 482.276373 
L 508.48664 482.290114 
L 508.610312 482.207022 
L 508.733985 482.31789 
L 508.857657 482.189547 
L 509.105002 482.26402 
L 509.599693 482.293959 
L 509.97071 482.265463 
L 510.218055 482.298361 
L 511.45478 482.288211 
L 511.578452 482.155688 
L 511.702125 482.341241 
L 511.94947 482.326397 
L 512.815178 482.286866 
L 513.186195 482.32546 
L 513.43354 482.295942 
L 513.557212 482.119811 
L 513.680885 482.319322 
L 513.804557 482.255294 
L 514.051902 482.36645 
L 514.42292 482.369649 
L 514.670265 482.382822 
L 514.91761 482.347588 
L 515.164955 482.450261 
L 515.288627 482.296531 
L 515.4123 482.435365 
L 515.659645 482.41597 
L 516.40168 482.390949 
L 516.772697 482.43905 
L 518.256767 482.415201 
L 518.38044 482.422052 
L 518.504112 482.302623 
L 518.627785 482.427675 
L 518.751457 482.279088 
L 518.998802 482.442523 
L 519.617165 482.425301 
L 522.214287 482.442166 
L 522.33796 482.495556 
L 522.461632 482.382482 
L 522.585305 482.476667 
L 522.83265 482.48181 
L 523.079995 482.487554 
L 523.698357 482.382336 
L 523.945702 482.570657 
L 524.440392 482.537906 
L 524.81141 482.516193 
L 524.935082 482.462579 
L 525.182427 482.497178 
L 525.553445 482.525817 
L 525.924463 482.537338 
L 527.408532 482.534455 
L 527.532205 482.551325 
L 527.655877 482.39462 
L 527.77955 482.550723 
L 527.903222 482.466542 
L 528.150567 482.545419 
L 530.74769 482.61879 
L 530.871362 482.513001 
L 531.118707 482.634444 
L 531.24238 482.631682 
L 531.366052 482.48619 
L 531.489725 482.636843 
L 531.613397 482.566742 
L 531.860742 482.619733 
L 532.23176 482.651513 
L 532.355433 482.56913 
L 532.479105 482.670689 
L 532.850122 482.58607 
L 533.468485 482.650886 
L 534.334192 482.605478 
L 534.457865 482.692318 
L 534.581537 482.56333 
L 534.70521 482.711031 
L 534.828882 482.603018 
L 535.076227 482.682531 
L 536.807642 482.728832 
L 538.66273 482.711301 
L 538.786402 482.58012 
L 539.033748 482.672195 
L 539.404765 482.725383 
L 541.012507 482.666207 
L 541.259852 482.765562 
L 542.62025 482.74015 
L 542.743922 482.638172 
L 542.991267 482.734865 
L 544.227992 482.763509 
L 544.475337 482.69242 
L 544.59901 482.767905 
L 544.722682 482.690819 
L 545.0937 482.756229 
L 545.341045 482.75117 
L 545.58839 482.748847 
L 545.959407 482.733187 
L 564.262937 483.132608 
L 564.8813 483.110844 
L 565.37599 483.136061 
L 567.478422 483.153164 
L 572.672667 483.184309 
L 573.167357 483.202482 
L 573.662047 483.202436 
L 574.898772 483.20715 
L 576.25917 483.214581 
L 604.580173 483.439207 
L 604.95119 483.403696 
L 605.322207 483.442907 
L 605.94057 483.419132 
L 606.806277 483.439381 
L 607.42464 483.433396 
L 611.505832 483.479797 
L 612.000522 483.472891 
L 616.32906 483.46107 
L 616.947423 483.488011 
L 617.81313 483.455647 
L 618.431492 483.489014 
L 619.049855 483.494629 
L 620.78127 483.476555 
L 621.152287 483.506161 
L 622.512685 483.507646 
L 625.357152 483.521301 
L 625.975515 483.522605 
L 627.830602 483.551149 
L 628.943655 483.534031 
L 629.562018 483.558814 
L 630.922415 483.55138 
L 633.272192 483.560927 
L 635.12728 483.55887 
L 635.498297 483.582119 
L 637.10604 483.571379 
L 637.477058 483.598252 
L 637.971747 483.595801 
L 638.961127 483.616799 
L 639.455817 483.612854 
L 642.54763 483.599103 
L 643.165993 483.621714 
L 644.402717 483.622674 
L 644.897407 483.624938 
L 646.381477 483.64274 
L 647.741875 483.651405 
L 651.575722 483.648219 
L 652.44143 483.651324 
L 655.285897 483.661251 
L 655.780588 483.666291 
L 668.518855 483.676551 
L 669.26089 483.673336 
L 670.25027 483.683589 
L 673.960445 483.70507 
L 675.939205 483.696426 
L 676.804913 483.705579 
L 677.423275 483.696988 
L 678.288982 483.708821 
L 678.783672 483.710933 
L 678.783672 483.710933 
" style="fill:none;stroke:#1f77b4;stroke-linecap:square;stroke-width:3;"/>
   </g>
   <g id="line2d_15">
    <path clip-path="url(#pd567c92080)" d="M 60.421172 86.445587 
L 72.66475 86.445587 
L 72.788422 149.440614 
L 85.032 149.440614 
L 85.155672 186.266102 
L 97.39925 186.266102 
L 97.522922 229.976007 
L 109.7665 229.976007 
L 109.890173 247.542465 
L 122.13375 247.542465 
L 122.257422 286.621914 
L 134.501 286.621914 
L 134.624672 309.653572 
L 146.86825 309.653572 
L 146.991922 320.907932 
L 159.2355 320.907932 
L 159.359172 359.667073 
L 171.60275 359.667073 
L 171.726423 357.176214 
L 171.850095 394.907785 
L 184.093672 394.907785 
L 184.217345 418.899427 
L 196.460922 418.899427 
L 196.584595 421.713353 
L 196.708267 436.471057 
L 208.951845 436.471057 
L 209.075517 420.461508 
L 209.19919 446.312203 
L 221.442768 446.312203 
L 221.56644 444.022868 
L 221.690112 452.819408 
L 233.93369 452.819408 
L 234.057363 456.68608 
L 246.30094 456.68608 
L 246.424612 462.083036 
L 258.791862 462.041619 
L 258.915535 464.975768 
L 271.159112 464.975768 
L 271.282785 464.449347 
L 271.406457 466.532514 
L 283.650035 466.532514 
L 283.773708 467.121838 
L 296.017285 467.121838 
L 296.140957 468.410781 
L 308.384535 468.410781 
L 308.508207 468.133214 
L 308.63188 470.439555 
L 320.99913 470.519366 
L 321.122802 471.700614 
L 333.36638 471.700614 
L 333.490052 472.059969 
L 345.73363 472.059969 
L 345.857303 473.290275 
L 358.10088 473.290275 
L 358.224553 473.524957 
L 358.348225 474.226087 
L 370.591802 474.226087 
L 370.715475 475.121933 
L 382.959052 475.121933 
L 383.082725 476.424785 
L 395.449975 476.408858 
L 395.573647 477.19147 
L 407.817225 477.19147 
L 407.940898 476.923256 
L 408.06457 477.905218 
L 420.308147 477.905218 
L 420.43182 478.366438 
L 432.675397 478.366438 
L 432.79907 479.195943 
L 445.042647 479.195943 
L 445.16632 479.040722 
L 445.289992 479.723644 
L 457.657242 479.817768 
L 457.780915 480.103562 
L 470.024493 480.103562 
L 470.148165 480.566581 
L 482.391742 480.566581 
L 482.639087 480.793494 
L 494.758992 480.793495 
L 494.882665 481.150992 
L 507.126242 481.150992 
L 507.249915 481.405482 
L 519.493493 481.405482 
L 519.617165 481.708993 
L 531.860742 481.708993 
L 531.984415 481.971411 
L 544.227992 481.971411 
L 544.351665 482.284508 
L 556.595242 482.284508 
L 556.718915 482.548978 
L 568.962492 482.548978 
L 569.086165 482.819901 
L 581.329742 482.819901 
L 581.453415 483.111444 
L 593.696992 483.111444 
L 593.944337 483.338148 
L 606.064242 483.338148 
L 606.187915 483.866833 
L 618.431492 483.866833 
L 618.678837 484.050014 
L 643.165993 484.088338 
L 643.413338 484.203233 
L 678.783672 484.277031 
L 678.783672 484.277031 
" style="fill:none;stroke:#ff7f0e;stroke-linecap:square;stroke-width:3;"/>
   </g>
   <g id="line2d_16">
    <path clip-path="url(#pd567c92080)" d="M 60.421172 48.896763 
L 72.66475 48.896763 
L 72.788422 123.542871 
L 85.032 123.542871 
L 85.155672 88.01353 
L 97.39925 88.01353 
L 97.522922 178.758331 
L 109.7665 178.758331 
L 109.890173 218.519277 
L 122.13375 218.519277 
L 122.257422 256.717659 
L 134.501 256.717659 
L 134.624672 298.801629 
L 146.86825 298.801628 
L 146.991922 340.579156 
L 159.2355 340.579156 
L 159.359172 373.582892 
L 171.60275 373.582892 
L 171.726423 402.117225 
L 183.97 402.117225 
L 184.093672 422.847184 
L 196.33725 422.847184 
L 196.460922 435.667025 
L 208.7045 435.667025 
L 208.828172 445.332215 
L 221.07175 445.332215 
L 221.195423 454.212515 
L 233.439 454.212515 
L 233.562672 459.809965 
L 245.80625 459.809965 
L 245.929922 463.396648 
L 258.1735 463.396648 
L 258.297172 466.435753 
L 270.54075 466.435753 
L 270.664423 469.66012 
L 282.908 469.66012 
L 283.031672 473.439251 
L 295.27525 473.439251 
L 295.398922 475.180659 
L 307.6425 475.180659 
L 307.766172 476.506645 
L 320.00975 476.506645 
L 320.133422 477.551705 
L 332.377 477.551706 
L 332.500673 478.496836 
L 344.74425 478.496836 
L 344.867923 479.368391 
L 357.1115 479.368391 
L 357.235172 480.034203 
L 369.47875 480.034203 
L 369.602422 480.345082 
L 381.846 480.345082 
L 382.093345 480.521532 
L 394.21325 480.521532 
L 394.460595 480.633592 
L 418.94775 480.721133 
L 419.195095 480.817838 
L 431.315 480.817838 
L 431.562345 480.958318 
L 443.68225 480.958318 
L 443.929595 481.184029 
L 456.0495 481.184029 
L 456.296845 481.424641 
L 468.41675 481.424641 
L 468.540422 481.843116 
L 480.784 481.843116 
L 480.907672 482.447403 
L 493.15125 482.447403 
L 493.274923 480.741291 
L 505.5185 480.741291 
L 505.642172 482.730439 
L 517.88575 482.730439 
L 518.009422 483.021865 
L 530.253 483.021865 
L 530.500345 483.165576 
L 542.62025 483.165576 
L 542.743922 483.487005 
L 554.9875 483.487005 
L 555.234845 483.602921 
L 579.722 483.69092 
L 579.969345 483.82402 
L 592.08925 483.82402 
L 592.336595 483.954487 
L 604.4565 483.954487 
L 604.703845 484.133887 
L 629.191 484.229867 
L 629.562018 484.285278 
L 678.783672 484.371466 
L 678.783672 484.371466 
" style="fill:none;stroke:#2ca02c;stroke-linecap:square;stroke-width:3;"/>
   </g>
   <g id="line2d_17">
    <path clip-path="url(#pd567c92080)" d="M 60.2975 498.690602 
L 678.66 498.690602 
" style="fill:none;stroke:#000000;stroke-dasharray:7.4,3.2;stroke-dashoffset:0;stroke-width:2;"/>
   </g>
   <g id="patch_3">
    <path d="M 60.2975 507.745 
L 60.2975 14.405953 
" style="fill:none;stroke:#000000;stroke-linecap:square;stroke-linejoin:miter;stroke-width:0.8;"/>
   </g>
   <g id="patch_4">
    <path d="M 678.66 507.745 
L 678.66 14.405953 
" style="fill:none;stroke:#000000;stroke-linecap:square;stroke-linejoin:miter;stroke-width:0.8;"/>
   </g>
   <g id="patch_5">
    <path d="M 60.2975 507.745 
L 678.66 507.745 
" style="fill:none;stroke:#000000;stroke-linecap:square;stroke-linejoin:miter;stroke-width:0.8;"/>
   </g>
   <g id="patch_6">
    <path d="M 60.2975 14.405953 
L 678.66 14.405953 
" style="fill:none;stroke:#000000;stroke-linecap:square;stroke-linejoin:miter;stroke-width:0.8;"/>
   </g>
   <g id="legend_1">
    <g id="patch_7">
     <path d="M 475.96125 174.515953 
L 661.86 174.515953 
Q 666.66 174.515953 666.66 169.715953 
L 666.66 31.205953 
Q 666.66 26.405953 661.86 26.405953 
L 475.96125 26.405953 
Q 471.16125 26.405953 471.16125 31.205953 
L 471.16125 169.715953 
Q 471.16125 174.515953 475.96125 174.515953 
z
" style="fill:#ffffff;opacity:0.8;stroke:#cccccc;stroke-linejoin:miter;"/>
    </g>
    <g id="line2d_18">
     <path d="M 480.76125 45.842203 
L 528.76125 45.842203 
" style="fill:none;stroke:#1f77b4;stroke-linecap:square;stroke-width:3;"/>
    </g>
    <g id="line2d_19"/>
    <g id="text_16">
     <!-- COBYLA -->
     <g transform="translate(547.96125 54.242203)scale(0.24 -0.24)">
      <defs>
       <path d="M 4122 4306 
L 4122 3641 
Q 3803 3938 3442 4084 
Q 3081 4231 2675 4231 
Q 1875 4231 1450 3742 
Q 1025 3253 1025 2328 
Q 1025 1406 1450 917 
Q 1875 428 2675 428 
Q 3081 428 3442 575 
Q 3803 722 4122 1019 
L 4122 359 
Q 3791 134 3420 21 
Q 3050 -91 2638 -91 
Q 1578 -91 968 557 
Q 359 1206 359 2328 
Q 359 3453 968 4101 
Q 1578 4750 2638 4750 
Q 3056 4750 3426 4639 
Q 3797 4528 4122 4306 
z
" id="DejaVuSans-43" transform="scale(0.015625)"/>
       <path d="M 2522 4238 
Q 1834 4238 1429 3725 
Q 1025 3213 1025 2328 
Q 1025 1447 1429 934 
Q 1834 422 2522 422 
Q 3209 422 3611 934 
Q 4013 1447 4013 2328 
Q 4013 3213 3611 3725 
Q 3209 4238 2522 4238 
z
M 2522 4750 
Q 3503 4750 4090 4092 
Q 4678 3434 4678 2328 
Q 4678 1225 4090 567 
Q 3503 -91 2522 -91 
Q 1538 -91 948 565 
Q 359 1222 359 2328 
Q 359 3434 948 4092 
Q 1538 4750 2522 4750 
z
" id="DejaVuSans-4f" transform="scale(0.015625)"/>
       <path d="M 1259 2228 
L 1259 519 
L 2272 519 
Q 2781 519 3026 730 
Q 3272 941 3272 1375 
Q 3272 1813 3026 2020 
Q 2781 2228 2272 2228 
L 1259 2228 
z
M 1259 4147 
L 1259 2741 
L 2194 2741 
Q 2656 2741 2882 2914 
Q 3109 3088 3109 3444 
Q 3109 3797 2882 3972 
Q 2656 4147 2194 4147 
L 1259 4147 
z
M 628 4666 
L 2241 4666 
Q 2963 4666 3353 4366 
Q 3744 4066 3744 3513 
Q 3744 3084 3544 2831 
Q 3344 2578 2956 2516 
Q 3422 2416 3680 2098 
Q 3938 1781 3938 1306 
Q 3938 681 3513 340 
Q 3088 0 2303 0 
L 628 0 
L 628 4666 
z
" id="DejaVuSans-42" transform="scale(0.015625)"/>
       <path d="M -13 4666 
L 666 4666 
L 1959 2747 
L 3244 4666 
L 3922 4666 
L 2272 2222 
L 2272 0 
L 1638 0 
L 1638 2222 
L -13 4666 
z
" id="DejaVuSans-59" transform="scale(0.015625)"/>
       <path d="M 628 4666 
L 1259 4666 
L 1259 531 
L 3531 531 
L 3531 0 
L 628 0 
L 628 4666 
z
" id="DejaVuSans-4c" transform="scale(0.015625)"/>
       <path d="M 2188 4044 
L 1331 1722 
L 3047 1722 
L 2188 4044 
z
M 1831 4666 
L 2547 4666 
L 4325 0 
L 3669 0 
L 3244 1197 
L 1141 1197 
L 716 0 
L 50 0 
L 1831 4666 
z
" id="DejaVuSans-41" transform="scale(0.015625)"/>
      </defs>
      <use xlink:href="#DejaVuSans-43"/>
      <use x="69.824219" xlink:href="#DejaVuSans-4f"/>
      <use x="148.535156" xlink:href="#DejaVuSans-42"/>
      <use x="211.638672" xlink:href="#DejaVuSans-59"/>
      <use x="272.722656" xlink:href="#DejaVuSans-4c"/>
      <use x="330.685547" xlink:href="#DejaVuSans-41"/>
     </g>
    </g>
    <g id="line2d_20">
     <path d="M 480.76125 81.069703 
L 528.76125 81.069703 
" style="fill:none;stroke:#ff7f0e;stroke-linecap:square;stroke-width:3;"/>
    </g>
    <g id="line2d_21"/>
    <g id="text_17">
     <!-- SLSQP -->
     <g transform="translate(547.96125 89.469703)scale(0.24 -0.24)">
      <defs>
       <path d="M 3425 4513 
L 3425 3897 
Q 3066 4069 2747 4153 
Q 2428 4238 2131 4238 
Q 1616 4238 1336 4038 
Q 1056 3838 1056 3469 
Q 1056 3159 1242 3001 
Q 1428 2844 1947 2747 
L 2328 2669 
Q 3034 2534 3370 2195 
Q 3706 1856 3706 1288 
Q 3706 609 3251 259 
Q 2797 -91 1919 -91 
Q 1588 -91 1214 -16 
Q 841 59 441 206 
L 441 856 
Q 825 641 1194 531 
Q 1563 422 1919 422 
Q 2459 422 2753 634 
Q 3047 847 3047 1241 
Q 3047 1584 2836 1778 
Q 2625 1972 2144 2069 
L 1759 2144 
Q 1053 2284 737 2584 
Q 422 2884 422 3419 
Q 422 4038 858 4394 
Q 1294 4750 2059 4750 
Q 2388 4750 2728 4690 
Q 3069 4631 3425 4513 
z
" id="DejaVuSans-53" transform="scale(0.015625)"/>
       <path d="M 1259 4147 
L 1259 2394 
L 2053 2394 
Q 2494 2394 2734 2622 
Q 2975 2850 2975 3272 
Q 2975 3691 2734 3919 
Q 2494 4147 2053 4147 
L 1259 4147 
z
M 628 4666 
L 2053 4666 
Q 2838 4666 3239 4311 
Q 3641 3956 3641 3272 
Q 3641 2581 3239 2228 
Q 2838 1875 2053 1875 
L 1259 1875 
L 1259 0 
L 628 0 
L 628 4666 
z
" id="DejaVuSans-50" transform="scale(0.015625)"/>
      </defs>
      <use xlink:href="#DejaVuSans-53"/>
      <use x="63.476562" xlink:href="#DejaVuSans-4c"/>
      <use x="119.189453" xlink:href="#DejaVuSans-53"/>
      <use x="182.666016" xlink:href="#DejaVuSans-51"/>
      <use x="261.376953" xlink:href="#DejaVuSans-50"/>
     </g>
    </g>
    <g id="line2d_22">
     <path d="M 480.76125 116.297203 
L 528.76125 116.297203 
" style="fill:none;stroke:#2ca02c;stroke-linecap:square;stroke-width:3;"/>
    </g>
    <g id="line2d_23"/>
    <g id="text_18">
     <!-- L-BFGS-B -->
     <g transform="translate(547.96125 124.697203)scale(0.24 -0.24)">
      <defs>
       <path d="M 313 2009 
L 1997 2009 
L 1997 1497 
L 313 1497 
L 313 2009 
z
" id="DejaVuSans-2d" transform="scale(0.015625)"/>
       <path d="M 628 4666 
L 3309 4666 
L 3309 4134 
L 1259 4134 
L 1259 2759 
L 3109 2759 
L 3109 2228 
L 1259 2228 
L 1259 0 
L 628 0 
L 628 4666 
z
" id="DejaVuSans-46" transform="scale(0.015625)"/>
       <path d="M 3809 666 
L 3809 1919 
L 2778 1919 
L 2778 2438 
L 4434 2438 
L 4434 434 
Q 4069 175 3628 42 
Q 3188 -91 2688 -91 
Q 1594 -91 976 548 
Q 359 1188 359 2328 
Q 359 3472 976 4111 
Q 1594 4750 2688 4750 
Q 3144 4750 3555 4637 
Q 3966 4525 4313 4306 
L 4313 3634 
Q 3963 3931 3569 4081 
Q 3175 4231 2741 4231 
Q 1884 4231 1454 3753 
Q 1025 3275 1025 2328 
Q 1025 1384 1454 906 
Q 1884 428 2741 428 
Q 3075 428 3337 486 
Q 3600 544 3809 666 
z
" id="DejaVuSans-47" transform="scale(0.015625)"/>
      </defs>
      <use xlink:href="#DejaVuSans-4c"/>
      <use x="53.962891" xlink:href="#DejaVuSans-2d"/>
      <use x="86.421875" xlink:href="#DejaVuSans-42"/>
      <use x="155.025391" xlink:href="#DejaVuSans-46"/>
      <use x="212.544922" xlink:href="#DejaVuSans-47"/>
      <use x="290.035156" xlink:href="#DejaVuSans-53"/>
      <use x="353.511719" xlink:href="#DejaVuSans-2d"/>
      <use x="385.970703" xlink:href="#DejaVuSans-42"/>
     </g>
    </g>
    <g id="line2d_24">
     <path d="M 480.76125 151.524703 
L 528.76125 151.524703 
" style="fill:none;stroke:#000000;stroke-dasharray:7.4,3.2;stroke-dashoffset:0;stroke-width:2;"/>
    </g>
    <g id="line2d_25"/>
    <g id="text_19">
     <!-- HT -->
     <g transform="translate(547.96125 159.924703)scale(0.24 -0.24)">
      <defs>
       <path d="M 628 4666 
L 1259 4666 
L 1259 2753 
L 3553 2753 
L 3553 4666 
L 4184 4666 
L 4184 0 
L 3553 0 
L 3553 2222 
L 1259 2222 
L 1259 0 
L 628 0 
L 628 4666 
z
" id="DejaVuSans-48" transform="scale(0.015625)"/>
       <path d="M -19 4666 
L 3928 4666 
L 3928 4134 
L 2272 4134 
L 2272 0 
L 1638 0 
L 1638 4134 
L -19 4134 
L -19 4666 
z
" id="DejaVuSans-54" transform="scale(0.015625)"/>
      </defs>
      <use xlink:href="#DejaVuSans-48"/>
      <use x="75.195312" xlink:href="#DejaVuSans-54"/>
     </g>
    </g>
   </g>
  </g>
 </g>
 <defs>
  <clipPath id="pd567c92080">
   <rect height="493.339047" width="618.3625" x="60.2975" y="14.405953"/>
  </clipPath>
 </defs>
</svg>
