<?xml version="1.0" encoding="utf-8" standalone="no"?>
<!DOCTYPE svg PUBLIC "-//W3C//DTD SVG 1.1//EN"
  "http://www.w3.org/Graphics/SVG/1.1/DTD/svg11.dtd">
<svg height="576pt" version="1.1" viewBox="0 0 720 576" width="720pt" xmlns="http://www.w3.org/2000/svg" xmlns:xlink="http://www.w3.org/1999/xlink">
 <metadata>
  <rdf:RDF xmlns:cc="http://creativecommons.org/ns#" xmlns:dc="http://purl.org/dc/elements/1.1/" xmlns:rdf="http://www.w3.org/1999/02/22-rdf-syntax-ns#">
   <cc:Work>
    <dc:type rdf:resource="http://purl.org/dc/dcmitype/StillImage"/>
    <dc:date>2021-07-27T16:55:56.698646</dc:date>
    <dc:format>image/svg+xml</dc:format>
    <dc:creator>
     <cc:Agent>
      <dc:title>Matplotlib v3.4.2, https://matplotlib.org/</dc:title>
     </cc:Agent>
    </dc:creator>
   </cc:Work>
  </rdf:RDF>
 </metadata>
 <defs>
  <style type="text/css">*{stroke-linecap:butt;stroke-linejoin:round;}</style>
 </defs>
 <g id="figure_1">
  <g id="patch_1">
   <path d="M 0 576 
L 720 576 
L 720 0 
L 0 0 
z
" style="fill:#ffffff;"/>
  </g>
  <g id="axes_1">
   <g id="patch_2">
    <path d="M 60.2975 507.745 
L 678.66 507.745 
L 678.66 10.8 
L 60.2975 10.8 
z
" style="fill:#ffffff;"/>
   </g>
   <g id="matplotlib.axis_1">
    <g id="xtick_1">
     <g id="line2d_1">
      <defs>
       <path d="M 0 0 
L 0 3.5 
" id="m1aa06f9ebd" style="stroke:#000000;stroke-width:0.8;"/>
      </defs>
      <g>
       <use style="stroke:#000000;stroke-width:0.8;" x="60.2975" xlink:href="#m1aa06f9ebd" y="507.745"/>
      </g>
     </g>
     <g id="text_1">
      <!-- 0 -->
      <g transform="translate(52.6625 532.98125)scale(0.24 -0.24)">
       <defs>
        <path d="M 2034 4250 
Q 1547 4250 1301 3770 
Q 1056 3291 1056 2328 
Q 1056 1369 1301 889 
Q 1547 409 2034 409 
Q 2525 409 2770 889 
Q 3016 1369 3016 2328 
Q 3016 3291 2770 3770 
Q 2525 4250 2034 4250 
z
M 2034 4750 
Q 2819 4750 3233 4129 
Q 3647 3509 3647 2328 
Q 3647 1150 3233 529 
Q 2819 -91 2034 -91 
Q 1250 -91 836 529 
Q 422 1150 422 2328 
Q 422 3509 836 4129 
Q 1250 4750 2034 4750 
z
" id="DejaVuSans-30" transform="scale(0.015625)"/>
       </defs>
       <use xlink:href="#DejaVuSans-30"/>
      </g>
     </g>
    </g>
    <g id="xtick_2">
     <g id="line2d_2">
      <g>
       <use style="stroke:#000000;stroke-width:0.8;" x="183.97" xlink:href="#m1aa06f9ebd" y="507.745"/>
      </g>
     </g>
     <g id="text_2">
      <!-- 200 -->
      <g transform="translate(161.065 532.98125)scale(0.24 -0.24)">
       <defs>
        <path d="M 1228 531 
L 3431 531 
L 3431 0 
L 469 0 
L 469 531 
Q 828 903 1448 1529 
Q 2069 2156 2228 2338 
Q 2531 2678 2651 2914 
Q 2772 3150 2772 3378 
Q 2772 3750 2511 3984 
Q 2250 4219 1831 4219 
Q 1534 4219 1204 4116 
Q 875 4013 500 3803 
L 500 4441 
Q 881 4594 1212 4672 
Q 1544 4750 1819 4750 
Q 2544 4750 2975 4387 
Q 3406 4025 3406 3419 
Q 3406 3131 3298 2873 
Q 3191 2616 2906 2266 
Q 2828 2175 2409 1742 
Q 1991 1309 1228 531 
z
" id="DejaVuSans-32" transform="scale(0.015625)"/>
       </defs>
       <use xlink:href="#DejaVuSans-32"/>
       <use x="63.623047" xlink:href="#DejaVuSans-30"/>
       <use x="127.246094" xlink:href="#DejaVuSans-30"/>
      </g>
     </g>
    </g>
    <g id="xtick_3">
     <g id="line2d_3">
      <g>
       <use style="stroke:#000000;stroke-width:0.8;" x="307.6425" xlink:href="#m1aa06f9ebd" y="507.745"/>
      </g>
     </g>
     <g id="text_3">
      <!-- 400 -->
      <g transform="translate(284.7375 532.98125)scale(0.24 -0.24)">
       <defs>
        <path d="M 2419 4116 
L 825 1625 
L 2419 1625 
L 2419 4116 
z
M 2253 4666 
L 3047 4666 
L 3047 1625 
L 3713 1625 
L 3713 1100 
L 3047 1100 
L 3047 0 
L 2419 0 
L 2419 1100 
L 313 1100 
L 313 1709 
L 2253 4666 
z
" id="DejaVuSans-34" transform="scale(0.015625)"/>
       </defs>
       <use xlink:href="#DejaVuSans-34"/>
       <use x="63.623047" xlink:href="#DejaVuSans-30"/>
       <use x="127.246094" xlink:href="#DejaVuSans-30"/>
      </g>
     </g>
    </g>
    <g id="xtick_4">
     <g id="line2d_4">
      <g>
       <use style="stroke:#000000;stroke-width:0.8;" x="431.315" xlink:href="#m1aa06f9ebd" y="507.745"/>
      </g>
     </g>
     <g id="text_4">
      <!-- 600 -->
      <g transform="translate(408.41 532.98125)scale(0.24 -0.24)">
       <defs>
        <path d="M 2113 2584 
Q 1688 2584 1439 2293 
Q 1191 2003 1191 1497 
Q 1191 994 1439 701 
Q 1688 409 2113 409 
Q 2538 409 2786 701 
Q 3034 994 3034 1497 
Q 3034 2003 2786 2293 
Q 2538 2584 2113 2584 
z
M 3366 4563 
L 3366 3988 
Q 3128 4100 2886 4159 
Q 2644 4219 2406 4219 
Q 1781 4219 1451 3797 
Q 1122 3375 1075 2522 
Q 1259 2794 1537 2939 
Q 1816 3084 2150 3084 
Q 2853 3084 3261 2657 
Q 3669 2231 3669 1497 
Q 3669 778 3244 343 
Q 2819 -91 2113 -91 
Q 1303 -91 875 529 
Q 447 1150 447 2328 
Q 447 3434 972 4092 
Q 1497 4750 2381 4750 
Q 2619 4750 2861 4703 
Q 3103 4656 3366 4563 
z
" id="DejaVuSans-36" transform="scale(0.015625)"/>
       </defs>
       <use xlink:href="#DejaVuSans-36"/>
       <use x="63.623047" xlink:href="#DejaVuSans-30"/>
       <use x="127.246094" xlink:href="#DejaVuSans-30"/>
      </g>
     </g>
    </g>
    <g id="xtick_5">
     <g id="line2d_5">
      <g>
       <use style="stroke:#000000;stroke-width:0.8;" x="554.9875" xlink:href="#m1aa06f9ebd" y="507.745"/>
      </g>
     </g>
     <g id="text_5">
      <!-- 800 -->
      <g transform="translate(532.0825 532.98125)scale(0.24 -0.24)">
       <defs>
        <path d="M 2034 2216 
Q 1584 2216 1326 1975 
Q 1069 1734 1069 1313 
Q 1069 891 1326 650 
Q 1584 409 2034 409 
Q 2484 409 2743 651 
Q 3003 894 3003 1313 
Q 3003 1734 2745 1975 
Q 2488 2216 2034 2216 
z
M 1403 2484 
Q 997 2584 770 2862 
Q 544 3141 544 3541 
Q 544 4100 942 4425 
Q 1341 4750 2034 4750 
Q 2731 4750 3128 4425 
Q 3525 4100 3525 3541 
Q 3525 3141 3298 2862 
Q 3072 2584 2669 2484 
Q 3125 2378 3379 2068 
Q 3634 1759 3634 1313 
Q 3634 634 3220 271 
Q 2806 -91 2034 -91 
Q 1263 -91 848 271 
Q 434 634 434 1313 
Q 434 1759 690 2068 
Q 947 2378 1403 2484 
z
M 1172 3481 
Q 1172 3119 1398 2916 
Q 1625 2713 2034 2713 
Q 2441 2713 2670 2916 
Q 2900 3119 2900 3481 
Q 2900 3844 2670 4047 
Q 2441 4250 2034 4250 
Q 1625 4250 1398 4047 
Q 1172 3844 1172 3481 
z
" id="DejaVuSans-38" transform="scale(0.015625)"/>
       </defs>
       <use xlink:href="#DejaVuSans-38"/>
       <use x="63.623047" xlink:href="#DejaVuSans-30"/>
       <use x="127.246094" xlink:href="#DejaVuSans-30"/>
      </g>
     </g>
    </g>
    <g id="xtick_6">
     <g id="line2d_6">
      <g>
       <use style="stroke:#000000;stroke-width:0.8;" x="678.66" xlink:href="#m1aa06f9ebd" y="507.745"/>
      </g>
     </g>
     <g id="text_6">
      <!-- 1000 -->
      <g transform="translate(648.12 532.98125)scale(0.24 -0.24)">
       <defs>
        <path d="M 794 531 
L 1825 531 
L 1825 4091 
L 703 3866 
L 703 4441 
L 1819 4666 
L 2450 4666 
L 2450 531 
L 3481 531 
L 3481 0 
L 794 0 
L 794 531 
z
" id="DejaVuSans-31" transform="scale(0.015625)"/>
       </defs>
       <use xlink:href="#DejaVuSans-31"/>
       <use x="63.623047" xlink:href="#DejaVuSans-30"/>
       <use x="127.246094" xlink:href="#DejaVuSans-30"/>
       <use x="190.869141" xlink:href="#DejaVuSans-30"/>
      </g>
     </g>
    </g>
    <g id="text_7">
     <!-- iterations -->
     <g transform="translate(312.533125 560.20875)scale(0.24 -0.24)">
      <defs>
       <path d="M 603 3500 
L 1178 3500 
L 1178 0 
L 603 0 
L 603 3500 
z
M 603 4863 
L 1178 4863 
L 1178 4134 
L 603 4134 
L 603 4863 
z
" id="DejaVuSans-69" transform="scale(0.015625)"/>
       <path d="M 1172 4494 
L 1172 3500 
L 2356 3500 
L 2356 3053 
L 1172 3053 
L 1172 1153 
Q 1172 725 1289 603 
Q 1406 481 1766 481 
L 2356 481 
L 2356 0 
L 1766 0 
Q 1100 0 847 248 
Q 594 497 594 1153 
L 594 3053 
L 172 3053 
L 172 3500 
L 594 3500 
L 594 4494 
L 1172 4494 
z
" id="DejaVuSans-74" transform="scale(0.015625)"/>
       <path d="M 3597 1894 
L 3597 1613 
L 953 1613 
Q 991 1019 1311 708 
Q 1631 397 2203 397 
Q 2534 397 2845 478 
Q 3156 559 3463 722 
L 3463 178 
Q 3153 47 2828 -22 
Q 2503 -91 2169 -91 
Q 1331 -91 842 396 
Q 353 884 353 1716 
Q 353 2575 817 3079 
Q 1281 3584 2069 3584 
Q 2775 3584 3186 3129 
Q 3597 2675 3597 1894 
z
M 3022 2063 
Q 3016 2534 2758 2815 
Q 2500 3097 2075 3097 
Q 1594 3097 1305 2825 
Q 1016 2553 972 2059 
L 3022 2063 
z
" id="DejaVuSans-65" transform="scale(0.015625)"/>
       <path d="M 2631 2963 
Q 2534 3019 2420 3045 
Q 2306 3072 2169 3072 
Q 1681 3072 1420 2755 
Q 1159 2438 1159 1844 
L 1159 0 
L 581 0 
L 581 3500 
L 1159 3500 
L 1159 2956 
Q 1341 3275 1631 3429 
Q 1922 3584 2338 3584 
Q 2397 3584 2469 3576 
Q 2541 3569 2628 3553 
L 2631 2963 
z
" id="DejaVuSans-72" transform="scale(0.015625)"/>
       <path d="M 2194 1759 
Q 1497 1759 1228 1600 
Q 959 1441 959 1056 
Q 959 750 1161 570 
Q 1363 391 1709 391 
Q 2188 391 2477 730 
Q 2766 1069 2766 1631 
L 2766 1759 
L 2194 1759 
z
M 3341 1997 
L 3341 0 
L 2766 0 
L 2766 531 
Q 2569 213 2275 61 
Q 1981 -91 1556 -91 
Q 1019 -91 701 211 
Q 384 513 384 1019 
Q 384 1609 779 1909 
Q 1175 2209 1959 2209 
L 2766 2209 
L 2766 2266 
Q 2766 2663 2505 2880 
Q 2244 3097 1772 3097 
Q 1472 3097 1187 3025 
Q 903 2953 641 2809 
L 641 3341 
Q 956 3463 1253 3523 
Q 1550 3584 1831 3584 
Q 2591 3584 2966 3190 
Q 3341 2797 3341 1997 
z
" id="DejaVuSans-61" transform="scale(0.015625)"/>
       <path d="M 1959 3097 
Q 1497 3097 1228 2736 
Q 959 2375 959 1747 
Q 959 1119 1226 758 
Q 1494 397 1959 397 
Q 2419 397 2687 759 
Q 2956 1122 2956 1747 
Q 2956 2369 2687 2733 
Q 2419 3097 1959 3097 
z
M 1959 3584 
Q 2709 3584 3137 3096 
Q 3566 2609 3566 1747 
Q 3566 888 3137 398 
Q 2709 -91 1959 -91 
Q 1206 -91 779 398 
Q 353 888 353 1747 
Q 353 2609 779 3096 
Q 1206 3584 1959 3584 
z
" id="DejaVuSans-6f" transform="scale(0.015625)"/>
       <path d="M 3513 2113 
L 3513 0 
L 2938 0 
L 2938 2094 
Q 2938 2591 2744 2837 
Q 2550 3084 2163 3084 
Q 1697 3084 1428 2787 
Q 1159 2491 1159 1978 
L 1159 0 
L 581 0 
L 581 3500 
L 1159 3500 
L 1159 2956 
Q 1366 3272 1645 3428 
Q 1925 3584 2291 3584 
Q 2894 3584 3203 3211 
Q 3513 2838 3513 2113 
z
" id="DejaVuSans-6e" transform="scale(0.015625)"/>
       <path d="M 2834 3397 
L 2834 2853 
Q 2591 2978 2328 3040 
Q 2066 3103 1784 3103 
Q 1356 3103 1142 2972 
Q 928 2841 928 2578 
Q 928 2378 1081 2264 
Q 1234 2150 1697 2047 
L 1894 2003 
Q 2506 1872 2764 1633 
Q 3022 1394 3022 966 
Q 3022 478 2636 193 
Q 2250 -91 1575 -91 
Q 1294 -91 989 -36 
Q 684 19 347 128 
L 347 722 
Q 666 556 975 473 
Q 1284 391 1588 391 
Q 1994 391 2212 530 
Q 2431 669 2431 922 
Q 2431 1156 2273 1281 
Q 2116 1406 1581 1522 
L 1381 1569 
Q 847 1681 609 1914 
Q 372 2147 372 2553 
Q 372 3047 722 3315 
Q 1072 3584 1716 3584 
Q 2034 3584 2315 3537 
Q 2597 3491 2834 3397 
z
" id="DejaVuSans-73" transform="scale(0.015625)"/>
      </defs>
      <use xlink:href="#DejaVuSans-69"/>
      <use x="27.783203" xlink:href="#DejaVuSans-74"/>
      <use x="66.992188" xlink:href="#DejaVuSans-65"/>
      <use x="128.515625" xlink:href="#DejaVuSans-72"/>
      <use x="169.628906" xlink:href="#DejaVuSans-61"/>
      <use x="230.908203" xlink:href="#DejaVuSans-74"/>
      <use x="270.117188" xlink:href="#DejaVuSans-69"/>
      <use x="297.900391" xlink:href="#DejaVuSans-6f"/>
      <use x="359.082031" xlink:href="#DejaVuSans-6e"/>
      <use x="422.460938" xlink:href="#DejaVuSans-73"/>
     </g>
    </g>
   </g>
   <g id="matplotlib.axis_2">
    <g id="ytick_1">
     <g id="line2d_7">
      <defs>
       <path d="M 0 0 
L -3.5 0 
" id="me1a0e24acd" style="stroke:#000000;stroke-width:0.8;"/>
      </defs>
      <g>
       <use style="stroke:#000000;stroke-width:0.8;" x="60.2975" xlink:href="#me1a0e24acd" y="489.093976"/>
      </g>
     </g>
     <g id="text_8">
      <!-- 0 -->
      <g transform="translate(38.0275 498.212101)scale(0.24 -0.24)">
       <use xlink:href="#DejaVuSans-30"/>
      </g>
     </g>
    </g>
    <g id="ytick_2">
     <g id="line2d_8">
      <g>
       <use style="stroke:#000000;stroke-width:0.8;" x="60.2975" xlink:href="#me1a0e24acd" y="407.574624"/>
      </g>
     </g>
     <g id="text_9">
      <!-- 1 -->
      <g transform="translate(38.0275 416.692749)scale(0.24 -0.24)">
       <use xlink:href="#DejaVuSans-31"/>
      </g>
     </g>
    </g>
    <g id="ytick_3">
     <g id="line2d_9">
      <g>
       <use style="stroke:#000000;stroke-width:0.8;" x="60.2975" xlink:href="#me1a0e24acd" y="326.055272"/>
      </g>
     </g>
     <g id="text_10">
      <!-- 2 -->
      <g transform="translate(38.0275 335.173397)scale(0.24 -0.24)">
       <use xlink:href="#DejaVuSans-32"/>
      </g>
     </g>
    </g>
    <g id="ytick_4">
     <g id="line2d_10">
      <g>
       <use style="stroke:#000000;stroke-width:0.8;" x="60.2975" xlink:href="#me1a0e24acd" y="244.53592"/>
      </g>
     </g>
     <g id="text_11">
      <!-- 3 -->
      <g transform="translate(38.0275 253.654045)scale(0.24 -0.24)">
       <defs>
        <path d="M 2597 2516 
Q 3050 2419 3304 2112 
Q 3559 1806 3559 1356 
Q 3559 666 3084 287 
Q 2609 -91 1734 -91 
Q 1441 -91 1130 -33 
Q 819 25 488 141 
L 488 750 
Q 750 597 1062 519 
Q 1375 441 1716 441 
Q 2309 441 2620 675 
Q 2931 909 2931 1356 
Q 2931 1769 2642 2001 
Q 2353 2234 1838 2234 
L 1294 2234 
L 1294 2753 
L 1863 2753 
Q 2328 2753 2575 2939 
Q 2822 3125 2822 3475 
Q 2822 3834 2567 4026 
Q 2313 4219 1838 4219 
Q 1578 4219 1281 4162 
Q 984 4106 628 3988 
L 628 4550 
Q 988 4650 1302 4700 
Q 1616 4750 1894 4750 
Q 2613 4750 3031 4423 
Q 3450 4097 3450 3541 
Q 3450 3153 3228 2886 
Q 3006 2619 2597 2516 
z
" id="DejaVuSans-33" transform="scale(0.015625)"/>
       </defs>
       <use xlink:href="#DejaVuSans-33"/>
      </g>
     </g>
    </g>
    <g id="ytick_5">
     <g id="line2d_11">
      <g>
       <use style="stroke:#000000;stroke-width:0.8;" x="60.2975" xlink:href="#me1a0e24acd" y="163.016568"/>
      </g>
     </g>
     <g id="text_12">
      <!-- 4 -->
      <g transform="translate(38.0275 172.134693)scale(0.24 -0.24)">
       <use xlink:href="#DejaVuSans-34"/>
      </g>
     </g>
    </g>
    <g id="ytick_6">
     <g id="line2d_12">
      <g>
       <use style="stroke:#000000;stroke-width:0.8;" x="60.2975" xlink:href="#me1a0e24acd" y="81.497216"/>
      </g>
     </g>
     <g id="text_13">
      <!-- 5 -->
      <g transform="translate(38.0275 90.615341)scale(0.24 -0.24)">
       <defs>
        <path d="M 691 4666 
L 3169 4666 
L 3169 4134 
L 1269 4134 
L 1269 2991 
Q 1406 3038 1543 3061 
Q 1681 3084 1819 3084 
Q 2600 3084 3056 2656 
Q 3513 2228 3513 1497 
Q 3513 744 3044 326 
Q 2575 -91 1722 -91 
Q 1428 -91 1123 -41 
Q 819 9 494 109 
L 494 744 
Q 775 591 1075 516 
Q 1375 441 1709 441 
Q 2250 441 2565 725 
Q 2881 1009 2881 1497 
Q 2881 1984 2565 2268 
Q 2250 2553 1709 2553 
Q 1456 2553 1204 2497 
Q 953 2441 691 2322 
L 691 4666 
z
" id="DejaVuSans-35" transform="scale(0.015625)"/>
       </defs>
       <use xlink:href="#DejaVuSans-35"/>
      </g>
     </g>
    </g>
    <g id="text_14">
     <!-- VQE energy -->
     <g transform="translate(29.03625 330.14)rotate(-90)scale(0.24 -0.24)">
      <defs>
       <path d="M 1831 0 
L 50 4666 
L 709 4666 
L 2188 738 
L 3669 4666 
L 4325 4666 
L 2547 0 
L 1831 0 
z
" id="DejaVuSans-56" transform="scale(0.015625)"/>
       <path d="M 2522 4238 
Q 1834 4238 1429 3725 
Q 1025 3213 1025 2328 
Q 1025 1447 1429 934 
Q 1834 422 2522 422 
Q 3209 422 3611 934 
Q 4013 1447 4013 2328 
Q 4013 3213 3611 3725 
Q 3209 4238 2522 4238 
z
M 3406 84 
L 4238 -825 
L 3475 -825 
L 2784 -78 
Q 2681 -84 2626 -87 
Q 2572 -91 2522 -91 
Q 1538 -91 948 567 
Q 359 1225 359 2328 
Q 359 3434 948 4092 
Q 1538 4750 2522 4750 
Q 3503 4750 4090 4092 
Q 4678 3434 4678 2328 
Q 4678 1516 4351 937 
Q 4025 359 3406 84 
z
" id="DejaVuSans-51" transform="scale(0.015625)"/>
       <path d="M 628 4666 
L 3578 4666 
L 3578 4134 
L 1259 4134 
L 1259 2753 
L 3481 2753 
L 3481 2222 
L 1259 2222 
L 1259 531 
L 3634 531 
L 3634 0 
L 628 0 
L 628 4666 
z
" id="DejaVuSans-45" transform="scale(0.015625)"/>
       <path id="DejaVuSans-20" transform="scale(0.015625)"/>
       <path d="M 2906 1791 
Q 2906 2416 2648 2759 
Q 2391 3103 1925 3103 
Q 1463 3103 1205 2759 
Q 947 2416 947 1791 
Q 947 1169 1205 825 
Q 1463 481 1925 481 
Q 2391 481 2648 825 
Q 2906 1169 2906 1791 
z
M 3481 434 
Q 3481 -459 3084 -895 
Q 2688 -1331 1869 -1331 
Q 1566 -1331 1297 -1286 
Q 1028 -1241 775 -1147 
L 775 -588 
Q 1028 -725 1275 -790 
Q 1522 -856 1778 -856 
Q 2344 -856 2625 -561 
Q 2906 -266 2906 331 
L 2906 616 
Q 2728 306 2450 153 
Q 2172 0 1784 0 
Q 1141 0 747 490 
Q 353 981 353 1791 
Q 353 2603 747 3093 
Q 1141 3584 1784 3584 
Q 2172 3584 2450 3431 
Q 2728 3278 2906 2969 
L 2906 3500 
L 3481 3500 
L 3481 434 
z
" id="DejaVuSans-67" transform="scale(0.015625)"/>
       <path d="M 2059 -325 
Q 1816 -950 1584 -1140 
Q 1353 -1331 966 -1331 
L 506 -1331 
L 506 -850 
L 844 -850 
Q 1081 -850 1212 -737 
Q 1344 -625 1503 -206 
L 1606 56 
L 191 3500 
L 800 3500 
L 1894 763 
L 2988 3500 
L 3597 3500 
L 2059 -325 
z
" id="DejaVuSans-79" transform="scale(0.015625)"/>
      </defs>
      <use xlink:href="#DejaVuSans-56"/>
      <use x="68.408203" xlink:href="#DejaVuSans-51"/>
      <use x="147.119141" xlink:href="#DejaVuSans-45"/>
      <use x="210.302734" xlink:href="#DejaVuSans-20"/>
      <use x="242.089844" xlink:href="#DejaVuSans-65"/>
      <use x="303.613281" xlink:href="#DejaVuSans-6e"/>
      <use x="366.992188" xlink:href="#DejaVuSans-65"/>
      <use x="428.515625" xlink:href="#DejaVuSans-72"/>
      <use x="467.878906" xlink:href="#DejaVuSans-67"/>
      <use x="531.355469" xlink:href="#DejaVuSans-79"/>
     </g>
    </g>
   </g>
   <g id="line2d_13">
    <path clip-path="url(#p338170a61a)" d="M 60.915862 100.657708 
L 61.534225 51.898338 
L 62.152587 33.388409 
L 62.77095 79.376141 
L 63.389312 95.644849 
L 64.007675 90.74817 
L 64.626037 80.004588 
L 65.2444 86.13525 
L 65.862763 89.178816 
L 66.481125 117.539545 
L 67.099487 115.76467 
L 67.71785 116.969078 
L 68.336213 109.619884 
L 68.954575 110.987032 
L 69.572937 118.374062 
L 70.1913 107.21678 
L 70.809663 113.145544 
L 71.428025 113.476572 
L 72.046387 126.861592 
L 72.66475 73.681963 
L 73.283113 97.364392 
L 73.901475 127.42572 
L 74.519837 108.62967 
L 75.1382 130.503535 
L 75.756563 104.665521 
L 76.374925 129.764706 
L 76.993287 106.776314 
L 77.61165 118.60695 
L 78.230012 127.088779 
L 78.848375 116.232413 
L 79.466737 122.794254 
L 80.0851 120.979638 
L 80.703463 129.822137 
L 81.321825 129.376895 
L 81.940187 117.153241 
L 82.55855 130.58405 
L 83.176912 97.162713 
L 83.795275 130.08532 
L 84.413637 107.255875 
L 85.032 109.431687 
L 85.650362 141.770125 
L 86.268725 129.716933 
L 86.887087 148.524694 
L 87.50545 126.33405 
L 88.123812 138.059302 
L 88.742175 115.657743 
L 89.360537 148.974318 
L 89.9789 149.258963 
L 90.597262 135.756078 
L 91.215625 137.414258 
L 91.833987 145.612963 
L 92.45235 147.314439 
L 93.689075 133.792227 
L 94.307437 128.635542 
L 94.9258 122.055833 
L 95.544162 139.193966 
L 96.162525 142.913149 
L 96.780887 132.506186 
L 97.39925 131.437526 
L 98.017612 143.442525 
L 98.635975 143.330101 
L 99.254337 146.000888 
L 99.8727 140.688204 
L 100.491062 137.838554 
L 101.109425 138.510328 
L 101.727787 148.652395 
L 102.34615 143.874494 
L 102.964512 147.487162 
L 103.582875 145.005018 
L 104.201237 150.792977 
L 104.8196 147.604433 
L 105.437962 149.830236 
L 106.056325 210.517471 
L 106.674687 172.003226 
L 107.29305 205.238543 
L 107.911412 182.9326 
L 108.529775 201.466389 
L 109.148137 181.707397 
L 109.7665 206.145905 
L 110.384862 209.661864 
L 111.003225 207.267184 
L 111.621587 197.803773 
L 112.23995 206.805231 
L 112.858312 214.078664 
L 113.476675 213.918445 
L 114.095037 209.982056 
L 114.7134 214.171761 
L 115.331762 209.220359 
L 115.950125 209.044504 
L 116.568487 203.658627 
L 117.18685 212.655269 
L 117.805212 163.857939 
L 118.423575 209.390889 
L 119.041937 210.291611 
L 119.6603 201.026868 
L 120.278662 210.004182 
L 120.897025 214.436165 
L 121.515387 199.423364 
L 122.13375 216.754826 
L 122.752112 210.045647 
L 123.370475 217.277724 
L 123.988837 202.446438 
L 124.6072 216.948379 
L 125.843925 227.15855 
L 126.462287 216.408557 
L 127.08065 219.297427 
L 127.699012 189.954802 
L 128.317375 224.518432 
L 128.935737 234.605788 
L 129.5541 217.093992 
L 130.172462 237.120858 
L 130.790825 235.995095 
L 131.409187 202.350972 
L 132.02755 238.433472 
L 132.645912 233.30439 
L 133.264275 242.134043 
L 133.882637 227.954992 
L 134.501 241.374344 
L 135.119362 205.044345 
L 135.737725 239.909071 
L 136.356087 237.201076 
L 136.97445 232.990829 
L 137.592812 236.726847 
L 138.211175 242.534691 
L 138.829537 235.820323 
L 139.4479 239.40254 
L 140.066262 236.825323 
L 140.684625 244.502579 
L 141.302987 224.960855 
L 141.92135 245.070297 
L 142.539712 240.655417 
L 143.158075 245.414724 
L 143.776437 246.045545 
L 144.3948 244.365665 
L 145.013162 249.926567 
L 145.631525 245.448252 
L 146.249887 248.173251 
L 147.486612 249.105897 
L 148.104975 250.384 
L 148.723337 246.295519 
L 149.3417 250.185045 
L 149.960062 250.962443 
L 150.578425 253.930091 
L 151.196787 199.497508 
L 151.81515 255.127323 
L 152.433512 215.379219 
L 153.051875 253.727278 
L 153.670237 240.371837 
L 154.2886 240.557338 
L 154.906962 229.386177 
L 155.525325 255.883497 
L 156.143687 247.670027 
L 156.76205 254.790899 
L 157.380412 247.901019 
L 157.998775 257.39818 
L 158.617137 258.691691 
L 159.2355 258.534879 
L 159.853862 227.581735 
L 160.472225 255.184403 
L 161.090587 226.22529 
L 161.70895 249.154266 
L 162.327312 244.027008 
L 162.945675 259.014973 
L 163.564037 252.344342 
L 164.1824 264.314341 
L 164.800762 253.478153 
L 165.419125 252.483838 
L 166.037487 259.19924 
L 166.65585 252.348685 
L 167.274212 238.140361 
L 167.892575 264.63891 
L 168.510937 255.938538 
L 169.1293 254.857543 
L 169.747662 262.049846 
L 170.366025 250.575345 
L 170.984387 231.879299 
L 171.60275 261.719502 
L 172.221112 259.514469 
L 172.839475 260.03 
L 173.457837 260.351747 
L 174.0762 263.698512 
L 174.694562 224.960439 
L 175.312925 259.528475 
L 175.931287 234.961743 
L 176.54965 259.216317 
L 177.168012 238.315035 
L 177.786375 256.210547 
L 178.404737 270.767126 
L 179.0231 269.50637 
L 179.641462 277.088968 
L 180.878187 251.106138 
L 181.49655 248.932851 
L 182.114912 254.641234 
L 182.733275 266.815123 
L 183.351637 257.951687 
L 183.97 269.18333 
L 184.588362 275.271707 
L 185.206725 277.556562 
L 185.825087 266.563803 
L 186.44345 275.101616 
L 187.061812 258.209051 
L 187.680175 268.993914 
L 188.298537 261.493573 
L 188.9169 272.876502 
L 189.535262 276.111986 
L 190.153625 269.450548 
L 190.771987 281.543714 
L 191.39035 277.815428 
L 192.008712 284.407172 
L 192.627075 279.542062 
L 193.245437 262.638868 
L 193.8638 285.853093 
L 194.482162 243.972832 
L 195.100525 283.702885 
L 195.718887 260.287237 
L 196.33725 284.595586 
L 196.955612 255.161431 
L 197.573975 285.366069 
L 198.192337 267.400222 
L 198.8107 285.815684 
L 199.429062 280.949082 
L 200.047425 263.05275 
L 200.665787 274.636191 
L 201.28415 275.961878 
L 201.902512 268.679187 
L 202.520875 283.609016 
L 203.139237 242.574143 
L 203.7576 285.266276 
L 204.375962 288.68943 
L 204.994325 287.87231 
L 205.612687 282.771278 
L 206.23105 288.818802 
L 206.849412 258.646204 
L 207.467775 281.966351 
L 208.086137 282.231074 
L 208.7045 280.022909 
L 209.322862 267.822091 
L 209.941225 279.952597 
L 210.559587 256.014426 
L 211.17795 284.04918 
L 211.796312 273.208315 
L 212.414675 288.740193 
L 213.033037 276.409745 
L 213.6514 290.00539 
L 214.269762 279.474155 
L 214.888125 292.388333 
L 215.506487 288.246731 
L 216.12485 290.870036 
L 216.743212 256.898424 
L 217.361575 289.401967 
L 217.979937 263.700615 
L 218.5983 286.590015 
L 219.216662 271.748272 
L 219.835025 292.041701 
L 220.453387 271.619039 
L 221.07175 291.514208 
L 222.308475 277.788964 
L 222.926837 277.688043 
L 223.5452 291.932698 
L 224.163562 260.364708 
L 224.781925 283.291278 
L 225.400287 268.561892 
L 226.01865 288.545496 
L 226.637012 269.170883 
L 227.255375 284.859797 
L 227.873737 289.677429 
L 228.4921 288.216098 
L 229.110462 283.641281 
L 229.728825 289.56792 
L 230.347187 258.484877 
L 230.96555 291.435148 
L 231.583912 266.201524 
L 232.202275 282.566101 
L 232.820637 282.457797 
L 233.439 280.998735 
L 234.057362 269.373509 
L 234.675725 286.460819 
L 235.294087 277.694732 
L 235.91245 290.406761 
L 236.530812 291.529642 
L 237.149175 291.900681 
L 237.767537 291.421518 
L 238.3859 289.811362 
L 239.004262 291.043082 
L 239.622625 284.638679 
L 240.240987 285.317095 
L 240.85935 288.532554 
L 241.477712 290.154179 
L 242.096075 290.763386 
L 242.714437 294.162383 
L 243.3328 295.713697 
L 243.951162 294.879587 
L 244.569525 292.705945 
L 245.187887 297.291125 
L 245.80625 283.024323 
L 246.424612 296.55366 
L 247.042975 294.353349 
L 247.661337 297.308837 
L 248.2797 295.588732 
L 248.898062 294.682425 
L 249.516425 292.751595 
L 250.75315 297.499039 
L 251.371512 294.269454 
L 251.989875 296.928243 
L 252.608237 301.28575 
L 253.2266 300.896971 
L 253.844962 298.380886 
L 254.463325 312.346676 
L 255.081687 311.736421 
L 255.70005 307.398775 
L 256.318412 304.705385 
L 256.936775 300.586933 
L 257.555137 308.488426 
L 258.1735 305.735732 
L 258.791862 310.372436 
L 259.410225 307.619228 
L 260.028587 306.652788 
L 260.64695 311.852164 
L 261.265312 312.573958 
L 261.883675 307.403633 
L 263.1204 312.9163 
L 263.738762 311.645011 
L 264.357125 314.349509 
L 264.975487 313.885551 
L 265.59385 311.510712 
L 266.212212 314.105214 
L 266.830575 309.601079 
L 267.448937 313.852416 
L 268.0673 311.972568 
L 268.685662 314.042576 
L 269.304025 313.076096 
L 269.922387 313.446445 
L 270.54075 310.93418 
L 271.159112 309.946177 
L 271.777475 310.675273 
L 272.395837 317.530258 
L 273.0142 315.732831 
L 273.632562 317.555706 
L 274.250925 315.271108 
L 274.869287 317.340838 
L 275.48765 315.101929 
L 276.106012 317.42758 
L 276.724375 324.783699 
L 277.342737 326.451303 
L 277.9611 324.583227 
L 278.579462 325.551767 
L 279.197825 326.248568 
L 279.816187 323.314962 
L 280.43455 325.002239 
L 281.052912 322.015206 
L 281.671275 324.576358 
L 282.289637 326.130155 
L 282.908 324.556639 
L 283.526362 323.411756 
L 284.144725 327.463123 
L 284.763087 333.463644 
L 285.38145 316.795044 
L 285.999812 333.576963 
L 286.618175 336.895355 
L 287.236537 337.213304 
L 287.8549 337.74795 
L 288.473262 334.505861 
L 289.091625 337.531926 
L 289.709987 335.14648 
L 290.32835 328.886297 
L 290.946712 333.219998 
L 291.565075 321.859246 
L 292.183437 333.432819 
L 292.8018 338.269839 
L 293.420162 333.337035 
L 294.038525 339.947372 
L 294.656887 340.632835 
L 295.27525 336.208397 
L 295.893612 333.667242 
L 296.511975 335.623248 
L 297.130337 338.013912 
L 297.7487 324.408524 
L 298.367062 332.371363 
L 298.985425 343.496904 
L 299.603787 349.191883 
L 300.22215 346.521509 
L 300.840512 347.803456 
L 301.458875 353.714665 
L 302.077237 352.780303 
L 302.6956 355.622253 
L 303.313962 359.51541 
L 303.932325 361.227229 
L 304.550687 360.386847 
L 305.16905 354.602994 
L 305.787412 360.347802 
L 306.405775 346.395666 
L 307.024137 355.911703 
L 307.6425 353.194564 
L 308.260862 357.983875 
L 308.879225 350.505623 
L 309.497587 363.686909 
L 310.11595 361.803258 
L 310.734312 361.965539 
L 311.352675 359.517377 
L 311.971037 363.468912 
L 312.5894 362.089431 
L 313.207762 360.223362 
L 313.826125 360.929278 
L 314.444487 364.625737 
L 315.06285 350.946941 
L 315.681212 365.759571 
L 316.299575 370.781054 
L 316.917937 370.150632 
L 317.5363 366.436082 
L 318.154662 372.163144 
L 318.773025 369.279974 
L 319.391387 369.91738 
L 320.00975 361.203273 
L 320.628112 373.743911 
L 321.246475 367.367577 
L 321.864837 371.499022 
L 322.4832 354.378018 
L 323.101562 373.188281 
L 323.719925 377.2049 
L 324.338287 377.638794 
L 324.95665 367.478358 
L 326.193375 378.200104 
L 326.811737 377.084263 
L 327.4301 378.12824 
L 328.666825 375.924899 
L 329.285187 377.586265 
L 329.90355 364.597506 
L 330.521912 379.987026 
L 331.140275 372.951379 
L 331.758637 371.301064 
L 332.377 373.350759 
L 332.995362 380.400136 
L 333.613725 371.530831 
L 334.232087 379.311933 
L 334.85045 379.858244 
L 335.468812 381.25241 
L 336.087175 384.277398 
L 336.705537 388.543293 
L 337.3239 376.623448 
L 337.942262 389.030747 
L 338.560625 378.68765 
L 339.178987 388.822685 
L 339.79735 385.475361 
L 340.415712 387.104897 
L 341.034075 389.313404 
L 341.652437 388.178948 
L 342.2708 381.123821 
L 342.889162 385.428638 
L 343.507525 378.980528 
L 344.125887 391.613843 
L 344.74425 398.176338 
L 345.362612 388.541752 
L 345.980975 386.226012 
L 346.599337 398.436192 
L 347.2177 398.863123 
L 347.836062 389.078669 
L 348.454425 387.383465 
L 349.072787 393.260067 
L 349.69115 386.033226 
L 350.309512 399.680057 
L 350.927875 401.628311 
L 351.546237 397.813983 
L 352.1646 402.772218 
L 352.782962 402.032374 
L 353.401325 392.88178 
L 354.019687 404.191565 
L 354.63805 398.271203 
L 355.256412 405.131462 
L 355.874775 397.243187 
L 356.493137 402.98976 
L 357.1115 394.811964 
L 357.729862 401.937042 
L 358.348225 396.388552 
L 358.966587 402.552111 
L 359.58495 403.147102 
L 360.203312 405.361301 
L 360.821675 402.243365 
L 361.440037 403.382783 
L 362.0584 389.041969 
L 362.676762 403.786141 
L 363.295125 396.278568 
L 363.913487 403.795968 
L 364.53185 400.092882 
L 365.150212 403.410738 
L 365.768575 397.413004 
L 366.386937 405.299151 
L 367.0053 399.857499 
L 367.623662 404.808607 
L 368.242025 389.003384 
L 368.860387 401.408743 
L 369.47875 399.699033 
L 370.097112 405.405553 
L 370.715475 391.578145 
L 371.333837 405.375938 
L 371.9522 399.870066 
L 372.570562 399.2012 
L 373.188925 399.824871 
L 373.807287 401.42852 
L 374.42565 406.852001 
L 375.044012 404.298827 
L 375.662375 394.456383 
L 376.280737 406.64571 
L 376.8991 397.928449 
L 377.517462 405.591933 
L 378.135825 400.502078 
L 378.754187 407.428042 
L 379.37255 400.859758 
L 379.990912 406.930035 
L 380.609275 405.119186 
L 381.227637 407.512203 
L 381.846 405.223331 
L 382.464362 404.256822 
L 383.082725 400.741761 
L 383.701087 409.785625 
L 384.31945 403.295543 
L 384.937812 408.797051 
L 385.556175 404.93734 
L 386.174537 411.502151 
L 386.7929 408.878996 
L 387.411262 409.865624 
L 388.029625 404.282181 
L 388.647987 406.71596 
L 389.26635 403.396114 
L 389.884712 407.756317 
L 390.503075 402.576367 
L 391.121437 408.682708 
L 391.7398 401.366389 
L 392.358162 410.657718 
L 392.976525 399.308546 
L 393.594887 407.08394 
L 394.21325 403.215599 
L 394.831612 410.734886 
L 395.449975 401.302919 
L 396.068337 404.829484 
L 396.6867 402.684721 
L 397.305062 409.274136 
L 397.923425 408.761824 
L 398.541787 410.561529 
L 399.16015 403.81803 
L 399.778512 410.16099 
L 400.396875 403.607669 
L 401.015237 407.963595 
L 401.6336 404.090274 
L 402.251962 407.695499 
L 402.870325 403.143369 
L 403.488687 410.321349 
L 404.10705 403.704996 
L 404.725412 407.464779 
L 405.343775 411.911138 
L 405.962137 410.66055 
L 406.5805 412.690975 
L 407.198862 409.439812 
L 407.817225 412.844135 
L 408.435587 412.981403 
L 409.672312 410.439868 
L 410.290675 413.168845 
L 410.909037 411.724272 
L 411.5274 413.804912 
L 412.145762 410.722404 
L 412.764125 414.264083 
L 413.382487 414.554442 
L 414.00085 414.372136 
L 414.619212 413.86953 
L 415.237575 413.929397 
L 415.855937 409.763499 
L 416.4743 413.671777 
L 417.092662 412.196148 
L 417.711025 413.411241 
L 418.329387 414.209374 
L 418.94775 414.708011 
L 419.566112 413.666761 
L 420.184475 413.98904 
L 420.802837 411.681421 
L 421.4212 414.455735 
L 422.039562 414.985805 
L 422.657925 413.646423 
L 423.276287 415.418152 
L 423.89465 415.779661 
L 424.513012 413.615295 
L 425.131375 414.588135 
L 425.749737 415.251969 
L 426.3681 414.736238 
L 426.986462 414.668125 
L 427.604825 416.811717 
L 428.223187 416.969794 
L 428.84155 416.98662 
L 429.459912 415.709672 
L 430.078275 416.739191 
L 430.696637 414.56401 
L 431.315 416.520766 
L 431.933362 416.918815 
L 432.551725 415.622016 
L 433.78845 416.416552 
L 434.406812 414.484242 
L 435.025175 418.155069 
L 435.643537 415.780454 
L 436.2619 416.162407 
L 437.498625 418.054194 
L 438.116987 415.816893 
L 438.73535 418.761592 
L 439.353712 419.723542 
L 439.972075 419.702082 
L 440.590437 417.886894 
L 441.2088 418.761147 
L 441.827162 416.924145 
L 442.445525 420.095447 
L 443.063887 417.345852 
L 443.68225 420.208204 
L 444.300612 417.568088 
L 444.918975 420.001961 
L 445.537337 419.229761 
L 446.1557 419.371384 
L 446.774062 418.966535 
L 447.392425 419.367608 
L 448.010787 418.823688 
L 448.62915 419.935796 
L 449.247512 419.42848 
L 449.865875 419.697492 
L 450.484237 419.781432 
L 451.1026 419.587154 
L 451.720962 417.000396 
L 452.339325 419.545523 
L 452.957687 419.254437 
L 453.57605 419.965668 
L 454.194412 418.813683 
L 454.812775 420.566978 
L 455.431137 420.127991 
L 456.0495 420.058606 
L 456.667862 419.230555 
L 457.286225 420.314701 
L 457.904587 417.119393 
L 458.52295 420.411816 
L 459.141312 417.210337 
L 459.759675 419.814397 
L 460.378037 419.65898 
L 460.9964 420.501169 
L 461.614762 419.577763 
L 462.233125 419.970973 
L 462.851487 419.566355 
L 463.46985 421.030094 
L 464.088212 418.225761 
L 464.706575 421.569322 
L 465.324937 418.809156 
L 465.9433 421.638968 
L 466.561662 420.864628 
L 467.180025 421.763327 
L 467.798387 420.001589 
L 468.41675 421.429544 
L 469.035112 421.465739 
L 469.653475 421.216968 
L 470.271837 418.994708 
L 470.8902 420.768098 
L 471.508562 419.978852 
L 472.126925 421.463651 
L 472.745287 421.303285 
L 473.36365 420.003561 
L 473.982012 419.830574 
L 474.600375 421.539608 
L 475.218737 421.524647 
L 475.8371 421.037844 
L 476.455462 421.325438 
L 477.073825 421.950428 
L 477.692187 420.420066 
L 478.31055 420.696829 
L 478.928912 419.190566 
L 479.547275 421.856503 
L 480.165637 420.670311 
L 480.784 420.884066 
L 481.402362 419.780871 
L 482.020725 421.836588 
L 482.639087 420.905638 
L 483.25745 420.885287 
L 483.875812 422.096935 
L 484.494175 422.035832 
L 485.112537 422.16458 
L 485.7309 422.13478 
L 486.349262 421.750874 
L 486.967625 421.665515 
L 487.585987 422.228878 
L 488.20435 422.046618 
L 488.822712 422.274524 
L 489.441075 421.367463 
L 490.059437 422.079209 
L 490.6778 421.638442 
L 491.296162 422.421954 
L 491.914525 422.325273 
L 492.532887 422.624219 
L 493.15125 421.698574 
L 493.769612 422.73432 
L 494.387975 422.037795 
L 495.006337 422.47464 
L 495.6247 422.370353 
L 496.243062 422.430842 
L 496.861425 422.809668 
L 497.479787 422.610498 
L 498.09815 422.873091 
L 498.716512 422.570058 
L 499.334875 422.803473 
L 499.953237 422.569487 
L 500.5716 422.910892 
L 501.808325 422.352151 
L 502.426687 422.655419 
L 503.04505 422.492229 
L 503.663412 422.980889 
L 504.281775 422.585168 
L 504.900137 422.528106 
L 506.136862 422.872385 
L 506.755225 422.717522 
L 508.610312 422.767515 
L 509.228675 422.604212 
L 509.847037 422.983843 
L 510.4654 422.595044 
L 511.083762 422.947514 
L 512.320487 423.0348 
L 512.93885 423.109241 
L 513.557212 422.89816 
L 514.175575 422.14822 
L 514.793937 423.099817 
L 515.4123 422.477266 
L 516.030662 423.470397 
L 516.649025 422.742298 
L 517.267387 423.737041 
L 518.504112 423.617644 
L 519.122475 423.842406 
L 519.740837 423.775309 
L 520.977562 424.046518 
L 521.595925 423.664932 
L 522.214287 424.020209 
L 522.83265 423.832358 
L 523.451012 424.154497 
L 524.069375 423.69772 
L 527.161187 423.926273 
L 527.77955 423.600051 
L 528.397912 424.142477 
L 529.634637 423.818082 
L 530.871362 424.04823 
L 531.489725 424.023001 
L 532.108087 424.652021 
L 532.72645 424.561346 
L 533.344812 424.68445 
L 533.963175 424.196611 
L 534.581537 424.189925 
L 535.1999 424.781894 
L 535.818262 425.150081 
L 537.67335 424.636176 
L 538.291712 425.041551 
L 538.910075 424.463475 
L 539.528437 424.99926 
L 540.1468 424.771316 
L 541.383525 425.452514 
L 542.001887 425.403489 
L 542.62025 424.915353 
L 543.238612 425.195506 
L 543.856975 425.256021 
L 544.475337 425.503804 
L 545.0937 425.425685 
L 545.712062 425.225036 
L 546.330425 425.731454 
L 546.948787 425.406581 
L 547.56715 425.761031 
L 548.185512 425.686385 
L 548.803875 424.936876 
L 549.422237 425.495972 
L 550.0406 425.567283 
L 550.658962 425.422096 
L 551.277325 425.520678 
L 551.895687 425.192107 
L 552.51405 425.481881 
L 553.132412 425.632169 
L 553.750775 425.220781 
L 554.369137 425.747556 
L 554.9875 424.886391 
L 555.605862 425.868348 
L 556.224225 426.036067 
L 556.842587 425.799361 
L 557.46095 426.415881 
L 558.079312 426.038845 
L 558.697675 426.756686 
L 559.316037 426.683832 
L 559.9344 426.489102 
L 560.552762 426.46596 
L 561.171125 426.062569 
L 561.789487 426.15482 
L 562.40785 426.394931 
L 563.026212 426.294023 
L 563.644575 426.804497 
L 564.8813 426.389391 
L 565.499662 426.70546 
L 566.118025 426.191816 
L 567.35475 426.984827 
L 567.973112 427.14224 
L 568.591475 427.693562 
L 569.209837 427.584571 
L 569.8282 427.827809 
L 570.446562 427.758067 
L 571.064925 428.421566 
L 571.683287 428.35899 
L 572.30165 427.806767 
L 572.920012 428.245082 
L 573.538375 427.511385 
L 574.156737 428.283182 
L 574.7751 428.555341 
L 575.393462 428.499886 
L 576.011825 428.207604 
L 576.630187 428.454543 
L 577.24855 427.78505 
L 577.866912 428.614616 
L 578.485275 427.937653 
L 579.103637 428.499011 
L 579.722 428.060425 
L 580.340362 428.557526 
L 580.958725 428.527764 
L 581.577087 428.673726 
L 582.19545 428.049993 
L 582.813812 428.545375 
L 583.432175 427.67393 
L 584.050537 428.686587 
L 584.6689 428.66661 
L 585.287262 428.878872 
L 585.905625 428.410233 
L 586.523987 429.000218 
L 588.379075 429.04105 
L 589.6158 428.717351 
L 590.234162 429.154166 
L 590.852525 428.661953 
L 591.470887 428.84894 
L 592.08925 428.840257 
L 592.707612 429.3718 
L 593.325975 429.12393 
L 593.944337 429.297116 
L 594.5627 429.268607 
L 595.181062 428.792363 
L 595.799425 429.725725 
L 597.03615 429.351264 
L 597.654512 429.578527 
L 598.272875 429.578174 
L 598.891237 430.077132 
L 599.5096 429.643889 
L 600.127962 430.016037 
L 600.746325 429.719755 
L 601.364687 429.714722 
L 601.98305 429.516987 
L 602.601412 429.783559 
L 603.219775 429.600347 
L 603.838137 429.913849 
L 604.4565 429.559964 
L 605.074862 429.966297 
L 605.693225 429.701665 
L 606.311587 430.206547 
L 606.92995 429.139553 
L 607.548312 430.285818 
L 608.166675 430.038222 
L 608.785037 430.262591 
L 609.4034 430.344679 
L 611.258487 430.132878 
L 611.87685 429.491086 
L 612.495212 430.297648 
L 613.113575 429.656646 
L 613.731937 430.065324 
L 614.3503 430.148029 
L 614.968662 430.43255 
L 615.587025 429.921733 
L 616.205387 430.475623 
L 617.442112 430.25847 
L 618.060475 430.076588 
L 618.678837 430.239007 
L 619.2972 429.746887 
L 619.915562 430.324435 
L 621.152287 430.472585 
L 622.389012 430.107466 
L 623.625737 430.534648 
L 624.2441 429.724796 
L 624.862462 430.508459 
L 625.480825 430.29333 
L 626.099187 430.281123 
L 626.71755 430.395993 
L 627.335912 430.387495 
L 627.954275 430.144352 
L 629.191 430.683849 
L 629.809362 430.701428 
L 631.046087 430.298013 
L 631.66445 429.673103 
L 632.282812 430.527396 
L 632.901175 430.549746 
L 634.1379 430.308841 
L 634.756262 430.564047 
L 635.374625 430.518786 
L 635.992987 430.296288 
L 636.61135 430.533022 
L 639.0848 430.029976 
L 639.703162 430.37064 
L 640.321525 430.231711 
L 640.939887 430.663872 
L 642.176612 430.6342 
L 642.794975 430.429791 
L 643.413337 430.57034 
L 644.0317 430.195904 
L 644.650062 430.64616 
L 645.268425 430.765929 
L 645.886787 430.597549 
L 646.50515 430.9569 
L 647.123512 430.680326 
L 647.741875 430.631425 
L 648.360237 430.937483 
L 648.9786 430.588124 
L 649.596962 430.84304 
L 650.215325 429.749089 
L 650.833687 430.808355 
L 652.070412 430.900023 
L 652.688775 430.636449 
L 653.307137 431.096254 
L 653.9255 430.731288 
L 654.543862 430.881399 
L 655.162225 430.520495 
L 655.780587 430.988546 
L 656.39895 431.141621 
L 657.017312 430.997134 
L 657.635675 430.606557 
L 658.254037 430.632145 
L 658.8724 431.014881 
L 659.490762 430.97491 
L 660.109125 431.351511 
L 660.727487 430.634439 
L 661.34585 431.874579 
L 662.582575 431.06259 
L 663.200937 431.690885 
L 663.8193 431.496709 
L 664.437662 431.729818 
L 665.056025 431.34969 
L 665.674387 431.797618 
L 666.29275 431.908458 
L 666.911112 431.349132 
L 667.529475 431.31454 
L 668.147837 431.679284 
L 668.7662 431.197672 
L 669.384562 431.90526 
L 670.002925 431.331941 
L 670.621287 431.49039 
L 671.23965 431.893444 
L 671.858012 431.690189 
L 672.476375 432.009378 
L 673.094737 431.727554 
L 673.7131 432.040787 
L 674.331462 431.79143 
L 674.949825 431.796055 
L 675.568187 431.927573 
L 676.18655 431.65597 
L 676.804912 432.340835 
L 677.423275 432.510132 
L 678.041637 432.401183 
L 678.66 431.883881 
L 679.278362 432.603583 
L 679.278362 432.603583 
" style="fill:none;stroke:#1f77b4;stroke-linecap:square;stroke-width:3;"/>
   </g>
   <g id="line2d_14">
    <path clip-path="url(#p338170a61a)" d="M 60.915862 56.899085 
L 105.437962 56.899085 
L 106.056325 225.331146 
L 150.578425 225.331146 
L 151.196787 312.880154 
L 195.718887 312.880154 
L 196.33725 381.646444 
L 240.85935 381.646444 
L 241.477712 413.583207 
L 285.999812 413.583207 
L 286.618175 421.220427 
L 331.140275 421.220426 
L 331.758637 423.676714 
L 376.280737 423.676714 
L 376.8991 425.967399 
L 421.4212 425.967399 
L 422.039562 426.563187 
L 466.561662 426.563187 
L 467.180025 427.639892 
L 511.702125 427.639892 
L 512.320487 428.04287 
L 556.842587 428.04287 
L 557.46095 428.280775 
L 601.98305 428.280775 
L 602.601412 428.559083 
L 647.123512 428.559083 
L 647.741875 428.945578 
L 679.278362 428.945578 
L 679.278362 428.945578 
" style="fill:none;stroke:#ff7f0e;stroke-linecap:square;stroke-width:3;"/>
   </g>
   <g id="line2d_15">
    <path clip-path="url(#p338170a61a)" d="M 60.915862 56.899085 
L 105.437962 56.899085 
L 106.056325 225.331102 
L 150.578425 225.331102 
L 151.196787 302.639811 
L 195.718887 302.639811 
L 196.33725 344.261521 
L 240.85935 344.261521 
L 241.477712 405.420899 
L 285.999812 405.420899 
L 286.618175 413.817968 
L 331.140275 413.817968 
L 331.758637 422.094727 
L 376.280737 422.094727 
L 376.8991 423.963106 
L 421.4212 423.963106 
L 422.039562 426.185398 
L 466.561662 426.185398 
L 467.180025 427.749731 
L 511.702125 427.749731 
L 512.320487 428.628228 
L 556.842587 428.628228 
L 557.46095 429.658268 
L 601.98305 429.658268 
L 602.601412 430.118101 
L 647.123512 430.118101 
L 647.741875 431.394007 
L 679.278362 431.394007 
L 679.278362 431.394007 
" style="fill:none;stroke:#2ca02c;stroke-linecap:square;stroke-width:3;"/>
   </g>
   <g id="line2d_16">
    <path clip-path="url(#p338170a61a)" d="M 60.2975 485.156591 
L 678.66 485.156591 
" style="fill:none;stroke:#000000;stroke-dasharray:7.4,3.2;stroke-dashoffset:0;stroke-width:2;"/>
   </g>
   <g id="patch_3">
    <path d="M 60.2975 507.745 
L 60.2975 10.8 
" style="fill:none;stroke:#000000;stroke-linecap:square;stroke-linejoin:miter;stroke-width:0.8;"/>
   </g>
   <g id="patch_4">
    <path d="M 678.66 507.745 
L 678.66 10.8 
" style="fill:none;stroke:#000000;stroke-linecap:square;stroke-linejoin:miter;stroke-width:0.8;"/>
   </g>
   <g id="patch_5">
    <path d="M 60.2975 507.745 
L 678.66 507.745 
" style="fill:none;stroke:#000000;stroke-linecap:square;stroke-linejoin:miter;stroke-width:0.8;"/>
   </g>
   <g id="patch_6">
    <path d="M 60.2975 10.8 
L 678.66 10.8 
" style="fill:none;stroke:#000000;stroke-linecap:square;stroke-linejoin:miter;stroke-width:0.8;"/>
   </g>
   <g id="legend_1">
    <g id="patch_7">
     <path d="M 475.96125 170.91 
L 661.86 170.91 
Q 666.66 170.91 666.66 166.11 
L 666.66 27.6 
Q 666.66 22.8 661.86 22.8 
L 475.96125 22.8 
Q 471.16125 22.8 471.16125 27.6 
L 471.16125 166.11 
Q 471.16125 170.91 475.96125 170.91 
z
" style="fill:#ffffff;opacity:0.8;stroke:#cccccc;stroke-linejoin:miter;"/>
    </g>
    <g id="line2d_17">
     <path d="M 480.76125 42.23625 
L 528.76125 42.23625 
" style="fill:none;stroke:#1f77b4;stroke-linecap:square;stroke-width:3;"/>
    </g>
    <g id="line2d_18"/>
    <g id="text_15">
     <!-- COBYLA -->
     <g transform="translate(547.96125 50.63625)scale(0.24 -0.24)">
      <defs>
       <path d="M 4122 4306 
L 4122 3641 
Q 3803 3938 3442 4084 
Q 3081 4231 2675 4231 
Q 1875 4231 1450 3742 
Q 1025 3253 1025 2328 
Q 1025 1406 1450 917 
Q 1875 428 2675 428 
Q 3081 428 3442 575 
Q 3803 722 4122 1019 
L 4122 359 
Q 3791 134 3420 21 
Q 3050 -91 2638 -91 
Q 1578 -91 968 557 
Q 359 1206 359 2328 
Q 359 3453 968 4101 
Q 1578 4750 2638 4750 
Q 3056 4750 3426 4639 
Q 3797 4528 4122 4306 
z
" id="DejaVuSans-43" transform="scale(0.015625)"/>
       <path d="M 2522 4238 
Q 1834 4238 1429 3725 
Q 1025 3213 1025 2328 
Q 1025 1447 1429 934 
Q 1834 422 2522 422 
Q 3209 422 3611 934 
Q 4013 1447 4013 2328 
Q 4013 3213 3611 3725 
Q 3209 4238 2522 4238 
z
M 2522 4750 
Q 3503 4750 4090 4092 
Q 4678 3434 4678 2328 
Q 4678 1225 4090 567 
Q 3503 -91 2522 -91 
Q 1538 -91 948 565 
Q 359 1222 359 2328 
Q 359 3434 948 4092 
Q 1538 4750 2522 4750 
z
" id="DejaVuSans-4f" transform="scale(0.015625)"/>
       <path d="M 1259 2228 
L 1259 519 
L 2272 519 
Q 2781 519 3026 730 
Q 3272 941 3272 1375 
Q 3272 1813 3026 2020 
Q 2781 2228 2272 2228 
L 1259 2228 
z
M 1259 4147 
L 1259 2741 
L 2194 2741 
Q 2656 2741 2882 2914 
Q 3109 3088 3109 3444 
Q 3109 3797 2882 3972 
Q 2656 4147 2194 4147 
L 1259 4147 
z
M 628 4666 
L 2241 4666 
Q 2963 4666 3353 4366 
Q 3744 4066 3744 3513 
Q 3744 3084 3544 2831 
Q 3344 2578 2956 2516 
Q 3422 2416 3680 2098 
Q 3938 1781 3938 1306 
Q 3938 681 3513 340 
Q 3088 0 2303 0 
L 628 0 
L 628 4666 
z
" id="DejaVuSans-42" transform="scale(0.015625)"/>
       <path d="M -13 4666 
L 666 4666 
L 1959 2747 
L 3244 4666 
L 3922 4666 
L 2272 2222 
L 2272 0 
L 1638 0 
L 1638 2222 
L -13 4666 
z
" id="DejaVuSans-59" transform="scale(0.015625)"/>
       <path d="M 628 4666 
L 1259 4666 
L 1259 531 
L 3531 531 
L 3531 0 
L 628 0 
L 628 4666 
z
" id="DejaVuSans-4c" transform="scale(0.015625)"/>
       <path d="M 2188 4044 
L 1331 1722 
L 3047 1722 
L 2188 4044 
z
M 1831 4666 
L 2547 4666 
L 4325 0 
L 3669 0 
L 3244 1197 
L 1141 1197 
L 716 0 
L 50 0 
L 1831 4666 
z
" id="DejaVuSans-41" transform="scale(0.015625)"/>
      </defs>
      <use xlink:href="#DejaVuSans-43"/>
      <use x="69.824219" xlink:href="#DejaVuSans-4f"/>
      <use x="148.535156" xlink:href="#DejaVuSans-42"/>
      <use x="211.638672" xlink:href="#DejaVuSans-59"/>
      <use x="272.722656" xlink:href="#DejaVuSans-4c"/>
      <use x="330.685547" xlink:href="#DejaVuSans-41"/>
     </g>
    </g>
    <g id="line2d_19">
     <path d="M 480.76125 77.46375 
L 528.76125 77.46375 
" style="fill:none;stroke:#ff7f0e;stroke-linecap:square;stroke-width:3;"/>
    </g>
    <g id="line2d_20"/>
    <g id="text_16">
     <!-- SLSQP -->
     <g transform="translate(547.96125 85.86375)scale(0.24 -0.24)">
      <defs>
       <path d="M 3425 4513 
L 3425 3897 
Q 3066 4069 2747 4153 
Q 2428 4238 2131 4238 
Q 1616 4238 1336 4038 
Q 1056 3838 1056 3469 
Q 1056 3159 1242 3001 
Q 1428 2844 1947 2747 
L 2328 2669 
Q 3034 2534 3370 2195 
Q 3706 1856 3706 1288 
Q 3706 609 3251 259 
Q 2797 -91 1919 -91 
Q 1588 -91 1214 -16 
Q 841 59 441 206 
L 441 856 
Q 825 641 1194 531 
Q 1563 422 1919 422 
Q 2459 422 2753 634 
Q 3047 847 3047 1241 
Q 3047 1584 2836 1778 
Q 2625 1972 2144 2069 
L 1759 2144 
Q 1053 2284 737 2584 
Q 422 2884 422 3419 
Q 422 4038 858 4394 
Q 1294 4750 2059 4750 
Q 2388 4750 2728 4690 
Q 3069 4631 3425 4513 
z
" id="DejaVuSans-53" transform="scale(0.015625)"/>
       <path d="M 1259 4147 
L 1259 2394 
L 2053 2394 
Q 2494 2394 2734 2622 
Q 2975 2850 2975 3272 
Q 2975 3691 2734 3919 
Q 2494 4147 2053 4147 
L 1259 4147 
z
M 628 4666 
L 2053 4666 
Q 2838 4666 3239 4311 
Q 3641 3956 3641 3272 
Q 3641 2581 3239 2228 
Q 2838 1875 2053 1875 
L 1259 1875 
L 1259 0 
L 628 0 
L 628 4666 
z
" id="DejaVuSans-50" transform="scale(0.015625)"/>
      </defs>
      <use xlink:href="#DejaVuSans-53"/>
      <use x="63.476562" xlink:href="#DejaVuSans-4c"/>
      <use x="119.189453" xlink:href="#DejaVuSans-53"/>
      <use x="182.666016" xlink:href="#DejaVuSans-51"/>
      <use x="261.376953" xlink:href="#DejaVuSans-50"/>
     </g>
    </g>
    <g id="line2d_21">
     <path d="M 480.76125 112.69125 
L 528.76125 112.69125 
" style="fill:none;stroke:#2ca02c;stroke-linecap:square;stroke-width:3;"/>
    </g>
    <g id="line2d_22"/>
    <g id="text_17">
     <!-- L-BFGS-B -->
     <g transform="translate(547.96125 121.09125)scale(0.24 -0.24)">
      <defs>
       <path d="M 313 2009 
L 1997 2009 
L 1997 1497 
L 313 1497 
L 313 2009 
z
" id="DejaVuSans-2d" transform="scale(0.015625)"/>
       <path d="M 628 4666 
L 3309 4666 
L 3309 4134 
L 1259 4134 
L 1259 2759 
L 3109 2759 
L 3109 2228 
L 1259 2228 
L 1259 0 
L 628 0 
L 628 4666 
z
" id="DejaVuSans-46" transform="scale(0.015625)"/>
       <path d="M 3809 666 
L 3809 1919 
L 2778 1919 
L 2778 2438 
L 4434 2438 
L 4434 434 
Q 4069 175 3628 42 
Q 3188 -91 2688 -91 
Q 1594 -91 976 548 
Q 359 1188 359 2328 
Q 359 3472 976 4111 
Q 1594 4750 2688 4750 
Q 3144 4750 3555 4637 
Q 3966 4525 4313 4306 
L 4313 3634 
Q 3963 3931 3569 4081 
Q 3175 4231 2741 4231 
Q 1884 4231 1454 3753 
Q 1025 3275 1025 2328 
Q 1025 1384 1454 906 
Q 1884 428 2741 428 
Q 3075 428 3337 486 
Q 3600 544 3809 666 
z
" id="DejaVuSans-47" transform="scale(0.015625)"/>
      </defs>
      <use xlink:href="#DejaVuSans-4c"/>
      <use x="53.962891" xlink:href="#DejaVuSans-2d"/>
      <use x="86.421875" xlink:href="#DejaVuSans-42"/>
      <use x="155.025391" xlink:href="#DejaVuSans-46"/>
      <use x="212.544922" xlink:href="#DejaVuSans-47"/>
      <use x="290.035156" xlink:href="#DejaVuSans-53"/>
      <use x="353.511719" xlink:href="#DejaVuSans-2d"/>
      <use x="385.970703" xlink:href="#DejaVuSans-42"/>
     </g>
    </g>
    <g id="line2d_23">
     <path d="M 480.76125 147.91875 
L 528.76125 147.91875 
" style="fill:none;stroke:#000000;stroke-dasharray:7.4,3.2;stroke-dashoffset:0;stroke-width:2;"/>
    </g>
    <g id="line2d_24"/>
    <g id="text_18">
     <!-- HT -->
     <g transform="translate(547.96125 156.31875)scale(0.24 -0.24)">
      <defs>
       <path d="M 628 4666 
L 1259 4666 
L 1259 2753 
L 3553 2753 
L 3553 4666 
L 4184 4666 
L 4184 0 
L 3553 0 
L 3553 2222 
L 1259 2222 
L 1259 0 
L 628 0 
L 628 4666 
z
" id="DejaVuSans-48" transform="scale(0.015625)"/>
       <path d="M -19 4666 
L 3928 4666 
L 3928 4134 
L 2272 4134 
L 2272 0 
L 1638 0 
L 1638 4134 
L -19 4134 
L -19 4666 
z
" id="DejaVuSans-54" transform="scale(0.015625)"/>
      </defs>
      <use xlink:href="#DejaVuSans-48"/>
      <use x="75.195312" xlink:href="#DejaVuSans-54"/>
     </g>
    </g>
   </g>
  </g>
 </g>
 <defs>
  <clipPath id="p338170a61a">
   <rect height="496.945" width="618.3625" x="60.2975" y="10.8"/>
  </clipPath>
 </defs>
</svg>
