<?xml version="1.0" encoding="utf-8" standalone="no"?>
<!DOCTYPE svg PUBLIC "-//W3C//DTD SVG 1.1//EN"
  "http://www.w3.org/Graphics/SVG/1.1/DTD/svg11.dtd">
<svg height="576pt" version="1.1" viewBox="0 0 720 576" width="720pt" xmlns="http://www.w3.org/2000/svg" xmlns:xlink="http://www.w3.org/1999/xlink">
 <metadata>
  <rdf:RDF xmlns:cc="http://creativecommons.org/ns#" xmlns:dc="http://purl.org/dc/elements/1.1/" xmlns:rdf="http://www.w3.org/1999/02/22-rdf-syntax-ns#">
   <cc:Work>
    <dc:type rdf:resource="http://purl.org/dc/dcmitype/StillImage"/>
    <dc:date>2021-07-30T19:22:14.018809</dc:date>
    <dc:format>image/svg+xml</dc:format>
    <dc:creator>
     <cc:Agent>
      <dc:title>Matplotlib v3.4.2, https://matplotlib.org/</dc:title>
     </cc:Agent>
    </dc:creator>
   </cc:Work>
  </rdf:RDF>
 </metadata>
 <defs>
  <style type="text/css">*{stroke-linecap:butt;stroke-linejoin:round;}</style>
 </defs>
 <g id="figure_1">
  <g id="patch_1">
   <path d="M 0 576 
L 720 576 
L 720 0 
L 0 0 
z
" style="fill:#ffffff;"/>
  </g>
  <g id="axes_1">
   <g id="patch_2">
    <path d="M 60.2975 507.745 
L 671.025 507.745 
L 671.025 10.8 
L 60.2975 10.8 
z
" style="fill:#ffffff;"/>
   </g>
   <g id="matplotlib.axis_1">
    <g id="xtick_1">
     <g id="line2d_1">
      <defs>
       <path d="M 0 0 
L 0 3.5 
" id="me33c22e210" style="stroke:#000000;stroke-width:0.8;"/>
      </defs>
      <g>
       <use style="stroke:#000000;stroke-width:0.8;" x="60.2975" xlink:href="#me33c22e210" y="507.745"/>
      </g>
     </g>
     <g id="text_1">
      <!-- 0 -->
      <g transform="translate(52.6625 532.98125)scale(0.24 -0.24)">
       <defs>
        <path d="M 2034 4250 
Q 1547 4250 1301 3770 
Q 1056 3291 1056 2328 
Q 1056 1369 1301 889 
Q 1547 409 2034 409 
Q 2525 409 2770 889 
Q 3016 1369 3016 2328 
Q 3016 3291 2770 3770 
Q 2525 4250 2034 4250 
z
M 2034 4750 
Q 2819 4750 3233 4129 
Q 3647 3509 3647 2328 
Q 3647 1150 3233 529 
Q 2819 -91 2034 -91 
Q 1250 -91 836 529 
Q 422 1150 422 2328 
Q 422 3509 836 4129 
Q 1250 4750 2034 4750 
z
" id="DejaVuSans-30" transform="scale(0.015625)"/>
       </defs>
       <use xlink:href="#DejaVuSans-30"/>
      </g>
     </g>
    </g>
    <g id="xtick_2">
     <g id="line2d_2">
      <g>
       <use style="stroke:#000000;stroke-width:0.8;" x="182.443" xlink:href="#me33c22e210" y="507.745"/>
      </g>
     </g>
     <g id="text_2">
      <!-- 2000 -->
      <g transform="translate(151.903 532.98125)scale(0.24 -0.24)">
       <defs>
        <path d="M 1228 531 
L 3431 531 
L 3431 0 
L 469 0 
L 469 531 
Q 828 903 1448 1529 
Q 2069 2156 2228 2338 
Q 2531 2678 2651 2914 
Q 2772 3150 2772 3378 
Q 2772 3750 2511 3984 
Q 2250 4219 1831 4219 
Q 1534 4219 1204 4116 
Q 875 4013 500 3803 
L 500 4441 
Q 881 4594 1212 4672 
Q 1544 4750 1819 4750 
Q 2544 4750 2975 4387 
Q 3406 4025 3406 3419 
Q 3406 3131 3298 2873 
Q 3191 2616 2906 2266 
Q 2828 2175 2409 1742 
Q 1991 1309 1228 531 
z
" id="DejaVuSans-32" transform="scale(0.015625)"/>
       </defs>
       <use xlink:href="#DejaVuSans-32"/>
       <use x="63.623047" xlink:href="#DejaVuSans-30"/>
       <use x="127.246094" xlink:href="#DejaVuSans-30"/>
       <use x="190.869141" xlink:href="#DejaVuSans-30"/>
      </g>
     </g>
    </g>
    <g id="xtick_3">
     <g id="line2d_3">
      <g>
       <use style="stroke:#000000;stroke-width:0.8;" x="304.5885" xlink:href="#me33c22e210" y="507.745"/>
      </g>
     </g>
     <g id="text_3">
      <!-- 4000 -->
      <g transform="translate(274.0485 532.98125)scale(0.24 -0.24)">
       <defs>
        <path d="M 2419 4116 
L 825 1625 
L 2419 1625 
L 2419 4116 
z
M 2253 4666 
L 3047 4666 
L 3047 1625 
L 3713 1625 
L 3713 1100 
L 3047 1100 
L 3047 0 
L 2419 0 
L 2419 1100 
L 313 1100 
L 313 1709 
L 2253 4666 
z
" id="DejaVuSans-34" transform="scale(0.015625)"/>
       </defs>
       <use xlink:href="#DejaVuSans-34"/>
       <use x="63.623047" xlink:href="#DejaVuSans-30"/>
       <use x="127.246094" xlink:href="#DejaVuSans-30"/>
       <use x="190.869141" xlink:href="#DejaVuSans-30"/>
      </g>
     </g>
    </g>
    <g id="xtick_4">
     <g id="line2d_4">
      <g>
       <use style="stroke:#000000;stroke-width:0.8;" x="426.734" xlink:href="#me33c22e210" y="507.745"/>
      </g>
     </g>
     <g id="text_4">
      <!-- 6000 -->
      <g transform="translate(396.194 532.98125)scale(0.24 -0.24)">
       <defs>
        <path d="M 2113 2584 
Q 1688 2584 1439 2293 
Q 1191 2003 1191 1497 
Q 1191 994 1439 701 
Q 1688 409 2113 409 
Q 2538 409 2786 701 
Q 3034 994 3034 1497 
Q 3034 2003 2786 2293 
Q 2538 2584 2113 2584 
z
M 3366 4563 
L 3366 3988 
Q 3128 4100 2886 4159 
Q 2644 4219 2406 4219 
Q 1781 4219 1451 3797 
Q 1122 3375 1075 2522 
Q 1259 2794 1537 2939 
Q 1816 3084 2150 3084 
Q 2853 3084 3261 2657 
Q 3669 2231 3669 1497 
Q 3669 778 3244 343 
Q 2819 -91 2113 -91 
Q 1303 -91 875 529 
Q 447 1150 447 2328 
Q 447 3434 972 4092 
Q 1497 4750 2381 4750 
Q 2619 4750 2861 4703 
Q 3103 4656 3366 4563 
z
" id="DejaVuSans-36" transform="scale(0.015625)"/>
       </defs>
       <use xlink:href="#DejaVuSans-36"/>
       <use x="63.623047" xlink:href="#DejaVuSans-30"/>
       <use x="127.246094" xlink:href="#DejaVuSans-30"/>
       <use x="190.869141" xlink:href="#DejaVuSans-30"/>
      </g>
     </g>
    </g>
    <g id="xtick_5">
     <g id="line2d_5">
      <g>
       <use style="stroke:#000000;stroke-width:0.8;" x="548.8795" xlink:href="#me33c22e210" y="507.745"/>
      </g>
     </g>
     <g id="text_5">
      <!-- 8000 -->
      <g transform="translate(518.3395 532.98125)scale(0.24 -0.24)">
       <defs>
        <path d="M 2034 2216 
Q 1584 2216 1326 1975 
Q 1069 1734 1069 1313 
Q 1069 891 1326 650 
Q 1584 409 2034 409 
Q 2484 409 2743 651 
Q 3003 894 3003 1313 
Q 3003 1734 2745 1975 
Q 2488 2216 2034 2216 
z
M 1403 2484 
Q 997 2584 770 2862 
Q 544 3141 544 3541 
Q 544 4100 942 4425 
Q 1341 4750 2034 4750 
Q 2731 4750 3128 4425 
Q 3525 4100 3525 3541 
Q 3525 3141 3298 2862 
Q 3072 2584 2669 2484 
Q 3125 2378 3379 2068 
Q 3634 1759 3634 1313 
Q 3634 634 3220 271 
Q 2806 -91 2034 -91 
Q 1263 -91 848 271 
Q 434 634 434 1313 
Q 434 1759 690 2068 
Q 947 2378 1403 2484 
z
M 1172 3481 
Q 1172 3119 1398 2916 
Q 1625 2713 2034 2713 
Q 2441 2713 2670 2916 
Q 2900 3119 2900 3481 
Q 2900 3844 2670 4047 
Q 2441 4250 2034 4250 
Q 1625 4250 1398 4047 
Q 1172 3844 1172 3481 
z
" id="DejaVuSans-38" transform="scale(0.015625)"/>
       </defs>
       <use xlink:href="#DejaVuSans-38"/>
       <use x="63.623047" xlink:href="#DejaVuSans-30"/>
       <use x="127.246094" xlink:href="#DejaVuSans-30"/>
       <use x="190.869141" xlink:href="#DejaVuSans-30"/>
      </g>
     </g>
    </g>
    <g id="xtick_6">
     <g id="line2d_6">
      <g>
       <use style="stroke:#000000;stroke-width:0.8;" x="671.025" xlink:href="#me33c22e210" y="507.745"/>
      </g>
     </g>
     <g id="text_6">
      <!-- 10000 -->
      <g transform="translate(632.85 532.98125)scale(0.24 -0.24)">
       <defs>
        <path d="M 794 531 
L 1825 531 
L 1825 4091 
L 703 3866 
L 703 4441 
L 1819 4666 
L 2450 4666 
L 2450 531 
L 3481 531 
L 3481 0 
L 794 0 
L 794 531 
z
" id="DejaVuSans-31" transform="scale(0.015625)"/>
       </defs>
       <use xlink:href="#DejaVuSans-31"/>
       <use x="63.623047" xlink:href="#DejaVuSans-30"/>
       <use x="127.246094" xlink:href="#DejaVuSans-30"/>
       <use x="190.869141" xlink:href="#DejaVuSans-30"/>
       <use x="254.492188" xlink:href="#DejaVuSans-30"/>
      </g>
     </g>
    </g>
    <g id="text_7">
     <!-- iterations -->
     <g transform="translate(308.715625 560.20875)scale(0.24 -0.24)">
      <defs>
       <path d="M 603 3500 
L 1178 3500 
L 1178 0 
L 603 0 
L 603 3500 
z
M 603 4863 
L 1178 4863 
L 1178 4134 
L 603 4134 
L 603 4863 
z
" id="DejaVuSans-69" transform="scale(0.015625)"/>
       <path d="M 1172 4494 
L 1172 3500 
L 2356 3500 
L 2356 3053 
L 1172 3053 
L 1172 1153 
Q 1172 725 1289 603 
Q 1406 481 1766 481 
L 2356 481 
L 2356 0 
L 1766 0 
Q 1100 0 847 248 
Q 594 497 594 1153 
L 594 3053 
L 172 3053 
L 172 3500 
L 594 3500 
L 594 4494 
L 1172 4494 
z
" id="DejaVuSans-74" transform="scale(0.015625)"/>
       <path d="M 3597 1894 
L 3597 1613 
L 953 1613 
Q 991 1019 1311 708 
Q 1631 397 2203 397 
Q 2534 397 2845 478 
Q 3156 559 3463 722 
L 3463 178 
Q 3153 47 2828 -22 
Q 2503 -91 2169 -91 
Q 1331 -91 842 396 
Q 353 884 353 1716 
Q 353 2575 817 3079 
Q 1281 3584 2069 3584 
Q 2775 3584 3186 3129 
Q 3597 2675 3597 1894 
z
M 3022 2063 
Q 3016 2534 2758 2815 
Q 2500 3097 2075 3097 
Q 1594 3097 1305 2825 
Q 1016 2553 972 2059 
L 3022 2063 
z
" id="DejaVuSans-65" transform="scale(0.015625)"/>
       <path d="M 2631 2963 
Q 2534 3019 2420 3045 
Q 2306 3072 2169 3072 
Q 1681 3072 1420 2755 
Q 1159 2438 1159 1844 
L 1159 0 
L 581 0 
L 581 3500 
L 1159 3500 
L 1159 2956 
Q 1341 3275 1631 3429 
Q 1922 3584 2338 3584 
Q 2397 3584 2469 3576 
Q 2541 3569 2628 3553 
L 2631 2963 
z
" id="DejaVuSans-72" transform="scale(0.015625)"/>
       <path d="M 2194 1759 
Q 1497 1759 1228 1600 
Q 959 1441 959 1056 
Q 959 750 1161 570 
Q 1363 391 1709 391 
Q 2188 391 2477 730 
Q 2766 1069 2766 1631 
L 2766 1759 
L 2194 1759 
z
M 3341 1997 
L 3341 0 
L 2766 0 
L 2766 531 
Q 2569 213 2275 61 
Q 1981 -91 1556 -91 
Q 1019 -91 701 211 
Q 384 513 384 1019 
Q 384 1609 779 1909 
Q 1175 2209 1959 2209 
L 2766 2209 
L 2766 2266 
Q 2766 2663 2505 2880 
Q 2244 3097 1772 3097 
Q 1472 3097 1187 3025 
Q 903 2953 641 2809 
L 641 3341 
Q 956 3463 1253 3523 
Q 1550 3584 1831 3584 
Q 2591 3584 2966 3190 
Q 3341 2797 3341 1997 
z
" id="DejaVuSans-61" transform="scale(0.015625)"/>
       <path d="M 1959 3097 
Q 1497 3097 1228 2736 
Q 959 2375 959 1747 
Q 959 1119 1226 758 
Q 1494 397 1959 397 
Q 2419 397 2687 759 
Q 2956 1122 2956 1747 
Q 2956 2369 2687 2733 
Q 2419 3097 1959 3097 
z
M 1959 3584 
Q 2709 3584 3137 3096 
Q 3566 2609 3566 1747 
Q 3566 888 3137 398 
Q 2709 -91 1959 -91 
Q 1206 -91 779 398 
Q 353 888 353 1747 
Q 353 2609 779 3096 
Q 1206 3584 1959 3584 
z
" id="DejaVuSans-6f" transform="scale(0.015625)"/>
       <path d="M 3513 2113 
L 3513 0 
L 2938 0 
L 2938 2094 
Q 2938 2591 2744 2837 
Q 2550 3084 2163 3084 
Q 1697 3084 1428 2787 
Q 1159 2491 1159 1978 
L 1159 0 
L 581 0 
L 581 3500 
L 1159 3500 
L 1159 2956 
Q 1366 3272 1645 3428 
Q 1925 3584 2291 3584 
Q 2894 3584 3203 3211 
Q 3513 2838 3513 2113 
z
" id="DejaVuSans-6e" transform="scale(0.015625)"/>
       <path d="M 2834 3397 
L 2834 2853 
Q 2591 2978 2328 3040 
Q 2066 3103 1784 3103 
Q 1356 3103 1142 2972 
Q 928 2841 928 2578 
Q 928 2378 1081 2264 
Q 1234 2150 1697 2047 
L 1894 2003 
Q 2506 1872 2764 1633 
Q 3022 1394 3022 966 
Q 3022 478 2636 193 
Q 2250 -91 1575 -91 
Q 1294 -91 989 -36 
Q 684 19 347 128 
L 347 722 
Q 666 556 975 473 
Q 1284 391 1588 391 
Q 1994 391 2212 530 
Q 2431 669 2431 922 
Q 2431 1156 2273 1281 
Q 2116 1406 1581 1522 
L 1381 1569 
Q 847 1681 609 1914 
Q 372 2147 372 2553 
Q 372 3047 722 3315 
Q 1072 3584 1716 3584 
Q 2034 3584 2315 3537 
Q 2597 3491 2834 3397 
z
" id="DejaVuSans-73" transform="scale(0.015625)"/>
      </defs>
      <use xlink:href="#DejaVuSans-69"/>
      <use x="27.783203" xlink:href="#DejaVuSans-74"/>
      <use x="66.992188" xlink:href="#DejaVuSans-65"/>
      <use x="128.515625" xlink:href="#DejaVuSans-72"/>
      <use x="169.628906" xlink:href="#DejaVuSans-61"/>
      <use x="230.908203" xlink:href="#DejaVuSans-74"/>
      <use x="270.117188" xlink:href="#DejaVuSans-69"/>
      <use x="297.900391" xlink:href="#DejaVuSans-6f"/>
      <use x="359.082031" xlink:href="#DejaVuSans-6e"/>
      <use x="422.460938" xlink:href="#DejaVuSans-73"/>
     </g>
    </g>
   </g>
   <g id="matplotlib.axis_2">
    <g id="ytick_1">
     <g id="line2d_7">
      <defs>
       <path d="M 0 0 
L -3.5 0 
" id="md5a330a12b" style="stroke:#000000;stroke-width:0.8;"/>
      </defs>
      <g>
       <use style="stroke:#000000;stroke-width:0.8;" x="60.2975" xlink:href="#md5a330a12b" y="492.698635"/>
      </g>
     </g>
     <g id="text_8">
      <!-- 0 -->
      <g transform="translate(38.0275 501.81676)scale(0.24 -0.24)">
       <use xlink:href="#DejaVuSans-30"/>
      </g>
     </g>
    </g>
    <g id="ytick_2">
     <g id="line2d_8">
      <g>
       <use style="stroke:#000000;stroke-width:0.8;" x="60.2975" xlink:href="#md5a330a12b" y="417.872018"/>
      </g>
     </g>
     <g id="text_9">
      <!-- 1 -->
      <g transform="translate(38.0275 426.990143)scale(0.24 -0.24)">
       <use xlink:href="#DejaVuSans-31"/>
      </g>
     </g>
    </g>
    <g id="ytick_3">
     <g id="line2d_9">
      <g>
       <use style="stroke:#000000;stroke-width:0.8;" x="60.2975" xlink:href="#md5a330a12b" y="343.045401"/>
      </g>
     </g>
     <g id="text_10">
      <!-- 2 -->
      <g transform="translate(38.0275 352.163526)scale(0.24 -0.24)">
       <use xlink:href="#DejaVuSans-32"/>
      </g>
     </g>
    </g>
    <g id="ytick_4">
     <g id="line2d_10">
      <g>
       <use style="stroke:#000000;stroke-width:0.8;" x="60.2975" xlink:href="#md5a330a12b" y="268.218785"/>
      </g>
     </g>
     <g id="text_11">
      <!-- 3 -->
      <g transform="translate(38.0275 277.33691)scale(0.24 -0.24)">
       <defs>
        <path d="M 2597 2516 
Q 3050 2419 3304 2112 
Q 3559 1806 3559 1356 
Q 3559 666 3084 287 
Q 2609 -91 1734 -91 
Q 1441 -91 1130 -33 
Q 819 25 488 141 
L 488 750 
Q 750 597 1062 519 
Q 1375 441 1716 441 
Q 2309 441 2620 675 
Q 2931 909 2931 1356 
Q 2931 1769 2642 2001 
Q 2353 2234 1838 2234 
L 1294 2234 
L 1294 2753 
L 1863 2753 
Q 2328 2753 2575 2939 
Q 2822 3125 2822 3475 
Q 2822 3834 2567 4026 
Q 2313 4219 1838 4219 
Q 1578 4219 1281 4162 
Q 984 4106 628 3988 
L 628 4550 
Q 988 4650 1302 4700 
Q 1616 4750 1894 4750 
Q 2613 4750 3031 4423 
Q 3450 4097 3450 3541 
Q 3450 3153 3228 2886 
Q 3006 2619 2597 2516 
z
" id="DejaVuSans-33" transform="scale(0.015625)"/>
       </defs>
       <use xlink:href="#DejaVuSans-33"/>
      </g>
     </g>
    </g>
    <g id="ytick_5">
     <g id="line2d_11">
      <g>
       <use style="stroke:#000000;stroke-width:0.8;" x="60.2975" xlink:href="#md5a330a12b" y="193.392168"/>
      </g>
     </g>
     <g id="text_12">
      <!-- 4 -->
      <g transform="translate(38.0275 202.510293)scale(0.24 -0.24)">
       <use xlink:href="#DejaVuSans-34"/>
      </g>
     </g>
    </g>
    <g id="ytick_6">
     <g id="line2d_12">
      <g>
       <use style="stroke:#000000;stroke-width:0.8;" x="60.2975" xlink:href="#md5a330a12b" y="118.565551"/>
      </g>
     </g>
     <g id="text_13">
      <!-- 5 -->
      <g transform="translate(38.0275 127.683676)scale(0.24 -0.24)">
       <defs>
        <path d="M 691 4666 
L 3169 4666 
L 3169 4134 
L 1269 4134 
L 1269 2991 
Q 1406 3038 1543 3061 
Q 1681 3084 1819 3084 
Q 2600 3084 3056 2656 
Q 3513 2228 3513 1497 
Q 3513 744 3044 326 
Q 2575 -91 1722 -91 
Q 1428 -91 1123 -41 
Q 819 9 494 109 
L 494 744 
Q 775 591 1075 516 
Q 1375 441 1709 441 
Q 2250 441 2565 725 
Q 2881 1009 2881 1497 
Q 2881 1984 2565 2268 
Q 2250 2553 1709 2553 
Q 1456 2553 1204 2497 
Q 953 2441 691 2322 
L 691 4666 
z
" id="DejaVuSans-35" transform="scale(0.015625)"/>
       </defs>
       <use xlink:href="#DejaVuSans-35"/>
      </g>
     </g>
    </g>
    <g id="ytick_7">
     <g id="line2d_13">
      <g>
       <use style="stroke:#000000;stroke-width:0.8;" x="60.2975" xlink:href="#md5a330a12b" y="43.738934"/>
      </g>
     </g>
     <g id="text_14">
      <!-- 6 -->
      <g transform="translate(38.0275 52.857059)scale(0.24 -0.24)">
       <use xlink:href="#DejaVuSans-36"/>
      </g>
     </g>
    </g>
    <g id="text_15">
     <!-- VQE energy -->
     <g transform="translate(29.03625 330.14)rotate(-90)scale(0.24 -0.24)">
      <defs>
       <path d="M 1831 0 
L 50 4666 
L 709 4666 
L 2188 738 
L 3669 4666 
L 4325 4666 
L 2547 0 
L 1831 0 
z
" id="DejaVuSans-56" transform="scale(0.015625)"/>
       <path d="M 2522 4238 
Q 1834 4238 1429 3725 
Q 1025 3213 1025 2328 
Q 1025 1447 1429 934 
Q 1834 422 2522 422 
Q 3209 422 3611 934 
Q 4013 1447 4013 2328 
Q 4013 3213 3611 3725 
Q 3209 4238 2522 4238 
z
M 3406 84 
L 4238 -825 
L 3475 -825 
L 2784 -78 
Q 2681 -84 2626 -87 
Q 2572 -91 2522 -91 
Q 1538 -91 948 567 
Q 359 1225 359 2328 
Q 359 3434 948 4092 
Q 1538 4750 2522 4750 
Q 3503 4750 4090 4092 
Q 4678 3434 4678 2328 
Q 4678 1516 4351 937 
Q 4025 359 3406 84 
z
" id="DejaVuSans-51" transform="scale(0.015625)"/>
       <path d="M 628 4666 
L 3578 4666 
L 3578 4134 
L 1259 4134 
L 1259 2753 
L 3481 2753 
L 3481 2222 
L 1259 2222 
L 1259 531 
L 3634 531 
L 3634 0 
L 628 0 
L 628 4666 
z
" id="DejaVuSans-45" transform="scale(0.015625)"/>
       <path id="DejaVuSans-20" transform="scale(0.015625)"/>
       <path d="M 2906 1791 
Q 2906 2416 2648 2759 
Q 2391 3103 1925 3103 
Q 1463 3103 1205 2759 
Q 947 2416 947 1791 
Q 947 1169 1205 825 
Q 1463 481 1925 481 
Q 2391 481 2648 825 
Q 2906 1169 2906 1791 
z
M 3481 434 
Q 3481 -459 3084 -895 
Q 2688 -1331 1869 -1331 
Q 1566 -1331 1297 -1286 
Q 1028 -1241 775 -1147 
L 775 -588 
Q 1028 -725 1275 -790 
Q 1522 -856 1778 -856 
Q 2344 -856 2625 -561 
Q 2906 -266 2906 331 
L 2906 616 
Q 2728 306 2450 153 
Q 2172 0 1784 0 
Q 1141 0 747 490 
Q 353 981 353 1791 
Q 353 2603 747 3093 
Q 1141 3584 1784 3584 
Q 2172 3584 2450 3431 
Q 2728 3278 2906 2969 
L 2906 3500 
L 3481 3500 
L 3481 434 
z
" id="DejaVuSans-67" transform="scale(0.015625)"/>
       <path d="M 2059 -325 
Q 1816 -950 1584 -1140 
Q 1353 -1331 966 -1331 
L 506 -1331 
L 506 -850 
L 844 -850 
Q 1081 -850 1212 -737 
Q 1344 -625 1503 -206 
L 1606 56 
L 191 3500 
L 800 3500 
L 1894 763 
L 2988 3500 
L 3597 3500 
L 2059 -325 
z
" id="DejaVuSans-79" transform="scale(0.015625)"/>
      </defs>
      <use xlink:href="#DejaVuSans-56"/>
      <use x="68.408203" xlink:href="#DejaVuSans-51"/>
      <use x="147.119141" xlink:href="#DejaVuSans-45"/>
      <use x="210.302734" xlink:href="#DejaVuSans-20"/>
      <use x="242.089844" xlink:href="#DejaVuSans-65"/>
      <use x="303.613281" xlink:href="#DejaVuSans-6e"/>
      <use x="366.992188" xlink:href="#DejaVuSans-65"/>
      <use x="428.515625" xlink:href="#DejaVuSans-72"/>
      <use x="467.878906" xlink:href="#DejaVuSans-67"/>
      <use x="531.355469" xlink:href="#DejaVuSans-79"/>
     </g>
    </g>
   </g>
   <g id="line2d_14">
    <path clip-path="url(#pb5674b389a)" d="M 60.358573 84.676175 
L 60.419646 75.204074 
L 60.541791 94.846366 
L 60.663936 86.134723 
L 60.847155 120.168435 
L 60.9693 88.444652 
L 61.091446 116.056681 
L 61.152518 116.822447 
L 61.213591 112.058286 
L 61.274664 127.372278 
L 61.335737 110.43885 
L 61.457882 137.719691 
L 61.518955 133.960264 
L 61.580028 137.063507 
L 61.702173 129.908849 
L 61.824319 136.372239 
L 61.885391 174.829531 
L 62.007537 135.23398 
L 62.06861 176.666638 
L 62.129683 175.648243 
L 62.190755 168.733964 
L 62.251828 177.313229 
L 62.312901 161.249164 
L 62.373973 169.889796 
L 62.435046 168.695259 
L 62.496119 162.037533 
L 62.557192 166.316084 
L 62.618265 195.424773 
L 62.679337 153.785081 
L 62.74041 199.172059 
L 62.801483 196.132938 
L 62.862555 195.651474 
L 62.923628 197.628689 
L 62.984701 195.965177 
L 63.106847 208.44623 
L 63.167919 189.666048 
L 63.228992 200.46988 
L 63.473283 215.643121 
L 63.534356 195.584651 
L 63.595428 210.932945 
L 63.656501 214.167158 
L 63.717574 205.37531 
L 63.778647 213.873265 
L 63.83972 209.260617 
L 63.900792 209.483989 
L 64.084011 226.96646 
L 64.267229 194.087937 
L 64.328301 232.143815 
L 64.389374 210.217581 
L 64.51152 243.098086 
L 64.572592 239.535898 
L 64.694738 260.664721 
L 64.755811 252.260291 
L 64.816884 259.70662 
L 64.877956 220.291166 
L 64.939029 243.243873 
L 65.000102 245.316727 
L 65.061174 255.46649 
L 65.122247 243.90302 
L 65.18332 260.11531 
L 65.244393 253.237494 
L 65.305465 258.08435 
L 65.366538 246.056496 
L 65.427611 255.875259 
L 65.488684 244.635958 
L 65.549757 251.725854 
L 65.610829 261.542532 
L 65.671902 257.318232 
L 65.732975 233.448482 
L 65.794048 257.162471 
L 65.85512 249.730687 
L 65.916193 253.636773 
L 65.977266 235.376757 
L 66.038338 266.098796 
L 66.099411 224.40661 
L 66.160484 257.206415 
L 66.221557 245.605989 
L 66.282629 253.176588 
L 66.343702 255.671848 
L 66.404775 266.14337 
L 66.465848 231.195499 
L 66.526921 259.337652 
L 66.587993 241.107166 
L 66.649066 263.988106 
L 66.710139 248.150339 
L 66.771211 257.484432 
L 66.832284 220.179016 
L 66.893357 272.430801 
L 66.95443 253.153243 
L 67.015502 273.198333 
L 67.076575 254.805795 
L 67.137648 269.255913 
L 67.198721 262.18676 
L 67.259794 275.927976 
L 67.320866 271.605332 
L 67.381939 272.733616 
L 67.443012 262.827749 
L 67.62623 279.615052 
L 67.748375 268.552618 
L 67.809448 282.246345 
L 67.870521 272.944599 
L 68.175885 286.407079 
L 68.236958 279.333688 
L 68.29803 283.880386 
L 68.359103 282.266676 
L 68.420176 287.125538 
L 68.481248 283.248171 
L 68.542321 283.489706 
L 68.664467 287.469485 
L 68.786612 282.062546 
L 68.847685 283.587692 
L 69.030903 295.931424 
L 69.091976 286.782158 
L 69.153049 296.486149 
L 69.214122 295.077101 
L 69.275194 297.215333 
L 69.39734 291.82765 
L 69.458412 298.340233 
L 69.519485 296.879203 
L 69.580558 296.616038 
L 69.824849 308.61028 
L 69.885922 303.223518 
L 70.008067 325.227153 
L 70.06914 322.817637 
L 70.130213 313.926769 
L 70.313431 328.921681 
L 70.374504 327.569865 
L 70.435576 329.694391 
L 70.496649 328.267622 
L 70.557722 328.735952 
L 70.74094 350.304976 
L 70.802013 328.60596 
L 70.863086 343.222702 
L 70.924159 339.071839 
L 71.046304 356.801218 
L 71.107377 352.165596 
L 71.168449 334.982124 
L 71.229522 359.113063 
L 71.290595 354.3052 
L 71.351668 347.8999 
L 71.41274 351.51342 
L 71.534886 361.414456 
L 71.595959 357.06009 
L 71.657032 362.33739 
L 71.718104 359.892739 
L 71.779177 359.877505 
L 71.84025 368.89492 
L 71.901322 357.069092 
L 71.962395 373.448098 
L 72.023468 364.738534 
L 72.267759 385.403384 
L 72.389905 372.126954 
L 72.450977 376.484152 
L 72.51205 391.938603 
L 72.573123 383.833942 
L 72.695268 390.849024 
L 72.756341 389.514016 
L 72.817414 384.994148 
L 72.878486 363.622122 
L 72.939559 375.883088 
L 73.122777 411.517588 
L 73.18385 387.228768 
L 73.244923 410.935288 
L 73.305996 408.638693 
L 73.367069 403.645695 
L 73.489214 425.845084 
L 73.550287 422.451 
L 73.61136 419.925176 
L 73.672432 424.584093 
L 73.733505 422.291394 
L 73.794578 418.058771 
L 73.85565 420.895731 
L 73.916723 424.611292 
L 73.977796 424.148996 
L 74.038869 422.084234 
L 74.099941 422.923944 
L 74.161014 412.529883 
L 74.222087 426.884997 
L 74.28316 396.566493 
L 74.344233 425.292926 
L 74.405305 411.218233 
L 74.649596 435.694585 
L 74.710669 423.200375 
L 74.832814 435.369454 
L 74.893887 425.897529 
L 75.077106 444.536671 
L 75.260324 430.331304 
L 75.321397 444.912931 
L 75.382469 427.670686 
L 75.443542 440.259873 
L 75.504615 428.547147 
L 75.565687 430.325752 
L 75.62676 430.908431 
L 75.748906 442.467232 
L 75.871051 436.549585 
L 75.932124 441.865092 
L 75.993197 438.749693 
L 76.115342 443.365211 
L 76.237488 429.603244 
L 76.298561 435.708019 
L 76.359633 425.030627 
L 76.420706 441.976105 
L 76.481779 418.381775 
L 76.603924 444.766152 
L 76.664997 443.984076 
L 76.72607 431.058518 
L 76.787143 446.1577 
L 76.848215 418.412428 
L 76.970361 447.143989 
L 77.031433 445.560842 
L 77.153579 450.415356 
L 77.214652 448.63254 
L 77.39787 442.008159 
L 77.581088 450.973642 
L 77.642161 451.172879 
L 77.703234 448.973938 
L 77.764307 450.085655 
L 77.886452 452.70383 
L 77.947525 452.24608 
L 78.008598 455.324571 
L 78.06967 451.413244 
L 78.130743 453.992656 
L 78.191816 453.945693 
L 78.313961 462.749557 
L 78.375034 461.111072 
L 78.49718 454.803008 
L 78.680398 464.783215 
L 78.863616 460.488495 
L 78.924689 464.616505 
L 78.985761 462.865381 
L 79.107907 464.220853 
L 79.16898 462.766245 
L 79.352198 470.973555 
L 79.413271 469.417649 
L 79.474344 469.97566 
L 79.535416 469.737126 
L 79.657562 472.165468 
L 79.779707 466.348214 
L 79.84078 469.257272 
L 79.901853 474.746612 
L 79.962925 474.146797 
L 80.146144 472.79549 
L 80.207217 473.701857 
L 80.268289 468.19315 
L 80.329362 475.226407 
L 80.390435 474.04121 
L 80.451508 473.760355 
L 80.51258 469.179684 
L 80.573653 474.437954 
L 80.634726 469.861635 
L 80.817944 476.181047 
L 81.001162 471.397602 
L 81.062235 476.12843 
L 81.123308 473.239014 
L 81.184381 474.578288 
L 81.245453 471.028999 
L 81.306526 475.446886 
L 81.367599 474.404006 
L 81.428672 473.632766 
L 81.550817 475.855745 
L 81.61189 475.650284 
L 81.672962 475.025849 
L 81.734035 472.634424 
L 81.795108 474.537282 
L 82.100472 476.556907 
L 82.161545 475.148432 
L 82.222617 475.862206 
L 82.28369 475.464847 
L 82.344763 475.663747 
L 82.466908 476.573662 
L 82.527981 474.567769 
L 82.589054 476.058669 
L 82.650126 475.501957 
L 82.711199 475.572761 
L 83.138709 478.952799 
L 83.199781 478.288143 
L 83.382999 479.26454 
L 83.444072 478.232961 
L 83.505145 478.472594 
L 83.627291 478.710579 
L 83.688363 478.664309 
L 83.749436 478.002341 
L 83.932654 479.572064 
L 84.115872 478.280091 
L 84.176945 479.242532 
L 84.238018 479.209857 
L 84.360163 478.574317 
L 84.421236 478.852757 
L 84.482309 480.047807 
L 84.543382 478.754662 
L 84.665527 480.38105 
L 84.7266 480.091983 
L 84.787673 480.335009 
L 84.848746 480.459602 
L 84.909818 479.643014 
L 84.970891 479.676227 
L 85.031964 480.480356 
L 85.093036 479.955066 
L 85.154109 480.553204 
L 85.215182 479.575002 
L 85.276255 480.032571 
L 85.337328 479.944784 
L 85.3984 480.003316 
L 85.459473 480.518783 
L 85.520546 480.382088 
L 85.581619 480.039804 
L 85.642691 480.557316 
L 85.703764 480.069133 
L 85.764837 480.277528 
L 85.825909 480.066627 
L 85.886982 480.565384 
L 85.948055 479.27964 
L 86.009128 480.23967 
L 86.0702 479.606585 
L 86.131273 480.99711 
L 86.192346 480.368518 
L 86.253419 480.703686 
L 86.314492 479.895452 
L 86.375564 480.845211 
L 86.436637 480.084808 
L 86.49771 480.790659 
L 86.558783 480.090743 
L 86.619855 481.065604 
L 86.680928 479.990146 
L 86.742001 481.151465 
L 86.803073 480.348501 
L 86.864146 480.946365 
L 86.925219 479.808213 
L 87.108437 481.620295 
L 87.16951 481.370497 
L 87.230583 481.611352 
L 87.291656 481.484862 
L 87.352728 481.57745 
L 87.413801 481.457227 
L 87.474874 481.554838 
L 87.535946 481.803237 
L 87.597019 481.749346 
L 87.658092 481.35616 
L 87.84131 481.8619 
L 87.902383 481.720374 
L 88.024529 481.941963 
L 88.085601 481.630885 
L 88.146674 481.794648 
L 88.207747 482.007594 
L 88.26882 481.894032 
L 88.390965 481.958688 
L 88.452038 481.836557 
L 88.51311 481.916622 
L 88.696329 482.285041 
L 88.757402 482.248567 
L 88.94062 481.89813 
L 89.123838 482.23289 
L 89.245983 482.157963 
L 89.307056 482.347736 
L 89.368129 482.293637 
L 89.61242 482.076412 
L 89.673493 482.501561 
L 89.734566 482.466221 
L 89.795638 482.168563 
L 89.856711 482.350609 
L 89.917784 482.529117 
L 89.978857 482.468969 
L 90.039929 482.424861 
L 90.101002 482.623834 
L 90.162075 482.378486 
L 90.223147 482.434984 
L 90.406366 482.634953 
L 90.467439 482.558477 
L 90.528511 482.287772 
L 90.589584 482.737658 
L 90.650657 482.440102 
L 90.833875 482.708769 
L 90.894948 482.531521 
L 90.95602 482.64539 
L 91.017093 482.82441 
L 91.078166 482.691355 
L 91.139239 482.635531 
L 91.200311 482.795544 
L 91.261384 482.697437 
L 91.322457 482.790369 
L 91.38353 482.56042 
L 91.444603 482.7078 
L 91.566748 482.804812 
L 91.627821 482.424698 
L 91.688894 482.672296 
L 91.749966 482.70693 
L 91.811039 482.888602 
L 91.872112 482.565156 
L 91.933184 482.78898 
L 91.994257 482.609794 
L 92.05533 482.875339 
L 92.116403 482.742545 
L 92.238548 482.897957 
L 92.360694 482.613201 
L 92.543912 482.916376 
L 92.604985 482.547854 
L 92.666057 482.833621 
L 92.849276 482.681885 
L 93.032494 482.938976 
L 93.15464 482.87746 
L 93.337858 482.892565 
L 93.582149 482.917082 
L 93.765367 483.018433 
L 94.376094 482.974721 
L 94.437167 483.028488 
L 94.49824 482.938188 
L 94.803604 483.022888 
L 94.986822 483.164182 
L 95.17004 483.157849 
L 95.231113 483.090125 
L 95.292186 483.158781 
L 95.475404 483.229354 
L 97.124368 483.358812 
L 97.307586 483.286976 
L 97.61295 483.344172 
L 97.674023 483.291346 
L 97.735096 483.363872 
L 98.162605 483.327787 
L 98.467969 483.35902 
L 99.506205 483.419036 
L 100.300151 483.476489 
L 101.094097 483.521231 
L 101.82697 483.579294 
L 102.193407 483.573825 
L 102.559843 483.605351 
L 105.247044 483.694508 
L 105.979917 483.71574 
L 106.285281 483.71195 
L 107.445663 483.746451 
L 107.995318 483.752183 
L 108.422827 483.76613 
L 109.766427 483.784393 
L 111.537537 483.835335 
L 112.148265 483.8675 
L 115.140829 483.945262 
L 116.973012 484.006052 
L 123.446724 484.145699 
L 123.996378 484.161103 
L 124.790324 484.188557 
L 130.714381 484.269749 
L 131.386181 484.288895 
L 138.592765 484.394828 
L 139.814221 484.432104 
L 175.847143 484.868588 
L 177.068598 484.872377 
L 179.267217 484.884217 
L 189.038857 484.953098 
L 201.375553 485.01378 
L 224.094616 485.07523 
L 226.048944 485.0803 
L 289.137094 485.142216 
L 310.329339 485.147898 
L 376.226836 485.15475 
L 530.801966 485.156591 
L 530.801966 485.156591 
" style="fill:none;stroke:#1f77b4;stroke-linecap:square;stroke-width:3;"/>
   </g>
   <g id="line2d_15">
    <path clip-path="url(#pb5674b389a)" d="M 60.358573 187.701233 
L 62.557192 187.701233 
L 62.679337 266.473376 
L 64.816884 266.473376 
L 64.939029 293.704419 
L 67.076575 293.704419 
L 67.198721 359.432431 
L 69.336267 359.432431 
L 69.39734 344.890587 
L 69.519485 385.779603 
L 71.657032 385.779603 
L 71.779177 394.467346 
L 73.916723 394.467346 
L 74.038869 400.437457 
L 76.176415 400.437457 
L 76.298561 404.008441 
L 78.436107 404.008441 
L 78.558252 405.46894 
L 80.695798 405.46894 
L 80.817944 406.270331 
L 82.95549 406.270331 
L 83.077636 406.529782 
L 85.215182 406.529782 
L 85.337328 406.711906 
L 87.474874 406.711906 
L 87.597019 406.880816 
L 94.253949 406.978786 
L 94.437167 407.055703 
L 96.513641 407.055703 
L 96.635786 407.273343 
L 98.773333 407.273343 
L 98.895478 407.507988 
L 101.033024 407.507988 
L 101.15517 407.924686 
L 103.292716 407.924686 
L 103.414862 408.605809 
L 105.552408 408.605809 
L 105.613481 408.287961 
L 105.735626 408.837092 
L 107.873172 408.837092 
L 108.05639 408.958442 
L 110.132864 408.958442 
L 110.316082 409.085069 
L 112.392556 409.085069 
L 112.514701 409.415647 
L 114.652248 409.415647 
L 114.71332 392.111085 
L 114.835466 409.878408 
L 116.973012 409.878408 
L 117.034085 387.953093 
L 117.15623 410.358204 
L 119.293777 410.358204 
L 119.415922 410.710184 
L 121.553468 410.710184 
L 121.675614 414.213843 
L 123.81316 414.213843 
L 123.935305 456.548282 
L 126.072852 456.548282 
L 126.133925 370.006693 
L 126.25607 463.79987 
L 128.393616 463.79987 
L 128.454689 366.647635 
L 128.576835 464.526678 
L 130.714381 464.526678 
L 130.836526 473.24242 
L 132.974073 473.24242 
L 133.096218 480.626968 
L 135.233764 480.626968 
L 135.35591 482.062511 
L 137.493456 482.062511 
L 137.615601 482.602186 
L 139.753148 482.602186 
L 139.875293 482.88572 
L 142.012839 482.88572 
L 142.196058 483.01707 
L 148.791915 483.113121 
L 149.036206 483.148732 
L 153.311298 483.24306 
L 153.555589 483.285342 
L 173.648524 483.378243 
L 173.648524 483.378243 
" style="fill:none;stroke:#ff7f0e;stroke-linecap:square;stroke-width:3;"/>
   </g>
   <g id="line2d_16">
    <path clip-path="url(#pb5674b389a)" d="M 60.358573 78.951266 
L 62.557192 78.951266 
L 62.679337 187.392116 
L 64.816884 187.392117 
L 64.939029 257.816702 
L 67.076575 257.816702 
L 67.198721 297.997062 
L 69.336267 297.997062 
L 69.458412 356.232713 
L 71.595959 356.232712 
L 71.718104 396.16028 
L 73.85565 396.16028 
L 73.977796 414.912148 
L 76.115342 414.912148 
L 76.237488 430.375062 
L 78.375034 430.375062 
L 78.49718 419.263593 
L 80.634726 419.263594 
L 80.756871 447.17678 
L 82.894418 447.17678 
L 83.016563 459.878972 
L 85.154109 459.878973 
L 85.276255 472.902559 
L 87.413801 472.902559 
L 87.535946 470.261924 
L 89.673493 470.261924 
L 89.795638 474.928978 
L 91.933184 474.928978 
L 92.05533 476.256424 
L 94.192876 476.256424 
L 94.315022 477.885609 
L 96.452568 477.885609 
L 96.574714 478.711631 
L 98.71226 478.711631 
L 98.834405 479.554566 
L 100.971952 479.554566 
L 101.094097 480.489075 
L 103.231643 480.489075 
L 103.353789 480.97159 
L 105.491335 480.97159 
L 105.613481 481.351516 
L 114.530102 481.45777 
L 115.507266 481.464936 
L 148.425478 481.475587 
L 148.547624 481.103439 
L 150.68517 481.103439 
L 150.807316 481.476336 
L 168.762704 481.416615 
L 168.88485 481.634822 
L 171.022396 481.634822 
L 171.205614 481.753774 
L 173.282087 481.753774 
L 173.404233 482.177025 
L 175.541779 482.177025 
L 175.663925 482.836001 
L 180.061163 482.855822 
L 180.183308 483.240763 
L 252.371299 483.334078 
L 252.493444 260.721155 
L 254.63099 260.721155 
L 254.753136 483.33408 
L 259.150374 483.334238 
L 259.272519 232.036787 
L 261.410066 232.036787 
L 261.532211 483.334237 
L 265.929449 483.334243 
L 266.051595 298.977598 
L 268.189141 298.977598 
L 268.311286 483.334243 
L 272.708525 483.334258 
L 272.83067 333.672433 
L 274.968216 333.672433 
L 275.090362 483.334259 
L 279.4876 483.334385 
L 279.609745 389.203149 
L 281.747292 389.203149 
L 281.869437 483.334388 
L 284.006983 483.334388 
L 284.129129 328.865742 
L 286.266675 328.865742 
L 286.388821 483.334389 
L 288.526367 483.334389 
L 288.648512 481.549191 
L 290.786059 481.549191 
L 290.908204 483.334426 
L 293.04575 483.334426 
L 293.167896 481.784818 
L 295.305442 481.784818 
L 295.427588 483.334426 
L 297.565134 483.334426 
L 297.687279 481.786096 
L 299.824826 481.786096 
L 299.946971 483.334426 
L 302.084517 483.334426 
L 302.206663 481.805917 
L 304.344209 481.805917 
L 304.466355 483.334426 
L 308.863592 483.334475 
L 308.985738 479.737749 
L 311.123284 479.737749 
L 311.24543 483.334486 
L 313.382976 483.334486 
L 313.505122 479.656044 
L 315.642668 479.656044 
L 315.764813 483.334486 
L 317.90236 483.334486 
L 318.024505 480.201532 
L 320.162051 480.201532 
L 320.284197 483.334486 
L 671.086073 483.380985 
L 671.086073 483.380985 
" style="fill:none;stroke:#2ca02c;stroke-linecap:square;stroke-width:3;"/>
   </g>
   <g id="line2d_17">
    <path clip-path="url(#pb5674b389a)" d="M 60.358573 36.828358 
L 60.419646 40.180872 
L 60.480718 39.359241 
L 60.541791 34.042169 
L 60.602864 43.830737 
L 60.663936 35.648414 
L 60.725009 36.2296 
L 60.847155 33.388409 
L 60.9693 42.238594 
L 61.030373 36.778659 
L 61.091446 37.465042 
L 61.152518 39.814319 
L 61.213591 36.235308 
L 61.274664 39.522175 
L 61.335737 39.241786 
L 61.457882 36.098582 
L 61.518955 38.296304 
L 61.580028 38.225033 
L 61.641101 37.155022 
L 61.702173 39.505529 
L 61.763246 36.665399 
L 61.824319 37.12014 
L 61.885391 36.9317 
L 61.946464 38.817589 
L 62.129683 34.982446 
L 62.190755 38.761744 
L 62.251828 35.800185 
L 62.312901 35.646517 
L 62.373973 43.215793 
L 62.435046 40.357302 
L 62.496119 34.312837 
L 62.557192 36.266033 
L 62.618265 42.682851 
L 62.679337 41.821971 
L 62.862555 42.795288 
L 62.923628 42.000567 
L 62.984701 42.409425 
L 63.045774 42.4285 
L 63.290065 43.771093 
L 63.351138 43.7126 
L 63.41221 43.627768 
L 63.473283 44.12672 
L 63.534356 47.831468 
L 63.595428 44.555667 
L 63.656501 45.342046 
L 63.83972 47.758744 
L 63.961865 46.082703 
L 64.084011 46.990108 
L 64.145083 46.836128 
L 64.206156 48.360645 
L 64.267229 53.897449 
L 64.328301 48.199872 
L 64.389374 48.675187 
L 64.51152 49.221001 
L 64.694738 50.428501 
L 64.755811 50.539755 
L 64.816884 49.183879 
L 64.877956 49.805645 
L 65.244393 51.692727 
L 65.488684 54.622676 
L 65.549757 62.016075 
L 65.671902 54.490464 
L 65.916193 56.54442 
L 65.977266 56.243452 
L 66.099411 56.672492 
L 66.282629 58.220907 
L 66.343702 58.23883 
L 66.526921 59.514335 
L 66.587993 59.050252 
L 66.710139 59.579858 
L 66.771211 59.529091 
L 67.015502 61.729775 
L 67.076575 62.266287 
L 67.137648 68.142532 
L 67.198721 63.519811 
L 67.320866 64.066737 
L 67.504085 65.740852 
L 67.62623 66.459023 
L 67.687303 65.580513 
L 67.992666 68.080881 
L 68.053739 67.221539 
L 68.114812 68.632424 
L 68.175885 75.422545 
L 68.29803 69.37687 
L 68.664467 71.643991 
L 68.725539 71.431617 
L 69.091976 75.938872 
L 69.153049 82.865747 
L 69.214122 76.386661 
L 69.275194 77.573506 
L 69.336267 77.589408 
L 69.39734 77.272138 
L 69.458412 82.016573 
L 69.519485 78.815617 
L 69.641631 79.455707 
L 69.702703 78.826376 
L 69.885922 80.579428 
L 69.946995 80.140198 
L 70.06914 82.647816 
L 70.130213 82.499121 
L 70.191285 80.303565 
L 70.313431 90.45827 
L 70.374504 85.025897 
L 70.435576 85.307395 
L 70.74094 88.153448 
L 70.802013 87.011404 
L 71.046304 99.764716 
L 71.107377 91.933639 
L 71.168449 92.979842 
L 71.41274 91.729022 
L 71.473813 94.402115 
L 71.534886 93.091243 
L 71.962395 97.068189 
L 72.023468 96.111987 
L 72.084541 99.206969 
L 72.145613 97.913815 
L 72.267759 100.996648 
L 72.328832 108.804039 
L 72.389905 100.426831 
L 72.450977 105.797213 
L 72.51205 102.320324 
L 72.573123 103.956437 
L 72.634196 104.036711 
L 72.695268 103.778033 
L 72.756341 105.053476 
L 72.817414 103.861739 
L 73.000632 106.863893 
L 73.061705 106.786411 
L 73.244923 107.933422 
L 73.305996 106.022888 
L 73.550287 116.942177 
L 73.61136 109.859872 
L 73.672432 111.152775 
L 73.733505 110.770011 
L 73.977796 114.042937 
L 74.161014 117.129876 
L 74.222087 125.976417 
L 74.28316 117.14411 
L 74.344233 118.40826 
L 74.405305 118.568821 
L 74.466378 119.128714 
L 74.527451 118.634395 
L 74.588523 107.679685 
L 74.710669 121.536726 
L 74.832814 119.386038 
L 74.95496 121.405211 
L 75.016033 115.492442 
L 75.199251 122.156881 
L 75.260324 120.000599 
L 75.382469 123.915194 
L 75.443542 122.065848 
L 75.504615 124.871977 
L 75.565687 119.281321 
L 75.62676 123.762501 
L 75.748906 134.348429 
L 75.809978 128.766579 
L 75.871051 124.505401 
L 76.05427 131.125088 
L 76.115342 131.698523 
L 76.176415 128.822863 
L 76.237488 130.571284 
L 76.481779 132.637828 
L 76.603924 131.062058 
L 76.664997 132.90234 
L 76.72607 132.563389 
L 76.848215 133.965572 
L 76.909288 130.558136 
L 76.970361 117.847799 
L 77.031433 125.765214 
L 77.153579 138.927999 
L 77.214652 135.843868 
L 77.275724 135.971959 
L 77.336797 136.051799 
L 77.39787 133.876336 
L 77.520015 147.707937 
L 77.642161 136.564468 
L 77.825379 143.18479 
L 77.947525 141.938167 
L 78.130743 144.729831 
L 78.252888 132.542537 
L 78.313961 142.733919 
L 78.375034 142.044352 
L 78.436107 144.295541 
L 78.49718 143.274597 
L 78.74147 146.655039 
L 78.802543 144.829299 
L 78.863616 134.924752 
L 78.924689 147.689214 
L 78.985761 147.249097 
L 79.046834 145.917888 
L 79.107907 139.996915 
L 79.230052 153.210252 
L 79.291125 149.500444 
L 79.352198 149.99567 
L 79.413271 149.081074 
L 79.474344 146.317603 
L 79.535416 150.098301 
L 79.596489 149.620478 
L 79.657562 144.758722 
L 79.84078 153.230781 
L 79.901853 156.672178 
L 79.962925 156.568078 
L 80.023998 154.766116 
L 80.085071 156.282818 
L 80.146144 155.878166 
L 80.207217 144.563041 
L 80.268289 156.110663 
L 80.329362 152.607276 
L 80.390435 152.605398 
L 80.51258 163.728546 
L 80.634726 155.550413 
L 80.817944 160.292914 
L 80.879017 150.530666 
L 80.940089 151.446926 
L 81.001162 158.442477 
L 81.062235 157.958617 
L 81.123308 153.975716 
L 81.184381 159.351844 
L 81.245453 145.843433 
L 81.306526 162.504785 
L 81.367599 158.355943 
L 81.428672 147.550652 
L 81.489744 163.310975 
L 81.550817 159.642593 
L 81.672962 163.310661 
L 81.734035 148.129012 
L 81.795108 162.750613 
L 81.856181 159.856932 
L 81.917254 150.636457 
L 82.039399 172.280058 
L 82.100472 165.811116 
L 82.161545 166.236164 
L 82.222617 166.269646 
L 82.28369 169.248151 
L 82.405835 153.990668 
L 82.589054 167.708462 
L 82.772272 170.899125 
L 82.894418 156.810973 
L 83.016563 171.543416 
L 83.138709 171.490312 
L 83.199781 171.32636 
L 83.260854 168.521928 
L 83.382999 176.010392 
L 83.444072 155.865853 
L 83.505145 164.204061 
L 83.627291 174.262205 
L 83.688363 174.176913 
L 83.749436 173.947864 
L 83.810509 175.698898 
L 83.871582 174.120299 
L 83.993727 181.078265 
L 84.0548 171.200966 
L 84.115872 176.625741 
L 84.176945 177.30794 
L 84.238018 169.500602 
L 84.299091 180.90152 
L 84.360163 171.756637 
L 84.604455 189.91524 
L 84.787673 176.379814 
L 84.848746 180.946276 
L 84.909818 174.56712 
L 84.970891 185.202266 
L 85.031964 182.062175 
L 85.154109 187.343908 
L 85.215182 183.215204 
L 85.276255 185.5223 
L 85.337328 182.764102 
L 85.3984 185.699667 
L 85.459473 179.632361 
L 85.581619 189.43309 
L 85.642691 188.60099 
L 85.703764 185.363297 
L 85.886982 195.915953 
L 86.009128 183.421334 
L 86.131273 195.053312 
L 86.192346 190.369474 
L 86.314492 208.34791 
L 86.49771 190.042171 
L 86.558783 198.863729 
L 86.619855 185.279672 
L 86.680928 192.100151 
L 86.803073 200.731545 
L 86.864146 187.534824 
L 86.925219 196.683781 
L 86.986292 202.437856 
L 87.047365 199.355303 
L 87.108437 199.618801 
L 87.16951 196.963862 
L 87.352728 202.97848 
L 87.413801 203.326904 
L 87.474874 204.945623 
L 87.535946 193.220429 
L 87.597019 205.237975 
L 87.658092 190.841264 
L 87.719165 198.43634 
L 87.84131 208.669735 
L 87.902383 216.089492 
L 87.963456 203.609255 
L 88.024529 206.938663 
L 88.085601 202.185748 
L 88.207747 213.29202 
L 88.26882 208.047627 
L 88.329892 211.869052 
L 88.390965 214.313108 
L 88.51311 208.232206 
L 88.574183 211.320042 
L 88.635256 201.860559 
L 88.757402 212.605505 
L 88.818474 205.744019 
L 89.001693 221.354128 
L 89.062765 219.903592 
L 89.123838 216.754571 
L 89.184911 217.85365 
L 89.245983 218.942912 
L 89.368129 231.75017 
L 89.429202 218.778175 
L 89.490274 221.190268 
L 89.61242 224.976409 
L 89.673493 220.283218 
L 89.734566 225.505789 
L 89.795638 209.697273 
L 89.917784 224.520695 
L 89.978857 217.549251 
L 90.101002 230.120117 
L 90.162075 223.666711 
L 90.28422 245.096986 
L 90.467439 220.250787 
L 90.528511 236.452524 
L 90.589584 235.878853 
L 90.650657 236.187889 
L 90.833875 223.647469 
L 91.017093 237.616362 
L 91.078166 239.814776 
L 91.139239 236.828789 
L 91.38353 256.338453 
L 91.444603 239.556926 
L 91.505675 246.0252 
L 91.688894 235.632414 
L 91.811039 240.941825 
L 91.872112 233.929793 
L 92.05533 252.385799 
L 92.116403 251.971765 
L 92.177475 235.441314 
L 92.238548 250.293998 
L 92.299621 250.021107 
L 92.360694 247.773831 
L 92.421767 253.867094 
L 92.482839 253.441872 
L 92.543912 249.81019 
L 92.666057 270.80616 
L 92.788203 248.981165 
L 92.849276 262.823099 
L 92.910348 252.844281 
L 92.971421 263.251178 
L 93.032494 253.710482 
L 93.093567 264.313025 
L 93.15464 261.491668 
L 93.215712 249.676874 
L 93.337858 267.240223 
L 93.398931 263.920425 
L 93.582149 266.769336 
L 93.643222 265.218312 
L 93.704294 266.137628 
L 93.765367 270.537385 
L 93.82644 265.187555 
L 93.948585 278.759379 
L 94.009658 270.153308 
L 94.070731 274.648362 
L 94.131804 270.085562 
L 94.192876 252.105659 
L 94.253949 276.807278 
L 94.315022 275.272453 
L 94.437167 271.611533 
L 94.49824 260.461633 
L 94.559313 265.282247 
L 94.742531 279.763058 
L 94.803604 277.263286 
L 94.864677 280.476674 
L 94.925749 276.281272 
L 94.986822 262.459767 
L 95.17004 283.375024 
L 95.231113 280.844008 
L 95.292186 272.32479 
L 95.475404 287.85784 
L 95.536477 291.400798 
L 95.658622 269.268498 
L 95.719695 284.371054 
L 95.780768 260.437744 
L 95.841841 273.926728 
L 95.902913 284.743783 
L 95.963986 281.09076 
L 96.025059 284.542394 
L 96.086131 282.734845 
L 96.147204 282.980973 
L 96.208277 284.673403 
L 96.330422 272.044976 
L 96.452568 286.676346 
L 96.574714 281.870848 
L 96.635786 278.933485 
L 96.696859 281.934767 
L 96.819005 297.748656 
L 96.880077 284.678207 
L 96.94115 293.815884 
L 97.063296 277.65366 
L 97.124368 281.55272 
L 97.185441 290.321613 
L 97.246514 266.238391 
L 97.307586 284.422334 
L 97.368659 284.151858 
L 97.429732 288.778192 
L 97.490805 281.224537 
L 97.551878 283.349214 
L 97.61295 284.624692 
L 97.674023 283.232046 
L 97.735096 295.371371 
L 97.796168 286.904987 
L 97.857241 294.655713 
L 97.918314 279.014622 
L 97.979387 288.52207 
L 98.040459 287.339704 
L 98.101532 294.311032 
L 98.162605 276.684809 
L 98.223678 289.006524 
L 98.467969 310.099465 
L 98.590114 280.829748 
L 98.71226 296.114446 
L 98.773333 280.513178 
L 98.834405 291.215192 
L 98.956551 302.846682 
L 99.078696 289.120109 
L 99.139769 297.575452 
L 99.200842 285.232112 
L 99.322987 300.894454 
L 99.38406 299.447251 
L 99.445133 294.782741 
L 99.506205 306.095509 
L 99.567278 297.884843 
L 99.628351 298.810684 
L 99.689424 297.41256 
L 99.750496 305.781501 
L 99.811569 292.372474 
L 99.872642 307.727005 
L 99.933715 292.442486 
L 99.994788 304.139775 
L 100.178006 296.61228 
L 100.239079 308.554105 
L 100.300151 308.313981 
L 100.361224 298.768811 
L 100.48337 319.164946 
L 100.544442 300.07947 
L 100.605515 301.603917 
L 100.666588 310.90821 
L 100.72766 310.707023 
L 100.788733 311.568643 
L 100.849806 298.741669 
L 100.910879 299.527196 
L 100.971952 313.284281 
L 101.033024 304.135482 
L 101.094097 314.131411 
L 101.15517 309.55632 
L 101.216242 315.28816 
L 101.338388 306.567612 
L 101.460533 317.299797 
L 101.521606 299.93833 
L 101.582679 310.633239 
L 101.643752 315.755856 
L 101.765897 308.050643 
L 101.82697 311.136057 
L 101.888043 307.762969 
L 102.071261 323.095179 
L 102.193407 303.41968 
L 102.315552 325.779779 
L 102.376625 313.192275 
L 102.437697 321.781352 
L 102.49877 321.200132 
L 102.620916 311.532806 
L 102.743061 330.489662 
L 102.804134 310.697346 
L 102.865207 311.862477 
L 102.926279 326.198545 
L 102.987352 326.066059 
L 103.109498 321.728267 
L 103.17057 328.214271 
L 103.292716 308.763248 
L 103.414862 332.989904 
L 103.59808 311.645916 
L 103.720225 329.985495 
L 103.781298 326.455837 
L 103.903444 312.122164 
L 104.086662 332.712755 
L 104.26988 308.687361 
L 104.453098 329.50055 
L 104.514171 317.780789 
L 104.575244 324.964543 
L 104.697389 343.436219 
L 104.880607 323.593109 
L 105.002753 348.267708 
L 105.063826 334.217607 
L 105.124899 334.43583 
L 105.247044 342.654219 
L 105.36919 330.001742 
L 105.430262 338.201373 
L 105.491335 337.510803 
L 105.613481 321.521525 
L 105.796699 341.021552 
L 105.918844 327.989157 
L 105.979917 332.456686 
L 106.04099 327.548181 
L 106.163135 344.402853 
L 106.285281 341.530856 
L 106.346353 343.634997 
L 106.407426 335.231775 
L 106.468499 338.416988 
L 106.529572 338.010115 
L 106.590644 329.444755 
L 106.651717 334.83088 
L 106.71279 333.441463 
L 106.773863 335.620105 
L 106.896008 345.266595 
L 107.018154 330.257708 
L 107.079227 346.961723 
L 107.140299 345.393538 
L 107.201372 326.723307 
L 107.38459 344.983075 
L 107.506736 343.268955 
L 107.628881 332.116927 
L 107.689954 342.862612 
L 107.751027 341.534644 
L 107.8121 343.78254 
L 107.873172 353.960892 
L 107.934245 351.831475 
L 108.05639 335.232666 
L 108.117463 341.813778 
L 108.178536 331.741137 
L 108.361754 352.744735 
L 108.422827 350.998465 
L 108.606045 336.538266 
L 108.667118 341.920915 
L 108.728191 336.356695 
L 108.850336 351.375964 
L 108.911409 346.191721 
L 108.972482 349.111462 
L 109.033555 346.538879 
L 109.094627 352.885163 
L 109.216773 341.1551 
L 109.277845 355.850551 
L 109.338918 351.981412 
L 109.399991 352.578685 
L 109.461064 342.135998 
L 109.522137 353.933339 
L 109.583209 340.173698 
L 109.644282 350.288817 
L 109.705355 341.057587 
L 109.766427 349.939651 
L 109.949646 338.869855 
L 110.071791 352.641514 
L 110.132864 341.555255 
L 110.193937 350.539982 
L 110.316082 341.764504 
L 110.438228 355.926237 
L 110.560373 342.543057 
L 110.682519 353.283852 
L 110.804664 349.659527 
L 110.865737 351.252496 
L 110.92681 350.043276 
L 111.048955 352.733165 
L 111.110028 351.229401 
L 111.171101 357.832736 
L 111.232174 351.095805 
L 111.293246 355.411236 
L 111.354319 357.793896 
L 111.415392 352.920426 
L 111.476464 361.021185 
L 111.537537 357.0997 
L 111.659683 346.407565 
L 111.842901 365.201979 
L 112.026119 350.239792 
L 112.087192 361.814711 
L 112.148265 353.981958 
L 112.209338 352.370008 
L 112.27041 354.010094 
L 112.331483 361.906164 
L 112.453629 349.639115 
L 112.636847 362.268947 
L 112.758992 363.868013 
L 112.820065 363.502941 
L 112.881138 353.116482 
L 112.942211 355.116398 
L 113.125429 358.917789 
L 113.186501 359.209627 
L 113.247574 358.389774 
L 113.308647 352.682378 
L 113.430792 361.778107 
L 113.491865 353.594897 
L 113.552938 359.852037 
L 113.614011 362.065859 
L 113.675083 361.086642 
L 113.797229 356.537417 
L 113.858302 367.007128 
L 113.919375 362.396382 
L 113.980447 355.719442 
L 114.102593 365.446551 
L 114.285811 354.525558 
L 114.407957 368.719494 
L 114.469029 364.491833 
L 114.530102 364.683004 
L 114.591175 365.639679 
L 114.652248 356.162967 
L 114.71332 371.48182 
L 114.774393 370.969374 
L 114.835466 372.018257 
L 114.896538 371.524183 
L 114.957611 356.81645 
L 115.018684 359.320749 
L 115.140829 362.318716 
L 115.201902 357.041323 
L 115.446193 377.402012 
L 115.507266 364.42156 
L 115.568339 372.154992 
L 115.629412 365.947706 
L 115.690484 371.882741 
L 115.751557 370.340553 
L 115.873703 359.610697 
L 115.934775 367.331999 
L 115.995848 367.124192 
L 116.056921 365.676782 
L 116.117994 370.428653 
L 116.179066 362.628188 
L 116.240139 368.813848 
L 116.301212 363.884806 
L 116.362285 368.376719 
L 116.423357 363.490096 
L 116.667648 380.215968 
L 116.728721 364.709199 
L 116.789794 370.639828 
L 116.850866 378.354421 
L 116.911939 368.76124 
L 116.973012 369.831282 
L 117.034085 367.181854 
L 117.095157 378.597555 
L 117.217303 367.426812 
L 117.339449 381.180408 
L 117.522667 370.074564 
L 117.58374 371.830527 
L 117.644812 371.451968 
L 117.705885 381.649462 
L 117.766958 380.647311 
L 117.828031 375.950028 
L 117.889103 382.469525 
L 117.950176 381.34249 
L 118.011249 381.444788 
L 118.072322 372.665783 
L 118.133394 373.424073 
L 118.194467 372.688007 
L 118.25554 380.610199 
L 118.316612 376.226 
L 118.377685 371.956566 
L 118.438758 384.698873 
L 118.499831 382.918519 
L 118.621976 372.855091 
L 118.683049 380.513706 
L 118.744122 373.274508 
L 118.805194 384.566355 
L 118.866267 372.205295 
L 118.92734 375.649024 
L 118.988413 376.280153 
L 119.110558 383.33299 
L 119.171631 381.360691 
L 119.232704 381.106913 
L 119.293777 370.616607 
L 119.415922 386.959296 
L 119.476995 384.035174 
L 119.538068 379.422851 
L 119.59914 385.221478 
L 119.660213 383.183768 
L 119.721286 383.239363 
L 119.782359 387.327831 
L 119.843431 380.87952 
L 119.904504 388.034571 
L 120.02665 379.521149 
L 120.087722 380.318545 
L 120.148795 384.412962 
L 120.209868 382.619868 
L 120.27094 382.249847 
L 120.332013 385.730164 
L 120.393086 381.903926 
L 120.454159 390.905382 
L 120.515231 385.55951 
L 120.637377 378.648165 
L 120.69845 386.735416 
L 120.759523 384.966927 
L 120.820595 383.930589 
L 120.881668 391.490343 
L 120.942741 386.289028 
L 121.003814 392.246397 
L 121.064886 388.331247 
L 121.125959 390.983423 
L 121.187032 378.956082 
L 121.248105 386.729555 
L 121.37025 381.551294 
L 121.553468 393.707637 
L 121.614541 390.747184 
L 121.675614 380.21204 
L 121.736687 387.824473 
L 121.797759 390.225128 
L 121.858832 389.735364 
L 121.919905 387.940622 
L 121.980977 388.585312 
L 122.04205 392.123985 
L 122.103123 391.760844 
L 122.164196 384.42818 
L 122.286341 405.635753 
L 122.347414 384.416567 
L 122.408487 387.699815 
L 122.46956 386.69557 
L 122.530632 392.021129 
L 122.591705 383.357769 
L 122.652778 388.475925 
L 122.774923 394.680678 
L 122.835996 384.399935 
L 122.897069 387.360676 
L 122.958142 387.607895 
L 123.019214 383.069401 
L 123.080287 392.01467 
L 123.14136 383.92477 
L 123.202433 391.877578 
L 123.263505 386.485626 
L 123.324578 383.175531 
L 123.507796 399.484804 
L 123.568869 389.531863 
L 123.629942 398.486348 
L 123.752087 387.633072 
L 123.81316 395.82932 
L 123.874233 385.714023 
L 123.935305 393.739967 
L 124.118524 401.609719 
L 124.179597 400.663548 
L 124.240669 387.353439 
L 124.301742 394.878335 
L 124.423888 389.588465 
L 124.48496 391.58679 
L 124.546033 401.245957 
L 124.607106 388.716868 
L 124.668178 394.552773 
L 124.729251 402.084375 
L 124.91247 389.580568 
L 124.973542 392.895383 
L 125.034615 387.961757 
L 125.095688 396.976434 
L 125.156761 390.939848 
L 125.339979 402.484985 
L 125.401052 402.013456 
L 125.462124 390.450627 
L 125.523197 397.928512 
L 125.58427 402.089103 
L 125.706415 394.676744 
L 125.889634 406.184755 
L 125.950706 405.413221 
L 126.011779 402.272351 
L 126.072852 406.921 
L 126.133925 405.360933 
L 126.194997 400.034362 
L 126.25607 406.516558 
L 126.317143 395.342217 
L 126.378215 401.995699 
L 126.439288 397.86872 
L 126.622507 408.798456 
L 126.683579 406.300147 
L 126.805725 400.05651 
L 126.92787 409.906114 
L 126.988943 407.964088 
L 127.050016 396.745172 
L 127.172161 406.27115 
L 127.233234 407.465876 
L 127.355379 398.600552 
L 127.477525 410.967924 
L 127.538598 408.146438 
L 127.599671 401.530474 
L 127.660743 411.474233 
L 127.721816 409.284084 
L 127.782889 405.585233 
L 127.843962 411.171902 
L 127.905034 400.656477 
L 127.966107 409.147113 
L 128.088253 421.289838 
L 128.271471 404.703549 
L 128.332543 403.213021 
L 128.393616 411.662641 
L 128.454689 411.337465 
L 128.576835 402.916581 
L 128.69898 415.402455 
L 128.821125 408.858225 
L 128.882198 410.569435 
L 128.943271 415.714546 
L 129.004344 414.495816 
L 129.065416 413.788679 
L 129.248635 407.233312 
L 129.431853 420.171228 
L 129.492926 408.686793 
L 129.553999 409.93341 
L 129.615071 408.062836 
L 129.676144 419.964945 
L 129.737217 413.320207 
L 129.859362 419.301871 
L 129.981508 414.871339 
L 130.04258 421.519685 
L 130.103653 418.791301 
L 130.164726 422.614195 
L 130.225799 421.688879 
L 130.286872 408.545975 
L 130.347944 413.152976 
L 130.409017 420.554694 
L 130.531162 407.446783 
L 130.714381 421.482224 
L 130.775453 416.246189 
L 130.836526 417.698745 
L 130.897599 419.999169 
L 131.019745 416.133446 
L 131.080817 417.079172 
L 131.14189 424.409406 
L 131.202963 422.771171 
L 131.264036 413.174883 
L 131.325108 419.944248 
L 131.386181 424.143465 
L 131.447254 422.650137 
L 131.508327 421.248201 
L 131.569399 427.074268 
L 131.630472 425.386995 
L 131.691545 419.802813 
L 131.752617 427.986475 
L 131.81369 426.746247 
L 131.935836 420.278449 
L 131.996909 421.913997 
L 132.119054 416.466012 
L 132.302272 427.681725 
L 132.363345 427.45381 
L 132.424418 423.479678 
L 132.48549 428.940736 
L 132.546563 424.402186 
L 132.607636 429.552866 
L 132.729782 424.275455 
L 132.790854 431.644887 
L 132.851927 430.427867 
L 133.035145 418.391684 
L 133.218364 429.721974 
L 133.340509 418.582878 
L 133.523727 432.921595 
L 133.5848 431.624616 
L 133.706946 423.115061 
L 133.951236 433.972661 
L 134.012309 431.943896 
L 134.073382 419.337038 
L 134.134455 427.73167 
L 134.195527 430.967446 
L 134.378746 425.527421 
L 134.439819 435.147735 
L 134.500891 432.748765 
L 134.561964 430.619696 
L 134.68411 436.444159 
L 134.745182 434.817903 
L 134.806255 435.832864 
L 134.867328 433.739796 
L 134.928401 426.301228 
L 134.989473 427.993744 
L 135.111619 436.273196 
L 135.172691 430.245676 
L 135.233764 437.154311 
L 135.294837 433.180165 
L 135.478055 428.466604 
L 135.600201 429.72274 
L 135.661273 437.494304 
L 135.722346 432.908083 
L 135.783419 432.154885 
L 135.844492 425.66206 
L 135.905564 433.108857 
L 135.966637 431.745418 
L 136.02771 431.82774 
L 136.088783 439.498215 
L 136.149856 438.075803 
L 136.210928 429.422364 
L 136.272001 433.27841 
L 136.455219 441.429658 
L 136.516292 440.76661 
L 136.638438 432.928667 
L 136.69951 434.058541 
L 136.760583 438.532116 
L 136.821656 430.102554 
L 136.882728 431.749783 
L 136.943801 440.402803 
L 137.004874 433.535766 
L 137.065947 431.043016 
L 137.249165 444.108779 
L 137.310238 444.17462 
L 137.432383 430.945439 
L 137.493456 437.011356 
L 137.554529 436.348361 
L 137.615601 430.428158 
L 137.737747 439.336004 
L 137.79882 431.679854 
L 137.920965 446.472561 
L 137.982038 432.020796 
L 138.043111 438.063581 
L 138.104184 434.0128 
L 138.165256 439.796017 
L 138.226329 435.786569 
L 138.287402 429.623162 
L 138.47062 445.70394 
L 138.531693 437.981165 
L 138.592765 446.25609 
L 138.653838 442.99918 
L 138.775984 438.868936 
L 138.898129 445.350237 
L 138.959202 437.926351 
L 139.020275 442.952096 
L 139.14242 439.81043 
L 139.203493 446.751019 
L 139.264566 440.89284 
L 139.325638 442.511033 
L 139.386711 440.099782 
L 139.508857 446.950572 
L 139.56993 440.087535 
L 139.631002 440.131541 
L 139.692075 450.331815 
L 139.753148 449.037357 
L 139.875293 440.450167 
L 139.997439 451.162937 
L 140.058512 449.143415 
L 140.119584 441.929746 
L 140.180657 449.950039 
L 140.24173 444.241788 
L 140.363875 446.049379 
L 140.424948 443.900695 
L 140.669239 450.845141 
L 140.852457 444.789058 
L 140.91353 445.916822 
L 140.974603 442.593303 
L 141.035675 445.850038 
L 141.096748 442.021571 
L 141.157821 452.941734 
L 141.218894 446.194363 
L 141.341039 450.566684 
L 141.402112 455.434237 
L 141.463185 453.031081 
L 141.58533 442.599349 
L 141.646403 445.223925 
L 141.707476 445.624501 
L 141.768549 442.424709 
L 141.890694 450.803812 
L 141.951767 448.611656 
L 142.012839 452.200785 
L 142.073912 445.877503 
L 142.134985 446.156206 
L 142.196058 446.279956 
L 142.257131 451.82582 
L 142.318203 447.878999 
L 142.379276 452.345517 
L 142.440349 445.303491 
L 142.501421 451.188643 
L 142.562494 451.064436 
L 142.623567 450.168079 
L 142.68464 444.627794 
L 142.806785 455.153865 
L 142.867858 445.332271 
L 142.928931 451.917826 
L 143.051076 447.237592 
L 143.173222 450.534944 
L 143.234295 446.806973 
L 143.295367 455.825915 
L 143.35644 450.363407 
L 143.417513 446.519372 
L 143.478586 451.522858 
L 143.539658 447.045108 
L 143.600731 447.380295 
L 143.661804 456.643398 
L 143.722876 451.997634 
L 143.783949 448.071616 
L 143.845022 455.369678 
L 143.906095 446.704685 
L 143.967168 453.193967 
L 144.089313 448.18594 
L 144.150386 447.926962 
L 144.211458 451.366052 
L 144.272531 447.876829 
L 144.333604 453.477479 
L 144.394677 447.9066 
L 144.455749 453.529125 
L 144.516822 446.443734 
L 144.577895 453.664214 
L 144.638968 447.964258 
L 144.700041 453.536016 
L 144.761113 447.731161 
L 144.822186 453.63201 
L 144.883259 447.886894 
L 144.944332 453.651135 
L 145.005404 450.462177 
L 145.066477 450.40555 
L 145.12755 456.104936 
L 145.188623 450.807661 
L 145.249695 453.889237 
L 145.310768 457.726159 
L 145.371841 454.56344 
L 145.432913 457.529499 
L 145.493986 452.055819 
L 145.555059 458.017217 
L 145.616132 454.85892 
L 145.677205 450.541998 
L 145.738277 452.766769 
L 145.79935 449.981536 
L 145.860423 455.102227 
L 145.921495 451.277037 
L 145.982568 450.700695 
L 146.043641 453.678195 
L 146.104714 450.403809 
L 146.165786 455.203008 
L 146.226859 454.533449 
L 146.287932 450.964982 
L 146.349005 458.017474 
L 146.410077 454.157063 
L 146.47115 451.430461 
L 146.532223 452.582362 
L 146.654369 459.729016 
L 146.715441 457.820629 
L 146.837587 450.560425 
L 146.89866 455.972163 
L 146.959732 451.402422 
L 147.020805 455.880556 
L 147.081878 452.426896 
L 147.14295 452.160018 
L 147.326169 459.445973 
L 147.448314 452.546899 
L 147.509387 455.820703 
L 147.57046 454.292352 
L 147.692605 452.029505 
L 147.753678 456.752503 
L 147.814751 453.757676 
L 147.875823 453.621849 
L 147.936896 452.606583 
L 148.059042 457.155754 
L 148.120114 457.556585 
L 148.181187 460.068989 
L 148.24226 457.876092 
L 148.303333 459.328629 
L 148.364406 460.253976 
L 148.486551 454.274538 
L 148.669769 461.027549 
L 148.852987 455.085825 
L 148.91406 456.241642 
L 148.975133 455.531181 
L 149.036206 456.169364 
L 149.097279 456.052304 
L 149.158351 453.970397 
L 149.280497 459.817876 
L 149.341569 458.480024 
L 149.402642 462.158283 
L 149.463715 461.143857 
L 149.58586 455.764015 
L 149.646933 457.501703 
L 149.708006 458.34051 
L 149.830151 455.454126 
L 149.891224 459.293377 
L 149.952297 455.823215 
L 150.01337 456.853546 
L 150.074443 456.3365 
L 150.196588 461.478174 
L 150.379806 456.039465 
L 150.501952 460.654481 
L 150.624097 455.721192 
L 150.807316 462.858562 
L 150.868388 461.483962 
L 150.929461 455.953779 
L 150.990534 460.267611 
L 151.051606 460.58649 
L 151.112679 457.700139 
L 151.234825 462.820429 
L 151.35697 457.025579 
L 151.418043 460.553488 
L 151.479116 457.194669 
L 151.540188 460.597139 
L 151.601261 458.15475 
L 151.78448 461.222002 
L 151.845552 458.128237 
L 151.906625 462.795177 
L 151.967698 457.363022 
L 152.028771 461.107871 
L 152.089843 462.360076 
L 152.273061 458.27579 
L 152.334134 458.936511 
L 152.395207 458.407804 
L 152.45628 459.047793 
L 152.517353 458.139946 
L 152.700571 462.952817 
L 152.822716 458.43171 
L 152.883789 461.680862 
L 152.944862 459.113294 
L 153.005935 458.191427 
L 153.067007 461.777728 
L 153.12808 459.007821 
L 153.250225 463.055699 
L 153.311298 460.643781 
L 153.372371 462.554595 
L 153.433444 461.997187 
L 153.494517 459.551589 
L 153.555589 461.102477 
L 153.616662 459.626363 
L 153.677735 460.191332 
L 153.738808 462.155595 
L 153.860953 459.003455 
L 153.922026 462.189201 
L 153.983098 459.577717 
L 154.105244 463.775994 
L 154.166317 461.982766 
L 154.349535 464.200079 
L 154.532753 460.641561 
L 154.715972 464.053151 
L 154.838117 463.697226 
L 154.89919 462.15592 
L 154.960262 463.833831 
L 155.021335 461.328365 
L 155.082408 462.754909 
L 155.143481 461.549321 
L 155.204554 461.821048 
L 155.265626 464.338527 
L 155.326699 461.621362 
L 155.387772 461.74857 
L 155.448845 464.19699 
L 155.509917 462.236188 
L 155.57099 462.10293 
L 155.693135 466.175792 
L 155.876354 461.319664 
L 155.998499 465.806001 
L 156.059572 464.870516 
L 156.120645 462.290376 
L 156.181717 466.438584 
L 156.24279 466.321853 
L 156.303863 463.123702 
L 156.364936 463.676189 
L 156.487081 462.22459 
L 156.792445 466.349931 
L 156.853518 462.780755 
L 156.914591 463.982763 
L 156.975663 463.791234 
L 157.036736 464.382698 
L 157.097809 466.763416 
L 157.158882 465.788561 
L 157.3421 463.504471 
L 157.403172 464.884848 
L 157.464245 462.979663 
L 157.525318 465.944959 
L 157.586391 463.03411 
L 157.647464 466.53384 
L 157.769609 462.658643 
L 157.891754 467.131046 
L 158.074973 464.056703 
L 158.136046 465.025667 
L 158.197118 464.596938 
L 158.258191 464.793791 
L 158.319264 464.056585 
L 158.380336 467.738785 
L 158.441409 467.20939 
L 158.502482 464.014118 
L 158.563555 466.153452 
L 158.624628 465.150703 
L 158.746773 468.132481 
L 158.807846 467.630262 
L 158.868919 464.940635 
L 158.991064 467.89195 
L 159.052137 464.670607 
L 159.113209 465.020113 
L 159.174282 467.991042 
L 159.296428 464.75073 
L 159.418573 467.89619 
L 159.479646 465.604002 
L 159.540719 467.052711 
L 159.723937 465.109897 
L 159.78501 466.961599 
L 159.846083 465.001704 
L 160.029301 467.66113 
L 160.212519 465.704224 
L 160.273592 466.114336 
L 160.334665 467.742312 
L 160.45681 466.173118 
L 160.578956 468.40305 
L 160.640028 465.582521 
L 160.701101 466.011344 
L 160.762174 465.095059 
L 160.884319 469.073299 
L 160.945392 467.410861 
L 161.006465 469.58677 
L 161.067538 468.93059 
L 161.12861 467.138233 
L 161.189683 468.266399 
L 161.250756 468.063002 
L 161.311828 466.422382 
L 161.372901 466.950656 
L 161.433974 466.801743 
L 161.495047 465.879488 
L 161.617192 468.176143 
L 161.678265 466.410813 
L 161.739338 467.38099 
L 161.80041 469.493022 
L 161.861483 467.028246 
L 161.922556 470.003985 
L 161.983629 469.13957 
L 162.105774 466.508382 
L 162.166847 470.044262 
L 162.22792 468.999934 
L 162.288993 466.721459 
L 162.350065 469.508582 
L 162.411138 466.549445 
L 162.472211 468.611239 
L 162.533283 466.571369 
L 162.594356 468.639663 
L 162.655429 467.570572 
L 162.716502 466.637588 
L 162.89972 470.08999 
L 163.021865 467.569165 
L 163.082938 468.02901 
L 163.144011 467.226985 
L 163.205084 467.996881 
L 163.266157 467.2456 
L 163.327229 467.269657 
L 163.388302 470.371451 
L 163.449375 469.403802 
L 163.57152 468.82477 
L 163.632593 467.20084 
L 163.693666 469.106413 
L 163.754739 466.965414 
L 163.815811 469.157049 
L 163.876884 467.450106 
L 163.937957 467.649353 
L 163.99903 467.192693 
L 164.121175 469.442168 
L 164.182248 467.47274 
L 164.24332 469.269281 
L 164.304393 467.242642 
L 164.365466 469.30894 
L 164.426539 467.431573 
L 164.609757 469.982848 
L 164.67083 467.903301 
L 164.731902 468.890158 
L 164.792975 470.555558 
L 164.854048 469.552172 
L 164.915121 469.56631 
L 164.976194 470.327289 
L 165.037266 468.130916 
L 165.098339 470.246636 
L 165.159412 467.85509 
L 165.220484 469.649809 
L 165.281557 468.312496 
L 165.34263 469.809783 
L 165.403703 468.695102 
L 165.464776 467.859223 
L 165.647994 470.820238 
L 165.831212 468.83202 
L 165.892285 468.305819 
L 166.075503 470.722958 
L 166.136576 471.064637 
L 166.197649 469.998035 
L 166.258721 471.325036 
L 166.319794 470.598263 
L 166.380867 469.046172 
L 166.441939 469.479464 
L 166.503012 469.465323 
L 166.564085 469.062069 
L 166.625158 469.683815 
L 166.686231 469.626648 
L 166.747303 468.825268 
L 166.808376 470.374347 
L 166.869449 469.11192 
L 166.991594 471.319525 
L 167.052667 469.256913 
L 167.11374 471.484262 
L 167.174813 470.83473 
L 167.235885 471.164188 
L 167.296958 469.412208 
L 167.419104 471.544363 
L 167.480176 470.650991 
L 167.541249 471.61823 
L 167.663395 469.547147 
L 167.724467 470.424327 
L 167.846613 469.747553 
L 167.907686 471.104056 
L 167.968758 470.325416 
L 168.029831 469.836109 
L 168.090904 470.257624 
L 168.151976 471.844159 
L 168.213049 471.030902 
L 168.274122 469.877799 
L 168.335195 470.267759 
L 168.396268 472.044404 
L 168.45734 471.365812 
L 168.579486 470.103872 
L 168.640558 471.815794 
L 168.701631 470.462603 
L 168.823777 469.771776 
L 168.945922 472.3905 
L 169.006995 472.184905 
L 169.068068 471.830361 
L 169.129141 470.487899 
L 169.251286 472.316172 
L 169.434504 470.339474 
L 169.495577 471.259391 
L 169.55665 470.951128 
L 169.617723 470.879091 
L 169.678795 471.050901 
L 169.739868 470.762197 
L 169.800941 470.883134 
L 169.862013 470.852416 
L 169.923086 471.769037 
L 169.984159 470.450197 
L 170.106305 472.703952 
L 170.289523 470.723319 
L 170.472741 473.019722 
L 170.533814 472.654067 
L 170.717032 470.698872 
L 170.90025 472.610626 
L 171.022396 470.792842 
L 171.083469 472.105882 
L 171.144541 471.041652 
L 171.205614 471.164913 
L 171.266687 470.813377 
L 171.449905 472.452091 
L 171.57205 471.285044 
L 171.633123 472.877214 
L 171.755269 471.189671 
L 171.816342 473.38948 
L 171.877414 473.346987 
L 171.938487 471.241134 
L 171.99956 471.522082 
L 172.121705 471.129855 
L 172.182778 472.344604 
L 172.243851 471.322466 
L 172.304924 471.484121 
L 172.365996 471.598757 
L 172.427069 471.28309 
L 172.549215 472.868052 
L 172.610287 471.516789 
L 172.67136 472.832784 
L 172.732433 472.779871 
L 172.854578 471.653788 
L 172.915651 473.006989 
L 173.037797 471.637123 
L 173.098869 471.536075 
L 173.221015 472.947928 
L 173.282087 472.015383 
L 173.34316 472.058787 
L 173.404233 473.04754 
L 173.465306 471.628237 
L 173.526379 472.675471 
L 173.709597 471.800592 
L 173.831742 473.112017 
L 173.892815 472.77647 
L 173.953888 471.949682 
L 174.014961 473.38709 
L 174.076033 472.691483 
L 174.137106 473.079671 
L 174.320324 471.910459 
L 174.44247 473.426909 
L 174.564615 472.162402 
L 174.625688 473.599847 
L 174.686761 472.855098 
L 174.808906 472.322215 
L 174.869979 472.431062 
L 174.931052 473.704322 
L 174.992124 472.97347 
L 175.053197 472.190305 
L 175.11427 474.083547 
L 175.175343 474.060498 
L 175.297488 472.213636 
L 175.419634 473.236501 
L 175.480706 472.467827 
L 175.541779 473.035311 
L 175.602852 474.037478 
L 175.663925 474.023391 
L 175.724998 474.046866 
L 175.908216 472.468324 
L 175.969289 472.924915 
L 176.030361 472.370591 
L 176.091434 473.419239 
L 176.152507 472.838431 
L 176.21358 473.033808 
L 176.274652 474.299394 
L 176.335725 474.18797 
L 176.457871 472.984215 
L 176.518943 474.314877 
L 176.580016 474.044117 
L 176.641089 473.27379 
L 176.702161 473.986151 
L 176.763234 472.944217 
L 176.824307 473.316798 
L 176.88538 473.83655 
L 177.068598 472.950134 
L 177.190743 474.111704 
L 177.251816 472.795187 
L 177.312889 473.785356 
L 177.373962 474.615394 
L 177.435035 474.577126 
L 177.496107 472.890118 
L 177.55718 473.809907 
L 177.618253 474.202411 
L 177.679326 473.185673 
L 177.740398 473.193844 
L 177.862544 474.162571 
L 177.923617 473.415895 
L 177.984689 473.978977 
L 178.045762 474.340686 
L 178.167908 473.475317 
L 178.351126 474.869207 
L 178.412198 474.695692 
L 178.534344 473.298257 
L 178.65649 474.086365 
L 178.778635 473.447784 
L 178.839708 473.917901 
L 178.90078 473.391682 
L 179.022926 474.712301 
L 179.083999 473.325937 
L 179.145072 474.254595 
L 179.206144 473.431983 
L 179.267217 473.523459 
L 179.32829 474.971439 
L 179.389363 474.671985 
L 179.450435 474.434558 
L 179.511508 473.63153 
L 179.572581 473.732333 
L 179.633654 474.28788 
L 179.694726 473.642941 
L 179.755799 473.984708 
L 179.816872 474.660048 
L 179.939017 473.686465 
L 180.00009 473.588786 
L 180.061163 474.431238 
L 180.122235 473.59162 
L 180.183308 474.445627 
L 180.244381 473.644196 
L 180.366527 475.124501 
L 180.427599 474.965219 
L 180.488672 473.542204 
L 180.549745 474.500546 
L 180.610817 474.287079 
L 180.794036 475.382626 
L 180.855109 475.569345 
L 180.977254 474.000566 
L 181.038327 474.287398 
L 181.0994 474.058165 
L 181.160472 474.42396 
L 181.221545 473.995743 
L 181.282618 474.658383 
L 181.343691 474.035745 
L 181.404763 474.912311 
L 181.465836 474.043731 
L 181.526909 475.345158 
L 181.587982 474.107928 
L 181.649054 474.85367 
L 181.7712 474.25174 
L 181.832272 475.363046 
L 181.893345 473.965723 
L 181.954418 474.791413 
L 182.076564 474.187823 
L 182.137636 475.023655 
L 182.198709 474.488678 
L 182.259782 475.071475 
L 182.320854 474.292053 
L 182.381927 474.638842 
L 182.443 474.676358 
L 182.504073 474.307657 
L 182.565145 475.481667 
L 182.626218 474.611991 
L 182.748364 474.719438 
L 182.809437 474.409506 
L 182.992655 475.679702 
L 183.053728 475.638661 
L 183.236946 474.501995 
L 183.298019 474.967613 
L 183.359091 475.40216 
L 183.420164 474.847568 
L 183.542309 476.029381 
L 183.603382 475.819984 
L 183.725528 474.959251 
L 183.786601 475.914809 
L 183.847673 474.973391 
L 183.908746 475.487907 
L 183.969819 475.049691 
L 184.030891 475.97256 
L 184.091964 475.202202 
L 184.153037 475.337099 
L 184.21411 476.130629 
L 184.275182 476.08856 
L 184.458401 475.154391 
L 184.580546 475.78249 
L 184.641619 475.66877 
L 184.763765 476.741198 
L 184.824837 475.482605 
L 184.88591 476.104794 
L 185.008056 476.317974 
L 185.069128 475.516588 
L 185.130201 476.010681 
L 185.191274 476.08799 
L 185.313419 475.556245 
L 185.374492 476.067299 
L 185.435565 475.529022 
L 185.679856 476.842291 
L 185.740928 475.472587 
L 185.802001 476.199676 
L 185.863074 476.004894 
L 185.924147 476.793693 
L 185.985219 476.560358 
L 186.046292 476.146228 
L 186.168438 477.164265 
L 186.351656 475.634493 
L 186.473802 477.429669 
L 186.534874 476.501619 
L 186.595947 476.847236 
L 186.779165 475.848831 
L 186.901311 477.004248 
L 187.023456 476.021254 
L 187.145602 477.301694 
L 187.206675 477.076352 
L 187.267747 476.814186 
L 187.32882 477.567134 
L 187.389893 477.409213 
L 187.450965 476.066876 
L 187.512038 476.371034 
L 187.634184 478.102278 
L 187.756329 477.128796 
L 187.817402 477.409466 
L 187.878475 476.597456 
L 187.939548 477.381003 
L 188.00062 476.42844 
L 188.061693 477.631996 
L 188.122766 477.345162 
L 188.183839 477.384214 
L 188.305984 478.012039 
L 188.367057 477.864392 
L 188.42813 477.678664 
L 188.489202 478.100573 
L 188.550275 477.837187 
L 188.733493 477.001288 
L 188.855639 477.961679 
L 188.916712 476.930677 
L 189.09993 478.330653 
L 189.161002 477.846017 
L 189.222075 478.173248 
L 189.283148 477.945161 
L 189.344221 478.20118 
L 189.405294 478.086737 
L 189.466366 478.128305 
L 189.527439 478.610867 
L 189.710657 477.537185 
L 189.77173 478.474191 
L 189.832803 477.619319 
L 189.893875 478.348922 
L 189.954948 477.987635 
L 190.016021 478.384446 
L 190.138167 477.760657 
L 190.199239 478.690095 
L 190.260312 478.055446 
L 190.321385 478.315659 
L 190.382457 478.012352 
L 190.504603 478.748908 
L 190.565676 478.000385 
L 190.626749 478.548537 
L 190.748894 479.493964 
L 190.871039 477.700458 
L 190.932112 478.750865 
L 190.993185 477.778152 
L 191.054258 478.536759 
L 191.176403 479.042998 
L 191.298549 477.975719 
L 191.359622 478.811068 
L 191.420694 478.320037 
L 191.481767 477.833686 
L 191.54284 478.119677 
L 191.603912 477.809262 
L 191.726058 478.676301 
L 191.787131 478.465567 
L 191.970349 478.994296 
L 192.031422 479.017085 
L 192.092494 478.296816 
L 192.153567 478.917673 
L 192.21464 478.741671 
L 192.275713 478.89838 
L 192.336786 478.62651 
L 192.397858 479.328064 
L 192.520004 478.366199 
L 192.642149 479.315836 
L 192.703222 479.295229 
L 192.825368 478.606557 
L 192.88644 479.025939 
L 192.947513 478.603146 
L 193.008586 479.713499 
L 193.069659 479.431655 
L 193.130731 479.745079 
L 193.191804 479.417971 
L 193.252877 478.427421 
L 193.313949 479.287095 
L 193.375022 478.417526 
L 193.558241 479.367809 
L 193.619313 478.977518 
L 193.680386 479.005545 
L 193.741459 479.405516 
L 193.924677 478.737505 
L 193.98575 479.634726 
L 194.046823 479.136883 
L 194.107895 478.749834 
L 194.168968 479.554997 
L 194.230041 478.895199 
L 194.291113 479.556737 
L 194.352186 479.41742 
L 194.413259 479.389474 
L 194.474332 478.83274 
L 194.535405 479.271907 
L 194.596477 479.630045 
L 194.65755 479.117271 
L 194.718623 479.787528 
L 194.779696 478.909198 
L 194.840768 479.507996 
L 194.962914 479.281133 
L 195.023986 479.397989 
L 195.146132 479.102504 
L 195.268278 479.102759 
L 195.32935 479.513457 
L 195.390423 479.317131 
L 195.573641 479.714009 
L 195.634714 479.629866 
L 195.695787 480.146387 
L 195.817932 479.329827 
L 195.879005 480.1502 
L 195.940078 479.530952 
L 196.00115 479.162982 
L 196.062223 479.332316 
L 196.184369 479.458864 
L 196.245442 479.472029 
L 196.306514 479.228071 
L 196.367587 479.269896 
L 196.42866 480.221875 
L 196.489733 479.679687 
L 196.550805 479.173785 
L 196.611878 479.862242 
L 196.672951 479.163314 
L 196.734023 479.87931 
L 196.795096 479.284357 
L 196.856169 479.618686 
L 196.978315 479.219864 
L 197.10046 480.043394 
L 197.222605 479.884325 
L 197.283678 479.412999 
L 197.344751 479.963119 
L 197.405824 479.29938 
L 197.466897 479.951894 
L 197.527969 479.504331 
L 197.589042 479.7571 
L 197.650115 479.712688 
L 197.711187 479.641012 
L 197.77226 479.244425 
L 197.833333 480.009505 
L 197.894406 479.935088 
L 197.955479 479.417539 
L 198.016551 479.963449 
L 198.077624 479.403433 
L 198.138697 480.018828 
L 198.19977 479.674051 
L 198.260842 479.747291 
L 198.44406 479.477905 
L 198.566206 480.07891 
L 198.627279 479.584884 
L 198.688352 479.892375 
L 198.749424 479.962829 
L 198.810497 480.404677 
L 198.993715 479.593418 
L 199.115861 479.657939 
L 199.176934 479.50393 
L 199.238006 480.137923 
L 199.299079 479.589089 
L 199.360152 480.133022 
L 199.421224 479.82989 
L 199.482297 479.601778 
L 199.604443 480.419553 
L 199.787661 479.379838 
L 199.848734 480.198449 
L 199.909807 479.775395 
L 199.970879 479.825394 
L 200.031952 479.646046 
L 200.093025 480.191566 
L 200.154097 479.698158 
L 200.276243 480.577431 
L 200.337316 480.356945 
L 200.642679 479.688002 
L 200.703752 480.252778 
L 200.764825 480.141832 
L 200.825898 479.755519 
L 200.886971 480.273039 
L 200.948043 479.822824 
L 201.009116 480.261258 
L 201.070189 479.881159 
L 201.131261 480.415679 
L 201.192334 480.386368 
L 201.253407 479.928206 
L 201.31448 479.951059 
L 201.375553 480.618592 
L 201.436625 480.387483 
L 201.558771 479.82249 
L 201.619844 480.334429 
L 201.680916 479.833757 
L 201.741989 480.338256 
L 201.803062 480.065716 
L 201.864134 479.91922 
L 201.925207 480.33979 
L 201.98628 479.946752 
L 202.108426 480.610359 
L 202.230571 479.973886 
L 202.291644 480.068148 
L 202.413789 479.988796 
L 202.474862 480.37333 
L 202.535935 479.846977 
L 202.65808 480.650212 
L 202.780226 479.937153 
L 202.841298 480.399773 
L 202.902371 480.661172 
L 203.146662 480.073147 
L 203.207735 480.0682 
L 203.268808 480.429679 
L 203.329881 480.048449 
L 203.390953 480.432228 
L 203.452026 480.069669 
L 203.513099 480.431896 
L 203.574171 480.018415 
L 203.635244 480.439258 
L 203.696317 480.032841 
L 203.818463 480.576214 
L 203.879535 480.553296 
L 203.940608 480.123855 
L 204.001681 480.467644 
L 204.062753 480.671095 
L 204.245972 480.029934 
L 204.307045 480.493531 
L 204.368117 480.317082 
L 204.490263 480.79339 
L 204.551335 480.73662 
L 204.612408 480.660449 
L 204.673481 480.720322 
L 204.734554 480.248614 
L 204.795627 480.550098 
L 204.856699 480.691268 
L 204.917772 480.628718 
L 204.978845 480.205452 
L 205.10099 480.788616 
L 205.162063 480.309637 
L 205.223136 480.59164 
L 205.345281 480.79049 
L 205.5285 480.604982 
L 205.589572 480.820416 
L 205.650645 480.632482 
L 205.711718 480.632927 
L 205.833863 480.846529 
L 205.956009 480.356098 
L 206.078154 480.687207 
L 206.2003 480.873977 
L 206.261372 480.677498 
L 206.322445 480.920669 
L 206.383518 480.783698 
L 206.505664 480.971854 
L 206.566736 480.859295 
L 206.627809 481.030492 
L 206.688882 480.993959 
L 206.933173 480.824459 
L 207.238537 481.068711 
L 207.421755 480.86876 
L 207.5439 480.916988 
L 207.666046 480.969993 
L 207.788191 480.932879 
L 207.849264 481.080484 
L 207.910337 480.849211 
L 207.971409 481.196744 
L 208.032482 481.167447 
L 208.093555 480.946124 
L 208.154628 481.098654 
L 208.215701 480.961218 
L 208.337846 481.155584 
L 208.398919 480.941213 
L 208.459992 481.114395 
L 208.521064 481.202696 
L 208.582137 481.069432 
L 208.64321 481.223109 
L 208.704282 481.100045 
L 208.826428 481.243678 
L 209.009646 481.080984 
L 209.070719 481.203307 
L 209.131792 481.095552 
L 209.192864 481.169811 
L 209.253937 481.079394 
L 209.31501 481.05272 
L 209.376083 481.291943 
L 209.437156 481.177122 
L 209.498228 481.027313 
L 209.681446 481.277457 
L 209.925738 481.042557 
L 209.98681 481.350704 
L 210.047883 481.243117 
L 210.170029 481.096846 
L 210.353247 481.431761 
L 210.414319 481.266909 
L 210.475392 481.306826 
L 210.597538 481.347885 
L 210.658611 481.081559 
L 210.719683 481.394567 
L 210.780756 481.145583 
L 210.902901 481.126222 
L 210.963974 481.400662 
L 211.025047 481.292665 
L 211.08612 481.22593 
L 211.147193 481.407515 
L 211.208265 481.272451 
L 211.269338 481.259358 
L 211.330411 481.127342 
L 211.513629 481.348845 
L 211.635775 481.401959 
L 211.818993 481.146983 
L 211.880066 481.259042 
L 211.941138 481.157437 
L 212.002211 481.213414 
L 212.063284 481.422863 
L 212.124356 481.142444 
L 212.185429 481.363239 
L 212.307575 481.420444 
L 212.368648 481.452572 
L 212.42972 481.193608 
L 212.551866 481.551471 
L 212.674011 481.238143 
L 212.735084 481.477063 
L 212.85723 481.486134 
L 212.918302 481.244946 
L 212.979375 481.290707 
L 213.040448 481.555778 
L 213.10152 481.399085 
L 213.284739 481.305472 
L 213.345812 481.500121 
L 213.406884 481.202201 
L 213.467957 481.454647 
L 213.52903 481.330604 
L 213.590103 481.369674 
L 213.773321 481.556124 
L 213.895466 481.308865 
L 213.956539 481.649513 
L 214.017612 481.608475 
L 214.139757 481.399742 
L 214.20083 481.539072 
L 214.261903 481.394898 
L 214.322975 481.556845 
L 214.384048 481.333572 
L 214.445121 481.363604 
L 214.506194 481.45374 
L 214.567267 481.320548 
L 214.628339 481.51689 
L 214.689412 481.338896 
L 214.811557 481.562093 
L 214.87263 481.478378 
L 215.055849 481.668562 
L 215.30014 481.364092 
L 215.422285 481.585491 
L 215.666576 481.39759 
L 215.849794 481.641211 
L 216.155158 481.445942 
L 216.216231 481.578631 
L 216.277304 481.43143 
L 216.338376 481.681784 
L 216.399449 481.516604 
L 216.460522 481.436214 
L 216.521594 481.743211 
L 216.582667 481.688633 
L 216.704813 481.46688 
L 216.765886 481.558002 
L 216.826958 481.448357 
L 216.949104 481.6141 
L 217.010177 481.481636 
L 217.071249 481.740348 
L 217.132322 481.460868 
L 217.193395 481.624932 
L 217.254468 481.479055 
L 217.31554 481.594593 
L 217.376613 481.50318 
L 217.437686 481.552313 
L 217.804122 481.6131 
L 217.926268 481.678843 
L 218.109486 481.500864 
L 218.231631 481.774111 
L 218.292704 481.712713 
L 218.41485 481.765756 
L 218.475923 481.545281 
L 218.536995 481.609599 
L 218.598068 481.648441 
L 218.659141 481.541367 
L 218.842359 481.783057 
L 218.903432 481.555333 
L 218.964505 481.739704 
L 219.08665 481.582124 
L 219.147723 481.789108 
L 219.208796 481.711494 
L 219.330941 481.644001 
L 219.453086 481.839515 
L 219.514159 481.795273 
L 219.697378 481.604388 
L 220.124887 481.734586 
L 220.18596 481.567688 
L 220.308105 481.727993 
L 220.369178 481.625142 
L 220.43025 481.687462 
L 220.491323 481.830237 
L 220.552396 481.720499 
L 220.613469 481.616829 
L 220.735614 481.832126 
L 220.796687 481.6112 
L 220.85776 481.756146 
L 220.918833 481.70676 
L 220.979905 481.854933 
L 221.040978 481.795522 
L 221.102051 481.784531 
L 221.163123 481.651325 
L 221.224196 481.679473 
L 221.285269 481.84948 
L 221.346342 481.660187 
L 221.407415 481.834403 
L 221.468487 481.744041 
L 221.52956 481.683467 
L 221.590633 481.877936 
L 221.651705 481.812351 
L 221.712778 481.668002 
L 221.773851 481.790696 
L 221.834924 481.848813 
L 221.895997 481.778236 
L 222.20136 481.864648 
L 222.262433 481.684298 
L 222.323506 481.810694 
L 222.567797 481.730599 
L 222.87316 481.780979 
L 222.934233 481.707214 
L 223.056379 481.909916 
L 223.117452 481.864989 
L 223.30067 481.845978 
L 223.422815 481.891332 
L 223.544961 481.849398 
L 223.728179 481.765602 
L 223.789252 481.934125 
L 223.850324 481.86385 
L 223.911397 481.792977 
L 223.97247 481.920505 
L 224.033543 481.821338 
L 224.094616 481.763252 
L 224.155688 481.870527 
L 224.216761 481.812778 
L 224.277834 481.78377 
L 224.338907 481.911956 
L 224.399979 481.847093 
L 224.461052 481.837314 
L 224.583197 481.972988 
L 224.64427 481.810075 
L 224.705343 481.875378 
L 224.827489 481.978627 
L 224.888561 481.810612 
L 224.949634 481.936996 
L 225.254998 481.908224 
L 225.316071 481.974698 
L 225.499289 481.828425 
L 225.560361 481.842821 
L 225.621434 481.990217 
L 225.682507 481.951796 
L 225.74358 481.833271 
L 225.804653 481.907145 
L 225.987871 481.946792 
L 226.048944 481.862865 
L 226.110016 481.975695 
L 226.171089 481.911927 
L 226.232162 481.95579 
L 226.354307 481.87228 
L 227.51469 481.944522 
L 227.575762 481.887438 
L 227.636835 481.97559 
L 228.613999 481.97786 
L 228.797217 481.970339 
L 228.85829 482.06644 
L 228.919363 481.982914 
L 229.041508 482.042397 
L 230.751545 482.010204 
L 230.812618 482.126967 
L 230.873691 482.083663 
L 230.934764 482.007943 
L 230.995836 482.067692 
L 231.179055 482.111711 
L 231.423345 482.025286 
L 232.339437 482.072549 
L 232.400509 482.044205 
L 232.522655 482.134505 
L 232.705873 482.052825 
L 237.591693 482.160242 
L 237.774912 482.137515 
L 237.897057 482.145759 
L 238.080275 482.132572 
L 238.263493 482.184518 
L 238.507785 482.157544 
L 238.996367 482.158039 
L 240.095676 482.159006 
L 240.339967 482.215152 
L 240.462112 482.203245 
L 240.828549 482.225204 
L 241.378204 482.213868 
L 241.683567 482.231717 
L 242.538586 482.223471 
L 242.782877 482.192624 
L 243.027168 482.245276 
L 243.271459 482.20113 
L 243.454677 482.257476 
L 244.18755 482.209964 
L 244.492914 482.269 
L 245.103641 482.229751 
L 245.775442 482.285716 
L 247.241188 482.268733 
L 247.485479 482.258671 
L 247.790842 482.292124 
L 248.157279 482.280217 
L 248.584788 482.295093 
L 248.829079 482.30966 
L 249.317661 482.270815 
L 249.500879 482.311074 
L 249.867316 482.277767 
L 250.111607 482.289546 
L 252.554517 482.321848 
L 252.798808 482.324536 
L 253.226317 482.338846 
L 253.470608 482.323694 
L 253.898118 482.334787 
L 254.447772 482.328933 
L 255.0585 482.356992 
L 255.486009 482.36283 
L 256.768537 482.355411 
L 257.257119 482.349745 
L 262.631521 482.393737 
L 264.463703 482.420765 
L 264.891212 482.436057 
L 265.135504 482.424644 
L 265.50194 482.406082 
L 265.929449 482.436972 
L 266.479104 482.430757 
L 267.089832 482.434973 
L 271.609215 482.483113 
L 272.219943 482.499108 
L 272.708525 482.487849 
L 273.136034 482.493617 
L 275.27358 482.51451 
L 276.617181 482.505987 
L 276.800399 482.512025 
L 277.655417 482.512799 
L 277.960781 482.536597 
L 278.205072 482.531037 
L 278.571508 482.539494 
L 278.937945 482.527385 
L 279.915109 482.534991 
L 280.709055 482.559211 
L 281.136564 482.543936 
L 281.625146 482.549946 
L 284.556638 482.583528 
L 285.839166 482.584519 
L 286.633111 482.592974 
L 288.58744 482.598381 
L 288.953876 482.618269 
L 290.480695 482.606618 
L 290.908204 482.625381 
L 291.580004 482.621962 
L 296.16046 482.6295 
L 300.496626 482.659503 
L 331.888019 482.818407 
L 332.315529 482.811492 
L 337.262421 482.83281 
L 354.301719 482.922131 
L 354.973519 482.932995 
L 358.149302 482.949389 
L 359.187539 482.939133 
L 360.225775 482.961005 
L 360.714357 482.94614 
L 361.508303 482.953574 
L 403.220991 483.13012 
L 403.953864 483.125801 
L 404.503519 483.138789 
L 405.114247 483.135612 
L 407.251793 483.132818 
L 408.29003 483.142489 
L 409.145048 483.138357 
L 412.259758 483.146631 
L 415.374469 483.145132 
L 416.718069 483.152771 
L 420.260289 483.150919 
L 423.313926 483.163195 
L 424.779672 483.165015 
L 436.749931 483.18461 
L 438.582114 483.185154 
L 440.108932 483.191861 
L 443.529006 483.201288 
L 467.408452 483.236309 
L 471.317108 483.239703 
L 474.187527 483.243825 
L 477.241164 483.244931 
L 507.105739 483.273824 
L 529.641584 483.286834 
L 535.443495 483.291525 
L 543.199734 483.295422 
L 554.314975 483.301838 
L 571.171054 483.310165 
L 575.812583 483.313126 
L 648.855592 483.335053 
L 659.421177 483.339887 
L 671.025 483.347953 
L 671.025 483.347953 
" style="fill:none;stroke:#d62728;stroke-linecap:square;stroke-width:3;"/>
   </g>
   <g id="line2d_18">
    <path clip-path="url(#pb5674b389a)" d="M 60.2975 492.45268 
L 671.025 492.45268 
" style="fill:none;stroke:#000000;stroke-dasharray:7.4,3.2;stroke-dashoffset:0;stroke-width:2;"/>
   </g>
   <g id="patch_3">
    <path d="M 60.2975 507.745 
L 60.2975 10.8 
" style="fill:none;stroke:#000000;stroke-linecap:square;stroke-linejoin:miter;stroke-width:0.8;"/>
   </g>
   <g id="patch_4">
    <path d="M 671.025 507.745 
L 671.025 10.8 
" style="fill:none;stroke:#000000;stroke-linecap:square;stroke-linejoin:miter;stroke-width:0.8;"/>
   </g>
   <g id="patch_5">
    <path d="M 60.2975 507.745 
L 671.025 507.745 
" style="fill:none;stroke:#000000;stroke-linecap:square;stroke-linejoin:miter;stroke-width:0.8;"/>
   </g>
   <g id="patch_6">
    <path d="M 60.2975 10.8 
L 671.025 10.8 
" style="fill:none;stroke:#000000;stroke-linecap:square;stroke-linejoin:miter;stroke-width:0.8;"/>
   </g>
   <g id="legend_1">
    <g id="patch_7">
     <path d="M 402.1425 206.1375 
L 654.225 206.1375 
Q 659.025 206.1375 659.025 201.3375 
L 659.025 27.6 
Q 659.025 22.8 654.225 22.8 
L 402.1425 22.8 
Q 397.3425 22.8 397.3425 27.6 
L 397.3425 201.3375 
Q 397.3425 206.1375 402.1425 206.1375 
z
" style="fill:#ffffff;opacity:0.8;stroke:#cccccc;stroke-linejoin:miter;"/>
    </g>
    <g id="line2d_19">
     <path d="M 406.9425 42.23625 
L 454.9425 42.23625 
" style="fill:none;stroke:#1f77b4;stroke-linecap:square;stroke-width:3;"/>
    </g>
    <g id="line2d_20"/>
    <g id="text_16">
     <!-- COBYLA -->
     <g transform="translate(474.1425 50.63625)scale(0.24 -0.24)">
      <defs>
       <path d="M 4122 4306 
L 4122 3641 
Q 3803 3938 3442 4084 
Q 3081 4231 2675 4231 
Q 1875 4231 1450 3742 
Q 1025 3253 1025 2328 
Q 1025 1406 1450 917 
Q 1875 428 2675 428 
Q 3081 428 3442 575 
Q 3803 722 4122 1019 
L 4122 359 
Q 3791 134 3420 21 
Q 3050 -91 2638 -91 
Q 1578 -91 968 557 
Q 359 1206 359 2328 
Q 359 3453 968 4101 
Q 1578 4750 2638 4750 
Q 3056 4750 3426 4639 
Q 3797 4528 4122 4306 
z
" id="DejaVuSans-43" transform="scale(0.015625)"/>
       <path d="M 2522 4238 
Q 1834 4238 1429 3725 
Q 1025 3213 1025 2328 
Q 1025 1447 1429 934 
Q 1834 422 2522 422 
Q 3209 422 3611 934 
Q 4013 1447 4013 2328 
Q 4013 3213 3611 3725 
Q 3209 4238 2522 4238 
z
M 2522 4750 
Q 3503 4750 4090 4092 
Q 4678 3434 4678 2328 
Q 4678 1225 4090 567 
Q 3503 -91 2522 -91 
Q 1538 -91 948 565 
Q 359 1222 359 2328 
Q 359 3434 948 4092 
Q 1538 4750 2522 4750 
z
" id="DejaVuSans-4f" transform="scale(0.015625)"/>
       <path d="M 1259 2228 
L 1259 519 
L 2272 519 
Q 2781 519 3026 730 
Q 3272 941 3272 1375 
Q 3272 1813 3026 2020 
Q 2781 2228 2272 2228 
L 1259 2228 
z
M 1259 4147 
L 1259 2741 
L 2194 2741 
Q 2656 2741 2882 2914 
Q 3109 3088 3109 3444 
Q 3109 3797 2882 3972 
Q 2656 4147 2194 4147 
L 1259 4147 
z
M 628 4666 
L 2241 4666 
Q 2963 4666 3353 4366 
Q 3744 4066 3744 3513 
Q 3744 3084 3544 2831 
Q 3344 2578 2956 2516 
Q 3422 2416 3680 2098 
Q 3938 1781 3938 1306 
Q 3938 681 3513 340 
Q 3088 0 2303 0 
L 628 0 
L 628 4666 
z
" id="DejaVuSans-42" transform="scale(0.015625)"/>
       <path d="M -13 4666 
L 666 4666 
L 1959 2747 
L 3244 4666 
L 3922 4666 
L 2272 2222 
L 2272 0 
L 1638 0 
L 1638 2222 
L -13 4666 
z
" id="DejaVuSans-59" transform="scale(0.015625)"/>
       <path d="M 628 4666 
L 1259 4666 
L 1259 531 
L 3531 531 
L 3531 0 
L 628 0 
L 628 4666 
z
" id="DejaVuSans-4c" transform="scale(0.015625)"/>
       <path d="M 2188 4044 
L 1331 1722 
L 3047 1722 
L 2188 4044 
z
M 1831 4666 
L 2547 4666 
L 4325 0 
L 3669 0 
L 3244 1197 
L 1141 1197 
L 716 0 
L 50 0 
L 1831 4666 
z
" id="DejaVuSans-41" transform="scale(0.015625)"/>
      </defs>
      <use xlink:href="#DejaVuSans-43"/>
      <use x="69.824219" xlink:href="#DejaVuSans-4f"/>
      <use x="148.535156" xlink:href="#DejaVuSans-42"/>
      <use x="211.638672" xlink:href="#DejaVuSans-59"/>
      <use x="272.722656" xlink:href="#DejaVuSans-4c"/>
      <use x="330.685547" xlink:href="#DejaVuSans-41"/>
     </g>
    </g>
    <g id="line2d_21">
     <path d="M 406.9425 77.46375 
L 454.9425 77.46375 
" style="fill:none;stroke:#ff7f0e;stroke-linecap:square;stroke-width:3;"/>
    </g>
    <g id="line2d_22"/>
    <g id="text_17">
     <!-- SLSQP -->
     <g transform="translate(474.1425 85.86375)scale(0.24 -0.24)">
      <defs>
       <path d="M 3425 4513 
L 3425 3897 
Q 3066 4069 2747 4153 
Q 2428 4238 2131 4238 
Q 1616 4238 1336 4038 
Q 1056 3838 1056 3469 
Q 1056 3159 1242 3001 
Q 1428 2844 1947 2747 
L 2328 2669 
Q 3034 2534 3370 2195 
Q 3706 1856 3706 1288 
Q 3706 609 3251 259 
Q 2797 -91 1919 -91 
Q 1588 -91 1214 -16 
Q 841 59 441 206 
L 441 856 
Q 825 641 1194 531 
Q 1563 422 1919 422 
Q 2459 422 2753 634 
Q 3047 847 3047 1241 
Q 3047 1584 2836 1778 
Q 2625 1972 2144 2069 
L 1759 2144 
Q 1053 2284 737 2584 
Q 422 2884 422 3419 
Q 422 4038 858 4394 
Q 1294 4750 2059 4750 
Q 2388 4750 2728 4690 
Q 3069 4631 3425 4513 
z
" id="DejaVuSans-53" transform="scale(0.015625)"/>
       <path d="M 1259 4147 
L 1259 2394 
L 2053 2394 
Q 2494 2394 2734 2622 
Q 2975 2850 2975 3272 
Q 2975 3691 2734 3919 
Q 2494 4147 2053 4147 
L 1259 4147 
z
M 628 4666 
L 2053 4666 
Q 2838 4666 3239 4311 
Q 3641 3956 3641 3272 
Q 3641 2581 3239 2228 
Q 2838 1875 2053 1875 
L 1259 1875 
L 1259 0 
L 628 0 
L 628 4666 
z
" id="DejaVuSans-50" transform="scale(0.015625)"/>
      </defs>
      <use xlink:href="#DejaVuSans-53"/>
      <use x="63.476562" xlink:href="#DejaVuSans-4c"/>
      <use x="119.189453" xlink:href="#DejaVuSans-53"/>
      <use x="182.666016" xlink:href="#DejaVuSans-51"/>
      <use x="261.376953" xlink:href="#DejaVuSans-50"/>
     </g>
    </g>
    <g id="line2d_23">
     <path d="M 406.9425 112.69125 
L 454.9425 112.69125 
" style="fill:none;stroke:#2ca02c;stroke-linecap:square;stroke-width:3;"/>
    </g>
    <g id="line2d_24"/>
    <g id="text_18">
     <!-- L-BFGS-B -->
     <g transform="translate(474.1425 121.09125)scale(0.24 -0.24)">
      <defs>
       <path d="M 313 2009 
L 1997 2009 
L 1997 1497 
L 313 1497 
L 313 2009 
z
" id="DejaVuSans-2d" transform="scale(0.015625)"/>
       <path d="M 628 4666 
L 3309 4666 
L 3309 4134 
L 1259 4134 
L 1259 2759 
L 3109 2759 
L 3109 2228 
L 1259 2228 
L 1259 0 
L 628 0 
L 628 4666 
z
" id="DejaVuSans-46" transform="scale(0.015625)"/>
       <path d="M 3809 666 
L 3809 1919 
L 2778 1919 
L 2778 2438 
L 4434 2438 
L 4434 434 
Q 4069 175 3628 42 
Q 3188 -91 2688 -91 
Q 1594 -91 976 548 
Q 359 1188 359 2328 
Q 359 3472 976 4111 
Q 1594 4750 2688 4750 
Q 3144 4750 3555 4637 
Q 3966 4525 4313 4306 
L 4313 3634 
Q 3963 3931 3569 4081 
Q 3175 4231 2741 4231 
Q 1884 4231 1454 3753 
Q 1025 3275 1025 2328 
Q 1025 1384 1454 906 
Q 1884 428 2741 428 
Q 3075 428 3337 486 
Q 3600 544 3809 666 
z
" id="DejaVuSans-47" transform="scale(0.015625)"/>
      </defs>
      <use xlink:href="#DejaVuSans-4c"/>
      <use x="53.962891" xlink:href="#DejaVuSans-2d"/>
      <use x="86.421875" xlink:href="#DejaVuSans-42"/>
      <use x="155.025391" xlink:href="#DejaVuSans-46"/>
      <use x="212.544922" xlink:href="#DejaVuSans-47"/>
      <use x="290.035156" xlink:href="#DejaVuSans-53"/>
      <use x="353.511719" xlink:href="#DejaVuSans-2d"/>
      <use x="385.970703" xlink:href="#DejaVuSans-42"/>
     </g>
    </g>
    <g id="line2d_25">
     <path d="M 406.9425 147.91875 
L 454.9425 147.91875 
" style="fill:none;stroke:#d62728;stroke-linecap:square;stroke-width:3;"/>
    </g>
    <g id="line2d_26"/>
    <g id="text_19">
     <!-- NELDER-MEAD -->
     <g transform="translate(474.1425 156.31875)scale(0.24 -0.24)">
      <defs>
       <path d="M 628 4666 
L 1478 4666 
L 3547 763 
L 3547 4666 
L 4159 4666 
L 4159 0 
L 3309 0 
L 1241 3903 
L 1241 0 
L 628 0 
L 628 4666 
z
" id="DejaVuSans-4e" transform="scale(0.015625)"/>
       <path d="M 1259 4147 
L 1259 519 
L 2022 519 
Q 2988 519 3436 956 
Q 3884 1394 3884 2338 
Q 3884 3275 3436 3711 
Q 2988 4147 2022 4147 
L 1259 4147 
z
M 628 4666 
L 1925 4666 
Q 3281 4666 3915 4102 
Q 4550 3538 4550 2338 
Q 4550 1131 3912 565 
Q 3275 0 1925 0 
L 628 0 
L 628 4666 
z
" id="DejaVuSans-44" transform="scale(0.015625)"/>
       <path d="M 2841 2188 
Q 3044 2119 3236 1894 
Q 3428 1669 3622 1275 
L 4263 0 
L 3584 0 
L 2988 1197 
Q 2756 1666 2539 1819 
Q 2322 1972 1947 1972 
L 1259 1972 
L 1259 0 
L 628 0 
L 628 4666 
L 2053 4666 
Q 2853 4666 3247 4331 
Q 3641 3997 3641 3322 
Q 3641 2881 3436 2590 
Q 3231 2300 2841 2188 
z
M 1259 4147 
L 1259 2491 
L 2053 2491 
Q 2509 2491 2742 2702 
Q 2975 2913 2975 3322 
Q 2975 3731 2742 3939 
Q 2509 4147 2053 4147 
L 1259 4147 
z
" id="DejaVuSans-52" transform="scale(0.015625)"/>
       <path d="M 628 4666 
L 1569 4666 
L 2759 1491 
L 3956 4666 
L 4897 4666 
L 4897 0 
L 4281 0 
L 4281 4097 
L 3078 897 
L 2444 897 
L 1241 4097 
L 1241 0 
L 628 0 
L 628 4666 
z
" id="DejaVuSans-4d" transform="scale(0.015625)"/>
      </defs>
      <use xlink:href="#DejaVuSans-4e"/>
      <use x="74.804688" xlink:href="#DejaVuSans-45"/>
      <use x="137.988281" xlink:href="#DejaVuSans-4c"/>
      <use x="193.701172" xlink:href="#DejaVuSans-44"/>
      <use x="270.703125" xlink:href="#DejaVuSans-45"/>
      <use x="333.886719" xlink:href="#DejaVuSans-52"/>
      <use x="399.369141" xlink:href="#DejaVuSans-2d"/>
      <use x="435.453125" xlink:href="#DejaVuSans-4d"/>
      <use x="521.732422" xlink:href="#DejaVuSans-45"/>
      <use x="584.916016" xlink:href="#DejaVuSans-41"/>
      <use x="653.324219" xlink:href="#DejaVuSans-44"/>
     </g>
    </g>
    <g id="line2d_27">
     <path d="M 406.9425 183.14625 
L 454.9425 183.14625 
" style="fill:none;stroke:#000000;stroke-dasharray:7.4,3.2;stroke-dashoffset:0;stroke-width:2;"/>
    </g>
    <g id="line2d_28"/>
    <g id="text_20">
     <!-- HT -->
     <g transform="translate(474.1425 191.54625)scale(0.24 -0.24)">
      <defs>
       <path d="M 628 4666 
L 1259 4666 
L 1259 2753 
L 3553 2753 
L 3553 4666 
L 4184 4666 
L 4184 0 
L 3553 0 
L 3553 2222 
L 1259 2222 
L 1259 0 
L 628 0 
L 628 4666 
z
" id="DejaVuSans-48" transform="scale(0.015625)"/>
       <path d="M -19 4666 
L 3928 4666 
L 3928 4134 
L 2272 4134 
L 2272 0 
L 1638 0 
L 1638 4134 
L -19 4134 
L -19 4666 
z
" id="DejaVuSans-54" transform="scale(0.015625)"/>
      </defs>
      <use xlink:href="#DejaVuSans-48"/>
      <use x="75.195312" xlink:href="#DejaVuSans-54"/>
     </g>
    </g>
   </g>
  </g>
 </g>
 <defs>
  <clipPath id="pb5674b389a">
   <rect height="496.945" width="610.7275" x="60.2975" y="10.8"/>
  </clipPath>
 </defs>
</svg>
