<?xml version="1.0" encoding="utf-8" standalone="no"?>
<!DOCTYPE svg PUBLIC "-//W3C//DTD SVG 1.1//EN"
  "http://www.w3.org/Graphics/SVG/1.1/DTD/svg11.dtd">
<svg height="576pt" version="1.1" viewBox="0 0 720 576" width="720pt" xmlns="http://www.w3.org/2000/svg" xmlns:xlink="http://www.w3.org/1999/xlink">
 <metadata>
  <rdf:RDF xmlns:cc="http://creativecommons.org/ns#" xmlns:dc="http://purl.org/dc/elements/1.1/" xmlns:rdf="http://www.w3.org/1999/02/22-rdf-syntax-ns#">
   <cc:Work>
    <dc:type rdf:resource="http://purl.org/dc/dcmitype/StillImage"/>
    <dc:date>2021-07-28T09:30:20.344941</dc:date>
    <dc:format>image/svg+xml</dc:format>
    <dc:creator>
     <cc:Agent>
      <dc:title>Matplotlib v3.4.2, https://matplotlib.org/</dc:title>
     </cc:Agent>
    </dc:creator>
   </cc:Work>
  </rdf:RDF>
 </metadata>
 <defs>
  <style type="text/css">*{stroke-linecap:butt;stroke-linejoin:round;}</style>
 </defs>
 <g id="figure_1">
  <g id="patch_1">
   <path d="M 0 576 
L 720 576 
L 720 0 
L 0 0 
z
" style="fill:#ffffff;"/>
  </g>
  <g id="axes_1">
   <g id="patch_2">
    <path d="M 60.2975 507.745 
L 678.66 507.745 
L 678.66 10.8 
L 60.2975 10.8 
z
" style="fill:#ffffff;"/>
   </g>
   <g id="matplotlib.axis_1">
    <g id="xtick_1">
     <g id="line2d_1">
      <defs>
       <path d="M 0 0 
L 0 3.5 
" id="m5d037a44e8" style="stroke:#000000;stroke-width:0.8;"/>
      </defs>
      <g>
       <use style="stroke:#000000;stroke-width:0.8;" x="60.2975" xlink:href="#m5d037a44e8" y="507.745"/>
      </g>
     </g>
     <g id="text_1">
      <!-- 0 -->
      <g transform="translate(52.6625 532.98125)scale(0.24 -0.24)">
       <defs>
        <path d="M 2034 4250 
Q 1547 4250 1301 3770 
Q 1056 3291 1056 2328 
Q 1056 1369 1301 889 
Q 1547 409 2034 409 
Q 2525 409 2770 889 
Q 3016 1369 3016 2328 
Q 3016 3291 2770 3770 
Q 2525 4250 2034 4250 
z
M 2034 4750 
Q 2819 4750 3233 4129 
Q 3647 3509 3647 2328 
Q 3647 1150 3233 529 
Q 2819 -91 2034 -91 
Q 1250 -91 836 529 
Q 422 1150 422 2328 
Q 422 3509 836 4129 
Q 1250 4750 2034 4750 
z
" id="DejaVuSans-30" transform="scale(0.015625)"/>
       </defs>
       <use xlink:href="#DejaVuSans-30"/>
      </g>
     </g>
    </g>
    <g id="xtick_2">
     <g id="line2d_2">
      <g>
       <use style="stroke:#000000;stroke-width:0.8;" x="183.97" xlink:href="#m5d037a44e8" y="507.745"/>
      </g>
     </g>
     <g id="text_2">
      <!-- 1000 -->
      <g transform="translate(153.43 532.98125)scale(0.24 -0.24)">
       <defs>
        <path d="M 794 531 
L 1825 531 
L 1825 4091 
L 703 3866 
L 703 4441 
L 1819 4666 
L 2450 4666 
L 2450 531 
L 3481 531 
L 3481 0 
L 794 0 
L 794 531 
z
" id="DejaVuSans-31" transform="scale(0.015625)"/>
       </defs>
       <use xlink:href="#DejaVuSans-31"/>
       <use x="63.623047" xlink:href="#DejaVuSans-30"/>
       <use x="127.246094" xlink:href="#DejaVuSans-30"/>
       <use x="190.869141" xlink:href="#DejaVuSans-30"/>
      </g>
     </g>
    </g>
    <g id="xtick_3">
     <g id="line2d_3">
      <g>
       <use style="stroke:#000000;stroke-width:0.8;" x="307.6425" xlink:href="#m5d037a44e8" y="507.745"/>
      </g>
     </g>
     <g id="text_3">
      <!-- 2000 -->
      <g transform="translate(277.1025 532.98125)scale(0.24 -0.24)">
       <defs>
        <path d="M 1228 531 
L 3431 531 
L 3431 0 
L 469 0 
L 469 531 
Q 828 903 1448 1529 
Q 2069 2156 2228 2338 
Q 2531 2678 2651 2914 
Q 2772 3150 2772 3378 
Q 2772 3750 2511 3984 
Q 2250 4219 1831 4219 
Q 1534 4219 1204 4116 
Q 875 4013 500 3803 
L 500 4441 
Q 881 4594 1212 4672 
Q 1544 4750 1819 4750 
Q 2544 4750 2975 4387 
Q 3406 4025 3406 3419 
Q 3406 3131 3298 2873 
Q 3191 2616 2906 2266 
Q 2828 2175 2409 1742 
Q 1991 1309 1228 531 
z
" id="DejaVuSans-32" transform="scale(0.015625)"/>
       </defs>
       <use xlink:href="#DejaVuSans-32"/>
       <use x="63.623047" xlink:href="#DejaVuSans-30"/>
       <use x="127.246094" xlink:href="#DejaVuSans-30"/>
       <use x="190.869141" xlink:href="#DejaVuSans-30"/>
      </g>
     </g>
    </g>
    <g id="xtick_4">
     <g id="line2d_4">
      <g>
       <use style="stroke:#000000;stroke-width:0.8;" x="431.315" xlink:href="#m5d037a44e8" y="507.745"/>
      </g>
     </g>
     <g id="text_4">
      <!-- 3000 -->
      <g transform="translate(400.775 532.98125)scale(0.24 -0.24)">
       <defs>
        <path d="M 2597 2516 
Q 3050 2419 3304 2112 
Q 3559 1806 3559 1356 
Q 3559 666 3084 287 
Q 2609 -91 1734 -91 
Q 1441 -91 1130 -33 
Q 819 25 488 141 
L 488 750 
Q 750 597 1062 519 
Q 1375 441 1716 441 
Q 2309 441 2620 675 
Q 2931 909 2931 1356 
Q 2931 1769 2642 2001 
Q 2353 2234 1838 2234 
L 1294 2234 
L 1294 2753 
L 1863 2753 
Q 2328 2753 2575 2939 
Q 2822 3125 2822 3475 
Q 2822 3834 2567 4026 
Q 2313 4219 1838 4219 
Q 1578 4219 1281 4162 
Q 984 4106 628 3988 
L 628 4550 
Q 988 4650 1302 4700 
Q 1616 4750 1894 4750 
Q 2613 4750 3031 4423 
Q 3450 4097 3450 3541 
Q 3450 3153 3228 2886 
Q 3006 2619 2597 2516 
z
" id="DejaVuSans-33" transform="scale(0.015625)"/>
       </defs>
       <use xlink:href="#DejaVuSans-33"/>
       <use x="63.623047" xlink:href="#DejaVuSans-30"/>
       <use x="127.246094" xlink:href="#DejaVuSans-30"/>
       <use x="190.869141" xlink:href="#DejaVuSans-30"/>
      </g>
     </g>
    </g>
    <g id="xtick_5">
     <g id="line2d_5">
      <g>
       <use style="stroke:#000000;stroke-width:0.8;" x="554.9875" xlink:href="#m5d037a44e8" y="507.745"/>
      </g>
     </g>
     <g id="text_5">
      <!-- 4000 -->
      <g transform="translate(524.4475 532.98125)scale(0.24 -0.24)">
       <defs>
        <path d="M 2419 4116 
L 825 1625 
L 2419 1625 
L 2419 4116 
z
M 2253 4666 
L 3047 4666 
L 3047 1625 
L 3713 1625 
L 3713 1100 
L 3047 1100 
L 3047 0 
L 2419 0 
L 2419 1100 
L 313 1100 
L 313 1709 
L 2253 4666 
z
" id="DejaVuSans-34" transform="scale(0.015625)"/>
       </defs>
       <use xlink:href="#DejaVuSans-34"/>
       <use x="63.623047" xlink:href="#DejaVuSans-30"/>
       <use x="127.246094" xlink:href="#DejaVuSans-30"/>
       <use x="190.869141" xlink:href="#DejaVuSans-30"/>
      </g>
     </g>
    </g>
    <g id="xtick_6">
     <g id="line2d_6">
      <g>
       <use style="stroke:#000000;stroke-width:0.8;" x="678.66" xlink:href="#m5d037a44e8" y="507.745"/>
      </g>
     </g>
     <g id="text_6">
      <!-- 5000 -->
      <g transform="translate(648.12 532.98125)scale(0.24 -0.24)">
       <defs>
        <path d="M 691 4666 
L 3169 4666 
L 3169 4134 
L 1269 4134 
L 1269 2991 
Q 1406 3038 1543 3061 
Q 1681 3084 1819 3084 
Q 2600 3084 3056 2656 
Q 3513 2228 3513 1497 
Q 3513 744 3044 326 
Q 2575 -91 1722 -91 
Q 1428 -91 1123 -41 
Q 819 9 494 109 
L 494 744 
Q 775 591 1075 516 
Q 1375 441 1709 441 
Q 2250 441 2565 725 
Q 2881 1009 2881 1497 
Q 2881 1984 2565 2268 
Q 2250 2553 1709 2553 
Q 1456 2553 1204 2497 
Q 953 2441 691 2322 
L 691 4666 
z
" id="DejaVuSans-35" transform="scale(0.015625)"/>
       </defs>
       <use xlink:href="#DejaVuSans-35"/>
       <use x="63.623047" xlink:href="#DejaVuSans-30"/>
       <use x="127.246094" xlink:href="#DejaVuSans-30"/>
       <use x="190.869141" xlink:href="#DejaVuSans-30"/>
      </g>
     </g>
    </g>
    <g id="text_7">
     <!-- iterations -->
     <g transform="translate(312.533125 560.20875)scale(0.24 -0.24)">
      <defs>
       <path d="M 603 3500 
L 1178 3500 
L 1178 0 
L 603 0 
L 603 3500 
z
M 603 4863 
L 1178 4863 
L 1178 4134 
L 603 4134 
L 603 4863 
z
" id="DejaVuSans-69" transform="scale(0.015625)"/>
       <path d="M 1172 4494 
L 1172 3500 
L 2356 3500 
L 2356 3053 
L 1172 3053 
L 1172 1153 
Q 1172 725 1289 603 
Q 1406 481 1766 481 
L 2356 481 
L 2356 0 
L 1766 0 
Q 1100 0 847 248 
Q 594 497 594 1153 
L 594 3053 
L 172 3053 
L 172 3500 
L 594 3500 
L 594 4494 
L 1172 4494 
z
" id="DejaVuSans-74" transform="scale(0.015625)"/>
       <path d="M 3597 1894 
L 3597 1613 
L 953 1613 
Q 991 1019 1311 708 
Q 1631 397 2203 397 
Q 2534 397 2845 478 
Q 3156 559 3463 722 
L 3463 178 
Q 3153 47 2828 -22 
Q 2503 -91 2169 -91 
Q 1331 -91 842 396 
Q 353 884 353 1716 
Q 353 2575 817 3079 
Q 1281 3584 2069 3584 
Q 2775 3584 3186 3129 
Q 3597 2675 3597 1894 
z
M 3022 2063 
Q 3016 2534 2758 2815 
Q 2500 3097 2075 3097 
Q 1594 3097 1305 2825 
Q 1016 2553 972 2059 
L 3022 2063 
z
" id="DejaVuSans-65" transform="scale(0.015625)"/>
       <path d="M 2631 2963 
Q 2534 3019 2420 3045 
Q 2306 3072 2169 3072 
Q 1681 3072 1420 2755 
Q 1159 2438 1159 1844 
L 1159 0 
L 581 0 
L 581 3500 
L 1159 3500 
L 1159 2956 
Q 1341 3275 1631 3429 
Q 1922 3584 2338 3584 
Q 2397 3584 2469 3576 
Q 2541 3569 2628 3553 
L 2631 2963 
z
" id="DejaVuSans-72" transform="scale(0.015625)"/>
       <path d="M 2194 1759 
Q 1497 1759 1228 1600 
Q 959 1441 959 1056 
Q 959 750 1161 570 
Q 1363 391 1709 391 
Q 2188 391 2477 730 
Q 2766 1069 2766 1631 
L 2766 1759 
L 2194 1759 
z
M 3341 1997 
L 3341 0 
L 2766 0 
L 2766 531 
Q 2569 213 2275 61 
Q 1981 -91 1556 -91 
Q 1019 -91 701 211 
Q 384 513 384 1019 
Q 384 1609 779 1909 
Q 1175 2209 1959 2209 
L 2766 2209 
L 2766 2266 
Q 2766 2663 2505 2880 
Q 2244 3097 1772 3097 
Q 1472 3097 1187 3025 
Q 903 2953 641 2809 
L 641 3341 
Q 956 3463 1253 3523 
Q 1550 3584 1831 3584 
Q 2591 3584 2966 3190 
Q 3341 2797 3341 1997 
z
" id="DejaVuSans-61" transform="scale(0.015625)"/>
       <path d="M 1959 3097 
Q 1497 3097 1228 2736 
Q 959 2375 959 1747 
Q 959 1119 1226 758 
Q 1494 397 1959 397 
Q 2419 397 2687 759 
Q 2956 1122 2956 1747 
Q 2956 2369 2687 2733 
Q 2419 3097 1959 3097 
z
M 1959 3584 
Q 2709 3584 3137 3096 
Q 3566 2609 3566 1747 
Q 3566 888 3137 398 
Q 2709 -91 1959 -91 
Q 1206 -91 779 398 
Q 353 888 353 1747 
Q 353 2609 779 3096 
Q 1206 3584 1959 3584 
z
" id="DejaVuSans-6f" transform="scale(0.015625)"/>
       <path d="M 3513 2113 
L 3513 0 
L 2938 0 
L 2938 2094 
Q 2938 2591 2744 2837 
Q 2550 3084 2163 3084 
Q 1697 3084 1428 2787 
Q 1159 2491 1159 1978 
L 1159 0 
L 581 0 
L 581 3500 
L 1159 3500 
L 1159 2956 
Q 1366 3272 1645 3428 
Q 1925 3584 2291 3584 
Q 2894 3584 3203 3211 
Q 3513 2838 3513 2113 
z
" id="DejaVuSans-6e" transform="scale(0.015625)"/>
       <path d="M 2834 3397 
L 2834 2853 
Q 2591 2978 2328 3040 
Q 2066 3103 1784 3103 
Q 1356 3103 1142 2972 
Q 928 2841 928 2578 
Q 928 2378 1081 2264 
Q 1234 2150 1697 2047 
L 1894 2003 
Q 2506 1872 2764 1633 
Q 3022 1394 3022 966 
Q 3022 478 2636 193 
Q 2250 -91 1575 -91 
Q 1294 -91 989 -36 
Q 684 19 347 128 
L 347 722 
Q 666 556 975 473 
Q 1284 391 1588 391 
Q 1994 391 2212 530 
Q 2431 669 2431 922 
Q 2431 1156 2273 1281 
Q 2116 1406 1581 1522 
L 1381 1569 
Q 847 1681 609 1914 
Q 372 2147 372 2553 
Q 372 3047 722 3315 
Q 1072 3584 1716 3584 
Q 2034 3584 2315 3537 
Q 2597 3491 2834 3397 
z
" id="DejaVuSans-73" transform="scale(0.015625)"/>
      </defs>
      <use xlink:href="#DejaVuSans-69"/>
      <use x="27.783203" xlink:href="#DejaVuSans-74"/>
      <use x="66.992188" xlink:href="#DejaVuSans-65"/>
      <use x="128.515625" xlink:href="#DejaVuSans-72"/>
      <use x="169.628906" xlink:href="#DejaVuSans-61"/>
      <use x="230.908203" xlink:href="#DejaVuSans-74"/>
      <use x="270.117188" xlink:href="#DejaVuSans-69"/>
      <use x="297.900391" xlink:href="#DejaVuSans-6f"/>
      <use x="359.082031" xlink:href="#DejaVuSans-6e"/>
      <use x="422.460938" xlink:href="#DejaVuSans-73"/>
     </g>
    </g>
   </g>
   <g id="matplotlib.axis_2">
    <g id="ytick_1">
     <g id="line2d_7">
      <defs>
       <path d="M 0 0 
L -3.5 0 
" id="m76857330a9" style="stroke:#000000;stroke-width:0.8;"/>
      </defs>
      <g>
       <use style="stroke:#000000;stroke-width:0.8;" x="60.2975" xlink:href="#m76857330a9" y="491.471"/>
      </g>
     </g>
     <g id="text_8">
      <!-- 0 -->
      <g transform="translate(38.0275 500.589125)scale(0.24 -0.24)">
       <use xlink:href="#DejaVuSans-30"/>
      </g>
     </g>
    </g>
    <g id="ytick_2">
     <g id="line2d_8">
      <g>
       <use style="stroke:#000000;stroke-width:0.8;" x="60.2975" xlink:href="#m76857330a9" y="416.164992"/>
      </g>
     </g>
     <g id="text_9">
      <!-- 1 -->
      <g transform="translate(38.0275 425.283117)scale(0.24 -0.24)">
       <use xlink:href="#DejaVuSans-31"/>
      </g>
     </g>
    </g>
    <g id="ytick_3">
     <g id="line2d_9">
      <g>
       <use style="stroke:#000000;stroke-width:0.8;" x="60.2975" xlink:href="#m76857330a9" y="340.858985"/>
      </g>
     </g>
     <g id="text_10">
      <!-- 2 -->
      <g transform="translate(38.0275 349.97711)scale(0.24 -0.24)">
       <use xlink:href="#DejaVuSans-32"/>
      </g>
     </g>
    </g>
    <g id="ytick_4">
     <g id="line2d_10">
      <g>
       <use style="stroke:#000000;stroke-width:0.8;" x="60.2975" xlink:href="#m76857330a9" y="265.552978"/>
      </g>
     </g>
     <g id="text_11">
      <!-- 3 -->
      <g transform="translate(38.0275 274.671103)scale(0.24 -0.24)">
       <use xlink:href="#DejaVuSans-33"/>
      </g>
     </g>
    </g>
    <g id="ytick_5">
     <g id="line2d_11">
      <g>
       <use style="stroke:#000000;stroke-width:0.8;" x="60.2975" xlink:href="#m76857330a9" y="190.24697"/>
      </g>
     </g>
     <g id="text_12">
      <!-- 4 -->
      <g transform="translate(38.0275 199.365095)scale(0.24 -0.24)">
       <use xlink:href="#DejaVuSans-34"/>
      </g>
     </g>
    </g>
    <g id="ytick_6">
     <g id="line2d_12">
      <g>
       <use style="stroke:#000000;stroke-width:0.8;" x="60.2975" xlink:href="#m76857330a9" y="114.940963"/>
      </g>
     </g>
     <g id="text_13">
      <!-- 5 -->
      <g transform="translate(38.0275 124.059088)scale(0.24 -0.24)">
       <use xlink:href="#DejaVuSans-35"/>
      </g>
     </g>
    </g>
    <g id="ytick_7">
     <g id="line2d_13">
      <g>
       <use style="stroke:#000000;stroke-width:0.8;" x="60.2975" xlink:href="#m76857330a9" y="39.634956"/>
      </g>
     </g>
     <g id="text_14">
      <!-- 6 -->
      <g transform="translate(38.0275 48.753081)scale(0.24 -0.24)">
       <defs>
        <path d="M 2113 2584 
Q 1688 2584 1439 2293 
Q 1191 2003 1191 1497 
Q 1191 994 1439 701 
Q 1688 409 2113 409 
Q 2538 409 2786 701 
Q 3034 994 3034 1497 
Q 3034 2003 2786 2293 
Q 2538 2584 2113 2584 
z
M 3366 4563 
L 3366 3988 
Q 3128 4100 2886 4159 
Q 2644 4219 2406 4219 
Q 1781 4219 1451 3797 
Q 1122 3375 1075 2522 
Q 1259 2794 1537 2939 
Q 1816 3084 2150 3084 
Q 2853 3084 3261 2657 
Q 3669 2231 3669 1497 
Q 3669 778 3244 343 
Q 2819 -91 2113 -91 
Q 1303 -91 875 529 
Q 447 1150 447 2328 
Q 447 3434 972 4092 
Q 1497 4750 2381 4750 
Q 2619 4750 2861 4703 
Q 3103 4656 3366 4563 
z
" id="DejaVuSans-36" transform="scale(0.015625)"/>
       </defs>
       <use xlink:href="#DejaVuSans-36"/>
      </g>
     </g>
    </g>
    <g id="text_15">
     <!-- VQE energy -->
     <g transform="translate(29.03625 330.14)rotate(-90)scale(0.24 -0.24)">
      <defs>
       <path d="M 1831 0 
L 50 4666 
L 709 4666 
L 2188 738 
L 3669 4666 
L 4325 4666 
L 2547 0 
L 1831 0 
z
" id="DejaVuSans-56" transform="scale(0.015625)"/>
       <path d="M 2522 4238 
Q 1834 4238 1429 3725 
Q 1025 3213 1025 2328 
Q 1025 1447 1429 934 
Q 1834 422 2522 422 
Q 3209 422 3611 934 
Q 4013 1447 4013 2328 
Q 4013 3213 3611 3725 
Q 3209 4238 2522 4238 
z
M 3406 84 
L 4238 -825 
L 3475 -825 
L 2784 -78 
Q 2681 -84 2626 -87 
Q 2572 -91 2522 -91 
Q 1538 -91 948 567 
Q 359 1225 359 2328 
Q 359 3434 948 4092 
Q 1538 4750 2522 4750 
Q 3503 4750 4090 4092 
Q 4678 3434 4678 2328 
Q 4678 1516 4351 937 
Q 4025 359 3406 84 
z
" id="DejaVuSans-51" transform="scale(0.015625)"/>
       <path d="M 628 4666 
L 3578 4666 
L 3578 4134 
L 1259 4134 
L 1259 2753 
L 3481 2753 
L 3481 2222 
L 1259 2222 
L 1259 531 
L 3634 531 
L 3634 0 
L 628 0 
L 628 4666 
z
" id="DejaVuSans-45" transform="scale(0.015625)"/>
       <path id="DejaVuSans-20" transform="scale(0.015625)"/>
       <path d="M 2906 1791 
Q 2906 2416 2648 2759 
Q 2391 3103 1925 3103 
Q 1463 3103 1205 2759 
Q 947 2416 947 1791 
Q 947 1169 1205 825 
Q 1463 481 1925 481 
Q 2391 481 2648 825 
Q 2906 1169 2906 1791 
z
M 3481 434 
Q 3481 -459 3084 -895 
Q 2688 -1331 1869 -1331 
Q 1566 -1331 1297 -1286 
Q 1028 -1241 775 -1147 
L 775 -588 
Q 1028 -725 1275 -790 
Q 1522 -856 1778 -856 
Q 2344 -856 2625 -561 
Q 2906 -266 2906 331 
L 2906 616 
Q 2728 306 2450 153 
Q 2172 0 1784 0 
Q 1141 0 747 490 
Q 353 981 353 1791 
Q 353 2603 747 3093 
Q 1141 3584 1784 3584 
Q 2172 3584 2450 3431 
Q 2728 3278 2906 2969 
L 2906 3500 
L 3481 3500 
L 3481 434 
z
" id="DejaVuSans-67" transform="scale(0.015625)"/>
       <path d="M 2059 -325 
Q 1816 -950 1584 -1140 
Q 1353 -1331 966 -1331 
L 506 -1331 
L 506 -850 
L 844 -850 
Q 1081 -850 1212 -737 
Q 1344 -625 1503 -206 
L 1606 56 
L 191 3500 
L 800 3500 
L 1894 763 
L 2988 3500 
L 3597 3500 
L 2059 -325 
z
" id="DejaVuSans-79" transform="scale(0.015625)"/>
      </defs>
      <use xlink:href="#DejaVuSans-56"/>
      <use x="68.408203" xlink:href="#DejaVuSans-51"/>
      <use x="147.119141" xlink:href="#DejaVuSans-45"/>
      <use x="210.302734" xlink:href="#DejaVuSans-20"/>
      <use x="242.089844" xlink:href="#DejaVuSans-65"/>
      <use x="303.613281" xlink:href="#DejaVuSans-6e"/>
      <use x="366.992188" xlink:href="#DejaVuSans-65"/>
      <use x="428.515625" xlink:href="#DejaVuSans-72"/>
      <use x="467.878906" xlink:href="#DejaVuSans-67"/>
      <use x="531.355469" xlink:href="#DejaVuSans-79"/>
     </g>
    </g>
   </g>
   <g id="line2d_14">
    <path clip-path="url(#p97a0afe4d8)" d="M 60.421172 96.683286 
L 60.544845 33.388409 
L 60.668518 69.458164 
L 60.79219 48.030762 
L 60.915863 56.066162 
L 61.039535 55.505328 
L 61.163207 69.840121 
L 61.410553 125.281289 
L 61.534225 108.057718 
L 61.78157 125.347476 
L 61.905242 124.228045 
L 62.028915 124.548952 
L 62.152587 117.746935 
L 62.27626 121.988212 
L 62.399932 111.276125 
L 62.647278 129.375117 
L 62.77095 80.97599 
L 62.894622 102.261242 
L 63.018295 82.591809 
L 63.26564 116.351922 
L 63.512985 121.912592 
L 63.636657 119.347693 
L 63.76033 103.704689 
L 64.007675 133.730286 
L 64.131348 138.219839 
L 64.25502 130.301052 
L 64.378692 133.182347 
L 64.502365 130.068667 
L 64.74971 147.618554 
L 64.873383 131.419669 
L 64.997055 82.399817 
L 65.120728 142.114864 
L 65.2444 119.285122 
L 65.491745 123.723291 
L 65.73909 137.762031 
L 65.862763 131.673764 
L 65.986435 132.58745 
L 66.110107 135.356911 
L 66.23378 135.621914 
L 66.481125 158.431928 
L 66.604798 145.808514 
L 66.72847 150.971509 
L 66.852142 143.373781 
L 66.975815 147.66131 
L 67.099487 135.328519 
L 67.22316 140.128811 
L 67.346833 119.172728 
L 67.470505 143.803711 
L 67.594178 143.693805 
L 67.71785 149.574925 
L 67.841522 129.321114 
L 68.088867 148.645964 
L 68.336213 165.22549 
L 68.583557 139.36435 
L 68.70723 160.699787 
L 68.830902 151.371723 
L 68.954575 151.995739 
L 69.078248 164.515432 
L 69.20192 156.963869 
L 69.325592 166.767777 
L 69.449265 221.504573 
L 69.572937 161.041841 
L 69.69661 211.226651 
L 69.820283 181.675755 
L 69.943955 204.575584 
L 70.067628 200.508945 
L 70.1913 209.134497 
L 70.314972 203.656519 
L 70.562318 219.28421 
L 70.68599 220.327867 
L 70.809663 213.511577 
L 71.057007 223.271521 
L 71.18068 221.649508 
L 71.304352 212.916142 
L 71.428025 223.646534 
L 71.551698 223.945859 
L 71.67537 223.16166 
L 71.799042 183.865371 
L 71.922715 199.634811 
L 72.046387 174.779262 
L 72.293733 226.069221 
L 72.541078 217.778811 
L 72.66475 227.334277 
L 72.788422 228.050371 
L 72.912095 225.919943 
L 73.035767 234.52677 
L 73.15944 234.077212 
L 73.283113 235.904513 
L 73.406785 233.606955 
L 73.65413 243.282737 
L 73.777802 182.90539 
L 73.901475 248.715773 
L 74.025148 231.301044 
L 74.14882 244.27989 
L 74.272492 221.745782 
L 74.396165 249.156823 
L 74.519837 240.218206 
L 74.64351 248.234694 
L 74.890855 237.531793 
L 75.014527 254.797351 
L 75.1382 254.902172 
L 75.261872 241.72915 
L 75.385545 258.216982 
L 75.509218 226.71421 
L 75.63289 265.274886 
L 75.756563 238.481237 
L 75.880235 258.490834 
L 76.003907 247.566703 
L 76.12758 261.142706 
L 76.251252 233.725227 
L 76.374925 262.649502 
L 76.498598 261.226317 
L 76.62227 264.89687 
L 76.745942 244.332399 
L 76.869615 261.045399 
L 76.993287 257.154832 
L 77.11696 270.682315 
L 77.240633 253.704538 
L 77.487977 271.136847 
L 77.61165 271.619376 
L 77.858995 267.265282 
L 77.982667 279.016526 
L 78.10634 278.71243 
L 78.230013 273.074827 
L 78.353685 276.74358 
L 78.477357 247.061282 
L 78.60103 254.682456 
L 78.724703 249.409389 
L 78.848375 284.400911 
L 78.972048 262.394713 
L 79.09572 275.13937 
L 79.219392 241.576718 
L 79.343065 285.711272 
L 79.466737 235.053458 
L 79.59041 291.356148 
L 79.714082 257.311873 
L 79.837755 293.127648 
L 79.961427 279.191741 
L 80.0851 293.435562 
L 80.208772 287.841083 
L 80.332445 292.525753 
L 80.456118 245.383955 
L 80.57979 293.494085 
L 80.703463 256.471173 
L 80.827135 293.545677 
L 80.950807 254.963221 
L 81.07448 271.003715 
L 81.198152 258.736369 
L 81.321825 270.293165 
L 81.445498 269.877081 
L 81.56917 285.161973 
L 81.692842 280.139581 
L 81.940187 303.072314 
L 82.06386 295.889162 
L 82.187533 296.02896 
L 82.55855 308.985607 
L 82.682222 306.303719 
L 82.805895 308.116678 
L 82.929567 274.839157 
L 83.05324 309.412723 
L 83.176913 283.873576 
L 83.300585 294.170672 
L 83.424257 284.47093 
L 83.54793 302.267316 
L 83.671603 293.712784 
L 83.795275 303.49485 
L 83.918948 279.352125 
L 84.04262 307.413355 
L 84.166292 287.82677 
L 84.289965 306.076906 
L 84.413637 280.95855 
L 84.53731 307.428386 
L 84.660983 291.647371 
L 84.784655 305.997684 
L 84.908327 295.740993 
L 85.032 308.331179 
L 85.155672 306.363471 
L 85.279345 298.083715 
L 85.52669 306.730365 
L 85.650362 295.641437 
L 85.774035 302.31749 
L 85.897707 301.658615 
L 86.02138 303.841898 
L 86.145052 300.003127 
L 86.268725 309.029941 
L 86.392398 303.41325 
L 86.51607 307.422216 
L 86.639742 304.547582 
L 86.763415 310.070346 
L 86.887087 307.958722 
L 87.01076 310.604058 
L 87.134433 271.745859 
L 87.258105 306.278523 
L 87.381777 283.46182 
L 87.50545 315.478083 
L 87.629122 289.393424 
L 87.752795 306.482203 
L 87.876467 262.957003 
L 88.00014 314.706924 
L 88.123812 290.711672 
L 88.247485 314.754133 
L 88.371157 287.895182 
L 88.49483 309.837905 
L 88.742175 296.722464 
L 88.865848 280.99958 
L 88.98952 313.57657 
L 89.113192 288.326801 
L 89.236865 298.573721 
L 89.360537 272.541996 
L 89.48421 306.954383 
L 89.607883 300.619405 
L 89.731555 318.221046 
L 89.855227 302.97401 
L 89.9789 315.3627 
L 90.102572 252.55707 
L 90.226245 318.449655 
L 90.349918 271.369953 
L 90.47359 318.661144 
L 90.597262 288.338349 
L 90.720935 318.554148 
L 90.844607 312.686446 
L 90.96828 320.172984 
L 91.091952 312.581994 
L 91.215625 320.991806 
L 91.339298 308.20622 
L 91.46297 309.46174 
L 91.586642 288.212566 
L 91.710315 316.92126 
L 91.833987 305.153514 
L 92.081333 319.073454 
L 92.205005 318.073195 
L 92.45235 322.22718 
L 92.576022 322.846102 
L 92.699695 316.879464 
L 93.070712 323.926691 
L 93.194385 314.95821 
L 93.318057 323.46968 
L 93.44173 319.371305 
L 93.689075 326.149857 
L 93.812748 325.379203 
L 94.060092 327.337397 
L 94.183765 323.386403 
L 94.307437 328.913058 
L 94.43111 315.643202 
L 94.554782 328.283803 
L 94.678455 315.600733 
L 94.802127 328.685372 
L 94.9258 319.294876 
L 95.049473 328.735924 
L 95.173145 318.283928 
L 95.42049 323.646074 
L 95.544162 330.391695 
L 95.791507 319.499969 
L 95.91518 332.544019 
L 96.162525 331.74219 
L 96.286198 333.247932 
L 96.40987 329.734143 
L 96.533542 334.11439 
L 96.780888 330.604154 
L 97.028233 334.698518 
L 97.151905 329.699189 
L 97.275577 334.598255 
L 97.39925 326.831333 
L 97.646595 333.827757 
L 97.89394 331.16534 
L 98.017612 335.669656 
L 98.141285 318.273201 
L 98.38863 332.889933 
L 98.512303 333.503352 
L 98.635975 325.92661 
L 98.88332 341.133596 
L 99.006992 342.616751 
L 99.130665 342.167584 
L 99.254337 343.092195 
L 99.37801 342.450907 
L 99.501682 342.782351 
L 99.625355 341.76332 
L 99.749027 342.995285 
L 99.8727 341.488957 
L 100.120045 348.627859 
L 100.36739 342.16094 
L 100.491062 348.588216 
L 100.614735 344.740108 
L 100.738407 348.669086 
L 100.86208 343.640729 
L 100.985752 347.302302 
L 101.109425 342.111918 
L 101.233097 347.954206 
L 101.35677 344.853567 
L 101.480442 348.920053 
L 101.604115 341.118291 
L 101.727788 349.361828 
L 101.85146 344.241059 
L 101.975133 346.059745 
L 102.098805 344.884765 
L 102.222477 348.360844 
L 102.34615 342.936652 
L 102.469822 349.896749 
L 102.593495 343.757196 
L 102.717167 349.603812 
L 102.84084 345.326789 
L 102.964512 349.747483 
L 103.088185 345.260697 
L 103.211857 345.134486 
L 103.33553 348.688009 
L 103.459203 346.680689 
L 103.706547 351.47382 
L 103.83022 348.818166 
L 103.953892 350.41257 
L 104.077565 334.156277 
L 104.201237 353.425731 
L 104.32491 338.53316 
L 104.448582 353.216579 
L 104.572255 346.949979 
L 104.695927 352.887678 
L 104.8196 349.994802 
L 104.943273 350.373261 
L 105.066945 349.279126 
L 105.190618 351.564043 
L 105.31429 340.75753 
L 105.561635 354.714734 
L 105.80898 348.753114 
L 105.932652 352.354719 
L 106.056325 343.56644 
L 106.179997 353.762445 
L 106.30367 345.653749 
L 106.427342 353.548726 
L 106.551015 349.106026 
L 106.674688 353.335567 
L 106.79836 349.926193 
L 106.922033 353.449715 
L 107.045705 344.867122 
L 107.169377 353.735484 
L 107.29305 347.621178 
L 107.416722 354.44465 
L 107.540395 346.547474 
L 107.664067 350.982427 
L 107.78774 351.160791 
L 107.911412 353.695821 
L 108.035085 349.052034 
L 108.158757 354.727776 
L 108.28243 353.383833 
L 108.406103 354.886736 
L 108.529775 354.655147 
L 108.653447 355.171184 
L 108.77712 354.438222 
L 108.900792 354.758179 
L 109.024465 346.408822 
L 109.148137 354.041648 
L 109.27181 351.152429 
L 109.395482 353.986594 
L 109.519155 349.831071 
L 109.7665 355.230372 
L 109.890173 351.578567 
L 110.137518 354.131397 
L 110.26119 349.280111 
L 110.384862 353.218496 
L 110.508535 347.785126 
L 110.632207 357.236321 
L 110.75588 349.765088 
L 110.879552 357.28094 
L 111.003225 353.015433 
L 111.126897 356.072172 
L 111.25057 350.820734 
L 111.374242 356.411852 
L 111.497915 353.154459 
L 111.621588 357.818634 
L 111.74526 351.217547 
L 111.868932 359.543096 
L 111.992605 350.872624 
L 112.116277 359.787514 
L 112.23995 350.089032 
L 112.363622 354.205749 
L 112.487295 350.88518 
L 112.610967 358.455969 
L 112.73464 349.050423 
L 112.858312 361.131153 
L 112.981985 353.158616 
L 113.105657 361.545238 
L 113.22933 357.407531 
L 113.353003 358.16721 
L 113.476675 351.745217 
L 113.600347 361.241224 
L 113.72402 355.54896 
L 113.847692 360.483763 
L 113.971365 357.277528 
L 114.095037 361.038545 
L 114.21871 354.974429 
L 114.342382 361.69231 
L 114.466055 356.149311 
L 114.589727 361.299685 
L 114.7134 358.551912 
L 114.837073 358.358654 
L 114.960745 353.855105 
L 115.084418 357.352293 
L 115.20809 352.268203 
L 115.331762 361.029441 
L 115.455435 351.64964 
L 115.70278 357.929785 
L 115.950125 360.16471 
L 116.073797 362.759407 
L 116.19747 356.029285 
L 116.321142 362.472931 
L 116.444815 356.155857 
L 116.568488 362.577212 
L 116.69216 354.754226 
L 116.815832 359.000906 
L 116.939505 356.108801 
L 117.063177 360.52411 
L 117.18685 355.950153 
L 117.310522 360.233579 
L 117.434195 356.537131 
L 117.557867 361.464926 
L 117.68154 360.269744 
L 117.805212 361.616158 
L 117.928885 359.109097 
L 118.052557 360.958834 
L 118.17623 358.562218 
L 118.547247 362.950707 
L 118.67092 360.115661 
L 118.794592 360.374225 
L 118.918265 357.578061 
L 119.16561 360.326698 
L 119.412955 363.221839 
L 119.536627 363.239479 
L 119.6603 358.077303 
L 119.783973 362.757157 
L 119.907645 360.029373 
L 120.031318 361.089224 
L 120.15499 360.844436 
L 120.278662 362.904525 
L 120.402335 353.759051 
L 120.526007 361.871363 
L 120.64968 357.114811 
L 120.773352 361.510862 
L 120.897025 356.487046 
L 121.020697 362.192134 
L 121.14437 355.711974 
L 121.391715 364.506933 
L 121.515388 365.844777 
L 121.63906 364.20295 
L 121.762732 365.639187 
L 122.010077 362.261532 
L 122.13375 366.416489 
L 122.257422 365.725494 
L 122.381095 366.193978 
L 122.504767 363.91088 
L 122.62844 365.946469 
L 122.752112 365.203183 
L 122.875785 365.362278 
L 122.999457 367.10706 
L 123.12313 366.601544 
L 123.246803 366.58667 
L 123.370475 366.366705 
L 123.494147 366.860598 
L 123.61782 366.365751 
L 123.741492 366.489673 
L 123.865165 365.740568 
L 124.11251 367.110838 
L 124.236182 366.52546 
L 124.359855 367.406706 
L 124.6072 365.601506 
L 124.854545 368.225763 
L 124.978217 365.515962 
L 125.10189 368.146826 
L 125.225562 367.713979 
L 125.349235 368.179756 
L 125.472907 370.330877 
L 125.59658 370.165931 
L 125.720253 367.988796 
L 125.843925 370.343434 
L 125.967597 369.759861 
L 126.09127 370.610405 
L 126.214942 370.179103 
L 126.338615 370.343415 
L 126.462287 367.337465 
L 126.58596 370.937927 
L 126.709632 369.441472 
L 126.833305 369.895983 
L 126.956977 368.233946 
L 127.08065 370.546593 
L 127.204322 369.665995 
L 127.327995 369.902225 
L 127.451667 368.990146 
L 127.57534 370.234825 
L 127.699012 368.997189 
L 127.822685 370.887748 
L 127.946357 370.02101 
L 128.07003 370.78832 
L 128.193703 370.200854 
L 128.317375 370.354524 
L 128.441047 369.044244 
L 128.56472 370.690162 
L 128.688392 370.513207 
L 128.812065 371.182687 
L 128.935737 369.628609 
L 129.05941 370.478654 
L 129.183083 370.067159 
L 129.430428 371.269115 
L 129.677773 370.799371 
L 129.925117 371.902606 
L 130.04879 371.698099 
L 130.172462 372.171761 
L 130.296135 372.200406 
L 130.667152 370.431951 
L 130.790825 370.724385 
L 130.914497 371.485202 
L 131.03817 370.728455 
L 131.161842 372.76234 
L 131.285515 372.926746 
L 131.409187 370.816345 
L 131.53286 373.235827 
L 131.656532 371.534162 
L 131.780205 373.516057 
L 131.903877 371.827532 
L 132.02755 373.162897 
L 132.151222 371.621472 
L 132.274895 372.620811 
L 132.398568 375.178319 
L 132.52224 375.181026 
L 132.645913 373.228526 
L 132.769585 375.071003 
L 132.893258 371.807409 
L 133.01693 375.025917 
L 133.140602 373.106489 
L 133.264275 374.602653 
L 133.387947 374.717258 
L 133.51162 374.62095 
L 133.635292 373.761352 
L 133.758965 375.648455 
L 133.882637 374.358177 
L 134.00631 375.544742 
L 134.129982 372.743044 
L 134.253655 374.733285 
L 134.377327 373.718166 
L 134.501 375.443333 
L 134.624672 374.214678 
L 134.748345 375.7375 
L 134.872017 373.249838 
L 134.99569 375.422185 
L 135.366707 373.777324 
L 135.49038 374.850611 
L 135.614053 374.659205 
L 135.737725 375.212583 
L 135.861398 373.972107 
L 135.98507 374.894932 
L 136.108743 374.189423 
L 136.232415 375.816577 
L 136.356088 374.704608 
L 136.47976 376.078941 
L 136.603432 373.524151 
L 136.727105 375.858268 
L 136.850777 374.747781 
L 137.098122 375.722306 
L 137.221795 376.123703 
L 137.345467 375.306159 
L 137.46914 375.919243 
L 137.592812 374.504236 
L 137.716485 376.194875 
L 137.840157 374.846043 
L 137.96383 376.189271 
L 138.087502 376.061829 
L 138.211175 376.493193 
L 138.334847 375.375059 
L 138.45852 376.290153 
L 138.582192 376.337486 
L 138.829537 374.787357 
L 139.076883 376.361569 
L 139.200555 376.336483 
L 139.324228 375.229533 
L 139.4479 376.024577 
L 139.571573 375.058716 
L 139.695245 375.565669 
L 139.818917 374.686679 
L 139.94259 376.392188 
L 140.066262 373.570032 
L 140.189935 375.437678 
L 140.313607 375.559252 
L 140.43728 376.893153 
L 140.560952 374.615079 
L 140.684625 376.431363 
L 140.808297 375.711886 
L 140.93197 376.569989 
L 141.055642 375.756335 
L 141.179315 376.454526 
L 141.302988 376.263616 
L 141.42666 376.745518 
L 141.550332 375.66151 
L 141.674005 376.611025 
L 141.92135 376.16212 
L 142.045022 375.35977 
L 142.168695 376.87609 
L 142.41604 376.372721 
L 142.663385 377.394448 
L 142.787058 377.254415 
L 143.034402 377.411228 
L 143.158075 376.583416 
L 143.281747 377.343714 
L 143.40542 376.949604 
L 143.529092 377.399409 
L 143.652765 377.229366 
L 143.776437 377.415515 
L 143.90011 377.023924 
L 144.023782 377.09569 
L 144.147455 377.454161 
L 144.271127 377.315857 
L 144.3948 376.901694 
L 144.518472 377.308912 
L 144.642145 377.103511 
L 144.765817 377.444713 
L 144.88949 377.00004 
L 145.260507 377.36219 
L 145.38418 376.755921 
L 145.507853 377.475852 
L 145.631525 376.900169 
L 145.755198 377.45096 
L 145.87887 377.23235 
L 146.002543 377.449816 
L 146.126215 377.152176 
L 146.249887 377.340413 
L 146.37356 376.862781 
L 146.497232 377.638623 
L 146.620905 377.321287 
L 146.744577 377.728111 
L 146.86825 377.072405 
L 147.115595 377.471094 
L 147.239267 377.433843 
L 147.36294 377.764069 
L 147.610285 377.605742 
L 147.733957 377.780528 
L 147.85763 377.748143 
L 148.104975 377.26742 
L 148.228647 377.737883 
L 148.475992 377.600827 
L 148.599665 377.818143 
L 148.723338 377.804137 
L 148.84701 377.596932 
L 149.094355 377.765737 
L 149.218028 377.482302 
L 149.3417 377.528987 
L 149.465373 377.905853 
L 149.589045 377.447704 
L 149.712717 377.784957 
L 149.83639 377.588255 
L 150.207407 377.901595 
L 150.33108 377.773135 
L 150.454752 377.876967 
L 150.578425 377.802246 
L 150.702097 377.943415 
L 150.82577 377.79613 
L 151.196787 377.840205 
L 151.32046 377.682746 
L 151.444132 377.948412 
L 151.567805 377.334922 
L 151.691477 377.632505 
L 151.81515 377.503779 
L 151.938822 377.93184 
L 152.062495 377.703874 
L 152.186168 377.987978 
L 152.30984 377.614931 
L 152.433513 377.645639 
L 152.680858 378.000148 
L 152.928202 377.619742 
L 153.051875 377.451376 
L 153.175547 377.99153 
L 153.29922 377.774938 
L 153.546565 377.984306 
L 153.917582 377.826837 
L 154.041255 377.673518 
L 154.164927 377.846788 
L 154.2886 377.6523 
L 154.412272 378.2115 
L 154.535945 377.951483 
L 154.659617 378.176556 
L 154.78329 377.761603 
L 154.906962 378.020724 
L 155.030635 377.959152 
L 155.154307 378.124013 
L 155.27798 377.770354 
L 155.525325 378.086881 
L 155.648998 378.165263 
L 155.77267 377.83087 
L 155.896343 378.122602 
L 156.020015 377.913303 
L 156.143687 378.172767 
L 156.26736 377.888146 
L 156.391032 378.090959 
L 156.514705 378.031092 
L 156.885722 378.195033 
L 157.133067 378.039065 
L 157.25674 378.034876 
L 157.504085 378.147107 
L 157.627757 378.107463 
L 157.75143 378.261588 
L 157.875102 378.140784 
L 157.998775 378.270982 
L 158.24612 378.23228 
L 158.369792 378.294222 
L 158.493465 378.17702 
L 158.74081 378.296165 
L 158.864483 378.196321 
L 159.111828 378.241302 
L 159.482845 378.202391 
L 159.73019 378.249214 
L 159.853862 378.199527 
L 159.977535 378.298846 
L 160.101207 378.199042 
L 160.22488 378.278957 
L 160.472225 378.190335 
L 160.843242 378.279406 
L 160.966915 378.181617 
L 161.090587 378.312553 
L 161.21426 378.210027 
L 161.70895 378.43788 
L 161.832622 378.472298 
L 161.956295 378.377156 
L 162.20364 378.510688 
L 162.450985 378.601097 
L 163.19302 378.670093 
L 163.316692 378.352804 
L 163.440365 378.778826 
L 163.564037 378.545197 
L 163.68771 378.75882 
L 164.058727 378.728948 
L 164.1824 378.774954 
L 164.306072 378.659393 
L 164.429745 378.761344 
L 164.67709 378.722353 
L 164.924435 378.74978 
L 165.913815 378.73551 
L 166.037487 378.881113 
L 166.284832 378.811307 
L 166.65585 378.873011 
L 168.13992 378.925969 
L 168.387265 378.937749 
L 168.758283 378.910957 
L 169.005628 378.943623 
L 172.59213 379.028321 
L 172.839475 379.115389 
L 173.08682 379.085851 
L 173.210492 379.061153 
L 173.334165 379.158218 
L 173.457837 379.040781 
L 173.705182 379.10491 
L 173.828855 379.145967 
L 173.952527 379.048698 
L 174.199872 379.158363 
L 174.941907 379.153503 
L 177.415357 379.089742 
L 177.662702 379.125443 
L 181.867568 379.187964 
L 182.238585 379.163851 
L 182.733275 379.227296 
L 183.846327 379.218009 
L 184.46469 379.284646 
L 184.95938 379.317696 
L 185.45407 379.354742 
L 185.577742 379.332387 
L 185.825087 379.41559 
L 186.567122 379.445919 
L 186.93814 379.402605 
L 187.309157 379.448675 
L 187.556502 379.451811 
L 188.174865 379.469547 
L 188.793228 379.463206 
L 189.782607 379.489989 
L 190.40097 379.486915 
L 195.966232 379.59428 
L 196.460922 379.576574 
L 197.450302 379.598987 
L 197.82132 379.597786 
L 198.563355 379.617677 
L 199.30539 379.617268 
L 207.838793 379.73133 
L 208.086138 379.730798 
L 208.828172 379.754978 
L 210.18857 379.738311 
L 210.68326 379.76032 
L 211.919985 379.788428 
L 213.280382 379.775027 
L 214.022417 379.827924 
L 214.393435 379.835653 
L 229.110462 379.98672 
L 229.605152 380.048601 
L 230.099842 380.039295 
L 236.159795 380.072109 
L 237.149175 380.079902 
L 238.3859 380.070078 
L 239.004262 380.087701 
L 240.240987 380.101666 
L 240.983023 380.139919 
L 241.230367 380.133035 
L 242.096075 380.151835 
L 242.714437 380.203686 
L 243.3328 380.197892 
L 258.544517 380.522763 
L 259.65757 380.548226 
L 260.15226 380.447318 
L 260.399605 380.546531 
L 261.760002 380.599384 
L 262.378365 380.57659 
L 262.873055 380.635697 
L 264.233452 380.658194 
L 264.975487 380.662784 
L 265.346505 380.704512 
L 266.08854 380.710052 
L 269.05668 380.734614 
L 269.922387 380.767973 
L 271.03544 380.749139 
L 271.282785 380.794261 
L 273.385218 380.843228 
L 273.879908 380.846751 
L 275.116632 380.880693 
L 278.826807 380.909032 
L 287.483882 380.976454 
L 288.84428 380.963077 
L 289.586315 381.038572 
L 290.82304 381.014179 
L 291.565075 381.076556 
L 301.953565 381.217049 
L 302.571927 381.275254 
L 303.437635 381.253265 
L 304.303342 381.282638 
L 305.787412 381.314096 
L 306.15843 381.286297 
L 306.776792 381.342467 
L 307.271482 381.317852 
L 307.6425 381.366999 
L 312.465727 381.408561 
L 313.207763 381.443325 
L 313.57878 381.431439 
L 315.433867 381.463776 
L 316.670592 381.472554 
L 317.288955 381.475146 
L 318.649353 381.489956 
L 319.638733 381.487144 
L 320.133422 381.515894 
L 320.50444 381.480755 
L 320.875457 381.528328 
L 321.122802 381.525594 
L 322.112183 381.543793 
L 323.47258 381.556642 
L 324.95665 381.548264 
L 326.069703 381.578083 
L 326.688065 381.60345 
L 327.4301 381.616835 
L 331.016602 381.660923 
L 331.38762 381.638552 
L 333.242707 381.661134 
L 333.86107 381.636074 
L 334.35576 381.685807 
L 334.974123 381.691981 
L 335.83983 381.659389 
L 336.210847 381.701877 
L 336.458192 381.703855 
L 338.436953 381.6959 
L 339.178988 381.719194 
L 339.550005 381.696464 
L 340.168367 381.727188 
L 340.663057 381.729851 
L 341.528765 381.693191 
L 342.394473 381.715792 
L 342.76549 381.722166 
L 351.546238 381.806967 
L 352.1646 381.783606 
L 352.906635 381.830357 
L 372.817907 381.922041 
L 373.065252 381.924958 
L 374.672995 381.929827 
L 377.641135 381.921397 
L 378.259498 381.924985 
L 378.506843 381.941904 
L 379.37255 381.940407 
L 380.980292 381.948733 
L 381.598655 381.910495 
L 381.969673 381.943462 
L 382.588035 381.936826 
L 383.701087 381.953714 
L 384.072105 381.931219 
L 384.443123 381.960232 
L 384.81414 381.951559 
L 386.421882 381.967225 
L 387.411262 381.950596 
L 390.132057 381.985878 
L 393.100197 381.995508 
L 397.18139 382.01855 
L 401.6336 382.064046 
L 402.870325 382.062173 
L 405.09643 382.090008 
L 413.753505 382.125911 
L 416.4743 382.138237 
L 417.711025 382.136258 
L 419.566112 382.159178 
L 421.91589 382.166167 
L 487.091297 382.836926 
L 490.306782 382.899965 
L 490.6778 382.908955 
L 491.790852 382.965556 
L 492.903905 382.998296 
L 496.861425 382.98403 
L 497.60346 383.02503 
L 499.458548 383.093892 
L 500.324255 383.131874 
L 502.921378 383.162726 
L 504.776465 383.225064 
L 506.50788 383.239707 
L 507.49726 383.231532 
L 510.4654 383.377967 
L 512.196815 383.409487 
L 517.88575 383.688416 
L 520.606545 383.744816 
L 521.34858 383.800105 
L 523.451012 383.918056 
L 526.542825 384.053384 
L 527.28486 384.08995 
L 527.532205 384.115859 
L 527.903222 384.187649 
L 528.645257 384.222 
L 532.850122 384.470305 
L 533.839502 384.56466 
L 536.560297 384.904567 
L 537.054987 384.987781 
L 538.16804 384.976852 
L 538.66273 385.083477 
L 539.15742 385.113814 
L 541.507197 385.418765 
L 541.754542 385.444369 
L 542.372905 385.522376 
L 543.733302 385.795997 
L 544.846355 385.847082 
L 545.341045 385.94798 
L 546.08308 386.057213 
L 546.454097 386.17804 
L 546.948787 386.211777 
L 547.196132 386.270609 
L 547.56715 386.32781 
L 548.185512 386.475227 
L 549.05122 386.528471 
L 549.422237 386.641475 
L 551.153652 386.884749 
L 551.648342 386.924162 
L 553.99812 387.300206 
L 555.234845 387.523965 
L 555.48219 387.786211 
L 556.96626 388.158359 
L 557.337277 388.270409 
L 559.43971 388.605446 
L 559.9344 388.827092 
L 561.542142 389.091153 
L 561.789487 389.263385 
L 562.531522 389.445215 
L 562.90254 389.613828 
L 563.026212 389.588545 
L 563.273557 389.638998 
L 563.520902 389.757185 
L 564.015592 390.056899 
L 564.38661 390.277274 
L 564.633955 390.45751 
L 565.252318 390.524 
L 565.499662 390.718907 
L 565.87068 390.759462 
L 566.241697 390.88732 
L 567.35475 391.006104 
L 567.478422 390.955567 
L 567.725767 391.139086 
L 568.096785 391.225988 
L 568.34413 391.332474 
L 568.83882 391.538812 
L 569.086165 391.711598 
L 570.570235 391.989111 
L 570.81758 392.297438 
L 571.188597 392.403068 
L 571.559615 392.472085 
L 571.930633 392.751138 
L 572.177977 392.841573 
L 572.548995 393.037146 
L 573.167357 393.406614 
L 573.29103 393.403036 
L 573.662047 393.645296 
L 574.033065 393.707199 
L 574.527755 394.024732 
L 574.7751 394.102213 
L 577.001205 394.308751 
L 577.495895 394.805333 
L 577.866913 394.803338 
L 578.114258 395.159184 
L 578.856292 395.386962 
L 579.103637 395.570349 
L 579.22731 395.545817 
L 579.474655 395.68559 
L 579.845672 395.96739 
L 580.093017 396.134332 
L 580.464035 396.209894 
L 581.20607 396.552784 
L 581.329742 396.545528 
L 581.577087 396.757335 
L 582.071777 396.861444 
L 583.432175 397.180163 
L 583.67952 397.405952 
L 583.926865 397.483233 
L 584.050538 397.512104 
L 584.297883 397.729127 
L 586.15297 398.080173 
L 586.523987 398.559895 
L 587.513367 399.251762 
L 587.63704 399.247069 
L 587.884385 399.461544 
L 588.008057 399.46541 
L 588.255402 399.71717 
L 588.379075 399.699546 
L 588.62642 399.915599 
L 588.750092 399.911445 
L 588.997437 400.262358 
L 591.09987 400.633631 
L 591.223543 400.558251 
L 591.59456 400.688197 
L 591.718232 400.596303 
L 591.965577 400.921679 
L 592.212922 401.112359 
L 592.58394 401.125563 
L 592.831285 401.300629 
L 593.07863 401.62439 
L 593.202302 401.60808 
L 593.696992 401.987046 
L 594.5627 402.124102 
L 594.810045 402.244728 
L 595.304735 402.349253 
L 595.675752 402.783661 
L 595.799425 402.782624 
L 596.294115 403.278418 
L 596.912478 403.348644 
L 597.283495 403.651267 
L 597.407168 403.643532 
L 597.654513 403.765238 
L 597.778185 403.772297 
L 598.02553 403.994532 
L 598.52022 403.988853 
L 599.262255 404.121324 
L 599.633272 404.637286 
L 600.00429 404.885212 
L 600.622652 404.910282 
L 600.99367 405.033853 
L 601.117342 405.039785 
L 601.48836 405.491999 
L 602.601412 405.954486 
L 602.97243 406.263308 
L 603.838138 406.388586 
L 604.209155 406.45869 
L 604.332828 406.454437 
L 604.580173 406.675877 
L 604.95119 406.721901 
L 605.322207 406.943483 
L 606.43526 407.008746 
L 606.92995 407.099338 
L 607.177295 407.061931 
L 607.42464 407.246996 
L 607.795657 407.32117 
L 608.166675 407.286647 
L 609.156055 408.01219 
L 610.269108 408.353747 
L 610.640125 408.56994 
L 611.38216 408.698408 
L 611.629505 408.831355 
L 611.87685 408.946325 
L 612.86623 409.03673 
L 613.36092 409.102762 
L 613.608265 409.187967 
L 614.226627 409.223149 
L 615.092335 409.302756 
L 615.958042 409.498861 
L 616.32906 409.719527 
L 616.947423 409.816244 
L 617.689458 410.304433 
L 617.936802 410.380391 
L 618.555165 410.423751 
L 618.926182 410.458763 
L 619.79189 410.58221 
L 623.25472 410.972534 
L 623.502065 410.97729 
L 623.74941 411.106972 
L 624.615117 411.171609 
L 625.109807 411.355275 
L 626.099187 411.462884 
L 626.470205 411.519892 
L 631.788122 411.955823 
L 632.406485 412.017912 
L 634.508917 412.124015 
L 635.62197 412.132099 
L 635.992988 412.243013 
L 638.713782 412.32328 
L 639.455817 412.368321 
L 642.671303 412.418563 
L 645.02108 412.576884 
L 647.247185 412.576375 
L 647.98922 412.618655 
L 649.102273 412.676143 
L 649.96798 412.712918 
L 658.996072 412.798921 
L 659.738107 412.809912 
L 664.437662 412.919582 
L 664.80868 412.921001 
L 667.653147 412.982144 
L 678.783672 413.132712 
L 678.783672 413.132712 
" style="fill:none;stroke:#1f77b4;stroke-linecap:square;stroke-width:3;"/>
   </g>
   <g id="line2d_15">
    <path clip-path="url(#p97a0afe4d8)" d="M 60.421172 60.822169 
L 69.325592 60.822169 
L 69.449265 228.353864 
L 78.353685 228.353864 
L 78.477357 211.387271 
L 78.60103 301.05319 
L 87.50545 301.05319 
L 87.629122 349.815095 
L 96.533542 349.815095 
L 96.657215 369.48109 
L 105.561635 369.48109 
L 105.685307 376.755022 
L 114.589727 376.755022 
L 114.7134 378.766198 
L 123.61782 378.766198 
L 123.741492 379.544123 
L 132.645913 379.544123 
L 132.893258 379.770755 
L 141.674005 379.770755 
L 141.92135 379.896571 
L 150.702097 379.896571 
L 150.949442 380.037599 
L 159.73019 380.037599 
L 159.977535 380.207781 
L 168.758283 380.207781 
L 169.005628 380.376979 
L 177.786375 380.376979 
L 178.03372 380.561978 
L 186.814467 380.561978 
L 187.061812 380.779584 
L 195.84256 380.779584 
L 196.089905 380.912292 
L 204.870653 380.912292 
L 205.117998 381.113463 
L 213.898745 381.113463 
L 214.022417 381.440272 
L 222.926837 381.440272 
L 223.05051 381.135711 
L 223.174182 381.788008 
L 232.202275 381.740405 
L 232.325947 382.201623 
L 241.230367 382.201623 
L 241.35404 382.767871 
L 250.25846 382.767871 
L 250.382133 384.015975 
L 259.286552 384.015975 
L 259.533897 384.223673 
L 268.314645 384.223673 
L 268.438317 385.652278 
L 277.342737 385.652278 
L 277.46641 387.436472 
L 286.37083 387.436472 
L 286.494503 387.886832 
L 286.618175 389.268468 
L 295.522595 389.268468 
L 295.646267 392.141101 
L 304.550687 392.141101 
L 304.67436 399.85521 
L 313.57878 399.85521 
L 313.702452 395.752242 
L 313.826125 406.737538 
L 322.730545 406.737538 
L 322.854218 409.737473 
L 331.758638 409.737473 
L 331.88231 412.480246 
L 340.78673 412.480246 
L 340.910402 409.706964 
L 341.034075 413.477018 
L 350.062167 413.543623 
L 350.18584 413.986047 
L 368.118353 414.054051 
L 368.365698 414.15419 
L 431.438672 414.250623 
L 431.80969 414.292502 
L 512.691505 414.391954 
L 513.92823 414.40411 
L 678.783672 414.485385 
L 678.783672 414.485385 
" style="fill:none;stroke:#ff7f0e;stroke-linecap:square;stroke-width:3;"/>
   </g>
   <g id="line2d_16">
    <path clip-path="url(#p97a0afe4d8)" d="M 60.421172 96.683286 
L 69.325592 96.683286 
L 69.449265 260.938587 
L 78.353685 260.938587 
L 78.477357 313.068989 
L 87.381777 313.068989 
L 87.50545 356.836749 
L 96.40987 356.836749 
L 96.533542 372.408147 
L 105.437962 372.408147 
L 105.561635 376.677686 
L 114.466055 376.677686 
L 114.589727 378.104214 
L 123.494147 378.104214 
L 123.61782 378.538369 
L 132.52224 378.538369 
L 132.769585 378.701316 
L 141.550332 378.701316 
L 141.797677 378.870566 
L 150.578425 378.870566 
L 150.702097 379.175486 
L 159.606517 379.175486 
L 159.73019 379.521934 
L 168.63461 379.521934 
L 168.881955 379.69644 
L 177.662702 379.69644 
L 177.786375 379.972647 
L 186.690795 379.972647 
L 186.93814 380.130187 
L 195.718887 380.130187 
L 195.966232 380.24982 
L 222.803165 380.351021 
L 223.5452 380.371123 
L 295.027905 380.461315 
L 295.151577 378.808879 
L 304.055997 378.808879 
L 304.17967 380.507352 
L 313.08409 380.507352 
L 313.207763 161.293631 
L 322.112183 161.293631 
L 322.235855 380.51176 
L 349.19646 380.620611 
L 349.443805 380.87082 
L 358.224553 380.87082 
L 358.348225 331.836897 
L 367.252645 331.836897 
L 367.376317 381.113039 
L 376.280737 381.113039 
L 376.40441 379.790081 
L 385.30883 379.790081 
L 385.432502 381.889493 
L 394.336923 381.889493 
L 394.460595 383.021012 
L 403.365015 383.021012 
L 403.488687 385.663853 
L 412.393107 385.663853 
L 412.51678 388.034631 
L 421.4212 388.034631 
L 421.544872 384.920634 
L 430.449293 384.920634 
L 430.572965 390.353365 
L 439.477385 390.353365 
L 439.601057 396.07887 
L 448.505477 396.07887 
L 448.62915 403.287388 
L 457.53357 403.287388 
L 457.657242 406.831725 
L 466.561663 406.831725 
L 466.685335 411.277825 
L 484.617847 411.206367 
L 484.74152 411.97492 
L 493.64594 411.97492 
L 493.769612 412.344498 
L 502.674032 412.344498 
L 502.797705 412.786493 
L 511.702125 412.786493 
L 511.825797 413.055872 
L 520.730217 413.055872 
L 520.85389 413.420547 
L 538.786402 413.503507 
L 539.033748 413.751795 
L 620.039235 413.857638 
L 621.646977 413.866645 
L 674.20779 413.927085 
L 674.578807 413.980073 
L 678.783672 413.980073 
L 678.783672 413.980073 
" style="fill:none;stroke:#2ca02c;stroke-linecap:square;stroke-width:3;"/>
   </g>
   <g id="line2d_17">
    <path clip-path="url(#p97a0afe4d8)" d="M 60.2975 485.156591 
L 678.66 485.156591 
" style="fill:none;stroke:#000000;stroke-dasharray:7.4,3.2;stroke-dashoffset:0;stroke-width:2;"/>
   </g>
   <g id="patch_3">
    <path d="M 60.2975 507.745 
L 60.2975 10.8 
" style="fill:none;stroke:#000000;stroke-linecap:square;stroke-linejoin:miter;stroke-width:0.8;"/>
   </g>
   <g id="patch_4">
    <path d="M 678.66 507.745 
L 678.66 10.8 
" style="fill:none;stroke:#000000;stroke-linecap:square;stroke-linejoin:miter;stroke-width:0.8;"/>
   </g>
   <g id="patch_5">
    <path d="M 60.2975 507.745 
L 678.66 507.745 
" style="fill:none;stroke:#000000;stroke-linecap:square;stroke-linejoin:miter;stroke-width:0.8;"/>
   </g>
   <g id="patch_6">
    <path d="M 60.2975 10.8 
L 678.66 10.8 
" style="fill:none;stroke:#000000;stroke-linecap:square;stroke-linejoin:miter;stroke-width:0.8;"/>
   </g>
   <g id="legend_1">
    <g id="patch_7">
     <path d="M 475.96125 170.91 
L 661.86 170.91 
Q 666.66 170.91 666.66 166.11 
L 666.66 27.6 
Q 666.66 22.8 661.86 22.8 
L 475.96125 22.8 
Q 471.16125 22.8 471.16125 27.6 
L 471.16125 166.11 
Q 471.16125 170.91 475.96125 170.91 
z
" style="fill:#ffffff;opacity:0.8;stroke:#cccccc;stroke-linejoin:miter;"/>
    </g>
    <g id="line2d_18">
     <path d="M 480.76125 42.23625 
L 528.76125 42.23625 
" style="fill:none;stroke:#1f77b4;stroke-linecap:square;stroke-width:3;"/>
    </g>
    <g id="line2d_19"/>
    <g id="text_16">
     <!-- COBYLA -->
     <g transform="translate(547.96125 50.63625)scale(0.24 -0.24)">
      <defs>
       <path d="M 4122 4306 
L 4122 3641 
Q 3803 3938 3442 4084 
Q 3081 4231 2675 4231 
Q 1875 4231 1450 3742 
Q 1025 3253 1025 2328 
Q 1025 1406 1450 917 
Q 1875 428 2675 428 
Q 3081 428 3442 575 
Q 3803 722 4122 1019 
L 4122 359 
Q 3791 134 3420 21 
Q 3050 -91 2638 -91 
Q 1578 -91 968 557 
Q 359 1206 359 2328 
Q 359 3453 968 4101 
Q 1578 4750 2638 4750 
Q 3056 4750 3426 4639 
Q 3797 4528 4122 4306 
z
" id="DejaVuSans-43" transform="scale(0.015625)"/>
       <path d="M 2522 4238 
Q 1834 4238 1429 3725 
Q 1025 3213 1025 2328 
Q 1025 1447 1429 934 
Q 1834 422 2522 422 
Q 3209 422 3611 934 
Q 4013 1447 4013 2328 
Q 4013 3213 3611 3725 
Q 3209 4238 2522 4238 
z
M 2522 4750 
Q 3503 4750 4090 4092 
Q 4678 3434 4678 2328 
Q 4678 1225 4090 567 
Q 3503 -91 2522 -91 
Q 1538 -91 948 565 
Q 359 1222 359 2328 
Q 359 3434 948 4092 
Q 1538 4750 2522 4750 
z
" id="DejaVuSans-4f" transform="scale(0.015625)"/>
       <path d="M 1259 2228 
L 1259 519 
L 2272 519 
Q 2781 519 3026 730 
Q 3272 941 3272 1375 
Q 3272 1813 3026 2020 
Q 2781 2228 2272 2228 
L 1259 2228 
z
M 1259 4147 
L 1259 2741 
L 2194 2741 
Q 2656 2741 2882 2914 
Q 3109 3088 3109 3444 
Q 3109 3797 2882 3972 
Q 2656 4147 2194 4147 
L 1259 4147 
z
M 628 4666 
L 2241 4666 
Q 2963 4666 3353 4366 
Q 3744 4066 3744 3513 
Q 3744 3084 3544 2831 
Q 3344 2578 2956 2516 
Q 3422 2416 3680 2098 
Q 3938 1781 3938 1306 
Q 3938 681 3513 340 
Q 3088 0 2303 0 
L 628 0 
L 628 4666 
z
" id="DejaVuSans-42" transform="scale(0.015625)"/>
       <path d="M -13 4666 
L 666 4666 
L 1959 2747 
L 3244 4666 
L 3922 4666 
L 2272 2222 
L 2272 0 
L 1638 0 
L 1638 2222 
L -13 4666 
z
" id="DejaVuSans-59" transform="scale(0.015625)"/>
       <path d="M 628 4666 
L 1259 4666 
L 1259 531 
L 3531 531 
L 3531 0 
L 628 0 
L 628 4666 
z
" id="DejaVuSans-4c" transform="scale(0.015625)"/>
       <path d="M 2188 4044 
L 1331 1722 
L 3047 1722 
L 2188 4044 
z
M 1831 4666 
L 2547 4666 
L 4325 0 
L 3669 0 
L 3244 1197 
L 1141 1197 
L 716 0 
L 50 0 
L 1831 4666 
z
" id="DejaVuSans-41" transform="scale(0.015625)"/>
      </defs>
      <use xlink:href="#DejaVuSans-43"/>
      <use x="69.824219" xlink:href="#DejaVuSans-4f"/>
      <use x="148.535156" xlink:href="#DejaVuSans-42"/>
      <use x="211.638672" xlink:href="#DejaVuSans-59"/>
      <use x="272.722656" xlink:href="#DejaVuSans-4c"/>
      <use x="330.685547" xlink:href="#DejaVuSans-41"/>
     </g>
    </g>
    <g id="line2d_20">
     <path d="M 480.76125 77.46375 
L 528.76125 77.46375 
" style="fill:none;stroke:#ff7f0e;stroke-linecap:square;stroke-width:3;"/>
    </g>
    <g id="line2d_21"/>
    <g id="text_17">
     <!-- SLSQP -->
     <g transform="translate(547.96125 85.86375)scale(0.24 -0.24)">
      <defs>
       <path d="M 3425 4513 
L 3425 3897 
Q 3066 4069 2747 4153 
Q 2428 4238 2131 4238 
Q 1616 4238 1336 4038 
Q 1056 3838 1056 3469 
Q 1056 3159 1242 3001 
Q 1428 2844 1947 2747 
L 2328 2669 
Q 3034 2534 3370 2195 
Q 3706 1856 3706 1288 
Q 3706 609 3251 259 
Q 2797 -91 1919 -91 
Q 1588 -91 1214 -16 
Q 841 59 441 206 
L 441 856 
Q 825 641 1194 531 
Q 1563 422 1919 422 
Q 2459 422 2753 634 
Q 3047 847 3047 1241 
Q 3047 1584 2836 1778 
Q 2625 1972 2144 2069 
L 1759 2144 
Q 1053 2284 737 2584 
Q 422 2884 422 3419 
Q 422 4038 858 4394 
Q 1294 4750 2059 4750 
Q 2388 4750 2728 4690 
Q 3069 4631 3425 4513 
z
" id="DejaVuSans-53" transform="scale(0.015625)"/>
       <path d="M 1259 4147 
L 1259 2394 
L 2053 2394 
Q 2494 2394 2734 2622 
Q 2975 2850 2975 3272 
Q 2975 3691 2734 3919 
Q 2494 4147 2053 4147 
L 1259 4147 
z
M 628 4666 
L 2053 4666 
Q 2838 4666 3239 4311 
Q 3641 3956 3641 3272 
Q 3641 2581 3239 2228 
Q 2838 1875 2053 1875 
L 1259 1875 
L 1259 0 
L 628 0 
L 628 4666 
z
" id="DejaVuSans-50" transform="scale(0.015625)"/>
      </defs>
      <use xlink:href="#DejaVuSans-53"/>
      <use x="63.476562" xlink:href="#DejaVuSans-4c"/>
      <use x="119.189453" xlink:href="#DejaVuSans-53"/>
      <use x="182.666016" xlink:href="#DejaVuSans-51"/>
      <use x="261.376953" xlink:href="#DejaVuSans-50"/>
     </g>
    </g>
    <g id="line2d_22">
     <path d="M 480.76125 112.69125 
L 528.76125 112.69125 
" style="fill:none;stroke:#2ca02c;stroke-linecap:square;stroke-width:3;"/>
    </g>
    <g id="line2d_23"/>
    <g id="text_18">
     <!-- L-BFGS-B -->
     <g transform="translate(547.96125 121.09125)scale(0.24 -0.24)">
      <defs>
       <path d="M 313 2009 
L 1997 2009 
L 1997 1497 
L 313 1497 
L 313 2009 
z
" id="DejaVuSans-2d" transform="scale(0.015625)"/>
       <path d="M 628 4666 
L 3309 4666 
L 3309 4134 
L 1259 4134 
L 1259 2759 
L 3109 2759 
L 3109 2228 
L 1259 2228 
L 1259 0 
L 628 0 
L 628 4666 
z
" id="DejaVuSans-46" transform="scale(0.015625)"/>
       <path d="M 3809 666 
L 3809 1919 
L 2778 1919 
L 2778 2438 
L 4434 2438 
L 4434 434 
Q 4069 175 3628 42 
Q 3188 -91 2688 -91 
Q 1594 -91 976 548 
Q 359 1188 359 2328 
Q 359 3472 976 4111 
Q 1594 4750 2688 4750 
Q 3144 4750 3555 4637 
Q 3966 4525 4313 4306 
L 4313 3634 
Q 3963 3931 3569 4081 
Q 3175 4231 2741 4231 
Q 1884 4231 1454 3753 
Q 1025 3275 1025 2328 
Q 1025 1384 1454 906 
Q 1884 428 2741 428 
Q 3075 428 3337 486 
Q 3600 544 3809 666 
z
" id="DejaVuSans-47" transform="scale(0.015625)"/>
      </defs>
      <use xlink:href="#DejaVuSans-4c"/>
      <use x="53.962891" xlink:href="#DejaVuSans-2d"/>
      <use x="86.421875" xlink:href="#DejaVuSans-42"/>
      <use x="155.025391" xlink:href="#DejaVuSans-46"/>
      <use x="212.544922" xlink:href="#DejaVuSans-47"/>
      <use x="290.035156" xlink:href="#DejaVuSans-53"/>
      <use x="353.511719" xlink:href="#DejaVuSans-2d"/>
      <use x="385.970703" xlink:href="#DejaVuSans-42"/>
     </g>
    </g>
    <g id="line2d_24">
     <path d="M 480.76125 147.91875 
L 528.76125 147.91875 
" style="fill:none;stroke:#000000;stroke-dasharray:7.4,3.2;stroke-dashoffset:0;stroke-width:2;"/>
    </g>
    <g id="line2d_25"/>
    <g id="text_19">
     <!-- HT -->
     <g transform="translate(547.96125 156.31875)scale(0.24 -0.24)">
      <defs>
       <path d="M 628 4666 
L 1259 4666 
L 1259 2753 
L 3553 2753 
L 3553 4666 
L 4184 4666 
L 4184 0 
L 3553 0 
L 3553 2222 
L 1259 2222 
L 1259 0 
L 628 0 
L 628 4666 
z
" id="DejaVuSans-48" transform="scale(0.015625)"/>
       <path d="M -19 4666 
L 3928 4666 
L 3928 4134 
L 2272 4134 
L 2272 0 
L 1638 0 
L 1638 4134 
L -19 4134 
L -19 4666 
z
" id="DejaVuSans-54" transform="scale(0.015625)"/>
      </defs>
      <use xlink:href="#DejaVuSans-48"/>
      <use x="75.195312" xlink:href="#DejaVuSans-54"/>
     </g>
    </g>
   </g>
  </g>
 </g>
 <defs>
  <clipPath id="p97a0afe4d8">
   <rect height="496.945" width="618.3625" x="60.2975" y="10.8"/>
  </clipPath>
 </defs>
</svg>
